<?xml version="1.0" encoding="utf-8" standalone="no"?>
<!DOCTYPE svg PUBLIC "-//W3C//DTD SVG 1.1//EN"
  "http://www.w3.org/Graphics/SVG/1.1/DTD/svg11.dtd">
<svg xmlns:xlink="http://www.w3.org/1999/xlink" width="352.370625pt" height="351.674687pt" viewBox="0 0 352.370625 351.674687" xmlns="http://www.w3.org/2000/svg" version="1.1">
 <metadata>
  <rdf:RDF xmlns:dc="http://purl.org/dc/elements/1.1/" xmlns:cc="http://creativecommons.org/ns#" xmlns:rdf="http://www.w3.org/1999/02/22-rdf-syntax-ns#">
   <cc:Work>
    <dc:type rdf:resource="http://purl.org/dc/dcmitype/StillImage"/>
    <dc:date>2025-01-17T14:26:39.670914</dc:date>
    <dc:format>image/svg+xml</dc:format>
    <dc:creator>
     <cc:Agent>
      <dc:title>Matplotlib v3.7.2, https://matplotlib.org/</dc:title>
     </cc:Agent>
    </dc:creator>
   </cc:Work>
  </rdf:RDF>
 </metadata>
 <defs>
  <style type="text/css">*{stroke-linejoin: round; stroke-linecap: butt}</style>
 </defs>
 <g id="figure_1">
  <g id="patch_1">
   <path d="M 0 351.674687 
L 352.370625 351.674687 
L 352.370625 0 
L 0 0 
z
" style="fill: #ffffff"/>
  </g>
  <g id="axes_1">
   <g id="patch_2">
    <path d="M 34.240625 314.118437 
L 345.170625 314.118437 
L 345.170625 17.798437 
L 34.240625 17.798437 
z
" style="fill: #ffffff"/>
   </g>
   <g id="matplotlib.axis_1">
    <g id="xtick_1">
     <g id="line2d_1">
      <defs>
       <path id="m2272083cee" d="M 0 0 
L 0 3.5 
" style="stroke: #000000; stroke-width: 0.8"/>
      </defs>
      <g>
       <use xlink:href="#m2272083cee" x="47.759321" y="314.118437" style="stroke: #000000; stroke-width: 0.8"/>
      </g>
     </g>
     <g id="text_1">
      <!-- 0 -->
      <g transform="translate(44.578071 328.716875) scale(0.1 -0.1)">
       <defs>
        <path id="DejaVuSans-30" d="M 2034 4250 
Q 1547 4250 1301 3770 
Q 1056 3291 1056 2328 
Q 1056 1369 1301 889 
Q 1547 409 2034 409 
Q 2525 409 2770 889 
Q 3016 1369 3016 2328 
Q 3016 3291 2770 3770 
Q 2525 4250 2034 4250 
z
M 2034 4750 
Q 2819 4750 3233 4129 
Q 3647 3509 3647 2328 
Q 3647 1150 3233 529 
Q 2819 -91 2034 -91 
Q 1250 -91 836 529 
Q 422 1150 422 2328 
Q 422 3509 836 4129 
Q 1250 4750 2034 4750 
z
" transform="scale(0.015625)"/>
       </defs>
       <use xlink:href="#DejaVuSans-30"/>
      </g>
     </g>
    </g>
    <g id="xtick_2">
     <g id="line2d_2">
      <g>
       <use xlink:href="#m2272083cee" x="115.352799" y="314.118437" style="stroke: #000000; stroke-width: 0.8"/>
      </g>
     </g>
     <g id="text_2">
      <!-- 1 -->
      <g transform="translate(112.171549 328.716875) scale(0.1 -0.1)">
       <defs>
        <path id="DejaVuSans-31" d="M 794 531 
L 1825 531 
L 1825 4091 
L 703 3866 
L 703 4441 
L 1819 4666 
L 2450 4666 
L 2450 531 
L 3481 531 
L 3481 0 
L 794 0 
L 794 531 
z
" transform="scale(0.015625)"/>
       </defs>
       <use xlink:href="#DejaVuSans-31"/>
      </g>
     </g>
    </g>
    <g id="xtick_3">
     <g id="line2d_3">
      <g>
       <use xlink:href="#m2272083cee" x="182.946277" y="314.118437" style="stroke: #000000; stroke-width: 0.8"/>
      </g>
     </g>
     <g id="text_3">
      <!-- 2 -->
      <g transform="translate(179.765027 328.716875) scale(0.1 -0.1)">
       <defs>
        <path id="DejaVuSans-32" d="M 1228 531 
L 3431 531 
L 3431 0 
L 469 0 
L 469 531 
Q 828 903 1448 1529 
Q 2069 2156 2228 2338 
Q 2531 2678 2651 2914 
Q 2772 3150 2772 3378 
Q 2772 3750 2511 3984 
Q 2250 4219 1831 4219 
Q 1534 4219 1204 4116 
Q 875 4013 500 3803 
L 500 4441 
Q 881 4594 1212 4672 
Q 1544 4750 1819 4750 
Q 2544 4750 2975 4387 
Q 3406 4025 3406 3419 
Q 3406 3131 3298 2873 
Q 3191 2616 2906 2266 
Q 2828 2175 2409 1742 
Q 1991 1309 1228 531 
z
" transform="scale(0.015625)"/>
       </defs>
       <use xlink:href="#DejaVuSans-32"/>
      </g>
     </g>
    </g>
    <g id="xtick_4">
     <g id="line2d_4">
      <g>
       <use xlink:href="#m2272083cee" x="250.539755" y="314.118437" style="stroke: #000000; stroke-width: 0.8"/>
      </g>
     </g>
     <g id="text_4">
      <!-- 3 -->
      <g transform="translate(247.358505 328.716875) scale(0.1 -0.1)">
       <defs>
        <path id="DejaVuSans-33" d="M 2597 2516 
Q 3050 2419 3304 2112 
Q 3559 1806 3559 1356 
Q 3559 666 3084 287 
Q 2609 -91 1734 -91 
Q 1441 -91 1130 -33 
Q 819 25 488 141 
L 488 750 
Q 750 597 1062 519 
Q 1375 441 1716 441 
Q 2309 441 2620 675 
Q 2931 909 2931 1356 
Q 2931 1769 2642 2001 
Q 2353 2234 1838 2234 
L 1294 2234 
L 1294 2753 
L 1863 2753 
Q 2328 2753 2575 2939 
Q 2822 3125 2822 3475 
Q 2822 3834 2567 4026 
Q 2313 4219 1838 4219 
Q 1578 4219 1281 4162 
Q 984 4106 628 3988 
L 628 4550 
Q 988 4650 1302 4700 
Q 1616 4750 1894 4750 
Q 2613 4750 3031 4423 
Q 3450 4097 3450 3541 
Q 3450 3153 3228 2886 
Q 3006 2619 2597 2516 
z
" transform="scale(0.015625)"/>
       </defs>
       <use xlink:href="#DejaVuSans-33"/>
      </g>
     </g>
    </g>
    <g id="xtick_5">
     <g id="line2d_5">
      <g>
       <use xlink:href="#m2272083cee" x="318.133234" y="314.118437" style="stroke: #000000; stroke-width: 0.8"/>
      </g>
     </g>
     <g id="text_5">
      <!-- 4 -->
      <g transform="translate(314.951984 328.716875) scale(0.1 -0.1)">
       <defs>
        <path id="DejaVuSans-34" d="M 2419 4116 
L 825 1625 
L 2419 1625 
L 2419 4116 
z
M 2253 4666 
L 3047 4666 
L 3047 1625 
L 3713 1625 
L 3713 1100 
L 3047 1100 
L 3047 0 
L 2419 0 
L 2419 1100 
L 313 1100 
L 313 1709 
L 2253 4666 
z
" transform="scale(0.015625)"/>
       </defs>
       <use xlink:href="#DejaVuSans-34"/>
      </g>
     </g>
    </g>
    <g id="text_6">
     <!-- Number of pairs per bin -->
     <g transform="translate(130.118125 342.395) scale(0.1 -0.1)">
      <defs>
       <path id="DejaVuSans-4e" d="M 628 4666 
L 1478 4666 
L 3547 763 
L 3547 4666 
L 4159 4666 
L 4159 0 
L 3309 0 
L 1241 3903 
L 1241 0 
L 628 0 
L 628 4666 
z
" transform="scale(0.015625)"/>
       <path id="DejaVuSans-75" d="M 544 1381 
L 544 3500 
L 1119 3500 
L 1119 1403 
Q 1119 906 1312 657 
Q 1506 409 1894 409 
Q 2359 409 2629 706 
Q 2900 1003 2900 1516 
L 2900 3500 
L 3475 3500 
L 3475 0 
L 2900 0 
L 2900 538 
Q 2691 219 2414 64 
Q 2138 -91 1772 -91 
Q 1169 -91 856 284 
Q 544 659 544 1381 
z
M 1991 3584 
L 1991 3584 
z
" transform="scale(0.015625)"/>
       <path id="DejaVuSans-6d" d="M 3328 2828 
Q 3544 3216 3844 3400 
Q 4144 3584 4550 3584 
Q 5097 3584 5394 3201 
Q 5691 2819 5691 2113 
L 5691 0 
L 5113 0 
L 5113 2094 
Q 5113 2597 4934 2840 
Q 4756 3084 4391 3084 
Q 3944 3084 3684 2787 
Q 3425 2491 3425 1978 
L 3425 0 
L 2847 0 
L 2847 2094 
Q 2847 2600 2669 2842 
Q 2491 3084 2119 3084 
Q 1678 3084 1418 2786 
Q 1159 2488 1159 1978 
L 1159 0 
L 581 0 
L 581 3500 
L 1159 3500 
L 1159 2956 
Q 1356 3278 1631 3431 
Q 1906 3584 2284 3584 
Q 2666 3584 2933 3390 
Q 3200 3197 3328 2828 
z
" transform="scale(0.015625)"/>
       <path id="DejaVuSans-62" d="M 3116 1747 
Q 3116 2381 2855 2742 
Q 2594 3103 2138 3103 
Q 1681 3103 1420 2742 
Q 1159 2381 1159 1747 
Q 1159 1113 1420 752 
Q 1681 391 2138 391 
Q 2594 391 2855 752 
Q 3116 1113 3116 1747 
z
M 1159 2969 
Q 1341 3281 1617 3432 
Q 1894 3584 2278 3584 
Q 2916 3584 3314 3078 
Q 3713 2572 3713 1747 
Q 3713 922 3314 415 
Q 2916 -91 2278 -91 
Q 1894 -91 1617 61 
Q 1341 213 1159 525 
L 1159 0 
L 581 0 
L 581 4863 
L 1159 4863 
L 1159 2969 
z
" transform="scale(0.015625)"/>
       <path id="DejaVuSans-65" d="M 3597 1894 
L 3597 1613 
L 953 1613 
Q 991 1019 1311 708 
Q 1631 397 2203 397 
Q 2534 397 2845 478 
Q 3156 559 3463 722 
L 3463 178 
Q 3153 47 2828 -22 
Q 2503 -91 2169 -91 
Q 1331 -91 842 396 
Q 353 884 353 1716 
Q 353 2575 817 3079 
Q 1281 3584 2069 3584 
Q 2775 3584 3186 3129 
Q 3597 2675 3597 1894 
z
M 3022 2063 
Q 3016 2534 2758 2815 
Q 2500 3097 2075 3097 
Q 1594 3097 1305 2825 
Q 1016 2553 972 2059 
L 3022 2063 
z
" transform="scale(0.015625)"/>
       <path id="DejaVuSans-72" d="M 2631 2963 
Q 2534 3019 2420 3045 
Q 2306 3072 2169 3072 
Q 1681 3072 1420 2755 
Q 1159 2438 1159 1844 
L 1159 0 
L 581 0 
L 581 3500 
L 1159 3500 
L 1159 2956 
Q 1341 3275 1631 3429 
Q 1922 3584 2338 3584 
Q 2397 3584 2469 3576 
Q 2541 3569 2628 3553 
L 2631 2963 
z
" transform="scale(0.015625)"/>
       <path id="DejaVuSans-20" transform="scale(0.015625)"/>
       <path id="DejaVuSans-6f" d="M 1959 3097 
Q 1497 3097 1228 2736 
Q 959 2375 959 1747 
Q 959 1119 1226 758 
Q 1494 397 1959 397 
Q 2419 397 2687 759 
Q 2956 1122 2956 1747 
Q 2956 2369 2687 2733 
Q 2419 3097 1959 3097 
z
M 1959 3584 
Q 2709 3584 3137 3096 
Q 3566 2609 3566 1747 
Q 3566 888 3137 398 
Q 2709 -91 1959 -91 
Q 1206 -91 779 398 
Q 353 888 353 1747 
Q 353 2609 779 3096 
Q 1206 3584 1959 3584 
z
" transform="scale(0.015625)"/>
       <path id="DejaVuSans-66" d="M 2375 4863 
L 2375 4384 
L 1825 4384 
Q 1516 4384 1395 4259 
Q 1275 4134 1275 3809 
L 1275 3500 
L 2222 3500 
L 2222 3053 
L 1275 3053 
L 1275 0 
L 697 0 
L 697 3053 
L 147 3053 
L 147 3500 
L 697 3500 
L 697 3744 
Q 697 4328 969 4595 
Q 1241 4863 1831 4863 
L 2375 4863 
z
" transform="scale(0.015625)"/>
       <path id="DejaVuSans-70" d="M 1159 525 
L 1159 -1331 
L 581 -1331 
L 581 3500 
L 1159 3500 
L 1159 2969 
Q 1341 3281 1617 3432 
Q 1894 3584 2278 3584 
Q 2916 3584 3314 3078 
Q 3713 2572 3713 1747 
Q 3713 922 3314 415 
Q 2916 -91 2278 -91 
Q 1894 -91 1617 61 
Q 1341 213 1159 525 
z
M 3116 1747 
Q 3116 2381 2855 2742 
Q 2594 3103 2138 3103 
Q 1681 3103 1420 2742 
Q 1159 2381 1159 1747 
Q 1159 1113 1420 752 
Q 1681 391 2138 391 
Q 2594 391 2855 752 
Q 3116 1113 3116 1747 
z
" transform="scale(0.015625)"/>
       <path id="DejaVuSans-61" d="M 2194 1759 
Q 1497 1759 1228 1600 
Q 959 1441 959 1056 
Q 959 750 1161 570 
Q 1363 391 1709 391 
Q 2188 391 2477 730 
Q 2766 1069 2766 1631 
L 2766 1759 
L 2194 1759 
z
M 3341 1997 
L 3341 0 
L 2766 0 
L 2766 531 
Q 2569 213 2275 61 
Q 1981 -91 1556 -91 
Q 1019 -91 701 211 
Q 384 513 384 1019 
Q 384 1609 779 1909 
Q 1175 2209 1959 2209 
L 2766 2209 
L 2766 2266 
Q 2766 2663 2505 2880 
Q 2244 3097 1772 3097 
Q 1472 3097 1187 3025 
Q 903 2953 641 2809 
L 641 3341 
Q 956 3463 1253 3523 
Q 1550 3584 1831 3584 
Q 2591 3584 2966 3190 
Q 3341 2797 3341 1997 
z
" transform="scale(0.015625)"/>
       <path id="DejaVuSans-69" d="M 603 3500 
L 1178 3500 
L 1178 0 
L 603 0 
L 603 3500 
z
M 603 4863 
L 1178 4863 
L 1178 4134 
L 603 4134 
L 603 4863 
z
" transform="scale(0.015625)"/>
       <path id="DejaVuSans-73" d="M 2834 3397 
L 2834 2853 
Q 2591 2978 2328 3040 
Q 2066 3103 1784 3103 
Q 1356 3103 1142 2972 
Q 928 2841 928 2578 
Q 928 2378 1081 2264 
Q 1234 2150 1697 2047 
L 1894 2003 
Q 2506 1872 2764 1633 
Q 3022 1394 3022 966 
Q 3022 478 2636 193 
Q 2250 -91 1575 -91 
Q 1294 -91 989 -36 
Q 684 19 347 128 
L 347 722 
Q 666 556 975 473 
Q 1284 391 1588 391 
Q 1994 391 2212 530 
Q 2431 669 2431 922 
Q 2431 1156 2273 1281 
Q 2116 1406 1581 1522 
L 1381 1569 
Q 847 1681 609 1914 
Q 372 2147 372 2553 
Q 372 3047 722 3315 
Q 1072 3584 1716 3584 
Q 2034 3584 2315 3537 
Q 2597 3491 2834 3397 
z
" transform="scale(0.015625)"/>
       <path id="DejaVuSans-6e" d="M 3513 2113 
L 3513 0 
L 2938 0 
L 2938 2094 
Q 2938 2591 2744 2837 
Q 2550 3084 2163 3084 
Q 1697 3084 1428 2787 
Q 1159 2491 1159 1978 
L 1159 0 
L 581 0 
L 581 3500 
L 1159 3500 
L 1159 2956 
Q 1366 3272 1645 3428 
Q 1925 3584 2291 3584 
Q 2894 3584 3203 3211 
Q 3513 2838 3513 2113 
z
" transform="scale(0.015625)"/>
      </defs>
      <use xlink:href="#DejaVuSans-4e"/>
      <use xlink:href="#DejaVuSans-75" x="74.804688"/>
      <use xlink:href="#DejaVuSans-6d" x="138.183594"/>
      <use xlink:href="#DejaVuSans-62" x="235.595703"/>
      <use xlink:href="#DejaVuSans-65" x="299.072266"/>
      <use xlink:href="#DejaVuSans-72" x="360.595703"/>
      <use xlink:href="#DejaVuSans-20" x="401.708984"/>
      <use xlink:href="#DejaVuSans-6f" x="433.496094"/>
      <use xlink:href="#DejaVuSans-66" x="494.677734"/>
      <use xlink:href="#DejaVuSans-20" x="529.882812"/>
      <use xlink:href="#DejaVuSans-70" x="561.669922"/>
      <use xlink:href="#DejaVuSans-61" x="625.146484"/>
      <use xlink:href="#DejaVuSans-69" x="686.425781"/>
      <use xlink:href="#DejaVuSans-72" x="714.208984"/>
      <use xlink:href="#DejaVuSans-73" x="755.322266"/>
      <use xlink:href="#DejaVuSans-20" x="807.421875"/>
      <use xlink:href="#DejaVuSans-70" x="839.208984"/>
      <use xlink:href="#DejaVuSans-65" x="902.685547"/>
      <use xlink:href="#DejaVuSans-72" x="964.208984"/>
      <use xlink:href="#DejaVuSans-20" x="1005.322266"/>
      <use xlink:href="#DejaVuSans-62" x="1037.109375"/>
      <use xlink:href="#DejaVuSans-69" x="1100.585938"/>
      <use xlink:href="#DejaVuSans-6e" x="1128.369141"/>
     </g>
    </g>
    <g id="text_7">
     <!-- 1e6 -->
     <g transform="translate(326.2925 341.395) scale(0.1 -0.1)">
      <defs>
       <path id="DejaVuSans-36" d="M 2113 2584 
Q 1688 2584 1439 2293 
Q 1191 2003 1191 1497 
Q 1191 994 1439 701 
Q 1688 409 2113 409 
Q 2538 409 2786 701 
Q 3034 994 3034 1497 
Q 3034 2003 2786 2293 
Q 2538 2584 2113 2584 
z
M 3366 4563 
L 3366 3988 
Q 3128 4100 2886 4159 
Q 2644 4219 2406 4219 
Q 1781 4219 1451 3797 
Q 1122 3375 1075 2522 
Q 1259 2794 1537 2939 
Q 1816 3084 2150 3084 
Q 2853 3084 3261 2657 
Q 3669 2231 3669 1497 
Q 3669 778 3244 343 
Q 2819 -91 2113 -91 
Q 1303 -91 875 529 
Q 447 1150 447 2328 
Q 447 3434 972 4092 
Q 1497 4750 2381 4750 
Q 2619 4750 2861 4703 
Q 3103 4656 3366 4563 
z
" transform="scale(0.015625)"/>
      </defs>
      <use xlink:href="#DejaVuSans-31"/>
      <use xlink:href="#DejaVuSans-65" x="63.623047"/>
      <use xlink:href="#DejaVuSans-36" x="125.146484"/>
     </g>
    </g>
   </g>
   <g id="matplotlib.axis_2">
    <g id="ytick_1">
     <g id="line2d_6">
      <defs>
       <path id="mcc8f636b21" d="M 0 0 
L -3.5 0 
" style="stroke: #000000; stroke-width: 0.8"/>
      </defs>
      <g>
       <use xlink:href="#mcc8f636b21" x="34.240625" y="301.234959" style="stroke: #000000; stroke-width: 0.8"/>
      </g>
     </g>
     <g id="text_8">
      <!-- 0 -->
      <g transform="translate(20.878125 305.034178) scale(0.1 -0.1)">
       <use xlink:href="#DejaVuSans-30"/>
      </g>
     </g>
    </g>
    <g id="ytick_2">
     <g id="line2d_7">
      <g>
       <use xlink:href="#mcc8f636b21" x="34.240625" y="236.817568" style="stroke: #000000; stroke-width: 0.8"/>
      </g>
     </g>
     <g id="text_9">
      <!-- 1 -->
      <g transform="translate(20.878125 240.616787) scale(0.1 -0.1)">
       <use xlink:href="#DejaVuSans-31"/>
      </g>
     </g>
    </g>
    <g id="ytick_3">
     <g id="line2d_8">
      <g>
       <use xlink:href="#mcc8f636b21" x="34.240625" y="172.400177" style="stroke: #000000; stroke-width: 0.8"/>
      </g>
     </g>
     <g id="text_10">
      <!-- 2 -->
      <g transform="translate(20.878125 176.199395) scale(0.1 -0.1)">
       <use xlink:href="#DejaVuSans-32"/>
      </g>
     </g>
    </g>
    <g id="ytick_4">
     <g id="line2d_9">
      <g>
       <use xlink:href="#mcc8f636b21" x="34.240625" y="107.982785" style="stroke: #000000; stroke-width: 0.8"/>
      </g>
     </g>
     <g id="text_11">
      <!-- 3 -->
      <g transform="translate(20.878125 111.782004) scale(0.1 -0.1)">
       <use xlink:href="#DejaVuSans-33"/>
      </g>
     </g>
    </g>
    <g id="ytick_5">
     <g id="line2d_10">
      <g>
       <use xlink:href="#mcc8f636b21" x="34.240625" y="43.565394" style="stroke: #000000; stroke-width: 0.8"/>
      </g>
     </g>
     <g id="text_12">
      <!-- 4 -->
      <g transform="translate(20.878125 47.364613) scale(0.1 -0.1)">
       <use xlink:href="#DejaVuSans-34"/>
      </g>
     </g>
    </g>
    <g id="text_13">
     <!-- Number of unique pairs per bin -->
     <g transform="translate(14.798438 244.281094) rotate(-90) scale(0.1 -0.1)">
      <defs>
       <path id="DejaVuSans-71" d="M 947 1747 
Q 947 1113 1208 752 
Q 1469 391 1925 391 
Q 2381 391 2643 752 
Q 2906 1113 2906 1747 
Q 2906 2381 2643 2742 
Q 2381 3103 1925 3103 
Q 1469 3103 1208 2742 
Q 947 2381 947 1747 
z
M 2906 525 
Q 2725 213 2448 61 
Q 2172 -91 1784 -91 
Q 1150 -91 751 415 
Q 353 922 353 1747 
Q 353 2572 751 3078 
Q 1150 3584 1784 3584 
Q 2172 3584 2448 3432 
Q 2725 3281 2906 2969 
L 2906 3500 
L 3481 3500 
L 3481 -1331 
L 2906 -1331 
L 2906 525 
z
" transform="scale(0.015625)"/>
      </defs>
      <use xlink:href="#DejaVuSans-4e"/>
      <use xlink:href="#DejaVuSans-75" x="74.804688"/>
      <use xlink:href="#DejaVuSans-6d" x="138.183594"/>
      <use xlink:href="#DejaVuSans-62" x="235.595703"/>
      <use xlink:href="#DejaVuSans-65" x="299.072266"/>
      <use xlink:href="#DejaVuSans-72" x="360.595703"/>
      <use xlink:href="#DejaVuSans-20" x="401.708984"/>
      <use xlink:href="#DejaVuSans-6f" x="433.496094"/>
      <use xlink:href="#DejaVuSans-66" x="494.677734"/>
      <use xlink:href="#DejaVuSans-20" x="529.882812"/>
      <use xlink:href="#DejaVuSans-75" x="561.669922"/>
      <use xlink:href="#DejaVuSans-6e" x="625.048828"/>
      <use xlink:href="#DejaVuSans-69" x="688.427734"/>
      <use xlink:href="#DejaVuSans-71" x="716.210938"/>
      <use xlink:href="#DejaVuSans-75" x="779.6875"/>
      <use xlink:href="#DejaVuSans-65" x="843.066406"/>
      <use xlink:href="#DejaVuSans-20" x="904.589844"/>
      <use xlink:href="#DejaVuSans-70" x="936.376953"/>
      <use xlink:href="#DejaVuSans-61" x="999.853516"/>
      <use xlink:href="#DejaVuSans-69" x="1061.132812"/>
      <use xlink:href="#DejaVuSans-72" x="1088.916016"/>
      <use xlink:href="#DejaVuSans-73" x="1130.029297"/>
      <use xlink:href="#DejaVuSans-20" x="1182.128906"/>
      <use xlink:href="#DejaVuSans-70" x="1213.916016"/>
      <use xlink:href="#DejaVuSans-65" x="1277.392578"/>
      <use xlink:href="#DejaVuSans-72" x="1338.916016"/>
      <use xlink:href="#DejaVuSans-20" x="1380.029297"/>
      <use xlink:href="#DejaVuSans-62" x="1411.816406"/>
      <use xlink:href="#DejaVuSans-69" x="1475.292969"/>
      <use xlink:href="#DejaVuSans-6e" x="1503.076172"/>
     </g>
    </g>
    <g id="text_14">
     <!-- 1e6 -->
     <g transform="translate(34.240625 14.798437) scale(0.1 -0.1)">
      <use xlink:href="#DejaVuSans-31"/>
      <use xlink:href="#DejaVuSans-65" x="63.623047"/>
      <use xlink:href="#DejaVuSans-36" x="125.146484"/>
     </g>
    </g>
   </g>
   <g id="line2d_11">
    <path d="M 48.950521 300.026167 
L 53.71532 295.20343 
L 59.671319 289.176475 
L 71.583318 277.104849 
L 83.495317 265.023882 
L 95.407315 252.939502 
L 143.05531 204.574022 
L 190.703305 156.290096 
L 333.647289 138.767599 
" clip-path="url(#p663fbccf60)" style="fill: none; stroke: #1f77b4; stroke-width: 1.5; stroke-linecap: square"/>
    <defs>
     <path id="m973af27b38" d="M 0 3 
C 0.795609 3 1.55874 2.683901 2.12132 2.12132 
C 2.683901 1.55874 3 0.795609 3 0 
C 3 -0.795609 2.683901 -1.55874 2.12132 -2.12132 
C 1.55874 -2.683901 0.795609 -3 0 -3 
C -0.795609 -3 -1.55874 -2.683901 -2.12132 -2.12132 
C -2.683901 -1.55874 -3 -0.795609 -3 0 
C -3 0.795609 -2.683901 1.55874 -2.12132 2.12132 
C -1.55874 2.683901 -0.795609 3 0 3 
z
" style="stroke: #1f77b4"/>
    </defs>
    <g clip-path="url(#p663fbccf60)">
     <use xlink:href="#m973af27b38" x="48.950521" y="300.026167" style="fill: #1f77b4; stroke: #1f77b4"/>
     <use xlink:href="#m973af27b38" x="53.71532" y="295.20343" style="fill: #1f77b4; stroke: #1f77b4"/>
     <use xlink:href="#m973af27b38" x="59.671319" y="289.176475" style="fill: #1f77b4; stroke: #1f77b4"/>
     <use xlink:href="#m973af27b38" x="71.583318" y="277.104849" style="fill: #1f77b4; stroke: #1f77b4"/>
     <use xlink:href="#m973af27b38" x="83.495317" y="265.023882" style="fill: #1f77b4; stroke: #1f77b4"/>
     <use xlink:href="#m973af27b38" x="95.407315" y="252.939502" style="fill: #1f77b4; stroke: #1f77b4"/>
     <use xlink:href="#m973af27b38" x="143.05531" y="204.574022" style="fill: #1f77b4; stroke: #1f77b4"/>
     <use xlink:href="#m973af27b38" x="190.703305" y="156.290096" style="fill: #1f77b4; stroke: #1f77b4"/>
     <use xlink:href="#m973af27b38" x="333.647289" y="138.767599" style="fill: #1f77b4; stroke: #1f77b4"/>
    </g>
   </g>
   <g id="line2d_12">
    <path d="M 48.950521 300.022688 
L 53.71532 295.177148 
L 59.671319 289.133508 
L 71.583318 277.095959 
L 83.495317 265.13191 
L 95.407315 253.189312 
L 143.05531 205.509299 
L 190.703305 158.738536 
L 333.647289 94.596851 
" clip-path="url(#p663fbccf60)" style="fill: none; stroke: #ff7f0e; stroke-width: 1.5; stroke-linecap: square"/>
    <defs>
     <path id="m3d28a3b9ec" d="M 0 3 
C 0.795609 3 1.55874 2.683901 2.12132 2.12132 
C 2.683901 1.55874 3 0.795609 3 0 
C 3 -0.795609 2.683901 -1.55874 2.12132 -2.12132 
C 1.55874 -2.683901 0.795609 -3 0 -3 
C -0.795609 -3 -1.55874 -2.683901 -2.12132 -2.12132 
C -2.683901 -1.55874 -3 -0.795609 -3 0 
C -3 0.795609 -2.683901 1.55874 -2.12132 2.12132 
C -1.55874 2.683901 -0.795609 3 0 3 
z
" style="stroke: #ff7f0e"/>
    </defs>
    <g clip-path="url(#p663fbccf60)">
     <use xlink:href="#m3d28a3b9ec" x="48.950521" y="300.022688" style="fill: #ff7f0e; stroke: #ff7f0e"/>
     <use xlink:href="#m3d28a3b9ec" x="53.71532" y="295.177148" style="fill: #ff7f0e; stroke: #ff7f0e"/>
     <use xlink:href="#m3d28a3b9ec" x="59.671319" y="289.133508" style="fill: #ff7f0e; stroke: #ff7f0e"/>
     <use xlink:href="#m3d28a3b9ec" x="71.583318" y="277.095959" style="fill: #ff7f0e; stroke: #ff7f0e"/>
     <use xlink:href="#m3d28a3b9ec" x="83.495317" y="265.13191" style="fill: #ff7f0e; stroke: #ff7f0e"/>
     <use xlink:href="#m3d28a3b9ec" x="95.407315" y="253.189312" style="fill: #ff7f0e; stroke: #ff7f0e"/>
     <use xlink:href="#m3d28a3b9ec" x="143.05531" y="205.509299" style="fill: #ff7f0e; stroke: #ff7f0e"/>
     <use xlink:href="#m3d28a3b9ec" x="190.703305" y="158.738536" style="fill: #ff7f0e; stroke: #ff7f0e"/>
     <use xlink:href="#m3d28a3b9ec" x="333.647289" y="94.596851" style="fill: #ff7f0e; stroke: #ff7f0e"/>
    </g>
   </g>
   <g id="line2d_13">
    <path d="M 48.950521 300.031127 
L 53.71532 295.293936 
L 59.671319 289.442712 
L 71.583318 277.871351 
L 83.495317 266.51289 
L 95.407315 255.248285 
L 143.05531 210.922807 
L 190.703305 170.6401 
L 333.647289 127.123705 
" clip-path="url(#p663fbccf60)" style="fill: none; stroke: #2ca02c; stroke-width: 1.5; stroke-linecap: square"/>
    <defs>
     <path id="mc61ec1e97b" d="M 0 3 
C 0.795609 3 1.55874 2.683901 2.12132 2.12132 
C 2.683901 1.55874 3 0.795609 3 0 
C 3 -0.795609 2.683901 -1.55874 2.12132 -2.12132 
C 1.55874 -2.683901 0.795609 -3 0 -3 
C -0.795609 -3 -1.55874 -2.683901 -2.12132 -2.12132 
C -2.683901 -1.55874 -3 -0.795609 -3 0 
C -3 0.795609 -2.683901 1.55874 -2.12132 2.12132 
C -1.55874 2.683901 -0.795609 3 0 3 
z
" style="stroke: #2ca02c"/>
    </defs>
    <g clip-path="url(#p663fbccf60)">
     <use xlink:href="#mc61ec1e97b" x="48.950521" y="300.031127" style="fill: #2ca02c; stroke: #2ca02c"/>
     <use xlink:href="#mc61ec1e97b" x="53.71532" y="295.293936" style="fill: #2ca02c; stroke: #2ca02c"/>
     <use xlink:href="#mc61ec1e97b" x="59.671319" y="289.442712" style="fill: #2ca02c; stroke: #2ca02c"/>
     <use xlink:href="#mc61ec1e97b" x="71.583318" y="277.871351" style="fill: #2ca02c; stroke: #2ca02c"/>
     <use xlink:href="#mc61ec1e97b" x="83.495317" y="266.51289" style="fill: #2ca02c; stroke: #2ca02c"/>
     <use xlink:href="#mc61ec1e97b" x="95.407315" y="255.248285" style="fill: #2ca02c; stroke: #2ca02c"/>
     <use xlink:href="#mc61ec1e97b" x="143.05531" y="210.922807" style="fill: #2ca02c; stroke: #2ca02c"/>
     <use xlink:href="#mc61ec1e97b" x="190.703305" y="170.6401" style="fill: #2ca02c; stroke: #2ca02c"/>
     <use xlink:href="#mc61ec1e97b" x="333.647289" y="127.123705" style="fill: #2ca02c; stroke: #2ca02c"/>
    </g>
   </g>
   <g id="line2d_14">
    <path d="M 48.950521 300.061983 
L 53.71532 295.95035 
L 59.671319 291.346117 
L 71.583318 282.878837 
L 83.495317 275.117121 
L 95.407315 267.926852 
L 143.05531 241.094818 
L 190.703305 217.920533 
L 333.647289 184.882979 
" clip-path="url(#p663fbccf60)" style="fill: none; stroke: #d62728; stroke-width: 1.5; stroke-linecap: square"/>
    <defs>
     <path id="m0013183224" d="M 0 3 
C 0.795609 3 1.55874 2.683901 2.12132 2.12132 
C 2.683901 1.55874 3 0.795609 3 0 
C 3 -0.795609 2.683901 -1.55874 2.12132 -2.12132 
C 1.55874 -2.683901 0.795609 -3 0 -3 
C -0.795609 -3 -1.55874 -2.683901 -2.12132 -2.12132 
C -2.683901 -1.55874 -3 -0.795609 -3 0 
C -3 0.795609 -2.683901 1.55874 -2.12132 2.12132 
C -1.55874 2.683901 -0.795609 3 0 3 
z
" style="stroke: #d62728"/>
    </defs>
    <g clip-path="url(#p663fbccf60)">
     <use xlink:href="#m0013183224" x="48.950521" y="300.061983" style="fill: #d62728; stroke: #d62728"/>
     <use xlink:href="#m0013183224" x="53.71532" y="295.95035" style="fill: #d62728; stroke: #d62728"/>
     <use xlink:href="#m0013183224" x="59.671319" y="291.346117" style="fill: #d62728; stroke: #d62728"/>
     <use xlink:href="#m0013183224" x="71.583318" y="282.878837" style="fill: #d62728; stroke: #d62728"/>
     <use xlink:href="#m0013183224" x="83.495317" y="275.117121" style="fill: #d62728; stroke: #d62728"/>
     <use xlink:href="#m0013183224" x="95.407315" y="267.926852" style="fill: #d62728; stroke: #d62728"/>
     <use xlink:href="#m0013183224" x="143.05531" y="241.094818" style="fill: #d62728; stroke: #d62728"/>
     <use xlink:href="#m0013183224" x="190.703305" y="217.920533" style="fill: #d62728; stroke: #d62728"/>
     <use xlink:href="#m0013183224" x="333.647289" y="184.882979" style="fill: #d62728; stroke: #d62728"/>
    </g>
   </g>
   <g id="line2d_15">
    <path d="M 48.950521 300.172008 
L 53.71532 297.487155 
L 59.671319 294.944408 
L 71.583318 290.540255 
L 83.495317 286.549276 
L 95.407315 282.957877 
L 143.05531 270.274222 
L 190.703305 259.357793 
L 333.647289 238.952876 
" clip-path="url(#p663fbccf60)" style="fill: none; stroke: #9467bd; stroke-width: 1.5; stroke-linecap: square"/>
    <defs>
     <path id="mbf1870df00" d="M 0 3 
C 0.795609 3 1.55874 2.683901 2.12132 2.12132 
C 2.683901 1.55874 3 0.795609 3 0 
C 3 -0.795609 2.683901 -1.55874 2.12132 -2.12132 
C 1.55874 -2.683901 0.795609 -3 0 -3 
C -0.795609 -3 -1.55874 -2.683901 -2.12132 -2.12132 
C -2.683901 -1.55874 -3 -0.795609 -3 0 
C -3 0.795609 -2.683901 1.55874 -2.12132 2.12132 
C -1.55874 2.683901 -0.795609 3 0 3 
z
" style="stroke: #9467bd"/>
    </defs>
    <g clip-path="url(#p663fbccf60)">
     <use xlink:href="#mbf1870df00" x="48.950521" y="300.172008" style="fill: #9467bd; stroke: #9467bd"/>
     <use xlink:href="#mbf1870df00" x="53.71532" y="297.487155" style="fill: #9467bd; stroke: #9467bd"/>
     <use xlink:href="#mbf1870df00" x="59.671319" y="294.944408" style="fill: #9467bd; stroke: #9467bd"/>
     <use xlink:href="#mbf1870df00" x="71.583318" y="290.540255" style="fill: #9467bd; stroke: #9467bd"/>
     <use xlink:href="#mbf1870df00" x="83.495317" y="286.549276" style="fill: #9467bd; stroke: #9467bd"/>
     <use xlink:href="#mbf1870df00" x="95.407315" y="282.957877" style="fill: #9467bd; stroke: #9467bd"/>
     <use xlink:href="#mbf1870df00" x="143.05531" y="270.274222" style="fill: #9467bd; stroke: #9467bd"/>
     <use xlink:href="#mbf1870df00" x="190.703305" y="259.357793" style="fill: #9467bd; stroke: #9467bd"/>
     <use xlink:href="#mbf1870df00" x="333.647289" y="238.952876" style="fill: #9467bd; stroke: #9467bd"/>
    </g>
   </g>
   <g id="line2d_16">
    <path d="M 48.950521 300.215039 
L 53.71532 297.733359 
L 59.671319 295.452854 
L 71.583318 291.542268 
L 83.495317 288.163318 
L 95.407315 285.127262 
L 143.05531 275.304898 
L 190.703305 267.596455 
L 333.647289 259.949467 
" clip-path="url(#p663fbccf60)" style="fill: none; stroke: #8c564b; stroke-width: 1.5; stroke-linecap: square"/>
    <defs>
     <path id="m16cb3a18e0" d="M 0 3 
C 0.795609 3 1.55874 2.683901 2.12132 2.12132 
C 2.683901 1.55874 3 0.795609 3 0 
C 3 -0.795609 2.683901 -1.55874 2.12132 -2.12132 
C 1.55874 -2.683901 0.795609 -3 0 -3 
C -0.795609 -3 -1.55874 -2.683901 -2.12132 -2.12132 
C -2.683901 -1.55874 -3 -0.795609 -3 0 
C -3 0.795609 -2.683901 1.55874 -2.12132 2.12132 
C -1.55874 2.683901 -0.795609 3 0 3 
z
" style="stroke: #8c564b"/>
    </defs>
    <g clip-path="url(#p663fbccf60)">
     <use xlink:href="#m16cb3a18e0" x="48.950521" y="300.215039" style="fill: #8c564b; stroke: #8c564b"/>
     <use xlink:href="#m16cb3a18e0" x="53.71532" y="297.733359" style="fill: #8c564b; stroke: #8c564b"/>
     <use xlink:href="#m16cb3a18e0" x="59.671319" y="295.452854" style="fill: #8c564b; stroke: #8c564b"/>
     <use xlink:href="#m16cb3a18e0" x="71.583318" y="291.542268" style="fill: #8c564b; stroke: #8c564b"/>
     <use xlink:href="#m16cb3a18e0" x="83.495317" y="288.163318" style="fill: #8c564b; stroke: #8c564b"/>
     <use xlink:href="#m16cb3a18e0" x="95.407315" y="285.127262" style="fill: #8c564b; stroke: #8c564b"/>
     <use xlink:href="#m16cb3a18e0" x="143.05531" y="275.304898" style="fill: #8c564b; stroke: #8c564b"/>
     <use xlink:href="#m16cb3a18e0" x="190.703305" y="267.596455" style="fill: #8c564b; stroke: #8c564b"/>
     <use xlink:href="#m16cb3a18e0" x="333.647289" y="259.949467" style="fill: #8c564b; stroke: #8c564b"/>
    </g>
   </g>
   <g id="line2d_17">
    <path d="M 48.950521 300.140701 
L 53.71532 297.300087 
L 59.671319 294.784717 
L 71.583318 290.865692 
L 83.495317 287.742157 
L 95.407315 285.152513 
L 143.05531 277.812538 
L 190.703305 275.563856 
L 333.647289 273.980541 
" clip-path="url(#p663fbccf60)" style="fill: none; stroke: #e377c2; stroke-width: 1.5; stroke-linecap: square"/>
    <defs>
     <path id="mb82122ef0a" d="M 0 3 
C 0.795609 3 1.55874 2.683901 2.12132 2.12132 
C 2.683901 1.55874 3 0.795609 3 0 
C 3 -0.795609 2.683901 -1.55874 2.12132 -2.12132 
C 1.55874 -2.683901 0.795609 -3 0 -3 
C -0.795609 -3 -1.55874 -2.683901 -2.12132 -2.12132 
C -2.683901 -1.55874 -3 -0.795609 -3 0 
C -3 0.795609 -2.683901 1.55874 -2.12132 2.12132 
C -1.55874 2.683901 -0.795609 3 0 3 
z
" style="stroke: #e377c2"/>
    </defs>
    <g clip-path="url(#p663fbccf60)">
     <use xlink:href="#mb82122ef0a" x="48.950521" y="300.140701" style="fill: #e377c2; stroke: #e377c2"/>
     <use xlink:href="#mb82122ef0a" x="53.71532" y="297.300087" style="fill: #e377c2; stroke: #e377c2"/>
     <use xlink:href="#mb82122ef0a" x="59.671319" y="294.784717" style="fill: #e377c2; stroke: #e377c2"/>
     <use xlink:href="#mb82122ef0a" x="71.583318" y="290.865692" style="fill: #e377c2; stroke: #e377c2"/>
     <use xlink:href="#mb82122ef0a" x="83.495317" y="287.742157" style="fill: #e377c2; stroke: #e377c2"/>
     <use xlink:href="#mb82122ef0a" x="95.407315" y="285.152513" style="fill: #e377c2; stroke: #e377c2"/>
     <use xlink:href="#mb82122ef0a" x="143.05531" y="277.812538" style="fill: #e377c2; stroke: #e377c2"/>
     <use xlink:href="#mb82122ef0a" x="190.703305" y="275.563856" style="fill: #e377c2; stroke: #e377c2"/>
     <use xlink:href="#mb82122ef0a" x="333.647289" y="273.980541" style="fill: #e377c2; stroke: #e377c2"/>
    </g>
   </g>
   <g id="line2d_18">
    <path d="M 48.950521 300.308057 
L 53.71532 298.534518 
L 59.671319 297.092406 
L 71.583318 295.046445 
L 83.495317 293.498946 
L 95.407315 292.228571 
L 143.05531 288.461892 
L 190.703305 285.920175 
L 333.647289 284.445532 
" clip-path="url(#p663fbccf60)" style="fill: none; stroke: #7f7f7f; stroke-width: 1.5; stroke-linecap: square"/>
    <defs>
     <path id="me94b0808ef" d="M 0 3 
C 0.795609 3 1.55874 2.683901 2.12132 2.12132 
C 2.683901 1.55874 3 0.795609 3 0 
C 3 -0.795609 2.683901 -1.55874 2.12132 -2.12132 
C 1.55874 -2.683901 0.795609 -3 0 -3 
C -0.795609 -3 -1.55874 -2.683901 -2.12132 -2.12132 
C -2.683901 -1.55874 -3 -0.795609 -3 0 
C -3 0.795609 -2.683901 1.55874 -2.12132 2.12132 
C -1.55874 2.683901 -0.795609 3 0 3 
z
" style="stroke: #7f7f7f"/>
    </defs>
    <g clip-path="url(#p663fbccf60)">
     <use xlink:href="#me94b0808ef" x="48.950521" y="300.308057" style="fill: #7f7f7f; stroke: #7f7f7f"/>
     <use xlink:href="#me94b0808ef" x="53.71532" y="298.534518" style="fill: #7f7f7f; stroke: #7f7f7f"/>
     <use xlink:href="#me94b0808ef" x="59.671319" y="297.092406" style="fill: #7f7f7f; stroke: #7f7f7f"/>
     <use xlink:href="#me94b0808ef" x="71.583318" y="295.046445" style="fill: #7f7f7f; stroke: #7f7f7f"/>
     <use xlink:href="#me94b0808ef" x="83.495317" y="293.498946" style="fill: #7f7f7f; stroke: #7f7f7f"/>
     <use xlink:href="#me94b0808ef" x="95.407315" y="292.228571" style="fill: #7f7f7f; stroke: #7f7f7f"/>
     <use xlink:href="#me94b0808ef" x="143.05531" y="288.461892" style="fill: #7f7f7f; stroke: #7f7f7f"/>
     <use xlink:href="#me94b0808ef" x="190.703305" y="285.920175" style="fill: #7f7f7f; stroke: #7f7f7f"/>
     <use xlink:href="#me94b0808ef" x="333.647289" y="284.445532" style="fill: #7f7f7f; stroke: #7f7f7f"/>
    </g>
   </g>
   <g id="line2d_19">
    <path d="M 48.950521 300.163698 
L 53.71532 298.100924 
L 59.671319 296.592333 
L 71.583318 294.565762 
L 83.495317 293.130027 
L 95.407315 291.912925 
L 143.05531 288.9934 
L 190.703305 287.701832 
L 333.647289 287.356876 
" clip-path="url(#p663fbccf60)" style="fill: none; stroke: #bcbd22; stroke-width: 1.5; stroke-linecap: square"/>
    <defs>
     <path id="m1e406f45f1" d="M 0 3 
C 0.795609 3 1.55874 2.683901 2.12132 2.12132 
C 2.683901 1.55874 3 0.795609 3 0 
C 3 -0.795609 2.683901 -1.55874 2.12132 -2.12132 
C 1.55874 -2.683901 0.795609 -3 0 -3 
C -0.795609 -3 -1.55874 -2.683901 -2.12132 -2.12132 
C -2.683901 -1.55874 -3 -0.795609 -3 0 
C -3 0.795609 -2.683901 1.55874 -2.12132 2.12132 
C -1.55874 2.683901 -0.795609 3 0 3 
z
" style="stroke: #bcbd22"/>
    </defs>
    <g clip-path="url(#p663fbccf60)">
     <use xlink:href="#m1e406f45f1" x="48.950521" y="300.163698" style="fill: #bcbd22; stroke: #bcbd22"/>
     <use xlink:href="#m1e406f45f1" x="53.71532" y="298.100924" style="fill: #bcbd22; stroke: #bcbd22"/>
     <use xlink:href="#m1e406f45f1" x="59.671319" y="296.592333" style="fill: #bcbd22; stroke: #bcbd22"/>
     <use xlink:href="#m1e406f45f1" x="71.583318" y="294.565762" style="fill: #bcbd22; stroke: #bcbd22"/>
     <use xlink:href="#m1e406f45f1" x="83.495317" y="293.130027" style="fill: #bcbd22; stroke: #bcbd22"/>
     <use xlink:href="#m1e406f45f1" x="95.407315" y="291.912925" style="fill: #bcbd22; stroke: #bcbd22"/>
     <use xlink:href="#m1e406f45f1" x="143.05531" y="288.9934" style="fill: #bcbd22; stroke: #bcbd22"/>
     <use xlink:href="#m1e406f45f1" x="190.703305" y="287.701832" style="fill: #bcbd22; stroke: #bcbd22"/>
     <use xlink:href="#m1e406f45f1" x="333.647289" y="287.356876" style="fill: #bcbd22; stroke: #bcbd22"/>
    </g>
   </g>
   <g id="line2d_20">
    <path d="M 48.950521 300.266701 
L 53.71532 300.065204 
L 59.671319 299.979658 
L 71.583318 299.868215 
L 83.495317 299.773651 
L 95.407315 299.712454 
L 143.05531 299.589417 
L 190.703305 299.474045 
L 333.647289 299.386245 
" clip-path="url(#p663fbccf60)" style="fill: none; stroke: #17becf; stroke-width: 1.5; stroke-linecap: square"/>
    <defs>
     <path id="m3a43e55d67" d="M 0 3 
C 0.795609 3 1.55874 2.683901 2.12132 2.12132 
C 2.683901 1.55874 3 0.795609 3 0 
C 3 -0.795609 2.683901 -1.55874 2.12132 -2.12132 
C 1.55874 -2.683901 0.795609 -3 0 -3 
C -0.795609 -3 -1.55874 -2.683901 -2.12132 -2.12132 
C -2.683901 -1.55874 -3 -0.795609 -3 0 
C -3 0.795609 -2.683901 1.55874 -2.12132 2.12132 
C -1.55874 2.683901 -0.795609 3 0 3 
z
" style="stroke: #17becf"/>
    </defs>
    <g clip-path="url(#p663fbccf60)">
     <use xlink:href="#m3a43e55d67" x="48.950521" y="300.266701" style="fill: #17becf; stroke: #17becf"/>
     <use xlink:href="#m3a43e55d67" x="53.71532" y="300.065204" style="fill: #17becf; stroke: #17becf"/>
     <use xlink:href="#m3a43e55d67" x="59.671319" y="299.979658" style="fill: #17becf; stroke: #17becf"/>
     <use xlink:href="#m3a43e55d67" x="71.583318" y="299.868215" style="fill: #17becf; stroke: #17becf"/>
     <use xlink:href="#m3a43e55d67" x="83.495317" y="299.773651" style="fill: #17becf; stroke: #17becf"/>
     <use xlink:href="#m3a43e55d67" x="95.407315" y="299.712454" style="fill: #17becf; stroke: #17becf"/>
     <use xlink:href="#m3a43e55d67" x="143.05531" y="299.589417" style="fill: #17becf; stroke: #17becf"/>
     <use xlink:href="#m3a43e55d67" x="190.703305" y="299.474045" style="fill: #17becf; stroke: #17becf"/>
     <use xlink:href="#m3a43e55d67" x="333.647289" y="299.386245" style="fill: #17becf; stroke: #17becf"/>
    </g>
   </g>
   <g id="patch_3">
    <path d="M 34.240625 314.118437 
L 34.240625 17.798437 
" style="fill: none; stroke: #000000; stroke-width: 0.8; stroke-linejoin: miter; stroke-linecap: square"/>
   </g>
   <g id="patch_4">
    <path d="M 345.170625 314.118437 
L 345.170625 17.798437 
" style="fill: none; stroke: #000000; stroke-width: 0.8; stroke-linejoin: miter; stroke-linecap: square"/>
   </g>
   <g id="patch_5">
    <path d="M 34.240625 314.118437 
L 345.170625 314.118437 
" style="fill: none; stroke: #000000; stroke-width: 0.8; stroke-linejoin: miter; stroke-linecap: square"/>
   </g>
   <g id="patch_6">
    <path d="M 34.240625 17.798437 
L 345.170625 17.798437 
" style="fill: none; stroke: #000000; stroke-width: 0.8; stroke-linejoin: miter; stroke-linecap: square"/>
   </g>
   <g id="legend_1">
    <g id="patch_7">
     <path d="M 41.240625 172.579687 
L 127.735938 172.579687 
Q 129.735938 172.579687 129.735938 170.579687 
L 129.735938 24.798437 
Q 129.735938 22.798437 127.735938 22.798437 
L 41.240625 22.798437 
Q 39.240625 22.798437 39.240625 24.798437 
L 39.240625 170.579687 
Q 39.240625 172.579687 41.240625 172.579687 
z
" style="fill: #ffffff; opacity: 0.8; stroke: #cccccc; stroke-linejoin: miter"/>
    </g>
    <g id="line2d_21">
     <path d="M 43.240625 30.896875 
L 53.240625 30.896875 
L 63.240625 30.896875 
" style="fill: none; stroke: #1f77b4; stroke-width: 1.5; stroke-linecap: square"/>
     <g>
      <use xlink:href="#m973af27b38" x="53.240625" y="30.896875" style="fill: #1f77b4; stroke: #1f77b4"/>
     </g>
    </g>
    <g id="text_15">
     <!-- 0.00 - 0.10 -->
     <g transform="translate(71.240625 34.396875) scale(0.1 -0.1)">
      <defs>
       <path id="DejaVuSans-2e" d="M 684 794 
L 1344 794 
L 1344 0 
L 684 0 
L 684 794 
z
" transform="scale(0.015625)"/>
       <path id="DejaVuSans-2d" d="M 313 2009 
L 1997 2009 
L 1997 1497 
L 313 1497 
L 313 2009 
z
" transform="scale(0.015625)"/>
      </defs>
      <use xlink:href="#DejaVuSans-30"/>
      <use xlink:href="#DejaVuSans-2e" x="63.623047"/>
      <use xlink:href="#DejaVuSans-30" x="95.410156"/>
      <use xlink:href="#DejaVuSans-30" x="159.033203"/>
      <use xlink:href="#DejaVuSans-20" x="222.65625"/>
      <use xlink:href="#DejaVuSans-2d" x="254.443359"/>
      <use xlink:href="#DejaVuSans-20" x="290.527344"/>
      <use xlink:href="#DejaVuSans-30" x="322.314453"/>
      <use xlink:href="#DejaVuSans-2e" x="385.9375"/>
      <use xlink:href="#DejaVuSans-31" x="417.724609"/>
      <use xlink:href="#DejaVuSans-30" x="481.347656"/>
     </g>
    </g>
    <g id="line2d_22">
     <path d="M 43.240625 45.575 
L 53.240625 45.575 
L 63.240625 45.575 
" style="fill: none; stroke: #ff7f0e; stroke-width: 1.5; stroke-linecap: square"/>
     <g>
      <use xlink:href="#m3d28a3b9ec" x="53.240625" y="45.575" style="fill: #ff7f0e; stroke: #ff7f0e"/>
     </g>
    </g>
    <g id="text_16">
     <!-- 0.10 - 0.20 -->
     <g transform="translate(71.240625 49.075) scale(0.1 -0.1)">
      <use xlink:href="#DejaVuSans-30"/>
      <use xlink:href="#DejaVuSans-2e" x="63.623047"/>
      <use xlink:href="#DejaVuSans-31" x="95.410156"/>
      <use xlink:href="#DejaVuSans-30" x="159.033203"/>
      <use xlink:href="#DejaVuSans-20" x="222.65625"/>
      <use xlink:href="#DejaVuSans-2d" x="254.443359"/>
      <use xlink:href="#DejaVuSans-20" x="290.527344"/>
      <use xlink:href="#DejaVuSans-30" x="322.314453"/>
      <use xlink:href="#DejaVuSans-2e" x="385.9375"/>
      <use xlink:href="#DejaVuSans-32" x="417.724609"/>
      <use xlink:href="#DejaVuSans-30" x="481.347656"/>
     </g>
    </g>
    <g id="line2d_23">
     <path d="M 43.240625 60.253125 
L 53.240625 60.253125 
L 63.240625 60.253125 
" style="fill: none; stroke: #2ca02c; stroke-width: 1.5; stroke-linecap: square"/>
     <g>
      <use xlink:href="#mc61ec1e97b" x="53.240625" y="60.253125" style="fill: #2ca02c; stroke: #2ca02c"/>
     </g>
    </g>
    <g id="text_17">
     <!-- 0.20 - 0.30 -->
     <g transform="translate(71.240625 63.753125) scale(0.1 -0.1)">
      <use xlink:href="#DejaVuSans-30"/>
      <use xlink:href="#DejaVuSans-2e" x="63.623047"/>
      <use xlink:href="#DejaVuSans-32" x="95.410156"/>
      <use xlink:href="#DejaVuSans-30" x="159.033203"/>
      <use xlink:href="#DejaVuSans-20" x="222.65625"/>
      <use xlink:href="#DejaVuSans-2d" x="254.443359"/>
      <use xlink:href="#DejaVuSans-20" x="290.527344"/>
      <use xlink:href="#DejaVuSans-30" x="322.314453"/>
      <use xlink:href="#DejaVuSans-2e" x="385.9375"/>
      <use xlink:href="#DejaVuSans-33" x="417.724609"/>
      <use xlink:href="#DejaVuSans-30" x="481.347656"/>
     </g>
    </g>
    <g id="line2d_24">
     <path d="M 43.240625 74.93125 
L 53.240625 74.93125 
L 63.240625 74.93125 
" style="fill: none; stroke: #d62728; stroke-width: 1.5; stroke-linecap: square"/>
     <g>
      <use xlink:href="#m0013183224" x="53.240625" y="74.93125" style="fill: #d62728; stroke: #d62728"/>
     </g>
    </g>
    <g id="text_18">
     <!-- 0.30 - 0.40 -->
     <g transform="translate(71.240625 78.43125) scale(0.1 -0.1)">
      <use xlink:href="#DejaVuSans-30"/>
      <use xlink:href="#DejaVuSans-2e" x="63.623047"/>
      <use xlink:href="#DejaVuSans-33" x="95.410156"/>
      <use xlink:href="#DejaVuSans-30" x="159.033203"/>
      <use xlink:href="#DejaVuSans-20" x="222.65625"/>
      <use xlink:href="#DejaVuSans-2d" x="254.443359"/>
      <use xlink:href="#DejaVuSans-20" x="290.527344"/>
      <use xlink:href="#DejaVuSans-30" x="322.314453"/>
      <use xlink:href="#DejaVuSans-2e" x="385.9375"/>
      <use xlink:href="#DejaVuSans-34" x="417.724609"/>
      <use xlink:href="#DejaVuSans-30" x="481.347656"/>
     </g>
    </g>
    <g id="line2d_25">
     <path d="M 43.240625 89.609375 
L 53.240625 89.609375 
L 63.240625 89.609375 
" style="fill: none; stroke: #9467bd; stroke-width: 1.5; stroke-linecap: square"/>
     <g>
      <use xlink:href="#mbf1870df00" x="53.240625" y="89.609375" style="fill: #9467bd; stroke: #9467bd"/>
     </g>
    </g>
    <g id="text_19">
     <!-- 0.40 - 0.50 -->
     <g transform="translate(71.240625 93.109375) scale(0.1 -0.1)">
      <defs>
       <path id="DejaVuSans-35" d="M 691 4666 
L 3169 4666 
L 3169 4134 
L 1269 4134 
L 1269 2991 
Q 1406 3038 1543 3061 
Q 1681 3084 1819 3084 
Q 2600 3084 3056 2656 
Q 3513 2228 3513 1497 
Q 3513 744 3044 326 
Q 2575 -91 1722 -91 
Q 1428 -91 1123 -41 
Q 819 9 494 109 
L 494 744 
Q 775 591 1075 516 
Q 1375 441 1709 441 
Q 2250 441 2565 725 
Q 2881 1009 2881 1497 
Q 2881 1984 2565 2268 
Q 2250 2553 1709 2553 
Q 1456 2553 1204 2497 
Q 953 2441 691 2322 
L 691 4666 
z
" transform="scale(0.015625)"/>
      </defs>
      <use xlink:href="#DejaVuSans-30"/>
      <use xlink:href="#DejaVuSans-2e" x="63.623047"/>
      <use xlink:href="#DejaVuSans-34" x="95.410156"/>
      <use xlink:href="#DejaVuSans-30" x="159.033203"/>
      <use xlink:href="#DejaVuSans-20" x="222.65625"/>
      <use xlink:href="#DejaVuSans-2d" x="254.443359"/>
      <use xlink:href="#DejaVuSans-20" x="290.527344"/>
      <use xlink:href="#DejaVuSans-30" x="322.314453"/>
      <use xlink:href="#DejaVuSans-2e" x="385.9375"/>
      <use xlink:href="#DejaVuSans-35" x="417.724609"/>
      <use xlink:href="#DejaVuSans-30" x="481.347656"/>
     </g>
    </g>
    <g id="line2d_26">
     <path d="M 43.240625 104.2875 
L 53.240625 104.2875 
L 63.240625 104.2875 
" style="fill: none; stroke: #8c564b; stroke-width: 1.5; stroke-linecap: square"/>
     <g>
      <use xlink:href="#m16cb3a18e0" x="53.240625" y="104.2875" style="fill: #8c564b; stroke: #8c564b"/>
     </g>
    </g>
    <g id="text_20">
     <!-- 0.50 - 0.60 -->
     <g transform="translate(71.240625 107.7875) scale(0.1 -0.1)">
      <use xlink:href="#DejaVuSans-30"/>
      <use xlink:href="#DejaVuSans-2e" x="63.623047"/>
      <use xlink:href="#DejaVuSans-35" x="95.410156"/>
      <use xlink:href="#DejaVuSans-30" x="159.033203"/>
      <use xlink:href="#DejaVuSans-20" x="222.65625"/>
      <use xlink:href="#DejaVuSans-2d" x="254.443359"/>
      <use xlink:href="#DejaVuSans-20" x="290.527344"/>
      <use xlink:href="#DejaVuSans-30" x="322.314453"/>
      <use xlink:href="#DejaVuSans-2e" x="385.9375"/>
      <use xlink:href="#DejaVuSans-36" x="417.724609"/>
      <use xlink:href="#DejaVuSans-30" x="481.347656"/>
     </g>
    </g>
    <g id="line2d_27">
     <path d="M 43.240625 118.965625 
L 53.240625 118.965625 
L 63.240625 118.965625 
" style="fill: none; stroke: #e377c2; stroke-width: 1.5; stroke-linecap: square"/>
     <g>
      <use xlink:href="#mb82122ef0a" x="53.240625" y="118.965625" style="fill: #e377c2; stroke: #e377c2"/>
     </g>
    </g>
    <g id="text_21">
     <!-- 0.60 - 0.70 -->
     <g transform="translate(71.240625 122.465625) scale(0.1 -0.1)">
      <defs>
       <path id="DejaVuSans-37" d="M 525 4666 
L 3525 4666 
L 3525 4397 
L 1831 0 
L 1172 0 
L 2766 4134 
L 525 4134 
L 525 4666 
z
" transform="scale(0.015625)"/>
      </defs>
      <use xlink:href="#DejaVuSans-30"/>
      <use xlink:href="#DejaVuSans-2e" x="63.623047"/>
      <use xlink:href="#DejaVuSans-36" x="95.410156"/>
      <use xlink:href="#DejaVuSans-30" x="159.033203"/>
      <use xlink:href="#DejaVuSans-20" x="222.65625"/>
      <use xlink:href="#DejaVuSans-2d" x="254.443359"/>
      <use xlink:href="#DejaVuSans-20" x="290.527344"/>
      <use xlink:href="#DejaVuSans-30" x="322.314453"/>
      <use xlink:href="#DejaVuSans-2e" x="385.9375"/>
      <use xlink:href="#DejaVuSans-37" x="417.724609"/>
      <use xlink:href="#DejaVuSans-30" x="481.347656"/>
     </g>
    </g>
    <g id="line2d_28">
     <path d="M 43.240625 133.64375 
L 53.240625 133.64375 
L 63.240625 133.64375 
" style="fill: none; stroke: #7f7f7f; stroke-width: 1.5; stroke-linecap: square"/>
     <g>
      <use xlink:href="#me94b0808ef" x="53.240625" y="133.64375" style="fill: #7f7f7f; stroke: #7f7f7f"/>
     </g>
    </g>
    <g id="text_22">
     <!-- 0.70 - 0.80 -->
     <g transform="translate(71.240625 137.14375) scale(0.1 -0.1)">
      <defs>
       <path id="DejaVuSans-38" d="M 2034 2216 
Q 1584 2216 1326 1975 
Q 1069 1734 1069 1313 
Q 1069 891 1326 650 
Q 1584 409 2034 409 
Q 2484 409 2743 651 
Q 3003 894 3003 1313 
Q 3003 1734 2745 1975 
Q 2488 2216 2034 2216 
z
M 1403 2484 
Q 997 2584 770 2862 
Q 544 3141 544 3541 
Q 544 4100 942 4425 
Q 1341 4750 2034 4750 
Q 2731 4750 3128 4425 
Q 3525 4100 3525 3541 
Q 3525 3141 3298 2862 
Q 3072 2584 2669 2484 
Q 3125 2378 3379 2068 
Q 3634 1759 3634 1313 
Q 3634 634 3220 271 
Q 2806 -91 2034 -91 
Q 1263 -91 848 271 
Q 434 634 434 1313 
Q 434 1759 690 2068 
Q 947 2378 1403 2484 
z
M 1172 3481 
Q 1172 3119 1398 2916 
Q 1625 2713 2034 2713 
Q 2441 2713 2670 2916 
Q 2900 3119 2900 3481 
Q 2900 3844 2670 4047 
Q 2441 4250 2034 4250 
Q 1625 4250 1398 4047 
Q 1172 3844 1172 3481 
z
" transform="scale(0.015625)"/>
      </defs>
      <use xlink:href="#DejaVuSans-30"/>
      <use xlink:href="#DejaVuSans-2e" x="63.623047"/>
      <use xlink:href="#DejaVuSans-37" x="95.410156"/>
      <use xlink:href="#DejaVuSans-30" x="159.033203"/>
      <use xlink:href="#DejaVuSans-20" x="222.65625"/>
      <use xlink:href="#DejaVuSans-2d" x="254.443359"/>
      <use xlink:href="#DejaVuSans-20" x="290.527344"/>
      <use xlink:href="#DejaVuSans-30" x="322.314453"/>
      <use xlink:href="#DejaVuSans-2e" x="385.9375"/>
      <use xlink:href="#DejaVuSans-38" x="417.724609"/>
      <use xlink:href="#DejaVuSans-30" x="481.347656"/>
     </g>
    </g>
    <g id="line2d_29">
     <path d="M 43.240625 148.321875 
L 53.240625 148.321875 
L 63.240625 148.321875 
" style="fill: none; stroke: #bcbd22; stroke-width: 1.5; stroke-linecap: square"/>
     <g>
      <use xlink:href="#m1e406f45f1" x="53.240625" y="148.321875" style="fill: #bcbd22; stroke: #bcbd22"/>
     </g>
    </g>
    <g id="text_23">
     <!-- 0.80 - 0.90 -->
     <g transform="translate(71.240625 151.821875) scale(0.1 -0.1)">
      <defs>
       <path id="DejaVuSans-39" d="M 703 97 
L 703 672 
Q 941 559 1184 500 
Q 1428 441 1663 441 
Q 2288 441 2617 861 
Q 2947 1281 2994 2138 
Q 2813 1869 2534 1725 
Q 2256 1581 1919 1581 
Q 1219 1581 811 2004 
Q 403 2428 403 3163 
Q 403 3881 828 4315 
Q 1253 4750 1959 4750 
Q 2769 4750 3195 4129 
Q 3622 3509 3622 2328 
Q 3622 1225 3098 567 
Q 2575 -91 1691 -91 
Q 1453 -91 1209 -44 
Q 966 3 703 97 
z
M 1959 2075 
Q 2384 2075 2632 2365 
Q 2881 2656 2881 3163 
Q 2881 3666 2632 3958 
Q 2384 4250 1959 4250 
Q 1534 4250 1286 3958 
Q 1038 3666 1038 3163 
Q 1038 2656 1286 2365 
Q 1534 2075 1959 2075 
z
" transform="scale(0.015625)"/>
      </defs>
      <use xlink:href="#DejaVuSans-30"/>
      <use xlink:href="#DejaVuSans-2e" x="63.623047"/>
      <use xlink:href="#DejaVuSans-38" x="95.410156"/>
      <use xlink:href="#DejaVuSans-30" x="159.033203"/>
      <use xlink:href="#DejaVuSans-20" x="222.65625"/>
      <use xlink:href="#DejaVuSans-2d" x="254.443359"/>
      <use xlink:href="#DejaVuSans-20" x="290.527344"/>
      <use xlink:href="#DejaVuSans-30" x="322.314453"/>
      <use xlink:href="#DejaVuSans-2e" x="385.9375"/>
      <use xlink:href="#DejaVuSans-39" x="417.724609"/>
      <use xlink:href="#DejaVuSans-30" x="481.347656"/>
     </g>
    </g>
    <g id="line2d_30">
     <path d="M 43.240625 163 
L 53.240625 163 
L 63.240625 163 
" style="fill: none; stroke: #17becf; stroke-width: 1.5; stroke-linecap: square"/>
     <g>
      <use xlink:href="#m3a43e55d67" x="53.240625" y="163" style="fill: #17becf; stroke: #17becf"/>
     </g>
    </g>
    <g id="text_24">
     <!-- 0.90 - 1.00 -->
     <g transform="translate(71.240625 166.5) scale(0.1 -0.1)">
      <use xlink:href="#DejaVuSans-30"/>
      <use xlink:href="#DejaVuSans-2e" x="63.623047"/>
      <use xlink:href="#DejaVuSans-39" x="95.410156"/>
      <use xlink:href="#DejaVuSans-30" x="159.033203"/>
      <use xlink:href="#DejaVuSans-20" x="222.65625"/>
      <use xlink:href="#DejaVuSans-2d" x="254.443359"/>
      <use xlink:href="#DejaVuSans-20" x="290.527344"/>
      <use xlink:href="#DejaVuSans-31" x="322.314453"/>
      <use xlink:href="#DejaVuSans-2e" x="385.9375"/>
      <use xlink:href="#DejaVuSans-30" x="417.724609"/>
      <use xlink:href="#DejaVuSans-30" x="481.347656"/>
     </g>
    </g>
   </g>
  </g>
 </g>
 <defs>
  <clipPath id="p663fbccf60">
   <rect x="34.240625" y="17.798438" width="310.93" height="296.32"/>
  </clipPath>
 </defs>
</svg>
