<?xml version="1.0" encoding="utf-8" standalone="no"?>
<!DOCTYPE svg PUBLIC "-//W3C//DTD SVG 1.1//EN"
  "http://www.w3.org/Graphics/SVG/1.1/DTD/svg11.dtd">
<svg xmlns:xlink="http://www.w3.org/1999/xlink" width="409.798125pt" height="310.86825pt" viewBox="0 0 409.798125 310.86825" xmlns="http://www.w3.org/2000/svg" version="1.1">
 <metadata>
  <rdf:RDF xmlns:dc="http://purl.org/dc/elements/1.1/" xmlns:cc="http://creativecommons.org/ns#" xmlns:rdf="http://www.w3.org/1999/02/22-rdf-syntax-ns#">
   <cc:Work>
    <dc:type rdf:resource="http://purl.org/dc/dcmitype/StillImage"/>
    <dc:date>2025-01-17T17:33:26.034811</dc:date>
    <dc:format>image/svg+xml</dc:format>
    <dc:creator>
     <cc:Agent>
      <dc:title>Matplotlib v3.7.2, https://matplotlib.org/</dc:title>
     </cc:Agent>
    </dc:creator>
   </cc:Work>
  </rdf:RDF>
 </metadata>
 <defs>
  <style type="text/css">*{stroke-linejoin: round; stroke-linecap: butt}</style>
 </defs>
 <g id="figure_1">
  <g id="patch_1">
   <path d="M 0 310.86825 
L 409.798125 310.86825 
L 409.798125 0 
L 0 0 
z
" style="fill: #ffffff"/>
  </g>
  <g id="axes_1">
   <g id="patch_2">
    <path d="M 45.478125 273.312 
L 402.598125 273.312 
L 402.598125 7.2 
L 45.478125 7.2 
z
" style="fill: #ffffff"/>
   </g>
   <g id="patch_3">
    <path d="M 61.710852 40510.551547 
L 68.203943 40510.551547 
L 68.203943 19.296 
L 61.710852 19.296 
z
" clip-path="url(#pb0485ff269)" style="fill: #1f77b4"/>
   </g>
   <g id="patch_4">
    <path d="M 68.203943 40510.551547 
L 74.697034 40510.551547 
L 74.697034 75.367501 
L 68.203943 75.367501 
z
" clip-path="url(#pb0485ff269)" style="fill: #1f77b4"/>
   </g>
   <g id="patch_5">
    <path d="M 74.697034 40510.551547 
L 81.190125 40510.551547 
L 81.190125 88.646547 
L 74.697034 88.646547 
z
" clip-path="url(#pb0485ff269)" style="fill: #1f77b4"/>
   </g>
   <g id="patch_6">
    <path d="M 81.190125 40510.551547 
L 87.683216 40510.551547 
L 87.683216 96.381136 
L 81.190125 96.381136 
z
" clip-path="url(#pb0485ff269)" style="fill: #1f77b4"/>
   </g>
   <g id="patch_7">
    <path d="M 87.683216 40510.551547 
L 94.176307 40510.551547 
L 94.176307 104.678702 
L 87.683216 104.678702 
z
" clip-path="url(#pb0485ff269)" style="fill: #1f77b4"/>
   </g>
   <g id="patch_8">
    <path d="M 94.176307 40510.551547 
L 100.669398 40510.551547 
L 100.669398 110.372661 
L 94.176307 110.372661 
z
" clip-path="url(#pb0485ff269)" style="fill: #1f77b4"/>
   </g>
   <g id="patch_9">
    <path d="M 100.669398 40510.551547 
L 107.162489 40510.551547 
L 107.162489 116.296766 
L 100.669398 116.296766 
z
" clip-path="url(#pb0485ff269)" style="fill: #1f77b4"/>
   </g>
   <g id="patch_10">
    <path d="M 107.162489 40510.551547 
L 113.65558 40510.551547 
L 113.65558 113.517208 
L 107.162489 113.517208 
z
" clip-path="url(#pb0485ff269)" style="fill: #1f77b4"/>
   </g>
   <g id="patch_11">
    <path d="M 113.65558 40510.551547 
L 120.14867 40510.551547 
L 120.14867 116.999195 
L 113.65558 116.999195 
z
" clip-path="url(#pb0485ff269)" style="fill: #1f77b4"/>
   </g>
   <g id="patch_12">
    <path d="M 120.14867 40510.551547 
L 126.641761 40510.551547 
L 126.641761 130.745908 
L 120.14867 130.745908 
z
" clip-path="url(#pb0485ff269)" style="fill: #1f77b4"/>
   </g>
   <g id="patch_13">
    <path d="M 126.641761 40510.551547 
L 133.134852 40510.551547 
L 133.134852 138.849703 
L 126.641761 138.849703 
z
" clip-path="url(#pb0485ff269)" style="fill: #1f77b4"/>
   </g>
   <g id="patch_14">
    <path d="M 133.134852 40510.551547 
L 139.627943 40510.551547 
L 139.627943 134.44963 
L 133.134852 134.44963 
z
" clip-path="url(#pb0485ff269)" style="fill: #1f77b4"/>
   </g>
   <g id="patch_15">
    <path d="M 139.627943 40510.551547 
L 146.121034 40510.551547 
L 146.121034 96.340483 
L 139.627943 96.340483 
z
" clip-path="url(#pb0485ff269)" style="fill: #1f77b4"/>
   </g>
   <g id="patch_16">
    <path d="M 146.121034 40510.551547 
L 152.614125 40510.551547 
L 152.614125 125.458533 
L 146.121034 125.458533 
z
" clip-path="url(#pb0485ff269)" style="fill: #1f77b4"/>
   </g>
   <g id="patch_17">
    <path d="M 152.614125 40510.551547 
L 159.107216 40510.551547 
L 159.107216 137.634145 
L 152.614125 137.634145 
z
" clip-path="url(#pb0485ff269)" style="fill: #1f77b4"/>
   </g>
   <g id="patch_18">
    <path d="M 159.107216 40510.551547 
L 165.600307 40510.551547 
L 165.600307 132.909062 
L 159.107216 132.909062 
z
" clip-path="url(#pb0485ff269)" style="fill: #1f77b4"/>
   </g>
   <g id="patch_19">
    <path d="M 165.600307 40510.551547 
L 172.093398 40510.551547 
L 172.093398 122.938367 
L 165.600307 122.938367 
z
" clip-path="url(#pb0485ff269)" style="fill: #1f77b4"/>
   </g>
   <g id="patch_20">
    <path d="M 172.093398 40510.551547 
L 178.586489 40510.551547 
L 178.586489 136.86359 
L 172.093398 136.86359 
z
" clip-path="url(#pb0485ff269)" style="fill: #1f77b4"/>
   </g>
   <g id="patch_21">
    <path d="M 178.586489 40510.551547 
L 185.07958 40510.551547 
L 185.07958 193.547157 
L 178.586489 193.547157 
z
" clip-path="url(#pb0485ff269)" style="fill: #1f77b4"/>
   </g>
   <g id="patch_22">
    <path d="M 185.07958 40510.551547 
L 191.57267 40510.551547 
L 191.57267 174.343344 
L 185.07958 174.343344 
z
" clip-path="url(#pb0485ff269)" style="fill: #1f77b4"/>
   </g>
   <g id="patch_23">
    <path d="M 191.57267 40510.551547 
L 198.065761 40510.551547 
L 198.065761 167.418394 
L 191.57267 167.418394 
z
" clip-path="url(#pb0485ff269)" style="fill: #1f77b4"/>
   </g>
   <g id="patch_24">
    <path d="M 198.065761 40510.551547 
L 204.558852 40510.551547 
L 204.558852 180.543396 
L 198.065761 180.543396 
z
" clip-path="url(#pb0485ff269)" style="fill: #1f77b4"/>
   </g>
   <g id="patch_25">
    <path d="M 204.558852 40510.551547 
L 211.051943 40510.551547 
L 211.051943 177.972893 
L 204.558852 177.972893 
z
" clip-path="url(#pb0485ff269)" style="fill: #1f77b4"/>
   </g>
   <g id="patch_26">
    <path d="M 211.051943 40510.551547 
L 217.545034 40510.551547 
L 217.545034 139.334394 
L 211.051943 139.334394 
z
" clip-path="url(#pb0485ff269)" style="fill: #1f77b4"/>
   </g>
   <g id="patch_27">
    <path d="M 217.545034 40510.551547 
L 224.038125 40510.551547 
L 224.038125 152.937395 
L 217.545034 152.937395 
z
" clip-path="url(#pb0485ff269)" style="fill: #1f77b4"/>
   </g>
   <g id="patch_28">
    <path d="M 224.038125 40510.551547 
L 230.531216 40510.551547 
L 230.531216 194.291102 
L 224.038125 194.291102 
z
" clip-path="url(#pb0485ff269)" style="fill: #1f77b4"/>
   </g>
   <g id="patch_29">
    <path d="M 230.531216 40510.551547 
L 237.024307 40510.551547 
L 237.024307 199.068287 
L 230.531216 199.068287 
z
" clip-path="url(#pb0485ff269)" style="fill: #1f77b4"/>
   </g>
   <g id="patch_30">
    <path d="M 237.024307 40510.551547 
L 243.517398 40510.551547 
L 243.517398 134.661513 
L 237.024307 134.661513 
z
" clip-path="url(#pb0485ff269)" style="fill: #1f77b4"/>
   </g>
   <g id="patch_31">
    <path d="M 243.517398 40510.551547 
L 250.010489 40510.551547 
L 250.010489 146.652822 
L 243.517398 146.652822 
z
" clip-path="url(#pb0485ff269)" style="fill: #1f77b4"/>
   </g>
   <g id="patch_32">
    <path d="M 250.010489 40510.551547 
L 256.50358 40510.551547 
L 256.50358 193.915172 
L 250.010489 193.915172 
z
" clip-path="url(#pb0485ff269)" style="fill: #1f77b4"/>
   </g>
   <g id="patch_33">
    <path d="M 256.50358 40510.551547 
L 262.99667 40510.551547 
L 262.99667 148.795919 
L 256.50358 148.795919 
z
" clip-path="url(#pb0485ff269)" style="fill: #1f77b4"/>
   </g>
   <g id="patch_34">
    <path d="M 262.99667 40510.551547 
L 269.489761 40510.551547 
L 269.489761 184.83777 
L 262.99667 184.83777 
z
" clip-path="url(#pb0485ff269)" style="fill: #1f77b4"/>
   </g>
   <g id="patch_35">
    <path d="M 269.489761 40510.551547 
L 275.982852 40510.551547 
L 275.982852 242.012187 
L 269.489761 242.012187 
z
" clip-path="url(#pb0485ff269)" style="fill: #1f77b4"/>
   </g>
   <g id="patch_36">
    <path d="M 275.982852 40510.551547 
L 282.475943 40510.551547 
L 282.475943 249.099743 
L 275.982852 249.099743 
z
" clip-path="url(#pb0485ff269)" style="fill: #1f77b4"/>
   </g>
   <g id="patch_37">
    <path d="M 282.475943 40510.551547 
L 288.969034 40510.551547 
L 288.969034 40510.551547 
L 282.475943 40510.551547 
z
" clip-path="url(#pb0485ff269)" style="fill: #1f77b4"/>
   </g>
   <g id="patch_38">
    <path d="M 288.969034 40510.551547 
L 295.462125 40510.551547 
L 295.462125 249.099743 
L 288.969034 249.099743 
z
" clip-path="url(#pb0485ff269)" style="fill: #1f77b4"/>
   </g>
   <g id="patch_39">
    <path d="M 295.462125 40510.551547 
L 301.955216 40510.551547 
L 301.955216 249.099743 
L 295.462125 249.099743 
z
" clip-path="url(#pb0485ff269)" style="fill: #1f77b4"/>
   </g>
   <g id="patch_40">
    <path d="M 301.955216 40510.551547 
L 308.448307 40510.551547 
L 308.448307 249.099743 
L 301.955216 249.099743 
z
" clip-path="url(#pb0485ff269)" style="fill: #1f77b4"/>
   </g>
   <g id="patch_41">
    <path d="M 308.448307 40510.551547 
L 314.941398 40510.551547 
L 314.941398 229.895929 
L 308.448307 229.895929 
z
" clip-path="url(#pb0485ff269)" style="fill: #1f77b4"/>
   </g>
   <g id="patch_42">
    <path d="M 314.941398 40510.551547 
L 321.434489 40510.551547 
L 321.434489 201.189683 
L 314.941398 201.189683 
z
" clip-path="url(#pb0485ff269)" style="fill: #1f77b4"/>
   </g>
   <g id="patch_43">
    <path d="M 321.434489 40510.551547 
L 327.92758 40510.551547 
L 327.92758 189.35766 
L 321.434489 189.35766 
z
" clip-path="url(#pb0485ff269)" style="fill: #1f77b4"/>
   </g>
   <g id="patch_44">
    <path d="M 327.92758 40510.551547 
L 334.42067 40510.551547 
L 334.42067 220.966664 
L 327.92758 220.966664 
z
" clip-path="url(#pb0485ff269)" style="fill: #1f77b4"/>
   </g>
   <g id="patch_45">
    <path d="M 334.42067 40510.551547 
L 340.913761 40510.551547 
L 340.913761 261.216 
L 334.42067 261.216 
z
" clip-path="url(#pb0485ff269)" style="fill: #1f77b4"/>
   </g>
   <g id="patch_46">
    <path d="M 340.913761 40510.551547 
L 347.406852 40510.551547 
L 347.406852 261.216 
L 340.913761 261.216 
z
" clip-path="url(#pb0485ff269)" style="fill: #1f77b4"/>
   </g>
   <g id="patch_47">
    <path d="M 347.406852 40510.551547 
L 353.899943 40510.551547 
L 353.899943 40510.551547 
L 347.406852 40510.551547 
z
" clip-path="url(#pb0485ff269)" style="fill: #1f77b4"/>
   </g>
   <g id="patch_48">
    <path d="M 353.899943 40510.551547 
L 360.393034 40510.551547 
L 360.393034 40510.551547 
L 353.899943 40510.551547 
z
" clip-path="url(#pb0485ff269)" style="fill: #1f77b4"/>
   </g>
   <g id="patch_49">
    <path d="M 360.393034 40510.551547 
L 366.886125 40510.551547 
L 366.886125 40510.551547 
L 360.393034 40510.551547 
z
" clip-path="url(#pb0485ff269)" style="fill: #1f77b4"/>
   </g>
   <g id="patch_50">
    <path d="M 366.886125 40510.551547 
L 373.379216 40510.551547 
L 373.379216 40510.551547 
L 366.886125 40510.551547 
z
" clip-path="url(#pb0485ff269)" style="fill: #1f77b4"/>
   </g>
   <g id="patch_51">
    <path d="M 373.379216 40510.551547 
L 379.872307 40510.551547 
L 379.872307 261.216 
L 373.379216 261.216 
z
" clip-path="url(#pb0485ff269)" style="fill: #1f77b4"/>
   </g>
   <g id="patch_52">
    <path d="M 379.872307 40510.551547 
L 386.365398 40510.551547 
L 386.365398 40510.551547 
L 379.872307 40510.551547 
z
" clip-path="url(#pb0485ff269)" style="fill: #1f77b4"/>
   </g>
   <g id="matplotlib.axis_1">
    <g id="xtick_1">
     <g id="line2d_1">
      <defs>
       <path id="m2d17bbbf3e" d="M 0 0 
L 0 3.5 
" style="stroke: #000000; stroke-width: 0.8"/>
      </defs>
      <g>
       <use xlink:href="#m2d17bbbf3e" x="55.217761" y="273.312" style="stroke: #000000; stroke-width: 0.8"/>
      </g>
     </g>
     <g id="text_1">
      <!-- 0 -->
      <g transform="translate(52.036511 287.910437) scale(0.1 -0.1)">
       <defs>
        <path id="DejaVuSans-30" d="M 2034 4250 
Q 1547 4250 1301 3770 
Q 1056 3291 1056 2328 
Q 1056 1369 1301 889 
Q 1547 409 2034 409 
Q 2525 409 2770 889 
Q 3016 1369 3016 2328 
Q 3016 3291 2770 3770 
Q 2525 4250 2034 4250 
z
M 2034 4750 
Q 2819 4750 3233 4129 
Q 3647 3509 3647 2328 
Q 3647 1150 3233 529 
Q 2819 -91 2034 -91 
Q 1250 -91 836 529 
Q 422 1150 422 2328 
Q 422 3509 836 4129 
Q 1250 4750 2034 4750 
z
" transform="scale(0.015625)"/>
       </defs>
       <use xlink:href="#DejaVuSans-30"/>
      </g>
     </g>
    </g>
    <g id="xtick_2">
     <g id="line2d_2">
      <g>
       <use xlink:href="#m2d17bbbf3e" x="120.14867" y="273.312" style="stroke: #000000; stroke-width: 0.8"/>
      </g>
     </g>
     <g id="text_2">
      <!-- 10 -->
      <g transform="translate(113.78617 287.910437) scale(0.1 -0.1)">
       <defs>
        <path id="DejaVuSans-31" d="M 794 531 
L 1825 531 
L 1825 4091 
L 703 3866 
L 703 4441 
L 1819 4666 
L 2450 4666 
L 2450 531 
L 3481 531 
L 3481 0 
L 794 0 
L 794 531 
z
" transform="scale(0.015625)"/>
       </defs>
       <use xlink:href="#DejaVuSans-31"/>
       <use xlink:href="#DejaVuSans-30" x="63.623047"/>
      </g>
     </g>
    </g>
    <g id="xtick_3">
     <g id="line2d_3">
      <g>
       <use xlink:href="#m2d17bbbf3e" x="185.07958" y="273.312" style="stroke: #000000; stroke-width: 0.8"/>
      </g>
     </g>
     <g id="text_3">
      <!-- 20 -->
      <g transform="translate(178.71708 287.910437) scale(0.1 -0.1)">
       <defs>
        <path id="DejaVuSans-32" d="M 1228 531 
L 3431 531 
L 3431 0 
L 469 0 
L 469 531 
Q 828 903 1448 1529 
Q 2069 2156 2228 2338 
Q 2531 2678 2651 2914 
Q 2772 3150 2772 3378 
Q 2772 3750 2511 3984 
Q 2250 4219 1831 4219 
Q 1534 4219 1204 4116 
Q 875 4013 500 3803 
L 500 4441 
Q 881 4594 1212 4672 
Q 1544 4750 1819 4750 
Q 2544 4750 2975 4387 
Q 3406 4025 3406 3419 
Q 3406 3131 3298 2873 
Q 3191 2616 2906 2266 
Q 2828 2175 2409 1742 
Q 1991 1309 1228 531 
z
" transform="scale(0.015625)"/>
       </defs>
       <use xlink:href="#DejaVuSans-32"/>
       <use xlink:href="#DejaVuSans-30" x="63.623047"/>
      </g>
     </g>
    </g>
    <g id="xtick_4">
     <g id="line2d_4">
      <g>
       <use xlink:href="#m2d17bbbf3e" x="250.010489" y="273.312" style="stroke: #000000; stroke-width: 0.8"/>
      </g>
     </g>
     <g id="text_4">
      <!-- 30 -->
      <g transform="translate(243.647989 287.910437) scale(0.1 -0.1)">
       <defs>
        <path id="DejaVuSans-33" d="M 2597 2516 
Q 3050 2419 3304 2112 
Q 3559 1806 3559 1356 
Q 3559 666 3084 287 
Q 2609 -91 1734 -91 
Q 1441 -91 1130 -33 
Q 819 25 488 141 
L 488 750 
Q 750 597 1062 519 
Q 1375 441 1716 441 
Q 2309 441 2620 675 
Q 2931 909 2931 1356 
Q 2931 1769 2642 2001 
Q 2353 2234 1838 2234 
L 1294 2234 
L 1294 2753 
L 1863 2753 
Q 2328 2753 2575 2939 
Q 2822 3125 2822 3475 
Q 2822 3834 2567 4026 
Q 2313 4219 1838 4219 
Q 1578 4219 1281 4162 
Q 984 4106 628 3988 
L 628 4550 
Q 988 4650 1302 4700 
Q 1616 4750 1894 4750 
Q 2613 4750 3031 4423 
Q 3450 4097 3450 3541 
Q 3450 3153 3228 2886 
Q 3006 2619 2597 2516 
z
" transform="scale(0.015625)"/>
       </defs>
       <use xlink:href="#DejaVuSans-33"/>
       <use xlink:href="#DejaVuSans-30" x="63.623047"/>
      </g>
     </g>
    </g>
    <g id="xtick_5">
     <g id="line2d_5">
      <g>
       <use xlink:href="#m2d17bbbf3e" x="314.941398" y="273.312" style="stroke: #000000; stroke-width: 0.8"/>
      </g>
     </g>
     <g id="text_5">
      <!-- 40 -->
      <g transform="translate(308.578898 287.910437) scale(0.1 -0.1)">
       <defs>
        <path id="DejaVuSans-34" d="M 2419 4116 
L 825 1625 
L 2419 1625 
L 2419 4116 
z
M 2253 4666 
L 3047 4666 
L 3047 1625 
L 3713 1625 
L 3713 1100 
L 3047 1100 
L 3047 0 
L 2419 0 
L 2419 1100 
L 313 1100 
L 313 1709 
L 2253 4666 
z
" transform="scale(0.015625)"/>
       </defs>
       <use xlink:href="#DejaVuSans-34"/>
       <use xlink:href="#DejaVuSans-30" x="63.623047"/>
      </g>
     </g>
    </g>
    <g id="xtick_6">
     <g id="line2d_6">
      <g>
       <use xlink:href="#m2d17bbbf3e" x="379.872307" y="273.312" style="stroke: #000000; stroke-width: 0.8"/>
      </g>
     </g>
     <g id="text_6">
      <!-- 50 -->
      <g transform="translate(373.509807 287.910437) scale(0.1 -0.1)">
       <defs>
        <path id="DejaVuSans-35" d="M 691 4666 
L 3169 4666 
L 3169 4134 
L 1269 4134 
L 1269 2991 
Q 1406 3038 1543 3061 
Q 1681 3084 1819 3084 
Q 2600 3084 3056 2656 
Q 3513 2228 3513 1497 
Q 3513 744 3044 326 
Q 2575 -91 1722 -91 
Q 1428 -91 1123 -41 
Q 819 9 494 109 
L 494 744 
Q 775 591 1075 516 
Q 1375 441 1709 441 
Q 2250 441 2565 725 
Q 2881 1009 2881 1497 
Q 2881 1984 2565 2268 
Q 2250 2553 1709 2553 
Q 1456 2553 1204 2497 
Q 953 2441 691 2322 
L 691 4666 
z
" transform="scale(0.015625)"/>
       </defs>
       <use xlink:href="#DejaVuSans-35"/>
       <use xlink:href="#DejaVuSans-30" x="63.623047"/>
      </g>
     </g>
    </g>
    <g id="text_7">
     <!-- Resampling per pair -->
     <g transform="translate(173.710781 301.588562) scale(0.1 -0.1)">
      <defs>
       <path id="DejaVuSans-52" d="M 2841 2188 
Q 3044 2119 3236 1894 
Q 3428 1669 3622 1275 
L 4263 0 
L 3584 0 
L 2988 1197 
Q 2756 1666 2539 1819 
Q 2322 1972 1947 1972 
L 1259 1972 
L 1259 0 
L 628 0 
L 628 4666 
L 2053 4666 
Q 2853 4666 3247 4331 
Q 3641 3997 3641 3322 
Q 3641 2881 3436 2590 
Q 3231 2300 2841 2188 
z
M 1259 4147 
L 1259 2491 
L 2053 2491 
Q 2509 2491 2742 2702 
Q 2975 2913 2975 3322 
Q 2975 3731 2742 3939 
Q 2509 4147 2053 4147 
L 1259 4147 
z
" transform="scale(0.015625)"/>
       <path id="DejaVuSans-65" d="M 3597 1894 
L 3597 1613 
L 953 1613 
Q 991 1019 1311 708 
Q 1631 397 2203 397 
Q 2534 397 2845 478 
Q 3156 559 3463 722 
L 3463 178 
Q 3153 47 2828 -22 
Q 2503 -91 2169 -91 
Q 1331 -91 842 396 
Q 353 884 353 1716 
Q 353 2575 817 3079 
Q 1281 3584 2069 3584 
Q 2775 3584 3186 3129 
Q 3597 2675 3597 1894 
z
M 3022 2063 
Q 3016 2534 2758 2815 
Q 2500 3097 2075 3097 
Q 1594 3097 1305 2825 
Q 1016 2553 972 2059 
L 3022 2063 
z
" transform="scale(0.015625)"/>
       <path id="DejaVuSans-73" d="M 2834 3397 
L 2834 2853 
Q 2591 2978 2328 3040 
Q 2066 3103 1784 3103 
Q 1356 3103 1142 2972 
Q 928 2841 928 2578 
Q 928 2378 1081 2264 
Q 1234 2150 1697 2047 
L 1894 2003 
Q 2506 1872 2764 1633 
Q 3022 1394 3022 966 
Q 3022 478 2636 193 
Q 2250 -91 1575 -91 
Q 1294 -91 989 -36 
Q 684 19 347 128 
L 347 722 
Q 666 556 975 473 
Q 1284 391 1588 391 
Q 1994 391 2212 530 
Q 2431 669 2431 922 
Q 2431 1156 2273 1281 
Q 2116 1406 1581 1522 
L 1381 1569 
Q 847 1681 609 1914 
Q 372 2147 372 2553 
Q 372 3047 722 3315 
Q 1072 3584 1716 3584 
Q 2034 3584 2315 3537 
Q 2597 3491 2834 3397 
z
" transform="scale(0.015625)"/>
       <path id="DejaVuSans-61" d="M 2194 1759 
Q 1497 1759 1228 1600 
Q 959 1441 959 1056 
Q 959 750 1161 570 
Q 1363 391 1709 391 
Q 2188 391 2477 730 
Q 2766 1069 2766 1631 
L 2766 1759 
L 2194 1759 
z
M 3341 1997 
L 3341 0 
L 2766 0 
L 2766 531 
Q 2569 213 2275 61 
Q 1981 -91 1556 -91 
Q 1019 -91 701 211 
Q 384 513 384 1019 
Q 384 1609 779 1909 
Q 1175 2209 1959 2209 
L 2766 2209 
L 2766 2266 
Q 2766 2663 2505 2880 
Q 2244 3097 1772 3097 
Q 1472 3097 1187 3025 
Q 903 2953 641 2809 
L 641 3341 
Q 956 3463 1253 3523 
Q 1550 3584 1831 3584 
Q 2591 3584 2966 3190 
Q 3341 2797 3341 1997 
z
" transform="scale(0.015625)"/>
       <path id="DejaVuSans-6d" d="M 3328 2828 
Q 3544 3216 3844 3400 
Q 4144 3584 4550 3584 
Q 5097 3584 5394 3201 
Q 5691 2819 5691 2113 
L 5691 0 
L 5113 0 
L 5113 2094 
Q 5113 2597 4934 2840 
Q 4756 3084 4391 3084 
Q 3944 3084 3684 2787 
Q 3425 2491 3425 1978 
L 3425 0 
L 2847 0 
L 2847 2094 
Q 2847 2600 2669 2842 
Q 2491 3084 2119 3084 
Q 1678 3084 1418 2786 
Q 1159 2488 1159 1978 
L 1159 0 
L 581 0 
L 581 3500 
L 1159 3500 
L 1159 2956 
Q 1356 3278 1631 3431 
Q 1906 3584 2284 3584 
Q 2666 3584 2933 3390 
Q 3200 3197 3328 2828 
z
" transform="scale(0.015625)"/>
       <path id="DejaVuSans-70" d="M 1159 525 
L 1159 -1331 
L 581 -1331 
L 581 3500 
L 1159 3500 
L 1159 2969 
Q 1341 3281 1617 3432 
Q 1894 3584 2278 3584 
Q 2916 3584 3314 3078 
Q 3713 2572 3713 1747 
Q 3713 922 3314 415 
Q 2916 -91 2278 -91 
Q 1894 -91 1617 61 
Q 1341 213 1159 525 
z
M 3116 1747 
Q 3116 2381 2855 2742 
Q 2594 3103 2138 3103 
Q 1681 3103 1420 2742 
Q 1159 2381 1159 1747 
Q 1159 1113 1420 752 
Q 1681 391 2138 391 
Q 2594 391 2855 752 
Q 3116 1113 3116 1747 
z
" transform="scale(0.015625)"/>
       <path id="DejaVuSans-6c" d="M 603 4863 
L 1178 4863 
L 1178 0 
L 603 0 
L 603 4863 
z
" transform="scale(0.015625)"/>
       <path id="DejaVuSans-69" d="M 603 3500 
L 1178 3500 
L 1178 0 
L 603 0 
L 603 3500 
z
M 603 4863 
L 1178 4863 
L 1178 4134 
L 603 4134 
L 603 4863 
z
" transform="scale(0.015625)"/>
       <path id="DejaVuSans-6e" d="M 3513 2113 
L 3513 0 
L 2938 0 
L 2938 2094 
Q 2938 2591 2744 2837 
Q 2550 3084 2163 3084 
Q 1697 3084 1428 2787 
Q 1159 2491 1159 1978 
L 1159 0 
L 581 0 
L 581 3500 
L 1159 3500 
L 1159 2956 
Q 1366 3272 1645 3428 
Q 1925 3584 2291 3584 
Q 2894 3584 3203 3211 
Q 3513 2838 3513 2113 
z
" transform="scale(0.015625)"/>
       <path id="DejaVuSans-67" d="M 2906 1791 
Q 2906 2416 2648 2759 
Q 2391 3103 1925 3103 
Q 1463 3103 1205 2759 
Q 947 2416 947 1791 
Q 947 1169 1205 825 
Q 1463 481 1925 481 
Q 2391 481 2648 825 
Q 2906 1169 2906 1791 
z
M 3481 434 
Q 3481 -459 3084 -895 
Q 2688 -1331 1869 -1331 
Q 1566 -1331 1297 -1286 
Q 1028 -1241 775 -1147 
L 775 -588 
Q 1028 -725 1275 -790 
Q 1522 -856 1778 -856 
Q 2344 -856 2625 -561 
Q 2906 -266 2906 331 
L 2906 616 
Q 2728 306 2450 153 
Q 2172 0 1784 0 
Q 1141 0 747 490 
Q 353 981 353 1791 
Q 353 2603 747 3093 
Q 1141 3584 1784 3584 
Q 2172 3584 2450 3431 
Q 2728 3278 2906 2969 
L 2906 3500 
L 3481 3500 
L 3481 434 
z
" transform="scale(0.015625)"/>
       <path id="DejaVuSans-20" transform="scale(0.015625)"/>
       <path id="DejaVuSans-72" d="M 2631 2963 
Q 2534 3019 2420 3045 
Q 2306 3072 2169 3072 
Q 1681 3072 1420 2755 
Q 1159 2438 1159 1844 
L 1159 0 
L 581 0 
L 581 3500 
L 1159 3500 
L 1159 2956 
Q 1341 3275 1631 3429 
Q 1922 3584 2338 3584 
Q 2397 3584 2469 3576 
Q 2541 3569 2628 3553 
L 2631 2963 
z
" transform="scale(0.015625)"/>
      </defs>
      <use xlink:href="#DejaVuSans-52"/>
      <use xlink:href="#DejaVuSans-65" x="64.982422"/>
      <use xlink:href="#DejaVuSans-73" x="126.505859"/>
      <use xlink:href="#DejaVuSans-61" x="178.605469"/>
      <use xlink:href="#DejaVuSans-6d" x="239.884766"/>
      <use xlink:href="#DejaVuSans-70" x="337.296875"/>
      <use xlink:href="#DejaVuSans-6c" x="400.773438"/>
      <use xlink:href="#DejaVuSans-69" x="428.556641"/>
      <use xlink:href="#DejaVuSans-6e" x="456.339844"/>
      <use xlink:href="#DejaVuSans-67" x="519.71875"/>
      <use xlink:href="#DejaVuSans-20" x="583.195312"/>
      <use xlink:href="#DejaVuSans-70" x="614.982422"/>
      <use xlink:href="#DejaVuSans-65" x="678.458984"/>
      <use xlink:href="#DejaVuSans-72" x="739.982422"/>
      <use xlink:href="#DejaVuSans-20" x="781.095703"/>
      <use xlink:href="#DejaVuSans-70" x="812.882812"/>
      <use xlink:href="#DejaVuSans-61" x="876.359375"/>
      <use xlink:href="#DejaVuSans-69" x="937.638672"/>
      <use xlink:href="#DejaVuSans-72" x="965.421875"/>
     </g>
    </g>
   </g>
   <g id="matplotlib.axis_2">
    <g id="ytick_1">
     <g id="line2d_7">
      <defs>
       <path id="m115d1eb3a0" d="M 0 0 
L -3.5 0 
" style="stroke: #000000; stroke-width: 0.8"/>
      </defs>
      <g>
       <use xlink:href="#m115d1eb3a0" x="45.478125" y="261.216" style="stroke: #000000; stroke-width: 0.8"/>
      </g>
     </g>
     <g id="text_8">
      <!-- $\mathdefault{10^{0}}$ -->
      <g transform="translate(20.878125 265.015219) scale(0.1 -0.1)">
       <use xlink:href="#DejaVuSans-31" transform="translate(0 0.765625)"/>
       <use xlink:href="#DejaVuSans-30" transform="translate(63.623047 0.765625)"/>
       <use xlink:href="#DejaVuSans-30" transform="translate(128.203125 39.046875) scale(0.7)"/>
      </g>
     </g>
    </g>
    <g id="ytick_2">
     <g id="line2d_8">
      <g>
       <use xlink:href="#m115d1eb3a0" x="45.478125" y="220.966664" style="stroke: #000000; stroke-width: 0.8"/>
      </g>
     </g>
     <g id="text_9">
      <!-- $\mathdefault{10^{1}}$ -->
      <g transform="translate(20.878125 224.765883) scale(0.1 -0.1)">
       <use xlink:href="#DejaVuSans-31" transform="translate(0 0.684375)"/>
       <use xlink:href="#DejaVuSans-30" transform="translate(63.623047 0.684375)"/>
       <use xlink:href="#DejaVuSans-31" transform="translate(128.203125 38.965625) scale(0.7)"/>
      </g>
     </g>
    </g>
    <g id="ytick_3">
     <g id="line2d_9">
      <g>
       <use xlink:href="#m115d1eb3a0" x="45.478125" y="180.717329" style="stroke: #000000; stroke-width: 0.8"/>
      </g>
     </g>
     <g id="text_10">
      <!-- $\mathdefault{10^{2}}$ -->
      <g transform="translate(20.878125 184.516548) scale(0.1 -0.1)">
       <use xlink:href="#DejaVuSans-31" transform="translate(0 0.765625)"/>
       <use xlink:href="#DejaVuSans-30" transform="translate(63.623047 0.765625)"/>
       <use xlink:href="#DejaVuSans-32" transform="translate(128.203125 39.046875) scale(0.7)"/>
      </g>
     </g>
    </g>
    <g id="ytick_4">
     <g id="line2d_10">
      <g>
       <use xlink:href="#m115d1eb3a0" x="45.478125" y="140.467993" style="stroke: #000000; stroke-width: 0.8"/>
      </g>
     </g>
     <g id="text_11">
      <!-- $\mathdefault{10^{3}}$ -->
      <g transform="translate(20.878125 144.267212) scale(0.1 -0.1)">
       <use xlink:href="#DejaVuSans-31" transform="translate(0 0.765625)"/>
       <use xlink:href="#DejaVuSans-30" transform="translate(63.623047 0.765625)"/>
       <use xlink:href="#DejaVuSans-33" transform="translate(128.203125 39.046875) scale(0.7)"/>
      </g>
     </g>
    </g>
    <g id="ytick_5">
     <g id="line2d_11">
      <g>
       <use xlink:href="#m115d1eb3a0" x="45.478125" y="100.218658" style="stroke: #000000; stroke-width: 0.8"/>
      </g>
     </g>
     <g id="text_12">
      <!-- $\mathdefault{10^{4}}$ -->
      <g transform="translate(20.878125 104.017877) scale(0.1 -0.1)">
       <use xlink:href="#DejaVuSans-31" transform="translate(0 0.684375)"/>
       <use xlink:href="#DejaVuSans-30" transform="translate(63.623047 0.684375)"/>
       <use xlink:href="#DejaVuSans-34" transform="translate(128.203125 38.965625) scale(0.7)"/>
      </g>
     </g>
    </g>
    <g id="ytick_6">
     <g id="line2d_12">
      <g>
       <use xlink:href="#m115d1eb3a0" x="45.478125" y="59.969322" style="stroke: #000000; stroke-width: 0.8"/>
      </g>
     </g>
     <g id="text_13">
      <!-- $\mathdefault{10^{5}}$ -->
      <g transform="translate(20.878125 63.768541) scale(0.1 -0.1)">
       <use xlink:href="#DejaVuSans-31" transform="translate(0 0.684375)"/>
       <use xlink:href="#DejaVuSans-30" transform="translate(63.623047 0.684375)"/>
       <use xlink:href="#DejaVuSans-35" transform="translate(128.203125 38.965625) scale(0.7)"/>
      </g>
     </g>
    </g>
    <g id="ytick_7">
     <g id="line2d_13">
      <g>
       <use xlink:href="#m115d1eb3a0" x="45.478125" y="19.719987" style="stroke: #000000; stroke-width: 0.8"/>
      </g>
     </g>
     <g id="text_14">
      <!-- $\mathdefault{10^{6}}$ -->
      <g transform="translate(20.878125 23.519205) scale(0.1 -0.1)">
       <defs>
        <path id="DejaVuSans-36" d="M 2113 2584 
Q 1688 2584 1439 2293 
Q 1191 2003 1191 1497 
Q 1191 994 1439 701 
Q 1688 409 2113 409 
Q 2538 409 2786 701 
Q 3034 994 3034 1497 
Q 3034 2003 2786 2293 
Q 2538 2584 2113 2584 
z
M 3366 4563 
L 3366 3988 
Q 3128 4100 2886 4159 
Q 2644 4219 2406 4219 
Q 1781 4219 1451 3797 
Q 1122 3375 1075 2522 
Q 1259 2794 1537 2939 
Q 1816 3084 2150 3084 
Q 2853 3084 3261 2657 
Q 3669 2231 3669 1497 
Q 3669 778 3244 343 
Q 2819 -91 2113 -91 
Q 1303 -91 875 529 
Q 447 1150 447 2328 
Q 447 3434 972 4092 
Q 1497 4750 2381 4750 
Q 2619 4750 2861 4703 
Q 3103 4656 3366 4563 
z
" transform="scale(0.015625)"/>
       </defs>
       <use xlink:href="#DejaVuSans-31" transform="translate(0 0.765625)"/>
       <use xlink:href="#DejaVuSans-30" transform="translate(63.623047 0.765625)"/>
       <use xlink:href="#DejaVuSans-36" transform="translate(128.203125 39.046875) scale(0.7)"/>
      </g>
     </g>
    </g>
    <g id="ytick_8">
     <g id="line2d_14">
      <defs>
       <path id="mf56952c9ba" d="M 0 0 
L -2 0 
" style="stroke: #000000; stroke-width: 0.6"/>
      </defs>
      <g>
       <use xlink:href="#mf56952c9ba" x="45.478125" y="270.145265" style="stroke: #000000; stroke-width: 0.6"/>
      </g>
     </g>
    </g>
    <g id="ytick_9">
     <g id="line2d_15">
      <g>
       <use xlink:href="#mf56952c9ba" x="45.478125" y="267.450701" style="stroke: #000000; stroke-width: 0.6"/>
      </g>
     </g>
    </g>
    <g id="ytick_10">
     <g id="line2d_16">
      <g>
       <use xlink:href="#mf56952c9ba" x="45.478125" y="265.116564" style="stroke: #000000; stroke-width: 0.6"/>
      </g>
     </g>
    </g>
    <g id="ytick_11">
     <g id="line2d_17">
      <g>
       <use xlink:href="#mf56952c9ba" x="45.478125" y="263.057709" style="stroke: #000000; stroke-width: 0.6"/>
      </g>
     </g>
    </g>
    <g id="ytick_12">
     <g id="line2d_18">
      <g>
       <use xlink:href="#mf56952c9ba" x="45.478125" y="249.099743" style="stroke: #000000; stroke-width: 0.6"/>
      </g>
     </g>
    </g>
    <g id="ytick_13">
     <g id="line2d_19">
      <g>
       <use xlink:href="#mf56952c9ba" x="45.478125" y="242.012187" style="stroke: #000000; stroke-width: 0.6"/>
      </g>
     </g>
    </g>
    <g id="ytick_14">
     <g id="line2d_20">
      <g>
       <use xlink:href="#mf56952c9ba" x="45.478125" y="236.983485" style="stroke: #000000; stroke-width: 0.6"/>
      </g>
     </g>
    </g>
    <g id="ytick_15">
     <g id="line2d_21">
      <g>
       <use xlink:href="#mf56952c9ba" x="45.478125" y="233.082922" style="stroke: #000000; stroke-width: 0.6"/>
      </g>
     </g>
    </g>
    <g id="ytick_16">
     <g id="line2d_22">
      <g>
       <use xlink:href="#mf56952c9ba" x="45.478125" y="229.895929" style="stroke: #000000; stroke-width: 0.6"/>
      </g>
     </g>
    </g>
    <g id="ytick_17">
     <g id="line2d_23">
      <g>
       <use xlink:href="#mf56952c9ba" x="45.478125" y="227.201365" style="stroke: #000000; stroke-width: 0.6"/>
      </g>
     </g>
    </g>
    <g id="ytick_18">
     <g id="line2d_24">
      <g>
       <use xlink:href="#mf56952c9ba" x="45.478125" y="224.867228" style="stroke: #000000; stroke-width: 0.6"/>
      </g>
     </g>
    </g>
    <g id="ytick_19">
     <g id="line2d_25">
      <g>
       <use xlink:href="#mf56952c9ba" x="45.478125" y="222.808373" style="stroke: #000000; stroke-width: 0.6"/>
      </g>
     </g>
    </g>
    <g id="ytick_20">
     <g id="line2d_26">
      <g>
       <use xlink:href="#mf56952c9ba" x="45.478125" y="208.850407" style="stroke: #000000; stroke-width: 0.6"/>
      </g>
     </g>
    </g>
    <g id="ytick_21">
     <g id="line2d_27">
      <g>
       <use xlink:href="#mf56952c9ba" x="45.478125" y="201.762851" style="stroke: #000000; stroke-width: 0.6"/>
      </g>
     </g>
    </g>
    <g id="ytick_22">
     <g id="line2d_28">
      <g>
       <use xlink:href="#mf56952c9ba" x="45.478125" y="196.73415" style="stroke: #000000; stroke-width: 0.6"/>
      </g>
     </g>
    </g>
    <g id="ytick_23">
     <g id="line2d_29">
      <g>
       <use xlink:href="#mf56952c9ba" x="45.478125" y="192.833586" style="stroke: #000000; stroke-width: 0.6"/>
      </g>
     </g>
    </g>
    <g id="ytick_24">
     <g id="line2d_30">
      <g>
       <use xlink:href="#mf56952c9ba" x="45.478125" y="189.646594" style="stroke: #000000; stroke-width: 0.6"/>
      </g>
     </g>
    </g>
    <g id="ytick_25">
     <g id="line2d_31">
      <g>
       <use xlink:href="#mf56952c9ba" x="45.478125" y="186.95203" style="stroke: #000000; stroke-width: 0.6"/>
      </g>
     </g>
    </g>
    <g id="ytick_26">
     <g id="line2d_32">
      <g>
       <use xlink:href="#mf56952c9ba" x="45.478125" y="184.617893" style="stroke: #000000; stroke-width: 0.6"/>
      </g>
     </g>
    </g>
    <g id="ytick_27">
     <g id="line2d_33">
      <g>
       <use xlink:href="#mf56952c9ba" x="45.478125" y="182.559037" style="stroke: #000000; stroke-width: 0.6"/>
      </g>
     </g>
    </g>
    <g id="ytick_28">
     <g id="line2d_34">
      <g>
       <use xlink:href="#mf56952c9ba" x="45.478125" y="168.601072" style="stroke: #000000; stroke-width: 0.6"/>
      </g>
     </g>
    </g>
    <g id="ytick_29">
     <g id="line2d_35">
      <g>
       <use xlink:href="#mf56952c9ba" x="45.478125" y="161.513515" style="stroke: #000000; stroke-width: 0.6"/>
      </g>
     </g>
    </g>
    <g id="ytick_30">
     <g id="line2d_36">
      <g>
       <use xlink:href="#mf56952c9ba" x="45.478125" y="156.484814" style="stroke: #000000; stroke-width: 0.6"/>
      </g>
     </g>
    </g>
    <g id="ytick_31">
     <g id="line2d_37">
      <g>
       <use xlink:href="#mf56952c9ba" x="45.478125" y="152.584251" style="stroke: #000000; stroke-width: 0.6"/>
      </g>
     </g>
    </g>
    <g id="ytick_32">
     <g id="line2d_38">
      <g>
       <use xlink:href="#mf56952c9ba" x="45.478125" y="149.397258" style="stroke: #000000; stroke-width: 0.6"/>
      </g>
     </g>
    </g>
    <g id="ytick_33">
     <g id="line2d_39">
      <g>
       <use xlink:href="#mf56952c9ba" x="45.478125" y="146.702694" style="stroke: #000000; stroke-width: 0.6"/>
      </g>
     </g>
    </g>
    <g id="ytick_34">
     <g id="line2d_40">
      <g>
       <use xlink:href="#mf56952c9ba" x="45.478125" y="144.368557" style="stroke: #000000; stroke-width: 0.6"/>
      </g>
     </g>
    </g>
    <g id="ytick_35">
     <g id="line2d_41">
      <g>
       <use xlink:href="#mf56952c9ba" x="45.478125" y="142.309702" style="stroke: #000000; stroke-width: 0.6"/>
      </g>
     </g>
    </g>
    <g id="ytick_36">
     <g id="line2d_42">
      <g>
       <use xlink:href="#mf56952c9ba" x="45.478125" y="128.351736" style="stroke: #000000; stroke-width: 0.6"/>
      </g>
     </g>
    </g>
    <g id="ytick_37">
     <g id="line2d_43">
      <g>
       <use xlink:href="#mf56952c9ba" x="45.478125" y="121.26418" style="stroke: #000000; stroke-width: 0.6"/>
      </g>
     </g>
    </g>
    <g id="ytick_38">
     <g id="line2d_44">
      <g>
       <use xlink:href="#mf56952c9ba" x="45.478125" y="116.235479" style="stroke: #000000; stroke-width: 0.6"/>
      </g>
     </g>
    </g>
    <g id="ytick_39">
     <g id="line2d_45">
      <g>
       <use xlink:href="#mf56952c9ba" x="45.478125" y="112.334915" style="stroke: #000000; stroke-width: 0.6"/>
      </g>
     </g>
    </g>
    <g id="ytick_40">
     <g id="line2d_46">
      <g>
       <use xlink:href="#mf56952c9ba" x="45.478125" y="109.147923" style="stroke: #000000; stroke-width: 0.6"/>
      </g>
     </g>
    </g>
    <g id="ytick_41">
     <g id="line2d_47">
      <g>
       <use xlink:href="#mf56952c9ba" x="45.478125" y="106.453359" style="stroke: #000000; stroke-width: 0.6"/>
      </g>
     </g>
    </g>
    <g id="ytick_42">
     <g id="line2d_48">
      <g>
       <use xlink:href="#mf56952c9ba" x="45.478125" y="104.119221" style="stroke: #000000; stroke-width: 0.6"/>
      </g>
     </g>
    </g>
    <g id="ytick_43">
     <g id="line2d_49">
      <g>
       <use xlink:href="#mf56952c9ba" x="45.478125" y="102.060366" style="stroke: #000000; stroke-width: 0.6"/>
      </g>
     </g>
    </g>
    <g id="ytick_44">
     <g id="line2d_50">
      <g>
       <use xlink:href="#mf56952c9ba" x="45.478125" y="88.102401" style="stroke: #000000; stroke-width: 0.6"/>
      </g>
     </g>
    </g>
    <g id="ytick_45">
     <g id="line2d_51">
      <g>
       <use xlink:href="#mf56952c9ba" x="45.478125" y="81.014844" style="stroke: #000000; stroke-width: 0.6"/>
      </g>
     </g>
    </g>
    <g id="ytick_46">
     <g id="line2d_52">
      <g>
       <use xlink:href="#mf56952c9ba" x="45.478125" y="75.986143" style="stroke: #000000; stroke-width: 0.6"/>
      </g>
     </g>
    </g>
    <g id="ytick_47">
     <g id="line2d_53">
      <g>
       <use xlink:href="#mf56952c9ba" x="45.478125" y="72.08558" style="stroke: #000000; stroke-width: 0.6"/>
      </g>
     </g>
    </g>
    <g id="ytick_48">
     <g id="line2d_54">
      <g>
       <use xlink:href="#mf56952c9ba" x="45.478125" y="68.898587" style="stroke: #000000; stroke-width: 0.6"/>
      </g>
     </g>
    </g>
    <g id="ytick_49">
     <g id="line2d_55">
      <g>
       <use xlink:href="#mf56952c9ba" x="45.478125" y="66.204023" style="stroke: #000000; stroke-width: 0.6"/>
      </g>
     </g>
    </g>
    <g id="ytick_50">
     <g id="line2d_56">
      <g>
       <use xlink:href="#mf56952c9ba" x="45.478125" y="63.869886" style="stroke: #000000; stroke-width: 0.6"/>
      </g>
     </g>
    </g>
    <g id="ytick_51">
     <g id="line2d_57">
      <g>
       <use xlink:href="#mf56952c9ba" x="45.478125" y="61.811031" style="stroke: #000000; stroke-width: 0.6"/>
      </g>
     </g>
    </g>
    <g id="ytick_52">
     <g id="line2d_58">
      <g>
       <use xlink:href="#mf56952c9ba" x="45.478125" y="47.853065" style="stroke: #000000; stroke-width: 0.6"/>
      </g>
     </g>
    </g>
    <g id="ytick_53">
     <g id="line2d_59">
      <g>
       <use xlink:href="#mf56952c9ba" x="45.478125" y="40.765509" style="stroke: #000000; stroke-width: 0.6"/>
      </g>
     </g>
    </g>
    <g id="ytick_54">
     <g id="line2d_60">
      <g>
       <use xlink:href="#mf56952c9ba" x="45.478125" y="35.736808" style="stroke: #000000; stroke-width: 0.6"/>
      </g>
     </g>
    </g>
    <g id="ytick_55">
     <g id="line2d_61">
      <g>
       <use xlink:href="#mf56952c9ba" x="45.478125" y="31.836244" style="stroke: #000000; stroke-width: 0.6"/>
      </g>
     </g>
    </g>
    <g id="ytick_56">
     <g id="line2d_62">
      <g>
       <use xlink:href="#mf56952c9ba" x="45.478125" y="28.649251" style="stroke: #000000; stroke-width: 0.6"/>
      </g>
     </g>
    </g>
    <g id="ytick_57">
     <g id="line2d_63">
      <g>
       <use xlink:href="#mf56952c9ba" x="45.478125" y="25.954688" style="stroke: #000000; stroke-width: 0.6"/>
      </g>
     </g>
    </g>
    <g id="ytick_58">
     <g id="line2d_64">
      <g>
       <use xlink:href="#mf56952c9ba" x="45.478125" y="23.62055" style="stroke: #000000; stroke-width: 0.6"/>
      </g>
     </g>
    </g>
    <g id="ytick_59">
     <g id="line2d_65">
      <g>
       <use xlink:href="#mf56952c9ba" x="45.478125" y="21.561695" style="stroke: #000000; stroke-width: 0.6"/>
      </g>
     </g>
    </g>
    <g id="ytick_60">
     <g id="line2d_66">
      <g>
       <use xlink:href="#mf56952c9ba" x="45.478125" y="7.603729" style="stroke: #000000; stroke-width: 0.6"/>
      </g>
     </g>
    </g>
    <g id="text_15">
     <!-- Nr of pairs -->
     <g transform="translate(14.798438 166.33725) rotate(-90) scale(0.1 -0.1)">
      <defs>
       <path id="DejaVuSans-4e" d="M 628 4666 
L 1478 4666 
L 3547 763 
L 3547 4666 
L 4159 4666 
L 4159 0 
L 3309 0 
L 1241 3903 
L 1241 0 
L 628 0 
L 628 4666 
z
" transform="scale(0.015625)"/>
       <path id="DejaVuSans-6f" d="M 1959 3097 
Q 1497 3097 1228 2736 
Q 959 2375 959 1747 
Q 959 1119 1226 758 
Q 1494 397 1959 397 
Q 2419 397 2687 759 
Q 2956 1122 2956 1747 
Q 2956 2369 2687 2733 
Q 2419 3097 1959 3097 
z
M 1959 3584 
Q 2709 3584 3137 3096 
Q 3566 2609 3566 1747 
Q 3566 888 3137 398 
Q 2709 -91 1959 -91 
Q 1206 -91 779 398 
Q 353 888 353 1747 
Q 353 2609 779 3096 
Q 1206 3584 1959 3584 
z
" transform="scale(0.015625)"/>
       <path id="DejaVuSans-66" d="M 2375 4863 
L 2375 4384 
L 1825 4384 
Q 1516 4384 1395 4259 
Q 1275 4134 1275 3809 
L 1275 3500 
L 2222 3500 
L 2222 3053 
L 1275 3053 
L 1275 0 
L 697 0 
L 697 3053 
L 147 3053 
L 147 3500 
L 697 3500 
L 697 3744 
Q 697 4328 969 4595 
Q 1241 4863 1831 4863 
L 2375 4863 
z
" transform="scale(0.015625)"/>
      </defs>
      <use xlink:href="#DejaVuSans-4e"/>
      <use xlink:href="#DejaVuSans-72" x="74.804688"/>
      <use xlink:href="#DejaVuSans-20" x="115.917969"/>
      <use xlink:href="#DejaVuSans-6f" x="147.705078"/>
      <use xlink:href="#DejaVuSans-66" x="208.886719"/>
      <use xlink:href="#DejaVuSans-20" x="244.091797"/>
      <use xlink:href="#DejaVuSans-70" x="275.878906"/>
      <use xlink:href="#DejaVuSans-61" x="339.355469"/>
      <use xlink:href="#DejaVuSans-69" x="400.634766"/>
      <use xlink:href="#DejaVuSans-72" x="428.417969"/>
      <use xlink:href="#DejaVuSans-73" x="469.53125"/>
     </g>
    </g>
   </g>
   <g id="patch_53">
    <path d="M 45.478125 273.312 
L 45.478125 7.2 
" style="fill: none; stroke: #000000; stroke-width: 0.8; stroke-linejoin: miter; stroke-linecap: square"/>
   </g>
   <g id="patch_54">
    <path d="M 402.598125 273.312 
L 402.598125 7.2 
" style="fill: none; stroke: #000000; stroke-width: 0.8; stroke-linejoin: miter; stroke-linecap: square"/>
   </g>
   <g id="patch_55">
    <path d="M 45.478125 273.312 
L 402.598125 273.312 
" style="fill: none; stroke: #000000; stroke-width: 0.8; stroke-linejoin: miter; stroke-linecap: square"/>
   </g>
   <g id="patch_56">
    <path d="M 45.478125 7.2 
L 402.598125 7.2 
" style="fill: none; stroke: #000000; stroke-width: 0.8; stroke-linejoin: miter; stroke-linecap: square"/>
   </g>
  </g>
 </g>
 <defs>
  <clipPath id="pb0485ff269">
   <rect x="45.478125" y="7.2" width="357.12" height="266.112"/>
  </clipPath>
 </defs>
</svg>
