<?xml version="1.0" encoding="utf-8" standalone="no"?>
<!DOCTYPE svg PUBLIC "-//W3C//DTD SVG 1.1//EN"
  "http://www.w3.org/Graphics/SVG/1.1/DTD/svg11.dtd">
<svg xmlns:xlink="http://www.w3.org/1999/xlink" width="576pt" height="288pt" viewBox="0 0 576 288" xmlns="http://www.w3.org/2000/svg" version="1.1">
 <metadata>
  <rdf:RDF xmlns:dc="http://purl.org/dc/elements/1.1/" xmlns:cc="http://creativecommons.org/ns#" xmlns:rdf="http://www.w3.org/1999/02/22-rdf-syntax-ns#">
   <cc:Work>
    <dc:type rdf:resource="http://purl.org/dc/dcmitype/StillImage"/>
    <dc:date>2024-12-17T15:23:35.966738</dc:date>
    <dc:format>image/svg+xml</dc:format>
    <dc:creator>
     <cc:Agent>
      <dc:title>Matplotlib v3.7.2, https://matplotlib.org/</dc:title>
     </cc:Agent>
    </dc:creator>
   </cc:Work>
  </rdf:RDF>
 </metadata>
 <defs>
  <style type="text/css">*{stroke-linejoin: round; stroke-linecap: butt}</style>
 </defs>
 <g id="figure_1">
  <g id="patch_1">
   <path d="M 0 288 
L 576 288 
L 576 0 
L 0 0 
z
" style="fill: #ffffff"/>
  </g>
  <g id="axes_1">
   <g id="patch_2">
    <path d="M 72 256.32 
L 518.4 256.32 
L 518.4 34.56 
L 72 34.56 
z
" style="fill: #ffffff"/>
   </g>
   <g id="matplotlib.axis_1">
    <g id="xtick_1">
     <g id="line2d_1">
      <path d="M 92.290909 256.32 
L 92.290909 34.56 
" clip-path="url(#p94ccc76ce1)" style="fill: none; stroke: #b0b0b0; stroke-width: 0.8; stroke-linecap: square"/>
     </g>
     <g id="line2d_2">
      <defs>
       <path id="m6e72bca5bf" d="M 0 0 
L 0 3.5 
" style="stroke: #000000; stroke-width: 0.8"/>
      </defs>
      <g>
       <use xlink:href="#m6e72bca5bf" x="92.290909" y="256.32" style="stroke: #000000; stroke-width: 0.8"/>
      </g>
     </g>
     <g id="text_1">
      <!-- 0 -->
      <g transform="translate(89.109659 270.918437) scale(0.1 -0.1)">
       <defs>
        <path id="DejaVuSans-30" d="M 2034 4250 
Q 1547 4250 1301 3770 
Q 1056 3291 1056 2328 
Q 1056 1369 1301 889 
Q 1547 409 2034 409 
Q 2525 409 2770 889 
Q 3016 1369 3016 2328 
Q 3016 3291 2770 3770 
Q 2525 4250 2034 4250 
z
M 2034 4750 
Q 2819 4750 3233 4129 
Q 3647 3509 3647 2328 
Q 3647 1150 3233 529 
Q 2819 -91 2034 -91 
Q 1250 -91 836 529 
Q 422 1150 422 2328 
Q 422 3509 836 4129 
Q 1250 4750 2034 4750 
z
" transform="scale(0.015625)"/>
       </defs>
       <use xlink:href="#DejaVuSans-30"/>
      </g>
     </g>
    </g>
    <g id="xtick_2">
     <g id="line2d_3">
      <path d="M 157.745455 256.32 
L 157.745455 34.56 
" clip-path="url(#p94ccc76ce1)" style="fill: none; stroke: #b0b0b0; stroke-width: 0.8; stroke-linecap: square"/>
     </g>
     <g id="line2d_4">
      <g>
       <use xlink:href="#m6e72bca5bf" x="157.745455" y="256.32" style="stroke: #000000; stroke-width: 0.8"/>
      </g>
     </g>
     <g id="text_2">
      <!-- 20 -->
      <g transform="translate(151.382955 270.918437) scale(0.1 -0.1)">
       <defs>
        <path id="DejaVuSans-32" d="M 1228 531 
L 3431 531 
L 3431 0 
L 469 0 
L 469 531 
Q 828 903 1448 1529 
Q 2069 2156 2228 2338 
Q 2531 2678 2651 2914 
Q 2772 3150 2772 3378 
Q 2772 3750 2511 3984 
Q 2250 4219 1831 4219 
Q 1534 4219 1204 4116 
Q 875 4013 500 3803 
L 500 4441 
Q 881 4594 1212 4672 
Q 1544 4750 1819 4750 
Q 2544 4750 2975 4387 
Q 3406 4025 3406 3419 
Q 3406 3131 3298 2873 
Q 3191 2616 2906 2266 
Q 2828 2175 2409 1742 
Q 1991 1309 1228 531 
z
" transform="scale(0.015625)"/>
       </defs>
       <use xlink:href="#DejaVuSans-32"/>
       <use xlink:href="#DejaVuSans-30" x="63.623047"/>
      </g>
     </g>
    </g>
    <g id="xtick_3">
     <g id="line2d_5">
      <path d="M 223.2 256.32 
L 223.2 34.56 
" clip-path="url(#p94ccc76ce1)" style="fill: none; stroke: #b0b0b0; stroke-width: 0.8; stroke-linecap: square"/>
     </g>
     <g id="line2d_6">
      <g>
       <use xlink:href="#m6e72bca5bf" x="223.2" y="256.32" style="stroke: #000000; stroke-width: 0.8"/>
      </g>
     </g>
     <g id="text_3">
      <!-- 40 -->
      <g transform="translate(216.8375 270.918437) scale(0.1 -0.1)">
       <defs>
        <path id="DejaVuSans-34" d="M 2419 4116 
L 825 1625 
L 2419 1625 
L 2419 4116 
z
M 2253 4666 
L 3047 4666 
L 3047 1625 
L 3713 1625 
L 3713 1100 
L 3047 1100 
L 3047 0 
L 2419 0 
L 2419 1100 
L 313 1100 
L 313 1709 
L 2253 4666 
z
" transform="scale(0.015625)"/>
       </defs>
       <use xlink:href="#DejaVuSans-34"/>
       <use xlink:href="#DejaVuSans-30" x="63.623047"/>
      </g>
     </g>
    </g>
    <g id="xtick_4">
     <g id="line2d_7">
      <path d="M 288.654545 256.32 
L 288.654545 34.56 
" clip-path="url(#p94ccc76ce1)" style="fill: none; stroke: #b0b0b0; stroke-width: 0.8; stroke-linecap: square"/>
     </g>
     <g id="line2d_8">
      <g>
       <use xlink:href="#m6e72bca5bf" x="288.654545" y="256.32" style="stroke: #000000; stroke-width: 0.8"/>
      </g>
     </g>
     <g id="text_4">
      <!-- 60 -->
      <g transform="translate(282.292045 270.918437) scale(0.1 -0.1)">
       <defs>
        <path id="DejaVuSans-36" d="M 2113 2584 
Q 1688 2584 1439 2293 
Q 1191 2003 1191 1497 
Q 1191 994 1439 701 
Q 1688 409 2113 409 
Q 2538 409 2786 701 
Q 3034 994 3034 1497 
Q 3034 2003 2786 2293 
Q 2538 2584 2113 2584 
z
M 3366 4563 
L 3366 3988 
Q 3128 4100 2886 4159 
Q 2644 4219 2406 4219 
Q 1781 4219 1451 3797 
Q 1122 3375 1075 2522 
Q 1259 2794 1537 2939 
Q 1816 3084 2150 3084 
Q 2853 3084 3261 2657 
Q 3669 2231 3669 1497 
Q 3669 778 3244 343 
Q 2819 -91 2113 -91 
Q 1303 -91 875 529 
Q 447 1150 447 2328 
Q 447 3434 972 4092 
Q 1497 4750 2381 4750 
Q 2619 4750 2861 4703 
Q 3103 4656 3366 4563 
z
" transform="scale(0.015625)"/>
       </defs>
       <use xlink:href="#DejaVuSans-36"/>
       <use xlink:href="#DejaVuSans-30" x="63.623047"/>
      </g>
     </g>
    </g>
    <g id="xtick_5">
     <g id="line2d_9">
      <path d="M 354.109091 256.32 
L 354.109091 34.56 
" clip-path="url(#p94ccc76ce1)" style="fill: none; stroke: #b0b0b0; stroke-width: 0.8; stroke-linecap: square"/>
     </g>
     <g id="line2d_10">
      <g>
       <use xlink:href="#m6e72bca5bf" x="354.109091" y="256.32" style="stroke: #000000; stroke-width: 0.8"/>
      </g>
     </g>
     <g id="text_5">
      <!-- 80 -->
      <g transform="translate(347.746591 270.918437) scale(0.1 -0.1)">
       <defs>
        <path id="DejaVuSans-38" d="M 2034 2216 
Q 1584 2216 1326 1975 
Q 1069 1734 1069 1313 
Q 1069 891 1326 650 
Q 1584 409 2034 409 
Q 2484 409 2743 651 
Q 3003 894 3003 1313 
Q 3003 1734 2745 1975 
Q 2488 2216 2034 2216 
z
M 1403 2484 
Q 997 2584 770 2862 
Q 544 3141 544 3541 
Q 544 4100 942 4425 
Q 1341 4750 2034 4750 
Q 2731 4750 3128 4425 
Q 3525 4100 3525 3541 
Q 3525 3141 3298 2862 
Q 3072 2584 2669 2484 
Q 3125 2378 3379 2068 
Q 3634 1759 3634 1313 
Q 3634 634 3220 271 
Q 2806 -91 2034 -91 
Q 1263 -91 848 271 
Q 434 634 434 1313 
Q 434 1759 690 2068 
Q 947 2378 1403 2484 
z
M 1172 3481 
Q 1172 3119 1398 2916 
Q 1625 2713 2034 2713 
Q 2441 2713 2670 2916 
Q 2900 3119 2900 3481 
Q 2900 3844 2670 4047 
Q 2441 4250 2034 4250 
Q 1625 4250 1398 4047 
Q 1172 3844 1172 3481 
z
" transform="scale(0.015625)"/>
       </defs>
       <use xlink:href="#DejaVuSans-38"/>
       <use xlink:href="#DejaVuSans-30" x="63.623047"/>
      </g>
     </g>
    </g>
    <g id="xtick_6">
     <g id="line2d_11">
      <path d="M 419.563636 256.32 
L 419.563636 34.56 
" clip-path="url(#p94ccc76ce1)" style="fill: none; stroke: #b0b0b0; stroke-width: 0.8; stroke-linecap: square"/>
     </g>
     <g id="line2d_12">
      <g>
       <use xlink:href="#m6e72bca5bf" x="419.563636" y="256.32" style="stroke: #000000; stroke-width: 0.8"/>
      </g>
     </g>
     <g id="text_6">
      <!-- 100 -->
      <g transform="translate(410.019886 270.918437) scale(0.1 -0.1)">
       <defs>
        <path id="DejaVuSans-31" d="M 794 531 
L 1825 531 
L 1825 4091 
L 703 3866 
L 703 4441 
L 1819 4666 
L 2450 4666 
L 2450 531 
L 3481 531 
L 3481 0 
L 794 0 
L 794 531 
z
" transform="scale(0.015625)"/>
       </defs>
       <use xlink:href="#DejaVuSans-31"/>
       <use xlink:href="#DejaVuSans-30" x="63.623047"/>
       <use xlink:href="#DejaVuSans-30" x="127.246094"/>
      </g>
     </g>
    </g>
    <g id="xtick_7">
     <g id="line2d_13">
      <path d="M 485.018182 256.32 
L 485.018182 34.56 
" clip-path="url(#p94ccc76ce1)" style="fill: none; stroke: #b0b0b0; stroke-width: 0.8; stroke-linecap: square"/>
     </g>
     <g id="line2d_14">
      <g>
       <use xlink:href="#m6e72bca5bf" x="485.018182" y="256.32" style="stroke: #000000; stroke-width: 0.8"/>
      </g>
     </g>
     <g id="text_7">
      <!-- 120 -->
      <g transform="translate(475.474432 270.918437) scale(0.1 -0.1)">
       <use xlink:href="#DejaVuSans-31"/>
       <use xlink:href="#DejaVuSans-32" x="63.623047"/>
       <use xlink:href="#DejaVuSans-30" x="127.246094"/>
      </g>
     </g>
    </g>
    <g id="text_8">
     <!-- Epoch -->
     <g transform="translate(279.889062 284.596563) scale(0.1 -0.1)">
      <defs>
       <path id="DejaVuSans-45" d="M 628 4666 
L 3578 4666 
L 3578 4134 
L 1259 4134 
L 1259 2753 
L 3481 2753 
L 3481 2222 
L 1259 2222 
L 1259 531 
L 3634 531 
L 3634 0 
L 628 0 
L 628 4666 
z
" transform="scale(0.015625)"/>
       <path id="DejaVuSans-70" d="M 1159 525 
L 1159 -1331 
L 581 -1331 
L 581 3500 
L 1159 3500 
L 1159 2969 
Q 1341 3281 1617 3432 
Q 1894 3584 2278 3584 
Q 2916 3584 3314 3078 
Q 3713 2572 3713 1747 
Q 3713 922 3314 415 
Q 2916 -91 2278 -91 
Q 1894 -91 1617 61 
Q 1341 213 1159 525 
z
M 3116 1747 
Q 3116 2381 2855 2742 
Q 2594 3103 2138 3103 
Q 1681 3103 1420 2742 
Q 1159 2381 1159 1747 
Q 1159 1113 1420 752 
Q 1681 391 2138 391 
Q 2594 391 2855 752 
Q 3116 1113 3116 1747 
z
" transform="scale(0.015625)"/>
       <path id="DejaVuSans-6f" d="M 1959 3097 
Q 1497 3097 1228 2736 
Q 959 2375 959 1747 
Q 959 1119 1226 758 
Q 1494 397 1959 397 
Q 2419 397 2687 759 
Q 2956 1122 2956 1747 
Q 2956 2369 2687 2733 
Q 2419 3097 1959 3097 
z
M 1959 3584 
Q 2709 3584 3137 3096 
Q 3566 2609 3566 1747 
Q 3566 888 3137 398 
Q 2709 -91 1959 -91 
Q 1206 -91 779 398 
Q 353 888 353 1747 
Q 353 2609 779 3096 
Q 1206 3584 1959 3584 
z
" transform="scale(0.015625)"/>
       <path id="DejaVuSans-63" d="M 3122 3366 
L 3122 2828 
Q 2878 2963 2633 3030 
Q 2388 3097 2138 3097 
Q 1578 3097 1268 2742 
Q 959 2388 959 1747 
Q 959 1106 1268 751 
Q 1578 397 2138 397 
Q 2388 397 2633 464 
Q 2878 531 3122 666 
L 3122 134 
Q 2881 22 2623 -34 
Q 2366 -91 2075 -91 
Q 1284 -91 818 406 
Q 353 903 353 1747 
Q 353 2603 823 3093 
Q 1294 3584 2113 3584 
Q 2378 3584 2631 3529 
Q 2884 3475 3122 3366 
z
" transform="scale(0.015625)"/>
       <path id="DejaVuSans-68" d="M 3513 2113 
L 3513 0 
L 2938 0 
L 2938 2094 
Q 2938 2591 2744 2837 
Q 2550 3084 2163 3084 
Q 1697 3084 1428 2787 
Q 1159 2491 1159 1978 
L 1159 0 
L 581 0 
L 581 4863 
L 1159 4863 
L 1159 2956 
Q 1366 3272 1645 3428 
Q 1925 3584 2291 3584 
Q 2894 3584 3203 3211 
Q 3513 2838 3513 2113 
z
" transform="scale(0.015625)"/>
      </defs>
      <use xlink:href="#DejaVuSans-45"/>
      <use xlink:href="#DejaVuSans-70" x="63.183594"/>
      <use xlink:href="#DejaVuSans-6f" x="126.660156"/>
      <use xlink:href="#DejaVuSans-63" x="187.841797"/>
      <use xlink:href="#DejaVuSans-68" x="242.822266"/>
     </g>
    </g>
   </g>
   <g id="matplotlib.axis_2">
    <g id="ytick_1">
     <g id="line2d_15">
      <path d="M 72 242.824395 
L 518.4 242.824395 
" clip-path="url(#p94ccc76ce1)" style="fill: none; stroke: #b0b0b0; stroke-width: 0.8; stroke-linecap: square"/>
     </g>
     <g id="line2d_16">
      <defs>
       <path id="m5c25b69593" d="M 0 0 
L -3.5 0 
" style="stroke: #000000; stroke-width: 0.8"/>
      </defs>
      <g>
       <use xlink:href="#m5c25b69593" x="72" y="242.824395" style="stroke: #000000; stroke-width: 0.8"/>
      </g>
     </g>
     <g id="text_9">
      <!-- 0.035 -->
      <g transform="translate(36.371875 246.623614) scale(0.1 -0.1)">
       <defs>
        <path id="DejaVuSans-2e" d="M 684 794 
L 1344 794 
L 1344 0 
L 684 0 
L 684 794 
z
" transform="scale(0.015625)"/>
        <path id="DejaVuSans-33" d="M 2597 2516 
Q 3050 2419 3304 2112 
Q 3559 1806 3559 1356 
Q 3559 666 3084 287 
Q 2609 -91 1734 -91 
Q 1441 -91 1130 -33 
Q 819 25 488 141 
L 488 750 
Q 750 597 1062 519 
Q 1375 441 1716 441 
Q 2309 441 2620 675 
Q 2931 909 2931 1356 
Q 2931 1769 2642 2001 
Q 2353 2234 1838 2234 
L 1294 2234 
L 1294 2753 
L 1863 2753 
Q 2328 2753 2575 2939 
Q 2822 3125 2822 3475 
Q 2822 3834 2567 4026 
Q 2313 4219 1838 4219 
Q 1578 4219 1281 4162 
Q 984 4106 628 3988 
L 628 4550 
Q 988 4650 1302 4700 
Q 1616 4750 1894 4750 
Q 2613 4750 3031 4423 
Q 3450 4097 3450 3541 
Q 3450 3153 3228 2886 
Q 3006 2619 2597 2516 
z
" transform="scale(0.015625)"/>
        <path id="DejaVuSans-35" d="M 691 4666 
L 3169 4666 
L 3169 4134 
L 1269 4134 
L 1269 2991 
Q 1406 3038 1543 3061 
Q 1681 3084 1819 3084 
Q 2600 3084 3056 2656 
Q 3513 2228 3513 1497 
Q 3513 744 3044 326 
Q 2575 -91 1722 -91 
Q 1428 -91 1123 -41 
Q 819 9 494 109 
L 494 744 
Q 775 591 1075 516 
Q 1375 441 1709 441 
Q 2250 441 2565 725 
Q 2881 1009 2881 1497 
Q 2881 1984 2565 2268 
Q 2250 2553 1709 2553 
Q 1456 2553 1204 2497 
Q 953 2441 691 2322 
L 691 4666 
z
" transform="scale(0.015625)"/>
       </defs>
       <use xlink:href="#DejaVuSans-30"/>
       <use xlink:href="#DejaVuSans-2e" x="63.623047"/>
       <use xlink:href="#DejaVuSans-30" x="95.410156"/>
       <use xlink:href="#DejaVuSans-33" x="159.033203"/>
       <use xlink:href="#DejaVuSans-35" x="222.65625"/>
      </g>
     </g>
    </g>
    <g id="ytick_2">
     <g id="line2d_17">
      <path d="M 72 207.491801 
L 518.4 207.491801 
" clip-path="url(#p94ccc76ce1)" style="fill: none; stroke: #b0b0b0; stroke-width: 0.8; stroke-linecap: square"/>
     </g>
     <g id="line2d_18">
      <g>
       <use xlink:href="#m5c25b69593" x="72" y="207.491801" style="stroke: #000000; stroke-width: 0.8"/>
      </g>
     </g>
     <g id="text_10">
      <!-- 0.040 -->
      <g transform="translate(36.371875 211.29102) scale(0.1 -0.1)">
       <use xlink:href="#DejaVuSans-30"/>
       <use xlink:href="#DejaVuSans-2e" x="63.623047"/>
       <use xlink:href="#DejaVuSans-30" x="95.410156"/>
       <use xlink:href="#DejaVuSans-34" x="159.033203"/>
       <use xlink:href="#DejaVuSans-30" x="222.65625"/>
      </g>
     </g>
    </g>
    <g id="ytick_3">
     <g id="line2d_19">
      <path d="M 72 172.159207 
L 518.4 172.159207 
" clip-path="url(#p94ccc76ce1)" style="fill: none; stroke: #b0b0b0; stroke-width: 0.8; stroke-linecap: square"/>
     </g>
     <g id="line2d_20">
      <g>
       <use xlink:href="#m5c25b69593" x="72" y="172.159207" style="stroke: #000000; stroke-width: 0.8"/>
      </g>
     </g>
     <g id="text_11">
      <!-- 0.045 -->
      <g transform="translate(36.371875 175.958425) scale(0.1 -0.1)">
       <use xlink:href="#DejaVuSans-30"/>
       <use xlink:href="#DejaVuSans-2e" x="63.623047"/>
       <use xlink:href="#DejaVuSans-30" x="95.410156"/>
       <use xlink:href="#DejaVuSans-34" x="159.033203"/>
       <use xlink:href="#DejaVuSans-35" x="222.65625"/>
      </g>
     </g>
    </g>
    <g id="ytick_4">
     <g id="line2d_21">
      <path d="M 72 136.826612 
L 518.4 136.826612 
" clip-path="url(#p94ccc76ce1)" style="fill: none; stroke: #b0b0b0; stroke-width: 0.8; stroke-linecap: square"/>
     </g>
     <g id="line2d_22">
      <g>
       <use xlink:href="#m5c25b69593" x="72" y="136.826612" style="stroke: #000000; stroke-width: 0.8"/>
      </g>
     </g>
     <g id="text_12">
      <!-- 0.050 -->
      <g transform="translate(36.371875 140.625831) scale(0.1 -0.1)">
       <use xlink:href="#DejaVuSans-30"/>
       <use xlink:href="#DejaVuSans-2e" x="63.623047"/>
       <use xlink:href="#DejaVuSans-30" x="95.410156"/>
       <use xlink:href="#DejaVuSans-35" x="159.033203"/>
       <use xlink:href="#DejaVuSans-30" x="222.65625"/>
      </g>
     </g>
    </g>
    <g id="ytick_5">
     <g id="line2d_23">
      <path d="M 72 101.494018 
L 518.4 101.494018 
" clip-path="url(#p94ccc76ce1)" style="fill: none; stroke: #b0b0b0; stroke-width: 0.8; stroke-linecap: square"/>
     </g>
     <g id="line2d_24">
      <g>
       <use xlink:href="#m5c25b69593" x="72" y="101.494018" style="stroke: #000000; stroke-width: 0.8"/>
      </g>
     </g>
     <g id="text_13">
      <!-- 0.055 -->
      <g transform="translate(36.371875 105.293237) scale(0.1 -0.1)">
       <use xlink:href="#DejaVuSans-30"/>
       <use xlink:href="#DejaVuSans-2e" x="63.623047"/>
       <use xlink:href="#DejaVuSans-30" x="95.410156"/>
       <use xlink:href="#DejaVuSans-35" x="159.033203"/>
       <use xlink:href="#DejaVuSans-35" x="222.65625"/>
      </g>
     </g>
    </g>
    <g id="ytick_6">
     <g id="line2d_25">
      <path d="M 72 66.161424 
L 518.4 66.161424 
" clip-path="url(#p94ccc76ce1)" style="fill: none; stroke: #b0b0b0; stroke-width: 0.8; stroke-linecap: square"/>
     </g>
     <g id="line2d_26">
      <g>
       <use xlink:href="#m5c25b69593" x="72" y="66.161424" style="stroke: #000000; stroke-width: 0.8"/>
      </g>
     </g>
     <g id="text_14">
      <!-- 0.060 -->
      <g transform="translate(36.371875 69.960643) scale(0.1 -0.1)">
       <use xlink:href="#DejaVuSans-30"/>
       <use xlink:href="#DejaVuSans-2e" x="63.623047"/>
       <use xlink:href="#DejaVuSans-30" x="95.410156"/>
       <use xlink:href="#DejaVuSans-36" x="159.033203"/>
       <use xlink:href="#DejaVuSans-30" x="222.65625"/>
      </g>
     </g>
    </g>
    <g id="text_15">
     <!-- Validation MSE -->
     <g transform="translate(30.292188 182.367344) rotate(-90) scale(0.1 -0.1)">
      <defs>
       <path id="DejaVuSans-56" d="M 1831 0 
L 50 4666 
L 709 4666 
L 2188 738 
L 3669 4666 
L 4325 4666 
L 2547 0 
L 1831 0 
z
" transform="scale(0.015625)"/>
       <path id="DejaVuSans-61" d="M 2194 1759 
Q 1497 1759 1228 1600 
Q 959 1441 959 1056 
Q 959 750 1161 570 
Q 1363 391 1709 391 
Q 2188 391 2477 730 
Q 2766 1069 2766 1631 
L 2766 1759 
L 2194 1759 
z
M 3341 1997 
L 3341 0 
L 2766 0 
L 2766 531 
Q 2569 213 2275 61 
Q 1981 -91 1556 -91 
Q 1019 -91 701 211 
Q 384 513 384 1019 
Q 384 1609 779 1909 
Q 1175 2209 1959 2209 
L 2766 2209 
L 2766 2266 
Q 2766 2663 2505 2880 
Q 2244 3097 1772 3097 
Q 1472 3097 1187 3025 
Q 903 2953 641 2809 
L 641 3341 
Q 956 3463 1253 3523 
Q 1550 3584 1831 3584 
Q 2591 3584 2966 3190 
Q 3341 2797 3341 1997 
z
" transform="scale(0.015625)"/>
       <path id="DejaVuSans-6c" d="M 603 4863 
L 1178 4863 
L 1178 0 
L 603 0 
L 603 4863 
z
" transform="scale(0.015625)"/>
       <path id="DejaVuSans-69" d="M 603 3500 
L 1178 3500 
L 1178 0 
L 603 0 
L 603 3500 
z
M 603 4863 
L 1178 4863 
L 1178 4134 
L 603 4134 
L 603 4863 
z
" transform="scale(0.015625)"/>
       <path id="DejaVuSans-64" d="M 2906 2969 
L 2906 4863 
L 3481 4863 
L 3481 0 
L 2906 0 
L 2906 525 
Q 2725 213 2448 61 
Q 2172 -91 1784 -91 
Q 1150 -91 751 415 
Q 353 922 353 1747 
Q 353 2572 751 3078 
Q 1150 3584 1784 3584 
Q 2172 3584 2448 3432 
Q 2725 3281 2906 2969 
z
M 947 1747 
Q 947 1113 1208 752 
Q 1469 391 1925 391 
Q 2381 391 2643 752 
Q 2906 1113 2906 1747 
Q 2906 2381 2643 2742 
Q 2381 3103 1925 3103 
Q 1469 3103 1208 2742 
Q 947 2381 947 1747 
z
" transform="scale(0.015625)"/>
       <path id="DejaVuSans-74" d="M 1172 4494 
L 1172 3500 
L 2356 3500 
L 2356 3053 
L 1172 3053 
L 1172 1153 
Q 1172 725 1289 603 
Q 1406 481 1766 481 
L 2356 481 
L 2356 0 
L 1766 0 
Q 1100 0 847 248 
Q 594 497 594 1153 
L 594 3053 
L 172 3053 
L 172 3500 
L 594 3500 
L 594 4494 
L 1172 4494 
z
" transform="scale(0.015625)"/>
       <path id="DejaVuSans-6e" d="M 3513 2113 
L 3513 0 
L 2938 0 
L 2938 2094 
Q 2938 2591 2744 2837 
Q 2550 3084 2163 3084 
Q 1697 3084 1428 2787 
Q 1159 2491 1159 1978 
L 1159 0 
L 581 0 
L 581 3500 
L 1159 3500 
L 1159 2956 
Q 1366 3272 1645 3428 
Q 1925 3584 2291 3584 
Q 2894 3584 3203 3211 
Q 3513 2838 3513 2113 
z
" transform="scale(0.015625)"/>
       <path id="DejaVuSans-20" transform="scale(0.015625)"/>
       <path id="DejaVuSans-4d" d="M 628 4666 
L 1569 4666 
L 2759 1491 
L 3956 4666 
L 4897 4666 
L 4897 0 
L 4281 0 
L 4281 4097 
L 3078 897 
L 2444 897 
L 1241 4097 
L 1241 0 
L 628 0 
L 628 4666 
z
" transform="scale(0.015625)"/>
       <path id="DejaVuSans-53" d="M 3425 4513 
L 3425 3897 
Q 3066 4069 2747 4153 
Q 2428 4238 2131 4238 
Q 1616 4238 1336 4038 
Q 1056 3838 1056 3469 
Q 1056 3159 1242 3001 
Q 1428 2844 1947 2747 
L 2328 2669 
Q 3034 2534 3370 2195 
Q 3706 1856 3706 1288 
Q 3706 609 3251 259 
Q 2797 -91 1919 -91 
Q 1588 -91 1214 -16 
Q 841 59 441 206 
L 441 856 
Q 825 641 1194 531 
Q 1563 422 1919 422 
Q 2459 422 2753 634 
Q 3047 847 3047 1241 
Q 3047 1584 2836 1778 
Q 2625 1972 2144 2069 
L 1759 2144 
Q 1053 2284 737 2584 
Q 422 2884 422 3419 
Q 422 4038 858 4394 
Q 1294 4750 2059 4750 
Q 2388 4750 2728 4690 
Q 3069 4631 3425 4513 
z
" transform="scale(0.015625)"/>
      </defs>
      <use xlink:href="#DejaVuSans-56"/>
      <use xlink:href="#DejaVuSans-61" x="60.658203"/>
      <use xlink:href="#DejaVuSans-6c" x="121.9375"/>
      <use xlink:href="#DejaVuSans-69" x="149.720703"/>
      <use xlink:href="#DejaVuSans-64" x="177.503906"/>
      <use xlink:href="#DejaVuSans-61" x="240.980469"/>
      <use xlink:href="#DejaVuSans-74" x="302.259766"/>
      <use xlink:href="#DejaVuSans-69" x="341.46875"/>
      <use xlink:href="#DejaVuSans-6f" x="369.251953"/>
      <use xlink:href="#DejaVuSans-6e" x="430.433594"/>
      <use xlink:href="#DejaVuSans-20" x="493.8125"/>
      <use xlink:href="#DejaVuSans-4d" x="525.599609"/>
      <use xlink:href="#DejaVuSans-53" x="611.878906"/>
      <use xlink:href="#DejaVuSans-45" x="675.355469"/>
     </g>
    </g>
   </g>
   <g id="line2d_27">
    <path d="M 92.290909 69.333889 
L 95.563636 79.345567 
L 98.836364 117.525556 
L 102.109091 84.534157 
L 105.381818 122.606242 
L 108.654545 136.655859 
L 111.927273 146.993317 
L 115.2 142.748099 
L 118.472727 144.828417 
L 121.745455 135.829531 
L 125.018182 148.516645 
L 128.290909 148.804381 
L 131.563636 160.596147 
L 134.836364 143.971434 
L 138.109091 160.013317 
L 141.381818 160.947043 
L 144.654545 167.340969 
L 147.927273 158.674372 
L 151.2 167.215817 
L 154.472727 159.897096 
L 157.745455 175.006786 
L 161.018182 178.037468 
L 164.290909 172.809212 
L 167.563636 177.57769 
L 170.836364 175.537967 
L 174.109091 169.381369 
L 177.381818 179.367794 
L 180.654545 184.335176 
L 183.927273 185.40218 
L 187.2 189.030276 
L 190.472727 183.599572 
L 193.745455 184.952189 
L 197.018182 183.593332 
L 200.290909 184.426435 
L 203.563636 185.49143 
L 206.836364 187.728535 
L 210.109091 183.289976 
L 213.381818 185.885734 
L 216.654545 185.115409 
L 219.927273 190.918807 
L 223.2 184.530475 
L 226.472727 186.241293 
L 229.745455 188.27628 
L 233.018182 189.91297 
L 236.290909 195.531377 
L 239.563636 194.37564 
L 242.836364 187.295295 
L 246.109091 189.831367 
L 249.381818 195.340291 
L 252.654545 192.088293 
L 255.927273 181.548669 
L 259.2 186.239718 
L 262.472727 192.261798 
L 265.745455 191.473139 
L 269.018182 190.586129 
L 272.290909 193.696828 
L 275.563636 186.185701 
L 278.836364 193.325478 
L 282.109091 187.946071 
L 285.381818 191.608025 
L 288.654545 190.112715 
L 291.927273 186.258056 
L 295.2 194.796676 
L 298.472727 195.628279 
L 301.745455 191.514651 
L 305.018182 189.22849 
L 308.290909 190.170023 
L 311.563636 189.581775 
L 314.836364 193.280508 
L 318.109091 194.581156 
L 321.381818 197.163294 
L 324.654545 195.409803 
L 327.927273 191.566116 
L 331.2 190.73586 
L 334.472727 196.18904 
L 337.745455 198.24915 
L 341.018182 194.745007 
L 344.290909 194.202379 
L 347.563636 198.985319 
L 350.836364 198.654582 
L 354.109091 196.81329 
L 357.381818 200.998835 
L 360.654545 198.06655 
L 363.927273 197.427821 
L 367.2 201.618119 
L 370.472727 194.713374 
L 373.745455 200.472713 
L 377.018182 197.642342 
L 380.290909 200.004583 
L 383.563636 204.850425 
L 386.836364 196.472068 
L 390.109091 201.677064 
L 393.381818 202.441507 
L 396.654545 198.507941 
L 399.927273 201.008549 
L 403.2 200.685035 
L 406.472727 196.288351 
L 409.745455 198.82332 
L 413.018182 202.188133 
L 416.290909 202.833183 
L 419.563636 198.580946 
L 422.836364 199.032427 
L 426.109091 202.09146 
L 429.381818 204.192887 
L 432.654545 206.130249 
L 435.927273 205.978441 
L 439.2 200.380629 
L 442.472727 202.015342 
L 445.745455 204.418028 
L 449.018182 205.11538 
L 452.290909 202.490716 
L 455.563636 202.618109 
L 458.836364 201.958988 
L 462.109091 203.119206 
L 465.381818 197.255534 
L 468.654545 201.580873 
L 471.927273 202.794527 
L 475.2 200.30712 
L 478.472727 201.272152 
L 481.745455 200.385996 
L 485.018182 202.829379 
L 488.290909 203.619035 
L 491.563636 203.55991 
L 494.836364 202.119945 
L 498.109091 200.081565 
" clip-path="url(#p94ccc76ce1)" style="fill: none; stroke: #1f77b4; stroke-width: 1.5; stroke-linecap: square"/>
   </g>
   <g id="line2d_28">
    <path d="M 92.290909 44.64 
L 95.563636 91.37978 
L 98.836364 114.862249 
L 102.109091 107.760905 
L 105.381818 143.065725 
L 108.654545 148.258861 
L 111.927273 151.321763 
L 115.2 140.54633 
L 118.472727 151.299005 
L 121.745455 160.747667 
L 125.018182 162.556784 
L 128.290909 163.937714 
L 131.563636 169.011647 
L 134.836364 162.751364 
L 138.109091 160.438194 
L 141.381818 173.465831 
L 144.654545 178.817184 
L 147.927273 167.39067 
L 151.2 163.520819 
L 154.472727 175.553185 
L 157.745455 175.398863 
L 161.018182 173.847098 
L 164.290909 179.566786 
L 167.563636 174.065487 
L 170.836364 182.624709 
L 174.109091 173.321698 
L 177.381818 169.758569 
L 180.654545 183.417792 
L 183.927273 177.273611 
L 187.2 184.488299 
L 190.472727 189.536935 
L 193.745455 184.096669 
L 197.018182 179.823721 
L 200.290909 192.749991 
L 203.563636 193.563637 
L 206.836364 193.521033 
L 210.109091 193.41529 
L 213.381818 190.249115 
L 216.654545 195.564928 
L 219.927273 200.299335 
L 223.2 195.845028 
L 226.472727 201.222105 
L 229.745455 193.2498 
L 233.018182 195.556876 
L 236.290909 190.517167 
L 239.563636 200.314276 
L 242.836364 192.69514 
L 246.109091 194.491621 
L 249.381818 196.488403 
L 252.654545 195.08421 
L 255.927273 196.34723 
L 259.2 197.279626 
L 262.472727 202.343486 
L 265.745455 200.848705 
L 269.018182 205.648206 
L 272.290909 205.201593 
L 275.563636 200.774907 
L 278.836364 202.972895 
L 282.109091 200.684258 
L 285.381818 203.28201 
L 288.654545 197.866869 
L 291.927273 195.947851 
L 295.2 199.992063 
L 298.472727 203.764167 
L 301.745455 200.890007 
L 305.018182 206.055826 
L 308.290909 209.777656 
L 311.563636 207.000206 
L 314.836364 208.815199 
L 318.109091 207.152791 
L 321.381818 203.347653 
L 324.654545 204.322811 
L 327.927273 201.23731 
L 331.2 204.688829 
L 334.472727 201.565661 
L 337.745455 209.196647 
L 341.018182 203.613327 
L 344.290909 203.579108 
L 347.563636 207.344988 
L 350.836364 207.069589 
L 354.109091 209.467887 
L 357.381818 211.811238 
L 360.654545 207.153894 
L 363.927273 204.916322 
L 367.2 210.92825 
L 370.472727 208.048381 
L 373.745455 209.474074 
L 377.018182 209.81663 
L 380.290909 208.440064 
L 383.563636 208.004558 
L 386.836364 206.446291 
L 390.109091 207.873701 
L 393.381818 205.976411 
L 396.654545 206.945453 
L 399.927273 208.640852 
L 403.2 204.445166 
L 406.472727 208.550513 
L 409.745455 206.250751 
L 413.018182 204.967642 
L 416.290909 212.576825 
L 419.563636 208.962682 
L 422.836364 213.048544 
L 426.109091 213.474186 
L 429.381818 211.134885 
L 432.654545 209.445908 
L 435.927273 208.565785 
L 439.2 209.009787 
L 442.472727 208.657504 
L 445.745455 209.10069 
L 449.018182 209.557928 
L 452.290909 206.981783 
L 455.563636 208.833474 
L 458.836364 206.66032 
L 462.109091 207.235658 
L 465.381818 207.474295 
L 468.654545 204.31208 
L 471.927273 205.808715 
L 475.2 202.390474 
L 478.472727 205.750449 
L 481.745455 203.627896 
L 485.018182 209.846095 
L 488.290909 212.016061 
L 491.563636 210.280882 
" clip-path="url(#p94ccc76ce1)" style="fill: none; stroke: #ff7f0e; stroke-width: 1.5; stroke-linecap: square"/>
   </g>
   <g id="line2d_29">
    <path d="M 92.290909 120.279982 
L 95.563636 106.573495 
L 98.836364 150.054873 
L 102.109091 138.839266 
L 105.381818 161.856885 
L 108.654545 150.109196 
L 111.927273 173.436099 
L 115.2 161.683631 
L 118.472727 179.388137 
L 121.745455 165.958821 
L 125.018182 184.870709 
L 128.290909 179.53102 
L 131.563636 192.762908 
L 134.836364 182.28456 
L 138.109091 179.657772 
L 141.381818 197.173866 
L 144.654545 192.263024 
L 147.927273 190.758482 
L 151.2 179.33029 
L 154.472727 179.726654 
L 157.745455 193.998159 
L 161.018182 189.57346 
L 164.290909 195.390209 
L 167.563636 203.205536 
L 170.836364 206.954324 
L 174.109091 195.919562 
L 177.381818 200.814505 
L 180.654545 207.649414 
L 183.927273 198.875654 
L 187.2 200.103258 
L 190.472727 200.230497 
L 193.745455 198.605084 
L 197.018182 203.953432 
L 200.290909 204.31436 
L 203.563636 202.15442 
L 206.836364 199.586706 
L 210.109091 200.00178 
L 213.381818 208.295827 
L 216.654545 205.5226 
L 219.927273 207.680662 
L 223.2 201.260912 
L 226.472727 212.480164 
L 229.745455 212.768631 
L 233.018182 211.0543 
L 236.290909 211.22464 
L 239.563636 210.199903 
L 242.836364 213.645939 
L 246.109091 213.692767 
L 249.381818 209.844268 
L 252.654545 208.1474 
L 255.927273 204.162147 
L 259.2 207.187192 
L 262.472727 208.405997 
L 265.745455 208.675694 
L 269.018182 207.773961 
L 272.290909 210.116328 
L 275.563636 210.042473 
L 278.836364 208.131866 
L 282.109091 214.462375 
L 285.381818 214.513915 
L 288.654545 209.056403 
L 291.927273 213.603598 
L 295.2 216.42877 
L 298.472727 215.259767 
L 301.745455 210.091395 
L 305.018182 215.94022 
L 308.290909 218.375713 
L 311.563636 214.707087 
L 314.836364 218.047926 
L 318.109091 215.596937 
L 321.381818 221.29682 
L 324.654545 214.49188 
L 327.927273 214.839002 
L 331.2 218.59287 
L 334.472727 218.653753 
L 337.745455 214.62964 
L 341.018182 214.720783 
L 344.290909 213.101121 
L 347.563636 213.954366 
L 350.836364 214.77825 
L 354.109091 215.346158 
L 357.381818 212.058801 
L 360.654545 215.480225 
L 363.927273 213.739023 
L 367.2 214.480865 
L 370.472727 216.154958 
L 373.745455 218.16688 
L 377.018182 216.666628 
L 380.290909 216.615824 
L 383.563636 214.557074 
L 386.836364 213.712391 
" clip-path="url(#p94ccc76ce1)" style="fill: none; stroke: #2ca02c; stroke-width: 1.5; stroke-linecap: square"/>
   </g>
   <g id="line2d_30">
    <path d="M 92.290909 105.055987 
L 95.563636 111.259934 
L 98.836364 154.410529 
L 102.109091 159.83628 
L 105.381818 169.165728 
L 108.654545 178.107457 
L 111.927273 165.848213 
L 115.2 171.617664 
L 118.472727 163.690824 
L 121.745455 189.04787 
L 125.018182 178.643804 
L 128.290909 180.722841 
L 131.563636 188.388425 
L 134.836364 187.52893 
L 138.109091 187.009797 
L 141.381818 197.22669 
L 144.654545 198.099685 
L 147.927273 202.603777 
L 151.2 195.76879 
L 154.472727 212.024983 
L 157.745455 202.726687 
L 161.018182 206.063823 
L 164.290909 212.062494 
L 167.563636 212.901015 
L 170.836364 203.812772 
L 174.109091 209.250955 
L 177.381818 213.892659 
L 180.654545 208.721858 
L 183.927273 214.814774 
L 187.2 211.820353 
L 190.472727 208.872464 
L 193.745455 215.241943 
L 197.018182 215.29379 
L 200.290909 214.520375 
L 203.563636 209.058417 
L 206.836364 212.393366 
L 210.109091 215.838661 
L 213.381818 213.704233 
L 216.654545 218.759234 
L 219.927273 218.001051 
L 223.2 218.438118 
L 226.472727 217.683855 
L 229.745455 225.310103 
L 233.018182 219.644921 
L 236.290909 220.425133 
L 239.563636 219.494042 
L 242.836364 220.638849 
L 246.109091 221.521778 
L 249.381818 214.909153 
L 252.654545 222.230076 
L 255.927273 222.765199 
L 259.2 222.523286 
L 262.472727 220.564718 
L 265.745455 222.892506 
L 269.018182 220.710772 
L 272.290909 224.924906 
L 275.563636 223.509125 
L 278.836364 223.740683 
L 282.109091 225.023316 
L 285.381818 226.624816 
L 288.654545 230.791872 
L 291.927273 226.022386 
L 295.2 223.351816 
L 298.472727 223.481173 
L 301.745455 223.192842 
L 305.018182 221.422146 
L 308.290909 227.142546 
L 311.563636 223.67903 
L 314.836364 228.915424 
L 318.109091 225.063118 
L 321.381818 226.079684 
L 324.654545 222.684605 
L 327.927273 232.04808 
L 331.2 227.11416 
L 334.472727 225.300502 
L 337.745455 229.99888 
L 341.018182 229.295135 
L 344.290909 227.302011 
L 347.563636 233.477561 
L 350.836364 228.303493 
L 354.109091 228.997407 
L 357.381818 233.041565 
L 360.654545 230.329118 
L 363.927273 227.812173 
L 367.2 229.624006 
L 370.472727 227.195283 
L 373.745455 232.323461 
L 377.018182 226.496268 
L 380.290909 228.519511 
L 383.563636 228.498258 
L 386.836364 231.246448 
L 390.109091 228.949009 
L 393.381818 228.548011 
L 396.654545 229.121967 
L 399.927273 224.347088 
L 403.2 228.928989 
L 406.472727 228.249025 
L 409.745455 229.712827 
L 413.018182 229.736092 
" clip-path="url(#p94ccc76ce1)" style="fill: none; stroke: #d62728; stroke-width: 1.5; stroke-linecap: square"/>
   </g>
   <g id="line2d_31">
    <path d="M 92.290909 104.773281 
L 95.563636 127.056254 
L 98.836364 164.746136 
L 102.109091 140.477058 
L 105.381818 153.495038 
L 108.654545 156.947437 
L 111.927273 158.703506 
L 115.2 170.203606 
L 118.472727 173.225612 
L 121.745455 162.003896 
L 125.018182 182.9037 
L 128.290909 180.187433 
L 131.563636 184.846025 
L 134.836364 187.359947 
L 138.109091 188.657969 
L 141.381818 192.366382 
L 144.654545 195.322179 
L 147.927273 190.087675 
L 151.2 189.605937 
L 154.472727 195.881615 
L 157.745455 198.487098 
L 161.018182 202.147169 
L 164.290909 198.713766 
L 167.563636 208.121688 
L 170.836364 201.948932 
L 174.109091 208.091006 
L 177.381818 197.716554 
L 180.654545 197.062382 
L 183.927273 207.880875 
L 187.2 211.905175 
L 190.472727 213.717891 
L 193.745455 212.526506 
L 197.018182 207.751718 
L 200.290909 205.190486 
L 203.563636 211.10913 
L 206.836364 215.59391 
L 210.109091 215.336864 
L 213.381818 205.714616 
L 216.654545 207.191461 
L 219.927273 210.258532 
L 223.2 211.628411 
L 226.472727 214.332985 
L 229.745455 217.167528 
L 233.018182 220.789719 
L 236.290909 219.741304 
L 239.563636 221.34993 
L 242.836364 217.884228 
L 246.109091 221.874976 
L 249.381818 217.318652 
L 252.654545 217.747996 
L 255.927273 220.908273 
L 259.2 222.875683 
L 262.472727 220.542113 
L 265.745455 227.81598 
L 269.018182 226.137432 
L 272.290909 222.279977 
L 275.563636 219.8082 
L 278.836364 226.111187 
L 282.109091 224.298795 
L 285.381818 229.448606 
L 288.654545 228.276763 
L 291.927273 222.266391 
L 295.2 223.410622 
L 298.472727 229.708864 
L 301.745455 228.165682 
L 305.018182 226.565146 
L 308.290909 229.929276 
L 311.563636 230.275663 
L 314.836364 228.49643 
L 318.109091 225.283619 
L 321.381818 223.632486 
L 324.654545 230.34836 
L 327.927273 230.627996 
L 331.2 233.278454 
L 334.472727 228.505671 
L 337.745455 231.498661 
L 341.018182 227.672613 
L 344.290909 228.30455 
L 347.563636 232.87431 
L 350.836364 228.890608 
L 354.109091 228.502699 
L 357.381818 228.793266 
L 360.654545 228.004701 
L 363.927273 227.774856 
L 367.2 228.532745 
L 370.472727 227.647644 
L 373.745455 225.609132 
L 377.018182 229.456448 
L 380.290909 225.486856 
L 383.563636 223.610709 
L 386.836364 225.605874 
L 390.109091 228.381892 
L 393.381818 224.931835 
L 396.654545 226.204498 
" clip-path="url(#p94ccc76ce1)" style="fill: none; stroke: #9467bd; stroke-width: 1.5; stroke-linecap: square"/>
   </g>
   <g id="line2d_32">
    <path d="M 92.290909 113.656608 
L 95.563636 74.091878 
L 98.836364 175.828357 
L 102.109091 148.148619 
L 105.381818 165.515987 
L 108.654545 167.069304 
L 111.927273 184.066985 
L 115.2 179.103371 
L 118.472727 188.478549 
L 121.745455 184.925673 
L 125.018182 184.672443 
L 128.290909 193.586003 
L 131.563636 197.585785 
L 134.836364 203.545244 
L 138.109091 204.360841 
L 141.381818 210.853028 
L 144.654545 210.665456 
L 147.927273 207.736225 
L 151.2 205.314948 
L 154.472727 213.798453 
L 157.745455 210.268338 
L 161.018182 212.377139 
L 164.290909 217.545905 
L 167.563636 215.944599 
L 170.836364 218.422697 
L 174.109091 216.865343 
L 177.381818 213.171058 
L 180.654545 221.471473 
L 183.927273 214.79238 
L 187.2 214.914607 
L 190.472727 223.391756 
L 193.745455 218.143791 
L 197.018182 218.562153 
L 200.290909 226.542455 
L 203.563636 226.139394 
L 206.836364 227.287776 
L 210.109091 225.093834 
L 213.381818 226.659073 
L 216.654545 227.164617 
L 219.927273 229.105375 
L 223.2 226.78405 
L 226.472727 233.56295 
L 229.745455 230.896969 
L 233.018182 232.402148 
L 236.290909 231.731993 
L 239.563636 232.145442 
L 242.836364 229.908655 
L 246.109091 232.563349 
L 249.381818 233.520377 
L 252.654545 236.048925 
L 255.927273 234.623426 
L 259.2 234.147958 
L 262.472727 237.498294 
L 265.745455 234.17722 
L 269.018182 238.213212 
L 272.290909 240.867721 
L 275.563636 234.157367 
L 278.836364 235.362852 
L 282.109091 238.924902 
L 285.381818 238.046454 
L 288.654545 237.100771 
L 291.927273 237.635465 
L 295.2 236.538609 
L 298.472727 237.331859 
L 301.745455 235.762531 
L 305.018182 239.124155 
L 308.290909 238.740885 
L 311.563636 242.211157 
L 314.836364 237.937977 
L 318.109091 242.124535 
L 321.381818 240.899458 
L 324.654545 243.484473 
L 327.927273 238.421703 
L 331.2 240.144368 
L 334.472727 237.904184 
L 337.745455 243.847616 
L 341.018182 236.683731 
L 344.290909 237.008115 
L 347.563636 236.013692 
L 350.836364 237.92847 
L 354.109091 239.402298 
L 357.381818 241.342231 
L 360.654545 242.07926 
L 363.927273 240.150699 
L 367.2 245.950788 
L 370.472727 243.996274 
L 373.745455 243.488132 
L 377.018182 242.092778 
L 380.290909 240.694158 
L 383.563636 240.651947 
L 386.836364 240.086166 
L 390.109091 241.667839 
L 393.381818 243.935305 
L 396.654545 242.331223 
L 399.927273 246.24 
L 403.2 241.653838 
L 406.472727 242.072258 
L 409.745455 242.129859 
L 413.018182 240.256124 
L 416.290909 242.680105 
L 419.563636 240.293323 
L 422.836364 241.659433 
L 426.109091 243.559909 
L 429.381818 240.461081 
L 432.654545 240.317316 
L 435.927273 238.239688 
L 439.2 242.222488 
L 442.472727 243.364612 
L 445.745455 240.413569 
L 449.018182 242.513351 
L 452.290909 245.119807 
L 455.563636 245.180746 
L 458.836364 245.103145 
L 462.109091 243.162478 
L 465.381818 244.416085 
" clip-path="url(#p94ccc76ce1)" style="fill: none; stroke: #8c564b; stroke-width: 1.5; stroke-linecap: square"/>
   </g>
   <g id="patch_3">
    <path d="M 72 256.32 
L 72 34.56 
" style="fill: none; stroke: #000000; stroke-width: 0.8; stroke-linejoin: miter; stroke-linecap: square"/>
   </g>
   <g id="patch_4">
    <path d="M 518.4 256.32 
L 518.4 34.56 
" style="fill: none; stroke: #000000; stroke-width: 0.8; stroke-linejoin: miter; stroke-linecap: square"/>
   </g>
   <g id="patch_5">
    <path d="M 72 256.32 
L 518.4 256.32 
" style="fill: none; stroke: #000000; stroke-width: 0.8; stroke-linejoin: miter; stroke-linecap: square"/>
   </g>
   <g id="patch_6">
    <path d="M 72 34.56 
L 518.4 34.56 
" style="fill: none; stroke: #000000; stroke-width: 0.8; stroke-linejoin: miter; stroke-linecap: square"/>
   </g>
   <g id="legend_1">
    <g id="patch_7">
     <path d="M 262.28125 146.419375 
L 511.4 146.419375 
Q 513.4 146.419375 513.4 144.419375 
L 513.4 41.56 
Q 513.4 39.56 511.4 39.56 
L 262.28125 39.56 
Q 260.28125 39.56 260.28125 41.56 
L 260.28125 144.419375 
Q 260.28125 146.419375 262.28125 146.419375 
z
" style="fill: #ffffff; opacity: 0.8; stroke: #cccccc; stroke-linejoin: miter"/>
    </g>
    <g id="text_16">
     <!-- used metadata -->
     <g transform="translate(348.99375 51.158437) scale(0.1 -0.1)">
      <defs>
       <path id="DejaVuSans-75" d="M 544 1381 
L 544 3500 
L 1119 3500 
L 1119 1403 
Q 1119 906 1312 657 
Q 1506 409 1894 409 
Q 2359 409 2629 706 
Q 2900 1003 2900 1516 
L 2900 3500 
L 3475 3500 
L 3475 0 
L 2900 0 
L 2900 538 
Q 2691 219 2414 64 
Q 2138 -91 1772 -91 
Q 1169 -91 856 284 
Q 544 659 544 1381 
z
M 1991 3584 
L 1991 3584 
z
" transform="scale(0.015625)"/>
       <path id="DejaVuSans-73" d="M 2834 3397 
L 2834 2853 
Q 2591 2978 2328 3040 
Q 2066 3103 1784 3103 
Q 1356 3103 1142 2972 
Q 928 2841 928 2578 
Q 928 2378 1081 2264 
Q 1234 2150 1697 2047 
L 1894 2003 
Q 2506 1872 2764 1633 
Q 3022 1394 3022 966 
Q 3022 478 2636 193 
Q 2250 -91 1575 -91 
Q 1294 -91 989 -36 
Q 684 19 347 128 
L 347 722 
Q 666 556 975 473 
Q 1284 391 1588 391 
Q 1994 391 2212 530 
Q 2431 669 2431 922 
Q 2431 1156 2273 1281 
Q 2116 1406 1581 1522 
L 1381 1569 
Q 847 1681 609 1914 
Q 372 2147 372 2553 
Q 372 3047 722 3315 
Q 1072 3584 1716 3584 
Q 2034 3584 2315 3537 
Q 2597 3491 2834 3397 
z
" transform="scale(0.015625)"/>
       <path id="DejaVuSans-65" d="M 3597 1894 
L 3597 1613 
L 953 1613 
Q 991 1019 1311 708 
Q 1631 397 2203 397 
Q 2534 397 2845 478 
Q 3156 559 3463 722 
L 3463 178 
Q 3153 47 2828 -22 
Q 2503 -91 2169 -91 
Q 1331 -91 842 396 
Q 353 884 353 1716 
Q 353 2575 817 3079 
Q 1281 3584 2069 3584 
Q 2775 3584 3186 3129 
Q 3597 2675 3597 1894 
z
M 3022 2063 
Q 3016 2534 2758 2815 
Q 2500 3097 2075 3097 
Q 1594 3097 1305 2825 
Q 1016 2553 972 2059 
L 3022 2063 
z
" transform="scale(0.015625)"/>
       <path id="DejaVuSans-6d" d="M 3328 2828 
Q 3544 3216 3844 3400 
Q 4144 3584 4550 3584 
Q 5097 3584 5394 3201 
Q 5691 2819 5691 2113 
L 5691 0 
L 5113 0 
L 5113 2094 
Q 5113 2597 4934 2840 
Q 4756 3084 4391 3084 
Q 3944 3084 3684 2787 
Q 3425 2491 3425 1978 
L 3425 0 
L 2847 0 
L 2847 2094 
Q 2847 2600 2669 2842 
Q 2491 3084 2119 3084 
Q 1678 3084 1418 2786 
Q 1159 2488 1159 1978 
L 1159 0 
L 581 0 
L 581 3500 
L 1159 3500 
L 1159 2956 
Q 1356 3278 1631 3431 
Q 1906 3584 2284 3584 
Q 2666 3584 2933 3390 
Q 3200 3197 3328 2828 
z
" transform="scale(0.015625)"/>
      </defs>
      <use xlink:href="#DejaVuSans-75"/>
      <use xlink:href="#DejaVuSans-73" x="63.378906"/>
      <use xlink:href="#DejaVuSans-65" x="115.478516"/>
      <use xlink:href="#DejaVuSans-64" x="177.001953"/>
      <use xlink:href="#DejaVuSans-20" x="240.478516"/>
      <use xlink:href="#DejaVuSans-6d" x="272.265625"/>
      <use xlink:href="#DejaVuSans-65" x="369.677734"/>
      <use xlink:href="#DejaVuSans-74" x="431.201172"/>
      <use xlink:href="#DejaVuSans-61" x="470.410156"/>
      <use xlink:href="#DejaVuSans-64" x="531.689453"/>
      <use xlink:href="#DejaVuSans-61" x="595.166016"/>
      <use xlink:href="#DejaVuSans-74" x="656.445312"/>
      <use xlink:href="#DejaVuSans-61" x="695.654297"/>
     </g>
    </g>
    <g id="line2d_33">
     <path d="M 264.28125 62.336563 
L 274.28125 62.336563 
L 284.28125 62.336563 
" style="fill: none; stroke: #1f77b4; stroke-width: 1.5; stroke-linecap: square"/>
    </g>
    <g id="text_17">
     <!-- no metadata -->
     <g transform="translate(292.28125 65.836563) scale(0.1 -0.1)">
      <use xlink:href="#DejaVuSans-6e"/>
      <use xlink:href="#DejaVuSans-6f" x="63.378906"/>
      <use xlink:href="#DejaVuSans-20" x="124.560547"/>
      <use xlink:href="#DejaVuSans-6d" x="156.347656"/>
      <use xlink:href="#DejaVuSans-65" x="253.759766"/>
      <use xlink:href="#DejaVuSans-74" x="315.283203"/>
      <use xlink:href="#DejaVuSans-61" x="354.492188"/>
      <use xlink:href="#DejaVuSans-64" x="415.771484"/>
      <use xlink:href="#DejaVuSans-61" x="479.248047"/>
      <use xlink:href="#DejaVuSans-74" x="540.527344"/>
      <use xlink:href="#DejaVuSans-61" x="579.736328"/>
     </g>
    </g>
    <g id="line2d_34">
     <path d="M 264.28125 77.014688 
L 274.28125 77.014688 
L 284.28125 77.014688 
" style="fill: none; stroke: #ff7f0e; stroke-width: 1.5; stroke-linecap: square"/>
    </g>
    <g id="text_18">
     <!-- ionmode -->
     <g transform="translate(292.28125 80.514688) scale(0.1 -0.1)">
      <use xlink:href="#DejaVuSans-69"/>
      <use xlink:href="#DejaVuSans-6f" x="27.783203"/>
      <use xlink:href="#DejaVuSans-6e" x="88.964844"/>
      <use xlink:href="#DejaVuSans-6d" x="152.34375"/>
      <use xlink:href="#DejaVuSans-6f" x="249.755859"/>
      <use xlink:href="#DejaVuSans-64" x="310.9375"/>
      <use xlink:href="#DejaVuSans-65" x="374.414062"/>
     </g>
    </g>
    <g id="line2d_35">
     <path d="M 264.28125 91.692813 
L 274.28125 91.692813 
L 284.28125 91.692813 
" style="fill: none; stroke: #2ca02c; stroke-width: 1.5; stroke-linecap: square"/>
    </g>
    <g id="text_19">
     <!-- precursor_mz -->
     <g transform="translate(292.28125 95.192813) scale(0.1 -0.1)">
      <defs>
       <path id="DejaVuSans-72" d="M 2631 2963 
Q 2534 3019 2420 3045 
Q 2306 3072 2169 3072 
Q 1681 3072 1420 2755 
Q 1159 2438 1159 1844 
L 1159 0 
L 581 0 
L 581 3500 
L 1159 3500 
L 1159 2956 
Q 1341 3275 1631 3429 
Q 1922 3584 2338 3584 
Q 2397 3584 2469 3576 
Q 2541 3569 2628 3553 
L 2631 2963 
z
" transform="scale(0.015625)"/>
       <path id="DejaVuSans-5f" d="M 3263 -1063 
L 3263 -1509 
L -63 -1509 
L -63 -1063 
L 3263 -1063 
z
" transform="scale(0.015625)"/>
       <path id="DejaVuSans-7a" d="M 353 3500 
L 3084 3500 
L 3084 2975 
L 922 459 
L 3084 459 
L 3084 0 
L 275 0 
L 275 525 
L 2438 3041 
L 353 3041 
L 353 3500 
z
" transform="scale(0.015625)"/>
      </defs>
      <use xlink:href="#DejaVuSans-70"/>
      <use xlink:href="#DejaVuSans-72" x="63.476562"/>
      <use xlink:href="#DejaVuSans-65" x="102.339844"/>
      <use xlink:href="#DejaVuSans-63" x="163.863281"/>
      <use xlink:href="#DejaVuSans-75" x="218.84375"/>
      <use xlink:href="#DejaVuSans-72" x="282.222656"/>
      <use xlink:href="#DejaVuSans-73" x="323.335938"/>
      <use xlink:href="#DejaVuSans-6f" x="375.435547"/>
      <use xlink:href="#DejaVuSans-72" x="436.617188"/>
      <use xlink:href="#DejaVuSans-5f" x="477.730469"/>
      <use xlink:href="#DejaVuSans-6d" x="527.730469"/>
      <use xlink:href="#DejaVuSans-7a" x="625.142578"/>
     </g>
    </g>
    <g id="line2d_36">
     <path d="M 264.28125 106.649063 
L 274.28125 106.649063 
L 284.28125 106.649063 
" style="fill: none; stroke: #d62728; stroke-width: 1.5; stroke-linecap: square"/>
    </g>
    <g id="text_20">
     <!-- ionmode, precursor_mz -->
     <g transform="translate(292.28125 110.149063) scale(0.1 -0.1)">
      <defs>
       <path id="DejaVuSans-2c" d="M 750 794 
L 1409 794 
L 1409 256 
L 897 -744 
L 494 -744 
L 750 256 
L 750 794 
z
" transform="scale(0.015625)"/>
      </defs>
      <use xlink:href="#DejaVuSans-69"/>
      <use xlink:href="#DejaVuSans-6f" x="27.783203"/>
      <use xlink:href="#DejaVuSans-6e" x="88.964844"/>
      <use xlink:href="#DejaVuSans-6d" x="152.34375"/>
      <use xlink:href="#DejaVuSans-6f" x="249.755859"/>
      <use xlink:href="#DejaVuSans-64" x="310.9375"/>
      <use xlink:href="#DejaVuSans-65" x="374.414062"/>
      <use xlink:href="#DejaVuSans-2c" x="435.9375"/>
      <use xlink:href="#DejaVuSans-20" x="467.724609"/>
      <use xlink:href="#DejaVuSans-70" x="499.511719"/>
      <use xlink:href="#DejaVuSans-72" x="562.988281"/>
      <use xlink:href="#DejaVuSans-65" x="601.851562"/>
      <use xlink:href="#DejaVuSans-63" x="663.375"/>
      <use xlink:href="#DejaVuSans-75" x="718.355469"/>
      <use xlink:href="#DejaVuSans-72" x="781.734375"/>
      <use xlink:href="#DejaVuSans-73" x="822.847656"/>
      <use xlink:href="#DejaVuSans-6f" x="874.947266"/>
      <use xlink:href="#DejaVuSans-72" x="936.128906"/>
      <use xlink:href="#DejaVuSans-5f" x="977.242188"/>
      <use xlink:href="#DejaVuSans-6d" x="1027.242188"/>
      <use xlink:href="#DejaVuSans-7a" x="1124.654297"/>
     </g>
    </g>
    <g id="line2d_37">
     <path d="M 264.28125 121.605313 
L 274.28125 121.605313 
L 284.28125 121.605313 
" style="fill: none; stroke: #9467bd; stroke-width: 1.5; stroke-linecap: square"/>
    </g>
    <g id="text_21">
     <!-- ionmode, precursor_mz, source_instrument -->
     <g transform="translate(292.28125 125.105313) scale(0.1 -0.1)">
      <use xlink:href="#DejaVuSans-69"/>
      <use xlink:href="#DejaVuSans-6f" x="27.783203"/>
      <use xlink:href="#DejaVuSans-6e" x="88.964844"/>
      <use xlink:href="#DejaVuSans-6d" x="152.34375"/>
      <use xlink:href="#DejaVuSans-6f" x="249.755859"/>
      <use xlink:href="#DejaVuSans-64" x="310.9375"/>
      <use xlink:href="#DejaVuSans-65" x="374.414062"/>
      <use xlink:href="#DejaVuSans-2c" x="435.9375"/>
      <use xlink:href="#DejaVuSans-20" x="467.724609"/>
      <use xlink:href="#DejaVuSans-70" x="499.511719"/>
      <use xlink:href="#DejaVuSans-72" x="562.988281"/>
      <use xlink:href="#DejaVuSans-65" x="601.851562"/>
      <use xlink:href="#DejaVuSans-63" x="663.375"/>
      <use xlink:href="#DejaVuSans-75" x="718.355469"/>
      <use xlink:href="#DejaVuSans-72" x="781.734375"/>
      <use xlink:href="#DejaVuSans-73" x="822.847656"/>
      <use xlink:href="#DejaVuSans-6f" x="874.947266"/>
      <use xlink:href="#DejaVuSans-72" x="936.128906"/>
      <use xlink:href="#DejaVuSans-5f" x="977.242188"/>
      <use xlink:href="#DejaVuSans-6d" x="1027.242188"/>
      <use xlink:href="#DejaVuSans-7a" x="1124.654297"/>
      <use xlink:href="#DejaVuSans-2c" x="1177.144531"/>
      <use xlink:href="#DejaVuSans-20" x="1208.931641"/>
      <use xlink:href="#DejaVuSans-73" x="1240.71875"/>
      <use xlink:href="#DejaVuSans-6f" x="1292.818359"/>
      <use xlink:href="#DejaVuSans-75" x="1354"/>
      <use xlink:href="#DejaVuSans-72" x="1417.378906"/>
      <use xlink:href="#DejaVuSans-63" x="1456.242188"/>
      <use xlink:href="#DejaVuSans-65" x="1511.222656"/>
      <use xlink:href="#DejaVuSans-5f" x="1572.746094"/>
      <use xlink:href="#DejaVuSans-69" x="1622.746094"/>
      <use xlink:href="#DejaVuSans-6e" x="1650.529297"/>
      <use xlink:href="#DejaVuSans-73" x="1713.908203"/>
      <use xlink:href="#DejaVuSans-74" x="1766.007812"/>
      <use xlink:href="#DejaVuSans-72" x="1805.216797"/>
      <use xlink:href="#DejaVuSans-75" x="1846.330078"/>
      <use xlink:href="#DejaVuSans-6d" x="1909.708984"/>
      <use xlink:href="#DejaVuSans-65" x="2007.121094"/>
      <use xlink:href="#DejaVuSans-6e" x="2068.644531"/>
      <use xlink:href="#DejaVuSans-74" x="2132.023438"/>
     </g>
    </g>
    <g id="line2d_38">
     <path d="M 264.28125 136.561563 
L 274.28125 136.561563 
L 284.28125 136.561563 
" style="fill: none; stroke: #8c564b; stroke-width: 1.5; stroke-linecap: square"/>
    </g>
    <g id="text_22">
     <!-- adduct, ionmode, precursor_mz -->
     <g transform="translate(292.28125 140.061563) scale(0.1 -0.1)">
      <use xlink:href="#DejaVuSans-61"/>
      <use xlink:href="#DejaVuSans-64" x="61.279297"/>
      <use xlink:href="#DejaVuSans-64" x="124.755859"/>
      <use xlink:href="#DejaVuSans-75" x="188.232422"/>
      <use xlink:href="#DejaVuSans-63" x="251.611328"/>
      <use xlink:href="#DejaVuSans-74" x="306.591797"/>
      <use xlink:href="#DejaVuSans-2c" x="345.800781"/>
      <use xlink:href="#DejaVuSans-20" x="377.587891"/>
      <use xlink:href="#DejaVuSans-69" x="409.375"/>
      <use xlink:href="#DejaVuSans-6f" x="437.158203"/>
      <use xlink:href="#DejaVuSans-6e" x="498.339844"/>
      <use xlink:href="#DejaVuSans-6d" x="561.71875"/>
      <use xlink:href="#DejaVuSans-6f" x="659.130859"/>
      <use xlink:href="#DejaVuSans-64" x="720.3125"/>
      <use xlink:href="#DejaVuSans-65" x="783.789062"/>
      <use xlink:href="#DejaVuSans-2c" x="845.3125"/>
      <use xlink:href="#DejaVuSans-20" x="877.099609"/>
      <use xlink:href="#DejaVuSans-70" x="908.886719"/>
      <use xlink:href="#DejaVuSans-72" x="972.363281"/>
      <use xlink:href="#DejaVuSans-65" x="1011.226562"/>
      <use xlink:href="#DejaVuSans-63" x="1072.75"/>
      <use xlink:href="#DejaVuSans-75" x="1127.730469"/>
      <use xlink:href="#DejaVuSans-72" x="1191.109375"/>
      <use xlink:href="#DejaVuSans-73" x="1232.222656"/>
      <use xlink:href="#DejaVuSans-6f" x="1284.322266"/>
      <use xlink:href="#DejaVuSans-72" x="1345.503906"/>
      <use xlink:href="#DejaVuSans-5f" x="1386.617188"/>
      <use xlink:href="#DejaVuSans-6d" x="1436.617188"/>
      <use xlink:href="#DejaVuSans-7a" x="1534.029297"/>
     </g>
    </g>
   </g>
  </g>
 </g>
 <defs>
  <clipPath id="p94ccc76ce1">
   <rect x="72" y="34.56" width="446.4" height="221.76"/>
  </clipPath>
 </defs>
</svg>
