<?xml version="1.0" encoding="utf-8" standalone="no"?>
<!DOCTYPE svg PUBLIC "-//W3C//DTD SVG 1.1//EN"
  "http://www.w3.org/Graphics/SVG/1.1/DTD/svg11.dtd">
<svg xmlns:xlink="http://www.w3.org/1999/xlink" width="576pt" height="288pt" viewBox="0 0 576 288" xmlns="http://www.w3.org/2000/svg" version="1.1">
 <metadata>
  <rdf:RDF xmlns:dc="http://purl.org/dc/elements/1.1/" xmlns:cc="http://creativecommons.org/ns#" xmlns:rdf="http://www.w3.org/1999/02/22-rdf-syntax-ns#">
   <cc:Work>
    <dc:type rdf:resource="http://purl.org/dc/dcmitype/StillImage"/>
    <dc:date>2024-12-17T15:32:51.690538</dc:date>
    <dc:format>image/svg+xml</dc:format>
    <dc:creator>
     <cc:Agent>
      <dc:title>Matplotlib v3.7.2, https://matplotlib.org/</dc:title>
     </cc:Agent>
    </dc:creator>
   </cc:Work>
  </rdf:RDF>
 </metadata>
 <defs>
  <style type="text/css">*{stroke-linejoin: round; stroke-linecap: butt}</style>
 </defs>
 <g id="figure_1">
  <g id="patch_1">
   <path d="M 0 288 
L 576 288 
L 576 0 
L 0 0 
z
" style="fill: #ffffff"/>
  </g>
  <g id="axes_1">
   <g id="patch_2">
    <path d="M 72 256.32 
L 518.4 256.32 
L 518.4 34.56 
L 72 34.56 
z
" style="fill: #ffffff"/>
   </g>
   <g id="matplotlib.axis_1">
    <g id="xtick_1">
     <g id="line2d_1">
      <path d="M 92.290909 256.32 
L 92.290909 34.56 
" clip-path="url(#pb39c6e0e14)" style="fill: none; stroke: #b0b0b0; stroke-width: 0.8; stroke-linecap: square"/>
     </g>
     <g id="line2d_2">
      <defs>
       <path id="md8d77f6709" d="M 0 0 
L 0 3.5 
" style="stroke: #000000; stroke-width: 0.8"/>
      </defs>
      <g>
       <use xlink:href="#md8d77f6709" x="92.290909" y="256.32" style="stroke: #000000; stroke-width: 0.8"/>
      </g>
     </g>
     <g id="text_1">
      <!-- 0 -->
      <g transform="translate(89.109659 270.918437) scale(0.1 -0.1)">
       <defs>
        <path id="DejaVuSans-30" d="M 2034 4250 
Q 1547 4250 1301 3770 
Q 1056 3291 1056 2328 
Q 1056 1369 1301 889 
Q 1547 409 2034 409 
Q 2525 409 2770 889 
Q 3016 1369 3016 2328 
Q 3016 3291 2770 3770 
Q 2525 4250 2034 4250 
z
M 2034 4750 
Q 2819 4750 3233 4129 
Q 3647 3509 3647 2328 
Q 3647 1150 3233 529 
Q 2819 -91 2034 -91 
Q 1250 -91 836 529 
Q 422 1150 422 2328 
Q 422 3509 836 4129 
Q 1250 4750 2034 4750 
z
" transform="scale(0.015625)"/>
       </defs>
       <use xlink:href="#DejaVuSans-30"/>
      </g>
     </g>
    </g>
    <g id="xtick_2">
     <g id="line2d_3">
      <path d="M 146.763148 256.32 
L 146.763148 34.56 
" clip-path="url(#pb39c6e0e14)" style="fill: none; stroke: #b0b0b0; stroke-width: 0.8; stroke-linecap: square"/>
     </g>
     <g id="line2d_4">
      <g>
       <use xlink:href="#md8d77f6709" x="146.763148" y="256.32" style="stroke: #000000; stroke-width: 0.8"/>
      </g>
     </g>
     <g id="text_2">
      <!-- 20 -->
      <g transform="translate(140.400648 270.918437) scale(0.1 -0.1)">
       <defs>
        <path id="DejaVuSans-32" d="M 1228 531 
L 3431 531 
L 3431 0 
L 469 0 
L 469 531 
Q 828 903 1448 1529 
Q 2069 2156 2228 2338 
Q 2531 2678 2651 2914 
Q 2772 3150 2772 3378 
Q 2772 3750 2511 3984 
Q 2250 4219 1831 4219 
Q 1534 4219 1204 4116 
Q 875 4013 500 3803 
L 500 4441 
Q 881 4594 1212 4672 
Q 1544 4750 1819 4750 
Q 2544 4750 2975 4387 
Q 3406 4025 3406 3419 
Q 3406 3131 3298 2873 
Q 3191 2616 2906 2266 
Q 2828 2175 2409 1742 
Q 1991 1309 1228 531 
z
" transform="scale(0.015625)"/>
       </defs>
       <use xlink:href="#DejaVuSans-32"/>
       <use xlink:href="#DejaVuSans-30" x="63.623047"/>
      </g>
     </g>
    </g>
    <g id="xtick_3">
     <g id="line2d_5">
      <path d="M 201.235387 256.32 
L 201.235387 34.56 
" clip-path="url(#pb39c6e0e14)" style="fill: none; stroke: #b0b0b0; stroke-width: 0.8; stroke-linecap: square"/>
     </g>
     <g id="line2d_6">
      <g>
       <use xlink:href="#md8d77f6709" x="201.235387" y="256.32" style="stroke: #000000; stroke-width: 0.8"/>
      </g>
     </g>
     <g id="text_3">
      <!-- 40 -->
      <g transform="translate(194.872887 270.918437) scale(0.1 -0.1)">
       <defs>
        <path id="DejaVuSans-34" d="M 2419 4116 
L 825 1625 
L 2419 1625 
L 2419 4116 
z
M 2253 4666 
L 3047 4666 
L 3047 1625 
L 3713 1625 
L 3713 1100 
L 3047 1100 
L 3047 0 
L 2419 0 
L 2419 1100 
L 313 1100 
L 313 1709 
L 2253 4666 
z
" transform="scale(0.015625)"/>
       </defs>
       <use xlink:href="#DejaVuSans-34"/>
       <use xlink:href="#DejaVuSans-30" x="63.623047"/>
      </g>
     </g>
    </g>
    <g id="xtick_4">
     <g id="line2d_7">
      <path d="M 255.707627 256.32 
L 255.707627 34.56 
" clip-path="url(#pb39c6e0e14)" style="fill: none; stroke: #b0b0b0; stroke-width: 0.8; stroke-linecap: square"/>
     </g>
     <g id="line2d_8">
      <g>
       <use xlink:href="#md8d77f6709" x="255.707627" y="256.32" style="stroke: #000000; stroke-width: 0.8"/>
      </g>
     </g>
     <g id="text_4">
      <!-- 60 -->
      <g transform="translate(249.345127 270.918437) scale(0.1 -0.1)">
       <defs>
        <path id="DejaVuSans-36" d="M 2113 2584 
Q 1688 2584 1439 2293 
Q 1191 2003 1191 1497 
Q 1191 994 1439 701 
Q 1688 409 2113 409 
Q 2538 409 2786 701 
Q 3034 994 3034 1497 
Q 3034 2003 2786 2293 
Q 2538 2584 2113 2584 
z
M 3366 4563 
L 3366 3988 
Q 3128 4100 2886 4159 
Q 2644 4219 2406 4219 
Q 1781 4219 1451 3797 
Q 1122 3375 1075 2522 
Q 1259 2794 1537 2939 
Q 1816 3084 2150 3084 
Q 2853 3084 3261 2657 
Q 3669 2231 3669 1497 
Q 3669 778 3244 343 
Q 2819 -91 2113 -91 
Q 1303 -91 875 529 
Q 447 1150 447 2328 
Q 447 3434 972 4092 
Q 1497 4750 2381 4750 
Q 2619 4750 2861 4703 
Q 3103 4656 3366 4563 
z
" transform="scale(0.015625)"/>
       </defs>
       <use xlink:href="#DejaVuSans-36"/>
       <use xlink:href="#DejaVuSans-30" x="63.623047"/>
      </g>
     </g>
    </g>
    <g id="xtick_5">
     <g id="line2d_9">
      <path d="M 310.179866 256.32 
L 310.179866 34.56 
" clip-path="url(#pb39c6e0e14)" style="fill: none; stroke: #b0b0b0; stroke-width: 0.8; stroke-linecap: square"/>
     </g>
     <g id="line2d_10">
      <g>
       <use xlink:href="#md8d77f6709" x="310.179866" y="256.32" style="stroke: #000000; stroke-width: 0.8"/>
      </g>
     </g>
     <g id="text_5">
      <!-- 80 -->
      <g transform="translate(303.817366 270.918437) scale(0.1 -0.1)">
       <defs>
        <path id="DejaVuSans-38" d="M 2034 2216 
Q 1584 2216 1326 1975 
Q 1069 1734 1069 1313 
Q 1069 891 1326 650 
Q 1584 409 2034 409 
Q 2484 409 2743 651 
Q 3003 894 3003 1313 
Q 3003 1734 2745 1975 
Q 2488 2216 2034 2216 
z
M 1403 2484 
Q 997 2584 770 2862 
Q 544 3141 544 3541 
Q 544 4100 942 4425 
Q 1341 4750 2034 4750 
Q 2731 4750 3128 4425 
Q 3525 4100 3525 3541 
Q 3525 3141 3298 2862 
Q 3072 2584 2669 2484 
Q 3125 2378 3379 2068 
Q 3634 1759 3634 1313 
Q 3634 634 3220 271 
Q 2806 -91 2034 -91 
Q 1263 -91 848 271 
Q 434 634 434 1313 
Q 434 1759 690 2068 
Q 947 2378 1403 2484 
z
M 1172 3481 
Q 1172 3119 1398 2916 
Q 1625 2713 2034 2713 
Q 2441 2713 2670 2916 
Q 2900 3119 2900 3481 
Q 2900 3844 2670 4047 
Q 2441 4250 2034 4250 
Q 1625 4250 1398 4047 
Q 1172 3844 1172 3481 
z
" transform="scale(0.015625)"/>
       </defs>
       <use xlink:href="#DejaVuSans-38"/>
       <use xlink:href="#DejaVuSans-30" x="63.623047"/>
      </g>
     </g>
    </g>
    <g id="xtick_6">
     <g id="line2d_11">
      <path d="M 364.652105 256.32 
L 364.652105 34.56 
" clip-path="url(#pb39c6e0e14)" style="fill: none; stroke: #b0b0b0; stroke-width: 0.8; stroke-linecap: square"/>
     </g>
     <g id="line2d_12">
      <g>
       <use xlink:href="#md8d77f6709" x="364.652105" y="256.32" style="stroke: #000000; stroke-width: 0.8"/>
      </g>
     </g>
     <g id="text_6">
      <!-- 100 -->
      <g transform="translate(355.108355 270.918437) scale(0.1 -0.1)">
       <defs>
        <path id="DejaVuSans-31" d="M 794 531 
L 1825 531 
L 1825 4091 
L 703 3866 
L 703 4441 
L 1819 4666 
L 2450 4666 
L 2450 531 
L 3481 531 
L 3481 0 
L 794 0 
L 794 531 
z
" transform="scale(0.015625)"/>
       </defs>
       <use xlink:href="#DejaVuSans-31"/>
       <use xlink:href="#DejaVuSans-30" x="63.623047"/>
       <use xlink:href="#DejaVuSans-30" x="127.246094"/>
      </g>
     </g>
    </g>
    <g id="xtick_7">
     <g id="line2d_13">
      <path d="M 419.124344 256.32 
L 419.124344 34.56 
" clip-path="url(#pb39c6e0e14)" style="fill: none; stroke: #b0b0b0; stroke-width: 0.8; stroke-linecap: square"/>
     </g>
     <g id="line2d_14">
      <g>
       <use xlink:href="#md8d77f6709" x="419.124344" y="256.32" style="stroke: #000000; stroke-width: 0.8"/>
      </g>
     </g>
     <g id="text_7">
      <!-- 120 -->
      <g transform="translate(409.580594 270.918437) scale(0.1 -0.1)">
       <use xlink:href="#DejaVuSans-31"/>
       <use xlink:href="#DejaVuSans-32" x="63.623047"/>
       <use xlink:href="#DejaVuSans-30" x="127.246094"/>
      </g>
     </g>
    </g>
    <g id="xtick_8">
     <g id="line2d_15">
      <path d="M 473.596583 256.32 
L 473.596583 34.56 
" clip-path="url(#pb39c6e0e14)" style="fill: none; stroke: #b0b0b0; stroke-width: 0.8; stroke-linecap: square"/>
     </g>
     <g id="line2d_16">
      <g>
       <use xlink:href="#md8d77f6709" x="473.596583" y="256.32" style="stroke: #000000; stroke-width: 0.8"/>
      </g>
     </g>
     <g id="text_8">
      <!-- 140 -->
      <g transform="translate(464.052833 270.918437) scale(0.1 -0.1)">
       <use xlink:href="#DejaVuSans-31"/>
       <use xlink:href="#DejaVuSans-34" x="63.623047"/>
       <use xlink:href="#DejaVuSans-30" x="127.246094"/>
      </g>
     </g>
    </g>
    <g id="text_9">
     <!-- Epoch -->
     <g transform="translate(279.889062 284.596563) scale(0.1 -0.1)">
      <defs>
       <path id="DejaVuSans-45" d="M 628 4666 
L 3578 4666 
L 3578 4134 
L 1259 4134 
L 1259 2753 
L 3481 2753 
L 3481 2222 
L 1259 2222 
L 1259 531 
L 3634 531 
L 3634 0 
L 628 0 
L 628 4666 
z
" transform="scale(0.015625)"/>
       <path id="DejaVuSans-70" d="M 1159 525 
L 1159 -1331 
L 581 -1331 
L 581 3500 
L 1159 3500 
L 1159 2969 
Q 1341 3281 1617 3432 
Q 1894 3584 2278 3584 
Q 2916 3584 3314 3078 
Q 3713 2572 3713 1747 
Q 3713 922 3314 415 
Q 2916 -91 2278 -91 
Q 1894 -91 1617 61 
Q 1341 213 1159 525 
z
M 3116 1747 
Q 3116 2381 2855 2742 
Q 2594 3103 2138 3103 
Q 1681 3103 1420 2742 
Q 1159 2381 1159 1747 
Q 1159 1113 1420 752 
Q 1681 391 2138 391 
Q 2594 391 2855 752 
Q 3116 1113 3116 1747 
z
" transform="scale(0.015625)"/>
       <path id="DejaVuSans-6f" d="M 1959 3097 
Q 1497 3097 1228 2736 
Q 959 2375 959 1747 
Q 959 1119 1226 758 
Q 1494 397 1959 397 
Q 2419 397 2687 759 
Q 2956 1122 2956 1747 
Q 2956 2369 2687 2733 
Q 2419 3097 1959 3097 
z
M 1959 3584 
Q 2709 3584 3137 3096 
Q 3566 2609 3566 1747 
Q 3566 888 3137 398 
Q 2709 -91 1959 -91 
Q 1206 -91 779 398 
Q 353 888 353 1747 
Q 353 2609 779 3096 
Q 1206 3584 1959 3584 
z
" transform="scale(0.015625)"/>
       <path id="DejaVuSans-63" d="M 3122 3366 
L 3122 2828 
Q 2878 2963 2633 3030 
Q 2388 3097 2138 3097 
Q 1578 3097 1268 2742 
Q 959 2388 959 1747 
Q 959 1106 1268 751 
Q 1578 397 2138 397 
Q 2388 397 2633 464 
Q 2878 531 3122 666 
L 3122 134 
Q 2881 22 2623 -34 
Q 2366 -91 2075 -91 
Q 1284 -91 818 406 
Q 353 903 353 1747 
Q 353 2603 823 3093 
Q 1294 3584 2113 3584 
Q 2378 3584 2631 3529 
Q 2884 3475 3122 3366 
z
" transform="scale(0.015625)"/>
       <path id="DejaVuSans-68" d="M 3513 2113 
L 3513 0 
L 2938 0 
L 2938 2094 
Q 2938 2591 2744 2837 
Q 2550 3084 2163 3084 
Q 1697 3084 1428 2787 
Q 1159 2491 1159 1978 
L 1159 0 
L 581 0 
L 581 4863 
L 1159 4863 
L 1159 2956 
Q 1366 3272 1645 3428 
Q 1925 3584 2291 3584 
Q 2894 3584 3203 3211 
Q 3513 2838 3513 2113 
z
" transform="scale(0.015625)"/>
      </defs>
      <use xlink:href="#DejaVuSans-45"/>
      <use xlink:href="#DejaVuSans-70" x="63.183594"/>
      <use xlink:href="#DejaVuSans-6f" x="126.660156"/>
      <use xlink:href="#DejaVuSans-63" x="187.841797"/>
      <use xlink:href="#DejaVuSans-68" x="242.822266"/>
     </g>
    </g>
   </g>
   <g id="matplotlib.axis_2">
    <g id="ytick_1">
     <g id="line2d_17">
      <path d="M 72 254.349641 
L 518.4 254.349641 
" clip-path="url(#pb39c6e0e14)" style="fill: none; stroke: #b0b0b0; stroke-width: 0.8; stroke-linecap: square"/>
     </g>
     <g id="line2d_18">
      <defs>
       <path id="m80ad5c74f2" d="M 0 0 
L -3.5 0 
" style="stroke: #000000; stroke-width: 0.8"/>
      </defs>
      <g>
       <use xlink:href="#m80ad5c74f2" x="72" y="254.349641" style="stroke: #000000; stroke-width: 0.8"/>
      </g>
     </g>
     <g id="text_10">
      <!-- 0.0350 -->
      <g transform="translate(30.009375 258.14886) scale(0.1 -0.1)">
       <defs>
        <path id="DejaVuSans-2e" d="M 684 794 
L 1344 794 
L 1344 0 
L 684 0 
L 684 794 
z
" transform="scale(0.015625)"/>
        <path id="DejaVuSans-33" d="M 2597 2516 
Q 3050 2419 3304 2112 
Q 3559 1806 3559 1356 
Q 3559 666 3084 287 
Q 2609 -91 1734 -91 
Q 1441 -91 1130 -33 
Q 819 25 488 141 
L 488 750 
Q 750 597 1062 519 
Q 1375 441 1716 441 
Q 2309 441 2620 675 
Q 2931 909 2931 1356 
Q 2931 1769 2642 2001 
Q 2353 2234 1838 2234 
L 1294 2234 
L 1294 2753 
L 1863 2753 
Q 2328 2753 2575 2939 
Q 2822 3125 2822 3475 
Q 2822 3834 2567 4026 
Q 2313 4219 1838 4219 
Q 1578 4219 1281 4162 
Q 984 4106 628 3988 
L 628 4550 
Q 988 4650 1302 4700 
Q 1616 4750 1894 4750 
Q 2613 4750 3031 4423 
Q 3450 4097 3450 3541 
Q 3450 3153 3228 2886 
Q 3006 2619 2597 2516 
z
" transform="scale(0.015625)"/>
        <path id="DejaVuSans-35" d="M 691 4666 
L 3169 4666 
L 3169 4134 
L 1269 4134 
L 1269 2991 
Q 1406 3038 1543 3061 
Q 1681 3084 1819 3084 
Q 2600 3084 3056 2656 
Q 3513 2228 3513 1497 
Q 3513 744 3044 326 
Q 2575 -91 1722 -91 
Q 1428 -91 1123 -41 
Q 819 9 494 109 
L 494 744 
Q 775 591 1075 516 
Q 1375 441 1709 441 
Q 2250 441 2565 725 
Q 2881 1009 2881 1497 
Q 2881 1984 2565 2268 
Q 2250 2553 1709 2553 
Q 1456 2553 1204 2497 
Q 953 2441 691 2322 
L 691 4666 
z
" transform="scale(0.015625)"/>
       </defs>
       <use xlink:href="#DejaVuSans-30"/>
       <use xlink:href="#DejaVuSans-2e" x="63.623047"/>
       <use xlink:href="#DejaVuSans-30" x="95.410156"/>
       <use xlink:href="#DejaVuSans-33" x="159.033203"/>
       <use xlink:href="#DejaVuSans-35" x="222.65625"/>
       <use xlink:href="#DejaVuSans-30" x="286.279297"/>
      </g>
     </g>
    </g>
    <g id="ytick_2">
     <g id="line2d_19">
      <path d="M 72 227.197591 
L 518.4 227.197591 
" clip-path="url(#pb39c6e0e14)" style="fill: none; stroke: #b0b0b0; stroke-width: 0.8; stroke-linecap: square"/>
     </g>
     <g id="line2d_20">
      <g>
       <use xlink:href="#m80ad5c74f2" x="72" y="227.197591" style="stroke: #000000; stroke-width: 0.8"/>
      </g>
     </g>
     <g id="text_11">
      <!-- 0.0375 -->
      <g transform="translate(30.009375 230.99681) scale(0.1 -0.1)">
       <defs>
        <path id="DejaVuSans-37" d="M 525 4666 
L 3525 4666 
L 3525 4397 
L 1831 0 
L 1172 0 
L 2766 4134 
L 525 4134 
L 525 4666 
z
" transform="scale(0.015625)"/>
       </defs>
       <use xlink:href="#DejaVuSans-30"/>
       <use xlink:href="#DejaVuSans-2e" x="63.623047"/>
       <use xlink:href="#DejaVuSans-30" x="95.410156"/>
       <use xlink:href="#DejaVuSans-33" x="159.033203"/>
       <use xlink:href="#DejaVuSans-37" x="222.65625"/>
       <use xlink:href="#DejaVuSans-35" x="286.279297"/>
      </g>
     </g>
    </g>
    <g id="ytick_3">
     <g id="line2d_21">
      <path d="M 72 200.04554 
L 518.4 200.04554 
" clip-path="url(#pb39c6e0e14)" style="fill: none; stroke: #b0b0b0; stroke-width: 0.8; stroke-linecap: square"/>
     </g>
     <g id="line2d_22">
      <g>
       <use xlink:href="#m80ad5c74f2" x="72" y="200.04554" style="stroke: #000000; stroke-width: 0.8"/>
      </g>
     </g>
     <g id="text_12">
      <!-- 0.0400 -->
      <g transform="translate(30.009375 203.844759) scale(0.1 -0.1)">
       <use xlink:href="#DejaVuSans-30"/>
       <use xlink:href="#DejaVuSans-2e" x="63.623047"/>
       <use xlink:href="#DejaVuSans-30" x="95.410156"/>
       <use xlink:href="#DejaVuSans-34" x="159.033203"/>
       <use xlink:href="#DejaVuSans-30" x="222.65625"/>
       <use xlink:href="#DejaVuSans-30" x="286.279297"/>
      </g>
     </g>
    </g>
    <g id="ytick_4">
     <g id="line2d_23">
      <path d="M 72 172.89349 
L 518.4 172.89349 
" clip-path="url(#pb39c6e0e14)" style="fill: none; stroke: #b0b0b0; stroke-width: 0.8; stroke-linecap: square"/>
     </g>
     <g id="line2d_24">
      <g>
       <use xlink:href="#m80ad5c74f2" x="72" y="172.89349" style="stroke: #000000; stroke-width: 0.8"/>
      </g>
     </g>
     <g id="text_13">
      <!-- 0.0425 -->
      <g transform="translate(30.009375 176.692709) scale(0.1 -0.1)">
       <use xlink:href="#DejaVuSans-30"/>
       <use xlink:href="#DejaVuSans-2e" x="63.623047"/>
       <use xlink:href="#DejaVuSans-30" x="95.410156"/>
       <use xlink:href="#DejaVuSans-34" x="159.033203"/>
       <use xlink:href="#DejaVuSans-32" x="222.65625"/>
       <use xlink:href="#DejaVuSans-35" x="286.279297"/>
      </g>
     </g>
    </g>
    <g id="ytick_5">
     <g id="line2d_25">
      <path d="M 72 145.74144 
L 518.4 145.74144 
" clip-path="url(#pb39c6e0e14)" style="fill: none; stroke: #b0b0b0; stroke-width: 0.8; stroke-linecap: square"/>
     </g>
     <g id="line2d_26">
      <g>
       <use xlink:href="#m80ad5c74f2" x="72" y="145.74144" style="stroke: #000000; stroke-width: 0.8"/>
      </g>
     </g>
     <g id="text_14">
      <!-- 0.0450 -->
      <g transform="translate(30.009375 149.540659) scale(0.1 -0.1)">
       <use xlink:href="#DejaVuSans-30"/>
       <use xlink:href="#DejaVuSans-2e" x="63.623047"/>
       <use xlink:href="#DejaVuSans-30" x="95.410156"/>
       <use xlink:href="#DejaVuSans-34" x="159.033203"/>
       <use xlink:href="#DejaVuSans-35" x="222.65625"/>
       <use xlink:href="#DejaVuSans-30" x="286.279297"/>
      </g>
     </g>
    </g>
    <g id="ytick_6">
     <g id="line2d_27">
      <path d="M 72 118.58939 
L 518.4 118.58939 
" clip-path="url(#pb39c6e0e14)" style="fill: none; stroke: #b0b0b0; stroke-width: 0.8; stroke-linecap: square"/>
     </g>
     <g id="line2d_28">
      <g>
       <use xlink:href="#m80ad5c74f2" x="72" y="118.58939" style="stroke: #000000; stroke-width: 0.8"/>
      </g>
     </g>
     <g id="text_15">
      <!-- 0.0475 -->
      <g transform="translate(30.009375 122.388608) scale(0.1 -0.1)">
       <use xlink:href="#DejaVuSans-30"/>
       <use xlink:href="#DejaVuSans-2e" x="63.623047"/>
       <use xlink:href="#DejaVuSans-30" x="95.410156"/>
       <use xlink:href="#DejaVuSans-34" x="159.033203"/>
       <use xlink:href="#DejaVuSans-37" x="222.65625"/>
       <use xlink:href="#DejaVuSans-35" x="286.279297"/>
      </g>
     </g>
    </g>
    <g id="ytick_7">
     <g id="line2d_29">
      <path d="M 72 91.437339 
L 518.4 91.437339 
" clip-path="url(#pb39c6e0e14)" style="fill: none; stroke: #b0b0b0; stroke-width: 0.8; stroke-linecap: square"/>
     </g>
     <g id="line2d_30">
      <g>
       <use xlink:href="#m80ad5c74f2" x="72" y="91.437339" style="stroke: #000000; stroke-width: 0.8"/>
      </g>
     </g>
     <g id="text_16">
      <!-- 0.0500 -->
      <g transform="translate(30.009375 95.236558) scale(0.1 -0.1)">
       <use xlink:href="#DejaVuSans-30"/>
       <use xlink:href="#DejaVuSans-2e" x="63.623047"/>
       <use xlink:href="#DejaVuSans-30" x="95.410156"/>
       <use xlink:href="#DejaVuSans-35" x="159.033203"/>
       <use xlink:href="#DejaVuSans-30" x="222.65625"/>
       <use xlink:href="#DejaVuSans-30" x="286.279297"/>
      </g>
     </g>
    </g>
    <g id="ytick_8">
     <g id="line2d_31">
      <path d="M 72 64.285289 
L 518.4 64.285289 
" clip-path="url(#pb39c6e0e14)" style="fill: none; stroke: #b0b0b0; stroke-width: 0.8; stroke-linecap: square"/>
     </g>
     <g id="line2d_32">
      <g>
       <use xlink:href="#m80ad5c74f2" x="72" y="64.285289" style="stroke: #000000; stroke-width: 0.8"/>
      </g>
     </g>
     <g id="text_17">
      <!-- 0.0525 -->
      <g transform="translate(30.009375 68.084508) scale(0.1 -0.1)">
       <use xlink:href="#DejaVuSans-30"/>
       <use xlink:href="#DejaVuSans-2e" x="63.623047"/>
       <use xlink:href="#DejaVuSans-30" x="95.410156"/>
       <use xlink:href="#DejaVuSans-35" x="159.033203"/>
       <use xlink:href="#DejaVuSans-32" x="222.65625"/>
       <use xlink:href="#DejaVuSans-35" x="286.279297"/>
      </g>
     </g>
    </g>
    <g id="ytick_9">
     <g id="line2d_33">
      <path d="M 72 37.133239 
L 518.4 37.133239 
" clip-path="url(#pb39c6e0e14)" style="fill: none; stroke: #b0b0b0; stroke-width: 0.8; stroke-linecap: square"/>
     </g>
     <g id="line2d_34">
      <g>
       <use xlink:href="#m80ad5c74f2" x="72" y="37.133239" style="stroke: #000000; stroke-width: 0.8"/>
      </g>
     </g>
     <g id="text_18">
      <!-- 0.0550 -->
      <g transform="translate(30.009375 40.932457) scale(0.1 -0.1)">
       <use xlink:href="#DejaVuSans-30"/>
       <use xlink:href="#DejaVuSans-2e" x="63.623047"/>
       <use xlink:href="#DejaVuSans-30" x="95.410156"/>
       <use xlink:href="#DejaVuSans-35" x="159.033203"/>
       <use xlink:href="#DejaVuSans-35" x="222.65625"/>
       <use xlink:href="#DejaVuSans-30" x="286.279297"/>
      </g>
     </g>
    </g>
    <g id="text_19">
     <!-- Validation MSE -->
     <g transform="translate(23.929687 182.367344) rotate(-90) scale(0.1 -0.1)">
      <defs>
       <path id="DejaVuSans-56" d="M 1831 0 
L 50 4666 
L 709 4666 
L 2188 738 
L 3669 4666 
L 4325 4666 
L 2547 0 
L 1831 0 
z
" transform="scale(0.015625)"/>
       <path id="DejaVuSans-61" d="M 2194 1759 
Q 1497 1759 1228 1600 
Q 959 1441 959 1056 
Q 959 750 1161 570 
Q 1363 391 1709 391 
Q 2188 391 2477 730 
Q 2766 1069 2766 1631 
L 2766 1759 
L 2194 1759 
z
M 3341 1997 
L 3341 0 
L 2766 0 
L 2766 531 
Q 2569 213 2275 61 
Q 1981 -91 1556 -91 
Q 1019 -91 701 211 
Q 384 513 384 1019 
Q 384 1609 779 1909 
Q 1175 2209 1959 2209 
L 2766 2209 
L 2766 2266 
Q 2766 2663 2505 2880 
Q 2244 3097 1772 3097 
Q 1472 3097 1187 3025 
Q 903 2953 641 2809 
L 641 3341 
Q 956 3463 1253 3523 
Q 1550 3584 1831 3584 
Q 2591 3584 2966 3190 
Q 3341 2797 3341 1997 
z
" transform="scale(0.015625)"/>
       <path id="DejaVuSans-6c" d="M 603 4863 
L 1178 4863 
L 1178 0 
L 603 0 
L 603 4863 
z
" transform="scale(0.015625)"/>
       <path id="DejaVuSans-69" d="M 603 3500 
L 1178 3500 
L 1178 0 
L 603 0 
L 603 3500 
z
M 603 4863 
L 1178 4863 
L 1178 4134 
L 603 4134 
L 603 4863 
z
" transform="scale(0.015625)"/>
       <path id="DejaVuSans-64" d="M 2906 2969 
L 2906 4863 
L 3481 4863 
L 3481 0 
L 2906 0 
L 2906 525 
Q 2725 213 2448 61 
Q 2172 -91 1784 -91 
Q 1150 -91 751 415 
Q 353 922 353 1747 
Q 353 2572 751 3078 
Q 1150 3584 1784 3584 
Q 2172 3584 2448 3432 
Q 2725 3281 2906 2969 
z
M 947 1747 
Q 947 1113 1208 752 
Q 1469 391 1925 391 
Q 2381 391 2643 752 
Q 2906 1113 2906 1747 
Q 2906 2381 2643 2742 
Q 2381 3103 1925 3103 
Q 1469 3103 1208 2742 
Q 947 2381 947 1747 
z
" transform="scale(0.015625)"/>
       <path id="DejaVuSans-74" d="M 1172 4494 
L 1172 3500 
L 2356 3500 
L 2356 3053 
L 1172 3053 
L 1172 1153 
Q 1172 725 1289 603 
Q 1406 481 1766 481 
L 2356 481 
L 2356 0 
L 1766 0 
Q 1100 0 847 248 
Q 594 497 594 1153 
L 594 3053 
L 172 3053 
L 172 3500 
L 594 3500 
L 594 4494 
L 1172 4494 
z
" transform="scale(0.015625)"/>
       <path id="DejaVuSans-6e" d="M 3513 2113 
L 3513 0 
L 2938 0 
L 2938 2094 
Q 2938 2591 2744 2837 
Q 2550 3084 2163 3084 
Q 1697 3084 1428 2787 
Q 1159 2491 1159 1978 
L 1159 0 
L 581 0 
L 581 3500 
L 1159 3500 
L 1159 2956 
Q 1366 3272 1645 3428 
Q 1925 3584 2291 3584 
Q 2894 3584 3203 3211 
Q 3513 2838 3513 2113 
z
" transform="scale(0.015625)"/>
       <path id="DejaVuSans-20" transform="scale(0.015625)"/>
       <path id="DejaVuSans-4d" d="M 628 4666 
L 1569 4666 
L 2759 1491 
L 3956 4666 
L 4897 4666 
L 4897 0 
L 4281 0 
L 4281 4097 
L 3078 897 
L 2444 897 
L 1241 4097 
L 1241 0 
L 628 0 
L 628 4666 
z
" transform="scale(0.015625)"/>
       <path id="DejaVuSans-53" d="M 3425 4513 
L 3425 3897 
Q 3066 4069 2747 4153 
Q 2428 4238 2131 4238 
Q 1616 4238 1336 4038 
Q 1056 3838 1056 3469 
Q 1056 3159 1242 3001 
Q 1428 2844 1947 2747 
L 2328 2669 
Q 3034 2534 3370 2195 
Q 3706 1856 3706 1288 
Q 3706 609 3251 259 
Q 2797 -91 1919 -91 
Q 1588 -91 1214 -16 
Q 841 59 441 206 
L 441 856 
Q 825 641 1194 531 
Q 1563 422 1919 422 
Q 2459 422 2753 634 
Q 3047 847 3047 1241 
Q 3047 1584 2836 1778 
Q 2625 1972 2144 2069 
L 1759 2144 
Q 1053 2284 737 2584 
Q 422 2884 422 3419 
Q 422 4038 858 4394 
Q 1294 4750 2059 4750 
Q 2388 4750 2728 4690 
Q 3069 4631 3425 4513 
z
" transform="scale(0.015625)"/>
      </defs>
      <use xlink:href="#DejaVuSans-56"/>
      <use xlink:href="#DejaVuSans-61" x="60.658203"/>
      <use xlink:href="#DejaVuSans-6c" x="121.9375"/>
      <use xlink:href="#DejaVuSans-69" x="149.720703"/>
      <use xlink:href="#DejaVuSans-64" x="177.503906"/>
      <use xlink:href="#DejaVuSans-61" x="240.980469"/>
      <use xlink:href="#DejaVuSans-74" x="302.259766"/>
      <use xlink:href="#DejaVuSans-69" x="341.46875"/>
      <use xlink:href="#DejaVuSans-6f" x="369.251953"/>
      <use xlink:href="#DejaVuSans-6e" x="430.433594"/>
      <use xlink:href="#DejaVuSans-20" x="493.8125"/>
      <use xlink:href="#DejaVuSans-4d" x="525.599609"/>
      <use xlink:href="#DejaVuSans-53" x="611.878906"/>
      <use xlink:href="#DejaVuSans-45" x="675.355469"/>
     </g>
    </g>
   </g>
   <g id="line2d_35">
    <path d="M 92.290909 78.345713 
L 95.014521 90.210516 
L 97.738133 90.946887 
L 100.461745 116.789528 
L 103.185357 113.670344 
L 105.908969 148.495191 
L 108.632581 128.170111 
L 111.356193 134.79157 
L 114.079805 163.922426 
L 116.803417 175.408475 
L 119.527029 178.697744 
L 122.250641 181.716146 
L 124.974253 178.329019 
L 127.697865 180.701737 
L 130.421477 175.819204 
L 133.145088 180.880133 
L 135.8687 190.229234 
L 138.592312 183.153254 
L 141.315924 191.012393 
L 144.039536 195.445182 
L 146.763148 202.989092 
L 149.48676 207.696835 
L 152.210372 207.104868 
L 154.933984 189.951542 
L 157.657596 205.178129 
L 160.381208 202.608285 
L 163.10482 198.549644 
L 165.828432 213.374927 
L 168.552044 215.047238 
L 171.275656 201.375619 
L 173.999268 207.517527 
L 176.72288 190.469487 
L 179.446492 209.400726 
L 182.170104 214.34609 
L 184.893716 218.573097 
L 187.617328 215.890873 
L 190.34094 219.477215 
L 193.064552 216.370369 
L 195.788164 216.716357 
L 198.511775 219.94192 
L 201.235387 225.070024 
L 203.958999 217.233447 
L 206.682611 220.620546 
L 209.406223 224.260826 
L 212.129835 226.834125 
L 214.853447 227.608501 
L 217.577059 221.721817 
L 220.300671 220.613127 
L 223.024283 221.515382 
L 225.747895 220.343974 
L 228.471507 227.578386 
L 231.195119 222.665683 
L 233.918731 226.691781 
L 236.642343 224.881271 
L 239.365955 222.132181 
L 242.089567 219.991121 
L 244.813179 223.561909 
L 247.536791 226.481605 
L 250.260403 228.136199 
L 252.984015 229.210289 
L 255.707627 225.928428 
L 258.431239 229.21799 
L 261.154851 228.998806 
L 263.878462 227.700673 
L 266.602074 228.835157 
L 269.325686 224.577475 
L 272.049298 224.86708 
L 274.77291 227.778421 
L 277.496522 227.471095 
L 280.220134 233.278109 
L 282.943746 229.730476 
L 285.667358 222.376116 
L 288.39097 229.412355 
L 291.114582 234.96498 
L 293.838194 230.02997 
L 296.561806 224.081848 
L 299.285418 226.509231 
L 302.00903 232.138518 
L 304.732642 230.614553 
L 307.456254 232.769877 
L 310.179866 236.77453 
L 312.903478 240.200348 
L 315.62709 237.929159 
L 318.350702 236.221603 
L 321.074314 235.528237 
L 323.797926 237.037348 
L 326.521538 236.166458 
L 329.245149 226.185147 
L 331.968761 237.757054 
L 334.692373 237.079881 
L 337.415985 232.688848 
L 340.139597 234.246092 
L 342.863209 238.580133 
L 345.586821 236.098055 
L 348.310433 232.520636 
L 351.034045 239.333028 
L 353.757657 236.745956 
L 356.481269 241.12234 
L 359.204881 242.200527 
L 361.928493 235.117187 
L 364.652105 240.446573 
L 367.375717 239.903314 
L 372.822941 242.263643 
L 375.546553 243.467257 
L 378.270165 243.751646 
L 380.993777 241.572589 
L 383.717389 241.837925 
L 386.441001 240.810917 
L 389.164613 241.29173 
L 391.888225 243.548094 
L 394.611836 239.852754 
L 397.335448 240.472783 
L 400.05906 236.801414 
L 402.782672 239.343026 
L 405.506284 237.39803 
L 408.229896 243.330119 
L 410.953508 245.019843 
L 413.67712 240.45188 
L 416.400732 239.987442 
L 419.124344 242.660662 
L 421.847956 239.871075 
L 424.571568 241.160947 
L 427.29518 246.24 
L 430.018792 238.893803 
L 432.742404 242.485187 
L 438.189628 244.399346 
L 440.91324 245.676438 
L 443.636852 241.224083 
L 446.360464 238.891917 
L 449.084076 240.264062 
L 451.807688 238.024749 
L 454.5313 238.352032 
L 457.254912 240.294253 
L 459.978523 238.709869 
L 462.702135 241.324015 
L 465.425747 242.440148 
L 468.149359 240.285634 
L 470.872971 235.73372 
L 473.596583 241.75202 
L 476.320195 240.202024 
L 479.043807 237.949617 
L 481.767419 243.19774 
L 481.767419 243.19774 
" clip-path="url(#pb39c6e0e14)" style="fill: none; stroke: #1f77b4; stroke-width: 1.5; stroke-linecap: square"/>
   </g>
   <g id="line2d_36">
    <path d="M 92.290909 67.296313 
L 95.014521 102.051309 
L 97.738133 104.941259 
L 100.461745 103.965126 
L 103.185357 127.260033 
L 105.908969 156.293375 
L 108.632581 134.783979 
L 111.356193 152.607839 
L 114.079805 149.830052 
L 116.803417 160.692503 
L 119.527029 161.566757 
L 122.250641 157.872515 
L 124.974253 168.185086 
L 127.697865 168.527223 
L 130.421477 176.348971 
L 133.145088 182.535092 
L 135.8687 164.437045 
L 138.592312 181.051583 
L 141.315924 181.609937 
L 144.039536 190.949416 
L 146.763148 179.216255 
L 149.48676 192.870144 
L 152.210372 184.722965 
L 154.933984 193.159719 
L 157.657596 191.765857 
L 160.381208 203.492095 
L 163.10482 195.50035 
L 165.828432 200.417496 
L 168.552044 200.559362 
L 171.275656 202.653713 
L 173.999268 203.433068 
L 176.72288 208.209659 
L 179.446492 214.901844 
L 182.170104 211.934505 
L 184.893716 203.32296 
L 187.617328 216.385057 
L 190.34094 218.568269 
L 193.064552 209.844373 
L 195.788164 219.383177 
L 198.511775 223.02157 
L 201.235387 220.672574 
L 203.958999 204.095167 
L 206.682611 221.05329 
L 209.406223 215.364577 
L 212.129835 220.426147 
L 214.853447 212.547288 
L 217.577059 215.953304 
L 220.300671 217.304784 
L 223.024283 222.836018 
L 225.747895 219.002224 
L 228.471507 218.476375 
L 231.195119 215.562879 
L 233.918731 217.772304 
L 236.642343 223.363174 
L 239.365955 221.48358 
L 242.089567 221.721484 
L 244.813179 228.379365 
L 247.536791 230.001822 
L 250.260403 228.9828 
L 252.984015 214.224287 
L 255.707627 231.696132 
L 258.431239 221.222271 
L 261.154851 226.381053 
L 263.878462 222.473512 
L 266.602074 224.755996 
L 269.325686 220.788693 
L 272.049298 224.956487 
L 274.77291 219.713348 
L 277.496522 222.619756 
L 280.220134 227.315642 
L 282.943746 226.633246 
L 285.667358 227.881628 
L 288.39097 221.701513 
L 291.114582 222.017133 
L 293.838194 225.442503 
L 296.561806 226.536689 
L 299.285418 225.344937 
L 302.00903 235.306739 
L 304.732642 224.927297 
L 307.456254 222.619667 
L 310.179866 228.24259 
L 312.903478 227.276508 
L 315.62709 227.261551 
L 318.350702 229.064594 
L 321.074314 225.121887 
L 323.797926 233.641379 
L 326.521538 232.340426 
L 329.245149 232.403935 
L 331.968761 232.016365 
L 334.692373 229.84769 
L 337.415985 230.320676 
L 340.139597 229.476664 
L 342.863209 234.30732 
L 345.586821 231.993039 
L 348.310433 233.452137 
L 351.034045 231.874091 
L 353.757657 230.505447 
L 356.481269 228.722604 
" clip-path="url(#pb39c6e0e14)" style="fill: none; stroke: #ff7f0e; stroke-width: 1.5; stroke-linecap: square"/>
   </g>
   <g id="line2d_37">
    <path d="M 92.290909 44.64 
L 95.014521 76.204468 
L 97.738133 135.104923 
L 100.461745 123.891173 
L 103.185357 133.370835 
L 105.908969 151.15107 
L 108.632581 141.672888 
L 111.356193 143.302696 
L 114.079805 175.094542 
L 116.803417 163.788426 
L 119.527029 182.083965 
L 122.250641 154.597094 
L 124.974253 179.519053 
L 127.697865 168.486106 
L 130.421477 169.548138 
L 133.145088 178.228639 
L 135.8687 172.947864 
L 138.592312 174.581554 
L 141.315924 198.240996 
L 144.039536 187.392091 
L 146.763148 184.684009 
L 149.48676 184.277681 
L 152.210372 185.466106 
L 154.933984 181.788428 
L 157.657596 185.748745 
L 160.381208 199.140102 
L 163.10482 195.364816 
L 165.828432 194.274139 
L 168.552044 196.828684 
L 171.275656 203.693769 
L 173.999268 203.997 
L 176.72288 202.587947 
L 179.446492 205.247683 
L 182.170104 201.892167 
L 187.617328 201.514538 
L 190.34094 210.883886 
L 193.064552 207.613392 
L 195.788164 212.123595 
L 198.511775 214.198763 
L 201.235387 220.187661 
L 203.958999 209.194573 
L 206.682611 215.739588 
L 209.406223 215.709397 
L 212.129835 218.470311 
L 214.853447 212.609521 
L 217.577059 216.019526 
L 220.300671 225.024627 
L 223.024283 218.816528 
L 225.747895 221.39001 
L 228.471507 221.290911 
L 231.195119 228.377181 
L 233.918731 221.679133 
L 236.642343 221.262088 
L 239.365955 233.448336 
L 242.089567 231.431769 
L 244.813179 230.287316 
L 247.536791 234.004501 
L 250.260403 229.573603 
L 252.984015 226.658245 
L 255.707627 225.093434 
L 258.431239 229.638575 
L 261.154851 221.902411 
L 263.878462 225.520742 
L 266.602074 220.388914 
L 269.325686 223.642865 
L 272.049298 224.194511 
L 274.77291 225.411418 
L 277.496522 218.519418 
L 280.220134 232.543309 
L 282.943746 237.387944 
L 285.667358 236.302916 
L 288.39097 234.333606 
L 291.114582 227.703097 
L 293.838194 229.757969 
L 296.561806 229.290792 
L 302.00903 232.959265 
L 304.732642 226.034714 
L 307.456254 236.273122 
L 310.179866 235.802873 
L 312.903478 233.266797 
L 315.62709 232.069983 
L 318.350702 240.565788 
L 321.074314 238.419397 
L 323.797926 237.119525 
L 326.521538 238.426147 
L 329.245149 235.360383 
L 331.968761 238.629397 
L 334.692373 235.093377 
L 337.415985 234.689219 
L 340.139597 235.100701 
L 342.863209 231.078423 
L 345.586821 240.353405 
L 348.310433 231.580541 
L 351.034045 242.346029 
L 353.757657 234.362981 
L 356.481269 237.336695 
L 359.204881 237.62361 
L 361.928493 235.744531 
L 364.652105 237.019959 
L 367.375717 238.097962 
L 370.099329 238.722752 
L 372.822941 241.162099 
L 375.546553 235.591143 
L 378.270165 241.844486 
L 380.993777 238.670268 
L 383.717389 237.449016 
L 386.441001 239.569402 
L 389.164613 243.586097 
L 391.888225 242.689459 
L 394.611836 244.56961 
L 397.335448 243.370565 
L 400.05906 242.537654 
L 402.782672 240.460476 
L 405.506284 244.065031 
L 408.229896 238.390807 
L 410.953508 242.022303 
L 413.67712 236.531247 
L 416.400732 242.461609 
L 419.124344 243.62439 
L 421.847956 240.632679 
L 424.571568 239.812543 
L 427.29518 242.288699 
L 430.018792 243.601384 
L 432.742404 236.702009 
L 435.466016 245.251249 
L 438.189628 240.288342 
L 440.91324 236.99564 
L 443.636852 245.535613 
L 449.084076 241.329803 
L 454.5313 241.936264 
L 457.254912 239.314854 
L 459.978523 240.250116 
L 462.702135 237.171143 
L 465.425747 245.018749 
L 468.149359 242.592441 
L 470.872971 243.954501 
L 473.596583 240.163101 
L 476.320195 240.372005 
L 479.043807 240.863866 
L 481.767419 240.751098 
L 484.491031 242.209471 
L 487.214643 243.347127 
L 492.661867 238.205622 
L 495.385479 239.423016 
L 498.109091 239.683637 
L 498.109091 239.683637 
" clip-path="url(#pb39c6e0e14)" style="fill: none; stroke: #2ca02c; stroke-width: 1.5; stroke-linecap: square"/>
   </g>
   <g id="line2d_38">
    <path d="M 92.290909 55.59737 
L 95.014521 102.85067 
L 97.738133 84.747937 
L 100.461745 133.123068 
L 103.185357 132.414289 
L 105.908969 151.308935 
L 108.632581 133.538092 
L 111.356193 152.674947 
L 114.079805 175.617443 
L 116.803417 140.97389 
L 119.527029 177.315558 
L 122.250641 184.058876 
L 124.974253 180.02103 
L 127.697865 154.540929 
L 130.421477 188.984981 
L 133.145088 191.69576 
L 135.8687 193.366301 
L 138.592312 189.952749 
L 141.315924 172.84742 
L 144.039536 191.513671 
L 146.763148 201.716922 
L 149.48676 194.227488 
L 152.210372 198.139901 
L 154.933984 196.887866 
L 157.657596 199.792844 
L 160.381208 205.42942 
L 163.10482 200.029532 
L 165.828432 205.039189 
L 168.552044 205.652517 
L 171.275656 206.111467 
L 173.999268 212.076898 
L 176.72288 217.940203 
L 179.446492 213.291317 
L 182.170104 212.716332 
L 184.893716 212.497756 
L 187.617328 210.735076 
L 190.34094 209.479148 
L 193.064552 211.183653 
L 195.788164 224.494537 
L 198.511775 213.185038 
L 201.235387 218.627283 
L 203.958999 221.340877 
L 206.682611 210.552593 
L 209.406223 214.817478 
L 212.129835 216.199109 
L 214.853447 221.803239 
L 217.577059 220.081355 
L 220.300671 221.269613 
L 223.024283 215.049211 
L 225.747895 224.333966 
L 228.471507 221.516538 
L 231.195119 213.698792 
L 233.918731 221.176077 
L 236.642343 225.428743 
L 239.365955 222.031376 
L 242.089567 224.602771 
L 244.813179 224.539641 
L 247.536791 218.150537 
L 250.260403 220.249594 
L 252.984015 224.160226 
L 255.707627 226.296725 
L 258.431239 226.736361 
L 261.154851 229.121768 
L 263.878462 230.303153 
L 266.602074 224.267211 
L 269.325686 221.2568 
L 272.049298 219.337527 
L 274.77291 223.042214 
L 277.496522 229.193782 
L 280.220134 225.147676 
L 282.943746 223.225034 
L 285.667358 227.825146 
L 288.39097 224.453002 
L 291.114582 225.69963 
L 293.838194 221.239391 
L 296.561806 217.403407 
L 299.285418 229.313487 
L 302.00903 223.870629 
L 304.732642 228.904357 
L 307.456254 222.65449 
L 310.179866 222.577006 
L 312.903478 224.786049 
L 315.62709 225.271438 
L 318.350702 224.262104 
" clip-path="url(#pb39c6e0e14)" style="fill: none; stroke: #d62728; stroke-width: 1.5; stroke-linecap: square"/>
   </g>
   <g id="line2d_39">
    <path d="M 92.290909 45.3249 
L 95.014521 55.728185 
L 97.738133 58.424495 
L 100.461745 102.130367 
L 103.185357 86.100504 
L 105.908969 114.393117 
L 108.632581 146.074294 
L 111.356193 145.587302 
L 114.079805 161.310681 
L 116.803417 149.921003 
L 119.527029 155.576855 
L 122.250641 175.870903 
L 124.974253 171.811183 
L 127.697865 162.504714 
L 130.421477 176.046272 
L 133.145088 182.742523 
L 135.8687 197.972711 
L 138.592312 188.336538 
L 141.315924 190.2593 
L 144.039536 183.69225 
L 146.763148 183.82867 
L 149.48676 187.119411 
L 152.210372 191.071881 
L 154.933984 194.475331 
L 157.657596 191.292719 
L 160.381208 208.32942 
L 163.10482 201.066781 
L 165.828432 209.870268 
L 168.552044 206.630387 
L 171.275656 213.241449 
L 173.999268 201.044941 
L 176.72288 203.167654 
L 179.446492 216.192711 
L 182.170104 202.351902 
L 184.893716 208.229376 
L 187.617328 205.677897 
L 190.34094 207.020187 
L 193.064552 202.379199 
L 195.788164 203.264765 
L 198.511775 206.586234 
L 201.235387 217.213894 
L 203.958999 205.066563 
L 206.682611 208.198793 
L 209.406223 212.326786 
L 212.129835 213.1197 
L 214.853447 219.215079 
L 217.577059 214.701215 
L 220.300671 218.500177 
L 223.024283 218.125539 
L 225.747895 221.01634 
L 228.471507 217.012113 
L 231.195119 217.467409 
L 233.918731 220.691802 
L 236.642343 220.505078 
L 239.365955 222.48819 
L 242.089567 221.10615 
L 244.813179 221.613064 
L 247.536791 225.18678 
L 250.260403 226.779613 
L 252.984015 224.479755 
L 255.707627 232.030889 
L 258.431239 226.045555 
L 261.154851 226.730845 
L 263.878462 228.694403 
L 266.602074 228.185771 
L 269.325686 224.977185 
L 272.049298 229.868657 
L 274.77291 224.295614 
L 277.496522 232.956964 
L 280.220134 229.670551 
L 282.943746 228.648694 
L 285.667358 226.102628 
L 288.39097 229.754015 
L 291.114582 229.122518 
L 293.838194 222.6477 
L 296.561806 224.797974 
L 299.285418 234.965637 
L 302.00903 226.388476 
L 304.732642 226.298239 
L 307.456254 230.791172 
L 310.179866 232.664383 
L 312.903478 227.612297 
L 315.62709 228.0505 
L 318.350702 229.169138 
L 321.074314 218.056854 
L 323.797926 220.380135 
L 326.521538 229.881126 
L 329.245149 227.01983 
L 331.968761 229.671832 
L 334.692373 228.838907 
L 337.415985 233.874222 
L 340.139597 233.398446 
L 342.863209 230.005123 
L 345.586821 230.880831 
L 348.310433 230.839615 
L 351.034045 228.614781 
L 353.757657 227.89493 
" clip-path="url(#pb39c6e0e14)" style="fill: none; stroke: #9467bd; stroke-width: 1.5; stroke-linecap: square"/>
   </g>
   <g id="patch_3">
    <path d="M 72 256.32 
L 72 34.56 
" style="fill: none; stroke: #000000; stroke-width: 0.8; stroke-linejoin: miter; stroke-linecap: square"/>
   </g>
   <g id="patch_4">
    <path d="M 518.4 256.32 
L 518.4 34.56 
" style="fill: none; stroke: #000000; stroke-width: 0.8; stroke-linejoin: miter; stroke-linecap: square"/>
   </g>
   <g id="patch_5">
    <path d="M 72 256.32 
L 518.4 256.32 
" style="fill: none; stroke: #000000; stroke-width: 0.8; stroke-linejoin: miter; stroke-linecap: square"/>
   </g>
   <g id="patch_6">
    <path d="M 72 34.56 
L 518.4 34.56 
" style="fill: none; stroke: #000000; stroke-width: 0.8; stroke-linejoin: miter; stroke-linecap: square"/>
   </g>
   <g id="legend_1">
    <g id="patch_7">
     <path d="M 341.814062 130.62875 
L 511.4 130.62875 
Q 513.4 130.62875 513.4 128.62875 
L 513.4 41.56 
Q 513.4 39.56 511.4 39.56 
L 341.814062 39.56 
Q 339.814062 39.56 339.814062 41.56 
L 339.814062 128.62875 
Q 339.814062 130.62875 341.814062 130.62875 
z
" style="fill: #ffffff; opacity: 0.8; stroke: #cccccc; stroke-linejoin: miter"/>
    </g>
    <g id="text_20">
     <!-- average inchikey sampling count -->
     <g transform="translate(343.814062 51.158438) scale(0.1 -0.1)">
      <defs>
       <path id="DejaVuSans-76" d="M 191 3500 
L 800 3500 
L 1894 563 
L 2988 3500 
L 3597 3500 
L 2284 0 
L 1503 0 
L 191 3500 
z
" transform="scale(0.015625)"/>
       <path id="DejaVuSans-65" d="M 3597 1894 
L 3597 1613 
L 953 1613 
Q 991 1019 1311 708 
Q 1631 397 2203 397 
Q 2534 397 2845 478 
Q 3156 559 3463 722 
L 3463 178 
Q 3153 47 2828 -22 
Q 2503 -91 2169 -91 
Q 1331 -91 842 396 
Q 353 884 353 1716 
Q 353 2575 817 3079 
Q 1281 3584 2069 3584 
Q 2775 3584 3186 3129 
Q 3597 2675 3597 1894 
z
M 3022 2063 
Q 3016 2534 2758 2815 
Q 2500 3097 2075 3097 
Q 1594 3097 1305 2825 
Q 1016 2553 972 2059 
L 3022 2063 
z
" transform="scale(0.015625)"/>
       <path id="DejaVuSans-72" d="M 2631 2963 
Q 2534 3019 2420 3045 
Q 2306 3072 2169 3072 
Q 1681 3072 1420 2755 
Q 1159 2438 1159 1844 
L 1159 0 
L 581 0 
L 581 3500 
L 1159 3500 
L 1159 2956 
Q 1341 3275 1631 3429 
Q 1922 3584 2338 3584 
Q 2397 3584 2469 3576 
Q 2541 3569 2628 3553 
L 2631 2963 
z
" transform="scale(0.015625)"/>
       <path id="DejaVuSans-67" d="M 2906 1791 
Q 2906 2416 2648 2759 
Q 2391 3103 1925 3103 
Q 1463 3103 1205 2759 
Q 947 2416 947 1791 
Q 947 1169 1205 825 
Q 1463 481 1925 481 
Q 2391 481 2648 825 
Q 2906 1169 2906 1791 
z
M 3481 434 
Q 3481 -459 3084 -895 
Q 2688 -1331 1869 -1331 
Q 1566 -1331 1297 -1286 
Q 1028 -1241 775 -1147 
L 775 -588 
Q 1028 -725 1275 -790 
Q 1522 -856 1778 -856 
Q 2344 -856 2625 -561 
Q 2906 -266 2906 331 
L 2906 616 
Q 2728 306 2450 153 
Q 2172 0 1784 0 
Q 1141 0 747 490 
Q 353 981 353 1791 
Q 353 2603 747 3093 
Q 1141 3584 1784 3584 
Q 2172 3584 2450 3431 
Q 2728 3278 2906 2969 
L 2906 3500 
L 3481 3500 
L 3481 434 
z
" transform="scale(0.015625)"/>
       <path id="DejaVuSans-6b" d="M 581 4863 
L 1159 4863 
L 1159 1991 
L 2875 3500 
L 3609 3500 
L 1753 1863 
L 3688 0 
L 2938 0 
L 1159 1709 
L 1159 0 
L 581 0 
L 581 4863 
z
" transform="scale(0.015625)"/>
       <path id="DejaVuSans-79" d="M 2059 -325 
Q 1816 -950 1584 -1140 
Q 1353 -1331 966 -1331 
L 506 -1331 
L 506 -850 
L 844 -850 
Q 1081 -850 1212 -737 
Q 1344 -625 1503 -206 
L 1606 56 
L 191 3500 
L 800 3500 
L 1894 763 
L 2988 3500 
L 3597 3500 
L 2059 -325 
z
" transform="scale(0.015625)"/>
       <path id="DejaVuSans-73" d="M 2834 3397 
L 2834 2853 
Q 2591 2978 2328 3040 
Q 2066 3103 1784 3103 
Q 1356 3103 1142 2972 
Q 928 2841 928 2578 
Q 928 2378 1081 2264 
Q 1234 2150 1697 2047 
L 1894 2003 
Q 2506 1872 2764 1633 
Q 3022 1394 3022 966 
Q 3022 478 2636 193 
Q 2250 -91 1575 -91 
Q 1294 -91 989 -36 
Q 684 19 347 128 
L 347 722 
Q 666 556 975 473 
Q 1284 391 1588 391 
Q 1994 391 2212 530 
Q 2431 669 2431 922 
Q 2431 1156 2273 1281 
Q 2116 1406 1581 1522 
L 1381 1569 
Q 847 1681 609 1914 
Q 372 2147 372 2553 
Q 372 3047 722 3315 
Q 1072 3584 1716 3584 
Q 2034 3584 2315 3537 
Q 2597 3491 2834 3397 
z
" transform="scale(0.015625)"/>
       <path id="DejaVuSans-6d" d="M 3328 2828 
Q 3544 3216 3844 3400 
Q 4144 3584 4550 3584 
Q 5097 3584 5394 3201 
Q 5691 2819 5691 2113 
L 5691 0 
L 5113 0 
L 5113 2094 
Q 5113 2597 4934 2840 
Q 4756 3084 4391 3084 
Q 3944 3084 3684 2787 
Q 3425 2491 3425 1978 
L 3425 0 
L 2847 0 
L 2847 2094 
Q 2847 2600 2669 2842 
Q 2491 3084 2119 3084 
Q 1678 3084 1418 2786 
Q 1159 2488 1159 1978 
L 1159 0 
L 581 0 
L 581 3500 
L 1159 3500 
L 1159 2956 
Q 1356 3278 1631 3431 
Q 1906 3584 2284 3584 
Q 2666 3584 2933 3390 
Q 3200 3197 3328 2828 
z
" transform="scale(0.015625)"/>
       <path id="DejaVuSans-75" d="M 544 1381 
L 544 3500 
L 1119 3500 
L 1119 1403 
Q 1119 906 1312 657 
Q 1506 409 1894 409 
Q 2359 409 2629 706 
Q 2900 1003 2900 1516 
L 2900 3500 
L 3475 3500 
L 3475 0 
L 2900 0 
L 2900 538 
Q 2691 219 2414 64 
Q 2138 -91 1772 -91 
Q 1169 -91 856 284 
Q 544 659 544 1381 
z
M 1991 3584 
L 1991 3584 
z
" transform="scale(0.015625)"/>
      </defs>
      <use xlink:href="#DejaVuSans-61"/>
      <use xlink:href="#DejaVuSans-76" x="61.279297"/>
      <use xlink:href="#DejaVuSans-65" x="120.458984"/>
      <use xlink:href="#DejaVuSans-72" x="181.982422"/>
      <use xlink:href="#DejaVuSans-61" x="223.095703"/>
      <use xlink:href="#DejaVuSans-67" x="284.375"/>
      <use xlink:href="#DejaVuSans-65" x="347.851562"/>
      <use xlink:href="#DejaVuSans-20" x="409.375"/>
      <use xlink:href="#DejaVuSans-69" x="441.162109"/>
      <use xlink:href="#DejaVuSans-6e" x="468.945312"/>
      <use xlink:href="#DejaVuSans-63" x="532.324219"/>
      <use xlink:href="#DejaVuSans-68" x="587.304688"/>
      <use xlink:href="#DejaVuSans-69" x="650.683594"/>
      <use xlink:href="#DejaVuSans-6b" x="678.466797"/>
      <use xlink:href="#DejaVuSans-65" x="732.751953"/>
      <use xlink:href="#DejaVuSans-79" x="794.275391"/>
      <use xlink:href="#DejaVuSans-20" x="853.455078"/>
      <use xlink:href="#DejaVuSans-73" x="885.242188"/>
      <use xlink:href="#DejaVuSans-61" x="937.341797"/>
      <use xlink:href="#DejaVuSans-6d" x="998.621094"/>
      <use xlink:href="#DejaVuSans-70" x="1096.033203"/>
      <use xlink:href="#DejaVuSans-6c" x="1159.509766"/>
      <use xlink:href="#DejaVuSans-69" x="1187.292969"/>
      <use xlink:href="#DejaVuSans-6e" x="1215.076172"/>
      <use xlink:href="#DejaVuSans-67" x="1278.455078"/>
      <use xlink:href="#DejaVuSans-20" x="1341.931641"/>
      <use xlink:href="#DejaVuSans-63" x="1373.71875"/>
      <use xlink:href="#DejaVuSans-6f" x="1428.699219"/>
      <use xlink:href="#DejaVuSans-75" x="1489.880859"/>
      <use xlink:href="#DejaVuSans-6e" x="1553.259766"/>
      <use xlink:href="#DejaVuSans-74" x="1616.638672"/>
     </g>
    </g>
    <g id="line2d_40">
     <path d="M 399.882031 62.336563 
L 409.882031 62.336563 
L 419.882031 62.336563 
" style="fill: none; stroke: #1f77b4; stroke-width: 1.5; stroke-linecap: square"/>
    </g>
    <g id="text_21">
     <!-- 100 -->
     <g transform="translate(427.882031 65.836563) scale(0.1 -0.1)">
      <use xlink:href="#DejaVuSans-31"/>
      <use xlink:href="#DejaVuSans-30" x="63.623047"/>
      <use xlink:href="#DejaVuSans-30" x="127.246094"/>
     </g>
    </g>
    <g id="line2d_41">
     <path d="M 399.882031 77.014688 
L 409.882031 77.014688 
L 419.882031 77.014688 
" style="fill: none; stroke: #ff7f0e; stroke-width: 1.5; stroke-linecap: square"/>
    </g>
    <g id="text_22">
     <!-- 400 -->
     <g transform="translate(427.882031 80.514688) scale(0.1 -0.1)">
      <use xlink:href="#DejaVuSans-34"/>
      <use xlink:href="#DejaVuSans-30" x="63.623047"/>
      <use xlink:href="#DejaVuSans-30" x="127.246094"/>
     </g>
    </g>
    <g id="line2d_42">
     <path d="M 399.882031 91.692813 
L 409.882031 91.692813 
L 419.882031 91.692813 
" style="fill: none; stroke: #2ca02c; stroke-width: 1.5; stroke-linecap: square"/>
    </g>
    <g id="text_23">
     <!-- 800 -->
     <g transform="translate(427.882031 95.192813) scale(0.1 -0.1)">
      <use xlink:href="#DejaVuSans-38"/>
      <use xlink:href="#DejaVuSans-30" x="63.623047"/>
      <use xlink:href="#DejaVuSans-30" x="127.246094"/>
     </g>
    </g>
    <g id="line2d_43">
     <path d="M 399.882031 106.370938 
L 409.882031 106.370938 
L 419.882031 106.370938 
" style="fill: none; stroke: #d62728; stroke-width: 1.5; stroke-linecap: square"/>
    </g>
    <g id="text_24">
     <!-- 1600 -->
     <g transform="translate(427.882031 109.870938) scale(0.1 -0.1)">
      <use xlink:href="#DejaVuSans-31"/>
      <use xlink:href="#DejaVuSans-36" x="63.623047"/>
      <use xlink:href="#DejaVuSans-30" x="127.246094"/>
      <use xlink:href="#DejaVuSans-30" x="190.869141"/>
     </g>
    </g>
    <g id="line2d_44">
     <path d="M 399.882031 121.049063 
L 409.882031 121.049063 
L 419.882031 121.049063 
" style="fill: none; stroke: #9467bd; stroke-width: 1.5; stroke-linecap: square"/>
    </g>
    <g id="text_25">
     <!-- 3200 -->
     <g transform="translate(427.882031 124.549063) scale(0.1 -0.1)">
      <use xlink:href="#DejaVuSans-33"/>
      <use xlink:href="#DejaVuSans-32" x="63.623047"/>
      <use xlink:href="#DejaVuSans-30" x="127.246094"/>
      <use xlink:href="#DejaVuSans-30" x="190.869141"/>
     </g>
    </g>
   </g>
  </g>
 </g>
 <defs>
  <clipPath id="pb39c6e0e14">
   <rect x="72" y="34.56" width="446.4" height="221.76"/>
  </clipPath>
 </defs>
</svg>
