<?xml version="1.0" encoding="utf-8" standalone="no"?>
<!DOCTYPE svg PUBLIC "-//W3C//DTD SVG 1.1//EN"
  "http://www.w3.org/Graphics/SVG/1.1/DTD/svg11.dtd">
<svg xmlns:xlink="http://www.w3.org/1999/xlink" width="576pt" height="288pt" viewBox="0 0 576 288" xmlns="http://www.w3.org/2000/svg" version="1.1">
 <metadata>
  <rdf:RDF xmlns:dc="http://purl.org/dc/elements/1.1/" xmlns:cc="http://creativecommons.org/ns#" xmlns:rdf="http://www.w3.org/1999/02/22-rdf-syntax-ns#">
   <cc:Work>
    <dc:type rdf:resource="http://purl.org/dc/dcmitype/StillImage"/>
    <dc:date>2024-12-17T15:33:11.341361</dc:date>
    <dc:format>image/svg+xml</dc:format>
    <dc:creator>
     <cc:Agent>
      <dc:title>Matplotlib v3.7.2, https://matplotlib.org/</dc:title>
     </cc:Agent>
    </dc:creator>
   </cc:Work>
  </rdf:RDF>
 </metadata>
 <defs>
  <style type="text/css">*{stroke-linejoin: round; stroke-linecap: butt}</style>
 </defs>
 <g id="figure_1">
  <g id="patch_1">
   <path d="M 0 288 
L 576 288 
L 576 0 
L 0 0 
z
" style="fill: #ffffff"/>
  </g>
  <g id="axes_1">
   <g id="patch_2">
    <path d="M 72 256.32 
L 518.4 256.32 
L 518.4 34.56 
L 72 34.56 
z
" style="fill: #ffffff"/>
   </g>
   <g id="matplotlib.axis_1">
    <g id="xtick_1">
     <g id="line2d_1">
      <path d="M 92.290909 256.32 
L 92.290909 34.56 
" clip-path="url(#pa1a7c948ed)" style="fill: none; stroke: #b0b0b0; stroke-width: 0.8; stroke-linecap: square"/>
     </g>
     <g id="line2d_2">
      <defs>
       <path id="m262c383702" d="M 0 0 
L 0 3.5 
" style="stroke: #000000; stroke-width: 0.8"/>
      </defs>
      <g>
       <use xlink:href="#m262c383702" x="92.290909" y="256.32" style="stroke: #000000; stroke-width: 0.8"/>
      </g>
     </g>
     <g id="text_1">
      <!-- 0 -->
      <g transform="translate(89.109659 270.918437) scale(0.1 -0.1)">
       <defs>
        <path id="DejaVuSans-30" d="M 2034 4250 
Q 1547 4250 1301 3770 
Q 1056 3291 1056 2328 
Q 1056 1369 1301 889 
Q 1547 409 2034 409 
Q 2525 409 2770 889 
Q 3016 1369 3016 2328 
Q 3016 3291 2770 3770 
Q 2525 4250 2034 4250 
z
M 2034 4750 
Q 2819 4750 3233 4129 
Q 3647 3509 3647 2328 
Q 3647 1150 3233 529 
Q 2819 -91 2034 -91 
Q 1250 -91 836 529 
Q 422 1150 422 2328 
Q 422 3509 836 4129 
Q 1250 4750 2034 4750 
z
" transform="scale(0.015625)"/>
       </defs>
       <use xlink:href="#DejaVuSans-30"/>
      </g>
     </g>
    </g>
    <g id="xtick_2">
     <g id="line2d_3">
      <path d="M 149.935537 256.32 
L 149.935537 34.56 
" clip-path="url(#pa1a7c948ed)" style="fill: none; stroke: #b0b0b0; stroke-width: 0.8; stroke-linecap: square"/>
     </g>
     <g id="line2d_4">
      <g>
       <use xlink:href="#m262c383702" x="149.935537" y="256.32" style="stroke: #000000; stroke-width: 0.8"/>
      </g>
     </g>
     <g id="text_2">
      <!-- 25 -->
      <g transform="translate(143.573037 270.918437) scale(0.1 -0.1)">
       <defs>
        <path id="DejaVuSans-32" d="M 1228 531 
L 3431 531 
L 3431 0 
L 469 0 
L 469 531 
Q 828 903 1448 1529 
Q 2069 2156 2228 2338 
Q 2531 2678 2651 2914 
Q 2772 3150 2772 3378 
Q 2772 3750 2511 3984 
Q 2250 4219 1831 4219 
Q 1534 4219 1204 4116 
Q 875 4013 500 3803 
L 500 4441 
Q 881 4594 1212 4672 
Q 1544 4750 1819 4750 
Q 2544 4750 2975 4387 
Q 3406 4025 3406 3419 
Q 3406 3131 3298 2873 
Q 3191 2616 2906 2266 
Q 2828 2175 2409 1742 
Q 1991 1309 1228 531 
z
" transform="scale(0.015625)"/>
        <path id="DejaVuSans-35" d="M 691 4666 
L 3169 4666 
L 3169 4134 
L 1269 4134 
L 1269 2991 
Q 1406 3038 1543 3061 
Q 1681 3084 1819 3084 
Q 2600 3084 3056 2656 
Q 3513 2228 3513 1497 
Q 3513 744 3044 326 
Q 2575 -91 1722 -91 
Q 1428 -91 1123 -41 
Q 819 9 494 109 
L 494 744 
Q 775 591 1075 516 
Q 1375 441 1709 441 
Q 2250 441 2565 725 
Q 2881 1009 2881 1497 
Q 2881 1984 2565 2268 
Q 2250 2553 1709 2553 
Q 1456 2553 1204 2497 
Q 953 2441 691 2322 
L 691 4666 
z
" transform="scale(0.015625)"/>
       </defs>
       <use xlink:href="#DejaVuSans-32"/>
       <use xlink:href="#DejaVuSans-35" x="63.623047"/>
      </g>
     </g>
    </g>
    <g id="xtick_3">
     <g id="line2d_5">
      <path d="M 207.580165 256.32 
L 207.580165 34.56 
" clip-path="url(#pa1a7c948ed)" style="fill: none; stroke: #b0b0b0; stroke-width: 0.8; stroke-linecap: square"/>
     </g>
     <g id="line2d_6">
      <g>
       <use xlink:href="#m262c383702" x="207.580165" y="256.32" style="stroke: #000000; stroke-width: 0.8"/>
      </g>
     </g>
     <g id="text_3">
      <!-- 50 -->
      <g transform="translate(201.217665 270.918437) scale(0.1 -0.1)">
       <use xlink:href="#DejaVuSans-35"/>
       <use xlink:href="#DejaVuSans-30" x="63.623047"/>
      </g>
     </g>
    </g>
    <g id="xtick_4">
     <g id="line2d_7">
      <path d="M 265.224793 256.32 
L 265.224793 34.56 
" clip-path="url(#pa1a7c948ed)" style="fill: none; stroke: #b0b0b0; stroke-width: 0.8; stroke-linecap: square"/>
     </g>
     <g id="line2d_8">
      <g>
       <use xlink:href="#m262c383702" x="265.224793" y="256.32" style="stroke: #000000; stroke-width: 0.8"/>
      </g>
     </g>
     <g id="text_4">
      <!-- 75 -->
      <g transform="translate(258.862293 270.918437) scale(0.1 -0.1)">
       <defs>
        <path id="DejaVuSans-37" d="M 525 4666 
L 3525 4666 
L 3525 4397 
L 1831 0 
L 1172 0 
L 2766 4134 
L 525 4134 
L 525 4666 
z
" transform="scale(0.015625)"/>
       </defs>
       <use xlink:href="#DejaVuSans-37"/>
       <use xlink:href="#DejaVuSans-35" x="63.623047"/>
      </g>
     </g>
    </g>
    <g id="xtick_5">
     <g id="line2d_9">
      <path d="M 322.869421 256.32 
L 322.869421 34.56 
" clip-path="url(#pa1a7c948ed)" style="fill: none; stroke: #b0b0b0; stroke-width: 0.8; stroke-linecap: square"/>
     </g>
     <g id="line2d_10">
      <g>
       <use xlink:href="#m262c383702" x="322.869421" y="256.32" style="stroke: #000000; stroke-width: 0.8"/>
      </g>
     </g>
     <g id="text_5">
      <!-- 100 -->
      <g transform="translate(313.325671 270.918437) scale(0.1 -0.1)">
       <defs>
        <path id="DejaVuSans-31" d="M 794 531 
L 1825 531 
L 1825 4091 
L 703 3866 
L 703 4441 
L 1819 4666 
L 2450 4666 
L 2450 531 
L 3481 531 
L 3481 0 
L 794 0 
L 794 531 
z
" transform="scale(0.015625)"/>
       </defs>
       <use xlink:href="#DejaVuSans-31"/>
       <use xlink:href="#DejaVuSans-30" x="63.623047"/>
       <use xlink:href="#DejaVuSans-30" x="127.246094"/>
      </g>
     </g>
    </g>
    <g id="xtick_6">
     <g id="line2d_11">
      <path d="M 380.51405 256.32 
L 380.51405 34.56 
" clip-path="url(#pa1a7c948ed)" style="fill: none; stroke: #b0b0b0; stroke-width: 0.8; stroke-linecap: square"/>
     </g>
     <g id="line2d_12">
      <g>
       <use xlink:href="#m262c383702" x="380.51405" y="256.32" style="stroke: #000000; stroke-width: 0.8"/>
      </g>
     </g>
     <g id="text_6">
      <!-- 125 -->
      <g transform="translate(370.9703 270.918437) scale(0.1 -0.1)">
       <use xlink:href="#DejaVuSans-31"/>
       <use xlink:href="#DejaVuSans-32" x="63.623047"/>
       <use xlink:href="#DejaVuSans-35" x="127.246094"/>
      </g>
     </g>
    </g>
    <g id="xtick_7">
     <g id="line2d_13">
      <path d="M 438.158678 256.32 
L 438.158678 34.56 
" clip-path="url(#pa1a7c948ed)" style="fill: none; stroke: #b0b0b0; stroke-width: 0.8; stroke-linecap: square"/>
     </g>
     <g id="line2d_14">
      <g>
       <use xlink:href="#m262c383702" x="438.158678" y="256.32" style="stroke: #000000; stroke-width: 0.8"/>
      </g>
     </g>
     <g id="text_7">
      <!-- 150 -->
      <g transform="translate(428.614928 270.918437) scale(0.1 -0.1)">
       <use xlink:href="#DejaVuSans-31"/>
       <use xlink:href="#DejaVuSans-35" x="63.623047"/>
       <use xlink:href="#DejaVuSans-30" x="127.246094"/>
      </g>
     </g>
    </g>
    <g id="xtick_8">
     <g id="line2d_15">
      <path d="M 495.803306 256.32 
L 495.803306 34.56 
" clip-path="url(#pa1a7c948ed)" style="fill: none; stroke: #b0b0b0; stroke-width: 0.8; stroke-linecap: square"/>
     </g>
     <g id="line2d_16">
      <g>
       <use xlink:href="#m262c383702" x="495.803306" y="256.32" style="stroke: #000000; stroke-width: 0.8"/>
      </g>
     </g>
     <g id="text_8">
      <!-- 175 -->
      <g transform="translate(486.259556 270.918437) scale(0.1 -0.1)">
       <use xlink:href="#DejaVuSans-31"/>
       <use xlink:href="#DejaVuSans-37" x="63.623047"/>
       <use xlink:href="#DejaVuSans-35" x="127.246094"/>
      </g>
     </g>
    </g>
    <g id="text_9">
     <!-- Epoch -->
     <g transform="translate(279.889062 284.596563) scale(0.1 -0.1)">
      <defs>
       <path id="DejaVuSans-45" d="M 628 4666 
L 3578 4666 
L 3578 4134 
L 1259 4134 
L 1259 2753 
L 3481 2753 
L 3481 2222 
L 1259 2222 
L 1259 531 
L 3634 531 
L 3634 0 
L 628 0 
L 628 4666 
z
" transform="scale(0.015625)"/>
       <path id="DejaVuSans-70" d="M 1159 525 
L 1159 -1331 
L 581 -1331 
L 581 3500 
L 1159 3500 
L 1159 2969 
Q 1341 3281 1617 3432 
Q 1894 3584 2278 3584 
Q 2916 3584 3314 3078 
Q 3713 2572 3713 1747 
Q 3713 922 3314 415 
Q 2916 -91 2278 -91 
Q 1894 -91 1617 61 
Q 1341 213 1159 525 
z
M 3116 1747 
Q 3116 2381 2855 2742 
Q 2594 3103 2138 3103 
Q 1681 3103 1420 2742 
Q 1159 2381 1159 1747 
Q 1159 1113 1420 752 
Q 1681 391 2138 391 
Q 2594 391 2855 752 
Q 3116 1113 3116 1747 
z
" transform="scale(0.015625)"/>
       <path id="DejaVuSans-6f" d="M 1959 3097 
Q 1497 3097 1228 2736 
Q 959 2375 959 1747 
Q 959 1119 1226 758 
Q 1494 397 1959 397 
Q 2419 397 2687 759 
Q 2956 1122 2956 1747 
Q 2956 2369 2687 2733 
Q 2419 3097 1959 3097 
z
M 1959 3584 
Q 2709 3584 3137 3096 
Q 3566 2609 3566 1747 
Q 3566 888 3137 398 
Q 2709 -91 1959 -91 
Q 1206 -91 779 398 
Q 353 888 353 1747 
Q 353 2609 779 3096 
Q 1206 3584 1959 3584 
z
" transform="scale(0.015625)"/>
       <path id="DejaVuSans-63" d="M 3122 3366 
L 3122 2828 
Q 2878 2963 2633 3030 
Q 2388 3097 2138 3097 
Q 1578 3097 1268 2742 
Q 959 2388 959 1747 
Q 959 1106 1268 751 
Q 1578 397 2138 397 
Q 2388 397 2633 464 
Q 2878 531 3122 666 
L 3122 134 
Q 2881 22 2623 -34 
Q 2366 -91 2075 -91 
Q 1284 -91 818 406 
Q 353 903 353 1747 
Q 353 2603 823 3093 
Q 1294 3584 2113 3584 
Q 2378 3584 2631 3529 
Q 2884 3475 3122 3366 
z
" transform="scale(0.015625)"/>
       <path id="DejaVuSans-68" d="M 3513 2113 
L 3513 0 
L 2938 0 
L 2938 2094 
Q 2938 2591 2744 2837 
Q 2550 3084 2163 3084 
Q 1697 3084 1428 2787 
Q 1159 2491 1159 1978 
L 1159 0 
L 581 0 
L 581 4863 
L 1159 4863 
L 1159 2956 
Q 1366 3272 1645 3428 
Q 1925 3584 2291 3584 
Q 2894 3584 3203 3211 
Q 3513 2838 3513 2113 
z
" transform="scale(0.015625)"/>
      </defs>
      <use xlink:href="#DejaVuSans-45"/>
      <use xlink:href="#DejaVuSans-70" x="63.183594"/>
      <use xlink:href="#DejaVuSans-6f" x="126.660156"/>
      <use xlink:href="#DejaVuSans-63" x="187.841797"/>
      <use xlink:href="#DejaVuSans-68" x="242.822266"/>
     </g>
    </g>
   </g>
   <g id="matplotlib.axis_2">
    <g id="ytick_1">
     <g id="line2d_17">
      <path d="M 72 242.507676 
L 518.4 242.507676 
" clip-path="url(#pa1a7c948ed)" style="fill: none; stroke: #b0b0b0; stroke-width: 0.8; stroke-linecap: square"/>
     </g>
     <g id="line2d_18">
      <defs>
       <path id="m4622b2fc77" d="M 0 0 
L -3.5 0 
" style="stroke: #000000; stroke-width: 0.8"/>
      </defs>
      <g>
       <use xlink:href="#m4622b2fc77" x="72" y="242.507676" style="stroke: #000000; stroke-width: 0.8"/>
      </g>
     </g>
     <g id="text_10">
      <!-- 0.035 -->
      <g transform="translate(36.371875 246.306895) scale(0.1 -0.1)">
       <defs>
        <path id="DejaVuSans-2e" d="M 684 794 
L 1344 794 
L 1344 0 
L 684 0 
L 684 794 
z
" transform="scale(0.015625)"/>
        <path id="DejaVuSans-33" d="M 2597 2516 
Q 3050 2419 3304 2112 
Q 3559 1806 3559 1356 
Q 3559 666 3084 287 
Q 2609 -91 1734 -91 
Q 1441 -91 1130 -33 
Q 819 25 488 141 
L 488 750 
Q 750 597 1062 519 
Q 1375 441 1716 441 
Q 2309 441 2620 675 
Q 2931 909 2931 1356 
Q 2931 1769 2642 2001 
Q 2353 2234 1838 2234 
L 1294 2234 
L 1294 2753 
L 1863 2753 
Q 2328 2753 2575 2939 
Q 2822 3125 2822 3475 
Q 2822 3834 2567 4026 
Q 2313 4219 1838 4219 
Q 1578 4219 1281 4162 
Q 984 4106 628 3988 
L 628 4550 
Q 988 4650 1302 4700 
Q 1616 4750 1894 4750 
Q 2613 4750 3031 4423 
Q 3450 4097 3450 3541 
Q 3450 3153 3228 2886 
Q 3006 2619 2597 2516 
z
" transform="scale(0.015625)"/>
       </defs>
       <use xlink:href="#DejaVuSans-30"/>
       <use xlink:href="#DejaVuSans-2e" x="63.623047"/>
       <use xlink:href="#DejaVuSans-30" x="95.410156"/>
       <use xlink:href="#DejaVuSans-33" x="159.033203"/>
       <use xlink:href="#DejaVuSans-35" x="222.65625"/>
      </g>
     </g>
    </g>
    <g id="ytick_2">
     <g id="line2d_19">
      <path d="M 72 197.3806 
L 518.4 197.3806 
" clip-path="url(#pa1a7c948ed)" style="fill: none; stroke: #b0b0b0; stroke-width: 0.8; stroke-linecap: square"/>
     </g>
     <g id="line2d_20">
      <g>
       <use xlink:href="#m4622b2fc77" x="72" y="197.3806" style="stroke: #000000; stroke-width: 0.8"/>
      </g>
     </g>
     <g id="text_11">
      <!-- 0.040 -->
      <g transform="translate(36.371875 201.179819) scale(0.1 -0.1)">
       <defs>
        <path id="DejaVuSans-34" d="M 2419 4116 
L 825 1625 
L 2419 1625 
L 2419 4116 
z
M 2253 4666 
L 3047 4666 
L 3047 1625 
L 3713 1625 
L 3713 1100 
L 3047 1100 
L 3047 0 
L 2419 0 
L 2419 1100 
L 313 1100 
L 313 1709 
L 2253 4666 
z
" transform="scale(0.015625)"/>
       </defs>
       <use xlink:href="#DejaVuSans-30"/>
       <use xlink:href="#DejaVuSans-2e" x="63.623047"/>
       <use xlink:href="#DejaVuSans-30" x="95.410156"/>
       <use xlink:href="#DejaVuSans-34" x="159.033203"/>
       <use xlink:href="#DejaVuSans-30" x="222.65625"/>
      </g>
     </g>
    </g>
    <g id="ytick_3">
     <g id="line2d_21">
      <path d="M 72 152.253525 
L 518.4 152.253525 
" clip-path="url(#pa1a7c948ed)" style="fill: none; stroke: #b0b0b0; stroke-width: 0.8; stroke-linecap: square"/>
     </g>
     <g id="line2d_22">
      <g>
       <use xlink:href="#m4622b2fc77" x="72" y="152.253525" style="stroke: #000000; stroke-width: 0.8"/>
      </g>
     </g>
     <g id="text_12">
      <!-- 0.045 -->
      <g transform="translate(36.371875 156.052744) scale(0.1 -0.1)">
       <use xlink:href="#DejaVuSans-30"/>
       <use xlink:href="#DejaVuSans-2e" x="63.623047"/>
       <use xlink:href="#DejaVuSans-30" x="95.410156"/>
       <use xlink:href="#DejaVuSans-34" x="159.033203"/>
       <use xlink:href="#DejaVuSans-35" x="222.65625"/>
      </g>
     </g>
    </g>
    <g id="ytick_4">
     <g id="line2d_23">
      <path d="M 72 107.12645 
L 518.4 107.12645 
" clip-path="url(#pa1a7c948ed)" style="fill: none; stroke: #b0b0b0; stroke-width: 0.8; stroke-linecap: square"/>
     </g>
     <g id="line2d_24">
      <g>
       <use xlink:href="#m4622b2fc77" x="72" y="107.12645" style="stroke: #000000; stroke-width: 0.8"/>
      </g>
     </g>
     <g id="text_13">
      <!-- 0.050 -->
      <g transform="translate(36.371875 110.925668) scale(0.1 -0.1)">
       <use xlink:href="#DejaVuSans-30"/>
       <use xlink:href="#DejaVuSans-2e" x="63.623047"/>
       <use xlink:href="#DejaVuSans-30" x="95.410156"/>
       <use xlink:href="#DejaVuSans-35" x="159.033203"/>
       <use xlink:href="#DejaVuSans-30" x="222.65625"/>
      </g>
     </g>
    </g>
    <g id="ytick_5">
     <g id="line2d_25">
      <path d="M 72 61.999374 
L 518.4 61.999374 
" clip-path="url(#pa1a7c948ed)" style="fill: none; stroke: #b0b0b0; stroke-width: 0.8; stroke-linecap: square"/>
     </g>
     <g id="line2d_26">
      <g>
       <use xlink:href="#m4622b2fc77" x="72" y="61.999374" style="stroke: #000000; stroke-width: 0.8"/>
      </g>
     </g>
     <g id="text_14">
      <!-- 0.055 -->
      <g transform="translate(36.371875 65.798593) scale(0.1 -0.1)">
       <use xlink:href="#DejaVuSans-30"/>
       <use xlink:href="#DejaVuSans-2e" x="63.623047"/>
       <use xlink:href="#DejaVuSans-30" x="95.410156"/>
       <use xlink:href="#DejaVuSans-35" x="159.033203"/>
       <use xlink:href="#DejaVuSans-35" x="222.65625"/>
      </g>
     </g>
    </g>
    <g id="text_15">
     <!-- Validation MSE -->
     <g transform="translate(30.292188 182.367344) rotate(-90) scale(0.1 -0.1)">
      <defs>
       <path id="DejaVuSans-56" d="M 1831 0 
L 50 4666 
L 709 4666 
L 2188 738 
L 3669 4666 
L 4325 4666 
L 2547 0 
L 1831 0 
z
" transform="scale(0.015625)"/>
       <path id="DejaVuSans-61" d="M 2194 1759 
Q 1497 1759 1228 1600 
Q 959 1441 959 1056 
Q 959 750 1161 570 
Q 1363 391 1709 391 
Q 2188 391 2477 730 
Q 2766 1069 2766 1631 
L 2766 1759 
L 2194 1759 
z
M 3341 1997 
L 3341 0 
L 2766 0 
L 2766 531 
Q 2569 213 2275 61 
Q 1981 -91 1556 -91 
Q 1019 -91 701 211 
Q 384 513 384 1019 
Q 384 1609 779 1909 
Q 1175 2209 1959 2209 
L 2766 2209 
L 2766 2266 
Q 2766 2663 2505 2880 
Q 2244 3097 1772 3097 
Q 1472 3097 1187 3025 
Q 903 2953 641 2809 
L 641 3341 
Q 956 3463 1253 3523 
Q 1550 3584 1831 3584 
Q 2591 3584 2966 3190 
Q 3341 2797 3341 1997 
z
" transform="scale(0.015625)"/>
       <path id="DejaVuSans-6c" d="M 603 4863 
L 1178 4863 
L 1178 0 
L 603 0 
L 603 4863 
z
" transform="scale(0.015625)"/>
       <path id="DejaVuSans-69" d="M 603 3500 
L 1178 3500 
L 1178 0 
L 603 0 
L 603 3500 
z
M 603 4863 
L 1178 4863 
L 1178 4134 
L 603 4134 
L 603 4863 
z
" transform="scale(0.015625)"/>
       <path id="DejaVuSans-64" d="M 2906 2969 
L 2906 4863 
L 3481 4863 
L 3481 0 
L 2906 0 
L 2906 525 
Q 2725 213 2448 61 
Q 2172 -91 1784 -91 
Q 1150 -91 751 415 
Q 353 922 353 1747 
Q 353 2572 751 3078 
Q 1150 3584 1784 3584 
Q 2172 3584 2448 3432 
Q 2725 3281 2906 2969 
z
M 947 1747 
Q 947 1113 1208 752 
Q 1469 391 1925 391 
Q 2381 391 2643 752 
Q 2906 1113 2906 1747 
Q 2906 2381 2643 2742 
Q 2381 3103 1925 3103 
Q 1469 3103 1208 2742 
Q 947 2381 947 1747 
z
" transform="scale(0.015625)"/>
       <path id="DejaVuSans-74" d="M 1172 4494 
L 1172 3500 
L 2356 3500 
L 2356 3053 
L 1172 3053 
L 1172 1153 
Q 1172 725 1289 603 
Q 1406 481 1766 481 
L 2356 481 
L 2356 0 
L 1766 0 
Q 1100 0 847 248 
Q 594 497 594 1153 
L 594 3053 
L 172 3053 
L 172 3500 
L 594 3500 
L 594 4494 
L 1172 4494 
z
" transform="scale(0.015625)"/>
       <path id="DejaVuSans-6e" d="M 3513 2113 
L 3513 0 
L 2938 0 
L 2938 2094 
Q 2938 2591 2744 2837 
Q 2550 3084 2163 3084 
Q 1697 3084 1428 2787 
Q 1159 2491 1159 1978 
L 1159 0 
L 581 0 
L 581 3500 
L 1159 3500 
L 1159 2956 
Q 1366 3272 1645 3428 
Q 1925 3584 2291 3584 
Q 2894 3584 3203 3211 
Q 3513 2838 3513 2113 
z
" transform="scale(0.015625)"/>
       <path id="DejaVuSans-20" transform="scale(0.015625)"/>
       <path id="DejaVuSans-4d" d="M 628 4666 
L 1569 4666 
L 2759 1491 
L 3956 4666 
L 4897 4666 
L 4897 0 
L 4281 0 
L 4281 4097 
L 3078 897 
L 2444 897 
L 1241 4097 
L 1241 0 
L 628 0 
L 628 4666 
z
" transform="scale(0.015625)"/>
       <path id="DejaVuSans-53" d="M 3425 4513 
L 3425 3897 
Q 3066 4069 2747 4153 
Q 2428 4238 2131 4238 
Q 1616 4238 1336 4038 
Q 1056 3838 1056 3469 
Q 1056 3159 1242 3001 
Q 1428 2844 1947 2747 
L 2328 2669 
Q 3034 2534 3370 2195 
Q 3706 1856 3706 1288 
Q 3706 609 3251 259 
Q 2797 -91 1919 -91 
Q 1588 -91 1214 -16 
Q 841 59 441 206 
L 441 856 
Q 825 641 1194 531 
Q 1563 422 1919 422 
Q 2459 422 2753 634 
Q 3047 847 3047 1241 
Q 3047 1584 2836 1778 
Q 2625 1972 2144 2069 
L 1759 2144 
Q 1053 2284 737 2584 
Q 422 2884 422 3419 
Q 422 4038 858 4394 
Q 1294 4750 2059 4750 
Q 2388 4750 2728 4690 
Q 3069 4631 3425 4513 
z
" transform="scale(0.015625)"/>
      </defs>
      <use xlink:href="#DejaVuSans-56"/>
      <use xlink:href="#DejaVuSans-61" x="60.658203"/>
      <use xlink:href="#DejaVuSans-6c" x="121.9375"/>
      <use xlink:href="#DejaVuSans-69" x="149.720703"/>
      <use xlink:href="#DejaVuSans-64" x="177.503906"/>
      <use xlink:href="#DejaVuSans-61" x="240.980469"/>
      <use xlink:href="#DejaVuSans-74" x="302.259766"/>
      <use xlink:href="#DejaVuSans-69" x="341.46875"/>
      <use xlink:href="#DejaVuSans-6f" x="369.251953"/>
      <use xlink:href="#DejaVuSans-6e" x="430.433594"/>
      <use xlink:href="#DejaVuSans-20" x="493.8125"/>
      <use xlink:href="#DejaVuSans-4d" x="525.599609"/>
      <use xlink:href="#DejaVuSans-53" x="611.878906"/>
      <use xlink:href="#DejaVuSans-45" x="675.355469"/>
     </g>
    </g>
   </g>
   <g id="line2d_27">
    <path d="M 92.290909 63.823276 
L 94.596694 83.96871 
L 96.902479 87.129484 
L 99.208264 127.846098 
L 101.51405 107.964503 
L 103.819835 125.912306 
L 106.12562 144.888002 
L 108.431405 155.985399 
L 110.73719 164.95001 
L 113.042975 164.043821 
L 115.34876 163.411433 
L 117.654545 181.224288 
L 119.960331 178.361809 
L 122.266116 166.977387 
L 124.571901 178.534287 
L 126.877686 177.066136 
L 129.183471 170.860365 
L 131.489256 166.427617 
L 133.795041 181.058648 
L 136.100826 189.943677 
L 138.406612 192.993233 
L 140.712397 187.431898 
L 143.018182 198.730603 
L 145.323967 184.894498 
L 147.629752 191.043858 
L 149.935537 192.621763 
L 152.241322 196.265473 
L 154.547107 201.934284 
L 156.852893 200.517241 
L 159.158678 200.173796 
L 161.464463 203.53126 
L 163.770248 195.325638 
L 166.076033 202.772218 
L 168.381818 204.96156 
L 170.687603 200.345012 
L 172.993388 200.280526 
L 175.299174 204.042188 
L 177.604959 214.239922 
L 179.910744 206.079419 
L 182.216529 209.758117 
L 184.522314 208.008497 
L 186.828099 208.969999 
L 189.133884 205.552522 
L 191.439669 205.208326 
L 193.745455 209.724855 
L 196.05124 206.761362 
L 198.357025 209.536601 
L 200.66281 207.409074 
L 202.968595 212.116376 
L 205.27438 210.145029 
L 207.580165 213.644977 
L 209.88595 205.372716 
L 212.191736 207.458832 
L 214.497521 206.544125 
L 216.803306 205.101728 
L 219.109091 211.254988 
L 221.414876 212.334121 
L 223.720661 215.613185 
L 226.026446 213.146642 
L 228.332231 214.233104 
L 230.638017 212.683895 
L 232.943802 210.441725 
L 235.249587 207.401506 
L 237.555372 212.761689 
L 239.861157 210.800535 
L 242.166942 215.263609 
L 244.472727 215.112072 
L 246.778512 216.367686 
L 249.084298 215.712158 
L 251.390083 217.798778 
L 253.695868 220.1399 
L 256.001653 215.898621 
L 258.307438 213.544111 
L 260.613223 213.927419 
L 262.919008 217.440466 
L 265.224793 221.118648 
L 267.530579 209.897829 
L 269.836364 222.798049 
L 272.142149 217.497026 
L 274.447934 218.470252 
L 276.753719 215.444868 
L 279.059504 220.746277 
L 281.365289 217.737152 
L 283.671074 220.145093 
L 285.97686 217.727287 
L 288.282645 216.459488 
L 290.58843 212.657403 
L 292.894215 217.16398 
L 295.2 213.964406 
L 297.505785 221.391178 
L 299.81157 220.22847 
L 302.117355 216.920591 
L 304.42314 217.843857 
L 306.728926 220.240251 
L 309.034711 216.02286 
L 311.340496 220.158342 
L 313.646281 218.465951 
L 315.952066 220.792592 
" clip-path="url(#pa1a7c948ed)" style="fill: none; stroke: #1f77b4; stroke-width: 1.5; stroke-linecap: square"/>
   </g>
   <g id="line2d_28">
    <path d="M 92.290909 75.924577 
L 94.596694 103.471867 
L 96.902479 97.043698 
L 99.208264 127.31758 
L 101.51405 121.432768 
L 103.819835 130.296421 
L 106.12562 140.639436 
L 108.431405 147.913311 
L 110.73719 162.697213 
L 113.042975 161.045576 
L 115.34876 170.618638 
L 117.654545 171.782888 
L 119.960331 174.680174 
L 122.266116 162.365786 
L 124.571901 184.589526 
L 126.877686 174.638512 
L 129.183471 184.414027 
L 131.489256 176.377816 
L 133.795041 183.841241 
L 136.100826 182.465931 
L 138.406612 195.58527 
L 140.712397 192.354618 
L 143.018182 205.198367 
L 145.323967 192.557944 
L 147.629752 198.291044 
L 149.935537 202.347118 
L 152.241322 201.99355 
L 154.547107 202.582013 
L 156.852893 202.693835 
L 159.158678 195.802637 
L 161.464463 200.761448 
L 163.770248 207.935067 
L 166.076033 206.473307 
L 168.381818 203.929509 
L 170.687603 209.876405 
L 172.993388 206.307326 
L 175.299174 207.081908 
L 177.604959 208.387194 
L 179.910744 213.543975 
L 182.216529 215.564951 
L 184.522314 209.488146 
L 186.828099 220.108898 
L 189.133884 220.59962 
L 191.439669 213.221735 
L 193.745455 222.059112 
L 196.05124 211.143347 
L 198.357025 212.841507 
L 200.66281 220.277187 
L 202.968595 214.077105 
L 205.27438 219.42829 
L 207.580165 219.018874 
L 209.88595 216.745083 
L 212.191736 214.719186 
L 214.497521 221.607051 
L 216.803306 223.314891 
L 219.109091 221.290452 
L 221.414876 221.221449 
L 223.720661 219.55077 
L 226.026446 222.635211 
L 228.332231 230.455222 
L 230.638017 221.591335 
L 232.943802 227.430102 
L 235.249587 223.554901 
L 237.555372 223.732874 
L 239.861157 215.98993 
L 242.166942 222.179886 
L 244.472727 224.882672 
L 246.778512 225.517036 
L 249.084298 227.406783 
L 251.390083 224.081702 
L 253.695868 221.455965 
L 256.001653 233.316749 
L 258.307438 227.061959 
L 260.613223 223.982601 
L 262.919008 227.082164 
L 265.224793 225.226571 
L 267.530579 226.741065 
L 269.836364 229.366802 
L 272.142149 224.005266 
L 274.447934 222.562084 
L 276.753719 216.148624 
L 279.059504 231.273007 
L 281.365289 232.514839 
L 283.671074 227.264703 
L 285.97686 233.667552 
L 288.282645 223.337233 
L 290.58843 227.217153 
L 292.894215 231.330379 
L 295.2 234.412101 
L 297.505785 231.097757 
L 299.81157 228.01011 
L 302.117355 223.83762 
L 304.42314 231.575339 
L 306.728926 231.23745 
L 309.034711 226.083099 
L 311.340496 234.956387 
L 313.646281 231.698962 
L 315.952066 231.038941 
L 318.257851 236.846378 
L 320.563636 231.781866 
L 322.869421 233.281972 
L 325.175207 232.264409 
L 327.480992 235.341572 
L 329.786777 234.436639 
L 332.092562 236.839764 
L 334.398347 233.975685 
L 336.704132 238.624467 
L 339.009917 236.334985 
L 341.315702 235.398019 
L 343.621488 233.637345 
L 345.927273 234.077098 
L 348.233058 237.588284 
L 350.538843 235.939584 
L 352.844628 236.296807 
L 355.150413 234.223531 
L 357.456198 235.325277 
L 359.761983 236.229941 
L 362.067769 237.033738 
L 364.373554 237.078143 
L 366.679339 236.518175 
L 368.985124 237.112208 
L 371.290909 228.382122 
L 373.596694 233.209694 
L 375.902479 230.703291 
L 378.208264 237.049958 
L 380.51405 233.918683 
L 382.819835 235.512098 
" clip-path="url(#pa1a7c948ed)" style="fill: none; stroke: #ff7f0e; stroke-width: 1.5; stroke-linecap: square"/>
   </g>
   <g id="line2d_29">
    <path d="M 92.290909 86.823023 
L 94.596694 86.260007 
L 96.902479 92.713208 
L 99.208264 111.444772 
L 101.51405 131.656766 
L 103.819835 142.033357 
L 106.12562 145.118135 
L 108.431405 164.568259 
L 110.73719 147.234222 
L 113.042975 168.644577 
L 115.34876 171.256827 
L 117.654545 173.398113 
L 119.960331 181.857035 
L 122.266116 161.4139 
L 124.571901 171.320307 
L 126.877686 180.223505 
L 129.183471 183.544459 
L 131.489256 178.350087 
L 133.795041 189.61839 
L 136.100826 199.028601 
L 138.406612 190.068574 
L 140.712397 195.967751 
L 143.018182 204.932692 
L 145.323967 184.572437 
L 147.629752 197.266516 
L 149.935537 202.616704 
L 152.241322 215.117446 
L 154.547107 214.425104 
L 156.852893 208.722471 
L 159.158678 209.55631 
L 161.464463 213.989398 
L 163.770248 207.304692 
L 166.076033 221.050078 
L 168.381818 216.17731 
L 170.687603 212.773352 
L 172.993388 207.030264 
L 175.299174 215.392453 
L 177.604959 212.060516 
L 179.910744 214.36844 
L 182.216529 223.025629 
L 184.522314 218.739542 
L 186.828099 221.635645 
L 189.133884 218.310647 
L 191.439669 217.684285 
L 193.745455 216.801829 
L 196.05124 209.928918 
L 198.357025 221.491289 
L 200.66281 221.138893 
L 202.968595 224.714017 
L 205.27438 227.247967 
L 207.580165 229.241262 
L 209.88595 227.764588 
L 212.191736 225.142909 
L 214.497521 221.462531 
L 216.803306 219.956868 
L 219.109091 216.063738 
L 221.414876 218.350024 
L 223.720661 223.13045 
L 226.026446 216.685527 
L 228.332231 221.638667 
L 230.638017 228.613733 
L 232.943802 226.37073 
L 235.249587 223.063948 
L 237.555372 223.443698 
L 239.861157 226.570742 
L 242.166942 228.423239 
L 244.472727 224.950673 
L 246.778512 227.389807 
L 249.084298 228.569826 
L 251.390083 227.449827 
L 253.695868 229.244003 
L 256.001653 228.467613 
L 258.307438 231.274183 
L 260.613223 227.577727 
L 262.919008 226.276968 
L 265.224793 221.709579 
L 267.530579 223.450693 
L 269.836364 227.985304 
L 272.142149 223.268287 
L 274.447934 223.800986 
L 276.753719 225.329038 
L 279.059504 230.56574 
L 281.365289 233.469764 
L 283.671074 232.135336 
L 285.97686 227.060393 
L 288.282645 228.371087 
L 290.58843 220.001113 
L 292.894215 222.71097 
L 295.2 229.489513 
L 297.505785 226.056403 
L 299.81157 228.532627 
L 304.42314 231.892842 
L 306.728926 227.31685 
L 309.034711 230.882656 
L 311.340496 226.026282 
L 313.646281 233.097633 
L 315.952066 234.189653 
L 318.257851 230.552057 
L 320.563636 227.400687 
L 322.869421 227.065416 
L 325.175207 225.326419 
L 327.480992 227.434523 
L 329.786777 229.780538 
L 332.092562 234.476881 
L 334.398347 231.969005 
L 336.704132 230.937373 
L 339.009917 233.868042 
L 343.621488 235.453243 
L 345.927273 235.056549 
L 348.233058 236.902898 
L 350.538843 236.749745 
L 352.844628 233.104332 
L 355.150413 234.607586 
L 357.456198 234.466402 
L 359.761983 236.763093 
L 362.067769 235.950018 
L 364.373554 238.35067 
L 366.679339 237.851158 
L 368.985124 235.842617 
L 371.290909 237.338909 
L 373.596694 237.316251 
L 375.902479 237.939674 
L 378.208264 238.202691 
L 380.51405 238.011549 
L 382.819835 241.054512 
L 385.12562 240.875309 
L 387.431405 238.324027 
L 389.73719 232.57096 
L 392.042975 236.949392 
L 394.34876 239.127286 
L 396.654545 234.408936 
L 398.960331 236.781626 
L 401.266116 237.640784 
L 403.571901 238.261123 
L 405.877686 236.653952 
L 408.183471 238.330853 
L 410.489256 232.860816 
L 412.795041 239.922463 
L 415.100826 235.029009 
L 417.406612 239.091692 
L 419.712397 235.997511 
L 422.018182 235.317796 
L 424.323967 233.480818 
L 428.935537 237.178187 
L 428.935537 237.178187 
" clip-path="url(#pa1a7c948ed)" style="fill: none; stroke: #2ca02c; stroke-width: 1.5; stroke-linecap: square"/>
   </g>
   <g id="line2d_30">
    <path d="M 92.290909 71.433034 
L 94.596694 91.490653 
L 96.902479 81.577133 
L 99.208264 110.746632 
L 101.51405 113.050567 
L 103.819835 134.635798 
L 106.12562 148.044437 
L 108.431405 164.451194 
L 110.73719 151.47099 
L 113.042975 166.333256 
L 115.34876 169.457718 
L 117.654545 177.364752 
L 119.960331 162.407663 
L 122.266116 172.830898 
L 124.571901 179.956455 
L 126.877686 188.11322 
L 129.183471 190.817401 
L 131.489256 176.512921 
L 133.795041 172.143381 
L 136.100826 190.789956 
L 138.406612 193.836471 
L 140.712397 201.208913 
L 143.018182 203.280044 
L 145.323967 196.499288 
L 147.629752 203.911207 
L 149.935537 205.065621 
L 152.241322 216.220719 
L 154.547107 211.652971 
L 156.852893 210.878068 
L 159.158678 213.435456 
L 161.464463 218.033463 
L 163.770248 212.897994 
L 166.076033 216.964505 
L 168.381818 209.438884 
L 170.687603 213.997872 
L 172.993388 207.299897 
L 175.299174 215.494036 
L 177.604959 219.728869 
L 179.910744 213.936827 
L 182.216529 214.545476 
L 184.522314 220.374845 
L 186.828099 219.440744 
L 189.133884 224.628654 
L 191.439669 218.453537 
L 193.745455 218.425705 
L 196.05124 226.221112 
L 198.357025 223.248171 
L 200.66281 228.244863 
L 202.968595 223.741016 
L 205.27438 225.153973 
L 207.580165 231.231696 
L 209.88595 229.248992 
L 212.191736 225.78 
L 214.497521 226.217419 
L 216.803306 227.164285 
L 219.109091 227.138027 
L 221.414876 227.848647 
L 223.720661 228.165418 
L 226.026446 222.70497 
L 228.332231 220.668711 
L 230.638017 231.161781 
L 232.943802 229.256624 
L 235.249587 227.177596 
L 237.555372 228.613498 
L 239.861157 232.17307 
L 242.166942 225.857726 
L 244.472727 232.744358 
L 246.778512 235.845393 
L 249.084298 231.929762 
L 251.390083 235.69798 
L 253.695868 230.225349 
L 258.307438 233.832519 
L 260.613223 229.421293 
L 262.919008 225.928605 
L 265.224793 235.825443 
L 267.530579 234.61841 
L 269.836364 229.976616 
L 272.142149 234.681634 
L 274.447934 234.263685 
L 276.753719 231.827887 
L 279.059504 237.292244 
L 281.365289 237.491438 
L 283.671074 234.037422 
L 285.97686 234.492495 
L 288.282645 238.528676 
L 290.58843 237.367302 
L 292.894215 235.342751 
L 295.2 236.25973 
L 297.505785 234.014547 
L 299.81157 235.288244 
L 302.117355 236.884119 
L 304.42314 239.242157 
L 306.728926 238.805136 
L 309.034711 237.90884 
L 311.340496 239.551215 
L 313.646281 239.624621 
L 315.952066 235.543884 
L 318.257851 235.098063 
L 320.563636 236.776514 
L 322.869421 237.386736 
L 325.175207 233.912324 
L 327.480992 234.95397 
L 329.786777 232.668573 
L 332.092562 233.689582 
L 334.398347 233.215636 
L 336.704132 236.939355 
L 339.009917 237.69122 
L 341.315702 237.7076 
L 343.621488 236.380682 
L 345.927273 241.282098 
L 348.233058 243.405462 
L 350.538843 238.53213 
L 352.844628 240.704809 
L 355.150413 239.590908 
L 357.456198 238.896486 
L 359.761983 244.986786 
L 362.067769 241.041993 
L 364.373554 240.537261 
L 366.679339 238.715907 
L 368.985124 240.688493 
L 371.290909 237.616839 
L 373.596694 240.336038 
L 375.902479 239.236624 
L 378.208264 236.855723 
L 380.51405 237.635815 
L 382.819835 239.744536 
L 385.12562 240.829491 
L 387.431405 238.452345 
L 389.73719 235.862145 
L 392.042975 239.974494 
L 394.34876 238.073234 
L 396.654545 241.029305 
L 398.960331 236.615639 
L 401.266116 236.779492 
L 403.571901 240.427811 
L 405.877686 238.033137 
L 405.877686 238.033137 
" clip-path="url(#pa1a7c948ed)" style="fill: none; stroke: #d62728; stroke-width: 1.5; stroke-linecap: square"/>
   </g>
   <g id="line2d_31">
    <path d="M 92.290909 44.64 
L 94.596694 99.413862 
L 96.902479 99.587539 
L 99.208264 101.943248 
L 101.51405 118.073859 
L 103.819835 143.155678 
L 106.12562 141.0158 
L 108.431405 163.567934 
L 110.73719 150.827059 
L 113.042975 158.983424 
L 115.34876 173.914365 
L 117.654545 173.678371 
L 119.960331 170.805956 
L 122.266116 175.333681 
L 124.571901 180.488957 
L 126.877686 186.944767 
L 129.183471 187.140301 
L 131.489256 179.423786 
L 133.795041 178.462946 
L 136.100826 194.808235 
L 138.406612 202.1421 
L 140.712397 201.511499 
L 143.018182 203.858683 
L 145.323967 201.25811 
L 147.629752 204.589715 
L 152.241322 204.551417 
L 154.547107 208.838879 
L 156.852893 207.72337 
L 159.158678 212.700566 
L 161.464463 210.45298 
L 163.770248 200.171335 
L 166.076033 213.228819 
L 168.381818 212.210963 
L 170.687603 209.791281 
L 172.993388 215.618244 
L 175.299174 209.315562 
L 177.604959 217.745564 
L 179.910744 212.566069 
L 182.216529 214.423883 
L 184.522314 213.144707 
L 186.828099 217.46394 
L 189.133884 217.734313 
L 191.439669 214.558868 
L 193.745455 215.797778 
L 196.05124 217.460267 
L 198.357025 217.036378 
L 200.66281 222.325517 
L 202.968595 220.840343 
L 205.27438 220.251066 
L 207.580165 216.679608 
L 209.88595 216.592009 
L 212.191736 212.014961 
L 214.497521 218.71088 
L 216.803306 217.042196 
L 219.109091 216.387118 
L 221.414876 218.072427 
L 223.720661 220.70602 
L 226.026446 219.400833 
L 228.332231 218.835218 
L 230.638017 218.986705 
L 232.943802 223.140786 
L 235.249587 216.907007 
L 237.555372 223.398845 
L 239.861157 223.24496 
L 244.472727 221.025574 
L 246.778512 224.360208 
L 249.084298 225.282563 
L 251.390083 227.220602 
L 253.695868 224.686232 
L 256.001653 227.571047 
L 258.307438 224.717219 
L 260.613223 229.067895 
L 262.919008 231.612589 
L 265.224793 230.576434 
L 267.530579 222.61869 
L 269.836364 227.393963 
L 272.142149 226.337969 
L 274.447934 228.601717 
L 276.753719 229.283112 
L 279.059504 231.769302 
L 281.365289 227.458719 
L 283.671074 231.153132 
L 285.97686 230.230872 
L 288.282645 223.603589 
L 292.894215 227.539901 
L 295.2 227.854747 
L 297.505785 225.922047 
L 299.81157 227.288887 
L 302.117355 230.239985 
L 304.42314 230.75103 
L 306.728926 227.701001 
L 309.034711 230.320154 
L 311.340496 230.448609 
L 313.646281 232.05486 
L 318.257851 234.737074 
L 320.563636 230.512491 
L 322.869421 235.221258 
L 325.175207 232.528135 
L 327.480992 233.619294 
L 329.786777 237.380334 
L 332.092562 233.394833 
L 334.398347 228.586668 
L 336.704132 230.663752 
L 339.009917 235.390369 
L 341.315702 235.123892 
L 343.621488 233.944704 
L 345.927273 234.016353 
L 348.233058 235.618292 
L 350.538843 235.966623 
L 352.844628 231.042247 
L 355.150413 233.364111 
L 357.456198 233.214948 
L 359.761983 229.816943 
L 362.067769 235.904549 
L 364.373554 234.883923 
L 366.679339 234.250575 
L 368.985124 236.162074 
L 371.290909 236.3223 
L 373.596694 238.347927 
L 375.902479 239.667071 
L 378.208264 236.325741 
L 380.51405 237.054215 
L 382.819835 235.13276 
L 385.12562 236.884817 
L 387.431405 234.173379 
L 389.73719 241.328306 
L 392.042975 241.863075 
L 394.34876 240.15997 
L 396.654545 239.550024 
L 398.960331 242.446451 
L 401.266116 237.525975 
L 403.571901 240.578826 
L 405.877686 233.324969 
L 408.183471 243.647289 
L 410.489256 241.179353 
L 412.795041 244.229345 
L 417.406612 242.599386 
L 419.712397 240.501092 
L 422.018182 240.99029 
L 424.323967 243.953939 
L 426.629752 244.255965 
L 428.935537 245.172291 
L 431.241322 240.67932 
L 433.547107 242.214304 
L 435.852893 240.204045 
L 438.158678 242.465236 
L 440.464463 242.062149 
L 442.770248 244.106391 
L 445.076033 239.53664 
L 447.381818 239.501227 
L 449.687603 244.397929 
L 451.993388 246.24 
L 454.299174 241.262495 
L 456.604959 241.642754 
L 458.910744 242.291467 
L 461.216529 239.143577 
L 463.522314 242.047014 
L 465.828099 240.859949 
L 468.133884 244.364804 
L 470.439669 242.574441 
L 472.745455 242.534309 
L 475.05124 241.758551 
L 477.357025 240.500384 
L 479.66281 242.397342 
L 481.968595 242.205572 
L 484.27438 239.636843 
L 488.88595 244.408734 
L 491.191736 244.162193 
L 493.497521 243.332688 
L 495.803306 245.172551 
L 498.109091 243.791649 
L 498.109091 243.791649 
" clip-path="url(#pa1a7c948ed)" style="fill: none; stroke: #9467bd; stroke-width: 1.5; stroke-linecap: square"/>
   </g>
   <g id="line2d_32">
    <path d="M 92.290909 73.182313 
L 94.596694 94.143431 
L 96.902479 117.859593 
L 99.208264 99.436341 
L 101.51405 78.512837 
L 103.819835 139.346295 
L 108.431405 155.639875 
L 110.73719 156.044378 
L 113.042975 162.166581 
L 115.34876 158.647776 
L 117.654545 166.33097 
L 119.960331 169.536688 
L 122.266116 168.324275 
L 124.571901 185.313092 
L 126.877686 179.452582 
L 129.183471 189.010737 
L 131.489256 164.077386 
L 133.795041 182.714767 
L 136.100826 184.982757 
L 138.406612 196.647926 
L 140.712397 193.029267 
L 143.018182 199.313019 
L 145.323967 201.95268 
L 147.629752 198.607506 
L 149.935537 202.35542 
L 152.241322 196.663105 
L 154.547107 205.136995 
L 156.852893 204.539889 
L 159.158678 197.849676 
L 161.464463 204.092287 
L 163.770248 204.565729 
L 166.076033 208.768757 
L 168.381818 207.140258 
L 170.687603 203.807339 
L 172.993388 194.571566 
L 175.299174 210.551926 
L 177.604959 206.112328 
L 179.910744 202.810438 
L 182.216529 215.063171 
L 184.522314 213.96485 
L 186.828099 219.510854 
L 189.133884 218.363605 
L 191.439669 209.5504 
L 193.745455 220.730294 
L 196.05124 217.162856 
L 198.357025 202.680435 
L 200.66281 221.273337 
L 205.27438 227.110502 
L 207.580165 221.145012 
L 209.88595 221.355775 
L 212.191736 220.150321 
L 214.497521 225.923802 
L 216.803306 225.56394 
L 221.414876 218.764863 
L 223.720661 224.344548 
L 226.026446 219.462909 
L 228.332231 223.134357 
L 230.638017 227.308825 
L 232.943802 226.198733 
L 235.249587 224.932749 
L 237.555372 224.663194 
L 239.861157 231.442957 
L 242.166942 228.194015 
L 244.472727 225.680577 
L 246.778512 232.657252 
L 249.084298 229.548435 
L 251.390083 230.954668 
L 253.695868 231.548281 
L 256.001653 224.244621 
L 258.307438 226.754746 
L 260.613223 229.694179 
L 262.919008 229.666518 
L 265.224793 230.42481 
L 267.530579 233.440991 
L 269.836364 234.66501 
L 272.142149 230.482765 
L 274.447934 223.039297 
L 276.753719 229.593986 
L 279.059504 227.616578 
L 281.365289 227.528306 
L 283.671074 233.451714 
L 285.97686 229.690928 
L 288.282645 225.63657 
L 290.58843 225.756194 
L 292.894215 220.778233 
L 295.2 229.591671 
L 297.505785 230.349388 
L 299.81157 227.904764 
L 302.117355 230.949542 
L 304.42314 229.70191 
L 306.728926 233.120302 
L 309.034711 228.5469 
L 311.340496 230.047653 
L 313.646281 237.163417 
L 315.952066 235.718 
L 318.257851 229.346081 
L 320.563636 236.970127 
L 322.869421 234.284943 
L 325.175207 234.438694 
L 327.480992 234.063592 
L 329.786777 232.849316 
L 332.092562 234.037448 
L 334.398347 238.892731 
L 336.704132 238.219185 
L 339.009917 235.284667 
L 341.315702 235.155612 
L 343.621488 238.522807 
L 345.927273 242.378071 
L 348.233058 239.083927 
L 350.538843 234.436103 
L 352.844628 237.936744 
L 355.150413 234.072159 
L 357.456198 236.971877 
L 359.761983 237.695478 
L 362.067769 237.615683 
L 364.373554 233.493048 
L 366.679339 233.071822 
L 368.985124 235.06441 
L 371.290909 237.38336 
L 373.596694 233.917247 
L 375.902479 235.482151 
L 378.208264 235.373698 
L 382.819835 234.63171 
L 385.12562 231.144566 
L 387.431405 234.687636 
L 389.73719 236.640333 
L 392.042975 231.958842 
L 392.042975 231.958842 
" clip-path="url(#pa1a7c948ed)" style="fill: none; stroke: #8c564b; stroke-width: 1.5; stroke-linecap: square"/>
   </g>
   <g id="patch_3">
    <path d="M 72 256.32 
L 72 34.56 
" style="fill: none; stroke: #000000; stroke-width: 0.8; stroke-linejoin: miter; stroke-linecap: square"/>
   </g>
   <g id="patch_4">
    <path d="M 518.4 256.32 
L 518.4 34.56 
" style="fill: none; stroke: #000000; stroke-width: 0.8; stroke-linejoin: miter; stroke-linecap: square"/>
   </g>
   <g id="patch_5">
    <path d="M 72 256.32 
L 518.4 256.32 
" style="fill: none; stroke: #000000; stroke-width: 0.8; stroke-linejoin: miter; stroke-linecap: square"/>
   </g>
   <g id="patch_6">
    <path d="M 72 34.56 
L 518.4 34.56 
" style="fill: none; stroke: #000000; stroke-width: 0.8; stroke-linejoin: miter; stroke-linecap: square"/>
   </g>
   <g id="legend_1">
    <g id="patch_7">
     <path d="M 395.864062 145.306875 
L 511.4 145.306875 
Q 513.4 145.306875 513.4 143.306875 
L 513.4 41.56 
Q 513.4 39.56 511.4 39.56 
L 395.864062 39.56 
Q 393.864062 39.56 393.864062 41.56 
L 393.864062 143.306875 
Q 393.864062 145.306875 395.864062 145.306875 
z
" style="fill: #ffffff; opacity: 0.8; stroke: #cccccc; stroke-linejoin: miter"/>
    </g>
    <g id="text_16">
     <!-- embedding dimension -->
     <g transform="translate(397.864062 51.158437) scale(0.1 -0.1)">
      <defs>
       <path id="DejaVuSans-65" d="M 3597 1894 
L 3597 1613 
L 953 1613 
Q 991 1019 1311 708 
Q 1631 397 2203 397 
Q 2534 397 2845 478 
Q 3156 559 3463 722 
L 3463 178 
Q 3153 47 2828 -22 
Q 2503 -91 2169 -91 
Q 1331 -91 842 396 
Q 353 884 353 1716 
Q 353 2575 817 3079 
Q 1281 3584 2069 3584 
Q 2775 3584 3186 3129 
Q 3597 2675 3597 1894 
z
M 3022 2063 
Q 3016 2534 2758 2815 
Q 2500 3097 2075 3097 
Q 1594 3097 1305 2825 
Q 1016 2553 972 2059 
L 3022 2063 
z
" transform="scale(0.015625)"/>
       <path id="DejaVuSans-6d" d="M 3328 2828 
Q 3544 3216 3844 3400 
Q 4144 3584 4550 3584 
Q 5097 3584 5394 3201 
Q 5691 2819 5691 2113 
L 5691 0 
L 5113 0 
L 5113 2094 
Q 5113 2597 4934 2840 
Q 4756 3084 4391 3084 
Q 3944 3084 3684 2787 
Q 3425 2491 3425 1978 
L 3425 0 
L 2847 0 
L 2847 2094 
Q 2847 2600 2669 2842 
Q 2491 3084 2119 3084 
Q 1678 3084 1418 2786 
Q 1159 2488 1159 1978 
L 1159 0 
L 581 0 
L 581 3500 
L 1159 3500 
L 1159 2956 
Q 1356 3278 1631 3431 
Q 1906 3584 2284 3584 
Q 2666 3584 2933 3390 
Q 3200 3197 3328 2828 
z
" transform="scale(0.015625)"/>
       <path id="DejaVuSans-62" d="M 3116 1747 
Q 3116 2381 2855 2742 
Q 2594 3103 2138 3103 
Q 1681 3103 1420 2742 
Q 1159 2381 1159 1747 
Q 1159 1113 1420 752 
Q 1681 391 2138 391 
Q 2594 391 2855 752 
Q 3116 1113 3116 1747 
z
M 1159 2969 
Q 1341 3281 1617 3432 
Q 1894 3584 2278 3584 
Q 2916 3584 3314 3078 
Q 3713 2572 3713 1747 
Q 3713 922 3314 415 
Q 2916 -91 2278 -91 
Q 1894 -91 1617 61 
Q 1341 213 1159 525 
L 1159 0 
L 581 0 
L 581 4863 
L 1159 4863 
L 1159 2969 
z
" transform="scale(0.015625)"/>
       <path id="DejaVuSans-67" d="M 2906 1791 
Q 2906 2416 2648 2759 
Q 2391 3103 1925 3103 
Q 1463 3103 1205 2759 
Q 947 2416 947 1791 
Q 947 1169 1205 825 
Q 1463 481 1925 481 
Q 2391 481 2648 825 
Q 2906 1169 2906 1791 
z
M 3481 434 
Q 3481 -459 3084 -895 
Q 2688 -1331 1869 -1331 
Q 1566 -1331 1297 -1286 
Q 1028 -1241 775 -1147 
L 775 -588 
Q 1028 -725 1275 -790 
Q 1522 -856 1778 -856 
Q 2344 -856 2625 -561 
Q 2906 -266 2906 331 
L 2906 616 
Q 2728 306 2450 153 
Q 2172 0 1784 0 
Q 1141 0 747 490 
Q 353 981 353 1791 
Q 353 2603 747 3093 
Q 1141 3584 1784 3584 
Q 2172 3584 2450 3431 
Q 2728 3278 2906 2969 
L 2906 3500 
L 3481 3500 
L 3481 434 
z
" transform="scale(0.015625)"/>
       <path id="DejaVuSans-73" d="M 2834 3397 
L 2834 2853 
Q 2591 2978 2328 3040 
Q 2066 3103 1784 3103 
Q 1356 3103 1142 2972 
Q 928 2841 928 2578 
Q 928 2378 1081 2264 
Q 1234 2150 1697 2047 
L 1894 2003 
Q 2506 1872 2764 1633 
Q 3022 1394 3022 966 
Q 3022 478 2636 193 
Q 2250 -91 1575 -91 
Q 1294 -91 989 -36 
Q 684 19 347 128 
L 347 722 
Q 666 556 975 473 
Q 1284 391 1588 391 
Q 1994 391 2212 530 
Q 2431 669 2431 922 
Q 2431 1156 2273 1281 
Q 2116 1406 1581 1522 
L 1381 1569 
Q 847 1681 609 1914 
Q 372 2147 372 2553 
Q 372 3047 722 3315 
Q 1072 3584 1716 3584 
Q 2034 3584 2315 3537 
Q 2597 3491 2834 3397 
z
" transform="scale(0.015625)"/>
      </defs>
      <use xlink:href="#DejaVuSans-65"/>
      <use xlink:href="#DejaVuSans-6d" x="61.523438"/>
      <use xlink:href="#DejaVuSans-62" x="158.935547"/>
      <use xlink:href="#DejaVuSans-65" x="222.412109"/>
      <use xlink:href="#DejaVuSans-64" x="283.935547"/>
      <use xlink:href="#DejaVuSans-64" x="347.412109"/>
      <use xlink:href="#DejaVuSans-69" x="410.888672"/>
      <use xlink:href="#DejaVuSans-6e" x="438.671875"/>
      <use xlink:href="#DejaVuSans-67" x="502.050781"/>
      <use xlink:href="#DejaVuSans-20" x="565.527344"/>
      <use xlink:href="#DejaVuSans-64" x="597.314453"/>
      <use xlink:href="#DejaVuSans-69" x="660.791016"/>
      <use xlink:href="#DejaVuSans-6d" x="688.574219"/>
      <use xlink:href="#DejaVuSans-65" x="785.986328"/>
      <use xlink:href="#DejaVuSans-6e" x="847.509766"/>
      <use xlink:href="#DejaVuSans-73" x="910.888672"/>
      <use xlink:href="#DejaVuSans-69" x="962.988281"/>
      <use xlink:href="#DejaVuSans-6f" x="990.771484"/>
      <use xlink:href="#DejaVuSans-6e" x="1051.953125"/>
     </g>
    </g>
    <g id="line2d_33">
     <path d="M 426.907031 62.336563 
L 436.907031 62.336563 
L 446.907031 62.336563 
" style="fill: none; stroke: #1f77b4; stroke-width: 1.5; stroke-linecap: square"/>
    </g>
    <g id="text_17">
     <!-- 50 -->
     <g transform="translate(454.907031 65.836563) scale(0.1 -0.1)">
      <use xlink:href="#DejaVuSans-35"/>
      <use xlink:href="#DejaVuSans-30" x="63.623047"/>
     </g>
    </g>
    <g id="line2d_34">
     <path d="M 426.907031 77.014688 
L 436.907031 77.014688 
L 446.907031 77.014688 
" style="fill: none; stroke: #ff7f0e; stroke-width: 1.5; stroke-linecap: square"/>
    </g>
    <g id="text_18">
     <!-- 100 -->
     <g transform="translate(454.907031 80.514688) scale(0.1 -0.1)">
      <use xlink:href="#DejaVuSans-31"/>
      <use xlink:href="#DejaVuSans-30" x="63.623047"/>
      <use xlink:href="#DejaVuSans-30" x="127.246094"/>
     </g>
    </g>
    <g id="line2d_35">
     <path d="M 426.907031 91.692813 
L 436.907031 91.692813 
L 446.907031 91.692813 
" style="fill: none; stroke: #2ca02c; stroke-width: 1.5; stroke-linecap: square"/>
    </g>
    <g id="text_19">
     <!-- 200 -->
     <g transform="translate(454.907031 95.192813) scale(0.1 -0.1)">
      <use xlink:href="#DejaVuSans-32"/>
      <use xlink:href="#DejaVuSans-30" x="63.623047"/>
      <use xlink:href="#DejaVuSans-30" x="127.246094"/>
     </g>
    </g>
    <g id="line2d_36">
     <path d="M 426.907031 106.370938 
L 436.907031 106.370938 
L 446.907031 106.370938 
" style="fill: none; stroke: #d62728; stroke-width: 1.5; stroke-linecap: square"/>
    </g>
    <g id="text_20">
     <!-- 500 -->
     <g transform="translate(454.907031 109.870938) scale(0.1 -0.1)">
      <use xlink:href="#DejaVuSans-35"/>
      <use xlink:href="#DejaVuSans-30" x="63.623047"/>
      <use xlink:href="#DejaVuSans-30" x="127.246094"/>
     </g>
    </g>
    <g id="line2d_37">
     <path d="M 426.907031 121.049063 
L 436.907031 121.049063 
L 446.907031 121.049063 
" style="fill: none; stroke: #9467bd; stroke-width: 1.5; stroke-linecap: square"/>
    </g>
    <g id="text_21">
     <!-- 1000 -->
     <g transform="translate(454.907031 124.549063) scale(0.1 -0.1)">
      <use xlink:href="#DejaVuSans-31"/>
      <use xlink:href="#DejaVuSans-30" x="63.623047"/>
      <use xlink:href="#DejaVuSans-30" x="127.246094"/>
      <use xlink:href="#DejaVuSans-30" x="190.869141"/>
     </g>
    </g>
    <g id="line2d_38">
     <path d="M 426.907031 135.727188 
L 436.907031 135.727188 
L 446.907031 135.727188 
" style="fill: none; stroke: #8c564b; stroke-width: 1.5; stroke-linecap: square"/>
    </g>
    <g id="text_22">
     <!-- 2000 -->
     <g transform="translate(454.907031 139.227188) scale(0.1 -0.1)">
      <use xlink:href="#DejaVuSans-32"/>
      <use xlink:href="#DejaVuSans-30" x="63.623047"/>
      <use xlink:href="#DejaVuSans-30" x="127.246094"/>
      <use xlink:href="#DejaVuSans-30" x="190.869141"/>
     </g>
    </g>
   </g>
  </g>
 </g>
 <defs>
  <clipPath id="pa1a7c948ed">
   <rect x="72" y="34.56" width="446.4" height="221.76"/>
  </clipPath>
 </defs>
</svg>
