<?xml version="1.0" encoding="utf-8" standalone="no"?>
<!DOCTYPE svg PUBLIC "-//W3C//DTD SVG 1.1//EN"
  "http://www.w3.org/Graphics/SVG/1.1/DTD/svg11.dtd">
<svg xmlns:xlink="http://www.w3.org/1999/xlink" width="576pt" height="288pt" viewBox="0 0 576 288" xmlns="http://www.w3.org/2000/svg" version="1.1">
 <metadata>
  <rdf:RDF xmlns:dc="http://purl.org/dc/elements/1.1/" xmlns:cc="http://creativecommons.org/ns#" xmlns:rdf="http://www.w3.org/1999/02/22-rdf-syntax-ns#">
   <cc:Work>
    <dc:type rdf:resource="http://purl.org/dc/dcmitype/StillImage"/>
    <dc:date>2024-12-13T14:20:52.696978</dc:date>
    <dc:format>image/svg+xml</dc:format>
    <dc:creator>
     <cc:Agent>
      <dc:title>Matplotlib v3.7.2, https://matplotlib.org/</dc:title>
     </cc:Agent>
    </dc:creator>
   </cc:Work>
  </rdf:RDF>
 </metadata>
 <defs>
  <style type="text/css">*{stroke-linejoin: round; stroke-linecap: butt}</style>
 </defs>
 <g id="figure_1">
  <g id="patch_1">
   <path d="M 0 288 
L 576 288 
L 576 0 
L 0 0 
z
" style="fill: #ffffff"/>
  </g>
  <g id="axes_1">
   <g id="patch_2">
    <path d="M 72 256.32 
L 518.4 256.32 
L 518.4 34.56 
L 72 34.56 
z
" style="fill: #ffffff"/>
   </g>
   <g id="matplotlib.axis_1">
    <g id="xtick_1">
     <g id="line2d_1">
      <path d="M 92.290909 256.32 
L 92.290909 34.56 
" clip-path="url(#p3a15247c76)" style="fill: none; stroke: #b0b0b0; stroke-width: 0.8; stroke-linecap: square"/>
     </g>
     <g id="line2d_2">
      <defs>
       <path id="m32d1de0c6a" d="M 0 0 
L 0 3.5 
" style="stroke: #000000; stroke-width: 0.8"/>
      </defs>
      <g>
       <use xlink:href="#m32d1de0c6a" x="92.290909" y="256.32" style="stroke: #000000; stroke-width: 0.8"/>
      </g>
     </g>
     <g id="text_1">
      <!-- 0 -->
      <g transform="translate(89.109659 270.918437) scale(0.1 -0.1)">
       <defs>
        <path id="DejaVuSans-30" d="M 2034 4250 
Q 1547 4250 1301 3770 
Q 1056 3291 1056 2328 
Q 1056 1369 1301 889 
Q 1547 409 2034 409 
Q 2525 409 2770 889 
Q 3016 1369 3016 2328 
Q 3016 3291 2770 3770 
Q 2525 4250 2034 4250 
z
M 2034 4750 
Q 2819 4750 3233 4129 
Q 3647 3509 3647 2328 
Q 3647 1150 3233 529 
Q 2819 -91 2034 -91 
Q 1250 -91 836 529 
Q 422 1150 422 2328 
Q 422 3509 836 4129 
Q 1250 4750 2034 4750 
z
" transform="scale(0.015625)"/>
       </defs>
       <use xlink:href="#DejaVuSans-30"/>
      </g>
     </g>
    </g>
    <g id="xtick_2">
     <g id="line2d_3">
      <path d="M 156.199284 256.32 
L 156.199284 34.56 
" clip-path="url(#p3a15247c76)" style="fill: none; stroke: #b0b0b0; stroke-width: 0.8; stroke-linecap: square"/>
     </g>
     <g id="line2d_4">
      <g>
       <use xlink:href="#m32d1de0c6a" x="156.199284" y="256.32" style="stroke: #000000; stroke-width: 0.8"/>
      </g>
     </g>
     <g id="text_2">
      <!-- 20 -->
      <g transform="translate(149.836784 270.918437) scale(0.1 -0.1)">
       <defs>
        <path id="DejaVuSans-32" d="M 1228 531 
L 3431 531 
L 3431 0 
L 469 0 
L 469 531 
Q 828 903 1448 1529 
Q 2069 2156 2228 2338 
Q 2531 2678 2651 2914 
Q 2772 3150 2772 3378 
Q 2772 3750 2511 3984 
Q 2250 4219 1831 4219 
Q 1534 4219 1204 4116 
Q 875 4013 500 3803 
L 500 4441 
Q 881 4594 1212 4672 
Q 1544 4750 1819 4750 
Q 2544 4750 2975 4387 
Q 3406 4025 3406 3419 
Q 3406 3131 3298 2873 
Q 3191 2616 2906 2266 
Q 2828 2175 2409 1742 
Q 1991 1309 1228 531 
z
" transform="scale(0.015625)"/>
       </defs>
       <use xlink:href="#DejaVuSans-32"/>
       <use xlink:href="#DejaVuSans-30" x="63.623047"/>
      </g>
     </g>
    </g>
    <g id="xtick_3">
     <g id="line2d_5">
      <path d="M 220.107659 256.32 
L 220.107659 34.56 
" clip-path="url(#p3a15247c76)" style="fill: none; stroke: #b0b0b0; stroke-width: 0.8; stroke-linecap: square"/>
     </g>
     <g id="line2d_6">
      <g>
       <use xlink:href="#m32d1de0c6a" x="220.107659" y="256.32" style="stroke: #000000; stroke-width: 0.8"/>
      </g>
     </g>
     <g id="text_3">
      <!-- 40 -->
      <g transform="translate(213.745159 270.918437) scale(0.1 -0.1)">
       <defs>
        <path id="DejaVuSans-34" d="M 2419 4116 
L 825 1625 
L 2419 1625 
L 2419 4116 
z
M 2253 4666 
L 3047 4666 
L 3047 1625 
L 3713 1625 
L 3713 1100 
L 3047 1100 
L 3047 0 
L 2419 0 
L 2419 1100 
L 313 1100 
L 313 1709 
L 2253 4666 
z
" transform="scale(0.015625)"/>
       </defs>
       <use xlink:href="#DejaVuSans-34"/>
       <use xlink:href="#DejaVuSans-30" x="63.623047"/>
      </g>
     </g>
    </g>
    <g id="xtick_4">
     <g id="line2d_7">
      <path d="M 284.016034 256.32 
L 284.016034 34.56 
" clip-path="url(#p3a15247c76)" style="fill: none; stroke: #b0b0b0; stroke-width: 0.8; stroke-linecap: square"/>
     </g>
     <g id="line2d_8">
      <g>
       <use xlink:href="#m32d1de0c6a" x="284.016034" y="256.32" style="stroke: #000000; stroke-width: 0.8"/>
      </g>
     </g>
     <g id="text_4">
      <!-- 60 -->
      <g transform="translate(277.653534 270.918437) scale(0.1 -0.1)">
       <defs>
        <path id="DejaVuSans-36" d="M 2113 2584 
Q 1688 2584 1439 2293 
Q 1191 2003 1191 1497 
Q 1191 994 1439 701 
Q 1688 409 2113 409 
Q 2538 409 2786 701 
Q 3034 994 3034 1497 
Q 3034 2003 2786 2293 
Q 2538 2584 2113 2584 
z
M 3366 4563 
L 3366 3988 
Q 3128 4100 2886 4159 
Q 2644 4219 2406 4219 
Q 1781 4219 1451 3797 
Q 1122 3375 1075 2522 
Q 1259 2794 1537 2939 
Q 1816 3084 2150 3084 
Q 2853 3084 3261 2657 
Q 3669 2231 3669 1497 
Q 3669 778 3244 343 
Q 2819 -91 2113 -91 
Q 1303 -91 875 529 
Q 447 1150 447 2328 
Q 447 3434 972 4092 
Q 1497 4750 2381 4750 
Q 2619 4750 2861 4703 
Q 3103 4656 3366 4563 
z
" transform="scale(0.015625)"/>
       </defs>
       <use xlink:href="#DejaVuSans-36"/>
       <use xlink:href="#DejaVuSans-30" x="63.623047"/>
      </g>
     </g>
    </g>
    <g id="xtick_5">
     <g id="line2d_9">
      <path d="M 347.924409 256.32 
L 347.924409 34.56 
" clip-path="url(#p3a15247c76)" style="fill: none; stroke: #b0b0b0; stroke-width: 0.8; stroke-linecap: square"/>
     </g>
     <g id="line2d_10">
      <g>
       <use xlink:href="#m32d1de0c6a" x="347.924409" y="256.32" style="stroke: #000000; stroke-width: 0.8"/>
      </g>
     </g>
     <g id="text_5">
      <!-- 80 -->
      <g transform="translate(341.561909 270.918437) scale(0.1 -0.1)">
       <defs>
        <path id="DejaVuSans-38" d="M 2034 2216 
Q 1584 2216 1326 1975 
Q 1069 1734 1069 1313 
Q 1069 891 1326 650 
Q 1584 409 2034 409 
Q 2484 409 2743 651 
Q 3003 894 3003 1313 
Q 3003 1734 2745 1975 
Q 2488 2216 2034 2216 
z
M 1403 2484 
Q 997 2584 770 2862 
Q 544 3141 544 3541 
Q 544 4100 942 4425 
Q 1341 4750 2034 4750 
Q 2731 4750 3128 4425 
Q 3525 4100 3525 3541 
Q 3525 3141 3298 2862 
Q 3072 2584 2669 2484 
Q 3125 2378 3379 2068 
Q 3634 1759 3634 1313 
Q 3634 634 3220 271 
Q 2806 -91 2034 -91 
Q 1263 -91 848 271 
Q 434 634 434 1313 
Q 434 1759 690 2068 
Q 947 2378 1403 2484 
z
M 1172 3481 
Q 1172 3119 1398 2916 
Q 1625 2713 2034 2713 
Q 2441 2713 2670 2916 
Q 2900 3119 2900 3481 
Q 2900 3844 2670 4047 
Q 2441 4250 2034 4250 
Q 1625 4250 1398 4047 
Q 1172 3844 1172 3481 
z
" transform="scale(0.015625)"/>
       </defs>
       <use xlink:href="#DejaVuSans-38"/>
       <use xlink:href="#DejaVuSans-30" x="63.623047"/>
      </g>
     </g>
    </g>
    <g id="xtick_6">
     <g id="line2d_11">
      <path d="M 411.832785 256.32 
L 411.832785 34.56 
" clip-path="url(#p3a15247c76)" style="fill: none; stroke: #b0b0b0; stroke-width: 0.8; stroke-linecap: square"/>
     </g>
     <g id="line2d_12">
      <g>
       <use xlink:href="#m32d1de0c6a" x="411.832785" y="256.32" style="stroke: #000000; stroke-width: 0.8"/>
      </g>
     </g>
     <g id="text_6">
      <!-- 100 -->
      <g transform="translate(402.289035 270.918437) scale(0.1 -0.1)">
       <defs>
        <path id="DejaVuSans-31" d="M 794 531 
L 1825 531 
L 1825 4091 
L 703 3866 
L 703 4441 
L 1819 4666 
L 2450 4666 
L 2450 531 
L 3481 531 
L 3481 0 
L 794 0 
L 794 531 
z
" transform="scale(0.015625)"/>
       </defs>
       <use xlink:href="#DejaVuSans-31"/>
       <use xlink:href="#DejaVuSans-30" x="63.623047"/>
       <use xlink:href="#DejaVuSans-30" x="127.246094"/>
      </g>
     </g>
    </g>
    <g id="xtick_7">
     <g id="line2d_13">
      <path d="M 475.74116 256.32 
L 475.74116 34.56 
" clip-path="url(#p3a15247c76)" style="fill: none; stroke: #b0b0b0; stroke-width: 0.8; stroke-linecap: square"/>
     </g>
     <g id="line2d_14">
      <g>
       <use xlink:href="#m32d1de0c6a" x="475.74116" y="256.32" style="stroke: #000000; stroke-width: 0.8"/>
      </g>
     </g>
     <g id="text_7">
      <!-- 120 -->
      <g transform="translate(466.19741 270.918437) scale(0.1 -0.1)">
       <use xlink:href="#DejaVuSans-31"/>
       <use xlink:href="#DejaVuSans-32" x="63.623047"/>
       <use xlink:href="#DejaVuSans-30" x="127.246094"/>
      </g>
     </g>
    </g>
    <g id="text_8">
     <!-- Epoch -->
     <g transform="translate(279.889062 284.596563) scale(0.1 -0.1)">
      <defs>
       <path id="DejaVuSans-45" d="M 628 4666 
L 3578 4666 
L 3578 4134 
L 1259 4134 
L 1259 2753 
L 3481 2753 
L 3481 2222 
L 1259 2222 
L 1259 531 
L 3634 531 
L 3634 0 
L 628 0 
L 628 4666 
z
" transform="scale(0.015625)"/>
       <path id="DejaVuSans-70" d="M 1159 525 
L 1159 -1331 
L 581 -1331 
L 581 3500 
L 1159 3500 
L 1159 2969 
Q 1341 3281 1617 3432 
Q 1894 3584 2278 3584 
Q 2916 3584 3314 3078 
Q 3713 2572 3713 1747 
Q 3713 922 3314 415 
Q 2916 -91 2278 -91 
Q 1894 -91 1617 61 
Q 1341 213 1159 525 
z
M 3116 1747 
Q 3116 2381 2855 2742 
Q 2594 3103 2138 3103 
Q 1681 3103 1420 2742 
Q 1159 2381 1159 1747 
Q 1159 1113 1420 752 
Q 1681 391 2138 391 
Q 2594 391 2855 752 
Q 3116 1113 3116 1747 
z
" transform="scale(0.015625)"/>
       <path id="DejaVuSans-6f" d="M 1959 3097 
Q 1497 3097 1228 2736 
Q 959 2375 959 1747 
Q 959 1119 1226 758 
Q 1494 397 1959 397 
Q 2419 397 2687 759 
Q 2956 1122 2956 1747 
Q 2956 2369 2687 2733 
Q 2419 3097 1959 3097 
z
M 1959 3584 
Q 2709 3584 3137 3096 
Q 3566 2609 3566 1747 
Q 3566 888 3137 398 
Q 2709 -91 1959 -91 
Q 1206 -91 779 398 
Q 353 888 353 1747 
Q 353 2609 779 3096 
Q 1206 3584 1959 3584 
z
" transform="scale(0.015625)"/>
       <path id="DejaVuSans-63" d="M 3122 3366 
L 3122 2828 
Q 2878 2963 2633 3030 
Q 2388 3097 2138 3097 
Q 1578 3097 1268 2742 
Q 959 2388 959 1747 
Q 959 1106 1268 751 
Q 1578 397 2138 397 
Q 2388 397 2633 464 
Q 2878 531 3122 666 
L 3122 134 
Q 2881 22 2623 -34 
Q 2366 -91 2075 -91 
Q 1284 -91 818 406 
Q 353 903 353 1747 
Q 353 2603 823 3093 
Q 1294 3584 2113 3584 
Q 2378 3584 2631 3529 
Q 2884 3475 3122 3366 
z
" transform="scale(0.015625)"/>
       <path id="DejaVuSans-68" d="M 3513 2113 
L 3513 0 
L 2938 0 
L 2938 2094 
Q 2938 2591 2744 2837 
Q 2550 3084 2163 3084 
Q 1697 3084 1428 2787 
Q 1159 2491 1159 1978 
L 1159 0 
L 581 0 
L 581 4863 
L 1159 4863 
L 1159 2956 
Q 1366 3272 1645 3428 
Q 1925 3584 2291 3584 
Q 2894 3584 3203 3211 
Q 3513 2838 3513 2113 
z
" transform="scale(0.015625)"/>
      </defs>
      <use xlink:href="#DejaVuSans-45"/>
      <use xlink:href="#DejaVuSans-70" x="63.183594"/>
      <use xlink:href="#DejaVuSans-6f" x="126.660156"/>
      <use xlink:href="#DejaVuSans-63" x="187.841797"/>
      <use xlink:href="#DejaVuSans-68" x="242.822266"/>
     </g>
    </g>
   </g>
   <g id="matplotlib.axis_2">
    <g id="ytick_1">
     <g id="line2d_15">
      <path d="M 72 239.967249 
L 518.4 239.967249 
" clip-path="url(#p3a15247c76)" style="fill: none; stroke: #b0b0b0; stroke-width: 0.8; stroke-linecap: square"/>
     </g>
     <g id="line2d_16">
      <defs>
       <path id="ma9500fa3b0" d="M 0 0 
L -3.5 0 
" style="stroke: #000000; stroke-width: 0.8"/>
      </defs>
      <g>
       <use xlink:href="#ma9500fa3b0" x="72" y="239.967249" style="stroke: #000000; stroke-width: 0.8"/>
      </g>
     </g>
     <g id="text_9">
      <!-- 0.035 -->
      <g transform="translate(36.371875 243.766467) scale(0.1 -0.1)">
       <defs>
        <path id="DejaVuSans-2e" d="M 684 794 
L 1344 794 
L 1344 0 
L 684 0 
L 684 794 
z
" transform="scale(0.015625)"/>
        <path id="DejaVuSans-33" d="M 2597 2516 
Q 3050 2419 3304 2112 
Q 3559 1806 3559 1356 
Q 3559 666 3084 287 
Q 2609 -91 1734 -91 
Q 1441 -91 1130 -33 
Q 819 25 488 141 
L 488 750 
Q 750 597 1062 519 
Q 1375 441 1716 441 
Q 2309 441 2620 675 
Q 2931 909 2931 1356 
Q 2931 1769 2642 2001 
Q 2353 2234 1838 2234 
L 1294 2234 
L 1294 2753 
L 1863 2753 
Q 2328 2753 2575 2939 
Q 2822 3125 2822 3475 
Q 2822 3834 2567 4026 
Q 2313 4219 1838 4219 
Q 1578 4219 1281 4162 
Q 984 4106 628 3988 
L 628 4550 
Q 988 4650 1302 4700 
Q 1616 4750 1894 4750 
Q 2613 4750 3031 4423 
Q 3450 4097 3450 3541 
Q 3450 3153 3228 2886 
Q 3006 2619 2597 2516 
z
" transform="scale(0.015625)"/>
        <path id="DejaVuSans-35" d="M 691 4666 
L 3169 4666 
L 3169 4134 
L 1269 4134 
L 1269 2991 
Q 1406 3038 1543 3061 
Q 1681 3084 1819 3084 
Q 2600 3084 3056 2656 
Q 3513 2228 3513 1497 
Q 3513 744 3044 326 
Q 2575 -91 1722 -91 
Q 1428 -91 1123 -41 
Q 819 9 494 109 
L 494 744 
Q 775 591 1075 516 
Q 1375 441 1709 441 
Q 2250 441 2565 725 
Q 2881 1009 2881 1497 
Q 2881 1984 2565 2268 
Q 2250 2553 1709 2553 
Q 1456 2553 1204 2497 
Q 953 2441 691 2322 
L 691 4666 
z
" transform="scale(0.015625)"/>
       </defs>
       <use xlink:href="#DejaVuSans-30"/>
       <use xlink:href="#DejaVuSans-2e" x="63.623047"/>
       <use xlink:href="#DejaVuSans-30" x="95.410156"/>
       <use xlink:href="#DejaVuSans-33" x="159.033203"/>
       <use xlink:href="#DejaVuSans-35" x="222.65625"/>
      </g>
     </g>
    </g>
    <g id="ytick_2">
     <g id="line2d_17">
      <path d="M 72 204.636866 
L 518.4 204.636866 
" clip-path="url(#p3a15247c76)" style="fill: none; stroke: #b0b0b0; stroke-width: 0.8; stroke-linecap: square"/>
     </g>
     <g id="line2d_18">
      <g>
       <use xlink:href="#ma9500fa3b0" x="72" y="204.636866" style="stroke: #000000; stroke-width: 0.8"/>
      </g>
     </g>
     <g id="text_10">
      <!-- 0.040 -->
      <g transform="translate(36.371875 208.436085) scale(0.1 -0.1)">
       <use xlink:href="#DejaVuSans-30"/>
       <use xlink:href="#DejaVuSans-2e" x="63.623047"/>
       <use xlink:href="#DejaVuSans-30" x="95.410156"/>
       <use xlink:href="#DejaVuSans-34" x="159.033203"/>
       <use xlink:href="#DejaVuSans-30" x="222.65625"/>
      </g>
     </g>
    </g>
    <g id="ytick_3">
     <g id="line2d_19">
      <path d="M 72 169.306483 
L 518.4 169.306483 
" clip-path="url(#p3a15247c76)" style="fill: none; stroke: #b0b0b0; stroke-width: 0.8; stroke-linecap: square"/>
     </g>
     <g id="line2d_20">
      <g>
       <use xlink:href="#ma9500fa3b0" x="72" y="169.306483" style="stroke: #000000; stroke-width: 0.8"/>
      </g>
     </g>
     <g id="text_11">
      <!-- 0.045 -->
      <g transform="translate(36.371875 173.105702) scale(0.1 -0.1)">
       <use xlink:href="#DejaVuSans-30"/>
       <use xlink:href="#DejaVuSans-2e" x="63.623047"/>
       <use xlink:href="#DejaVuSans-30" x="95.410156"/>
       <use xlink:href="#DejaVuSans-34" x="159.033203"/>
       <use xlink:href="#DejaVuSans-35" x="222.65625"/>
      </g>
     </g>
    </g>
    <g id="ytick_4">
     <g id="line2d_21">
      <path d="M 72 133.9761 
L 518.4 133.9761 
" clip-path="url(#p3a15247c76)" style="fill: none; stroke: #b0b0b0; stroke-width: 0.8; stroke-linecap: square"/>
     </g>
     <g id="line2d_22">
      <g>
       <use xlink:href="#ma9500fa3b0" x="72" y="133.9761" style="stroke: #000000; stroke-width: 0.8"/>
      </g>
     </g>
     <g id="text_12">
      <!-- 0.050 -->
      <g transform="translate(36.371875 137.775319) scale(0.1 -0.1)">
       <use xlink:href="#DejaVuSans-30"/>
       <use xlink:href="#DejaVuSans-2e" x="63.623047"/>
       <use xlink:href="#DejaVuSans-30" x="95.410156"/>
       <use xlink:href="#DejaVuSans-35" x="159.033203"/>
       <use xlink:href="#DejaVuSans-30" x="222.65625"/>
      </g>
     </g>
    </g>
    <g id="ytick_5">
     <g id="line2d_23">
      <path d="M 72 98.645717 
L 518.4 98.645717 
" clip-path="url(#p3a15247c76)" style="fill: none; stroke: #b0b0b0; stroke-width: 0.8; stroke-linecap: square"/>
     </g>
     <g id="line2d_24">
      <g>
       <use xlink:href="#ma9500fa3b0" x="72" y="98.645717" style="stroke: #000000; stroke-width: 0.8"/>
      </g>
     </g>
     <g id="text_13">
      <!-- 0.055 -->
      <g transform="translate(36.371875 102.444936) scale(0.1 -0.1)">
       <use xlink:href="#DejaVuSans-30"/>
       <use xlink:href="#DejaVuSans-2e" x="63.623047"/>
       <use xlink:href="#DejaVuSans-30" x="95.410156"/>
       <use xlink:href="#DejaVuSans-35" x="159.033203"/>
       <use xlink:href="#DejaVuSans-35" x="222.65625"/>
      </g>
     </g>
    </g>
    <g id="ytick_6">
     <g id="line2d_25">
      <path d="M 72 63.315334 
L 518.4 63.315334 
" clip-path="url(#p3a15247c76)" style="fill: none; stroke: #b0b0b0; stroke-width: 0.8; stroke-linecap: square"/>
     </g>
     <g id="line2d_26">
      <g>
       <use xlink:href="#ma9500fa3b0" x="72" y="63.315334" style="stroke: #000000; stroke-width: 0.8"/>
      </g>
     </g>
     <g id="text_14">
      <!-- 0.060 -->
      <g transform="translate(36.371875 67.114553) scale(0.1 -0.1)">
       <use xlink:href="#DejaVuSans-30"/>
       <use xlink:href="#DejaVuSans-2e" x="63.623047"/>
       <use xlink:href="#DejaVuSans-30" x="95.410156"/>
       <use xlink:href="#DejaVuSans-36" x="159.033203"/>
       <use xlink:href="#DejaVuSans-30" x="222.65625"/>
      </g>
     </g>
    </g>
    <g id="text_15">
     <!-- Validation MSE -->
     <g transform="translate(30.292188 182.367344) rotate(-90) scale(0.1 -0.1)">
      <defs>
       <path id="DejaVuSans-56" d="M 1831 0 
L 50 4666 
L 709 4666 
L 2188 738 
L 3669 4666 
L 4325 4666 
L 2547 0 
L 1831 0 
z
" transform="scale(0.015625)"/>
       <path id="DejaVuSans-61" d="M 2194 1759 
Q 1497 1759 1228 1600 
Q 959 1441 959 1056 
Q 959 750 1161 570 
Q 1363 391 1709 391 
Q 2188 391 2477 730 
Q 2766 1069 2766 1631 
L 2766 1759 
L 2194 1759 
z
M 3341 1997 
L 3341 0 
L 2766 0 
L 2766 531 
Q 2569 213 2275 61 
Q 1981 -91 1556 -91 
Q 1019 -91 701 211 
Q 384 513 384 1019 
Q 384 1609 779 1909 
Q 1175 2209 1959 2209 
L 2766 2209 
L 2766 2266 
Q 2766 2663 2505 2880 
Q 2244 3097 1772 3097 
Q 1472 3097 1187 3025 
Q 903 2953 641 2809 
L 641 3341 
Q 956 3463 1253 3523 
Q 1550 3584 1831 3584 
Q 2591 3584 2966 3190 
Q 3341 2797 3341 1997 
z
" transform="scale(0.015625)"/>
       <path id="DejaVuSans-6c" d="M 603 4863 
L 1178 4863 
L 1178 0 
L 603 0 
L 603 4863 
z
" transform="scale(0.015625)"/>
       <path id="DejaVuSans-69" d="M 603 3500 
L 1178 3500 
L 1178 0 
L 603 0 
L 603 3500 
z
M 603 4863 
L 1178 4863 
L 1178 4134 
L 603 4134 
L 603 4863 
z
" transform="scale(0.015625)"/>
       <path id="DejaVuSans-64" d="M 2906 2969 
L 2906 4863 
L 3481 4863 
L 3481 0 
L 2906 0 
L 2906 525 
Q 2725 213 2448 61 
Q 2172 -91 1784 -91 
Q 1150 -91 751 415 
Q 353 922 353 1747 
Q 353 2572 751 3078 
Q 1150 3584 1784 3584 
Q 2172 3584 2448 3432 
Q 2725 3281 2906 2969 
z
M 947 1747 
Q 947 1113 1208 752 
Q 1469 391 1925 391 
Q 2381 391 2643 752 
Q 2906 1113 2906 1747 
Q 2906 2381 2643 2742 
Q 2381 3103 1925 3103 
Q 1469 3103 1208 2742 
Q 947 2381 947 1747 
z
" transform="scale(0.015625)"/>
       <path id="DejaVuSans-74" d="M 1172 4494 
L 1172 3500 
L 2356 3500 
L 2356 3053 
L 1172 3053 
L 1172 1153 
Q 1172 725 1289 603 
Q 1406 481 1766 481 
L 2356 481 
L 2356 0 
L 1766 0 
Q 1100 0 847 248 
Q 594 497 594 1153 
L 594 3053 
L 172 3053 
L 172 3500 
L 594 3500 
L 594 4494 
L 1172 4494 
z
" transform="scale(0.015625)"/>
       <path id="DejaVuSans-6e" d="M 3513 2113 
L 3513 0 
L 2938 0 
L 2938 2094 
Q 2938 2591 2744 2837 
Q 2550 3084 2163 3084 
Q 1697 3084 1428 2787 
Q 1159 2491 1159 1978 
L 1159 0 
L 581 0 
L 581 3500 
L 1159 3500 
L 1159 2956 
Q 1366 3272 1645 3428 
Q 1925 3584 2291 3584 
Q 2894 3584 3203 3211 
Q 3513 2838 3513 2113 
z
" transform="scale(0.015625)"/>
       <path id="DejaVuSans-20" transform="scale(0.015625)"/>
       <path id="DejaVuSans-4d" d="M 628 4666 
L 1569 4666 
L 2759 1491 
L 3956 4666 
L 4897 4666 
L 4897 0 
L 4281 0 
L 4281 4097 
L 3078 897 
L 2444 897 
L 1241 4097 
L 1241 0 
L 628 0 
L 628 4666 
z
" transform="scale(0.015625)"/>
       <path id="DejaVuSans-53" d="M 3425 4513 
L 3425 3897 
Q 3066 4069 2747 4153 
Q 2428 4238 2131 4238 
Q 1616 4238 1336 4038 
Q 1056 3838 1056 3469 
Q 1056 3159 1242 3001 
Q 1428 2844 1947 2747 
L 2328 2669 
Q 3034 2534 3370 2195 
Q 3706 1856 3706 1288 
Q 3706 609 3251 259 
Q 2797 -91 1919 -91 
Q 1588 -91 1214 -16 
Q 841 59 441 206 
L 441 856 
Q 825 641 1194 531 
Q 1563 422 1919 422 
Q 2459 422 2753 634 
Q 3047 847 3047 1241 
Q 3047 1584 2836 1778 
Q 2625 1972 2144 2069 
L 1759 2144 
Q 1053 2284 737 2584 
Q 422 2884 422 3419 
Q 422 4038 858 4394 
Q 1294 4750 2059 4750 
Q 2388 4750 2728 4690 
Q 3069 4631 3425 4513 
z
" transform="scale(0.015625)"/>
      </defs>
      <use xlink:href="#DejaVuSans-56"/>
      <use xlink:href="#DejaVuSans-61" x="60.658203"/>
      <use xlink:href="#DejaVuSans-6c" x="121.9375"/>
      <use xlink:href="#DejaVuSans-69" x="149.720703"/>
      <use xlink:href="#DejaVuSans-64" x="177.503906"/>
      <use xlink:href="#DejaVuSans-61" x="240.980469"/>
      <use xlink:href="#DejaVuSans-74" x="302.259766"/>
      <use xlink:href="#DejaVuSans-69" x="341.46875"/>
      <use xlink:href="#DejaVuSans-6f" x="369.251953"/>
      <use xlink:href="#DejaVuSans-6e" x="430.433594"/>
      <use xlink:href="#DejaVuSans-20" x="493.8125"/>
      <use xlink:href="#DejaVuSans-4d" x="525.599609"/>
      <use xlink:href="#DejaVuSans-53" x="611.878906"/>
      <use xlink:href="#DejaVuSans-45" x="675.355469"/>
     </g>
    </g>
   </g>
   <g id="line2d_27">
    <path d="M 92.290909 95.404359 
L 95.486328 103.553826 
L 98.681747 110.625796 
L 101.877165 143.724229 
L 105.072584 126.639391 
L 108.268003 150.827702 
L 111.463422 165.846088 
L 114.65884 175.375004 
L 117.854259 173.651043 
L 121.049678 172.881525 
L 124.245097 177.120728 
L 127.440515 190.025178 
L 130.635934 180.920858 
L 137.026772 194.318036 
L 140.22219 196.241812 
L 143.417609 195.078706 
L 146.613028 183.731721 
L 149.808447 188.664716 
L 153.003865 200.23613 
L 156.199284 208.541808 
L 159.394703 212.329376 
L 162.590122 210.025075 
L 165.78554 212.637293 
L 168.980959 201.613217 
L 172.176378 207.27217 
L 175.371797 209.743088 
L 178.567215 208.866851 
L 181.762634 215.503223 
L 184.958053 214.330541 
L 188.153472 216.611646 
L 191.34889 214.331539 
L 194.544309 219.349891 
L 197.739728 217.344156 
L 200.935147 220.593383 
L 204.130565 221.235084 
L 207.325984 217.362676 
L 210.521403 225.685013 
L 213.716822 219.221596 
L 216.912241 229.610106 
L 220.107659 220.646454 
L 223.303078 223.735498 
L 226.498497 224.49423 
L 229.693916 218.168898 
L 232.889334 228.67157 
L 236.084753 223.145355 
L 239.280172 226.421631 
L 242.475591 226.528531 
L 245.671009 229.650792 
L 248.866428 227.809424 
L 252.061847 223.924974 
L 255.257266 230.336441 
L 258.452684 227.77921 
L 261.648103 230.172392 
L 264.843522 230.135702 
L 268.038941 232.669866 
L 271.234359 230.097249 
L 274.429778 232.6042 
L 277.625197 230.390922 
L 280.820616 232.569503 
L 284.016034 232.480678 
L 287.211453 231.075133 
L 290.406872 234.328248 
L 293.602291 233.657864 
L 296.797709 228.137281 
L 299.993128 232.898894 
L 303.188547 228.714872 
L 306.383966 231.53872 
L 309.579384 234.66634 
L 312.774803 238.419883 
L 315.970222 231.774114 
L 319.165641 238.139877 
L 322.361059 235.233994 
L 325.556478 238.127567 
L 328.751897 238.516329 
L 331.947316 235.932685 
L 335.142734 233.179514 
L 338.338153 238.987573 
L 341.533572 238.617058 
L 344.728991 239.941236 
L 347.924409 234.122296 
L 351.119828 239.78613 
L 354.315247 238.076136 
L 357.510666 239.462812 
L 360.706084 240.199584 
L 363.901503 235.960248 
L 367.096922 239.047597 
L 370.292341 242.354874 
L 373.487759 238.713089 
L 376.683178 238.371451 
L 379.878597 235.72091 
L 383.074016 236.289349 
L 386.269435 237.135167 
L 389.464853 240.770727 
L 392.660272 238.181195 
L 395.855691 240.807737 
L 399.05111 241.156009 
L 402.246528 242.864193 
L 405.441947 241.776556 
L 408.637366 241.86451 
L 411.832785 242.117138 
L 415.028203 240.724044 
L 418.223622 242.97168 
L 421.419041 241.778478 
L 424.61446 242.821163 
L 427.809878 241.059024 
L 431.005297 241.85227 
L 434.200716 246.24 
L 437.396135 241.473529 
L 440.591553 244.957092 
L 443.786972 238.533388 
L 446.982391 241.983056 
L 450.17781 242.464058 
L 453.373228 241.689488 
L 456.568647 239.557409 
L 459.764066 241.312406 
L 462.959485 243.265315 
L 466.154903 244.583162 
L 469.350322 241.673211 
L 472.545741 245.364549 
L 475.74116 243.679148 
L 478.936578 245.172913 
L 482.131997 242.451107 
L 485.327416 244.694481 
L 488.522835 244.539278 
L 491.718253 242.250187 
L 494.913672 242.488868 
L 498.109091 242.496575 
L 498.109091 242.496575 
" clip-path="url(#p3a15247c76)" style="fill: none; stroke: #1f77b4; stroke-width: 1.5; stroke-linecap: square"/>
   </g>
   <g id="line2d_28">
    <path d="M 92.290909 100.441344 
L 95.486328 120.471395 
L 98.681747 140.241668 
L 101.877165 156.494448 
L 105.072584 151.529927 
L 108.268003 168.358559 
L 111.463422 167.819744 
L 114.65884 168.635447 
L 117.854259 168.869749 
L 121.049678 179.792698 
L 124.245097 175.68839 
L 127.440515 186.223148 
L 130.635934 189.71804 
L 133.831353 189.040609 
L 137.026772 194.428022 
L 140.22219 197.801633 
L 143.417609 197.166657 
L 146.613028 193.859499 
L 149.808447 198.571475 
L 153.003865 200.653074 
L 156.199284 213.425329 
L 159.394703 212.625978 
L 162.590122 209.100632 
L 165.78554 207.144951 
L 168.980959 208.483743 
L 172.176378 208.712541 
L 175.371797 213.660749 
L 178.567215 209.075728 
L 181.762634 207.043383 
L 184.958053 212.95029 
L 188.153472 213.602925 
L 191.34889 209.642621 
L 194.544309 213.622819 
L 197.739728 215.8838 
L 200.935147 215.001512 
L 204.130565 212.412547 
L 207.325984 216.637893 
L 210.521403 222.141329 
L 213.716822 214.499633 
L 216.912241 223.551165 
L 220.107659 223.396501 
L 223.303078 218.790975 
L 226.498497 218.912723 
L 229.693916 217.931861 
L 232.889334 221.989681 
L 236.084753 220.018563 
L 239.280172 220.261453 
L 242.475591 217.865176 
L 245.671009 220.68966 
L 248.866428 217.993806 
L 252.061847 217.924874 
L 255.257266 219.563089 
L 258.452684 223.452033 
L 261.648103 216.4492 
L 264.843522 219.712101 
L 268.038941 223.431609 
L 271.234359 217.989936 
L 274.429778 222.5448 
L 277.625197 218.688608 
L 280.820616 221.785682 
" clip-path="url(#p3a15247c76)" style="fill: none; stroke: #ff7f0e; stroke-width: 1.5; stroke-linecap: square"/>
   </g>
   <g id="line2d_29">
    <path d="M 92.290909 125.256019 
L 95.486328 130.160472 
L 98.681747 171.907371 
L 101.877165 151.086006 
L 105.072584 155.470683 
L 108.268003 180.243212 
L 111.463422 170.941795 
L 114.65884 174.380599 
L 117.854259 175.682153 
L 121.049678 177.22066 
L 124.245097 189.726429 
L 127.440515 186.711252 
L 130.635934 180.559649 
L 133.831353 189.741175 
L 137.026772 188.829949 
L 140.22219 185.060925 
L 143.417609 188.223078 
L 146.613028 180.429728 
L 149.808447 192.466102 
L 153.003865 199.446733 
L 156.199284 201.318085 
L 159.394703 197.794581 
L 162.590122 192.652352 
L 165.78554 197.128749 
L 168.980959 211.400914 
L 172.176378 203.176355 
L 175.371797 202.460799 
L 178.567215 205.466404 
L 181.762634 205.783551 
L 184.958053 211.351481 
L 188.153472 207.97746 
L 191.34889 200.816495 
L 194.544309 204.786521 
L 197.739728 213.659303 
L 200.935147 209.783016 
L 204.130565 215.03157 
L 207.325984 203.948544 
L 210.521403 211.691395 
L 213.716822 217.097078 
L 216.912241 224.7368 
L 220.107659 215.926149 
L 223.303078 209.503218 
L 226.498497 210.512985 
L 229.693916 214.447008 
L 232.889334 221.773846 
L 236.084753 218.940901 
L 239.280172 217.721464 
L 242.475591 218.440646 
L 245.671009 213.188992 
L 248.866428 222.16215 
L 252.061847 214.205373 
L 255.257266 222.975459 
L 258.452684 218.202863 
L 261.648103 213.718348 
L 264.843522 220.117131 
L 268.038941 215.168595 
L 271.234359 222.495611 
L 274.429778 215.017918 
L 277.625197 219.485614 
L 280.820616 221.467 
" clip-path="url(#p3a15247c76)" style="fill: none; stroke: #2ca02c; stroke-width: 1.5; stroke-linecap: square"/>
   </g>
   <g id="line2d_30">
    <path d="M 92.290909 44.64 
L 95.486328 100.896564 
L 98.681747 120.481619 
L 101.877165 126.300907 
L 105.072584 102.086807 
L 108.268003 138.550814 
L 111.463422 146.168842 
L 114.65884 152.356348 
L 117.854259 152.541281 
L 121.049678 153.90105 
L 124.245097 159.923132 
L 127.440515 161.196198 
L 130.635934 171.898039 
L 133.831353 184.782987 
L 137.026772 164.844662 
L 140.22219 164.954272 
L 143.417609 180.218373 
L 146.613028 170.031591 
L 149.808447 177.798659 
L 153.003865 186.292642 
L 156.199284 189.645189 
L 159.394703 176.930882 
L 162.590122 191.645311 
L 165.78554 192.425331 
L 168.980959 192.3191 
L 172.176378 191.937112 
L 175.371797 192.736523 
L 178.567215 204.277206 
L 181.762634 196.955675 
L 184.958053 198.949576 
L 188.153472 198.209737 
L 191.34889 188.032269 
L 194.544309 210.825764 
L 197.739728 185.425836 
L 200.935147 210.446168 
L 204.130565 200.661519 
L 207.325984 197.585393 
L 210.521403 203.731627 
L 213.716822 205.931305 
L 216.912241 203.915534 
L 220.107659 206.839507 
L 223.303078 204.964101 
L 226.498497 211.955261 
L 229.693916 207.538128 
L 232.889334 208.953366 
L 236.084753 203.041285 
L 239.280172 202.092657 
L 242.475591 205.177833 
L 245.671009 202.761326 
L 248.866428 202.655889 
L 252.061847 211.099761 
L 255.257266 212.580555 
L 258.452684 207.692389 
L 261.648103 210.938014 
L 264.843522 212.226658 
L 268.038941 210.390905 
L 271.234359 207.986623 
L 274.429778 211.921219 
L 277.625197 203.332017 
L 280.820616 219.962688 
L 284.016034 225.086444 
L 287.211453 220.816789 
L 290.406872 221.947819 
L 293.602291 210.078585 
L 296.797709 216.997902 
L 299.993128 218.359624 
L 303.188547 214.340304 
L 306.383966 214.265961 
L 309.579384 218.336507 
L 312.774803 220.918955 
L 315.970222 217.622787 
L 319.165641 222.330263 
L 322.361059 218.03472 
L 325.556478 220.463496 
L 328.751897 220.974408 
L 331.947316 217.394349 
L 335.142734 217.658415 
L 338.338153 216.42827 
L 341.533572 220.463548 
L 344.728991 215.029317 
L 347.924409 220.781809 
" clip-path="url(#p3a15247c76)" style="fill: none; stroke: #d62728; stroke-width: 1.5; stroke-linecap: square"/>
   </g>
   <g id="patch_3">
    <path d="M 72 256.32 
L 72 34.56 
" style="fill: none; stroke: #000000; stroke-width: 0.8; stroke-linejoin: miter; stroke-linecap: square"/>
   </g>
   <g id="patch_4">
    <path d="M 518.4 256.32 
L 518.4 34.56 
" style="fill: none; stroke: #000000; stroke-width: 0.8; stroke-linejoin: miter; stroke-linecap: square"/>
   </g>
   <g id="patch_5">
    <path d="M 72 256.32 
L 518.4 256.32 
" style="fill: none; stroke: #000000; stroke-width: 0.8; stroke-linejoin: miter; stroke-linecap: square"/>
   </g>
   <g id="patch_6">
    <path d="M 72 34.56 
L 518.4 34.56 
" style="fill: none; stroke: #000000; stroke-width: 0.8; stroke-linejoin: miter; stroke-linecap: square"/>
   </g>
   <g id="legend_1">
    <g id="patch_7">
     <path d="M 388.742188 115.950625 
L 511.4 115.950625 
Q 513.4 115.950625 513.4 113.950625 
L 513.4 41.56 
Q 513.4 39.56 511.4 39.56 
L 388.742188 39.56 
Q 386.742188 39.56 386.742188 41.56 
L 386.742188 113.950625 
Q 386.742188 115.950625 388.742188 115.950625 
z
" style="fill: #ffffff; opacity: 0.8; stroke: #cccccc; stroke-linejoin: miter"/>
    </g>
    <g id="text_16">
     <!-- dense layer dimensions -->
     <g transform="translate(390.742188 51.158437) scale(0.1 -0.1)">
      <defs>
       <path id="DejaVuSans-65" d="M 3597 1894 
L 3597 1613 
L 953 1613 
Q 991 1019 1311 708 
Q 1631 397 2203 397 
Q 2534 397 2845 478 
Q 3156 559 3463 722 
L 3463 178 
Q 3153 47 2828 -22 
Q 2503 -91 2169 -91 
Q 1331 -91 842 396 
Q 353 884 353 1716 
Q 353 2575 817 3079 
Q 1281 3584 2069 3584 
Q 2775 3584 3186 3129 
Q 3597 2675 3597 1894 
z
M 3022 2063 
Q 3016 2534 2758 2815 
Q 2500 3097 2075 3097 
Q 1594 3097 1305 2825 
Q 1016 2553 972 2059 
L 3022 2063 
z
" transform="scale(0.015625)"/>
       <path id="DejaVuSans-73" d="M 2834 3397 
L 2834 2853 
Q 2591 2978 2328 3040 
Q 2066 3103 1784 3103 
Q 1356 3103 1142 2972 
Q 928 2841 928 2578 
Q 928 2378 1081 2264 
Q 1234 2150 1697 2047 
L 1894 2003 
Q 2506 1872 2764 1633 
Q 3022 1394 3022 966 
Q 3022 478 2636 193 
Q 2250 -91 1575 -91 
Q 1294 -91 989 -36 
Q 684 19 347 128 
L 347 722 
Q 666 556 975 473 
Q 1284 391 1588 391 
Q 1994 391 2212 530 
Q 2431 669 2431 922 
Q 2431 1156 2273 1281 
Q 2116 1406 1581 1522 
L 1381 1569 
Q 847 1681 609 1914 
Q 372 2147 372 2553 
Q 372 3047 722 3315 
Q 1072 3584 1716 3584 
Q 2034 3584 2315 3537 
Q 2597 3491 2834 3397 
z
" transform="scale(0.015625)"/>
       <path id="DejaVuSans-79" d="M 2059 -325 
Q 1816 -950 1584 -1140 
Q 1353 -1331 966 -1331 
L 506 -1331 
L 506 -850 
L 844 -850 
Q 1081 -850 1212 -737 
Q 1344 -625 1503 -206 
L 1606 56 
L 191 3500 
L 800 3500 
L 1894 763 
L 2988 3500 
L 3597 3500 
L 2059 -325 
z
" transform="scale(0.015625)"/>
       <path id="DejaVuSans-72" d="M 2631 2963 
Q 2534 3019 2420 3045 
Q 2306 3072 2169 3072 
Q 1681 3072 1420 2755 
Q 1159 2438 1159 1844 
L 1159 0 
L 581 0 
L 581 3500 
L 1159 3500 
L 1159 2956 
Q 1341 3275 1631 3429 
Q 1922 3584 2338 3584 
Q 2397 3584 2469 3576 
Q 2541 3569 2628 3553 
L 2631 2963 
z
" transform="scale(0.015625)"/>
       <path id="DejaVuSans-6d" d="M 3328 2828 
Q 3544 3216 3844 3400 
Q 4144 3584 4550 3584 
Q 5097 3584 5394 3201 
Q 5691 2819 5691 2113 
L 5691 0 
L 5113 0 
L 5113 2094 
Q 5113 2597 4934 2840 
Q 4756 3084 4391 3084 
Q 3944 3084 3684 2787 
Q 3425 2491 3425 1978 
L 3425 0 
L 2847 0 
L 2847 2094 
Q 2847 2600 2669 2842 
Q 2491 3084 2119 3084 
Q 1678 3084 1418 2786 
Q 1159 2488 1159 1978 
L 1159 0 
L 581 0 
L 581 3500 
L 1159 3500 
L 1159 2956 
Q 1356 3278 1631 3431 
Q 1906 3584 2284 3584 
Q 2666 3584 2933 3390 
Q 3200 3197 3328 2828 
z
" transform="scale(0.015625)"/>
      </defs>
      <use xlink:href="#DejaVuSans-64"/>
      <use xlink:href="#DejaVuSans-65" x="63.476562"/>
      <use xlink:href="#DejaVuSans-6e" x="125"/>
      <use xlink:href="#DejaVuSans-73" x="188.378906"/>
      <use xlink:href="#DejaVuSans-65" x="240.478516"/>
      <use xlink:href="#DejaVuSans-20" x="302.001953"/>
      <use xlink:href="#DejaVuSans-6c" x="333.789062"/>
      <use xlink:href="#DejaVuSans-61" x="361.572266"/>
      <use xlink:href="#DejaVuSans-79" x="422.851562"/>
      <use xlink:href="#DejaVuSans-65" x="482.03125"/>
      <use xlink:href="#DejaVuSans-72" x="543.554688"/>
      <use xlink:href="#DejaVuSans-20" x="584.667969"/>
      <use xlink:href="#DejaVuSans-64" x="616.455078"/>
      <use xlink:href="#DejaVuSans-69" x="679.931641"/>
      <use xlink:href="#DejaVuSans-6d" x="707.714844"/>
      <use xlink:href="#DejaVuSans-65" x="805.126953"/>
      <use xlink:href="#DejaVuSans-6e" x="866.650391"/>
      <use xlink:href="#DejaVuSans-73" x="930.029297"/>
      <use xlink:href="#DejaVuSans-69" x="982.128906"/>
      <use xlink:href="#DejaVuSans-6f" x="1009.912109"/>
      <use xlink:href="#DejaVuSans-6e" x="1071.09375"/>
      <use xlink:href="#DejaVuSans-73" x="1134.472656"/>
     </g>
    </g>
    <g id="line2d_31">
     <path d="M 391.539844 62.336562 
L 401.539844 62.336562 
L 411.539844 62.336562 
" style="fill: none; stroke: #1f77b4; stroke-width: 1.5; stroke-linecap: square"/>
    </g>
    <g id="text_17">
     <!-- 10000 -->
     <g transform="translate(419.539844 65.836562) scale(0.1 -0.1)">
      <use xlink:href="#DejaVuSans-31"/>
      <use xlink:href="#DejaVuSans-30" x="63.623047"/>
      <use xlink:href="#DejaVuSans-30" x="127.246094"/>
      <use xlink:href="#DejaVuSans-30" x="190.869141"/>
      <use xlink:href="#DejaVuSans-30" x="254.492188"/>
     </g>
    </g>
    <g id="line2d_32">
     <path d="M 391.539844 77.014687 
L 401.539844 77.014687 
L 411.539844 77.014687 
" style="fill: none; stroke: #ff7f0e; stroke-width: 1.5; stroke-linecap: square"/>
    </g>
    <g id="text_18">
     <!-- 2000 -->
     <g transform="translate(419.539844 80.514687) scale(0.1 -0.1)">
      <use xlink:href="#DejaVuSans-32"/>
      <use xlink:href="#DejaVuSans-30" x="63.623047"/>
      <use xlink:href="#DejaVuSans-30" x="127.246094"/>
      <use xlink:href="#DejaVuSans-30" x="190.869141"/>
     </g>
    </g>
    <g id="line2d_33">
     <path d="M 391.539844 91.692813 
L 401.539844 91.692813 
L 411.539844 91.692813 
" style="fill: none; stroke: #2ca02c; stroke-width: 1.5; stroke-linecap: square"/>
    </g>
    <g id="text_19">
     <!-- 2000, 2000 -->
     <g transform="translate(419.539844 95.192813) scale(0.1 -0.1)">
      <defs>
       <path id="DejaVuSans-2c" d="M 750 794 
L 1409 794 
L 1409 256 
L 897 -744 
L 494 -744 
L 750 256 
L 750 794 
z
" transform="scale(0.015625)"/>
      </defs>
      <use xlink:href="#DejaVuSans-32"/>
      <use xlink:href="#DejaVuSans-30" x="63.623047"/>
      <use xlink:href="#DejaVuSans-30" x="127.246094"/>
      <use xlink:href="#DejaVuSans-30" x="190.869141"/>
      <use xlink:href="#DejaVuSans-2c" x="254.492188"/>
      <use xlink:href="#DejaVuSans-20" x="286.279297"/>
      <use xlink:href="#DejaVuSans-32" x="318.066406"/>
      <use xlink:href="#DejaVuSans-30" x="381.689453"/>
      <use xlink:href="#DejaVuSans-30" x="445.3125"/>
      <use xlink:href="#DejaVuSans-30" x="508.935547"/>
     </g>
    </g>
    <g id="line2d_34">
     <path d="M 391.539844 106.370937 
L 401.539844 106.370937 
L 411.539844 106.370937 
" style="fill: none; stroke: #d62728; stroke-width: 1.5; stroke-linecap: square"/>
    </g>
    <g id="text_20">
     <!-- 2000, 2000, 2000 -->
     <g transform="translate(419.539844 109.870937) scale(0.1 -0.1)">
      <use xlink:href="#DejaVuSans-32"/>
      <use xlink:href="#DejaVuSans-30" x="63.623047"/>
      <use xlink:href="#DejaVuSans-30" x="127.246094"/>
      <use xlink:href="#DejaVuSans-30" x="190.869141"/>
      <use xlink:href="#DejaVuSans-2c" x="254.492188"/>
      <use xlink:href="#DejaVuSans-20" x="286.279297"/>
      <use xlink:href="#DejaVuSans-32" x="318.066406"/>
      <use xlink:href="#DejaVuSans-30" x="381.689453"/>
      <use xlink:href="#DejaVuSans-30" x="445.3125"/>
      <use xlink:href="#DejaVuSans-30" x="508.935547"/>
      <use xlink:href="#DejaVuSans-2c" x="572.558594"/>
      <use xlink:href="#DejaVuSans-20" x="604.345703"/>
      <use xlink:href="#DejaVuSans-32" x="636.132812"/>
      <use xlink:href="#DejaVuSans-30" x="699.755859"/>
      <use xlink:href="#DejaVuSans-30" x="763.378906"/>
      <use xlink:href="#DejaVuSans-30" x="827.001953"/>
     </g>
    </g>
   </g>
  </g>
 </g>
 <defs>
  <clipPath id="p3a15247c76">
   <rect x="72" y="34.56" width="446.4" height="221.76"/>
  </clipPath>
 </defs>
</svg>
