<?xml version="1.0" encoding="utf-8" standalone="no"?>
<!DOCTYPE svg PUBLIC "-//W3C//DTD SVG 1.1//EN"
  "http://www.w3.org/Graphics/SVG/1.1/DTD/svg11.dtd">
<svg xmlns:xlink="http://www.w3.org/1999/xlink" width="576pt" height="288pt" viewBox="0 0 576 288" xmlns="http://www.w3.org/2000/svg" version="1.1">
 <metadata>
  <rdf:RDF xmlns:dc="http://purl.org/dc/elements/1.1/" xmlns:cc="http://creativecommons.org/ns#" xmlns:rdf="http://www.w3.org/1999/02/22-rdf-syntax-ns#">
   <cc:Work>
    <dc:type rdf:resource="http://purl.org/dc/dcmitype/StillImage"/>
    <dc:date>2024-12-13T14:21:51.062743</dc:date>
    <dc:format>image/svg+xml</dc:format>
    <dc:creator>
     <cc:Agent>
      <dc:title>Matplotlib v3.7.2, https://matplotlib.org/</dc:title>
     </cc:Agent>
    </dc:creator>
   </cc:Work>
  </rdf:RDF>
 </metadata>
 <defs>
  <style type="text/css">*{stroke-linejoin: round; stroke-linecap: butt}</style>
 </defs>
 <g id="figure_1">
  <g id="patch_1">
   <path d="M 0 288 
L 576 288 
L 576 0 
L 0 0 
z
" style="fill: #ffffff"/>
  </g>
  <g id="axes_1">
   <g id="patch_2">
    <path d="M 72 256.32 
L 518.4 256.32 
L 518.4 34.56 
L 72 34.56 
z
" style="fill: #ffffff"/>
   </g>
   <g id="matplotlib.axis_1">
    <g id="xtick_1">
     <g id="line2d_1">
      <path d="M 92.290909 256.32 
L 92.290909 34.56 
" clip-path="url(#pe17aca9038)" style="fill: none; stroke: #b0b0b0; stroke-width: 0.8; stroke-linecap: square"/>
     </g>
     <g id="line2d_2">
      <defs>
       <path id="m3018e527c1" d="M 0 0 
L 0 3.5 
" style="stroke: #000000; stroke-width: 0.8"/>
      </defs>
      <g>
       <use xlink:href="#m3018e527c1" x="92.290909" y="256.32" style="stroke: #000000; stroke-width: 0.8"/>
      </g>
     </g>
     <g id="text_1">
      <!-- 0 -->
      <g transform="translate(89.109659 270.918437) scale(0.1 -0.1)">
       <defs>
        <path id="DejaVuSans-30" d="M 2034 4250 
Q 1547 4250 1301 3770 
Q 1056 3291 1056 2328 
Q 1056 1369 1301 889 
Q 1547 409 2034 409 
Q 2525 409 2770 889 
Q 3016 1369 3016 2328 
Q 3016 3291 2770 3770 
Q 2525 4250 2034 4250 
z
M 2034 4750 
Q 2819 4750 3233 4129 
Q 3647 3509 3647 2328 
Q 3647 1150 3233 529 
Q 2819 -91 2034 -91 
Q 1250 -91 836 529 
Q 422 1150 422 2328 
Q 422 3509 836 4129 
Q 1250 4750 2034 4750 
z
" transform="scale(0.015625)"/>
       </defs>
       <use xlink:href="#DejaVuSans-30"/>
      </g>
     </g>
    </g>
    <g id="xtick_2">
     <g id="line2d_3">
      <path d="M 151.970053 256.32 
L 151.970053 34.56 
" clip-path="url(#pe17aca9038)" style="fill: none; stroke: #b0b0b0; stroke-width: 0.8; stroke-linecap: square"/>
     </g>
     <g id="line2d_4">
      <g>
       <use xlink:href="#m3018e527c1" x="151.970053" y="256.32" style="stroke: #000000; stroke-width: 0.8"/>
      </g>
     </g>
     <g id="text_2">
      <!-- 20 -->
      <g transform="translate(145.607553 270.918437) scale(0.1 -0.1)">
       <defs>
        <path id="DejaVuSans-32" d="M 1228 531 
L 3431 531 
L 3431 0 
L 469 0 
L 469 531 
Q 828 903 1448 1529 
Q 2069 2156 2228 2338 
Q 2531 2678 2651 2914 
Q 2772 3150 2772 3378 
Q 2772 3750 2511 3984 
Q 2250 4219 1831 4219 
Q 1534 4219 1204 4116 
Q 875 4013 500 3803 
L 500 4441 
Q 881 4594 1212 4672 
Q 1544 4750 1819 4750 
Q 2544 4750 2975 4387 
Q 3406 4025 3406 3419 
Q 3406 3131 3298 2873 
Q 3191 2616 2906 2266 
Q 2828 2175 2409 1742 
Q 1991 1309 1228 531 
z
" transform="scale(0.015625)"/>
       </defs>
       <use xlink:href="#DejaVuSans-32"/>
       <use xlink:href="#DejaVuSans-30" x="63.623047"/>
      </g>
     </g>
    </g>
    <g id="xtick_3">
     <g id="line2d_5">
      <path d="M 211.649198 256.32 
L 211.649198 34.56 
" clip-path="url(#pe17aca9038)" style="fill: none; stroke: #b0b0b0; stroke-width: 0.8; stroke-linecap: square"/>
     </g>
     <g id="line2d_6">
      <g>
       <use xlink:href="#m3018e527c1" x="211.649198" y="256.32" style="stroke: #000000; stroke-width: 0.8"/>
      </g>
     </g>
     <g id="text_3">
      <!-- 40 -->
      <g transform="translate(205.286698 270.918437) scale(0.1 -0.1)">
       <defs>
        <path id="DejaVuSans-34" d="M 2419 4116 
L 825 1625 
L 2419 1625 
L 2419 4116 
z
M 2253 4666 
L 3047 4666 
L 3047 1625 
L 3713 1625 
L 3713 1100 
L 3047 1100 
L 3047 0 
L 2419 0 
L 2419 1100 
L 313 1100 
L 313 1709 
L 2253 4666 
z
" transform="scale(0.015625)"/>
       </defs>
       <use xlink:href="#DejaVuSans-34"/>
       <use xlink:href="#DejaVuSans-30" x="63.623047"/>
      </g>
     </g>
    </g>
    <g id="xtick_4">
     <g id="line2d_7">
      <path d="M 271.328342 256.32 
L 271.328342 34.56 
" clip-path="url(#pe17aca9038)" style="fill: none; stroke: #b0b0b0; stroke-width: 0.8; stroke-linecap: square"/>
     </g>
     <g id="line2d_8">
      <g>
       <use xlink:href="#m3018e527c1" x="271.328342" y="256.32" style="stroke: #000000; stroke-width: 0.8"/>
      </g>
     </g>
     <g id="text_4">
      <!-- 60 -->
      <g transform="translate(264.965842 270.918437) scale(0.1 -0.1)">
       <defs>
        <path id="DejaVuSans-36" d="M 2113 2584 
Q 1688 2584 1439 2293 
Q 1191 2003 1191 1497 
Q 1191 994 1439 701 
Q 1688 409 2113 409 
Q 2538 409 2786 701 
Q 3034 994 3034 1497 
Q 3034 2003 2786 2293 
Q 2538 2584 2113 2584 
z
M 3366 4563 
L 3366 3988 
Q 3128 4100 2886 4159 
Q 2644 4219 2406 4219 
Q 1781 4219 1451 3797 
Q 1122 3375 1075 2522 
Q 1259 2794 1537 2939 
Q 1816 3084 2150 3084 
Q 2853 3084 3261 2657 
Q 3669 2231 3669 1497 
Q 3669 778 3244 343 
Q 2819 -91 2113 -91 
Q 1303 -91 875 529 
Q 447 1150 447 2328 
Q 447 3434 972 4092 
Q 1497 4750 2381 4750 
Q 2619 4750 2861 4703 
Q 3103 4656 3366 4563 
z
" transform="scale(0.015625)"/>
       </defs>
       <use xlink:href="#DejaVuSans-36"/>
       <use xlink:href="#DejaVuSans-30" x="63.623047"/>
      </g>
     </g>
    </g>
    <g id="xtick_5">
     <g id="line2d_9">
      <path d="M 331.007487 256.32 
L 331.007487 34.56 
" clip-path="url(#pe17aca9038)" style="fill: none; stroke: #b0b0b0; stroke-width: 0.8; stroke-linecap: square"/>
     </g>
     <g id="line2d_10">
      <g>
       <use xlink:href="#m3018e527c1" x="331.007487" y="256.32" style="stroke: #000000; stroke-width: 0.8"/>
      </g>
     </g>
     <g id="text_5">
      <!-- 80 -->
      <g transform="translate(324.644987 270.918437) scale(0.1 -0.1)">
       <defs>
        <path id="DejaVuSans-38" d="M 2034 2216 
Q 1584 2216 1326 1975 
Q 1069 1734 1069 1313 
Q 1069 891 1326 650 
Q 1584 409 2034 409 
Q 2484 409 2743 651 
Q 3003 894 3003 1313 
Q 3003 1734 2745 1975 
Q 2488 2216 2034 2216 
z
M 1403 2484 
Q 997 2584 770 2862 
Q 544 3141 544 3541 
Q 544 4100 942 4425 
Q 1341 4750 2034 4750 
Q 2731 4750 3128 4425 
Q 3525 4100 3525 3541 
Q 3525 3141 3298 2862 
Q 3072 2584 2669 2484 
Q 3125 2378 3379 2068 
Q 3634 1759 3634 1313 
Q 3634 634 3220 271 
Q 2806 -91 2034 -91 
Q 1263 -91 848 271 
Q 434 634 434 1313 
Q 434 1759 690 2068 
Q 947 2378 1403 2484 
z
M 1172 3481 
Q 1172 3119 1398 2916 
Q 1625 2713 2034 2713 
Q 2441 2713 2670 2916 
Q 2900 3119 2900 3481 
Q 2900 3844 2670 4047 
Q 2441 4250 2034 4250 
Q 1625 4250 1398 4047 
Q 1172 3844 1172 3481 
z
" transform="scale(0.015625)"/>
       </defs>
       <use xlink:href="#DejaVuSans-38"/>
       <use xlink:href="#DejaVuSans-30" x="63.623047"/>
      </g>
     </g>
    </g>
    <g id="xtick_6">
     <g id="line2d_11">
      <path d="M 390.686631 256.32 
L 390.686631 34.56 
" clip-path="url(#pe17aca9038)" style="fill: none; stroke: #b0b0b0; stroke-width: 0.8; stroke-linecap: square"/>
     </g>
     <g id="line2d_12">
      <g>
       <use xlink:href="#m3018e527c1" x="390.686631" y="256.32" style="stroke: #000000; stroke-width: 0.8"/>
      </g>
     </g>
     <g id="text_6">
      <!-- 100 -->
      <g transform="translate(381.142881 270.918437) scale(0.1 -0.1)">
       <defs>
        <path id="DejaVuSans-31" d="M 794 531 
L 1825 531 
L 1825 4091 
L 703 3866 
L 703 4441 
L 1819 4666 
L 2450 4666 
L 2450 531 
L 3481 531 
L 3481 0 
L 794 0 
L 794 531 
z
" transform="scale(0.015625)"/>
       </defs>
       <use xlink:href="#DejaVuSans-31"/>
       <use xlink:href="#DejaVuSans-30" x="63.623047"/>
       <use xlink:href="#DejaVuSans-30" x="127.246094"/>
      </g>
     </g>
    </g>
    <g id="xtick_7">
     <g id="line2d_13">
      <path d="M 450.365775 256.32 
L 450.365775 34.56 
" clip-path="url(#pe17aca9038)" style="fill: none; stroke: #b0b0b0; stroke-width: 0.8; stroke-linecap: square"/>
     </g>
     <g id="line2d_14">
      <g>
       <use xlink:href="#m3018e527c1" x="450.365775" y="256.32" style="stroke: #000000; stroke-width: 0.8"/>
      </g>
     </g>
     <g id="text_7">
      <!-- 120 -->
      <g transform="translate(440.822025 270.918437) scale(0.1 -0.1)">
       <use xlink:href="#DejaVuSans-31"/>
       <use xlink:href="#DejaVuSans-32" x="63.623047"/>
       <use xlink:href="#DejaVuSans-30" x="127.246094"/>
      </g>
     </g>
    </g>
    <g id="xtick_8">
     <g id="line2d_15">
      <path d="M 510.04492 256.32 
L 510.04492 34.56 
" clip-path="url(#pe17aca9038)" style="fill: none; stroke: #b0b0b0; stroke-width: 0.8; stroke-linecap: square"/>
     </g>
     <g id="line2d_16">
      <g>
       <use xlink:href="#m3018e527c1" x="510.04492" y="256.32" style="stroke: #000000; stroke-width: 0.8"/>
      </g>
     </g>
     <g id="text_8">
      <!-- 140 -->
      <g transform="translate(500.50117 270.918437) scale(0.1 -0.1)">
       <use xlink:href="#DejaVuSans-31"/>
       <use xlink:href="#DejaVuSans-34" x="63.623047"/>
       <use xlink:href="#DejaVuSans-30" x="127.246094"/>
      </g>
     </g>
    </g>
    <g id="text_9">
     <!-- Epoch -->
     <g transform="translate(279.889062 284.596563) scale(0.1 -0.1)">
      <defs>
       <path id="DejaVuSans-45" d="M 628 4666 
L 3578 4666 
L 3578 4134 
L 1259 4134 
L 1259 2753 
L 3481 2753 
L 3481 2222 
L 1259 2222 
L 1259 531 
L 3634 531 
L 3634 0 
L 628 0 
L 628 4666 
z
" transform="scale(0.015625)"/>
       <path id="DejaVuSans-70" d="M 1159 525 
L 1159 -1331 
L 581 -1331 
L 581 3500 
L 1159 3500 
L 1159 2969 
Q 1341 3281 1617 3432 
Q 1894 3584 2278 3584 
Q 2916 3584 3314 3078 
Q 3713 2572 3713 1747 
Q 3713 922 3314 415 
Q 2916 -91 2278 -91 
Q 1894 -91 1617 61 
Q 1341 213 1159 525 
z
M 3116 1747 
Q 3116 2381 2855 2742 
Q 2594 3103 2138 3103 
Q 1681 3103 1420 2742 
Q 1159 2381 1159 1747 
Q 1159 1113 1420 752 
Q 1681 391 2138 391 
Q 2594 391 2855 752 
Q 3116 1113 3116 1747 
z
" transform="scale(0.015625)"/>
       <path id="DejaVuSans-6f" d="M 1959 3097 
Q 1497 3097 1228 2736 
Q 959 2375 959 1747 
Q 959 1119 1226 758 
Q 1494 397 1959 397 
Q 2419 397 2687 759 
Q 2956 1122 2956 1747 
Q 2956 2369 2687 2733 
Q 2419 3097 1959 3097 
z
M 1959 3584 
Q 2709 3584 3137 3096 
Q 3566 2609 3566 1747 
Q 3566 888 3137 398 
Q 2709 -91 1959 -91 
Q 1206 -91 779 398 
Q 353 888 353 1747 
Q 353 2609 779 3096 
Q 1206 3584 1959 3584 
z
" transform="scale(0.015625)"/>
       <path id="DejaVuSans-63" d="M 3122 3366 
L 3122 2828 
Q 2878 2963 2633 3030 
Q 2388 3097 2138 3097 
Q 1578 3097 1268 2742 
Q 959 2388 959 1747 
Q 959 1106 1268 751 
Q 1578 397 2138 397 
Q 2388 397 2633 464 
Q 2878 531 3122 666 
L 3122 134 
Q 2881 22 2623 -34 
Q 2366 -91 2075 -91 
Q 1284 -91 818 406 
Q 353 903 353 1747 
Q 353 2603 823 3093 
Q 1294 3584 2113 3584 
Q 2378 3584 2631 3529 
Q 2884 3475 3122 3366 
z
" transform="scale(0.015625)"/>
       <path id="DejaVuSans-68" d="M 3513 2113 
L 3513 0 
L 2938 0 
L 2938 2094 
Q 2938 2591 2744 2837 
Q 2550 3084 2163 3084 
Q 1697 3084 1428 2787 
Q 1159 2491 1159 1978 
L 1159 0 
L 581 0 
L 581 4863 
L 1159 4863 
L 1159 2956 
Q 1366 3272 1645 3428 
Q 1925 3584 2291 3584 
Q 2894 3584 3203 3211 
Q 3513 2838 3513 2113 
z
" transform="scale(0.015625)"/>
      </defs>
      <use xlink:href="#DejaVuSans-45"/>
      <use xlink:href="#DejaVuSans-70" x="63.183594"/>
      <use xlink:href="#DejaVuSans-6f" x="126.660156"/>
      <use xlink:href="#DejaVuSans-63" x="187.841797"/>
      <use xlink:href="#DejaVuSans-68" x="242.822266"/>
     </g>
    </g>
   </g>
   <g id="matplotlib.axis_2">
    <g id="ytick_1">
     <g id="line2d_17">
      <path d="M 72 243.818007 
L 518.4 243.818007 
" clip-path="url(#pe17aca9038)" style="fill: none; stroke: #b0b0b0; stroke-width: 0.8; stroke-linecap: square"/>
     </g>
     <g id="line2d_18">
      <defs>
       <path id="m45c465a21c" d="M 0 0 
L -3.5 0 
" style="stroke: #000000; stroke-width: 0.8"/>
      </defs>
      <g>
       <use xlink:href="#m45c465a21c" x="72" y="243.818007" style="stroke: #000000; stroke-width: 0.8"/>
      </g>
     </g>
     <g id="text_10">
      <!-- 0.035 -->
      <g transform="translate(36.371875 247.617226) scale(0.1 -0.1)">
       <defs>
        <path id="DejaVuSans-2e" d="M 684 794 
L 1344 794 
L 1344 0 
L 684 0 
L 684 794 
z
" transform="scale(0.015625)"/>
        <path id="DejaVuSans-33" d="M 2597 2516 
Q 3050 2419 3304 2112 
Q 3559 1806 3559 1356 
Q 3559 666 3084 287 
Q 2609 -91 1734 -91 
Q 1441 -91 1130 -33 
Q 819 25 488 141 
L 488 750 
Q 750 597 1062 519 
Q 1375 441 1716 441 
Q 2309 441 2620 675 
Q 2931 909 2931 1356 
Q 2931 1769 2642 2001 
Q 2353 2234 1838 2234 
L 1294 2234 
L 1294 2753 
L 1863 2753 
Q 2328 2753 2575 2939 
Q 2822 3125 2822 3475 
Q 2822 3834 2567 4026 
Q 2313 4219 1838 4219 
Q 1578 4219 1281 4162 
Q 984 4106 628 3988 
L 628 4550 
Q 988 4650 1302 4700 
Q 1616 4750 1894 4750 
Q 2613 4750 3031 4423 
Q 3450 4097 3450 3541 
Q 3450 3153 3228 2886 
Q 3006 2619 2597 2516 
z
" transform="scale(0.015625)"/>
        <path id="DejaVuSans-35" d="M 691 4666 
L 3169 4666 
L 3169 4134 
L 1269 4134 
L 1269 2991 
Q 1406 3038 1543 3061 
Q 1681 3084 1819 3084 
Q 2600 3084 3056 2656 
Q 3513 2228 3513 1497 
Q 3513 744 3044 326 
Q 2575 -91 1722 -91 
Q 1428 -91 1123 -41 
Q 819 9 494 109 
L 494 744 
Q 775 591 1075 516 
Q 1375 441 1709 441 
Q 2250 441 2565 725 
Q 2881 1009 2881 1497 
Q 2881 1984 2565 2268 
Q 2250 2553 1709 2553 
Q 1456 2553 1204 2497 
Q 953 2441 691 2322 
L 691 4666 
z
" transform="scale(0.015625)"/>
       </defs>
       <use xlink:href="#DejaVuSans-30"/>
       <use xlink:href="#DejaVuSans-2e" x="63.623047"/>
       <use xlink:href="#DejaVuSans-30" x="95.410156"/>
       <use xlink:href="#DejaVuSans-33" x="159.033203"/>
       <use xlink:href="#DejaVuSans-35" x="222.65625"/>
      </g>
     </g>
    </g>
    <g id="ytick_2">
     <g id="line2d_19">
      <path d="M 72 199.730631 
L 518.4 199.730631 
" clip-path="url(#pe17aca9038)" style="fill: none; stroke: #b0b0b0; stroke-width: 0.8; stroke-linecap: square"/>
     </g>
     <g id="line2d_20">
      <g>
       <use xlink:href="#m45c465a21c" x="72" y="199.730631" style="stroke: #000000; stroke-width: 0.8"/>
      </g>
     </g>
     <g id="text_11">
      <!-- 0.040 -->
      <g transform="translate(36.371875 203.52985) scale(0.1 -0.1)">
       <use xlink:href="#DejaVuSans-30"/>
       <use xlink:href="#DejaVuSans-2e" x="63.623047"/>
       <use xlink:href="#DejaVuSans-30" x="95.410156"/>
       <use xlink:href="#DejaVuSans-34" x="159.033203"/>
       <use xlink:href="#DejaVuSans-30" x="222.65625"/>
      </g>
     </g>
    </g>
    <g id="ytick_3">
     <g id="line2d_21">
      <path d="M 72 155.643255 
L 518.4 155.643255 
" clip-path="url(#pe17aca9038)" style="fill: none; stroke: #b0b0b0; stroke-width: 0.8; stroke-linecap: square"/>
     </g>
     <g id="line2d_22">
      <g>
       <use xlink:href="#m45c465a21c" x="72" y="155.643255" style="stroke: #000000; stroke-width: 0.8"/>
      </g>
     </g>
     <g id="text_12">
      <!-- 0.045 -->
      <g transform="translate(36.371875 159.442474) scale(0.1 -0.1)">
       <use xlink:href="#DejaVuSans-30"/>
       <use xlink:href="#DejaVuSans-2e" x="63.623047"/>
       <use xlink:href="#DejaVuSans-30" x="95.410156"/>
       <use xlink:href="#DejaVuSans-34" x="159.033203"/>
       <use xlink:href="#DejaVuSans-35" x="222.65625"/>
      </g>
     </g>
    </g>
    <g id="ytick_4">
     <g id="line2d_23">
      <path d="M 72 111.555879 
L 518.4 111.555879 
" clip-path="url(#pe17aca9038)" style="fill: none; stroke: #b0b0b0; stroke-width: 0.8; stroke-linecap: square"/>
     </g>
     <g id="line2d_24">
      <g>
       <use xlink:href="#m45c465a21c" x="72" y="111.555879" style="stroke: #000000; stroke-width: 0.8"/>
      </g>
     </g>
     <g id="text_13">
      <!-- 0.050 -->
      <g transform="translate(36.371875 115.355098) scale(0.1 -0.1)">
       <use xlink:href="#DejaVuSans-30"/>
       <use xlink:href="#DejaVuSans-2e" x="63.623047"/>
       <use xlink:href="#DejaVuSans-30" x="95.410156"/>
       <use xlink:href="#DejaVuSans-35" x="159.033203"/>
       <use xlink:href="#DejaVuSans-30" x="222.65625"/>
      </g>
     </g>
    </g>
    <g id="ytick_5">
     <g id="line2d_25">
      <path d="M 72 67.468503 
L 518.4 67.468503 
" clip-path="url(#pe17aca9038)" style="fill: none; stroke: #b0b0b0; stroke-width: 0.8; stroke-linecap: square"/>
     </g>
     <g id="line2d_26">
      <g>
       <use xlink:href="#m45c465a21c" x="72" y="67.468503" style="stroke: #000000; stroke-width: 0.8"/>
      </g>
     </g>
     <g id="text_14">
      <!-- 0.055 -->
      <g transform="translate(36.371875 71.267722) scale(0.1 -0.1)">
       <use xlink:href="#DejaVuSans-30"/>
       <use xlink:href="#DejaVuSans-2e" x="63.623047"/>
       <use xlink:href="#DejaVuSans-30" x="95.410156"/>
       <use xlink:href="#DejaVuSans-35" x="159.033203"/>
       <use xlink:href="#DejaVuSans-35" x="222.65625"/>
      </g>
     </g>
    </g>
    <g id="text_15">
     <!-- Validation MSE -->
     <g transform="translate(30.292188 182.367344) rotate(-90) scale(0.1 -0.1)">
      <defs>
       <path id="DejaVuSans-56" d="M 1831 0 
L 50 4666 
L 709 4666 
L 2188 738 
L 3669 4666 
L 4325 4666 
L 2547 0 
L 1831 0 
z
" transform="scale(0.015625)"/>
       <path id="DejaVuSans-61" d="M 2194 1759 
Q 1497 1759 1228 1600 
Q 959 1441 959 1056 
Q 959 750 1161 570 
Q 1363 391 1709 391 
Q 2188 391 2477 730 
Q 2766 1069 2766 1631 
L 2766 1759 
L 2194 1759 
z
M 3341 1997 
L 3341 0 
L 2766 0 
L 2766 531 
Q 2569 213 2275 61 
Q 1981 -91 1556 -91 
Q 1019 -91 701 211 
Q 384 513 384 1019 
Q 384 1609 779 1909 
Q 1175 2209 1959 2209 
L 2766 2209 
L 2766 2266 
Q 2766 2663 2505 2880 
Q 2244 3097 1772 3097 
Q 1472 3097 1187 3025 
Q 903 2953 641 2809 
L 641 3341 
Q 956 3463 1253 3523 
Q 1550 3584 1831 3584 
Q 2591 3584 2966 3190 
Q 3341 2797 3341 1997 
z
" transform="scale(0.015625)"/>
       <path id="DejaVuSans-6c" d="M 603 4863 
L 1178 4863 
L 1178 0 
L 603 0 
L 603 4863 
z
" transform="scale(0.015625)"/>
       <path id="DejaVuSans-69" d="M 603 3500 
L 1178 3500 
L 1178 0 
L 603 0 
L 603 3500 
z
M 603 4863 
L 1178 4863 
L 1178 4134 
L 603 4134 
L 603 4863 
z
" transform="scale(0.015625)"/>
       <path id="DejaVuSans-64" d="M 2906 2969 
L 2906 4863 
L 3481 4863 
L 3481 0 
L 2906 0 
L 2906 525 
Q 2725 213 2448 61 
Q 2172 -91 1784 -91 
Q 1150 -91 751 415 
Q 353 922 353 1747 
Q 353 2572 751 3078 
Q 1150 3584 1784 3584 
Q 2172 3584 2448 3432 
Q 2725 3281 2906 2969 
z
M 947 1747 
Q 947 1113 1208 752 
Q 1469 391 1925 391 
Q 2381 391 2643 752 
Q 2906 1113 2906 1747 
Q 2906 2381 2643 2742 
Q 2381 3103 1925 3103 
Q 1469 3103 1208 2742 
Q 947 2381 947 1747 
z
" transform="scale(0.015625)"/>
       <path id="DejaVuSans-74" d="M 1172 4494 
L 1172 3500 
L 2356 3500 
L 2356 3053 
L 1172 3053 
L 1172 1153 
Q 1172 725 1289 603 
Q 1406 481 1766 481 
L 2356 481 
L 2356 0 
L 1766 0 
Q 1100 0 847 248 
Q 594 497 594 1153 
L 594 3053 
L 172 3053 
L 172 3500 
L 594 3500 
L 594 4494 
L 1172 4494 
z
" transform="scale(0.015625)"/>
       <path id="DejaVuSans-6e" d="M 3513 2113 
L 3513 0 
L 2938 0 
L 2938 2094 
Q 2938 2591 2744 2837 
Q 2550 3084 2163 3084 
Q 1697 3084 1428 2787 
Q 1159 2491 1159 1978 
L 1159 0 
L 581 0 
L 581 3500 
L 1159 3500 
L 1159 2956 
Q 1366 3272 1645 3428 
Q 1925 3584 2291 3584 
Q 2894 3584 3203 3211 
Q 3513 2838 3513 2113 
z
" transform="scale(0.015625)"/>
       <path id="DejaVuSans-20" transform="scale(0.015625)"/>
       <path id="DejaVuSans-4d" d="M 628 4666 
L 1569 4666 
L 2759 1491 
L 3956 4666 
L 4897 4666 
L 4897 0 
L 4281 0 
L 4281 4097 
L 3078 897 
L 2444 897 
L 1241 4097 
L 1241 0 
L 628 0 
L 628 4666 
z
" transform="scale(0.015625)"/>
       <path id="DejaVuSans-53" d="M 3425 4513 
L 3425 3897 
Q 3066 4069 2747 4153 
Q 2428 4238 2131 4238 
Q 1616 4238 1336 4038 
Q 1056 3838 1056 3469 
Q 1056 3159 1242 3001 
Q 1428 2844 1947 2747 
L 2328 2669 
Q 3034 2534 3370 2195 
Q 3706 1856 3706 1288 
Q 3706 609 3251 259 
Q 2797 -91 1919 -91 
Q 1588 -91 1214 -16 
Q 841 59 441 206 
L 441 856 
Q 825 641 1194 531 
Q 1563 422 1919 422 
Q 2459 422 2753 634 
Q 3047 847 3047 1241 
Q 3047 1584 2836 1778 
Q 2625 1972 2144 2069 
L 1759 2144 
Q 1053 2284 737 2584 
Q 422 2884 422 3419 
Q 422 4038 858 4394 
Q 1294 4750 2059 4750 
Q 2388 4750 2728 4690 
Q 3069 4631 3425 4513 
z
" transform="scale(0.015625)"/>
      </defs>
      <use xlink:href="#DejaVuSans-56"/>
      <use xlink:href="#DejaVuSans-61" x="60.658203"/>
      <use xlink:href="#DejaVuSans-6c" x="121.9375"/>
      <use xlink:href="#DejaVuSans-69" x="149.720703"/>
      <use xlink:href="#DejaVuSans-64" x="177.503906"/>
      <use xlink:href="#DejaVuSans-61" x="240.980469"/>
      <use xlink:href="#DejaVuSans-74" x="302.259766"/>
      <use xlink:href="#DejaVuSans-69" x="341.46875"/>
      <use xlink:href="#DejaVuSans-6f" x="369.251953"/>
      <use xlink:href="#DejaVuSans-6e" x="430.433594"/>
      <use xlink:href="#DejaVuSans-20" x="493.8125"/>
      <use xlink:href="#DejaVuSans-4d" x="525.599609"/>
      <use xlink:href="#DejaVuSans-53" x="611.878906"/>
      <use xlink:href="#DejaVuSans-45" x="675.355469"/>
     </g>
    </g>
   </g>
   <g id="line2d_27">
    <path d="M 92.290909 48.099615 
L 95.274866 44.64 
L 98.258824 101.251864 
L 101.242781 109.327105 
L 104.226738 118.379559 
L 107.210695 103.582557 
L 110.194652 146.610964 
L 113.17861 157.998022 
L 116.162567 143.009625 
L 119.146524 162.783902 
L 122.130481 161.57174 
L 125.114439 167.764418 
L 128.098396 160.056584 
L 131.082353 160.775616 
L 134.06631 179.08829 
L 137.050267 177.075286 
L 140.034225 184.419889 
L 143.018182 180.24983 
L 146.002139 179.738875 
L 148.986096 190.361607 
L 151.970053 194.181025 
L 154.954011 195.025071 
L 157.937968 201.753896 
L 160.921925 197.808386 
L 163.905882 192.987619 
L 166.88984 195.402589 
L 169.873797 197.794719 
L 172.857754 198.879511 
L 175.841711 205.637644 
L 178.825668 197.879809 
L 181.809626 197.938265 
L 184.793583 199.476258 
L 187.77754 211.490317 
L 190.761497 214.384971 
L 193.745455 207.524037 
L 196.729412 206.944496 
L 199.713369 210.067242 
L 202.697326 220.137742 
L 205.681283 213.72855 
L 208.665241 219.22992 
L 211.649198 215.375236 
L 214.633155 214.676005 
L 217.617112 215.135708 
L 220.60107 214.85028 
L 223.585027 215.896006 
L 226.568984 211.32086 
L 229.552941 215.84273 
L 232.536898 219.203566 
L 235.520856 214.776043 
L 238.504813 222.102063 
L 241.48877 218.845873 
L 244.472727 218.544968 
L 247.456684 223.537697 
L 250.440642 225.490486 
L 253.424599 222.665776 
L 256.408556 223.458317 
L 259.392513 225.455553 
L 262.376471 222.987439 
L 265.360428 227.391417 
L 268.344385 227.910247 
L 271.328342 222.4775 
L 274.312299 220.348594 
L 277.296257 223.195082 
L 280.280214 223.374848 
L 283.264171 217.631085 
L 286.248128 227.148756 
L 289.232086 220.379437 
L 292.216043 228.003284 
L 295.2 233.369082 
L 298.183957 225.066148 
L 301.167914 229.329347 
L 304.151872 230.324006 
L 307.135829 230.659674 
L 310.119786 233.528272 
L 313.103743 231.062917 
L 316.087701 230.695163 
L 319.071658 237.221192 
L 322.055615 231.875821 
L 325.039572 232.539343 
L 328.023529 233.264614 
L 331.007487 225.635832 
L 333.991444 235.25908 
L 336.975401 232.622775 
L 339.959358 226.389698 
L 342.943316 226.011752 
L 345.927273 226.905598 
L 348.91123 223.64732 
L 351.895187 234.112972 
L 354.879144 228.210563 
L 357.863102 233.169974 
L 360.847059 233.105877 
L 363.831016 231.497814 
L 366.814973 233.032553 
L 369.79893 233.423588 
L 372.782888 232.92429 
L 375.766845 234.87361 
L 378.750802 231.380058 
" clip-path="url(#pe17aca9038)" style="fill: none; stroke: #1f77b4; stroke-width: 1.5; stroke-linecap: square"/>
   </g>
   <g id="line2d_28">
    <path d="M 92.290909 79.400574 
L 95.274866 81.533197 
L 98.258824 96.161975 
L 101.242781 126.073089 
L 104.226738 119.049826 
L 107.210695 131.796313 
L 110.194652 136.699227 
L 113.17861 169.947159 
L 116.162567 166.225012 
L 119.146524 170.012591 
L 122.130481 165.797476 
L 125.114439 172.110555 
L 128.098396 175.829816 
L 131.082353 156.029607 
L 134.06631 182.051564 
L 137.050267 185.050075 
L 140.034225 185.485198 
L 143.018182 192.589231 
L 146.002139 190.084925 
L 148.986096 192.704147 
L 151.970053 193.539035 
L 154.954011 193.278209 
L 157.937968 208.777799 
L 160.921925 204.807805 
L 163.905882 194.865826 
L 166.88984 206.210878 
L 169.873797 208.669191 
L 172.857754 219.102276 
L 175.841711 211.576699 
L 178.825668 207.737073 
L 181.809626 211.381908 
L 184.793583 202.707581 
L 187.77754 219.104779 
L 190.761497 212.95846 
L 193.745455 207.583631 
L 196.729412 214.724246 
L 199.713369 213.861863 
L 202.697326 218.052881 
L 205.681283 221.274238 
L 208.665241 212.457337 
L 211.649198 219.348509 
L 214.633155 218.888472 
L 217.617112 226.686776 
L 220.60107 222.506223 
L 223.585027 225.937603 
L 226.568984 221.955743 
L 229.552941 222.510858 
L 232.536898 226.504605 
L 235.520856 224.572009 
L 238.504813 227.869967 
L 241.48877 222.806999 
L 244.472727 228.719288 
L 247.456684 231.185474 
L 250.440642 229.26493 
L 253.424599 222.286322 
L 256.408556 225.968188 
L 259.392513 229.34979 
L 262.376471 227.12219 
L 265.360428 228.743188 
L 268.344385 231.274592 
L 271.328342 231.398693 
L 274.312299 228.287252 
L 277.296257 230.9353 
L 280.280214 233.547081 
L 283.264171 231.113382 
L 286.248128 225.291872 
L 289.232086 230.034926 
L 292.216043 224.385624 
L 295.2 230.730355 
L 298.183957 228.948523 
L 301.167914 231.898525 
L 304.151872 230.561962 
L 307.135829 233.036108 
L 310.119786 235.896874 
L 313.103743 233.123938 
L 316.087701 227.384505 
L 319.071658 232.07251 
L 322.055615 228.994114 
L 325.039572 232.553477 
L 328.023529 237.169831 
L 331.007487 230.791567 
L 333.991444 238.847858 
L 336.975401 234.366284 
L 339.959358 237.822155 
L 342.943316 234.453145 
L 345.927273 236.203586 
L 348.91123 236.625391 
L 351.895187 236.975643 
L 354.879144 241.197412 
L 357.863102 237.990865 
L 360.847059 233.496471 
L 363.831016 234.093393 
L 366.814973 238.105535 
L 369.79893 236.99835 
L 372.782888 237.079558 
L 375.766845 237.006449 
L 378.750802 242.036174 
L 381.734759 236.115767 
L 384.718717 235.983373 
L 387.702674 239.69823 
L 390.686631 241.275407 
L 393.670588 236.116091 
L 396.654545 235.204103 
L 399.638503 237.109593 
L 402.62246 237.598202 
L 405.606417 237.758414 
L 408.590374 237.904478 
L 411.574332 234.363691 
L 414.558289 237.909895 
L 417.542246 234.805732 
L 420.526203 234.472855 
L 423.51016 237.398556 
L 426.494118 238.782082 
L 429.478075 239.106101 
L 432.462032 237.741127 
L 435.445989 235.688983 
L 438.429947 241.913168 
" clip-path="url(#pe17aca9038)" style="fill: none; stroke: #ff7f0e; stroke-width: 1.5; stroke-linecap: square"/>
   </g>
   <g id="line2d_29">
    <path d="M 92.290909 76.684817 
L 95.274866 96.280321 
L 98.258824 86.595202 
L 101.242781 115.092654 
L 104.226738 117.343508 
L 107.210695 138.431429 
L 110.194652 151.531142 
L 113.17861 167.559898 
L 116.162567 154.878749 
L 119.146524 169.398598 
L 122.130481 172.451074 
L 125.114439 180.175935 
L 128.098396 165.563448 
L 131.082353 175.746538 
L 134.06631 182.707927 
L 137.050267 190.676765 
L 140.034225 193.318644 
L 143.018182 179.34373 
L 146.002139 175.074861 
L 148.986096 193.291831 
L 151.970053 196.268156 
L 154.954011 203.470742 
L 157.937968 205.494155 
L 160.921925 198.869624 
L 163.905882 206.110777 
L 166.88984 207.238594 
L 169.873797 218.136685 
L 172.857754 213.674176 
L 175.841711 212.917125 
L 178.825668 215.415593 
L 181.809626 219.907664 
L 184.793583 214.890514 
L 187.77754 218.863335 
L 190.761497 211.5111 
L 193.745455 215.965051 
L 196.729412 209.421393 
L 199.713369 217.426745 
L 202.697326 221.564009 
L 205.681283 215.905412 
L 208.665241 216.500038 
L 211.649198 222.195102 
L 214.633155 221.282523 
L 217.617112 226.350906 
L 220.60107 220.318061 
L 223.585027 220.290869 
L 226.568984 227.906675 
L 229.552941 225.002229 
L 232.536898 229.8838 
L 235.520856 225.483719 
L 238.504813 226.864123 
L 241.48877 232.801819 
L 244.472727 230.864795 
L 247.456684 227.475726 
L 250.440642 227.903067 
L 253.424599 228.828118 
L 256.408556 228.802465 
L 259.392513 229.496713 
L 262.376471 229.806186 
L 265.360428 224.471543 
L 268.344385 222.482198 
L 271.328342 232.733514 
L 274.312299 230.872251 
L 277.296257 228.841122 
L 280.280214 230.243942 
L 283.264171 233.721503 
L 286.248128 227.551661 
L 289.232086 234.27963 
L 292.216043 237.309219 
L 295.2 233.483801 
L 298.183957 237.165202 
L 301.167914 231.818658 
L 307.135829 235.34272 
L 310.119786 231.033126 
L 313.103743 227.620907 
L 316.087701 237.289729 
L 319.071658 236.110504 
L 322.055615 231.575655 
L 325.039572 236.172272 
L 328.023529 235.763952 
L 331.007487 233.384274 
L 333.991444 238.722735 
L 336.975401 238.91734 
L 339.959358 235.542902 
L 342.943316 235.987491 
L 345.927273 239.930681 
L 348.91123 238.796064 
L 351.895187 236.818158 
L 354.879144 237.714009 
L 357.863102 235.520555 
L 360.847059 236.764906 
L 363.831016 238.324014 
L 366.814973 240.627723 
L 369.79893 240.200771 
L 372.782888 239.325126 
L 375.766845 240.929661 
L 378.750802 241.001376 
L 381.734759 237.014656 
L 384.718717 236.579107 
L 387.702674 238.218888 
L 390.686631 238.81505 
L 393.670588 235.420686 
L 396.654545 236.438334 
L 399.638503 234.205591 
L 402.62246 235.203077 
L 405.606417 234.74005 
L 408.590374 238.377976 
L 411.574332 239.112519 
L 414.558289 239.128522 
L 417.542246 237.832175 
L 420.526203 242.620665 
L 423.51016 244.695108 
L 426.494118 239.934055 
L 429.478075 242.056677 
L 432.462032 240.96844 
L 435.445989 240.290016 
L 438.429947 246.24 
L 441.413904 242.386092 
L 444.397861 241.892989 
L 447.381818 240.113598 
L 450.365775 242.040737 
L 453.349733 239.039852 
L 456.33369 241.696402 
L 459.317647 240.622318 
L 462.301604 238.296272 
L 465.285561 239.05839 
L 468.269519 241.118528 
L 471.253476 242.178486 
L 474.237433 239.856108 
L 477.22139 237.325585 
L 480.205348 241.343188 
L 483.189305 239.485732 
L 486.173262 242.373697 
L 489.157219 238.061719 
L 492.141176 238.221796 
L 495.125134 241.786061 
L 498.109091 239.446559 
L 498.109091 239.446559 
" clip-path="url(#pe17aca9038)" style="fill: none; stroke: #2ca02c; stroke-width: 1.5; stroke-linecap: square"/>
   </g>
   <g id="line2d_30">
    <path d="M 92.290909 61.513792 
L 95.274866 89.396126 
L 98.258824 106.665942 
L 101.242781 121.60077 
L 104.226738 121.976874 
L 107.210695 133.752205 
L 110.194652 132.060979 
L 113.17861 132.685901 
L 116.162567 144.831547 
L 119.146524 141.283398 
L 122.130481 143.528612 
L 125.114439 169.664342 
L 128.098396 147.939491 
L 131.082353 152.373234 
L 134.06631 169.288225 
L 137.050267 164.023675 
L 140.034225 168.95223 
L 143.018182 150.175291 
L 146.002139 150.304244 
L 148.986096 173.304409 
L 151.970053 179.160842 
L 154.954011 180.630714 
L 157.937968 182.960017 
L 160.921925 182.360071 
L 163.905882 178.24295 
L 166.88984 179.129717 
L 169.873797 179.849611 
L 172.857754 181.831605 
L 175.841711 163.003789 
L 178.825668 174.79779 
L 181.809626 175.370145 
L 184.793583 174.878674 
L 187.77754 181.904416 
L 190.761497 186.964729 
L 193.745455 189.079287 
L 196.729412 176.938845 
L 199.713369 184.664604 
L 202.697326 188.626635 
L 205.681283 187.396788 
L 208.665241 186.300192 
L 211.649198 187.360486 
L 214.633155 187.22209 
L 217.617112 187.23862 
L 220.60107 178.08751 
L 223.585027 183.07921 
L 226.568984 182.233875 
L 229.552941 182.867721 
L 232.536898 187.852847 
L 235.520856 181.444119 
L 238.504813 185.298499 
L 241.48877 182.227257 
L 244.472727 191.368237 
L 247.456684 190.675767 
L 250.440642 185.675063 
L 253.424599 184.931001 
L 256.408556 193.63143 
L 259.392513 195.641849 
L 262.376471 188.749539 
L 265.360428 196.848414 
L 268.344385 193.905059 
L 271.328342 202.148024 
L 274.312299 197.036856 
L 277.296257 193.546589 
L 280.280214 193.013384 
L 283.264171 198.268193 
L 286.248128 196.455776 
L 289.232086 196.612138 
L 292.216043 193.156526 
L 295.2 187.656732 
L 298.183957 193.690044 
L 301.167914 184.947162 
L 304.151872 183.916495 
L 307.135829 191.34113 
L 310.119786 178.381112 
L 313.103743 187.183266 
L 316.087701 190.845542 
L 319.071658 186.449398 
L 322.055615 187.160973 
L 325.039572 191.86377 
L 328.023529 186.635747 
L 331.007487 191.765221 
" clip-path="url(#pe17aca9038)" style="fill: none; stroke: #d62728; stroke-width: 1.5; stroke-linecap: square"/>
   </g>
   <g id="patch_3">
    <path d="M 72 256.32 
L 72 34.56 
" style="fill: none; stroke: #000000; stroke-width: 0.8; stroke-linejoin: miter; stroke-linecap: square"/>
   </g>
   <g id="patch_4">
    <path d="M 518.4 256.32 
L 518.4 34.56 
" style="fill: none; stroke: #000000; stroke-width: 0.8; stroke-linejoin: miter; stroke-linecap: square"/>
   </g>
   <g id="patch_5">
    <path d="M 72 256.32 
L 518.4 256.32 
" style="fill: none; stroke: #000000; stroke-width: 0.8; stroke-linejoin: miter; stroke-linecap: square"/>
   </g>
   <g id="patch_6">
    <path d="M 72 34.56 
L 518.4 34.56 
" style="fill: none; stroke: #000000; stroke-width: 0.8; stroke-linejoin: miter; stroke-linecap: square"/>
   </g>
   <g id="legend_1">
    <g id="patch_7">
     <path d="M 414.85 115.950625 
L 511.4 115.950625 
Q 513.4 115.950625 513.4 113.950625 
L 513.4 41.56 
Q 513.4 39.56 511.4 39.56 
L 414.85 39.56 
Q 412.85 39.56 412.85 41.56 
L 412.85 113.950625 
Q 412.85 115.950625 414.85 115.950625 
z
" style="fill: #ffffff; opacity: 0.8; stroke: #cccccc; stroke-linejoin: miter"/>
    </g>
    <g id="text_16">
     <!-- m/z bin width (Da) -->
     <g transform="translate(416.85 51.158437) scale(0.1 -0.1)">
      <defs>
       <path id="DejaVuSans-6d" d="M 3328 2828 
Q 3544 3216 3844 3400 
Q 4144 3584 4550 3584 
Q 5097 3584 5394 3201 
Q 5691 2819 5691 2113 
L 5691 0 
L 5113 0 
L 5113 2094 
Q 5113 2597 4934 2840 
Q 4756 3084 4391 3084 
Q 3944 3084 3684 2787 
Q 3425 2491 3425 1978 
L 3425 0 
L 2847 0 
L 2847 2094 
Q 2847 2600 2669 2842 
Q 2491 3084 2119 3084 
Q 1678 3084 1418 2786 
Q 1159 2488 1159 1978 
L 1159 0 
L 581 0 
L 581 3500 
L 1159 3500 
L 1159 2956 
Q 1356 3278 1631 3431 
Q 1906 3584 2284 3584 
Q 2666 3584 2933 3390 
Q 3200 3197 3328 2828 
z
" transform="scale(0.015625)"/>
       <path id="DejaVuSans-2f" d="M 1625 4666 
L 2156 4666 
L 531 -594 
L 0 -594 
L 1625 4666 
z
" transform="scale(0.015625)"/>
       <path id="DejaVuSans-7a" d="M 353 3500 
L 3084 3500 
L 3084 2975 
L 922 459 
L 3084 459 
L 3084 0 
L 275 0 
L 275 525 
L 2438 3041 
L 353 3041 
L 353 3500 
z
" transform="scale(0.015625)"/>
       <path id="DejaVuSans-62" d="M 3116 1747 
Q 3116 2381 2855 2742 
Q 2594 3103 2138 3103 
Q 1681 3103 1420 2742 
Q 1159 2381 1159 1747 
Q 1159 1113 1420 752 
Q 1681 391 2138 391 
Q 2594 391 2855 752 
Q 3116 1113 3116 1747 
z
M 1159 2969 
Q 1341 3281 1617 3432 
Q 1894 3584 2278 3584 
Q 2916 3584 3314 3078 
Q 3713 2572 3713 1747 
Q 3713 922 3314 415 
Q 2916 -91 2278 -91 
Q 1894 -91 1617 61 
Q 1341 213 1159 525 
L 1159 0 
L 581 0 
L 581 4863 
L 1159 4863 
L 1159 2969 
z
" transform="scale(0.015625)"/>
       <path id="DejaVuSans-77" d="M 269 3500 
L 844 3500 
L 1563 769 
L 2278 3500 
L 2956 3500 
L 3675 769 
L 4391 3500 
L 4966 3500 
L 4050 0 
L 3372 0 
L 2619 2869 
L 1863 0 
L 1184 0 
L 269 3500 
z
" transform="scale(0.015625)"/>
       <path id="DejaVuSans-28" d="M 1984 4856 
Q 1566 4138 1362 3434 
Q 1159 2731 1159 2009 
Q 1159 1288 1364 580 
Q 1569 -128 1984 -844 
L 1484 -844 
Q 1016 -109 783 600 
Q 550 1309 550 2009 
Q 550 2706 781 3412 
Q 1013 4119 1484 4856 
L 1984 4856 
z
" transform="scale(0.015625)"/>
       <path id="DejaVuSans-44" d="M 1259 4147 
L 1259 519 
L 2022 519 
Q 2988 519 3436 956 
Q 3884 1394 3884 2338 
Q 3884 3275 3436 3711 
Q 2988 4147 2022 4147 
L 1259 4147 
z
M 628 4666 
L 1925 4666 
Q 3281 4666 3915 4102 
Q 4550 3538 4550 2338 
Q 4550 1131 3912 565 
Q 3275 0 1925 0 
L 628 0 
L 628 4666 
z
" transform="scale(0.015625)"/>
       <path id="DejaVuSans-29" d="M 513 4856 
L 1013 4856 
Q 1481 4119 1714 3412 
Q 1947 2706 1947 2009 
Q 1947 1309 1714 600 
Q 1481 -109 1013 -844 
L 513 -844 
Q 928 -128 1133 580 
Q 1338 1288 1338 2009 
Q 1338 2731 1133 3434 
Q 928 4138 513 4856 
z
" transform="scale(0.015625)"/>
      </defs>
      <use xlink:href="#DejaVuSans-6d"/>
      <use xlink:href="#DejaVuSans-2f" x="97.412109"/>
      <use xlink:href="#DejaVuSans-7a" x="131.103516"/>
      <use xlink:href="#DejaVuSans-20" x="183.59375"/>
      <use xlink:href="#DejaVuSans-62" x="215.380859"/>
      <use xlink:href="#DejaVuSans-69" x="278.857422"/>
      <use xlink:href="#DejaVuSans-6e" x="306.640625"/>
      <use xlink:href="#DejaVuSans-20" x="370.019531"/>
      <use xlink:href="#DejaVuSans-77" x="401.806641"/>
      <use xlink:href="#DejaVuSans-69" x="483.59375"/>
      <use xlink:href="#DejaVuSans-64" x="511.376953"/>
      <use xlink:href="#DejaVuSans-74" x="574.853516"/>
      <use xlink:href="#DejaVuSans-68" x="614.0625"/>
      <use xlink:href="#DejaVuSans-20" x="677.441406"/>
      <use xlink:href="#DejaVuSans-28" x="709.228516"/>
      <use xlink:href="#DejaVuSans-44" x="748.242188"/>
      <use xlink:href="#DejaVuSans-61" x="825.244141"/>
      <use xlink:href="#DejaVuSans-29" x="886.523438"/>
     </g>
    </g>
    <g id="line2d_31">
     <path d="M 437.992188 62.336562 
L 447.992188 62.336562 
L 457.992188 62.336562 
" style="fill: none; stroke: #1f77b4; stroke-width: 1.5; stroke-linecap: square"/>
    </g>
    <g id="text_17">
     <!-- 0.01 -->
     <g transform="translate(465.992188 65.836562) scale(0.1 -0.1)">
      <use xlink:href="#DejaVuSans-30"/>
      <use xlink:href="#DejaVuSans-2e" x="63.623047"/>
      <use xlink:href="#DejaVuSans-30" x="95.410156"/>
      <use xlink:href="#DejaVuSans-31" x="159.033203"/>
     </g>
    </g>
    <g id="line2d_32">
     <path d="M 437.992188 77.014687 
L 447.992188 77.014687 
L 457.992188 77.014687 
" style="fill: none; stroke: #ff7f0e; stroke-width: 1.5; stroke-linecap: square"/>
    </g>
    <g id="text_18">
     <!-- 0.05 -->
     <g transform="translate(465.992188 80.514687) scale(0.1 -0.1)">
      <use xlink:href="#DejaVuSans-30"/>
      <use xlink:href="#DejaVuSans-2e" x="63.623047"/>
      <use xlink:href="#DejaVuSans-30" x="95.410156"/>
      <use xlink:href="#DejaVuSans-35" x="159.033203"/>
     </g>
    </g>
    <g id="line2d_33">
     <path d="M 437.992188 91.692813 
L 447.992188 91.692813 
L 457.992188 91.692813 
" style="fill: none; stroke: #2ca02c; stroke-width: 1.5; stroke-linecap: square"/>
    </g>
    <g id="text_19">
     <!-- 0.1 -->
     <g transform="translate(465.992188 95.192813) scale(0.1 -0.1)">
      <use xlink:href="#DejaVuSans-30"/>
      <use xlink:href="#DejaVuSans-2e" x="63.623047"/>
      <use xlink:href="#DejaVuSans-31" x="95.410156"/>
     </g>
    </g>
    <g id="line2d_34">
     <path d="M 437.992188 106.370937 
L 447.992188 106.370937 
L 457.992188 106.370937 
" style="fill: none; stroke: #d62728; stroke-width: 1.5; stroke-linecap: square"/>
    </g>
    <g id="text_20">
     <!-- 0.5 -->
     <g transform="translate(465.992188 109.870937) scale(0.1 -0.1)">
      <use xlink:href="#DejaVuSans-30"/>
      <use xlink:href="#DejaVuSans-2e" x="63.623047"/>
      <use xlink:href="#DejaVuSans-35" x="95.410156"/>
     </g>
    </g>
   </g>
  </g>
 </g>
 <defs>
  <clipPath id="pe17aca9038">
   <rect x="72" y="34.56" width="446.4" height="221.76"/>
  </clipPath>
 </defs>
</svg>
