<?xml version="1.0" encoding="utf-8" standalone="no"?>
<!DOCTYPE svg PUBLIC "-//W3C//DTD SVG 1.1//EN"
  "http://www.w3.org/Graphics/SVG/1.1/DTD/svg11.dtd">
<svg xmlns:xlink="http://www.w3.org/1999/xlink" width="576pt" height="288pt" viewBox="0 0 576 288" xmlns="http://www.w3.org/2000/svg" version="1.1">
 <metadata>
  <rdf:RDF xmlns:dc="http://purl.org/dc/elements/1.1/" xmlns:cc="http://creativecommons.org/ns#" xmlns:rdf="http://www.w3.org/1999/02/22-rdf-syntax-ns#">
   <cc:Work>
    <dc:type rdf:resource="http://purl.org/dc/dcmitype/StillImage"/>
    <dc:date>2024-12-13T14:20:08.906128</dc:date>
    <dc:format>image/svg+xml</dc:format>
    <dc:creator>
     <cc:Agent>
      <dc:title>Matplotlib v3.7.2, https://matplotlib.org/</dc:title>
     </cc:Agent>
    </dc:creator>
   </cc:Work>
  </rdf:RDF>
 </metadata>
 <defs>
  <style type="text/css">*{stroke-linejoin: round; stroke-linecap: butt}</style>
 </defs>
 <g id="figure_1">
  <g id="patch_1">
   <path d="M 0 288 
L 576 288 
L 576 0 
L 0 0 
z
" style="fill: #ffffff"/>
  </g>
  <g id="axes_1">
   <g id="patch_2">
    <path d="M 72 256.32 
L 518.4 256.32 
L 518.4 34.56 
L 72 34.56 
z
" style="fill: #ffffff"/>
   </g>
   <g id="matplotlib.axis_1">
    <g id="xtick_1">
     <g id="line2d_1">
      <path d="M 92.290909 256.32 
L 92.290909 34.56 
" clip-path="url(#pbb186b1807)" style="fill: none; stroke: #b0b0b0; stroke-width: 0.8; stroke-linecap: square"/>
     </g>
     <g id="line2d_2">
      <defs>
       <path id="m0aba0e36be" d="M 0 0 
L 0 3.5 
" style="stroke: #000000; stroke-width: 0.8"/>
      </defs>
      <g>
       <use xlink:href="#m0aba0e36be" x="92.290909" y="256.32" style="stroke: #000000; stroke-width: 0.8"/>
      </g>
     </g>
     <g id="text_1">
      <!-- 0 -->
      <g transform="translate(89.109659 270.918437) scale(0.1 -0.1)">
       <defs>
        <path id="DejaVuSans-30" d="M 2034 4250 
Q 1547 4250 1301 3770 
Q 1056 3291 1056 2328 
Q 1056 1369 1301 889 
Q 1547 409 2034 409 
Q 2525 409 2770 889 
Q 3016 1369 3016 2328 
Q 3016 3291 2770 3770 
Q 2525 4250 2034 4250 
z
M 2034 4750 
Q 2819 4750 3233 4129 
Q 3647 3509 3647 2328 
Q 3647 1150 3233 529 
Q 2819 -91 2034 -91 
Q 1250 -91 836 529 
Q 422 1150 422 2328 
Q 422 3509 836 4129 
Q 1250 4750 2034 4750 
z
" transform="scale(0.015625)"/>
       </defs>
       <use xlink:href="#DejaVuSans-30"/>
      </g>
     </g>
    </g>
    <g id="xtick_2">
     <g id="line2d_3">
      <path d="M 151.970053 256.32 
L 151.970053 34.56 
" clip-path="url(#pbb186b1807)" style="fill: none; stroke: #b0b0b0; stroke-width: 0.8; stroke-linecap: square"/>
     </g>
     <g id="line2d_4">
      <g>
       <use xlink:href="#m0aba0e36be" x="151.970053" y="256.32" style="stroke: #000000; stroke-width: 0.8"/>
      </g>
     </g>
     <g id="text_2">
      <!-- 20 -->
      <g transform="translate(145.607553 270.918437) scale(0.1 -0.1)">
       <defs>
        <path id="DejaVuSans-32" d="M 1228 531 
L 3431 531 
L 3431 0 
L 469 0 
L 469 531 
Q 828 903 1448 1529 
Q 2069 2156 2228 2338 
Q 2531 2678 2651 2914 
Q 2772 3150 2772 3378 
Q 2772 3750 2511 3984 
Q 2250 4219 1831 4219 
Q 1534 4219 1204 4116 
Q 875 4013 500 3803 
L 500 4441 
Q 881 4594 1212 4672 
Q 1544 4750 1819 4750 
Q 2544 4750 2975 4387 
Q 3406 4025 3406 3419 
Q 3406 3131 3298 2873 
Q 3191 2616 2906 2266 
Q 2828 2175 2409 1742 
Q 1991 1309 1228 531 
z
" transform="scale(0.015625)"/>
       </defs>
       <use xlink:href="#DejaVuSans-32"/>
       <use xlink:href="#DejaVuSans-30" x="63.623047"/>
      </g>
     </g>
    </g>
    <g id="xtick_3">
     <g id="line2d_5">
      <path d="M 211.649198 256.32 
L 211.649198 34.56 
" clip-path="url(#pbb186b1807)" style="fill: none; stroke: #b0b0b0; stroke-width: 0.8; stroke-linecap: square"/>
     </g>
     <g id="line2d_6">
      <g>
       <use xlink:href="#m0aba0e36be" x="211.649198" y="256.32" style="stroke: #000000; stroke-width: 0.8"/>
      </g>
     </g>
     <g id="text_3">
      <!-- 40 -->
      <g transform="translate(205.286698 270.918437) scale(0.1 -0.1)">
       <defs>
        <path id="DejaVuSans-34" d="M 2419 4116 
L 825 1625 
L 2419 1625 
L 2419 4116 
z
M 2253 4666 
L 3047 4666 
L 3047 1625 
L 3713 1625 
L 3713 1100 
L 3047 1100 
L 3047 0 
L 2419 0 
L 2419 1100 
L 313 1100 
L 313 1709 
L 2253 4666 
z
" transform="scale(0.015625)"/>
       </defs>
       <use xlink:href="#DejaVuSans-34"/>
       <use xlink:href="#DejaVuSans-30" x="63.623047"/>
      </g>
     </g>
    </g>
    <g id="xtick_4">
     <g id="line2d_7">
      <path d="M 271.328342 256.32 
L 271.328342 34.56 
" clip-path="url(#pbb186b1807)" style="fill: none; stroke: #b0b0b0; stroke-width: 0.8; stroke-linecap: square"/>
     </g>
     <g id="line2d_8">
      <g>
       <use xlink:href="#m0aba0e36be" x="271.328342" y="256.32" style="stroke: #000000; stroke-width: 0.8"/>
      </g>
     </g>
     <g id="text_4">
      <!-- 60 -->
      <g transform="translate(264.965842 270.918437) scale(0.1 -0.1)">
       <defs>
        <path id="DejaVuSans-36" d="M 2113 2584 
Q 1688 2584 1439 2293 
Q 1191 2003 1191 1497 
Q 1191 994 1439 701 
Q 1688 409 2113 409 
Q 2538 409 2786 701 
Q 3034 994 3034 1497 
Q 3034 2003 2786 2293 
Q 2538 2584 2113 2584 
z
M 3366 4563 
L 3366 3988 
Q 3128 4100 2886 4159 
Q 2644 4219 2406 4219 
Q 1781 4219 1451 3797 
Q 1122 3375 1075 2522 
Q 1259 2794 1537 2939 
Q 1816 3084 2150 3084 
Q 2853 3084 3261 2657 
Q 3669 2231 3669 1497 
Q 3669 778 3244 343 
Q 2819 -91 2113 -91 
Q 1303 -91 875 529 
Q 447 1150 447 2328 
Q 447 3434 972 4092 
Q 1497 4750 2381 4750 
Q 2619 4750 2861 4703 
Q 3103 4656 3366 4563 
z
" transform="scale(0.015625)"/>
       </defs>
       <use xlink:href="#DejaVuSans-36"/>
       <use xlink:href="#DejaVuSans-30" x="63.623047"/>
      </g>
     </g>
    </g>
    <g id="xtick_5">
     <g id="line2d_9">
      <path d="M 331.007487 256.32 
L 331.007487 34.56 
" clip-path="url(#pbb186b1807)" style="fill: none; stroke: #b0b0b0; stroke-width: 0.8; stroke-linecap: square"/>
     </g>
     <g id="line2d_10">
      <g>
       <use xlink:href="#m0aba0e36be" x="331.007487" y="256.32" style="stroke: #000000; stroke-width: 0.8"/>
      </g>
     </g>
     <g id="text_5">
      <!-- 80 -->
      <g transform="translate(324.644987 270.918437) scale(0.1 -0.1)">
       <defs>
        <path id="DejaVuSans-38" d="M 2034 2216 
Q 1584 2216 1326 1975 
Q 1069 1734 1069 1313 
Q 1069 891 1326 650 
Q 1584 409 2034 409 
Q 2484 409 2743 651 
Q 3003 894 3003 1313 
Q 3003 1734 2745 1975 
Q 2488 2216 2034 2216 
z
M 1403 2484 
Q 997 2584 770 2862 
Q 544 3141 544 3541 
Q 544 4100 942 4425 
Q 1341 4750 2034 4750 
Q 2731 4750 3128 4425 
Q 3525 4100 3525 3541 
Q 3525 3141 3298 2862 
Q 3072 2584 2669 2484 
Q 3125 2378 3379 2068 
Q 3634 1759 3634 1313 
Q 3634 634 3220 271 
Q 2806 -91 2034 -91 
Q 1263 -91 848 271 
Q 434 634 434 1313 
Q 434 1759 690 2068 
Q 947 2378 1403 2484 
z
M 1172 3481 
Q 1172 3119 1398 2916 
Q 1625 2713 2034 2713 
Q 2441 2713 2670 2916 
Q 2900 3119 2900 3481 
Q 2900 3844 2670 4047 
Q 2441 4250 2034 4250 
Q 1625 4250 1398 4047 
Q 1172 3844 1172 3481 
z
" transform="scale(0.015625)"/>
       </defs>
       <use xlink:href="#DejaVuSans-38"/>
       <use xlink:href="#DejaVuSans-30" x="63.623047"/>
      </g>
     </g>
    </g>
    <g id="xtick_6">
     <g id="line2d_11">
      <path d="M 390.686631 256.32 
L 390.686631 34.56 
" clip-path="url(#pbb186b1807)" style="fill: none; stroke: #b0b0b0; stroke-width: 0.8; stroke-linecap: square"/>
     </g>
     <g id="line2d_12">
      <g>
       <use xlink:href="#m0aba0e36be" x="390.686631" y="256.32" style="stroke: #000000; stroke-width: 0.8"/>
      </g>
     </g>
     <g id="text_6">
      <!-- 100 -->
      <g transform="translate(381.142881 270.918437) scale(0.1 -0.1)">
       <defs>
        <path id="DejaVuSans-31" d="M 794 531 
L 1825 531 
L 1825 4091 
L 703 3866 
L 703 4441 
L 1819 4666 
L 2450 4666 
L 2450 531 
L 3481 531 
L 3481 0 
L 794 0 
L 794 531 
z
" transform="scale(0.015625)"/>
       </defs>
       <use xlink:href="#DejaVuSans-31"/>
       <use xlink:href="#DejaVuSans-30" x="63.623047"/>
       <use xlink:href="#DejaVuSans-30" x="127.246094"/>
      </g>
     </g>
    </g>
    <g id="xtick_7">
     <g id="line2d_13">
      <path d="M 450.365775 256.32 
L 450.365775 34.56 
" clip-path="url(#pbb186b1807)" style="fill: none; stroke: #b0b0b0; stroke-width: 0.8; stroke-linecap: square"/>
     </g>
     <g id="line2d_14">
      <g>
       <use xlink:href="#m0aba0e36be" x="450.365775" y="256.32" style="stroke: #000000; stroke-width: 0.8"/>
      </g>
     </g>
     <g id="text_7">
      <!-- 120 -->
      <g transform="translate(440.822025 270.918437) scale(0.1 -0.1)">
       <use xlink:href="#DejaVuSans-31"/>
       <use xlink:href="#DejaVuSans-32" x="63.623047"/>
       <use xlink:href="#DejaVuSans-30" x="127.246094"/>
      </g>
     </g>
    </g>
    <g id="xtick_8">
     <g id="line2d_15">
      <path d="M 510.04492 256.32 
L 510.04492 34.56 
" clip-path="url(#pbb186b1807)" style="fill: none; stroke: #b0b0b0; stroke-width: 0.8; stroke-linecap: square"/>
     </g>
     <g id="line2d_16">
      <g>
       <use xlink:href="#m0aba0e36be" x="510.04492" y="256.32" style="stroke: #000000; stroke-width: 0.8"/>
      </g>
     </g>
     <g id="text_8">
      <!-- 140 -->
      <g transform="translate(500.50117 270.918437) scale(0.1 -0.1)">
       <use xlink:href="#DejaVuSans-31"/>
       <use xlink:href="#DejaVuSans-34" x="63.623047"/>
       <use xlink:href="#DejaVuSans-30" x="127.246094"/>
      </g>
     </g>
    </g>
    <g id="text_9">
     <!-- Epoch -->
     <g transform="translate(279.889062 284.596563) scale(0.1 -0.1)">
      <defs>
       <path id="DejaVuSans-45" d="M 628 4666 
L 3578 4666 
L 3578 4134 
L 1259 4134 
L 1259 2753 
L 3481 2753 
L 3481 2222 
L 1259 2222 
L 1259 531 
L 3634 531 
L 3634 0 
L 628 0 
L 628 4666 
z
" transform="scale(0.015625)"/>
       <path id="DejaVuSans-70" d="M 1159 525 
L 1159 -1331 
L 581 -1331 
L 581 3500 
L 1159 3500 
L 1159 2969 
Q 1341 3281 1617 3432 
Q 1894 3584 2278 3584 
Q 2916 3584 3314 3078 
Q 3713 2572 3713 1747 
Q 3713 922 3314 415 
Q 2916 -91 2278 -91 
Q 1894 -91 1617 61 
Q 1341 213 1159 525 
z
M 3116 1747 
Q 3116 2381 2855 2742 
Q 2594 3103 2138 3103 
Q 1681 3103 1420 2742 
Q 1159 2381 1159 1747 
Q 1159 1113 1420 752 
Q 1681 391 2138 391 
Q 2594 391 2855 752 
Q 3116 1113 3116 1747 
z
" transform="scale(0.015625)"/>
       <path id="DejaVuSans-6f" d="M 1959 3097 
Q 1497 3097 1228 2736 
Q 959 2375 959 1747 
Q 959 1119 1226 758 
Q 1494 397 1959 397 
Q 2419 397 2687 759 
Q 2956 1122 2956 1747 
Q 2956 2369 2687 2733 
Q 2419 3097 1959 3097 
z
M 1959 3584 
Q 2709 3584 3137 3096 
Q 3566 2609 3566 1747 
Q 3566 888 3137 398 
Q 2709 -91 1959 -91 
Q 1206 -91 779 398 
Q 353 888 353 1747 
Q 353 2609 779 3096 
Q 1206 3584 1959 3584 
z
" transform="scale(0.015625)"/>
       <path id="DejaVuSans-63" d="M 3122 3366 
L 3122 2828 
Q 2878 2963 2633 3030 
Q 2388 3097 2138 3097 
Q 1578 3097 1268 2742 
Q 959 2388 959 1747 
Q 959 1106 1268 751 
Q 1578 397 2138 397 
Q 2388 397 2633 464 
Q 2878 531 3122 666 
L 3122 134 
Q 2881 22 2623 -34 
Q 2366 -91 2075 -91 
Q 1284 -91 818 406 
Q 353 903 353 1747 
Q 353 2603 823 3093 
Q 1294 3584 2113 3584 
Q 2378 3584 2631 3529 
Q 2884 3475 3122 3366 
z
" transform="scale(0.015625)"/>
       <path id="DejaVuSans-68" d="M 3513 2113 
L 3513 0 
L 2938 0 
L 2938 2094 
Q 2938 2591 2744 2837 
Q 2550 3084 2163 3084 
Q 1697 3084 1428 2787 
Q 1159 2491 1159 1978 
L 1159 0 
L 581 0 
L 581 4863 
L 1159 4863 
L 1159 2956 
Q 1366 3272 1645 3428 
Q 1925 3584 2291 3584 
Q 2894 3584 3203 3211 
Q 3513 2838 3513 2113 
z
" transform="scale(0.015625)"/>
      </defs>
      <use xlink:href="#DejaVuSans-45"/>
      <use xlink:href="#DejaVuSans-70" x="63.183594"/>
      <use xlink:href="#DejaVuSans-6f" x="126.660156"/>
      <use xlink:href="#DejaVuSans-63" x="187.841797"/>
      <use xlink:href="#DejaVuSans-68" x="242.822266"/>
     </g>
    </g>
   </g>
   <g id="matplotlib.axis_2">
    <g id="ytick_1">
     <g id="line2d_17">
      <path d="M 72 238.448797 
L 518.4 238.448797 
" clip-path="url(#pbb186b1807)" style="fill: none; stroke: #b0b0b0; stroke-width: 0.8; stroke-linecap: square"/>
     </g>
     <g id="line2d_18">
      <defs>
       <path id="m501b29be59" d="M 0 0 
L -3.5 0 
" style="stroke: #000000; stroke-width: 0.8"/>
      </defs>
      <g>
       <use xlink:href="#m501b29be59" x="72" y="238.448797" style="stroke: #000000; stroke-width: 0.8"/>
      </g>
     </g>
     <g id="text_10">
      <!-- 0.035 -->
      <g transform="translate(36.371875 242.248016) scale(0.1 -0.1)">
       <defs>
        <path id="DejaVuSans-2e" d="M 684 794 
L 1344 794 
L 1344 0 
L 684 0 
L 684 794 
z
" transform="scale(0.015625)"/>
        <path id="DejaVuSans-33" d="M 2597 2516 
Q 3050 2419 3304 2112 
Q 3559 1806 3559 1356 
Q 3559 666 3084 287 
Q 2609 -91 1734 -91 
Q 1441 -91 1130 -33 
Q 819 25 488 141 
L 488 750 
Q 750 597 1062 519 
Q 1375 441 1716 441 
Q 2309 441 2620 675 
Q 2931 909 2931 1356 
Q 2931 1769 2642 2001 
Q 2353 2234 1838 2234 
L 1294 2234 
L 1294 2753 
L 1863 2753 
Q 2328 2753 2575 2939 
Q 2822 3125 2822 3475 
Q 2822 3834 2567 4026 
Q 2313 4219 1838 4219 
Q 1578 4219 1281 4162 
Q 984 4106 628 3988 
L 628 4550 
Q 988 4650 1302 4700 
Q 1616 4750 1894 4750 
Q 2613 4750 3031 4423 
Q 3450 4097 3450 3541 
Q 3450 3153 3228 2886 
Q 3006 2619 2597 2516 
z
" transform="scale(0.015625)"/>
        <path id="DejaVuSans-35" d="M 691 4666 
L 3169 4666 
L 3169 4134 
L 1269 4134 
L 1269 2991 
Q 1406 3038 1543 3061 
Q 1681 3084 1819 3084 
Q 2600 3084 3056 2656 
Q 3513 2228 3513 1497 
Q 3513 744 3044 326 
Q 2575 -91 1722 -91 
Q 1428 -91 1123 -41 
Q 819 9 494 109 
L 494 744 
Q 775 591 1075 516 
Q 1375 441 1709 441 
Q 2250 441 2565 725 
Q 2881 1009 2881 1497 
Q 2881 1984 2565 2268 
Q 2250 2553 1709 2553 
Q 1456 2553 1204 2497 
Q 953 2441 691 2322 
L 691 4666 
z
" transform="scale(0.015625)"/>
       </defs>
       <use xlink:href="#DejaVuSans-30"/>
       <use xlink:href="#DejaVuSans-2e" x="63.623047"/>
       <use xlink:href="#DejaVuSans-30" x="95.410156"/>
       <use xlink:href="#DejaVuSans-33" x="159.033203"/>
       <use xlink:href="#DejaVuSans-35" x="222.65625"/>
      </g>
     </g>
    </g>
    <g id="ytick_2">
     <g id="line2d_19">
      <path d="M 72 194.56595 
L 518.4 194.56595 
" clip-path="url(#pbb186b1807)" style="fill: none; stroke: #b0b0b0; stroke-width: 0.8; stroke-linecap: square"/>
     </g>
     <g id="line2d_20">
      <g>
       <use xlink:href="#m501b29be59" x="72" y="194.56595" style="stroke: #000000; stroke-width: 0.8"/>
      </g>
     </g>
     <g id="text_11">
      <!-- 0.040 -->
      <g transform="translate(36.371875 198.365169) scale(0.1 -0.1)">
       <use xlink:href="#DejaVuSans-30"/>
       <use xlink:href="#DejaVuSans-2e" x="63.623047"/>
       <use xlink:href="#DejaVuSans-30" x="95.410156"/>
       <use xlink:href="#DejaVuSans-34" x="159.033203"/>
       <use xlink:href="#DejaVuSans-30" x="222.65625"/>
      </g>
     </g>
    </g>
    <g id="ytick_3">
     <g id="line2d_21">
      <path d="M 72 150.683103 
L 518.4 150.683103 
" clip-path="url(#pbb186b1807)" style="fill: none; stroke: #b0b0b0; stroke-width: 0.8; stroke-linecap: square"/>
     </g>
     <g id="line2d_22">
      <g>
       <use xlink:href="#m501b29be59" x="72" y="150.683103" style="stroke: #000000; stroke-width: 0.8"/>
      </g>
     </g>
     <g id="text_12">
      <!-- 0.045 -->
      <g transform="translate(36.371875 154.482322) scale(0.1 -0.1)">
       <use xlink:href="#DejaVuSans-30"/>
       <use xlink:href="#DejaVuSans-2e" x="63.623047"/>
       <use xlink:href="#DejaVuSans-30" x="95.410156"/>
       <use xlink:href="#DejaVuSans-34" x="159.033203"/>
       <use xlink:href="#DejaVuSans-35" x="222.65625"/>
      </g>
     </g>
    </g>
    <g id="ytick_4">
     <g id="line2d_23">
      <path d="M 72 106.800256 
L 518.4 106.800256 
" clip-path="url(#pbb186b1807)" style="fill: none; stroke: #b0b0b0; stroke-width: 0.8; stroke-linecap: square"/>
     </g>
     <g id="line2d_24">
      <g>
       <use xlink:href="#m501b29be59" x="72" y="106.800256" style="stroke: #000000; stroke-width: 0.8"/>
      </g>
     </g>
     <g id="text_13">
      <!-- 0.050 -->
      <g transform="translate(36.371875 110.599475) scale(0.1 -0.1)">
       <use xlink:href="#DejaVuSans-30"/>
       <use xlink:href="#DejaVuSans-2e" x="63.623047"/>
       <use xlink:href="#DejaVuSans-30" x="95.410156"/>
       <use xlink:href="#DejaVuSans-35" x="159.033203"/>
       <use xlink:href="#DejaVuSans-30" x="222.65625"/>
      </g>
     </g>
    </g>
    <g id="ytick_5">
     <g id="line2d_25">
      <path d="M 72 62.917409 
L 518.4 62.917409 
" clip-path="url(#pbb186b1807)" style="fill: none; stroke: #b0b0b0; stroke-width: 0.8; stroke-linecap: square"/>
     </g>
     <g id="line2d_26">
      <g>
       <use xlink:href="#m501b29be59" x="72" y="62.917409" style="stroke: #000000; stroke-width: 0.8"/>
      </g>
     </g>
     <g id="text_14">
      <!-- 0.055 -->
      <g transform="translate(36.371875 66.716628) scale(0.1 -0.1)">
       <use xlink:href="#DejaVuSans-30"/>
       <use xlink:href="#DejaVuSans-2e" x="63.623047"/>
       <use xlink:href="#DejaVuSans-30" x="95.410156"/>
       <use xlink:href="#DejaVuSans-35" x="159.033203"/>
       <use xlink:href="#DejaVuSans-35" x="222.65625"/>
      </g>
     </g>
    </g>
    <g id="text_15">
     <!-- Validation MSE -->
     <g transform="translate(30.292188 182.367344) rotate(-90) scale(0.1 -0.1)">
      <defs>
       <path id="DejaVuSans-56" d="M 1831 0 
L 50 4666 
L 709 4666 
L 2188 738 
L 3669 4666 
L 4325 4666 
L 2547 0 
L 1831 0 
z
" transform="scale(0.015625)"/>
       <path id="DejaVuSans-61" d="M 2194 1759 
Q 1497 1759 1228 1600 
Q 959 1441 959 1056 
Q 959 750 1161 570 
Q 1363 391 1709 391 
Q 2188 391 2477 730 
Q 2766 1069 2766 1631 
L 2766 1759 
L 2194 1759 
z
M 3341 1997 
L 3341 0 
L 2766 0 
L 2766 531 
Q 2569 213 2275 61 
Q 1981 -91 1556 -91 
Q 1019 -91 701 211 
Q 384 513 384 1019 
Q 384 1609 779 1909 
Q 1175 2209 1959 2209 
L 2766 2209 
L 2766 2266 
Q 2766 2663 2505 2880 
Q 2244 3097 1772 3097 
Q 1472 3097 1187 3025 
Q 903 2953 641 2809 
L 641 3341 
Q 956 3463 1253 3523 
Q 1550 3584 1831 3584 
Q 2591 3584 2966 3190 
Q 3341 2797 3341 1997 
z
" transform="scale(0.015625)"/>
       <path id="DejaVuSans-6c" d="M 603 4863 
L 1178 4863 
L 1178 0 
L 603 0 
L 603 4863 
z
" transform="scale(0.015625)"/>
       <path id="DejaVuSans-69" d="M 603 3500 
L 1178 3500 
L 1178 0 
L 603 0 
L 603 3500 
z
M 603 4863 
L 1178 4863 
L 1178 4134 
L 603 4134 
L 603 4863 
z
" transform="scale(0.015625)"/>
       <path id="DejaVuSans-64" d="M 2906 2969 
L 2906 4863 
L 3481 4863 
L 3481 0 
L 2906 0 
L 2906 525 
Q 2725 213 2448 61 
Q 2172 -91 1784 -91 
Q 1150 -91 751 415 
Q 353 922 353 1747 
Q 353 2572 751 3078 
Q 1150 3584 1784 3584 
Q 2172 3584 2448 3432 
Q 2725 3281 2906 2969 
z
M 947 1747 
Q 947 1113 1208 752 
Q 1469 391 1925 391 
Q 2381 391 2643 752 
Q 2906 1113 2906 1747 
Q 2906 2381 2643 2742 
Q 2381 3103 1925 3103 
Q 1469 3103 1208 2742 
Q 947 2381 947 1747 
z
" transform="scale(0.015625)"/>
       <path id="DejaVuSans-74" d="M 1172 4494 
L 1172 3500 
L 2356 3500 
L 2356 3053 
L 1172 3053 
L 1172 1153 
Q 1172 725 1289 603 
Q 1406 481 1766 481 
L 2356 481 
L 2356 0 
L 1766 0 
Q 1100 0 847 248 
Q 594 497 594 1153 
L 594 3053 
L 172 3053 
L 172 3500 
L 594 3500 
L 594 4494 
L 1172 4494 
z
" transform="scale(0.015625)"/>
       <path id="DejaVuSans-6e" d="M 3513 2113 
L 3513 0 
L 2938 0 
L 2938 2094 
Q 2938 2591 2744 2837 
Q 2550 3084 2163 3084 
Q 1697 3084 1428 2787 
Q 1159 2491 1159 1978 
L 1159 0 
L 581 0 
L 581 3500 
L 1159 3500 
L 1159 2956 
Q 1366 3272 1645 3428 
Q 1925 3584 2291 3584 
Q 2894 3584 3203 3211 
Q 3513 2838 3513 2113 
z
" transform="scale(0.015625)"/>
       <path id="DejaVuSans-20" transform="scale(0.015625)"/>
       <path id="DejaVuSans-4d" d="M 628 4666 
L 1569 4666 
L 2759 1491 
L 3956 4666 
L 4897 4666 
L 4897 0 
L 4281 0 
L 4281 4097 
L 3078 897 
L 2444 897 
L 1241 4097 
L 1241 0 
L 628 0 
L 628 4666 
z
" transform="scale(0.015625)"/>
       <path id="DejaVuSans-53" d="M 3425 4513 
L 3425 3897 
Q 3066 4069 2747 4153 
Q 2428 4238 2131 4238 
Q 1616 4238 1336 4038 
Q 1056 3838 1056 3469 
Q 1056 3159 1242 3001 
Q 1428 2844 1947 2747 
L 2328 2669 
Q 3034 2534 3370 2195 
Q 3706 1856 3706 1288 
Q 3706 609 3251 259 
Q 2797 -91 1919 -91 
Q 1588 -91 1214 -16 
Q 841 59 441 206 
L 441 856 
Q 825 641 1194 531 
Q 1563 422 1919 422 
Q 2459 422 2753 634 
Q 3047 847 3047 1241 
Q 3047 1584 2836 1778 
Q 2625 1972 2144 2069 
L 1759 2144 
Q 1053 2284 737 2584 
Q 422 2884 422 3419 
Q 422 4038 858 4394 
Q 1294 4750 2059 4750 
Q 2388 4750 2728 4690 
Q 3069 4631 3425 4513 
z
" transform="scale(0.015625)"/>
      </defs>
      <use xlink:href="#DejaVuSans-56"/>
      <use xlink:href="#DejaVuSans-61" x="60.658203"/>
      <use xlink:href="#DejaVuSans-6c" x="121.9375"/>
      <use xlink:href="#DejaVuSans-69" x="149.720703"/>
      <use xlink:href="#DejaVuSans-64" x="177.503906"/>
      <use xlink:href="#DejaVuSans-61" x="240.980469"/>
      <use xlink:href="#DejaVuSans-74" x="302.259766"/>
      <use xlink:href="#DejaVuSans-69" x="341.46875"/>
      <use xlink:href="#DejaVuSans-6f" x="369.251953"/>
      <use xlink:href="#DejaVuSans-6e" x="430.433594"/>
      <use xlink:href="#DejaVuSans-20" x="493.8125"/>
      <use xlink:href="#DejaVuSans-4d" x="525.599609"/>
      <use xlink:href="#DejaVuSans-53" x="611.878906"/>
      <use xlink:href="#DejaVuSans-45" x="675.355469"/>
     </g>
    </g>
   </g>
   <g id="line2d_27">
    <path d="M 92.290909 107.019578 
L 95.274866 124.909596 
L 98.258824 102.195265 
L 101.242781 134.813842 
L 104.226738 116.433768 
L 107.210695 142.642423 
L 110.194652 152.34576 
L 113.17861 167.075854 
L 116.162567 164.857034 
L 119.146524 171.562504 
L 122.130481 166.983595 
L 125.114439 170.180313 
L 128.098396 177.083431 
L 131.082353 166.305784 
L 134.06631 174.920477 
L 137.050267 168.321572 
L 140.034225 182.181412 
L 143.018182 164.369436 
L 146.002139 176.966325 
L 148.986096 169.996162 
L 151.970053 179.24246 
L 154.954011 184.089818 
L 157.937968 190.78464 
L 160.921925 191.648121 
L 163.905882 188.992522 
L 166.88984 201.490395 
L 169.873797 196.452475 
L 172.857754 194.196747 
L 175.841711 197.764858 
L 178.825668 204.367415 
L 181.809626 196.870939 
L 184.793583 201.144299 
L 187.77754 207.88637 
L 190.761497 200.504756 
L 193.745455 204.551887 
L 196.729412 201.247536 
L 199.713369 201.411069 
L 202.697326 201.409862 
L 205.681283 200.247997 
L 208.665241 199.231658 
L 211.649198 202.649737 
L 214.633155 205.957646 
L 217.617112 210.491424 
L 220.60107 196.765665 
L 223.585027 198.922578 
L 226.568984 201.996095 
L 229.552941 199.622343 
L 232.536898 204.754342 
L 235.520856 198.81819 
L 238.504813 206.347557 
L 241.48877 199.611735 
L 244.472727 202.771103 
L 247.456684 204.511258 
L 250.440642 208.326317 
L 253.424599 199.192645 
L 256.408556 201.279774 
L 259.392513 205.178139 
L 262.376471 206.498621 
L 265.360428 204.018018 
L 268.344385 200.866972 
L 271.328342 207.992401 
L 274.312299 209.113266 
L 277.296257 205.288775 
" clip-path="url(#pbb186b1807)" style="fill: none; stroke: #1f77b4; stroke-width: 1.5; stroke-linecap: square"/>
   </g>
   <g id="line2d_28">
    <path d="M 92.290909 83.352116 
L 95.274866 81.481432 
L 98.258824 114.211419 
L 101.242781 117.095389 
L 104.226738 110.668822 
L 107.210695 140.164961 
L 110.194652 162.274008 
L 113.17861 170.283624 
L 116.162567 154.661575 
L 119.146524 174.232995 
L 122.130481 158.877051 
L 125.114439 181.669859 
L 128.098396 178.611287 
L 131.082353 180.901617 
L 134.06631 190.523048 
L 137.050267 185.986158 
L 140.034225 191.461617 
L 143.018182 175.253589 
L 146.002139 177.630508 
L 148.986096 189.451602 
L 151.970053 198.016379 
L 154.954011 192.789273 
L 157.937968 200.01851 
L 160.921925 190.684084 
L 163.905882 196.283538 
L 166.88984 194.245939 
L 169.873797 202.299357 
L 172.857754 192.756415 
L 175.841711 192.650847 
L 178.825668 199.152301 
L 181.809626 196.647477 
L 184.793583 194.764547 
L 187.77754 210.171312 
L 190.761497 206.068335 
L 193.745455 202.295166 
L 196.729412 202.537374 
L 199.713369 202.611758 
L 202.697326 205.947548 
L 205.681283 207.692019 
L 208.665241 206.048584 
L 211.649198 213.149899 
L 214.633155 208.806137 
L 217.617112 207.114479 
L 220.60107 203.225755 
L 223.585027 205.470333 
L 226.568984 202.294245 
L 229.552941 204.14044 
L 232.536898 200.634164 
L 235.520856 206.285875 
L 238.504813 203.85267 
L 241.48877 202.786 
L 244.472727 203.472509 
L 247.456684 208.087287 
L 250.440642 213.260256 
L 253.424599 207.07489 
L 256.408556 206.483497 
L 259.392513 204.575863 
L 262.376471 203.706879 
L 265.360428 203.606186 
L 268.344385 203.42274 
L 271.328342 205.999585 
L 274.312299 204.419378 
L 277.296257 205.433765 
L 280.280214 203.386039 
L 283.264171 202.637416 
L 286.248128 210.617027 
L 289.232086 210.386305 
L 292.216043 210.349537 
L 295.2 206.329651 
L 298.183957 206.31228 
L 301.167914 206.232864 
L 304.151872 208.953595 
L 307.135829 207.296187 
L 310.119786 207.74066 
" clip-path="url(#pbb186b1807)" style="fill: none; stroke: #ff7f0e; stroke-width: 1.5; stroke-linecap: square"/>
   </g>
   <g id="line2d_29">
    <path d="M 92.290909 65.147706 
L 95.274866 90.026453 
L 98.258824 114.582537 
L 101.242781 134.769644 
L 104.226738 128.603357 
L 107.210695 149.505714 
L 110.194652 148.836467 
L 113.17861 149.849628 
L 116.162567 150.140649 
L 119.146524 163.707727 
L 122.130481 158.609885 
L 125.114439 171.694804 
L 128.098396 176.035708 
L 131.082353 175.19429 
L 134.06631 181.885841 
L 137.050267 186.076105 
L 140.034225 185.28742 
L 143.018182 181.179694 
L 146.002139 187.032304 
L 148.986096 189.617798 
L 151.970053 205.481846 
L 154.954011 204.488995 
L 157.937968 200.110265 
L 160.921925 197.681171 
L 163.905882 199.344045 
L 166.88984 199.628228 
L 169.873797 205.774254 
L 172.857754 200.079332 
L 175.841711 197.555016 
L 178.825668 204.891814 
L 181.809626 205.702433 
L 184.793583 200.783453 
L 187.77754 205.727143 
L 190.761497 208.535442 
L 193.745455 207.439577 
L 196.729412 204.223899 
L 199.713369 209.472078 
L 202.697326 216.307737 
L 205.681283 206.816208 
L 208.665241 218.058854 
L 211.649198 217.866751 
L 214.633155 212.14636 
L 217.617112 212.297579 
L 220.60107 211.07928 
L 223.585027 216.11938 
L 226.568984 213.671112 
L 229.552941 213.972798 
L 232.536898 210.996452 
L 235.520856 214.504662 
L 238.504813 211.15622 
L 241.48877 211.070601 
L 244.472727 213.105381 
L 247.456684 217.935725 
L 250.440642 209.237709 
L 253.424599 213.290464 
L 256.408556 217.910358 
L 259.392513 211.151413 
L 262.376471 216.808878 
L 265.360428 212.019213 
L 268.344385 215.865998 
" clip-path="url(#pbb186b1807)" style="fill: none; stroke: #2ca02c; stroke-width: 1.5; stroke-linecap: square"/>
   </g>
   <g id="line2d_30">
    <path d="M 92.290909 72.090967 
L 95.274866 91.595564 
L 98.258824 81.955376 
L 101.242781 110.320624 
L 104.226738 112.561036 
L 107.210695 133.551126 
L 110.194652 146.590067 
L 113.17861 162.544462 
L 116.162567 149.922144 
L 119.146524 164.374632 
L 122.130481 167.412948 
L 125.114439 175.101972 
L 128.098396 160.557274 
L 131.082353 170.693123 
L 134.06631 177.622218 
L 137.050267 185.554087 
L 140.034225 188.183709 
L 143.018182 174.273627 
L 146.002139 170.024562 
L 148.986096 188.157021 
L 151.970053 191.119538 
L 154.954011 198.28871 
L 157.937968 200.302737 
L 160.921925 193.708937 
L 163.905882 200.916497 
L 166.88984 202.039082 
L 169.873797 212.886615 
L 172.857754 208.444808 
L 175.841711 207.69127 
L 178.825668 210.178147 
L 181.809626 214.649378 
L 184.793583 209.655503 
L 187.77754 213.609894 
L 190.761497 206.291767 
L 193.745455 210.725055 
L 196.729412 204.211755 
L 199.713369 212.179968 
L 202.697326 216.298039 
L 205.681283 210.665694 
L 208.665241 211.257561 
L 211.649198 216.926205 
L 214.633155 216.017859 
L 217.617112 221.062729 
L 220.60107 215.057871 
L 223.585027 215.030806 
L 226.568984 222.611281 
L 229.552941 219.720309 
L 232.536898 224.579233 
L 235.520856 220.199565 
L 238.504813 221.573565 
L 241.48877 227.483715 
L 244.472727 225.555677 
L 247.456684 222.182331 
L 250.440642 222.607689 
L 253.424599 223.528449 
L 256.408556 223.502915 
L 259.392513 224.193942 
L 262.376471 224.501979 
L 265.360428 219.192085 
L 268.344385 217.211968 
L 271.328342 227.415727 
L 274.312299 225.563099 
L 277.296257 223.541393 
L 280.280214 224.937705 
L 283.264171 228.399133 
L 286.248128 222.257913 
L 289.232086 228.95467 
L 292.216043 231.970204 
L 295.2 228.162534 
L 298.183957 231.826855 
L 301.167914 226.505115 
L 307.135829 230.012828 
L 310.119786 225.723228 
L 313.103743 222.326838 
L 316.087701 231.950804 
L 319.071658 230.777051 
L 322.055615 226.263239 
L 325.039572 230.838532 
L 328.023529 230.432107 
L 331.007487 228.063468 
L 333.991444 233.377163 
L 336.975401 233.570865 
L 339.959358 230.212082 
L 342.943316 230.654608 
L 345.927273 234.579505 
L 348.91123 233.450152 
L 351.895187 231.481421 
L 354.879144 232.373117 
L 357.863102 230.189838 
L 360.847059 231.428417 
L 363.831016 232.980291 
L 366.814973 235.273314 
L 369.79893 234.848342 
L 372.782888 233.976759 
L 375.766845 235.573851 
L 378.750802 235.645233 
L 381.734759 231.677008 
L 384.718717 231.243479 
L 387.702674 232.875653 
L 390.686631 233.46905 
L 393.670588 230.090433 
L 396.654545 231.10336 
L 399.638503 228.880975 
L 402.62246 229.873833 
L 405.606417 229.412954 
L 408.590374 233.034004 
L 411.574332 233.765139 
L 414.558289 233.781068 
L 417.542246 232.490734 
L 420.526203 237.25701 
L 423.51016 239.321829 
L 426.494118 234.582864 
L 429.478075 236.695638 
L 432.462032 235.612449 
L 435.445989 234.937173 
L 438.429947 240.859554 
L 441.413904 237.023525 
L 444.397861 236.532709 
L 447.381818 234.761573 
L 450.365775 236.679772 
L 453.349733 233.692809 
L 456.33369 236.337035 
L 459.317647 235.267933 
L 462.301604 232.952678 
L 465.285561 233.711261 
L 468.269519 235.761842 
L 471.253476 236.816883 
L 474.237433 234.505278 
L 477.22139 231.986494 
L 480.205348 235.98546 
L 483.189305 234.13662 
L 486.173262 237.011187 
L 489.157219 232.719213 
L 492.141176 232.878548 
L 495.125134 236.426277 
L 498.109091 234.097629 
L 498.109091 234.097629 
" clip-path="url(#pbb186b1807)" style="fill: none; stroke: #d62728; stroke-width: 1.5; stroke-linecap: square"/>
   </g>
   <g id="line2d_31">
    <path d="M 92.290909 44.64 
L 95.274866 82.715033 
L 98.258824 102.790579 
L 101.242781 100.014368 
L 104.226738 116.28465 
L 107.210695 137.844295 
L 110.194652 124.384615 
L 113.17861 155.59615 
L 116.162567 166.131449 
L 119.146524 162.493705 
L 122.130481 157.939664 
L 125.114439 176.77631 
L 128.098396 175.485414 
L 131.082353 162.038144 
L 134.06631 176.057976 
L 137.050267 187.352953 
L 140.034225 184.170931 
L 143.018182 183.627907 
L 146.002139 177.688896 
L 148.986096 193.87092 
L 151.970053 201.656223 
L 154.954011 204.199217 
L 157.937968 204.446376 
L 160.921925 194.929735 
L 163.905882 197.528165 
L 166.88984 204.517869 
L 169.873797 203.538831 
L 172.857754 212.97235 
L 175.841711 209.685418 
L 178.825668 204.597654 
L 181.809626 208.787381 
L 184.793583 206.876919 
L 187.77754 211.538706 
L 190.761497 209.615871 
L 193.745455 211.566943 
L 196.729412 210.05569 
L 199.713369 216.237908 
L 202.697326 216.471614 
L 205.681283 216.444633 
L 208.665241 217.880242 
L 211.649198 218.953264 
L 214.633155 217.916639 
L 217.617112 220.832487 
L 220.60107 221.350459 
L 223.585027 218.06304 
L 226.568984 217.05842 
L 229.552941 213.418405 
L 232.536898 218.569427 
L 235.520856 216.866839 
L 238.504813 220.030147 
L 241.48877 220.747518 
L 244.472727 218.254218 
L 247.456684 224.201841 
L 250.440642 227.548793 
L 253.424599 227.122957 
L 256.408556 229.046792 
L 259.392513 220.770449 
L 262.376471 220.753663 
L 265.360428 225.504515 
L 268.344385 225.792569 
L 271.328342 223.823317 
L 274.312299 226.362366 
L 277.296257 226.237564 
L 280.280214 226.492728 
L 283.264171 224.349731 
L 286.248128 231.348039 
L 289.232086 231.675876 
L 292.216043 224.695696 
L 295.2 223.162862 
L 298.183957 229.741763 
L 301.167914 224.678086 
L 304.151872 229.040208 
L 307.135829 225.670854 
L 310.119786 231.057118 
L 313.103743 232.485159 
L 316.087701 230.034298 
L 319.071658 228.201628 
L 322.055615 233.832064 
L 325.039572 230.141596 
L 328.023529 227.641137 
L 331.007487 226.07216 
L 333.991444 233.413068 
L 336.975401 233.320832 
L 339.959358 231.427758 
L 342.943316 232.817362 
L 345.927273 233.051772 
L 348.91123 235.285582 
L 351.895187 237.53779 
L 354.879144 240.23509 
L 357.863102 236.817298 
L 360.847059 241.3758 
L 363.831016 236.21287 
L 366.814973 236.599452 
L 369.79893 236.742709 
L 372.782888 235.449607 
L 375.766845 234.240605 
L 378.750802 238.885431 
L 381.734759 235.361014 
L 384.718717 238.993933 
L 387.702674 236.35202 
L 390.686631 237.138434 
L 393.670588 234.826683 
L 396.654545 240.568762 
L 399.638503 236.314509 
L 402.62246 237.228517 
L 405.606417 238.167559 
L 408.590374 237.427615 
L 411.574332 238.161817 
L 414.558289 239.08089 
L 417.542246 238.440326 
L 420.526203 235.887073 
" clip-path="url(#pbb186b1807)" style="fill: none; stroke: #9467bd; stroke-width: 1.5; stroke-linecap: square"/>
   </g>
   <g id="line2d_32">
    <path d="M 92.290909 58.891412 
L 95.274866 69.013629 
L 98.258824 77.797518 
L 101.242781 118.908126 
L 104.226738 97.687542 
L 107.210695 127.731144 
L 110.194652 146.385047 
L 113.17861 158.220637 
L 116.162567 156.079356 
L 119.146524 155.123559 
L 122.130481 160.388951 
L 125.114439 176.417196 
L 128.098396 165.108983 
L 134.06631 181.74923 
L 137.050267 184.138697 
L 140.034225 182.694036 
L 143.018182 168.600274 
L 146.002139 174.727405 
L 148.986096 189.099923 
L 151.970053 199.416165 
L 154.954011 204.120594 
L 157.937968 201.258489 
L 160.921925 204.503049 
L 163.905882 190.810363 
L 166.88984 197.839185 
L 169.873797 200.908241 
L 172.857754 199.819893 
L 175.841711 208.062738 
L 178.825668 206.606183 
L 181.809626 209.439478 
L 184.793583 206.607424 
L 187.77754 212.840573 
L 190.761497 210.349308 
L 193.745455 214.385078 
L 196.729412 215.182116 
L 199.713369 210.372311 
L 202.697326 220.709245 
L 205.681283 212.681222 
L 208.665241 225.58449 
L 211.649198 214.450996 
L 214.633155 218.287809 
L 217.617112 219.230208 
L 220.60107 211.373696 
L 223.585027 224.418762 
L 226.568984 217.554809 
L 229.552941 221.624176 
L 232.536898 221.756954 
L 235.520856 225.635025 
L 238.504813 223.347915 
L 241.48877 218.523151 
L 244.472727 226.48665 
L 247.456684 223.310386 
L 250.440642 226.282888 
L 253.424599 226.237317 
L 256.408556 229.384929 
L 259.392513 226.189556 
L 262.376471 229.303367 
L 265.360428 226.554319 
L 268.344385 229.260271 
L 271.328342 229.149944 
L 274.312299 227.404157 
L 277.296257 231.444757 
L 280.280214 230.612092 
L 283.264171 223.755136 
L 286.248128 229.669398 
L 289.232086 224.472546 
L 292.216043 227.979965 
L 295.2 231.864691 
L 298.183957 236.526859 
L 301.167914 228.272342 
L 304.151872 236.179072 
L 307.135829 232.569758 
L 310.119786 236.163781 
L 313.103743 236.646651 
L 316.087701 233.437582 
L 319.071658 230.017948 
L 322.055615 237.23197 
L 325.039572 236.771764 
L 328.023529 238.416487 
L 331.007487 231.18895 
L 333.991444 238.223835 
L 336.975401 236.099901 
L 339.959358 237.82225 
L 342.943316 238.737374 
L 345.927273 233.471818 
L 348.91123 237.306525 
L 351.895187 241.414397 
L 354.879144 236.891042 
L 357.863102 236.466703 
L 360.847059 233.174542 
L 363.831016 233.880584 
L 366.814973 234.93115 
L 369.79893 239.446774 
L 372.782888 236.230391 
L 375.766845 239.492743 
L 378.750802 239.925322 
L 381.734759 242.047007 
L 384.718717 240.696085 
L 387.702674 240.80533 
L 390.686631 241.119112 
L 393.670588 239.38879 
L 396.654545 242.180514 
L 399.638503 240.698473 
L 402.62246 241.993562 
L 405.606417 239.80486 
L 408.590374 240.790127 
L 411.574332 246.24 
L 414.558289 240.319704 
L 417.542246 244.646537 
L 420.526203 236.667841 
L 423.51016 240.952573 
L 426.494118 241.550011 
L 429.478075 240.587941 
L 432.462032 237.939747 
L 435.445989 240.119578 
L 438.429947 242.54523 
L 441.413904 244.182089 
L 444.397861 240.567723 
L 447.381818 245.152628 
L 450.365775 243.05924 
L 453.349733 244.914602 
L 456.33369 241.533925 
L 459.317647 244.320356 
L 462.301604 244.127583 
L 465.285561 241.284369 
L 468.269519 241.580828 
L 471.253476 241.5904 
L 471.253476 241.5904 
" clip-path="url(#pbb186b1807)" style="fill: none; stroke: #8c564b; stroke-width: 1.5; stroke-linecap: square"/>
   </g>
   <g id="patch_3">
    <path d="M 72 256.32 
L 72 34.56 
" style="fill: none; stroke: #000000; stroke-width: 0.8; stroke-linejoin: miter; stroke-linecap: square"/>
   </g>
   <g id="patch_4">
    <path d="M 518.4 256.32 
L 518.4 34.56 
" style="fill: none; stroke: #000000; stroke-width: 0.8; stroke-linejoin: miter; stroke-linecap: square"/>
   </g>
   <g id="patch_5">
    <path d="M 72 256.32 
L 518.4 256.32 
" style="fill: none; stroke: #000000; stroke-width: 0.8; stroke-linejoin: miter; stroke-linecap: square"/>
   </g>
   <g id="patch_6">
    <path d="M 72 34.56 
L 518.4 34.56 
" style="fill: none; stroke: #000000; stroke-width: 0.8; stroke-linejoin: miter; stroke-linecap: square"/>
   </g>
   <g id="legend_1">
    <g id="patch_7">
     <path d="M 388.742188 145.306875 
L 511.4 145.306875 
Q 513.4 145.306875 513.4 143.306875 
L 513.4 41.56 
Q 513.4 39.56 511.4 39.56 
L 388.742188 39.56 
Q 386.742188 39.56 386.742188 41.56 
L 386.742188 143.306875 
Q 386.742188 145.306875 388.742188 145.306875 
z
" style="fill: #ffffff; opacity: 0.8; stroke: #cccccc; stroke-linejoin: miter"/>
    </g>
    <g id="text_16">
     <!-- dense layer dimensions -->
     <g transform="translate(390.742188 51.158437) scale(0.1 -0.1)">
      <defs>
       <path id="DejaVuSans-65" d="M 3597 1894 
L 3597 1613 
L 953 1613 
Q 991 1019 1311 708 
Q 1631 397 2203 397 
Q 2534 397 2845 478 
Q 3156 559 3463 722 
L 3463 178 
Q 3153 47 2828 -22 
Q 2503 -91 2169 -91 
Q 1331 -91 842 396 
Q 353 884 353 1716 
Q 353 2575 817 3079 
Q 1281 3584 2069 3584 
Q 2775 3584 3186 3129 
Q 3597 2675 3597 1894 
z
M 3022 2063 
Q 3016 2534 2758 2815 
Q 2500 3097 2075 3097 
Q 1594 3097 1305 2825 
Q 1016 2553 972 2059 
L 3022 2063 
z
" transform="scale(0.015625)"/>
       <path id="DejaVuSans-73" d="M 2834 3397 
L 2834 2853 
Q 2591 2978 2328 3040 
Q 2066 3103 1784 3103 
Q 1356 3103 1142 2972 
Q 928 2841 928 2578 
Q 928 2378 1081 2264 
Q 1234 2150 1697 2047 
L 1894 2003 
Q 2506 1872 2764 1633 
Q 3022 1394 3022 966 
Q 3022 478 2636 193 
Q 2250 -91 1575 -91 
Q 1294 -91 989 -36 
Q 684 19 347 128 
L 347 722 
Q 666 556 975 473 
Q 1284 391 1588 391 
Q 1994 391 2212 530 
Q 2431 669 2431 922 
Q 2431 1156 2273 1281 
Q 2116 1406 1581 1522 
L 1381 1569 
Q 847 1681 609 1914 
Q 372 2147 372 2553 
Q 372 3047 722 3315 
Q 1072 3584 1716 3584 
Q 2034 3584 2315 3537 
Q 2597 3491 2834 3397 
z
" transform="scale(0.015625)"/>
       <path id="DejaVuSans-79" d="M 2059 -325 
Q 1816 -950 1584 -1140 
Q 1353 -1331 966 -1331 
L 506 -1331 
L 506 -850 
L 844 -850 
Q 1081 -850 1212 -737 
Q 1344 -625 1503 -206 
L 1606 56 
L 191 3500 
L 800 3500 
L 1894 763 
L 2988 3500 
L 3597 3500 
L 2059 -325 
z
" transform="scale(0.015625)"/>
       <path id="DejaVuSans-72" d="M 2631 2963 
Q 2534 3019 2420 3045 
Q 2306 3072 2169 3072 
Q 1681 3072 1420 2755 
Q 1159 2438 1159 1844 
L 1159 0 
L 581 0 
L 581 3500 
L 1159 3500 
L 1159 2956 
Q 1341 3275 1631 3429 
Q 1922 3584 2338 3584 
Q 2397 3584 2469 3576 
Q 2541 3569 2628 3553 
L 2631 2963 
z
" transform="scale(0.015625)"/>
       <path id="DejaVuSans-6d" d="M 3328 2828 
Q 3544 3216 3844 3400 
Q 4144 3584 4550 3584 
Q 5097 3584 5394 3201 
Q 5691 2819 5691 2113 
L 5691 0 
L 5113 0 
L 5113 2094 
Q 5113 2597 4934 2840 
Q 4756 3084 4391 3084 
Q 3944 3084 3684 2787 
Q 3425 2491 3425 1978 
L 3425 0 
L 2847 0 
L 2847 2094 
Q 2847 2600 2669 2842 
Q 2491 3084 2119 3084 
Q 1678 3084 1418 2786 
Q 1159 2488 1159 1978 
L 1159 0 
L 581 0 
L 581 3500 
L 1159 3500 
L 1159 2956 
Q 1356 3278 1631 3431 
Q 1906 3584 2284 3584 
Q 2666 3584 2933 3390 
Q 3200 3197 3328 2828 
z
" transform="scale(0.015625)"/>
      </defs>
      <use xlink:href="#DejaVuSans-64"/>
      <use xlink:href="#DejaVuSans-65" x="63.476562"/>
      <use xlink:href="#DejaVuSans-6e" x="125"/>
      <use xlink:href="#DejaVuSans-73" x="188.378906"/>
      <use xlink:href="#DejaVuSans-65" x="240.478516"/>
      <use xlink:href="#DejaVuSans-20" x="302.001953"/>
      <use xlink:href="#DejaVuSans-6c" x="333.789062"/>
      <use xlink:href="#DejaVuSans-61" x="361.572266"/>
      <use xlink:href="#DejaVuSans-79" x="422.851562"/>
      <use xlink:href="#DejaVuSans-65" x="482.03125"/>
      <use xlink:href="#DejaVuSans-72" x="543.554688"/>
      <use xlink:href="#DejaVuSans-20" x="584.667969"/>
      <use xlink:href="#DejaVuSans-64" x="616.455078"/>
      <use xlink:href="#DejaVuSans-69" x="679.931641"/>
      <use xlink:href="#DejaVuSans-6d" x="707.714844"/>
      <use xlink:href="#DejaVuSans-65" x="805.126953"/>
      <use xlink:href="#DejaVuSans-6e" x="866.650391"/>
      <use xlink:href="#DejaVuSans-73" x="930.029297"/>
      <use xlink:href="#DejaVuSans-69" x="982.128906"/>
      <use xlink:href="#DejaVuSans-6f" x="1009.912109"/>
      <use xlink:href="#DejaVuSans-6e" x="1071.09375"/>
      <use xlink:href="#DejaVuSans-73" x="1134.472656"/>
     </g>
    </g>
    <g id="line2d_33">
     <path d="M 420.164844 62.336563 
L 430.164844 62.336563 
L 440.164844 62.336563 
" style="fill: none; stroke: #1f77b4; stroke-width: 1.5; stroke-linecap: square"/>
    </g>
    <g id="text_17">
     <!-- 500 -->
     <g transform="translate(448.164844 65.836563) scale(0.1 -0.1)">
      <use xlink:href="#DejaVuSans-35"/>
      <use xlink:href="#DejaVuSans-30" x="63.623047"/>
      <use xlink:href="#DejaVuSans-30" x="127.246094"/>
     </g>
    </g>
    <g id="line2d_34">
     <path d="M 420.164844 77.014688 
L 430.164844 77.014688 
L 440.164844 77.014688 
" style="fill: none; stroke: #ff7f0e; stroke-width: 1.5; stroke-linecap: square"/>
    </g>
    <g id="text_18">
     <!-- 1000 -->
     <g transform="translate(448.164844 80.514688) scale(0.1 -0.1)">
      <use xlink:href="#DejaVuSans-31"/>
      <use xlink:href="#DejaVuSans-30" x="63.623047"/>
      <use xlink:href="#DejaVuSans-30" x="127.246094"/>
      <use xlink:href="#DejaVuSans-30" x="190.869141"/>
     </g>
    </g>
    <g id="line2d_35">
     <path d="M 420.164844 91.692813 
L 430.164844 91.692813 
L 440.164844 91.692813 
" style="fill: none; stroke: #2ca02c; stroke-width: 1.5; stroke-linecap: square"/>
    </g>
    <g id="text_19">
     <!-- 2000 -->
     <g transform="translate(448.164844 95.192813) scale(0.1 -0.1)">
      <use xlink:href="#DejaVuSans-32"/>
      <use xlink:href="#DejaVuSans-30" x="63.623047"/>
      <use xlink:href="#DejaVuSans-30" x="127.246094"/>
      <use xlink:href="#DejaVuSans-30" x="190.869141"/>
     </g>
    </g>
    <g id="line2d_36">
     <path d="M 420.164844 106.370938 
L 430.164844 106.370938 
L 440.164844 106.370938 
" style="fill: none; stroke: #d62728; stroke-width: 1.5; stroke-linecap: square"/>
    </g>
    <g id="text_20">
     <!-- 4000 -->
     <g transform="translate(448.164844 109.870938) scale(0.1 -0.1)">
      <use xlink:href="#DejaVuSans-34"/>
      <use xlink:href="#DejaVuSans-30" x="63.623047"/>
      <use xlink:href="#DejaVuSans-30" x="127.246094"/>
      <use xlink:href="#DejaVuSans-30" x="190.869141"/>
     </g>
    </g>
    <g id="line2d_37">
     <path d="M 420.164844 121.049063 
L 430.164844 121.049063 
L 440.164844 121.049063 
" style="fill: none; stroke: #9467bd; stroke-width: 1.5; stroke-linecap: square"/>
    </g>
    <g id="text_21">
     <!-- 8000 -->
     <g transform="translate(448.164844 124.549063) scale(0.1 -0.1)">
      <use xlink:href="#DejaVuSans-38"/>
      <use xlink:href="#DejaVuSans-30" x="63.623047"/>
      <use xlink:href="#DejaVuSans-30" x="127.246094"/>
      <use xlink:href="#DejaVuSans-30" x="190.869141"/>
     </g>
    </g>
    <g id="line2d_38">
     <path d="M 420.164844 135.727188 
L 430.164844 135.727188 
L 440.164844 135.727188 
" style="fill: none; stroke: #8c564b; stroke-width: 1.5; stroke-linecap: square"/>
    </g>
    <g id="text_22">
     <!-- 10000 -->
     <g transform="translate(448.164844 139.227188) scale(0.1 -0.1)">
      <use xlink:href="#DejaVuSans-31"/>
      <use xlink:href="#DejaVuSans-30" x="63.623047"/>
      <use xlink:href="#DejaVuSans-30" x="127.246094"/>
      <use xlink:href="#DejaVuSans-30" x="190.869141"/>
      <use xlink:href="#DejaVuSans-30" x="254.492188"/>
     </g>
    </g>
   </g>
  </g>
 </g>
 <defs>
  <clipPath id="pbb186b1807">
   <rect x="72" y="34.56" width="446.4" height="221.76"/>
  </clipPath>
 </defs>
</svg>
