<?xml version="1.0" encoding="utf-8" standalone="no"?>
<!DOCTYPE svg PUBLIC "-//W3C//DTD SVG 1.1//EN"
  "http://www.w3.org/Graphics/SVG/1.1/DTD/svg11.dtd">
<svg xmlns:xlink="http://www.w3.org/1999/xlink" width="424.52375pt" height="280.278594pt" viewBox="0 0 424.52375 280.278594" xmlns="http://www.w3.org/2000/svg" version="1.1">
 <metadata>
  <rdf:RDF xmlns:dc="http://purl.org/dc/elements/1.1/" xmlns:cc="http://creativecommons.org/ns#" xmlns:rdf="http://www.w3.org/1999/02/22-rdf-syntax-ns#">
   <cc:Work>
    <dc:type rdf:resource="http://purl.org/dc/dcmitype/StillImage"/>
    <dc:date>2025-07-04T15:38:07.615160</dc:date>
    <dc:format>image/svg+xml</dc:format>
    <dc:creator>
     <cc:Agent>
      <dc:title>Matplotlib v3.7.2, https://matplotlib.org/</dc:title>
     </cc:Agent>
    </dc:creator>
   </cc:Work>
  </rdf:RDF>
 </metadata>
 <defs>
  <style type="text/css">*{stroke-linejoin: round; stroke-linecap: butt}</style>
 </defs>
 <g id="figure_1">
  <g id="patch_1">
   <path d="M 0 280.278594 
L 424.52375 280.278594 
L 424.52375 0 
L 0 0 
z
" style="fill: #ffffff"/>
  </g>
  <g id="axes_1">
   <g id="patch_2">
    <path d="M 50.14375 195.37 
L 417.32375 195.37 
L 417.32375 7.2 
L 50.14375 7.2 
z
" style="fill: #ffffff"/>
   </g>
   <g id="matplotlib.axis_1">
    <g id="xtick_1">
     <g id="line2d_1">
      <path d="M 66.83375 195.37 
L 66.83375 7.2 
" clip-path="url(#p5e18a37653)" style="fill: none; stroke: #b0b0b0; stroke-width: 0.8; stroke-linecap: square"/>
     </g>
     <g id="line2d_2">
      <defs>
       <path id="mfc6f6737b4" d="M 0 0 
L 0 3.5 
" style="stroke: #000000; stroke-width: 0.8"/>
      </defs>
      <g>
       <use xlink:href="#mfc6f6737b4" x="66.83375" y="195.37" style="stroke: #000000; stroke-width: 0.8"/>
      </g>
     </g>
     <g id="text_1">
      <!-- -0.0 to &lt; 0.1 -->
      <g transform="translate(69.317188 259.400469) rotate(-90) scale(0.09 -0.09)">
       <defs>
        <path id="DejaVuSans-2d" d="M 313 2009 
L 1997 2009 
L 1997 1497 
L 313 1497 
L 313 2009 
z
" transform="scale(0.015625)"/>
        <path id="DejaVuSans-30" d="M 2034 4250 
Q 1547 4250 1301 3770 
Q 1056 3291 1056 2328 
Q 1056 1369 1301 889 
Q 1547 409 2034 409 
Q 2525 409 2770 889 
Q 3016 1369 3016 2328 
Q 3016 3291 2770 3770 
Q 2525 4250 2034 4250 
z
M 2034 4750 
Q 2819 4750 3233 4129 
Q 3647 3509 3647 2328 
Q 3647 1150 3233 529 
Q 2819 -91 2034 -91 
Q 1250 -91 836 529 
Q 422 1150 422 2328 
Q 422 3509 836 4129 
Q 1250 4750 2034 4750 
z
" transform="scale(0.015625)"/>
        <path id="DejaVuSans-2e" d="M 684 794 
L 1344 794 
L 1344 0 
L 684 0 
L 684 794 
z
" transform="scale(0.015625)"/>
        <path id="DejaVuSans-20" transform="scale(0.015625)"/>
        <path id="DejaVuSans-74" d="M 1172 4494 
L 1172 3500 
L 2356 3500 
L 2356 3053 
L 1172 3053 
L 1172 1153 
Q 1172 725 1289 603 
Q 1406 481 1766 481 
L 2356 481 
L 2356 0 
L 1766 0 
Q 1100 0 847 248 
Q 594 497 594 1153 
L 594 3053 
L 172 3053 
L 172 3500 
L 594 3500 
L 594 4494 
L 1172 4494 
z
" transform="scale(0.015625)"/>
        <path id="DejaVuSans-6f" d="M 1959 3097 
Q 1497 3097 1228 2736 
Q 959 2375 959 1747 
Q 959 1119 1226 758 
Q 1494 397 1959 397 
Q 2419 397 2687 759 
Q 2956 1122 2956 1747 
Q 2956 2369 2687 2733 
Q 2419 3097 1959 3097 
z
M 1959 3584 
Q 2709 3584 3137 3096 
Q 3566 2609 3566 1747 
Q 3566 888 3137 398 
Q 2709 -91 1959 -91 
Q 1206 -91 779 398 
Q 353 888 353 1747 
Q 353 2609 779 3096 
Q 1206 3584 1959 3584 
z
" transform="scale(0.015625)"/>
        <path id="DejaVuSans-3c" d="M 4684 3150 
L 1459 2003 
L 4684 863 
L 4684 294 
L 678 1747 
L 678 2266 
L 4684 3719 
L 4684 3150 
z
" transform="scale(0.015625)"/>
        <path id="DejaVuSans-31" d="M 794 531 
L 1825 531 
L 1825 4091 
L 703 3866 
L 703 4441 
L 1819 4666 
L 2450 4666 
L 2450 531 
L 3481 531 
L 3481 0 
L 794 0 
L 794 531 
z
" transform="scale(0.015625)"/>
       </defs>
       <use xlink:href="#DejaVuSans-2d"/>
       <use xlink:href="#DejaVuSans-30" x="36.083984"/>
       <use xlink:href="#DejaVuSans-2e" x="99.707031"/>
       <use xlink:href="#DejaVuSans-30" x="131.494141"/>
       <use xlink:href="#DejaVuSans-20" x="195.117188"/>
       <use xlink:href="#DejaVuSans-74" x="226.904297"/>
       <use xlink:href="#DejaVuSans-6f" x="266.113281"/>
       <use xlink:href="#DejaVuSans-20" x="327.294922"/>
       <use xlink:href="#DejaVuSans-3c" x="359.082031"/>
       <use xlink:href="#DejaVuSans-20" x="442.871094"/>
       <use xlink:href="#DejaVuSans-30" x="474.658203"/>
       <use xlink:href="#DejaVuSans-2e" x="538.28125"/>
       <use xlink:href="#DejaVuSans-31" x="570.068359"/>
      </g>
     </g>
    </g>
    <g id="xtick_2">
     <g id="line2d_3">
      <path d="M 103.922639 195.37 
L 103.922639 7.2 
" clip-path="url(#p5e18a37653)" style="fill: none; stroke: #b0b0b0; stroke-width: 0.8; stroke-linecap: square"/>
     </g>
     <g id="line2d_4">
      <g>
       <use xlink:href="#mfc6f6737b4" x="103.922639" y="195.37" style="stroke: #000000; stroke-width: 0.8"/>
      </g>
     </g>
     <g id="text_2">
      <!-- 0.1 to &lt; 0.2 -->
      <g transform="translate(106.406076 256.153437) rotate(-90) scale(0.09 -0.09)">
       <defs>
        <path id="DejaVuSans-32" d="M 1228 531 
L 3431 531 
L 3431 0 
L 469 0 
L 469 531 
Q 828 903 1448 1529 
Q 2069 2156 2228 2338 
Q 2531 2678 2651 2914 
Q 2772 3150 2772 3378 
Q 2772 3750 2511 3984 
Q 2250 4219 1831 4219 
Q 1534 4219 1204 4116 
Q 875 4013 500 3803 
L 500 4441 
Q 881 4594 1212 4672 
Q 1544 4750 1819 4750 
Q 2544 4750 2975 4387 
Q 3406 4025 3406 3419 
Q 3406 3131 3298 2873 
Q 3191 2616 2906 2266 
Q 2828 2175 2409 1742 
Q 1991 1309 1228 531 
z
" transform="scale(0.015625)"/>
       </defs>
       <use xlink:href="#DejaVuSans-30"/>
       <use xlink:href="#DejaVuSans-2e" x="63.623047"/>
       <use xlink:href="#DejaVuSans-31" x="95.410156"/>
       <use xlink:href="#DejaVuSans-20" x="159.033203"/>
       <use xlink:href="#DejaVuSans-74" x="190.820312"/>
       <use xlink:href="#DejaVuSans-6f" x="230.029297"/>
       <use xlink:href="#DejaVuSans-20" x="291.210938"/>
       <use xlink:href="#DejaVuSans-3c" x="322.998047"/>
       <use xlink:href="#DejaVuSans-20" x="406.787109"/>
       <use xlink:href="#DejaVuSans-30" x="438.574219"/>
       <use xlink:href="#DejaVuSans-2e" x="502.197266"/>
       <use xlink:href="#DejaVuSans-32" x="533.984375"/>
      </g>
     </g>
    </g>
    <g id="xtick_3">
     <g id="line2d_5">
      <path d="M 141.011528 195.37 
L 141.011528 7.2 
" clip-path="url(#p5e18a37653)" style="fill: none; stroke: #b0b0b0; stroke-width: 0.8; stroke-linecap: square"/>
     </g>
     <g id="line2d_6">
      <g>
       <use xlink:href="#mfc6f6737b4" x="141.011528" y="195.37" style="stroke: #000000; stroke-width: 0.8"/>
      </g>
     </g>
     <g id="text_3">
      <!-- 0.2 to &lt; 0.3 -->
      <g transform="translate(143.494965 256.153437) rotate(-90) scale(0.09 -0.09)">
       <defs>
        <path id="DejaVuSans-33" d="M 2597 2516 
Q 3050 2419 3304 2112 
Q 3559 1806 3559 1356 
Q 3559 666 3084 287 
Q 2609 -91 1734 -91 
Q 1441 -91 1130 -33 
Q 819 25 488 141 
L 488 750 
Q 750 597 1062 519 
Q 1375 441 1716 441 
Q 2309 441 2620 675 
Q 2931 909 2931 1356 
Q 2931 1769 2642 2001 
Q 2353 2234 1838 2234 
L 1294 2234 
L 1294 2753 
L 1863 2753 
Q 2328 2753 2575 2939 
Q 2822 3125 2822 3475 
Q 2822 3834 2567 4026 
Q 2313 4219 1838 4219 
Q 1578 4219 1281 4162 
Q 984 4106 628 3988 
L 628 4550 
Q 988 4650 1302 4700 
Q 1616 4750 1894 4750 
Q 2613 4750 3031 4423 
Q 3450 4097 3450 3541 
Q 3450 3153 3228 2886 
Q 3006 2619 2597 2516 
z
" transform="scale(0.015625)"/>
       </defs>
       <use xlink:href="#DejaVuSans-30"/>
       <use xlink:href="#DejaVuSans-2e" x="63.623047"/>
       <use xlink:href="#DejaVuSans-32" x="95.410156"/>
       <use xlink:href="#DejaVuSans-20" x="159.033203"/>
       <use xlink:href="#DejaVuSans-74" x="190.820312"/>
       <use xlink:href="#DejaVuSans-6f" x="230.029297"/>
       <use xlink:href="#DejaVuSans-20" x="291.210938"/>
       <use xlink:href="#DejaVuSans-3c" x="322.998047"/>
       <use xlink:href="#DejaVuSans-20" x="406.787109"/>
       <use xlink:href="#DejaVuSans-30" x="438.574219"/>
       <use xlink:href="#DejaVuSans-2e" x="502.197266"/>
       <use xlink:href="#DejaVuSans-33" x="533.984375"/>
      </g>
     </g>
    </g>
    <g id="xtick_4">
     <g id="line2d_7">
      <path d="M 178.100417 195.37 
L 178.100417 7.2 
" clip-path="url(#p5e18a37653)" style="fill: none; stroke: #b0b0b0; stroke-width: 0.8; stroke-linecap: square"/>
     </g>
     <g id="line2d_8">
      <g>
       <use xlink:href="#mfc6f6737b4" x="178.100417" y="195.37" style="stroke: #000000; stroke-width: 0.8"/>
      </g>
     </g>
     <g id="text_4">
      <!-- 0.3 to &lt; 0.4 -->
      <g transform="translate(180.583854 256.153437) rotate(-90) scale(0.09 -0.09)">
       <defs>
        <path id="DejaVuSans-34" d="M 2419 4116 
L 825 1625 
L 2419 1625 
L 2419 4116 
z
M 2253 4666 
L 3047 4666 
L 3047 1625 
L 3713 1625 
L 3713 1100 
L 3047 1100 
L 3047 0 
L 2419 0 
L 2419 1100 
L 313 1100 
L 313 1709 
L 2253 4666 
z
" transform="scale(0.015625)"/>
       </defs>
       <use xlink:href="#DejaVuSans-30"/>
       <use xlink:href="#DejaVuSans-2e" x="63.623047"/>
       <use xlink:href="#DejaVuSans-33" x="95.410156"/>
       <use xlink:href="#DejaVuSans-20" x="159.033203"/>
       <use xlink:href="#DejaVuSans-74" x="190.820312"/>
       <use xlink:href="#DejaVuSans-6f" x="230.029297"/>
       <use xlink:href="#DejaVuSans-20" x="291.210938"/>
       <use xlink:href="#DejaVuSans-3c" x="322.998047"/>
       <use xlink:href="#DejaVuSans-20" x="406.787109"/>
       <use xlink:href="#DejaVuSans-30" x="438.574219"/>
       <use xlink:href="#DejaVuSans-2e" x="502.197266"/>
       <use xlink:href="#DejaVuSans-34" x="533.984375"/>
      </g>
     </g>
    </g>
    <g id="xtick_5">
     <g id="line2d_9">
      <path d="M 215.189306 195.37 
L 215.189306 7.2 
" clip-path="url(#p5e18a37653)" style="fill: none; stroke: #b0b0b0; stroke-width: 0.8; stroke-linecap: square"/>
     </g>
     <g id="line2d_10">
      <g>
       <use xlink:href="#mfc6f6737b4" x="215.189306" y="195.37" style="stroke: #000000; stroke-width: 0.8"/>
      </g>
     </g>
     <g id="text_5">
      <!-- 0.4 to &lt; 0.5 -->
      <g transform="translate(217.672743 256.153437) rotate(-90) scale(0.09 -0.09)">
       <defs>
        <path id="DejaVuSans-35" d="M 691 4666 
L 3169 4666 
L 3169 4134 
L 1269 4134 
L 1269 2991 
Q 1406 3038 1543 3061 
Q 1681 3084 1819 3084 
Q 2600 3084 3056 2656 
Q 3513 2228 3513 1497 
Q 3513 744 3044 326 
Q 2575 -91 1722 -91 
Q 1428 -91 1123 -41 
Q 819 9 494 109 
L 494 744 
Q 775 591 1075 516 
Q 1375 441 1709 441 
Q 2250 441 2565 725 
Q 2881 1009 2881 1497 
Q 2881 1984 2565 2268 
Q 2250 2553 1709 2553 
Q 1456 2553 1204 2497 
Q 953 2441 691 2322 
L 691 4666 
z
" transform="scale(0.015625)"/>
       </defs>
       <use xlink:href="#DejaVuSans-30"/>
       <use xlink:href="#DejaVuSans-2e" x="63.623047"/>
       <use xlink:href="#DejaVuSans-34" x="95.410156"/>
       <use xlink:href="#DejaVuSans-20" x="159.033203"/>
       <use xlink:href="#DejaVuSans-74" x="190.820312"/>
       <use xlink:href="#DejaVuSans-6f" x="230.029297"/>
       <use xlink:href="#DejaVuSans-20" x="291.210938"/>
       <use xlink:href="#DejaVuSans-3c" x="322.998047"/>
       <use xlink:href="#DejaVuSans-20" x="406.787109"/>
       <use xlink:href="#DejaVuSans-30" x="438.574219"/>
       <use xlink:href="#DejaVuSans-2e" x="502.197266"/>
       <use xlink:href="#DejaVuSans-35" x="533.984375"/>
      </g>
     </g>
    </g>
    <g id="xtick_6">
     <g id="line2d_11">
      <path d="M 252.278194 195.37 
L 252.278194 7.2 
" clip-path="url(#p5e18a37653)" style="fill: none; stroke: #b0b0b0; stroke-width: 0.8; stroke-linecap: square"/>
     </g>
     <g id="line2d_12">
      <g>
       <use xlink:href="#mfc6f6737b4" x="252.278194" y="195.37" style="stroke: #000000; stroke-width: 0.8"/>
      </g>
     </g>
     <g id="text_6">
      <!-- 0.5 to &lt; 0.6 -->
      <g transform="translate(254.761632 256.153437) rotate(-90) scale(0.09 -0.09)">
       <defs>
        <path id="DejaVuSans-36" d="M 2113 2584 
Q 1688 2584 1439 2293 
Q 1191 2003 1191 1497 
Q 1191 994 1439 701 
Q 1688 409 2113 409 
Q 2538 409 2786 701 
Q 3034 994 3034 1497 
Q 3034 2003 2786 2293 
Q 2538 2584 2113 2584 
z
M 3366 4563 
L 3366 3988 
Q 3128 4100 2886 4159 
Q 2644 4219 2406 4219 
Q 1781 4219 1451 3797 
Q 1122 3375 1075 2522 
Q 1259 2794 1537 2939 
Q 1816 3084 2150 3084 
Q 2853 3084 3261 2657 
Q 3669 2231 3669 1497 
Q 3669 778 3244 343 
Q 2819 -91 2113 -91 
Q 1303 -91 875 529 
Q 447 1150 447 2328 
Q 447 3434 972 4092 
Q 1497 4750 2381 4750 
Q 2619 4750 2861 4703 
Q 3103 4656 3366 4563 
z
" transform="scale(0.015625)"/>
       </defs>
       <use xlink:href="#DejaVuSans-30"/>
       <use xlink:href="#DejaVuSans-2e" x="63.623047"/>
       <use xlink:href="#DejaVuSans-35" x="95.410156"/>
       <use xlink:href="#DejaVuSans-20" x="159.033203"/>
       <use xlink:href="#DejaVuSans-74" x="190.820312"/>
       <use xlink:href="#DejaVuSans-6f" x="230.029297"/>
       <use xlink:href="#DejaVuSans-20" x="291.210938"/>
       <use xlink:href="#DejaVuSans-3c" x="322.998047"/>
       <use xlink:href="#DejaVuSans-20" x="406.787109"/>
       <use xlink:href="#DejaVuSans-30" x="438.574219"/>
       <use xlink:href="#DejaVuSans-2e" x="502.197266"/>
       <use xlink:href="#DejaVuSans-36" x="533.984375"/>
      </g>
     </g>
    </g>
    <g id="xtick_7">
     <g id="line2d_13">
      <path d="M 289.367083 195.37 
L 289.367083 7.2 
" clip-path="url(#p5e18a37653)" style="fill: none; stroke: #b0b0b0; stroke-width: 0.8; stroke-linecap: square"/>
     </g>
     <g id="line2d_14">
      <g>
       <use xlink:href="#mfc6f6737b4" x="289.367083" y="195.37" style="stroke: #000000; stroke-width: 0.8"/>
      </g>
     </g>
     <g id="text_7">
      <!-- 0.6 to &lt; 0.7 -->
      <g transform="translate(291.850521 256.153437) rotate(-90) scale(0.09 -0.09)">
       <defs>
        <path id="DejaVuSans-37" d="M 525 4666 
L 3525 4666 
L 3525 4397 
L 1831 0 
L 1172 0 
L 2766 4134 
L 525 4134 
L 525 4666 
z
" transform="scale(0.015625)"/>
       </defs>
       <use xlink:href="#DejaVuSans-30"/>
       <use xlink:href="#DejaVuSans-2e" x="63.623047"/>
       <use xlink:href="#DejaVuSans-36" x="95.410156"/>
       <use xlink:href="#DejaVuSans-20" x="159.033203"/>
       <use xlink:href="#DejaVuSans-74" x="190.820312"/>
       <use xlink:href="#DejaVuSans-6f" x="230.029297"/>
       <use xlink:href="#DejaVuSans-20" x="291.210938"/>
       <use xlink:href="#DejaVuSans-3c" x="322.998047"/>
       <use xlink:href="#DejaVuSans-20" x="406.787109"/>
       <use xlink:href="#DejaVuSans-30" x="438.574219"/>
       <use xlink:href="#DejaVuSans-2e" x="502.197266"/>
       <use xlink:href="#DejaVuSans-37" x="533.984375"/>
      </g>
     </g>
    </g>
    <g id="xtick_8">
     <g id="line2d_15">
      <path d="M 326.455972 195.37 
L 326.455972 7.2 
" clip-path="url(#p5e18a37653)" style="fill: none; stroke: #b0b0b0; stroke-width: 0.8; stroke-linecap: square"/>
     </g>
     <g id="line2d_16">
      <g>
       <use xlink:href="#mfc6f6737b4" x="326.455972" y="195.37" style="stroke: #000000; stroke-width: 0.8"/>
      </g>
     </g>
     <g id="text_8">
      <!-- 0.7 to &lt; 0.8 -->
      <g transform="translate(328.93941 256.153437) rotate(-90) scale(0.09 -0.09)">
       <defs>
        <path id="DejaVuSans-38" d="M 2034 2216 
Q 1584 2216 1326 1975 
Q 1069 1734 1069 1313 
Q 1069 891 1326 650 
Q 1584 409 2034 409 
Q 2484 409 2743 651 
Q 3003 894 3003 1313 
Q 3003 1734 2745 1975 
Q 2488 2216 2034 2216 
z
M 1403 2484 
Q 997 2584 770 2862 
Q 544 3141 544 3541 
Q 544 4100 942 4425 
Q 1341 4750 2034 4750 
Q 2731 4750 3128 4425 
Q 3525 4100 3525 3541 
Q 3525 3141 3298 2862 
Q 3072 2584 2669 2484 
Q 3125 2378 3379 2068 
Q 3634 1759 3634 1313 
Q 3634 634 3220 271 
Q 2806 -91 2034 -91 
Q 1263 -91 848 271 
Q 434 634 434 1313 
Q 434 1759 690 2068 
Q 947 2378 1403 2484 
z
M 1172 3481 
Q 1172 3119 1398 2916 
Q 1625 2713 2034 2713 
Q 2441 2713 2670 2916 
Q 2900 3119 2900 3481 
Q 2900 3844 2670 4047 
Q 2441 4250 2034 4250 
Q 1625 4250 1398 4047 
Q 1172 3844 1172 3481 
z
" transform="scale(0.015625)"/>
       </defs>
       <use xlink:href="#DejaVuSans-30"/>
       <use xlink:href="#DejaVuSans-2e" x="63.623047"/>
       <use xlink:href="#DejaVuSans-37" x="95.410156"/>
       <use xlink:href="#DejaVuSans-20" x="159.033203"/>
       <use xlink:href="#DejaVuSans-74" x="190.820312"/>
       <use xlink:href="#DejaVuSans-6f" x="230.029297"/>
       <use xlink:href="#DejaVuSans-20" x="291.210938"/>
       <use xlink:href="#DejaVuSans-3c" x="322.998047"/>
       <use xlink:href="#DejaVuSans-20" x="406.787109"/>
       <use xlink:href="#DejaVuSans-30" x="438.574219"/>
       <use xlink:href="#DejaVuSans-2e" x="502.197266"/>
       <use xlink:href="#DejaVuSans-38" x="533.984375"/>
      </g>
     </g>
    </g>
    <g id="xtick_9">
     <g id="line2d_17">
      <path d="M 363.544861 195.37 
L 363.544861 7.2 
" clip-path="url(#p5e18a37653)" style="fill: none; stroke: #b0b0b0; stroke-width: 0.8; stroke-linecap: square"/>
     </g>
     <g id="line2d_18">
      <g>
       <use xlink:href="#mfc6f6737b4" x="363.544861" y="195.37" style="stroke: #000000; stroke-width: 0.8"/>
      </g>
     </g>
     <g id="text_9">
      <!-- 0.8 to &lt; 0.9 -->
      <g transform="translate(366.028299 256.153437) rotate(-90) scale(0.09 -0.09)">
       <defs>
        <path id="DejaVuSans-39" d="M 703 97 
L 703 672 
Q 941 559 1184 500 
Q 1428 441 1663 441 
Q 2288 441 2617 861 
Q 2947 1281 2994 2138 
Q 2813 1869 2534 1725 
Q 2256 1581 1919 1581 
Q 1219 1581 811 2004 
Q 403 2428 403 3163 
Q 403 3881 828 4315 
Q 1253 4750 1959 4750 
Q 2769 4750 3195 4129 
Q 3622 3509 3622 2328 
Q 3622 1225 3098 567 
Q 2575 -91 1691 -91 
Q 1453 -91 1209 -44 
Q 966 3 703 97 
z
M 1959 2075 
Q 2384 2075 2632 2365 
Q 2881 2656 2881 3163 
Q 2881 3666 2632 3958 
Q 2384 4250 1959 4250 
Q 1534 4250 1286 3958 
Q 1038 3666 1038 3163 
Q 1038 2656 1286 2365 
Q 1534 2075 1959 2075 
z
" transform="scale(0.015625)"/>
       </defs>
       <use xlink:href="#DejaVuSans-30"/>
       <use xlink:href="#DejaVuSans-2e" x="63.623047"/>
       <use xlink:href="#DejaVuSans-38" x="95.410156"/>
       <use xlink:href="#DejaVuSans-20" x="159.033203"/>
       <use xlink:href="#DejaVuSans-74" x="190.820312"/>
       <use xlink:href="#DejaVuSans-6f" x="230.029297"/>
       <use xlink:href="#DejaVuSans-20" x="291.210938"/>
       <use xlink:href="#DejaVuSans-3c" x="322.998047"/>
       <use xlink:href="#DejaVuSans-20" x="406.787109"/>
       <use xlink:href="#DejaVuSans-30" x="438.574219"/>
       <use xlink:href="#DejaVuSans-2e" x="502.197266"/>
       <use xlink:href="#DejaVuSans-39" x="533.984375"/>
      </g>
     </g>
    </g>
    <g id="xtick_10">
     <g id="line2d_19">
      <path d="M 400.63375 195.37 
L 400.63375 7.2 
" clip-path="url(#p5e18a37653)" style="fill: none; stroke: #b0b0b0; stroke-width: 0.8; stroke-linecap: square"/>
     </g>
     <g id="line2d_20">
      <g>
       <use xlink:href="#mfc6f6737b4" x="400.63375" y="195.37" style="stroke: #000000; stroke-width: 0.8"/>
      </g>
     </g>
     <g id="text_10">
      <!-- 0.9 to &lt; 1.0 -->
      <g transform="translate(403.117188 256.153437) rotate(-90) scale(0.09 -0.09)">
       <use xlink:href="#DejaVuSans-30"/>
       <use xlink:href="#DejaVuSans-2e" x="63.623047"/>
       <use xlink:href="#DejaVuSans-39" x="95.410156"/>
       <use xlink:href="#DejaVuSans-20" x="159.033203"/>
       <use xlink:href="#DejaVuSans-74" x="190.820312"/>
       <use xlink:href="#DejaVuSans-6f" x="230.029297"/>
       <use xlink:href="#DejaVuSans-20" x="291.210938"/>
       <use xlink:href="#DejaVuSans-3c" x="322.998047"/>
       <use xlink:href="#DejaVuSans-20" x="406.787109"/>
       <use xlink:href="#DejaVuSans-31" x="438.574219"/>
       <use xlink:href="#DejaVuSans-2e" x="502.197266"/>
       <use xlink:href="#DejaVuSans-30" x="533.984375"/>
      </g>
     </g>
    </g>
    <g id="text_11">
     <!-- Tanimoto score bin -->
     <g transform="translate(186.590781 270.998906) scale(0.1 -0.1)">
      <defs>
       <path id="DejaVuSans-54" d="M -19 4666 
L 3928 4666 
L 3928 4134 
L 2272 4134 
L 2272 0 
L 1638 0 
L 1638 4134 
L -19 4134 
L -19 4666 
z
" transform="scale(0.015625)"/>
       <path id="DejaVuSans-61" d="M 2194 1759 
Q 1497 1759 1228 1600 
Q 959 1441 959 1056 
Q 959 750 1161 570 
Q 1363 391 1709 391 
Q 2188 391 2477 730 
Q 2766 1069 2766 1631 
L 2766 1759 
L 2194 1759 
z
M 3341 1997 
L 3341 0 
L 2766 0 
L 2766 531 
Q 2569 213 2275 61 
Q 1981 -91 1556 -91 
Q 1019 -91 701 211 
Q 384 513 384 1019 
Q 384 1609 779 1909 
Q 1175 2209 1959 2209 
L 2766 2209 
L 2766 2266 
Q 2766 2663 2505 2880 
Q 2244 3097 1772 3097 
Q 1472 3097 1187 3025 
Q 903 2953 641 2809 
L 641 3341 
Q 956 3463 1253 3523 
Q 1550 3584 1831 3584 
Q 2591 3584 2966 3190 
Q 3341 2797 3341 1997 
z
" transform="scale(0.015625)"/>
       <path id="DejaVuSans-6e" d="M 3513 2113 
L 3513 0 
L 2938 0 
L 2938 2094 
Q 2938 2591 2744 2837 
Q 2550 3084 2163 3084 
Q 1697 3084 1428 2787 
Q 1159 2491 1159 1978 
L 1159 0 
L 581 0 
L 581 3500 
L 1159 3500 
L 1159 2956 
Q 1366 3272 1645 3428 
Q 1925 3584 2291 3584 
Q 2894 3584 3203 3211 
Q 3513 2838 3513 2113 
z
" transform="scale(0.015625)"/>
       <path id="DejaVuSans-69" d="M 603 3500 
L 1178 3500 
L 1178 0 
L 603 0 
L 603 3500 
z
M 603 4863 
L 1178 4863 
L 1178 4134 
L 603 4134 
L 603 4863 
z
" transform="scale(0.015625)"/>
       <path id="DejaVuSans-6d" d="M 3328 2828 
Q 3544 3216 3844 3400 
Q 4144 3584 4550 3584 
Q 5097 3584 5394 3201 
Q 5691 2819 5691 2113 
L 5691 0 
L 5113 0 
L 5113 2094 
Q 5113 2597 4934 2840 
Q 4756 3084 4391 3084 
Q 3944 3084 3684 2787 
Q 3425 2491 3425 1978 
L 3425 0 
L 2847 0 
L 2847 2094 
Q 2847 2600 2669 2842 
Q 2491 3084 2119 3084 
Q 1678 3084 1418 2786 
Q 1159 2488 1159 1978 
L 1159 0 
L 581 0 
L 581 3500 
L 1159 3500 
L 1159 2956 
Q 1356 3278 1631 3431 
Q 1906 3584 2284 3584 
Q 2666 3584 2933 3390 
Q 3200 3197 3328 2828 
z
" transform="scale(0.015625)"/>
       <path id="DejaVuSans-73" d="M 2834 3397 
L 2834 2853 
Q 2591 2978 2328 3040 
Q 2066 3103 1784 3103 
Q 1356 3103 1142 2972 
Q 928 2841 928 2578 
Q 928 2378 1081 2264 
Q 1234 2150 1697 2047 
L 1894 2003 
Q 2506 1872 2764 1633 
Q 3022 1394 3022 966 
Q 3022 478 2636 193 
Q 2250 -91 1575 -91 
Q 1294 -91 989 -36 
Q 684 19 347 128 
L 347 722 
Q 666 556 975 473 
Q 1284 391 1588 391 
Q 1994 391 2212 530 
Q 2431 669 2431 922 
Q 2431 1156 2273 1281 
Q 2116 1406 1581 1522 
L 1381 1569 
Q 847 1681 609 1914 
Q 372 2147 372 2553 
Q 372 3047 722 3315 
Q 1072 3584 1716 3584 
Q 2034 3584 2315 3537 
Q 2597 3491 2834 3397 
z
" transform="scale(0.015625)"/>
       <path id="DejaVuSans-63" d="M 3122 3366 
L 3122 2828 
Q 2878 2963 2633 3030 
Q 2388 3097 2138 3097 
Q 1578 3097 1268 2742 
Q 959 2388 959 1747 
Q 959 1106 1268 751 
Q 1578 397 2138 397 
Q 2388 397 2633 464 
Q 2878 531 3122 666 
L 3122 134 
Q 2881 22 2623 -34 
Q 2366 -91 2075 -91 
Q 1284 -91 818 406 
Q 353 903 353 1747 
Q 353 2603 823 3093 
Q 1294 3584 2113 3584 
Q 2378 3584 2631 3529 
Q 2884 3475 3122 3366 
z
" transform="scale(0.015625)"/>
       <path id="DejaVuSans-72" d="M 2631 2963 
Q 2534 3019 2420 3045 
Q 2306 3072 2169 3072 
Q 1681 3072 1420 2755 
Q 1159 2438 1159 1844 
L 1159 0 
L 581 0 
L 581 3500 
L 1159 3500 
L 1159 2956 
Q 1341 3275 1631 3429 
Q 1922 3584 2338 3584 
Q 2397 3584 2469 3576 
Q 2541 3569 2628 3553 
L 2631 2963 
z
" transform="scale(0.015625)"/>
       <path id="DejaVuSans-65" d="M 3597 1894 
L 3597 1613 
L 953 1613 
Q 991 1019 1311 708 
Q 1631 397 2203 397 
Q 2534 397 2845 478 
Q 3156 559 3463 722 
L 3463 178 
Q 3153 47 2828 -22 
Q 2503 -91 2169 -91 
Q 1331 -91 842 396 
Q 353 884 353 1716 
Q 353 2575 817 3079 
Q 1281 3584 2069 3584 
Q 2775 3584 3186 3129 
Q 3597 2675 3597 1894 
z
M 3022 2063 
Q 3016 2534 2758 2815 
Q 2500 3097 2075 3097 
Q 1594 3097 1305 2825 
Q 1016 2553 972 2059 
L 3022 2063 
z
" transform="scale(0.015625)"/>
       <path id="DejaVuSans-62" d="M 3116 1747 
Q 3116 2381 2855 2742 
Q 2594 3103 2138 3103 
Q 1681 3103 1420 2742 
Q 1159 2381 1159 1747 
Q 1159 1113 1420 752 
Q 1681 391 2138 391 
Q 2594 391 2855 752 
Q 3116 1113 3116 1747 
z
M 1159 2969 
Q 1341 3281 1617 3432 
Q 1894 3584 2278 3584 
Q 2916 3584 3314 3078 
Q 3713 2572 3713 1747 
Q 3713 922 3314 415 
Q 2916 -91 2278 -91 
Q 1894 -91 1617 61 
Q 1341 213 1159 525 
L 1159 0 
L 581 0 
L 581 4863 
L 1159 4863 
L 1159 2969 
z
" transform="scale(0.015625)"/>
      </defs>
      <use xlink:href="#DejaVuSans-54"/>
      <use xlink:href="#DejaVuSans-61" x="44.583984"/>
      <use xlink:href="#DejaVuSans-6e" x="105.863281"/>
      <use xlink:href="#DejaVuSans-69" x="169.242188"/>
      <use xlink:href="#DejaVuSans-6d" x="197.025391"/>
      <use xlink:href="#DejaVuSans-6f" x="294.4375"/>
      <use xlink:href="#DejaVuSans-74" x="355.619141"/>
      <use xlink:href="#DejaVuSans-6f" x="394.828125"/>
      <use xlink:href="#DejaVuSans-20" x="456.009766"/>
      <use xlink:href="#DejaVuSans-73" x="487.796875"/>
      <use xlink:href="#DejaVuSans-63" x="539.896484"/>
      <use xlink:href="#DejaVuSans-6f" x="594.876953"/>
      <use xlink:href="#DejaVuSans-72" x="656.058594"/>
      <use xlink:href="#DejaVuSans-65" x="694.921875"/>
      <use xlink:href="#DejaVuSans-20" x="756.445312"/>
      <use xlink:href="#DejaVuSans-62" x="788.232422"/>
      <use xlink:href="#DejaVuSans-69" x="851.708984"/>
      <use xlink:href="#DejaVuSans-6e" x="879.492188"/>
     </g>
    </g>
   </g>
   <g id="matplotlib.axis_2">
    <g id="ytick_1">
     <g id="line2d_21">
      <path d="M 50.14375 176.672765 
L 417.32375 176.672765 
" clip-path="url(#p5e18a37653)" style="fill: none; stroke: #b0b0b0; stroke-width: 0.8; stroke-linecap: square"/>
     </g>
     <g id="line2d_22">
      <defs>
       <path id="m121bfc42f5" d="M 0 0 
L -3.5 0 
" style="stroke: #000000; stroke-width: 0.8"/>
      </defs>
      <g>
       <use xlink:href="#m121bfc42f5" x="50.14375" y="176.672765" style="stroke: #000000; stroke-width: 0.8"/>
      </g>
     </g>
     <g id="text_12">
      <!-- 0.02 -->
      <g transform="translate(20.878125 180.471984) scale(0.1 -0.1)">
       <use xlink:href="#DejaVuSans-30"/>
       <use xlink:href="#DejaVuSans-2e" x="63.623047"/>
       <use xlink:href="#DejaVuSans-30" x="95.410156"/>
       <use xlink:href="#DejaVuSans-32" x="159.033203"/>
      </g>
     </g>
    </g>
    <g id="ytick_2">
     <g id="line2d_23">
      <path d="M 50.14375 145.027993 
L 417.32375 145.027993 
" clip-path="url(#p5e18a37653)" style="fill: none; stroke: #b0b0b0; stroke-width: 0.8; stroke-linecap: square"/>
     </g>
     <g id="line2d_24">
      <g>
       <use xlink:href="#m121bfc42f5" x="50.14375" y="145.027993" style="stroke: #000000; stroke-width: 0.8"/>
      </g>
     </g>
     <g id="text_13">
      <!-- 0.03 -->
      <g transform="translate(20.878125 148.827211) scale(0.1 -0.1)">
       <use xlink:href="#DejaVuSans-30"/>
       <use xlink:href="#DejaVuSans-2e" x="63.623047"/>
       <use xlink:href="#DejaVuSans-30" x="95.410156"/>
       <use xlink:href="#DejaVuSans-33" x="159.033203"/>
      </g>
     </g>
    </g>
    <g id="ytick_3">
     <g id="line2d_25">
      <path d="M 50.14375 113.38322 
L 417.32375 113.38322 
" clip-path="url(#p5e18a37653)" style="fill: none; stroke: #b0b0b0; stroke-width: 0.8; stroke-linecap: square"/>
     </g>
     <g id="line2d_26">
      <g>
       <use xlink:href="#m121bfc42f5" x="50.14375" y="113.38322" style="stroke: #000000; stroke-width: 0.8"/>
      </g>
     </g>
     <g id="text_14">
      <!-- 0.04 -->
      <g transform="translate(20.878125 117.182439) scale(0.1 -0.1)">
       <use xlink:href="#DejaVuSans-30"/>
       <use xlink:href="#DejaVuSans-2e" x="63.623047"/>
       <use xlink:href="#DejaVuSans-30" x="95.410156"/>
       <use xlink:href="#DejaVuSans-34" x="159.033203"/>
      </g>
     </g>
    </g>
    <g id="ytick_4">
     <g id="line2d_27">
      <path d="M 50.14375 81.738447 
L 417.32375 81.738447 
" clip-path="url(#p5e18a37653)" style="fill: none; stroke: #b0b0b0; stroke-width: 0.8; stroke-linecap: square"/>
     </g>
     <g id="line2d_28">
      <g>
       <use xlink:href="#m121bfc42f5" x="50.14375" y="81.738447" style="stroke: #000000; stroke-width: 0.8"/>
      </g>
     </g>
     <g id="text_15">
      <!-- 0.05 -->
      <g transform="translate(20.878125 85.537666) scale(0.1 -0.1)">
       <use xlink:href="#DejaVuSans-30"/>
       <use xlink:href="#DejaVuSans-2e" x="63.623047"/>
       <use xlink:href="#DejaVuSans-30" x="95.410156"/>
       <use xlink:href="#DejaVuSans-35" x="159.033203"/>
      </g>
     </g>
    </g>
    <g id="ytick_5">
     <g id="line2d_29">
      <path d="M 50.14375 50.093674 
L 417.32375 50.093674 
" clip-path="url(#p5e18a37653)" style="fill: none; stroke: #b0b0b0; stroke-width: 0.8; stroke-linecap: square"/>
     </g>
     <g id="line2d_30">
      <g>
       <use xlink:href="#m121bfc42f5" x="50.14375" y="50.093674" style="stroke: #000000; stroke-width: 0.8"/>
      </g>
     </g>
     <g id="text_16">
      <!-- 0.06 -->
      <g transform="translate(20.878125 53.892893) scale(0.1 -0.1)">
       <use xlink:href="#DejaVuSans-30"/>
       <use xlink:href="#DejaVuSans-2e" x="63.623047"/>
       <use xlink:href="#DejaVuSans-30" x="95.410156"/>
       <use xlink:href="#DejaVuSans-36" x="159.033203"/>
      </g>
     </g>
    </g>
    <g id="ytick_6">
     <g id="line2d_31">
      <path d="M 50.14375 18.448901 
L 417.32375 18.448901 
" clip-path="url(#p5e18a37653)" style="fill: none; stroke: #b0b0b0; stroke-width: 0.8; stroke-linecap: square"/>
     </g>
     <g id="line2d_32">
      <g>
       <use xlink:href="#m121bfc42f5" x="50.14375" y="18.448901" style="stroke: #000000; stroke-width: 0.8"/>
      </g>
     </g>
     <g id="text_17">
      <!-- 0.07 -->
      <g transform="translate(20.878125 22.24812) scale(0.1 -0.1)">
       <use xlink:href="#DejaVuSans-30"/>
       <use xlink:href="#DejaVuSans-2e" x="63.623047"/>
       <use xlink:href="#DejaVuSans-30" x="95.410156"/>
       <use xlink:href="#DejaVuSans-37" x="159.033203"/>
      </g>
     </g>
    </g>
    <g id="text_18">
     <!-- MSE -->
     <g transform="translate(14.798438 111.932656) rotate(-90) scale(0.1 -0.1)">
      <defs>
       <path id="DejaVuSans-4d" d="M 628 4666 
L 1569 4666 
L 2759 1491 
L 3956 4666 
L 4897 4666 
L 4897 0 
L 4281 0 
L 4281 4097 
L 3078 897 
L 2444 897 
L 1241 4097 
L 1241 0 
L 628 0 
L 628 4666 
z
" transform="scale(0.015625)"/>
       <path id="DejaVuSans-53" d="M 3425 4513 
L 3425 3897 
Q 3066 4069 2747 4153 
Q 2428 4238 2131 4238 
Q 1616 4238 1336 4038 
Q 1056 3838 1056 3469 
Q 1056 3159 1242 3001 
Q 1428 2844 1947 2747 
L 2328 2669 
Q 3034 2534 3370 2195 
Q 3706 1856 3706 1288 
Q 3706 609 3251 259 
Q 2797 -91 1919 -91 
Q 1588 -91 1214 -16 
Q 841 59 441 206 
L 441 856 
Q 825 641 1194 531 
Q 1563 422 1919 422 
Q 2459 422 2753 634 
Q 3047 847 3047 1241 
Q 3047 1584 2836 1778 
Q 2625 1972 2144 2069 
L 1759 2144 
Q 1053 2284 737 2584 
Q 422 2884 422 3419 
Q 422 4038 858 4394 
Q 1294 4750 2059 4750 
Q 2388 4750 2728 4690 
Q 3069 4631 3425 4513 
z
" transform="scale(0.015625)"/>
       <path id="DejaVuSans-45" d="M 628 4666 
L 3578 4666 
L 3578 4134 
L 1259 4134 
L 1259 2753 
L 3481 2753 
L 3481 2222 
L 1259 2222 
L 1259 531 
L 3634 531 
L 3634 0 
L 628 0 
L 628 4666 
z
" transform="scale(0.015625)"/>
      </defs>
      <use xlink:href="#DejaVuSans-4d"/>
      <use xlink:href="#DejaVuSans-53" x="86.279297"/>
      <use xlink:href="#DejaVuSans-45" x="149.755859"/>
     </g>
    </g>
   </g>
   <g id="line2d_33">
    <path d="M 66.83375 116.299672 
L 103.922639 119.370257 
L 141.011528 134.411214 
L 178.100417 160.949655 
L 215.189306 173.101057 
L 252.278194 170.565803 
L 289.367083 165.321391 
L 326.455972 150.976144 
L 363.544861 102.413903 
L 400.63375 15.753182 
" clip-path="url(#p5e18a37653)" style="fill: none; stroke-dasharray: 1.5,2.475; stroke-dashoffset: 0; stroke: #414487; stroke-width: 1.5"/>
    <defs>
     <path id="mb0c5afc3d6" d="M 0 3 
C 0.795609 3 1.55874 2.683901 2.12132 2.12132 
C 2.683901 1.55874 3 0.795609 3 0 
C 3 -0.795609 2.683901 -1.55874 2.12132 -2.12132 
C 1.55874 -2.683901 0.795609 -3 0 -3 
C -0.795609 -3 -1.55874 -2.683901 -2.12132 -2.12132 
C -2.683901 -1.55874 -3 -0.795609 -3 0 
C -3 0.795609 -2.683901 1.55874 -2.12132 2.12132 
C -1.55874 2.683901 -0.795609 3 0 3 
z
" style="stroke: #414487"/>
    </defs>
    <g clip-path="url(#p5e18a37653)">
     <use xlink:href="#mb0c5afc3d6" x="66.83375" y="116.299672" style="fill: #414487; stroke: #414487"/>
     <use xlink:href="#mb0c5afc3d6" x="103.922639" y="119.370257" style="fill: #414487; stroke: #414487"/>
     <use xlink:href="#mb0c5afc3d6" x="141.011528" y="134.411214" style="fill: #414487; stroke: #414487"/>
     <use xlink:href="#mb0c5afc3d6" x="178.100417" y="160.949655" style="fill: #414487; stroke: #414487"/>
     <use xlink:href="#mb0c5afc3d6" x="215.189306" y="173.101057" style="fill: #414487; stroke: #414487"/>
     <use xlink:href="#mb0c5afc3d6" x="252.278194" y="170.565803" style="fill: #414487; stroke: #414487"/>
     <use xlink:href="#mb0c5afc3d6" x="289.367083" y="165.321391" style="fill: #414487; stroke: #414487"/>
     <use xlink:href="#mb0c5afc3d6" x="326.455972" y="150.976144" style="fill: #414487; stroke: #414487"/>
     <use xlink:href="#mb0c5afc3d6" x="363.544861" y="102.413903" style="fill: #414487; stroke: #414487"/>
     <use xlink:href="#mb0c5afc3d6" x="400.63375" y="15.753182" style="fill: #414487; stroke: #414487"/>
    </g>
   </g>
   <g id="line2d_34">
    <path d="M 66.83375 130.280568 
L 103.922639 124.906777 
L 141.011528 136.902401 
L 178.100417 162.265512 
L 215.189306 172.622945 
L 252.278194 169.157629 
L 289.367083 166.063033 
L 326.455972 153.482934 
L 363.544861 106.014095 
L 400.63375 21.958241 
" clip-path="url(#p5e18a37653)" style="fill: none; stroke-dasharray: 1.5,2.475; stroke-dashoffset: 0; stroke: #2a788e; stroke-width: 1.5"/>
    <defs>
     <path id="m6bdb39140c" d="M 0 3 
C 0.795609 3 1.55874 2.683901 2.12132 2.12132 
C 2.683901 1.55874 3 0.795609 3 0 
C 3 -0.795609 2.683901 -1.55874 2.12132 -2.12132 
C 1.55874 -2.683901 0.795609 -3 0 -3 
C -0.795609 -3 -1.55874 -2.683901 -2.12132 -2.12132 
C -2.683901 -1.55874 -3 -0.795609 -3 0 
C -3 0.795609 -2.683901 1.55874 -2.12132 2.12132 
C -1.55874 2.683901 -0.795609 3 0 3 
z
" style="stroke: #2a788e"/>
    </defs>
    <g clip-path="url(#p5e18a37653)">
     <use xlink:href="#m6bdb39140c" x="66.83375" y="130.280568" style="fill: #2a788e; stroke: #2a788e"/>
     <use xlink:href="#m6bdb39140c" x="103.922639" y="124.906777" style="fill: #2a788e; stroke: #2a788e"/>
     <use xlink:href="#m6bdb39140c" x="141.011528" y="136.902401" style="fill: #2a788e; stroke: #2a788e"/>
     <use xlink:href="#m6bdb39140c" x="178.100417" y="162.265512" style="fill: #2a788e; stroke: #2a788e"/>
     <use xlink:href="#m6bdb39140c" x="215.189306" y="172.622945" style="fill: #2a788e; stroke: #2a788e"/>
     <use xlink:href="#m6bdb39140c" x="252.278194" y="169.157629" style="fill: #2a788e; stroke: #2a788e"/>
     <use xlink:href="#m6bdb39140c" x="289.367083" y="166.063033" style="fill: #2a788e; stroke: #2a788e"/>
     <use xlink:href="#m6bdb39140c" x="326.455972" y="153.482934" style="fill: #2a788e; stroke: #2a788e"/>
     <use xlink:href="#m6bdb39140c" x="363.544861" y="106.014095" style="fill: #2a788e; stroke: #2a788e"/>
     <use xlink:href="#m6bdb39140c" x="400.63375" y="21.958241" style="fill: #2a788e; stroke: #2a788e"/>
    </g>
   </g>
   <g id="line2d_35">
    <path d="M 66.83375 148.556512 
L 103.922639 131.30717 
L 141.011528 141.035587 
L 178.100417 165.368585 
L 215.189306 170.670861 
L 252.278194 164.821359 
L 289.367083 165.755626 
L 326.455972 158.251879 
L 363.544861 113.328896 
L 400.63375 36.807388 
" clip-path="url(#p5e18a37653)" style="fill: none; stroke-dasharray: 1.5,2.475; stroke-dashoffset: 0; stroke: #22a884; stroke-width: 1.5"/>
    <defs>
     <path id="m400d8fc3ad" d="M 0 3 
C 0.795609 3 1.55874 2.683901 2.12132 2.12132 
C 2.683901 1.55874 3 0.795609 3 0 
C 3 -0.795609 2.683901 -1.55874 2.12132 -2.12132 
C 1.55874 -2.683901 0.795609 -3 0 -3 
C -0.795609 -3 -1.55874 -2.683901 -2.12132 -2.12132 
C -2.683901 -1.55874 -3 -0.795609 -3 0 
C -3 0.795609 -2.683901 1.55874 -2.12132 2.12132 
C -1.55874 2.683901 -0.795609 3 0 3 
z
" style="stroke: #22a884"/>
    </defs>
    <g clip-path="url(#p5e18a37653)">
     <use xlink:href="#m400d8fc3ad" x="66.83375" y="148.556512" style="fill: #22a884; stroke: #22a884"/>
     <use xlink:href="#m400d8fc3ad" x="103.922639" y="131.30717" style="fill: #22a884; stroke: #22a884"/>
     <use xlink:href="#m400d8fc3ad" x="141.011528" y="141.035587" style="fill: #22a884; stroke: #22a884"/>
     <use xlink:href="#m400d8fc3ad" x="178.100417" y="165.368585" style="fill: #22a884; stroke: #22a884"/>
     <use xlink:href="#m400d8fc3ad" x="215.189306" y="170.670861" style="fill: #22a884; stroke: #22a884"/>
     <use xlink:href="#m400d8fc3ad" x="252.278194" y="164.821359" style="fill: #22a884; stroke: #22a884"/>
     <use xlink:href="#m400d8fc3ad" x="289.367083" y="165.755626" style="fill: #22a884; stroke: #22a884"/>
     <use xlink:href="#m400d8fc3ad" x="326.455972" y="158.251879" style="fill: #22a884; stroke: #22a884"/>
     <use xlink:href="#m400d8fc3ad" x="363.544861" y="113.328896" style="fill: #22a884; stroke: #22a884"/>
     <use xlink:href="#m400d8fc3ad" x="400.63375" y="36.807388" style="fill: #22a884; stroke: #22a884"/>
    </g>
   </g>
   <g id="line2d_36">
    <path d="M 66.83375 166.434264 
L 103.922639 137.695442 
L 141.011528 145.554627 
L 178.100417 168.40678 
L 215.189306 170.12801 
L 252.278194 165.486396 
L 289.367083 167.865106 
L 326.455972 163.99329 
L 363.544861 122.299729 
L 400.63375 59.335503 
" clip-path="url(#p5e18a37653)" style="fill: none; stroke-dasharray: 1.5,2.475; stroke-dashoffset: 0; stroke: #7ad151; stroke-width: 1.5"/>
    <defs>
     <path id="m82225705e6" d="M 0 3 
C 0.795609 3 1.55874 2.683901 2.12132 2.12132 
C 2.683901 1.55874 3 0.795609 3 0 
C 3 -0.795609 2.683901 -1.55874 2.12132 -2.12132 
C 1.55874 -2.683901 0.795609 -3 0 -3 
C -0.795609 -3 -1.55874 -2.683901 -2.12132 -2.12132 
C -2.683901 -1.55874 -3 -0.795609 -3 0 
C -3 0.795609 -2.683901 1.55874 -2.12132 2.12132 
C -1.55874 2.683901 -0.795609 3 0 3 
z
" style="stroke: #7ad151"/>
    </defs>
    <g clip-path="url(#p5e18a37653)">
     <use xlink:href="#m82225705e6" x="66.83375" y="166.434264" style="fill: #7ad151; stroke: #7ad151"/>
     <use xlink:href="#m82225705e6" x="103.922639" y="137.695442" style="fill: #7ad151; stroke: #7ad151"/>
     <use xlink:href="#m82225705e6" x="141.011528" y="145.554627" style="fill: #7ad151; stroke: #7ad151"/>
     <use xlink:href="#m82225705e6" x="178.100417" y="168.40678" style="fill: #7ad151; stroke: #7ad151"/>
     <use xlink:href="#m82225705e6" x="215.189306" y="170.12801" style="fill: #7ad151; stroke: #7ad151"/>
     <use xlink:href="#m82225705e6" x="252.278194" y="165.486396" style="fill: #7ad151; stroke: #7ad151"/>
     <use xlink:href="#m82225705e6" x="289.367083" y="167.865106" style="fill: #7ad151; stroke: #7ad151"/>
     <use xlink:href="#m82225705e6" x="326.455972" y="163.99329" style="fill: #7ad151; stroke: #7ad151"/>
     <use xlink:href="#m82225705e6" x="363.544861" y="122.299729" style="fill: #7ad151; stroke: #7ad151"/>
     <use xlink:href="#m82225705e6" x="400.63375" y="59.335503" style="fill: #7ad151; stroke: #7ad151"/>
    </g>
   </g>
   <g id="line2d_37">
    <path d="M 66.83375 186.816818 
L 103.922639 151.206703 
L 141.011528 153.974627 
L 178.100417 171.313646 
L 215.189306 169.250508 
L 252.278194 162.902274 
L 289.367083 164.592165 
L 326.455972 168.492691 
L 363.544861 137.476757 
L 400.63375 102.542392 
" clip-path="url(#p5e18a37653)" style="fill: none; stroke-dasharray: 1.5,2.475; stroke-dashoffset: 0; stroke: #fde725; stroke-width: 1.5"/>
    <defs>
     <path id="m0da79d6378" d="M 0 3 
C 0.795609 3 1.55874 2.683901 2.12132 2.12132 
C 2.683901 1.55874 3 0.795609 3 0 
C 3 -0.795609 2.683901 -1.55874 2.12132 -2.12132 
C 1.55874 -2.683901 0.795609 -3 0 -3 
C -0.795609 -3 -1.55874 -2.683901 -2.12132 -2.12132 
C -2.683901 -1.55874 -3 -0.795609 -3 0 
C -3 0.795609 -2.683901 1.55874 -2.12132 2.12132 
C -1.55874 2.683901 -0.795609 3 0 3 
z
" style="stroke: #fde725"/>
    </defs>
    <g clip-path="url(#p5e18a37653)">
     <use xlink:href="#m0da79d6378" x="66.83375" y="186.816818" style="fill: #fde725; stroke: #fde725"/>
     <use xlink:href="#m0da79d6378" x="103.922639" y="151.206703" style="fill: #fde725; stroke: #fde725"/>
     <use xlink:href="#m0da79d6378" x="141.011528" y="153.974627" style="fill: #fde725; stroke: #fde725"/>
     <use xlink:href="#m0da79d6378" x="178.100417" y="171.313646" style="fill: #fde725; stroke: #fde725"/>
     <use xlink:href="#m0da79d6378" x="215.189306" y="169.250508" style="fill: #fde725; stroke: #fde725"/>
     <use xlink:href="#m0da79d6378" x="252.278194" y="162.902274" style="fill: #fde725; stroke: #fde725"/>
     <use xlink:href="#m0da79d6378" x="289.367083" y="164.592165" style="fill: #fde725; stroke: #fde725"/>
     <use xlink:href="#m0da79d6378" x="326.455972" y="168.492691" style="fill: #fde725; stroke: #fde725"/>
     <use xlink:href="#m0da79d6378" x="363.544861" y="137.476757" style="fill: #fde725; stroke: #fde725"/>
     <use xlink:href="#m0da79d6378" x="400.63375" y="102.542392" style="fill: #fde725; stroke: #fde725"/>
    </g>
   </g>
   <g id="patch_3">
    <path d="M 50.14375 195.37 
L 50.14375 7.2 
" style="fill: none; stroke: #000000; stroke-width: 0.8; stroke-linejoin: miter; stroke-linecap: square"/>
   </g>
   <g id="patch_4">
    <path d="M 417.32375 195.37 
L 417.32375 7.2 
" style="fill: none; stroke: #000000; stroke-width: 0.8; stroke-linejoin: miter; stroke-linecap: square"/>
   </g>
   <g id="patch_5">
    <path d="M 50.14375 195.37 
L 417.32375 195.37 
" style="fill: none; stroke: #000000; stroke-width: 0.8; stroke-linejoin: miter; stroke-linecap: square"/>
   </g>
   <g id="patch_6">
    <path d="M 50.14375 7.2 
L 417.32375 7.2 
" style="fill: none; stroke: #000000; stroke-width: 0.8; stroke-linejoin: miter; stroke-linecap: square"/>
   </g>
   <g id="legend_1">
    <g id="patch_7">
     <path d="M 57.14375 103.26875 
L 240.545313 103.26875 
Q 242.545313 103.26875 242.545313 101.26875 
L 242.545313 14.2 
Q 242.545313 12.2 240.545313 12.2 
L 57.14375 12.2 
Q 55.14375 12.2 55.14375 14.2 
L 55.14375 101.26875 
Q 55.14375 103.26875 57.14375 103.26875 
z
" style="fill: #ffffff; opacity: 0.8; stroke: #cccccc; stroke-linejoin: miter"/>
    </g>
    <g id="text_19">
     <!-- Threshold (Remaining % of spectra) -->
     <g transform="translate(59.14375 23.798437) scale(0.1 -0.1)">
      <defs>
       <path id="DejaVuSans-68" d="M 3513 2113 
L 3513 0 
L 2938 0 
L 2938 2094 
Q 2938 2591 2744 2837 
Q 2550 3084 2163 3084 
Q 1697 3084 1428 2787 
Q 1159 2491 1159 1978 
L 1159 0 
L 581 0 
L 581 4863 
L 1159 4863 
L 1159 2956 
Q 1366 3272 1645 3428 
Q 1925 3584 2291 3584 
Q 2894 3584 3203 3211 
Q 3513 2838 3513 2113 
z
" transform="scale(0.015625)"/>
       <path id="DejaVuSans-6c" d="M 603 4863 
L 1178 4863 
L 1178 0 
L 603 0 
L 603 4863 
z
" transform="scale(0.015625)"/>
       <path id="DejaVuSans-64" d="M 2906 2969 
L 2906 4863 
L 3481 4863 
L 3481 0 
L 2906 0 
L 2906 525 
Q 2725 213 2448 61 
Q 2172 -91 1784 -91 
Q 1150 -91 751 415 
Q 353 922 353 1747 
Q 353 2572 751 3078 
Q 1150 3584 1784 3584 
Q 2172 3584 2448 3432 
Q 2725 3281 2906 2969 
z
M 947 1747 
Q 947 1113 1208 752 
Q 1469 391 1925 391 
Q 2381 391 2643 752 
Q 2906 1113 2906 1747 
Q 2906 2381 2643 2742 
Q 2381 3103 1925 3103 
Q 1469 3103 1208 2742 
Q 947 2381 947 1747 
z
" transform="scale(0.015625)"/>
       <path id="DejaVuSans-28" d="M 1984 4856 
Q 1566 4138 1362 3434 
Q 1159 2731 1159 2009 
Q 1159 1288 1364 580 
Q 1569 -128 1984 -844 
L 1484 -844 
Q 1016 -109 783 600 
Q 550 1309 550 2009 
Q 550 2706 781 3412 
Q 1013 4119 1484 4856 
L 1984 4856 
z
" transform="scale(0.015625)"/>
       <path id="DejaVuSans-52" d="M 2841 2188 
Q 3044 2119 3236 1894 
Q 3428 1669 3622 1275 
L 4263 0 
L 3584 0 
L 2988 1197 
Q 2756 1666 2539 1819 
Q 2322 1972 1947 1972 
L 1259 1972 
L 1259 0 
L 628 0 
L 628 4666 
L 2053 4666 
Q 2853 4666 3247 4331 
Q 3641 3997 3641 3322 
Q 3641 2881 3436 2590 
Q 3231 2300 2841 2188 
z
M 1259 4147 
L 1259 2491 
L 2053 2491 
Q 2509 2491 2742 2702 
Q 2975 2913 2975 3322 
Q 2975 3731 2742 3939 
Q 2509 4147 2053 4147 
L 1259 4147 
z
" transform="scale(0.015625)"/>
       <path id="DejaVuSans-67" d="M 2906 1791 
Q 2906 2416 2648 2759 
Q 2391 3103 1925 3103 
Q 1463 3103 1205 2759 
Q 947 2416 947 1791 
Q 947 1169 1205 825 
Q 1463 481 1925 481 
Q 2391 481 2648 825 
Q 2906 1169 2906 1791 
z
M 3481 434 
Q 3481 -459 3084 -895 
Q 2688 -1331 1869 -1331 
Q 1566 -1331 1297 -1286 
Q 1028 -1241 775 -1147 
L 775 -588 
Q 1028 -725 1275 -790 
Q 1522 -856 1778 -856 
Q 2344 -856 2625 -561 
Q 2906 -266 2906 331 
L 2906 616 
Q 2728 306 2450 153 
Q 2172 0 1784 0 
Q 1141 0 747 490 
Q 353 981 353 1791 
Q 353 2603 747 3093 
Q 1141 3584 1784 3584 
Q 2172 3584 2450 3431 
Q 2728 3278 2906 2969 
L 2906 3500 
L 3481 3500 
L 3481 434 
z
" transform="scale(0.015625)"/>
       <path id="DejaVuSans-25" d="M 4653 2053 
Q 4381 2053 4226 1822 
Q 4072 1591 4072 1178 
Q 4072 772 4226 539 
Q 4381 306 4653 306 
Q 4919 306 5073 539 
Q 5228 772 5228 1178 
Q 5228 1588 5073 1820 
Q 4919 2053 4653 2053 
z
M 4653 2450 
Q 5147 2450 5437 2106 
Q 5728 1763 5728 1178 
Q 5728 594 5436 251 
Q 5144 -91 4653 -91 
Q 4153 -91 3862 251 
Q 3572 594 3572 1178 
Q 3572 1766 3864 2108 
Q 4156 2450 4653 2450 
z
M 1428 4353 
Q 1159 4353 1004 4120 
Q 850 3888 850 3481 
Q 850 3069 1003 2837 
Q 1156 2606 1428 2606 
Q 1700 2606 1854 2837 
Q 2009 3069 2009 3481 
Q 2009 3884 1853 4118 
Q 1697 4353 1428 4353 
z
M 4250 4750 
L 4750 4750 
L 1831 -91 
L 1331 -91 
L 4250 4750 
z
M 1428 4750 
Q 1922 4750 2215 4408 
Q 2509 4066 2509 3481 
Q 2509 2891 2217 2550 
Q 1925 2209 1428 2209 
Q 931 2209 642 2551 
Q 353 2894 353 3481 
Q 353 4063 643 4406 
Q 934 4750 1428 4750 
z
" transform="scale(0.015625)"/>
       <path id="DejaVuSans-66" d="M 2375 4863 
L 2375 4384 
L 1825 4384 
Q 1516 4384 1395 4259 
Q 1275 4134 1275 3809 
L 1275 3500 
L 2222 3500 
L 2222 3053 
L 1275 3053 
L 1275 0 
L 697 0 
L 697 3053 
L 147 3053 
L 147 3500 
L 697 3500 
L 697 3744 
Q 697 4328 969 4595 
Q 1241 4863 1831 4863 
L 2375 4863 
z
" transform="scale(0.015625)"/>
       <path id="DejaVuSans-70" d="M 1159 525 
L 1159 -1331 
L 581 -1331 
L 581 3500 
L 1159 3500 
L 1159 2969 
Q 1341 3281 1617 3432 
Q 1894 3584 2278 3584 
Q 2916 3584 3314 3078 
Q 3713 2572 3713 1747 
Q 3713 922 3314 415 
Q 2916 -91 2278 -91 
Q 1894 -91 1617 61 
Q 1341 213 1159 525 
z
M 3116 1747 
Q 3116 2381 2855 2742 
Q 2594 3103 2138 3103 
Q 1681 3103 1420 2742 
Q 1159 2381 1159 1747 
Q 1159 1113 1420 752 
Q 1681 391 2138 391 
Q 2594 391 2855 752 
Q 3116 1113 3116 1747 
z
" transform="scale(0.015625)"/>
       <path id="DejaVuSans-29" d="M 513 4856 
L 1013 4856 
Q 1481 4119 1714 3412 
Q 1947 2706 1947 2009 
Q 1947 1309 1714 600 
Q 1481 -109 1013 -844 
L 513 -844 
Q 928 -128 1133 580 
Q 1338 1288 1338 2009 
Q 1338 2731 1133 3434 
Q 928 4138 513 4856 
z
" transform="scale(0.015625)"/>
      </defs>
      <use xlink:href="#DejaVuSans-54"/>
      <use xlink:href="#DejaVuSans-68" x="61.083984"/>
      <use xlink:href="#DejaVuSans-72" x="124.462891"/>
      <use xlink:href="#DejaVuSans-65" x="163.326172"/>
      <use xlink:href="#DejaVuSans-73" x="224.849609"/>
      <use xlink:href="#DejaVuSans-68" x="276.949219"/>
      <use xlink:href="#DejaVuSans-6f" x="340.328125"/>
      <use xlink:href="#DejaVuSans-6c" x="401.509766"/>
      <use xlink:href="#DejaVuSans-64" x="429.292969"/>
      <use xlink:href="#DejaVuSans-20" x="492.769531"/>
      <use xlink:href="#DejaVuSans-28" x="524.556641"/>
      <use xlink:href="#DejaVuSans-52" x="563.570312"/>
      <use xlink:href="#DejaVuSans-65" x="628.552734"/>
      <use xlink:href="#DejaVuSans-6d" x="690.076172"/>
      <use xlink:href="#DejaVuSans-61" x="787.488281"/>
      <use xlink:href="#DejaVuSans-69" x="848.767578"/>
      <use xlink:href="#DejaVuSans-6e" x="876.550781"/>
      <use xlink:href="#DejaVuSans-69" x="939.929688"/>
      <use xlink:href="#DejaVuSans-6e" x="967.712891"/>
      <use xlink:href="#DejaVuSans-67" x="1031.091797"/>
      <use xlink:href="#DejaVuSans-20" x="1094.568359"/>
      <use xlink:href="#DejaVuSans-25" x="1126.355469"/>
      <use xlink:href="#DejaVuSans-20" x="1221.375"/>
      <use xlink:href="#DejaVuSans-6f" x="1253.162109"/>
      <use xlink:href="#DejaVuSans-66" x="1314.34375"/>
      <use xlink:href="#DejaVuSans-20" x="1349.548828"/>
      <use xlink:href="#DejaVuSans-73" x="1381.335938"/>
      <use xlink:href="#DejaVuSans-70" x="1433.435547"/>
      <use xlink:href="#DejaVuSans-65" x="1496.912109"/>
      <use xlink:href="#DejaVuSans-63" x="1558.435547"/>
      <use xlink:href="#DejaVuSans-74" x="1613.416016"/>
      <use xlink:href="#DejaVuSans-72" x="1652.625"/>
      <use xlink:href="#DejaVuSans-61" x="1693.738281"/>
      <use xlink:href="#DejaVuSans-29" x="1755.017578"/>
     </g>
    </g>
    <g id="line2d_38">
     <path d="M 87.307813 34.976562 
L 97.307813 34.976562 
L 107.307813 34.976562 
" style="fill: none; stroke-dasharray: 1.5,2.475; stroke-dashoffset: 0; stroke: #414487; stroke-width: 1.5"/>
     <g>
      <use xlink:href="#mb0c5afc3d6" x="97.307813" y="34.976562" style="fill: #414487; stroke: #414487"/>
     </g>
    </g>
    <g id="text_20">
     <!-- No filtering (100%) -->
     <g transform="translate(115.307813 38.476562) scale(0.1 -0.1)">
      <defs>
       <path id="DejaVuSans-4e" d="M 628 4666 
L 1478 4666 
L 3547 763 
L 3547 4666 
L 4159 4666 
L 4159 0 
L 3309 0 
L 1241 3903 
L 1241 0 
L 628 0 
L 628 4666 
z
" transform="scale(0.015625)"/>
      </defs>
      <use xlink:href="#DejaVuSans-4e"/>
      <use xlink:href="#DejaVuSans-6f" x="74.804688"/>
      <use xlink:href="#DejaVuSans-20" x="135.986328"/>
      <use xlink:href="#DejaVuSans-66" x="167.773438"/>
      <use xlink:href="#DejaVuSans-69" x="202.978516"/>
      <use xlink:href="#DejaVuSans-6c" x="230.761719"/>
      <use xlink:href="#DejaVuSans-74" x="258.544922"/>
      <use xlink:href="#DejaVuSans-65" x="297.753906"/>
      <use xlink:href="#DejaVuSans-72" x="359.277344"/>
      <use xlink:href="#DejaVuSans-69" x="400.390625"/>
      <use xlink:href="#DejaVuSans-6e" x="428.173828"/>
      <use xlink:href="#DejaVuSans-67" x="491.552734"/>
      <use xlink:href="#DejaVuSans-20" x="555.029297"/>
      <use xlink:href="#DejaVuSans-28" x="586.816406"/>
      <use xlink:href="#DejaVuSans-31" x="625.830078"/>
      <use xlink:href="#DejaVuSans-30" x="689.453125"/>
      <use xlink:href="#DejaVuSans-30" x="753.076172"/>
      <use xlink:href="#DejaVuSans-25" x="816.699219"/>
      <use xlink:href="#DejaVuSans-29" x="911.71875"/>
     </g>
    </g>
    <g id="line2d_39">
     <path d="M 87.307813 49.654687 
L 97.307813 49.654687 
L 107.307813 49.654687 
" style="fill: none; stroke-dasharray: 1.5,2.475; stroke-dashoffset: 0; stroke: #2a788e; stroke-width: 1.5"/>
     <g>
      <use xlink:href="#m6bdb39140c" x="97.307813" y="49.654687" style="fill: #2a788e; stroke: #2a788e"/>
     </g>
    </g>
    <g id="text_21">
     <!-- 0.060 (80%) -->
     <g transform="translate(115.307813 53.154687) scale(0.1 -0.1)">
      <use xlink:href="#DejaVuSans-30"/>
      <use xlink:href="#DejaVuSans-2e" x="63.623047"/>
      <use xlink:href="#DejaVuSans-30" x="95.410156"/>
      <use xlink:href="#DejaVuSans-36" x="159.033203"/>
      <use xlink:href="#DejaVuSans-30" x="222.65625"/>
      <use xlink:href="#DejaVuSans-20" x="286.279297"/>
      <use xlink:href="#DejaVuSans-28" x="318.066406"/>
      <use xlink:href="#DejaVuSans-38" x="357.080078"/>
      <use xlink:href="#DejaVuSans-30" x="420.703125"/>
      <use xlink:href="#DejaVuSans-25" x="484.326172"/>
      <use xlink:href="#DejaVuSans-29" x="579.345703"/>
     </g>
    </g>
    <g id="line2d_40">
     <path d="M 87.307813 64.332812 
L 97.307813 64.332812 
L 107.307813 64.332812 
" style="fill: none; stroke-dasharray: 1.5,2.475; stroke-dashoffset: 0; stroke: #22a884; stroke-width: 1.5"/>
     <g>
      <use xlink:href="#m400d8fc3ad" x="97.307813" y="64.332812" style="fill: #22a884; stroke: #22a884"/>
     </g>
    </g>
    <g id="text_22">
     <!-- 0.047 (60%) -->
     <g transform="translate(115.307813 67.832812) scale(0.1 -0.1)">
      <use xlink:href="#DejaVuSans-30"/>
      <use xlink:href="#DejaVuSans-2e" x="63.623047"/>
      <use xlink:href="#DejaVuSans-30" x="95.410156"/>
      <use xlink:href="#DejaVuSans-34" x="159.033203"/>
      <use xlink:href="#DejaVuSans-37" x="222.65625"/>
      <use xlink:href="#DejaVuSans-20" x="286.279297"/>
      <use xlink:href="#DejaVuSans-28" x="318.066406"/>
      <use xlink:href="#DejaVuSans-36" x="357.080078"/>
      <use xlink:href="#DejaVuSans-30" x="420.703125"/>
      <use xlink:href="#DejaVuSans-25" x="484.326172"/>
      <use xlink:href="#DejaVuSans-29" x="579.345703"/>
     </g>
    </g>
    <g id="line2d_41">
     <path d="M 87.307813 79.010937 
L 97.307813 79.010937 
L 107.307813 79.010937 
" style="fill: none; stroke-dasharray: 1.5,2.475; stroke-dashoffset: 0; stroke: #7ad151; stroke-width: 1.5"/>
     <g>
      <use xlink:href="#m82225705e6" x="97.307813" y="79.010937" style="fill: #7ad151; stroke: #7ad151"/>
     </g>
    </g>
    <g id="text_23">
     <!-- 0.036 (40%) -->
     <g transform="translate(115.307813 82.510937) scale(0.1 -0.1)">
      <use xlink:href="#DejaVuSans-30"/>
      <use xlink:href="#DejaVuSans-2e" x="63.623047"/>
      <use xlink:href="#DejaVuSans-30" x="95.410156"/>
      <use xlink:href="#DejaVuSans-33" x="159.033203"/>
      <use xlink:href="#DejaVuSans-36" x="222.65625"/>
      <use xlink:href="#DejaVuSans-20" x="286.279297"/>
      <use xlink:href="#DejaVuSans-28" x="318.066406"/>
      <use xlink:href="#DejaVuSans-34" x="357.080078"/>
      <use xlink:href="#DejaVuSans-30" x="420.703125"/>
      <use xlink:href="#DejaVuSans-25" x="484.326172"/>
      <use xlink:href="#DejaVuSans-29" x="579.345703"/>
     </g>
    </g>
    <g id="line2d_42">
     <path d="M 87.307813 93.689062 
L 97.307813 93.689062 
L 107.307813 93.689062 
" style="fill: none; stroke-dasharray: 1.5,2.475; stroke-dashoffset: 0; stroke: #fde725; stroke-width: 1.5"/>
     <g>
      <use xlink:href="#m0da79d6378" x="97.307813" y="93.689062" style="fill: #fde725; stroke: #fde725"/>
     </g>
    </g>
    <g id="text_24">
     <!-- 0.025 (20%) -->
     <g transform="translate(115.307813 97.189062) scale(0.1 -0.1)">
      <use xlink:href="#DejaVuSans-30"/>
      <use xlink:href="#DejaVuSans-2e" x="63.623047"/>
      <use xlink:href="#DejaVuSans-30" x="95.410156"/>
      <use xlink:href="#DejaVuSans-32" x="159.033203"/>
      <use xlink:href="#DejaVuSans-35" x="222.65625"/>
      <use xlink:href="#DejaVuSans-20" x="286.279297"/>
      <use xlink:href="#DejaVuSans-28" x="318.066406"/>
      <use xlink:href="#DejaVuSans-32" x="357.080078"/>
      <use xlink:href="#DejaVuSans-30" x="420.703125"/>
      <use xlink:href="#DejaVuSans-25" x="484.326172"/>
      <use xlink:href="#DejaVuSans-29" x="579.345703"/>
     </g>
    </g>
   </g>
  </g>
 </g>
 <defs>
  <clipPath id="p5e18a37653">
   <rect x="50.14375" y="7.2" width="367.18" height="188.17"/>
  </clipPath>
 </defs>
</svg>
