<?xml version="1.0" encoding="UTF-8"?>
<svg xmlns="http://www.w3.org/2000/svg" version="1.1" xmlns:xlink="http://www.w3.org/1999/xlink" viewBox="0 0 447.6 280.3">
  <defs>
    <style>
      .cls-1 {
        fill: #414487;
      }

      .cls-1, .cls-2, .cls-3, .cls-4, .cls-5, .cls-6, .cls-7, .cls-8, .cls-9, .cls-10, .cls-11, .cls-12 {
        stroke-linejoin: round;
      }

      .cls-1, .cls-7 {
        stroke: #414487;
      }

      .cls-13 {
        clip-path: url(#clippath-21);
      }

      .cls-2 {
        fill: #2a788e;
      }

      .cls-2, .cls-3 {
        stroke: #2a788e;
      }

      .cls-14 {
        clip-path: url(#clippath-6);
      }

      .cls-15 {
        clip-path: url(#clippath-7);
      }

      .cls-16 {
        clip-path: url(#clippath-17);
      }

      .cls-17 {
        clip-path: url(#clippath-15);
      }

      .cls-18 {
        clip-path: url(#clippath-18);
      }

      .cls-19 {
        clip-path: url(#clippath-4);
      }

      .cls-20 {
        clip-path: url(#clippath-22);
      }

      .cls-21 {
        clip-path: url(#clippath-23);
      }

      .cls-22 {
        isolation: isolate;
        opacity: .8;
        stroke: #ccc;
      }

      .cls-22, .cls-23 {
        fill: #fff;
      }

      .cls-24 {
        clip-path: url(#clippath-9);
      }

      .cls-25 {
        clip-path: url(#clippath-10);
      }

      .cls-26 {
        clip-path: url(#clippath-25);
      }

      .cls-27 {
        clip-path: url(#clippath-11);
      }

      .cls-3, .cls-28, .cls-29, .cls-5, .cls-6, .cls-7, .cls-10, .cls-11 {
        fill: none;
      }

      .cls-3, .cls-5, .cls-7, .cls-10, .cls-11 {
        stroke-dasharray: 1.5 2.5;
        stroke-width: 1.5px;
      }

      .cls-30 {
        clip-path: url(#clippath-1);
      }

      .cls-31 {
        clip-path: url(#clippath-5);
      }

      .cls-32 {
        clip-path: url(#clippath-20);
      }

      .cls-33 {
        clip-path: url(#clippath-8);
      }

      .cls-4 {
        fill: #fde725;
      }

      .cls-4, .cls-11 {
        stroke: #fde725;
      }

      .cls-29, .cls-6 {
        stroke-linecap: square;
      }

      .cls-29, .cls-6, .cls-8 {
        stroke-width: .8px;
      }

      .cls-29, .cls-8 {
        stroke: #000;
      }

      .cls-34 {
        clip-path: url(#clippath-3);
      }

      .cls-5, .cls-9 {
        stroke: #22a884;
      }

      .cls-35 {
        clip-path: url(#clippath-12);
      }

      .cls-36 {
        clip-path: url(#clippath-14);
      }

      .cls-37 {
        clip-path: url(#clippath-19);
      }

      .cls-6 {
        stroke: #b0b0b0;
      }

      .cls-38 {
        clip-path: url(#clippath-16);
      }

      .cls-39 {
        clip-path: url(#clippath-2);
      }

      .cls-9 {
        fill: #22a884;
      }

      .cls-10, .cls-12 {
        stroke: #7ad151;
      }

      .cls-40 {
        clip-path: url(#clippath-13);
      }

      .cls-41 {
        clip-path: url(#clippath-24);
      }

      .cls-42 {
        clip-path: url(#clippath);
      }

      .cls-12 {
        fill: #7ad151;
      }
    </style>
    <clipPath id="clippath">
      <rect class="cls-28" x="50.1" y="7.2" width="388.4" height="188.2"/>
    </clipPath>
    <clipPath id="clippath-1">
      <rect class="cls-28" x="50.1" y="7.2" width="388.4" height="188.2"/>
    </clipPath>
    <clipPath id="clippath-2">
      <rect class="cls-28" x="50.1" y="7.2" width="388.4" height="188.2"/>
    </clipPath>
    <clipPath id="clippath-3">
      <rect class="cls-28" x="50.1" y="7.2" width="388.4" height="188.2"/>
    </clipPath>
    <clipPath id="clippath-4">
      <rect class="cls-28" x="50.1" y="7.2" width="388.4" height="188.2"/>
    </clipPath>
    <clipPath id="clippath-5">
      <rect class="cls-28" x="50.1" y="7.2" width="388.4" height="188.2"/>
    </clipPath>
    <clipPath id="clippath-6">
      <rect class="cls-28" x="50.1" y="7.2" width="388.4" height="188.2"/>
    </clipPath>
    <clipPath id="clippath-7">
      <rect class="cls-28" x="50.1" y="7.2" width="388.4" height="188.2"/>
    </clipPath>
    <clipPath id="clippath-8">
      <rect class="cls-28" x="50.1" y="7.2" width="388.4" height="188.2"/>
    </clipPath>
    <clipPath id="clippath-9">
      <rect class="cls-28" x="50.1" y="7.2" width="388.4" height="188.2"/>
    </clipPath>
    <clipPath id="clippath-10">
      <rect class="cls-28" x="50.1" y="7.2" width="388.4" height="188.2"/>
    </clipPath>
    <clipPath id="clippath-11">
      <rect class="cls-28" x="50.1" y="7.2" width="388.4" height="188.2"/>
    </clipPath>
    <clipPath id="clippath-12">
      <rect class="cls-28" x="50.1" y="7.2" width="388.4" height="188.2"/>
    </clipPath>
    <clipPath id="clippath-13">
      <rect class="cls-28" x="50.1" y="7.2" width="388.4" height="188.2"/>
    </clipPath>
    <clipPath id="clippath-14">
      <rect class="cls-28" x="50.1" y="7.2" width="388.4" height="188.2"/>
    </clipPath>
    <clipPath id="clippath-15">
      <rect class="cls-28" x="50.1" y="7.2" width="388.4" height="188.2"/>
    </clipPath>
    <clipPath id="clippath-16">
      <rect class="cls-28" x="50.1" y="7.2" width="388.4" height="188.2"/>
    </clipPath>
    <clipPath id="clippath-17">
      <rect class="cls-28" x="50.1" y="7.2" width="388.4" height="188.2"/>
    </clipPath>
    <clipPath id="clippath-18">
      <rect class="cls-28" x="50.1" y="7.2" width="388.4" height="188.2"/>
    </clipPath>
    <clipPath id="clippath-19">
      <rect class="cls-28" x="50.1" y="7.2" width="388.4" height="188.2"/>
    </clipPath>
    <clipPath id="clippath-20">
      <rect class="cls-28" x="50.1" y="7.2" width="388.4" height="188.2"/>
    </clipPath>
    <clipPath id="clippath-21">
      <rect class="cls-28" x="50.1" y="7.2" width="388.4" height="188.2"/>
    </clipPath>
    <clipPath id="clippath-22">
      <rect class="cls-28" x="50.1" y="7.2" width="388.4" height="188.2"/>
    </clipPath>
    <clipPath id="clippath-23">
      <rect class="cls-28" x="50.1" y="7.2" width="388.4" height="188.2"/>
    </clipPath>
    <clipPath id="clippath-24">
      <rect class="cls-28" x="50.1" y="7.2" width="388.4" height="188.2"/>
    </clipPath>
    <clipPath id="clippath-25">
      <rect class="cls-28" x="50.1" y="7.2" width="388.4" height="188.2"/>
    </clipPath>
  </defs>
  <!-- Generator: Adobe Illustrator 28.7.3, SVG Export Plug-In . SVG Version: 1.2.0 Build 164)  -->
  <g>
    <g id="Layer_1">
      <g id="patch_2">
        <path class="cls-23" d="M50.1,195.4h388.4V7.2H50.1v188.2Z"/>
      </g>
      <g id="matplotlib.axis_1">
        <g id="xtick_1">
          <g id="line2d_1">
            <g class="cls-42">
              <path class="cls-6" d="M67.8,195.4V7.2"/>
            </g>
          </g>
          <g id="line2d_2">
            <path id="mc727129655" class="cls-8" d="M67.8,195.4v3.5"/>
          </g>
          <g id="text_1">
            <g>
              <path id="DejaVuSans-2d" d="M67.5,259v-2.4h.7v2.4h-.7Z"/>
              <path id="DejaVuSans-30" d="M64.3,253.3c0,.5.2.8.7,1,.4.2,1.1.3,2,.3s1.6-.1,2-.3c.5-.2.7-.6.7-1s-.2-.8-.7-1c-.5-.2-1.1-.3-2-.3s-1.6.1-2,.3c-.5.2-.7.6-.7,1ZM63.6,253.3c0-.7.3-1.3.9-1.7.6-.4,1.4-.6,2.5-.6s1.9.2,2.5.6c.6.4.9,1,.9,1.7s-.3,1.3-.9,1.7c-.6.4-1.4.6-2.5.6s-2-.2-2.5-.6c-.6-.4-.9-.9-.9-1.7Z"/>
              <path id="DejaVuSans-2e" d="M69.2,249.5v-.9h1.1v.9h-1.1Z"/>
              <path id="DejaVuSans-30-2" data-name="DejaVuSans-30" d="M64.3,244.7c0,.5.2.8.7,1,.4.2,1.1.3,2,.3s1.6-.1,2-.3c.5-.2.7-.6.7-1s-.2-.8-.7-1c-.5-.2-1.1-.3-2-.3s-1.6.1-2,.3c-.5.2-.7.6-.7,1ZM63.6,244.7c0-.7.3-1.3.9-1.7.6-.4,1.4-.6,2.5-.6s1.9.2,2.5.6c.6.4.9,1,.9,1.7s-.3,1.3-.9,1.7c-.6.4-1.4.6-2.5.6s-2-.2-2.5-.6c-.6-.4-.9-.9-.9-1.7Z"/>
              <path id="DejaVuSans-20" d="M70.3,241.8"/>
              <path id="DejaVuSans-74" d="M64,237.3h1.4v-1.7h.6v1.7h2.7c.4,0,.7,0,.8-.2s.2-.3.2-.7v-.8h.7v.8c0,.6-.1,1.1-.3,1.3-.2.2-.7.4-1.3.4h-2.7v.6h-.6v-.6h-1.4v-.8Z"/>
              <path id="DejaVuSans-6f" d="M65.9,232.7c0,.4.2.8.5,1s.8.4,1.4.4,1.1-.1,1.4-.4c.3-.3.5-.6.5-1s-.2-.8-.5-1c-.3-.3-.8-.4-1.4-.4s-1,.1-1.4.4c-.3.3-.5.6-.5,1ZM65.2,232.7c0-.7.2-1.3.7-1.7.5-.4,1.1-.6,1.9-.6s1.4.2,1.9.6c.5.4.7,1,.7,1.7s-.2,1.3-.7,1.7c-.5.4-1.1.6-1.9.6s-1.4-.2-1.9-.6c-.5-.4-.7-1-.7-1.7Z"/>
              <path id="DejaVuSans-20-2" data-name="DejaVuSans-20" d="M70.3,229.9"/>
              <path id="DejaVuSans-3c" d="M65.9,220.5l1.6,4.5,1.6-4.5h.8l-2,5.6h-.7l-2-5.6h.8Z"/>
              <path id="DejaVuSans-20-3" data-name="DejaVuSans-20" d="M70.3,219.5"/>
              <path id="DejaVuSans-30-3" data-name="DejaVuSans-30" d="M64.3,213.8c0,.5.2.8.7,1,.4.2,1.1.3,2,.3s1.6-.1,2-.3c.5-.2.7-.6.7-1s-.2-.8-.7-1c-.5-.2-1.1-.3-2-.3s-1.6.1-2,.3c-.5.2-.7.6-.7,1ZM63.6,213.8c0-.7.3-1.3.9-1.7.6-.4,1.4-.6,2.5-.6s1.9.2,2.5.6c.6.4.9,1,.9,1.7s-.3,1.3-.9,1.7c-.6.4-1.4.6-2.5.6s-2-.2-2.5-.6c-.6-.4-.9-.9-.9-1.7Z"/>
              <path id="DejaVuSans-2e-2" data-name="DejaVuSans-2e" d="M69.2,210v-.9h1.1v.9h-1.1Z"/>
              <path id="DejaVuSans-31" d="M69.5,207v-1.4h-5l.3,1.6h-.8l-.3-1.6v-.9h5.8v-1.4h.7v3.8h-.7Z"/>
            </g>
          </g>
        </g>
        <g id="xtick_2">
          <g id="line2d_3">
            <g class="cls-30">
              <path class="cls-6" d="M107,195.4V7.2"/>
            </g>
          </g>
          <g id="line2d_4">
            <path id="mc727129655-2" data-name="mc727129655" class="cls-8" d="M107,195.4v3.5"/>
          </g>
          <g id="text_2">
            <g>
              <path id="DejaVuSans-30-4" data-name="DejaVuSans-30" d="M103.5,253.3c0,.5.2.8.7,1,.4.2,1.1.3,2,.3s1.6-.1,2-.3c.5-.2.7-.6.7-1s-.2-.8-.7-1c-.5-.2-1.1-.3-2-.3s-1.6.1-2,.3c-.5.2-.7.6-.7,1ZM102.8,253.3c0-.7.3-1.3.9-1.7.6-.4,1.4-.6,2.5-.6s1.9.2,2.5.6c.6.4.9,1,.9,1.7s-.3,1.3-.9,1.7c-.6.4-1.4.6-2.5.6s-2-.2-2.5-.6c-.6-.4-.9-.9-.9-1.7Z"/>
              <path id="DejaVuSans-2e-3" data-name="DejaVuSans-2e" d="M108.4,249.5v-.9h1.1v.9h-1.1Z"/>
              <path id="DejaVuSans-31-2" data-name="DejaVuSans-31" d="M108.8,246.4v-1.4h-5l.3,1.6h-.8l-.3-1.6v-.9h5.8v-1.4h.7v3.8h-.7Z"/>
              <path id="DejaVuSans-20-4" data-name="DejaVuSans-20" d="M109.5,241.8"/>
              <path id="DejaVuSans-74-2" data-name="DejaVuSans-74" d="M103.2,237.3h1.4v-1.7h.6v1.7h2.7c.4,0,.7,0,.8-.2s.2-.3.2-.7v-.8h.7v.8c0,.6-.1,1.1-.3,1.3-.2.2-.7.4-1.3.4h-2.7v.6h-.6v-.6h-1.4v-.8Z"/>
              <path id="DejaVuSans-6f-2" data-name="DejaVuSans-6f" d="M105.2,232.7c0,.4.2.8.5,1s.8.4,1.4.4,1.1-.1,1.4-.4c.3-.3.5-.6.5-1s-.2-.8-.5-1c-.3-.3-.8-.4-1.4-.4s-1,.1-1.4.4c-.3.3-.5.6-.5,1ZM104.5,232.7c0-.7.2-1.3.7-1.7.5-.4,1.1-.6,1.9-.6s1.4.2,1.9.6c.5.4.7,1,.7,1.7s-.2,1.3-.7,1.7c-.5.4-1.1.6-1.9.6s-1.4-.2-1.9-.6c-.5-.4-.7-1-.7-1.7Z"/>
              <path id="DejaVuSans-20-5" data-name="DejaVuSans-20" d="M109.5,229.9"/>
              <path id="DejaVuSans-3c-2" data-name="DejaVuSans-3c" d="M105.1,220.5l1.6,4.5,1.6-4.5h.8l-2,5.6h-.7l-2-5.6h.8Z"/>
              <path id="DejaVuSans-20-6" data-name="DejaVuSans-20" d="M109.5,219.5"/>
              <path id="DejaVuSans-30-5" data-name="DejaVuSans-30" d="M103.5,213.8c0,.5.2.8.7,1,.4.2,1.1.3,2,.3s1.6-.1,2-.3c.5-.2.7-.6.7-1s-.2-.8-.7-1c-.5-.2-1.1-.3-2-.3s-1.6.1-2,.3c-.5.2-.7.6-.7,1ZM102.8,213.8c0-.7.3-1.3.9-1.7.6-.4,1.4-.6,2.5-.6s1.9.2,2.5.6c.6.4.9,1,.9,1.7s-.3,1.3-.9,1.7c-.6.4-1.4.6-2.5.6s-2-.2-2.5-.6c-.6-.4-.9-.9-.9-1.7Z"/>
              <path id="DejaVuSans-2e-4" data-name="DejaVuSans-2e" d="M108.4,210v-.9h1.1v.9h-1.1Z"/>
              <path id="DejaVuSans-32" d="M108.8,206.4v-3.1h.7v4.2h-.7c-.3-.3-.8-.8-1.4-1.4-.6-.6-1-.9-1.1-1.1-.3-.3-.6-.5-.8-.6-.2-.1-.4-.2-.7-.2-.3,0-.6.1-.9.4-.2.2-.3.6-.3,1s0,.6.1.9c0,.3.2.6.4,1h-.9c-.1-.4-.3-.7-.3-1,0-.3-.1-.6-.1-.9,0-.7.2-1.2.5-1.6.3-.4.8-.6,1.4-.6s.5,0,.8.2c.2.1.5.3.9.6,0,0,.3.3.7.7.4.4,1,.9,1.7,1.7Z"/>
            </g>
          </g>
        </g>
        <g id="xtick_3">
          <g id="line2d_5">
            <g class="cls-39">
              <path class="cls-6" d="M146.3,195.4V7.2"/>
            </g>
          </g>
          <g id="line2d_6">
            <path id="mc727129655-3" data-name="mc727129655" class="cls-8" d="M146.3,195.4v3.5"/>
          </g>
          <g id="text_3">
            <g>
              <path id="DejaVuSans-30-6" data-name="DejaVuSans-30" d="M142.8,253.3c0,.5.2.8.7,1,.4.2,1.1.3,2,.3s1.6-.1,2-.3c.5-.2.7-.6.7-1s-.2-.8-.7-1c-.5-.2-1.1-.3-2-.3s-1.6.1-2,.3c-.5.2-.7.6-.7,1ZM142.1,253.3c0-.7.3-1.3.9-1.7.6-.4,1.4-.6,2.5-.6s1.9.2,2.5.6c.6.4.9,1,.9,1.7s-.3,1.3-.9,1.7c-.6.4-1.4.6-2.5.6s-2-.2-2.5-.6c-.6-.4-.9-.9-.9-1.7Z"/>
              <path id="DejaVuSans-2e-5" data-name="DejaVuSans-2e" d="M147.6,249.5v-.9h1.1v.9h-1.1Z"/>
              <path id="DejaVuSans-32-2" data-name="DejaVuSans-32" d="M148,245.8v-3.1h.7v4.2h-.7c-.3-.3-.8-.8-1.4-1.4-.6-.6-1-.9-1.1-1.1-.3-.3-.6-.5-.8-.6-.2-.1-.4-.2-.7-.2-.3,0-.6.1-.9.4-.2.2-.3.6-.3,1s0,.6.1.9c0,.3.2.6.4,1h-.9c-.1-.4-.3-.7-.3-1,0-.3-.1-.6-.1-.9,0-.7.2-1.2.5-1.6.3-.4.8-.6,1.4-.6s.5,0,.8.2c.2.1.5.3.9.6,0,0,.3.3.7.7.4.4,1,.9,1.7,1.7Z"/>
              <path id="DejaVuSans-20-7" data-name="DejaVuSans-20" d="M148.7,241.8"/>
              <path id="DejaVuSans-74-3" data-name="DejaVuSans-74" d="M142.4,237.3h1.4v-1.7h.6v1.7h2.7c.4,0,.7,0,.8-.2s.2-.3.2-.7v-.8h.7v.8c0,.6-.1,1.1-.3,1.3-.2.2-.7.4-1.3.4h-2.7v.6h-.6v-.6h-1.4v-.8Z"/>
              <path id="DejaVuSans-6f-3" data-name="DejaVuSans-6f" d="M144.4,232.7c0,.4.2.8.5,1s.8.4,1.4.4,1.1-.1,1.4-.4c.3-.3.5-.6.5-1s-.2-.8-.5-1c-.3-.3-.8-.4-1.4-.4s-1,.1-1.4.4c-.3.3-.5.6-.5,1ZM143.7,232.7c0-.7.2-1.3.7-1.7.5-.4,1.1-.6,1.9-.6s1.4.2,1.9.6c.5.4.7,1,.7,1.7s-.2,1.3-.7,1.7c-.5.4-1.1.6-1.9.6s-1.4-.2-1.9-.6c-.5-.4-.7-1-.7-1.7Z"/>
              <path id="DejaVuSans-20-8" data-name="DejaVuSans-20" d="M148.7,229.9"/>
              <path id="DejaVuSans-3c-3" data-name="DejaVuSans-3c" d="M144.3,220.5l1.6,4.5,1.6-4.5h.8l-2,5.6h-.7l-2-5.6h.8Z"/>
              <path id="DejaVuSans-20-9" data-name="DejaVuSans-20" d="M148.7,219.5"/>
              <path id="DejaVuSans-30-7" data-name="DejaVuSans-30" d="M142.8,213.8c0,.5.2.8.7,1,.4.2,1.1.3,2,.3s1.6-.1,2-.3c.5-.2.7-.6.7-1s-.2-.8-.7-1c-.5-.2-1.1-.3-2-.3s-1.6.1-2,.3c-.5.2-.7.6-.7,1ZM142.1,213.8c0-.7.3-1.3.9-1.7.6-.4,1.4-.6,2.5-.6s1.9.2,2.5.6c.6.4.9,1,.9,1.7s-.3,1.3-.9,1.7c-.6.4-1.4.6-2.5.6s-2-.2-2.5-.6c-.6-.4-.9-.9-.9-1.7Z"/>
              <path id="DejaVuSans-2e-6" data-name="DejaVuSans-2e" d="M147.6,210v-.9h1.1v.9h-1.1Z"/>
              <path id="DejaVuSans-33" d="M145.2,204.4c0-.4.3-.8.6-1,.3-.2.6-.4,1.1-.4.6,0,1.1.2,1.5.7.4.4.5,1.1.5,1.9s0,.6,0,.8c0,.3-.1.6-.2.9h-.9c.1-.2.3-.5.3-.8,0-.3.1-.6.1-.9,0-.6-.1-1-.3-1.3s-.5-.4-1-.4-.7.1-.9.4c-.2.3-.3.6-.3,1.1v.8h-.7v-.8c0-.4,0-.8-.3-1s-.4-.3-.8-.3-.6.1-.8.4c-.2.2-.3.6-.3,1s0,.5,0,.8c0,.3.1.6.2.9h-.8c0-.3-.2-.7-.2-.9s0-.6,0-.8c0-.7.2-1.2.5-1.6.3-.4.7-.6,1.2-.6s.7.1.9.3.4.5.5.9Z"/>
            </g>
          </g>
        </g>
        <g id="xtick_4">
          <g id="line2d_7">
            <g class="cls-34">
              <path class="cls-6" d="M185.5,195.4V7.2"/>
            </g>
          </g>
          <g id="line2d_8">
            <path id="mc727129655-4" data-name="mc727129655" class="cls-8" d="M185.5,195.4v3.5"/>
          </g>
          <g id="text_4">
            <g>
              <path id="DejaVuSans-30-8" data-name="DejaVuSans-30" d="M182,253.3c0,.5.2.8.7,1,.4.2,1.1.3,2,.3s1.6-.1,2-.3c.5-.2.7-.6.7-1s-.2-.8-.7-1c-.5-.2-1.1-.3-2-.3s-1.6.1-2,.3c-.5.2-.7.6-.7,1ZM181.3,253.3c0-.7.3-1.3.9-1.7.6-.4,1.4-.6,2.5-.6s1.9.2,2.5.6c.6.4.9,1,.9,1.7s-.3,1.3-.9,1.7c-.6.4-1.4.6-2.5.6s-2-.2-2.5-.6c-.6-.4-.9-.9-.9-1.7Z"/>
              <path id="DejaVuSans-2e-7" data-name="DejaVuSans-2e" d="M186.9,249.5v-.9h1.1v.9h-1.1Z"/>
              <path id="DejaVuSans-33-2" data-name="DejaVuSans-33" d="M184.4,243.9c0-.4.3-.8.6-1,.3-.2.6-.4,1.1-.4.6,0,1.1.2,1.5.7.4.4.5,1.1.5,1.9s0,.6,0,.8c0,.3-.1.6-.2.9h-.9c.1-.2.3-.5.3-.8,0-.3.1-.6.1-.9,0-.6-.1-1-.3-1.3s-.5-.4-1-.4-.7.1-.9.4c-.2.3-.3.6-.3,1.1v.8h-.7v-.8c0-.4,0-.8-.3-1s-.4-.3-.8-.3-.6.1-.8.4c-.2.2-.3.6-.3,1s0,.5,0,.8c0,.3.1.6.2.9h-.8c0-.3-.2-.7-.2-.9s0-.6,0-.8c0-.7.2-1.2.5-1.6.3-.4.7-.6,1.2-.6s.7.1.9.3.4.5.5.9Z"/>
              <path id="DejaVuSans-20-10" data-name="DejaVuSans-20" d="M188,241.8"/>
              <path id="DejaVuSans-74-4" data-name="DejaVuSans-74" d="M181.7,237.3h1.4v-1.7h.6v1.7h2.7c.4,0,.7,0,.8-.2s.2-.3.2-.7v-.8h.7v.8c0,.6-.1,1.1-.3,1.3-.2.2-.7.4-1.3.4h-2.7v.6h-.6v-.6h-1.4v-.8Z"/>
              <path id="DejaVuSans-6f-4" data-name="DejaVuSans-6f" d="M183.6,232.7c0,.4.2.8.5,1s.8.4,1.4.4,1.1-.1,1.4-.4c.3-.3.5-.6.5-1s-.2-.8-.5-1c-.3-.3-.8-.4-1.4-.4s-1,.1-1.4.4c-.3.3-.5.6-.5,1ZM182.9,232.7c0-.7.2-1.3.7-1.7.5-.4,1.1-.6,1.9-.6s1.4.2,1.9.6c.5.4.7,1,.7,1.7s-.2,1.3-.7,1.7c-.5.4-1.1.6-1.9.6s-1.4-.2-1.9-.6c-.5-.4-.7-1-.7-1.7Z"/>
              <path id="DejaVuSans-20-11" data-name="DejaVuSans-20" d="M188,229.9"/>
              <path id="DejaVuSans-3c-4" data-name="DejaVuSans-3c" d="M183.5,220.5l1.6,4.5,1.6-4.5h.8l-2,5.6h-.7l-2-5.6h.8Z"/>
              <path id="DejaVuSans-20-12" data-name="DejaVuSans-20" d="M188,219.5"/>
              <path id="DejaVuSans-30-9" data-name="DejaVuSans-30" d="M182,213.8c0,.5.2.8.7,1,.4.2,1.1.3,2,.3s1.6-.1,2-.3c.5-.2.7-.6.7-1s-.2-.8-.7-1c-.5-.2-1.1-.3-2-.3s-1.6.1-2,.3c-.5.2-.7.6-.7,1ZM181.3,213.8c0-.7.3-1.3.9-1.7.6-.4,1.4-.6,2.5-.6s1.9.2,2.5.6c.6.4.9,1,.9,1.7s-.3,1.3-.9,1.7c-.6.4-1.4.6-2.5.6s-2-.2-2.5-.6c-.6-.4-.9-.9-.9-1.7Z"/>
              <path id="DejaVuSans-2e-8" data-name="DejaVuSans-2e" d="M186.9,210v-.9h1.1v.9h-1.1Z"/>
              <path id="DejaVuSans-34" d="M182.2,204.7l3.5,2.2v-2.2h-3.5ZM181.4,204.9v-1.1h4.3v-.9h.7v.9h1.5v.9h-1.5v3h-.9l-4.2-2.7Z"/>
            </g>
          </g>
        </g>
        <g id="xtick_5">
          <g id="line2d_9">
            <g class="cls-19">
              <path class="cls-6" d="M224.7,195.4V7.2"/>
            </g>
          </g>
          <g id="line2d_10">
            <path id="mc727129655-5" data-name="mc727129655" class="cls-8" d="M224.7,195.4v3.5"/>
          </g>
          <g id="text_5">
            <g>
              <path id="DejaVuSans-30-10" data-name="DejaVuSans-30" d="M221.2,253.3c0,.5.2.8.7,1,.4.2,1.1.3,2,.3s1.6-.1,2-.3c.5-.2.7-.6.7-1s-.2-.8-.7-1c-.5-.2-1.1-.3-2-.3s-1.6.1-2,.3c-.5.2-.7.6-.7,1ZM220.5,253.3c0-.7.3-1.3.9-1.7.6-.4,1.4-.6,2.5-.6s1.9.2,2.5.6c.6.4.9,1,.9,1.7s-.3,1.3-.9,1.7c-.6.4-1.4.6-2.5.6s-2-.2-2.5-.6c-.6-.4-.9-.9-.9-1.7Z"/>
              <path id="DejaVuSans-2e-9" data-name="DejaVuSans-2e" d="M226.1,249.5v-.9h1.1v.9h-1.1Z"/>
              <path id="DejaVuSans-34-2" data-name="DejaVuSans-34" d="M221.4,244.2l3.5,2.2v-2.2h-3.5ZM220.6,244.4v-1.1h4.3v-.9h.7v.9h1.5v.9h-1.5v3h-.9l-4.2-2.7Z"/>
              <path id="DejaVuSans-20-13" data-name="DejaVuSans-20" d="M227.2,241.8"/>
              <path id="DejaVuSans-74-5" data-name="DejaVuSans-74" d="M220.9,237.3h1.4v-1.7h.6v1.7h2.7c.4,0,.7,0,.8-.2s.2-.3.2-.7v-.8h.7v.8c0,.6-.1,1.1-.3,1.3-.2.2-.7.4-1.3.4h-2.7v.6h-.6v-.6h-1.4v-.8Z"/>
              <path id="DejaVuSans-6f-5" data-name="DejaVuSans-6f" d="M222.8,232.7c0,.4.2.8.5,1s.8.4,1.4.4,1.1-.1,1.4-.4c.3-.3.5-.6.5-1s-.2-.8-.5-1c-.3-.3-.8-.4-1.4-.4s-1,.1-1.4.4c-.3.3-.5.6-.5,1ZM222.2,232.7c0-.7.2-1.3.7-1.7.5-.4,1.1-.6,1.9-.6s1.4.2,1.9.6c.5.4.7,1,.7,1.7s-.2,1.3-.7,1.7c-.5.4-1.1.6-1.9.6s-1.4-.2-1.9-.6c-.5-.4-.7-1-.7-1.7Z"/>
              <path id="DejaVuSans-20-14" data-name="DejaVuSans-20" d="M227.2,229.9"/>
              <path id="DejaVuSans-3c-5" data-name="DejaVuSans-3c" d="M222.8,220.5l1.6,4.5,1.6-4.5h.8l-2,5.6h-.7l-2-5.6h.8Z"/>
              <path id="DejaVuSans-20-15" data-name="DejaVuSans-20" d="M227.2,219.5"/>
              <path id="DejaVuSans-30-11" data-name="DejaVuSans-30" d="M221.2,213.8c0,.5.2.8.7,1,.4.2,1.1.3,2,.3s1.6-.1,2-.3c.5-.2.7-.6.7-1s-.2-.8-.7-1c-.5-.2-1.1-.3-2-.3s-1.6.1-2,.3c-.5.2-.7.6-.7,1ZM220.5,213.8c0-.7.3-1.3.9-1.7.6-.4,1.4-.6,2.5-.6s1.9.2,2.5.6c.6.4.9,1,.9,1.7s-.3,1.3-.9,1.7c-.6.4-1.4.6-2.5.6s-2-.2-2.5-.6c-.6-.4-.9-.9-.9-1.7Z"/>
              <path id="DejaVuSans-2e-10" data-name="DejaVuSans-2e" d="M226.1,210v-.9h1.1v.9h-1.1Z"/>
              <path id="DejaVuSans-35" d="M220.6,207.1v-3.5h.7v2.7h1.6c0-.1,0-.3,0-.4,0-.1,0-.3,0-.4,0-.7.2-1.3.6-1.7.4-.4.9-.6,1.6-.6s1.3.2,1.6.7c.4.4.6,1.1.6,1.9s0,.6,0,.8c0,.3-.1.6-.2.9h-.9c.1-.3.3-.5.3-.8s.1-.6.1-.9c0-.5-.1-.9-.4-1.2-.3-.3-.6-.4-1.1-.4s-.8.1-1.1.4c-.3.3-.4.7-.4,1.2s0,.5,0,.7c0,.2.1.5.2.7h-3.3Z"/>
            </g>
          </g>
        </g>
        <g id="xtick_6">
          <g id="line2d_11">
            <g class="cls-31">
              <path class="cls-6" d="M263.9,195.4V7.2"/>
            </g>
          </g>
          <g id="line2d_12">
            <path id="mc727129655-6" data-name="mc727129655" class="cls-8" d="M263.9,195.4v3.5"/>
          </g>
          <g id="text_6">
            <g>
              <path id="DejaVuSans-30-12" data-name="DejaVuSans-30" d="M260.5,253.3c0,.5.2.8.7,1,.4.2,1.1.3,2,.3s1.6-.1,2-.3c.5-.2.7-.6.7-1s-.2-.8-.7-1c-.5-.2-1.1-.3-2-.3s-1.6.1-2,.3c-.5.2-.7.6-.7,1ZM259.8,253.3c0-.7.3-1.3.9-1.7.6-.4,1.4-.6,2.5-.6s1.9.2,2.5.6c.6.4.9,1,.9,1.7s-.3,1.3-.9,1.7c-.6.4-1.4.6-2.5.6s-2-.2-2.5-.6c-.6-.4-.9-.9-.9-1.7Z"/>
              <path id="DejaVuSans-2e-11" data-name="DejaVuSans-2e" d="M265.3,249.5v-.9h1.1v.9h-1.1Z"/>
              <path id="DejaVuSans-35-2" data-name="DejaVuSans-35" d="M259.9,246.6v-3.5h.7v2.7h1.6c0-.1,0-.3,0-.4,0-.1,0-.3,0-.4,0-.7.2-1.3.6-1.7.4-.4.9-.6,1.6-.6s1.3.2,1.6.7c.4.4.6,1.1.6,1.9s0,.6,0,.8c0,.3-.1.6-.2.9h-.9c.1-.3.3-.5.3-.8s.1-.6.1-.9c0-.5-.1-.9-.4-1.2-.3-.3-.6-.4-1.1-.4s-.8.1-1.1.4c-.3.3-.4.7-.4,1.2s0,.5,0,.7c0,.2.1.5.2.7h-3.3Z"/>
              <path id="DejaVuSans-20-16" data-name="DejaVuSans-20" d="M266.4,241.8"/>
              <path id="DejaVuSans-74-6" data-name="DejaVuSans-74" d="M260.1,237.3h1.4v-1.7h.6v1.7h2.7c.4,0,.7,0,.8-.2s.2-.3.2-.7v-.8h.7v.8c0,.6-.1,1.1-.3,1.3-.2.2-.7.4-1.3.4h-2.7v.6h-.6v-.6h-1.4v-.8Z"/>
              <path id="DejaVuSans-6f-6" data-name="DejaVuSans-6f" d="M262.1,232.7c0,.4.2.8.5,1s.8.4,1.4.4,1.1-.1,1.4-.4c.3-.3.5-.6.5-1s-.2-.8-.5-1c-.3-.3-.8-.4-1.4-.4s-1,.1-1.4.4c-.3.3-.5.6-.5,1ZM261.4,232.7c0-.7.2-1.3.7-1.7.5-.4,1.1-.6,1.9-.6s1.4.2,1.9.6c.5.4.7,1,.7,1.7s-.2,1.3-.7,1.7c-.5.4-1.1.6-1.9.6s-1.4-.2-1.9-.6c-.5-.4-.7-1-.7-1.7Z"/>
              <path id="DejaVuSans-20-17" data-name="DejaVuSans-20" d="M266.4,229.9"/>
              <path id="DejaVuSans-3c-6" data-name="DejaVuSans-3c" d="M262,220.5l1.6,4.5,1.6-4.5h.8l-2,5.6h-.7l-2-5.6h.8Z"/>
              <path id="DejaVuSans-20-18" data-name="DejaVuSans-20" d="M266.4,219.5"/>
              <path id="DejaVuSans-30-13" data-name="DejaVuSans-30" d="M260.5,213.8c0,.5.2.8.7,1,.4.2,1.1.3,2,.3s1.6-.1,2-.3c.5-.2.7-.6.7-1s-.2-.8-.7-1c-.5-.2-1.1-.3-2-.3s-1.6.1-2,.3c-.5.2-.7.6-.7,1ZM259.8,213.8c0-.7.3-1.3.9-1.7.6-.4,1.4-.6,2.5-.6s1.9.2,2.5.6c.6.4.9,1,.9,1.7s-.3,1.3-.9,1.7c-.6.4-1.4.6-2.5.6s-2-.2-2.5-.6c-.6-.4-.9-.9-.9-1.7Z"/>
              <path id="DejaVuSans-2e-12" data-name="DejaVuSans-2e" d="M265.3,210v-.9h1.1v.9h-1.1Z"/>
              <path id="DejaVuSans-36" d="M262.8,205.1c0,.4.1.7.4.9.3.2.6.3,1.1.3s.8-.1,1.1-.3c.3-.2.4-.5.4-.9s-.1-.7-.4-.9c-.3-.2-.6-.3-1.1-.3s-.8.1-1.1.3c-.3.2-.4.5-.4.9ZM260,203.4h.8c-.1.2-.2.4-.2.7,0,.2,0,.5,0,.7,0,.6.2,1,.6,1.3.4.3,1,.5,1.8.5-.3-.2-.5-.4-.6-.6-.1-.3-.2-.5-.2-.9,0-.7.2-1.2.6-1.6.4-.4.9-.6,1.6-.6s1.2.2,1.6.6c.4.4.6.9.6,1.6s-.3,1.3-.9,1.7c-.6.4-1.4.6-2.5.6s-1.9-.2-2.5-.7c-.6-.5-.9-1.2-.9-2s0-.4,0-.7.1-.5.2-.7Z"/>
            </g>
          </g>
        </g>
        <g id="xtick_7">
          <g id="line2d_13">
            <g class="cls-14">
              <path class="cls-6" d="M303.2,195.4V7.2"/>
            </g>
          </g>
          <g id="line2d_14">
            <path id="mc727129655-7" data-name="mc727129655" class="cls-8" d="M303.2,195.4v3.5"/>
          </g>
          <g id="text_7">
            <g>
              <path id="DejaVuSans-30-14" data-name="DejaVuSans-30" d="M299.7,253.3c0,.5.2.8.7,1,.4.2,1.1.3,2,.3s1.6-.1,2-.3c.5-.2.7-.6.7-1s-.2-.8-.7-1c-.5-.2-1.1-.3-2-.3s-1.6.1-2,.3c-.5.2-.7.6-.7,1ZM299,253.3c0-.7.3-1.3.9-1.7.6-.4,1.4-.6,2.5-.6s1.9.2,2.5.6c.6.4.9,1,.9,1.7s-.3,1.3-.9,1.7c-.6.4-1.4.6-2.5.6s-2-.2-2.5-.6c-.6-.4-.9-.9-.9-1.7Z"/>
              <path id="DejaVuSans-2e-13" data-name="DejaVuSans-2e" d="M304.5,249.5v-.9h1.1v.9h-1.1Z"/>
              <path id="DejaVuSans-36-2" data-name="DejaVuSans-36" d="M302,244.6c0,.4.1.7.4.9.3.2.6.3,1.1.3s.8-.1,1.1-.3c.3-.2.4-.5.4-.9s-.1-.7-.4-.9c-.3-.2-.6-.3-1.1-.3s-.8.1-1.1.3c-.3.2-.4.5-.4.9ZM299.2,242.8h.8c-.1.2-.2.4-.2.7,0,.2,0,.5,0,.7,0,.6.2,1,.6,1.3.4.3,1,.5,1.8.5-.3-.2-.5-.4-.6-.6-.1-.3-.2-.5-.2-.9,0-.7.2-1.2.6-1.6.4-.4.9-.6,1.6-.6s1.2.2,1.6.6c.4.4.6.9.6,1.6s-.3,1.3-.9,1.7c-.6.4-1.4.6-2.5.6s-1.9-.2-2.5-.7c-.6-.5-.9-1.2-.9-2s0-.4,0-.7.1-.5.2-.7Z"/>
              <path id="DejaVuSans-20-19" data-name="DejaVuSans-20" d="M305.7,241.8"/>
              <path id="DejaVuSans-74-7" data-name="DejaVuSans-74" d="M299.3,237.3h1.4v-1.7h.6v1.7h2.7c.4,0,.7,0,.8-.2s.2-.3.2-.7v-.8h.7v.8c0,.6-.1,1.1-.3,1.3-.2.2-.7.4-1.3.4h-2.7v.6h-.6v-.6h-1.4v-.8Z"/>
              <path id="DejaVuSans-6f-7" data-name="DejaVuSans-6f" d="M301.3,232.7c0,.4.2.8.5,1s.8.4,1.4.4,1.1-.1,1.4-.4c.3-.3.5-.6.5-1s-.2-.8-.5-1c-.3-.3-.8-.4-1.4-.4s-1,.1-1.4.4c-.3.3-.5.6-.5,1ZM300.6,232.7c0-.7.2-1.3.7-1.7.5-.4,1.1-.6,1.9-.6s1.4.2,1.9.6c.5.4.7,1,.7,1.7s-.2,1.3-.7,1.7c-.5.4-1.1.6-1.9.6s-1.4-.2-1.9-.6c-.5-.4-.7-1-.7-1.7Z"/>
              <path id="DejaVuSans-20-20" data-name="DejaVuSans-20" d="M305.7,229.9"/>
              <path id="DejaVuSans-3c-7" data-name="DejaVuSans-3c" d="M301.2,220.5l1.6,4.5,1.6-4.5h.8l-2,5.6h-.7l-2-5.6h.8Z"/>
              <path id="DejaVuSans-20-21" data-name="DejaVuSans-20" d="M305.7,219.5"/>
              <path id="DejaVuSans-30-15" data-name="DejaVuSans-30" d="M299.7,213.8c0,.5.2.8.7,1,.4.2,1.1.3,2,.3s1.6-.1,2-.3c.5-.2.7-.6.7-1s-.2-.8-.7-1c-.5-.2-1.1-.3-2-.3s-1.6.1-2,.3c-.5.2-.7.6-.7,1ZM299,213.8c0-.7.3-1.3.9-1.7.6-.4,1.4-.6,2.5-.6s1.9.2,2.5.6c.6.4.9,1,.9,1.7s-.3,1.3-.9,1.7c-.6.4-1.4.6-2.5.6s-2-.2-2.5-.6c-.6-.4-.9-.9-.9-1.7Z"/>
              <path id="DejaVuSans-2e-14" data-name="DejaVuSans-2e" d="M304.5,210v-.9h1.1v.9h-1.1Z"/>
              <path id="DejaVuSans-37" d="M299.1,207.4v-4.2h.4l6.2,2.4v.9l-5.8-2.2v3.2h-.7Z"/>
            </g>
          </g>
        </g>
        <g id="xtick_8">
          <g id="line2d_15">
            <g class="cls-15">
              <path class="cls-6" d="M342.4,195.4V7.2"/>
            </g>
          </g>
          <g id="line2d_16">
            <path id="mc727129655-8" data-name="mc727129655" class="cls-8" d="M342.4,195.4v3.5"/>
          </g>
          <g id="text_8">
            <g>
              <path id="DejaVuSans-30-16" data-name="DejaVuSans-30" d="M338.9,253.3c0,.5.2.8.7,1,.4.2,1.1.3,2,.3s1.6-.1,2-.3c.5-.2.7-.6.7-1s-.2-.8-.7-1c-.5-.2-1.1-.3-2-.3s-1.6.1-2,.3c-.5.2-.7.6-.7,1ZM338.2,253.3c0-.7.3-1.3.9-1.7.6-.4,1.4-.6,2.5-.6s1.9.2,2.5.6c.6.4.9,1,.9,1.7s-.3,1.3-.9,1.7c-.6.4-1.4.6-2.5.6s-2-.2-2.5-.6c-.6-.4-.9-.9-.9-1.7Z"/>
              <path id="DejaVuSans-2e-15" data-name="DejaVuSans-2e" d="M343.8,249.5v-.9h1.1v.9h-1.1Z"/>
              <path id="DejaVuSans-37-2" data-name="DejaVuSans-37" d="M338.3,246.8v-4.2h.4l6.2,2.4v.9l-5.8-2.2v3.2h-.7Z"/>
              <path id="DejaVuSans-20-22" data-name="DejaVuSans-20" d="M344.9,241.8"/>
              <path id="DejaVuSans-74-8" data-name="DejaVuSans-74" d="M338.6,237.3h1.4v-1.7h.6v1.7h2.7c.4,0,.7,0,.8-.2s.2-.3.2-.7v-.8h.7v.8c0,.6-.1,1.1-.3,1.3-.2.2-.7.4-1.3.4h-2.7v.6h-.6v-.6h-1.4v-.8Z"/>
              <path id="DejaVuSans-6f-8" data-name="DejaVuSans-6f" d="M340.5,232.7c0,.4.2.8.5,1s.8.4,1.4.4,1.1-.1,1.4-.4c.3-.3.5-.6.5-1s-.2-.8-.5-1c-.3-.3-.8-.4-1.4-.4s-1,.1-1.4.4c-.3.3-.5.6-.5,1ZM339.9,232.7c0-.7.2-1.3.7-1.7.5-.4,1.1-.6,1.9-.6s1.4.2,1.9.6c.5.4.7,1,.7,1.7s-.2,1.3-.7,1.7c-.5.4-1.1.6-1.9.6s-1.4-.2-1.9-.6c-.5-.4-.7-1-.7-1.7Z"/>
              <path id="DejaVuSans-20-23" data-name="DejaVuSans-20" d="M344.9,229.9"/>
              <path id="DejaVuSans-3c-8" data-name="DejaVuSans-3c" d="M340.5,220.5l1.6,4.5,1.6-4.5h.8l-2,5.6h-.7l-2-5.6h.8Z"/>
              <path id="DejaVuSans-20-24" data-name="DejaVuSans-20" d="M344.9,219.5"/>
              <path id="DejaVuSans-30-17" data-name="DejaVuSans-30" d="M338.9,213.8c0,.5.2.8.7,1,.4.2,1.1.3,2,.3s1.6-.1,2-.3c.5-.2.7-.6.7-1s-.2-.8-.7-1c-.5-.2-1.1-.3-2-.3s-1.6.1-2,.3c-.5.2-.7.6-.7,1ZM338.2,213.8c0-.7.3-1.3.9-1.7.6-.4,1.4-.6,2.5-.6s1.9.2,2.5.6c.6.4.9,1,.9,1.7s-.3,1.3-.9,1.7c-.6.4-1.4.6-2.5.6s-2-.2-2.5-.6c-.6-.4-.9-.9-.9-1.7Z"/>
              <path id="DejaVuSans-2e-16" data-name="DejaVuSans-2e" d="M343.8,210v-.9h1.1v.9h-1.1Z"/>
              <path id="DejaVuSans-38" d="M341.8,205.2c0,.4.1.8.3,1,.2.2.5.4.9.4s.7-.1.9-.4c.2-.2.3-.6.3-1s-.1-.8-.3-1c-.2-.2-.5-.4-.9-.4s-.7.1-.9.4c-.2.2-.3.6-.3,1ZM341.4,206.1c0,.4-.3.7-.5.9-.3.2-.6.3-1,.3s-.9-.2-1.2-.6c-.3-.4-.5-.9-.5-1.5s.2-1.2.5-1.5.7-.6,1.2-.6.7.1,1,.3c.3.2.4.5.5.9,0-.4.3-.8.6-1,.3-.2.6-.4,1.1-.4.6,0,1.1.2,1.5.6.3.4.5.9.5,1.7s-.2,1.3-.5,1.7c-.3.4-.8.6-1.5.6s-.8-.1-1.1-.4c-.3-.2-.5-.6-.6-1ZM340,206.4c.3,0,.6-.1.8-.3.2-.2.3-.5.3-.9s0-.7-.3-.9c-.2-.2-.5-.3-.8-.3s-.6.1-.8.3c-.2.2-.3.5-.3.9s0,.7.3.9c.2.2.5.3.8.3Z"/>
            </g>
          </g>
        </g>
        <g id="xtick_9">
          <g id="line2d_17">
            <g class="cls-33">
              <path class="cls-6" d="M381.6,195.4V7.2"/>
            </g>
          </g>
          <g id="line2d_18">
            <path id="mc727129655-9" data-name="mc727129655" class="cls-8" d="M381.6,195.4v3.5"/>
          </g>
          <g id="text_9">
            <g>
              <path id="DejaVuSans-30-18" data-name="DejaVuSans-30" d="M378.1,253.3c0,.5.2.8.7,1,.4.2,1.1.3,2,.3s1.6-.1,2-.3c.5-.2.7-.6.7-1s-.2-.8-.7-1c-.5-.2-1.1-.3-2-.3s-1.6.1-2,.3c-.5.2-.7.6-.7,1ZM377.4,253.3c0-.7.3-1.3.9-1.7.6-.4,1.4-.6,2.5-.6s1.9.2,2.5.6c.6.4.9,1,.9,1.7s-.3,1.3-.9,1.7c-.6.4-1.4.6-2.5.6s-2-.2-2.5-.6c-.6-.4-.9-.9-.9-1.7Z"/>
              <path id="DejaVuSans-2e-17" data-name="DejaVuSans-2e" d="M383,249.5v-.9h1.1v.9h-1.1Z"/>
              <path id="DejaVuSans-38-2" data-name="DejaVuSans-38" d="M381,244.7c0,.4.1.8.3,1,.2.2.5.4.9.4s.7-.1.9-.4c.2-.2.3-.6.3-1s-.1-.8-.3-1c-.2-.2-.5-.4-.9-.4s-.7.1-.9.4c-.2.2-.3.6-.3,1ZM380.6,245.6c0,.4-.3.7-.5.9-.3.2-.6.3-1,.3s-.9-.2-1.2-.6c-.3-.4-.5-.9-.5-1.5s.2-1.2.5-1.5.7-.6,1.2-.6.7.1,1,.3c.3.2.4.5.5.9,0-.4.3-.8.6-1,.3-.2.6-.4,1.1-.4.6,0,1.1.2,1.5.6.3.4.5.9.5,1.7s-.2,1.3-.5,1.7c-.3.4-.8.6-1.5.6s-.8-.1-1.1-.4c-.3-.2-.5-.6-.6-1ZM379.2,245.9c.3,0,.6-.1.8-.3.2-.2.3-.5.3-.9s0-.7-.3-.9c-.2-.2-.5-.3-.8-.3s-.6.1-.8.3c-.2.2-.3.5-.3.9s0,.7.3.9c.2.2.5.3.8.3Z"/>
              <path id="DejaVuSans-20-25" data-name="DejaVuSans-20" d="M384.1,241.8"/>
              <path id="DejaVuSans-74-9" data-name="DejaVuSans-74" d="M377.8,237.3h1.4v-1.7h.6v1.7h2.7c.4,0,.7,0,.8-.2s.2-.3.2-.7v-.8h.7v.8c0,.6-.1,1.1-.3,1.3-.2.2-.7.4-1.3.4h-2.7v.6h-.6v-.6h-1.4v-.8Z"/>
              <path id="DejaVuSans-6f-9" data-name="DejaVuSans-6f" d="M379.8,232.7c0,.4.2.8.5,1s.8.4,1.4.4,1.1-.1,1.4-.4c.3-.3.5-.6.5-1s-.2-.8-.5-1c-.3-.3-.8-.4-1.4-.4s-1,.1-1.4.4c-.3.3-.5.6-.5,1ZM379.1,232.7c0-.7.2-1.3.7-1.7.5-.4,1.1-.6,1.9-.6s1.4.2,1.9.6c.5.4.7,1,.7,1.7s-.2,1.3-.7,1.7c-.5.4-1.1.6-1.9.6s-1.4-.2-1.9-.6c-.5-.4-.7-1-.7-1.7Z"/>
              <path id="DejaVuSans-20-26" data-name="DejaVuSans-20" d="M384.1,229.9"/>
              <path id="DejaVuSans-3c-9" data-name="DejaVuSans-3c" d="M379.7,220.5l1.6,4.5,1.6-4.5h.8l-2,5.6h-.7l-2-5.6h.8Z"/>
              <path id="DejaVuSans-20-27" data-name="DejaVuSans-20" d="M384.1,219.5"/>
              <path id="DejaVuSans-30-19" data-name="DejaVuSans-30" d="M378.1,213.8c0,.5.2.8.7,1,.4.2,1.1.3,2,.3s1.6-.1,2-.3c.5-.2.7-.6.7-1s-.2-.8-.7-1c-.5-.2-1.1-.3-2-.3s-1.6.1-2,.3c-.5.2-.7.6-.7,1ZM377.4,213.8c0-.7.3-1.3.9-1.7.6-.4,1.4-.6,2.5-.6s1.9.2,2.5.6c.6.4.9,1,.9,1.7s-.3,1.3-.9,1.7c-.6.4-1.4.6-2.5.6s-2-.2-2.5-.6c-.6-.4-.9-.9-.9-1.7Z"/>
              <path id="DejaVuSans-2e-18" data-name="DejaVuSans-2e" d="M383,210v-.9h1.1v.9h-1.1Z"/>
              <path id="DejaVuSans-39" d="M384,207.1h-.8c.1-.2.2-.4.2-.7,0-.2,0-.5,0-.7,0-.6-.2-1-.6-1.3-.4-.3-1-.5-1.8-.5.3.2.4.4.6.6.1.3.2.5.2.9,0,.7-.2,1.2-.6,1.6-.4.4-.9.6-1.6.6s-1.2-.2-1.6-.6c-.4-.4-.6-.9-.6-1.6s.3-1.3.9-1.7c.6-.4,1.4-.6,2.5-.6s1.9.2,2.5.7c.6.5.9,1.1.9,2s0,.4,0,.7c0,.2-.1.5-.2.7ZM381.2,205.3c0-.4-.1-.7-.4-.9-.3-.2-.6-.4-1.1-.4s-.8.1-1.1.4c-.3.2-.4.5-.4.9s.1.7.4.9c.3.2.6.3,1.1.3s.8-.1,1.1-.3c.3-.2.4-.5.4-.9Z"/>
            </g>
          </g>
        </g>
        <g id="xtick_10">
          <g id="line2d_19">
            <g class="cls-24">
              <path class="cls-6" d="M420.9,195.4V7.2"/>
            </g>
          </g>
          <g id="line2d_20">
            <path id="mc727129655-10" data-name="mc727129655" class="cls-8" d="M420.9,195.4v3.5"/>
          </g>
          <g id="text_10">
            <g>
              <path id="DejaVuSans-30-20" data-name="DejaVuSans-30" d="M417.4,253.3c0,.5.2.8.7,1,.4.2,1.1.3,2,.3s1.6-.1,2-.3c.5-.2.7-.6.7-1s-.2-.8-.7-1c-.5-.2-1.1-.3-2-.3s-1.6.1-2,.3c-.5.2-.7.6-.7,1ZM416.7,253.3c0-.7.3-1.3.9-1.7.6-.4,1.4-.6,2.5-.6s1.9.2,2.5.6c.6.4.9,1,.9,1.7s-.3,1.3-.9,1.7c-.6.4-1.4.6-2.5.6s-2-.2-2.5-.6c-.6-.4-.9-.9-.9-1.7Z"/>
              <path id="DejaVuSans-2e-19" data-name="DejaVuSans-2e" d="M422.2,249.5v-.9h1.1v.9h-1.1Z"/>
              <path id="DejaVuSans-39-2" data-name="DejaVuSans-39" d="M423.2,246.6h-.8c.1-.2.2-.4.2-.7,0-.2,0-.5,0-.7,0-.6-.2-1-.6-1.3-.4-.3-1-.5-1.8-.5.3.2.4.4.6.6.1.3.2.5.2.9,0,.7-.2,1.2-.6,1.6-.4.4-.9.6-1.6.6s-1.2-.2-1.6-.6c-.4-.4-.6-.9-.6-1.6s.3-1.3.9-1.7c.6-.4,1.4-.6,2.5-.6s1.9.2,2.5.7c.6.5.9,1.1.9,2s0,.4,0,.7c0,.2-.1.5-.2.7ZM420.4,244.8c0-.4-.1-.7-.4-.9-.3-.2-.6-.4-1.1-.4s-.8.1-1.1.4c-.3.2-.4.5-.4.9s.1.7.4.9c.3.2.6.3,1.1.3s.8-.1,1.1-.3c.3-.2.4-.5.4-.9Z"/>
              <path id="DejaVuSans-20-28" data-name="DejaVuSans-20" d="M423.4,241.8"/>
              <path id="DejaVuSans-74-10" data-name="DejaVuSans-74" d="M417,237.3h1.4v-1.7h.6v1.7h2.7c.4,0,.7,0,.8-.2s.2-.3.2-.7v-.8h.7v.8c0,.6-.1,1.1-.3,1.3-.2.2-.7.4-1.3.4h-2.7v.6h-.6v-.6h-1.4v-.8Z"/>
              <path id="DejaVuSans-6f-10" data-name="DejaVuSans-6f" d="M419,232.7c0,.4.2.8.5,1s.8.4,1.4.4,1.1-.1,1.4-.4c.3-.3.5-.6.5-1s-.2-.8-.5-1c-.3-.3-.8-.4-1.4-.4s-1,.1-1.4.4c-.3.3-.5.6-.5,1ZM418.3,232.7c0-.7.2-1.3.7-1.7.5-.4,1.1-.6,1.9-.6s1.4.2,1.9.6c.5.4.7,1,.7,1.7s-.2,1.3-.7,1.7c-.5.4-1.1.6-1.9.6s-1.4-.2-1.9-.6c-.5-.4-.7-1-.7-1.7Z"/>
              <path id="DejaVuSans-20-29" data-name="DejaVuSans-20" d="M423.4,229.9"/>
              <path id="DejaVuSans-3c-10" data-name="DejaVuSans-3c" d="M418.9,220.5l1.6,4.5,1.6-4.5h.8l-2,5.6h-.7l-2-5.6h.8Z"/>
              <path id="DejaVuSans-20-30" data-name="DejaVuSans-20" d="M423.4,219.5"/>
              <path id="DejaVuSans-31-3" data-name="DejaVuSans-31" d="M422.6,215.6v-1.4h-5l.3,1.6h-.8l-.3-1.6v-.9h5.8v-1.4h.7v3.8h-.7Z"/>
              <path id="DejaVuSans-2e-20" data-name="DejaVuSans-2e" d="M422.2,210v-.9h1.1v.9h-1.1Z"/>
              <path id="DejaVuSans-30-21" data-name="DejaVuSans-30" d="M417.4,205.2c0,.5.2.8.7,1,.4.2,1.1.3,2,.3s1.6-.1,2-.3c.5-.2.7-.6.7-1s-.2-.8-.7-1c-.5-.2-1.1-.3-2-.3s-1.6.1-2,.3c-.5.2-.7.6-.7,1ZM416.7,205.2c0-.7.3-1.3.9-1.7.6-.4,1.4-.6,2.5-.6s1.9.2,2.5.6c.6.4.9,1,.9,1.7s-.3,1.3-.9,1.7c-.6.4-1.4.6-2.5.6s-2-.2-2.5-.6c-.6-.4-.9-.9-.9-1.7Z"/>
            </g>
          </g>
        </g>
        <g id="text_11">
          <g>
            <path id="DejaVuSans-54" d="M197.2,263.7h6.2v.8h-2.6v6.5h-1v-6.5h-2.6v-.8Z"/>
            <path id="DejaVuSans-61" d="M205.1,268.3c-.7,0-1.2,0-1.5.2s-.4.4-.4.9.1.6.3.8c.2.2.5.3.9.3s.9-.2,1.2-.5.5-.8.5-1.4v-.2h-.9ZM206.9,267.9v3.1h-.9v-.8c-.2.3-.5.6-.8.7-.3.2-.7.2-1.1.2s-1-.2-1.3-.5c-.3-.3-.5-.7-.5-1.3s.2-1.1.6-1.4c.4-.3,1-.5,1.8-.5h1.3c0-.5-.1-.8-.4-1s-.7-.3-1.1-.3-.6,0-.9.1c-.3,0-.6.2-.9.3v-.8c.3-.1.6-.2,1-.3.3,0,.6,0,.9,0,.8,0,1.4.2,1.8.6.4.4.6,1,.6,1.9Z"/>
            <path id="DejaVuSans-6e" d="M213.3,267.7v3.3h-.9v-3.3c0-.5-.1-.9-.3-1.2-.2-.3-.5-.4-.9-.4s-.9.2-1.1.5c-.3.3-.4.7-.4,1.3v3.1h-.9v-5.5h.9v.9c.2-.3.5-.6.8-.7.3-.2.6-.2,1-.2.6,0,1.1.2,1.4.6.3.4.5,1,.5,1.7Z"/>
            <path id="DejaVuSans-69" d="M215.1,265.5h.9v5.5h-.9v-5.5ZM215.1,263.4h.9v1.1h-.9v-1.1Z"/>
            <path id="DejaVuSans-6d" d="M222.1,266.6c.2-.4.5-.7.8-.9s.7-.3,1.1-.3,1,.2,1.3.6c.3.4.5,1,.5,1.7v3.3h-.9v-3.3c0-.5,0-.9-.3-1.2-.2-.3-.5-.4-.8-.4s-.8.2-1.1.5c-.3.3-.4.7-.4,1.3v3.1h-.9v-3.3c0-.5,0-.9-.3-1.2s-.5-.4-.9-.4-.8.2-1.1.5c-.3.3-.4.7-.4,1.3v3.1h-.9v-5.5h.9v.9c.2-.3.5-.6.7-.7s.6-.2,1-.2.7.1,1,.3c.3.2.5.5.6.9Z"/>
            <path id="DejaVuSans-6f-11" data-name="DejaVuSans-6f" d="M229.7,266.2c-.5,0-.9.2-1.1.6s-.4.9-.4,1.5.1,1.2.4,1.5c.3.4.7.6,1.1.6s.9-.2,1.1-.6c.3-.4.4-.9.4-1.5s-.1-1.2-.4-1.5c-.3-.4-.7-.6-1.1-.6ZM229.7,265.4c.8,0,1.4.3,1.8.8.4.5.7,1.2.7,2.1s-.2,1.6-.7,2.1c-.4.5-1.1.8-1.8.8s-1.4-.3-1.8-.8c-.4-.5-.7-1.2-.7-2.1s.2-1.6.7-2.1c.4-.5,1.1-.8,1.8-.8Z"/>
            <path id="DejaVuSans-74-11" data-name="DejaVuSans-74" d="M234.6,264v1.6h1.9v.7h-1.9v3c0,.4,0,.7.2.9s.4.2.7.2h.9v.8h-.9c-.7,0-1.2-.1-1.4-.4-.3-.3-.4-.7-.4-1.4v-3h-.7v-.7h.7v-1.6h.9Z"/>
            <path id="DejaVuSans-6f-12" data-name="DejaVuSans-6f" d="M239.7,266.2c-.5,0-.9.2-1.1.6s-.4.9-.4,1.5.1,1.2.4,1.5c.3.4.7.6,1.1.6s.9-.2,1.1-.6c.3-.4.4-.9.4-1.5s-.1-1.2-.4-1.5c-.3-.4-.7-.6-1.1-.6ZM239.7,265.4c.8,0,1.4.3,1.8.8.4.5.7,1.2.7,2.1s-.2,1.6-.7,2.1c-.4.5-1.1.8-1.8.8s-1.4-.3-1.8-.8c-.4-.5-.7-1.2-.7-2.1s.2-1.6.7-2.1c.4-.5,1.1-.8,1.8-.8Z"/>
            <path id="DejaVuSans-20-31" data-name="DejaVuSans-20" d="M242.8,271"/>
            <path id="DejaVuSans-73" d="M250.4,265.7v.9c-.3-.1-.5-.2-.8-.3-.3,0-.6,0-.9,0-.4,0-.8,0-1,.2-.2.1-.3.3-.3.6s0,.4.2.5.5.2,1,.3h.3c.6.2,1.1.4,1.4.6s.4.6.4,1-.2.9-.6,1.2c-.4.3-1,.4-1.7.4s-.6,0-.9,0c-.3,0-.7-.1-1-.3v-.9c.3.2.7.3,1,.4.3,0,.6.1,1,.1s.7,0,1-.2c.2-.1.3-.3.3-.6s0-.4-.2-.6c-.2-.1-.5-.3-1.1-.4h-.3c-.6-.2-1-.4-1.2-.6-.2-.2-.4-.6-.4-1s.2-.9.5-1.2c.4-.3.9-.4,1.6-.4s.6,0,.9,0c.3,0,.6.1.8.2Z"/>
            <path id="DejaVuSans-63" d="M256.1,265.7v.8c-.3-.1-.5-.2-.8-.3s-.5-.1-.8-.1c-.6,0-1,.2-1.4.6-.3.4-.5.9-.5,1.6s.2,1.2.5,1.6c.3.4.8.6,1.4.6s.5,0,.8-.1.5-.2.8-.3v.8c-.3.1-.5.2-.8.3-.3,0-.6,0-.9,0-.8,0-1.5-.3-2-.8-.5-.5-.7-1.2-.7-2.1s.2-1.6.7-2.1c.5-.5,1.2-.8,2-.8s.5,0,.8,0c.3,0,.5.1.8.3Z"/>
            <path id="DejaVuSans-6f-13" data-name="DejaVuSans-6f" d="M259.7,266.2c-.5,0-.9.2-1.1.6s-.4.9-.4,1.5.1,1.2.4,1.5c.3.4.7.6,1.1.6s.9-.2,1.1-.6c.3-.4.4-.9.4-1.5s-.1-1.2-.4-1.5c-.3-.4-.7-.6-1.1-.6ZM259.7,265.4c.8,0,1.4.3,1.8.8.4.5.7,1.2.7,2.1s-.2,1.6-.7,2.1c-.4.5-1.1.8-1.8.8s-1.4-.3-1.8-.8c-.4-.5-.7-1.2-.7-2.1s.2-1.6.7-2.1c.4-.5,1.1-.8,1.8-.8Z"/>
            <path id="DejaVuSans-72" d="M266.9,266.4c-.1,0-.2-.1-.3-.1-.1,0-.2,0-.4,0-.5,0-.9.2-1.2.5s-.4.8-.4,1.4v2.9h-.9v-5.5h.9v.9c.2-.3.4-.6.7-.7.3-.2.7-.2,1.1-.2s.1,0,.2,0c0,0,.2,0,.2,0v.9Z"/>
            <path id="DejaVuSans-65" d="M272.3,268v.4h-4.1c0,.6.2,1.1.6,1.4.3.3.8.5,1.4.5s.7,0,1-.1.6-.2,1-.4v.9c-.3.1-.7.2-1,.3s-.7.1-1,.1c-.9,0-1.6-.3-2.1-.8-.5-.5-.8-1.2-.8-2.1s.2-1.6.7-2.1c.5-.5,1.1-.8,2-.8s1.3.2,1.7.7c.4.5.6,1.1.6,1.9ZM271.4,267.8c0-.5-.1-.9-.4-1.2-.3-.3-.6-.4-1.1-.4s-.9.1-1.2.4-.5.7-.5,1.2h3.2Z"/>
            <path id="DejaVuSans-20-32" data-name="DejaVuSans-20" d="M272.8,271"/>
            <path id="DejaVuSans-62" d="M280.9,268.3c0-.7-.1-1.2-.4-1.6s-.6-.6-1.1-.6-.9.2-1.1.6-.4.9-.4,1.6.1,1.2.4,1.6c.3.4.6.6,1.1.6s.8-.2,1.1-.6c.3-.4.4-.9.4-1.6ZM277.8,266.4c.2-.3.4-.6.7-.7.3-.2.6-.2,1-.2.7,0,1.2.3,1.6.8.4.5.6,1.2.6,2.1s-.2,1.6-.6,2.1c-.4.5-1,.8-1.6.8s-.7,0-1-.2c-.3-.2-.5-.4-.7-.7v.8h-.9v-7.6h.9v3Z"/>
            <path id="DejaVuSans-69-2" data-name="DejaVuSans-69" d="M283.3,265.5h.9v5.5h-.9v-5.5ZM283.3,263.4h.9v1.1h-.9v-1.1Z"/>
            <path id="DejaVuSans-6e-2" data-name="DejaVuSans-6e" d="M290.6,267.7v3.3h-.9v-3.3c0-.5-.1-.9-.3-1.2-.2-.3-.5-.4-.9-.4s-.9.2-1.1.5c-.3.3-.4.7-.4,1.3v3.1h-.9v-5.5h.9v.9c.2-.3.5-.6.8-.7.3-.2.6-.2,1-.2.6,0,1.1.2,1.4.6.3.4.5,1,.5,1.7Z"/>
          </g>
        </g>
      </g>
      <g id="matplotlib.axis_2">
        <g id="ytick_1">
          <g id="line2d_21">
            <g class="cls-25">
              <path class="cls-6" d="M50.1,180.3h388.4"/>
            </g>
          </g>
          <g id="line2d_22">
            <path id="m109ba76eaa" class="cls-8" d="M50.1,180.3h-3.5"/>
          </g>
          <g id="text_12">
            <g>
              <path id="DejaVuSans-30-22" data-name="DejaVuSans-30" d="M24.1,177.4c-.5,0-.9.3-1.1.8-.3.5-.4,1.3-.4,2.3s.1,1.7.4,2.2c.3.5.6.8,1.1.8s.9-.3,1.2-.8c.3-.5.4-1.2.4-2.2s-.1-1.8-.4-2.3c-.3-.5-.6-.8-1.2-.8ZM24.1,176.7c.8,0,1.4.3,1.9,1,.4.6.6,1.6.6,2.8s-.2,2.2-.6,2.8c-.4.6-1.1,1-1.9,1s-1.4-.3-1.9-1c-.4-.6-.6-1.6-.6-2.8s.2-2.2.6-2.8c.4-.6,1.1-1,1.9-1Z"/>
              <path id="DejaVuSans-2e-21" data-name="DejaVuSans-2e" d="M28.3,182.8h1v1.2h-1v-1.2Z"/>
              <path id="DejaVuSans-30-23" data-name="DejaVuSans-30" d="M33.6,177.4c-.5,0-.9.3-1.1.8-.3.5-.4,1.3-.4,2.3s.1,1.7.4,2.2c.3.5.6.8,1.1.8s.9-.3,1.2-.8c.3-.5.4-1.2.4-2.2s-.1-1.8-.4-2.3c-.3-.5-.6-.8-1.2-.8ZM33.6,176.7c.8,0,1.4.3,1.9,1,.4.6.6,1.6.6,2.8s-.2,2.2-.6,2.8c-.4.6-1.1,1-1.9,1s-1.4-.3-1.9-1c-.4-.6-.6-1.6-.6-2.8s.2-2.2.6-2.8c.4-.6,1.1-1,1.9-1Z"/>
              <path id="DejaVuSans-32-3" data-name="DejaVuSans-32" d="M38.7,183.3h3.4v.8h-4.6v-.8c.4-.4.9-.9,1.5-1.6.6-.7,1.1-1.1,1.2-1.3.3-.4.5-.7.7-.9.1-.2.2-.5.2-.7,0-.4-.1-.7-.4-.9-.3-.2-.6-.4-1.1-.4s-.6,0-1,.2c-.3.1-.7.3-1.1.5v-1c.4-.2.8-.3,1.1-.4.3,0,.7-.1.9-.1.8,0,1.4.2,1.8.6.4.4.7.9.7,1.5s0,.6-.2.9c-.1.3-.3.6-.6.9,0,0-.3.4-.8.8-.4.5-1.1,1.1-1.8,1.9Z"/>
            </g>
          </g>
        </g>
        <g id="ytick_2">
          <g id="line2d_23">
            <g class="cls-27">
              <path class="cls-6" d="M50.1,147.9h388.4"/>
            </g>
          </g>
          <g id="line2d_24">
            <path id="m109ba76eaa-2" data-name="m109ba76eaa" class="cls-8" d="M50.1,147.9h-3.5"/>
          </g>
          <g id="text_13">
            <g>
              <path id="DejaVuSans-30-24" data-name="DejaVuSans-30" d="M24.1,145.1c-.5,0-.9.3-1.1.8-.3.5-.4,1.3-.4,2.3s.1,1.7.4,2.2c.3.5.6.8,1.1.8s.9-.3,1.2-.8c.3-.5.4-1.2.4-2.2s-.1-1.8-.4-2.3c-.3-.5-.6-.8-1.2-.8ZM24.1,144.3c.8,0,1.4.3,1.9,1,.4.6.6,1.6.6,2.8s-.2,2.2-.6,2.8c-.4.6-1.1,1-1.9,1s-1.4-.3-1.9-1c-.4-.6-.6-1.6-.6-2.8s.2-2.2.6-2.8c.4-.6,1.1-1,1.9-1Z"/>
              <path id="DejaVuSans-2e-22" data-name="DejaVuSans-2e" d="M28.3,150.5h1v1.2h-1v-1.2Z"/>
              <path id="DejaVuSans-30-25" data-name="DejaVuSans-30" d="M33.6,145.1c-.5,0-.9.3-1.1.8-.3.5-.4,1.3-.4,2.3s.1,1.7.4,2.2c.3.5.6.8,1.1.8s.9-.3,1.2-.8c.3-.5.4-1.2.4-2.2s-.1-1.8-.4-2.3c-.3-.5-.6-.8-1.2-.8ZM33.6,144.3c.8,0,1.4.3,1.9,1,.4.6.6,1.6.6,2.8s-.2,2.2-.6,2.8c-.4.6-1.1,1-1.9,1s-1.4-.3-1.9-1c-.4-.6-.6-1.6-.6-2.8s.2-2.2.6-2.8c.4-.6,1.1-1,1.9-1Z"/>
              <path id="DejaVuSans-33-3" data-name="DejaVuSans-33" d="M40.8,147.8c.5.1.8.3,1.1.6.3.3.4.7.4,1.2,0,.7-.2,1.3-.7,1.7-.5.4-1.2.6-2.1.6s-.6,0-.9,0c-.3,0-.7-.2-1-.3v-1c.3.2.6.3.9.4.3,0,.7.1,1,.1.6,0,1.1-.1,1.4-.4s.5-.6.5-1.1-.2-.8-.5-1c-.3-.2-.7-.4-1.3-.4h-.9v-.8h.9c.5,0,.9,0,1.1-.3s.4-.5.4-.8-.1-.7-.4-.9c-.3-.2-.6-.3-1.1-.3s-.6,0-.9,0c-.3,0-.6.1-1,.3v-.9c.4-.1.7-.2,1.1-.2s.6,0,.9,0c.7,0,1.3.2,1.8.5.4.3.7.8.7,1.4s-.1.7-.3,1-.6.5-1,.6Z"/>
            </g>
          </g>
        </g>
        <g id="ytick_3">
          <g id="line2d_25">
            <g class="cls-35">
              <path class="cls-6" d="M50.1,115.6h388.4"/>
            </g>
          </g>
          <g id="line2d_26">
            <path id="m109ba76eaa-3" data-name="m109ba76eaa" class="cls-8" d="M50.1,115.6h-3.5"/>
          </g>
          <g id="text_14">
            <g>
              <path id="DejaVuSans-30-26" data-name="DejaVuSans-30" d="M24.1,112.7c-.5,0-.9.3-1.1.8-.3.5-.4,1.3-.4,2.3s.1,1.7.4,2.2c.3.5.6.8,1.1.8s.9-.3,1.2-.8c.3-.5.4-1.2.4-2.2s-.1-1.8-.4-2.3c-.3-.5-.6-.8-1.2-.8ZM24.1,112c.8,0,1.4.3,1.9,1,.4.6.6,1.6.6,2.8s-.2,2.2-.6,2.8c-.4.6-1.1,1-1.9,1s-1.4-.3-1.9-1c-.4-.6-.6-1.6-.6-2.8s.2-2.2.6-2.8c.4-.6,1.1-1,1.9-1Z"/>
              <path id="DejaVuSans-2e-23" data-name="DejaVuSans-2e" d="M28.3,118.1h1v1.2h-1v-1.2Z"/>
              <path id="DejaVuSans-30-27" data-name="DejaVuSans-30" d="M33.6,112.7c-.5,0-.9.3-1.1.8-.3.5-.4,1.3-.4,2.3s.1,1.7.4,2.2c.3.5.6.8,1.1.8s.9-.3,1.2-.8c.3-.5.4-1.2.4-2.2s-.1-1.8-.4-2.3c-.3-.5-.6-.8-1.2-.8ZM33.6,112c.8,0,1.4.3,1.9,1,.4.6.6,1.6.6,2.8s-.2,2.2-.6,2.8c-.4.6-1.1,1-1.9,1s-1.4-.3-1.9-1c-.4-.6-.6-1.6-.6-2.8s.2-2.2.6-2.8c.4-.6,1.1-1,1.9-1Z"/>
              <path id="DejaVuSans-34-3" data-name="DejaVuSans-34" d="M40.6,112.9l-2.5,3.9h2.5v-3.9ZM40.3,112.1h1.2v4.8h1v.8h-1v1.7h-1v-1.7h-3.3v-1l3-4.6Z"/>
            </g>
          </g>
        </g>
        <g id="ytick_4">
          <g id="line2d_27">
            <g class="cls-40">
              <path class="cls-6" d="M50.1,83.2h388.4"/>
            </g>
          </g>
          <g id="line2d_28">
            <path id="m109ba76eaa-4" data-name="m109ba76eaa" class="cls-8" d="M50.1,83.2h-3.5"/>
          </g>
          <g id="text_15">
            <g>
              <path id="DejaVuSans-30-28" data-name="DejaVuSans-30" d="M24.1,80.4c-.5,0-.9.3-1.1.8-.3.5-.4,1.3-.4,2.3s.1,1.7.4,2.2c.3.5.6.8,1.1.8s.9-.3,1.2-.8c.3-.5.4-1.2.4-2.2s-.1-1.8-.4-2.3c-.3-.5-.6-.8-1.2-.8ZM24.1,79.6c.8,0,1.4.3,1.9,1,.4.6.6,1.6.6,2.8s-.2,2.2-.6,2.8c-.4.6-1.1,1-1.9,1s-1.4-.3-1.9-1c-.4-.6-.6-1.6-.6-2.8s.2-2.2.6-2.8c.4-.6,1.1-1,1.9-1Z"/>
              <path id="DejaVuSans-2e-24" data-name="DejaVuSans-2e" d="M28.3,85.8h1v1.2h-1v-1.2Z"/>
              <path id="DejaVuSans-30-29" data-name="DejaVuSans-30" d="M33.6,80.4c-.5,0-.9.3-1.1.8-.3.5-.4,1.3-.4,2.3s.1,1.7.4,2.2c.3.5.6.8,1.1.8s.9-.3,1.2-.8c.3-.5.4-1.2.4-2.2s-.1-1.8-.4-2.3c-.3-.5-.6-.8-1.2-.8ZM33.6,79.6c.8,0,1.4.3,1.9,1,.4.6.6,1.6.6,2.8s-.2,2.2-.6,2.8c-.4.6-1.1,1-1.9,1s-1.4-.3-1.9-1c-.4-.6-.6-1.6-.6-2.8s.2-2.2.6-2.8c.4-.6,1.1-1,1.9-1Z"/>
              <path id="DejaVuSans-35-3" data-name="DejaVuSans-35" d="M37.9,79.7h3.9v.8h-3v1.8c.1,0,.3,0,.4-.1.1,0,.3,0,.4,0,.8,0,1.5.2,1.9.7.5.4.7,1,.7,1.8s-.2,1.4-.7,1.8c-.5.4-1.2.7-2.1.7s-.6,0-.9,0c-.3,0-.6-.1-1-.2v-1c.3.2.6.3.9.4s.6.1,1,.1c.6,0,1-.1,1.3-.4.3-.3.5-.7.5-1.2s-.2-.9-.5-1.2c-.3-.3-.8-.4-1.3-.4s-.5,0-.8,0c-.3,0-.5.1-.8.3v-3.7Z"/>
            </g>
          </g>
        </g>
        <g id="ytick_5">
          <g id="line2d_29">
            <g class="cls-36">
              <path class="cls-6" d="M50.1,50.9h388.4"/>
            </g>
          </g>
          <g id="line2d_30">
            <path id="m109ba76eaa-5" data-name="m109ba76eaa" class="cls-8" d="M50.1,50.9h-3.5"/>
          </g>
          <g id="text_16">
            <g>
              <path id="DejaVuSans-30-30" data-name="DejaVuSans-30" d="M24.1,48c-.5,0-.9.3-1.1.8-.3.5-.4,1.3-.4,2.3s.1,1.7.4,2.2c.3.5.6.8,1.1.8s.9-.3,1.2-.8c.3-.5.4-1.2.4-2.2s-.1-1.8-.4-2.3c-.3-.5-.6-.8-1.2-.8ZM24.1,47.2c.8,0,1.4.3,1.9,1,.4.6.6,1.6.6,2.8s-.2,2.2-.6,2.8c-.4.6-1.1,1-1.9,1s-1.4-.3-1.9-1c-.4-.6-.6-1.6-.6-2.8s.2-2.2.6-2.8c.4-.6,1.1-1,1.9-1Z"/>
              <path id="DejaVuSans-2e-25" data-name="DejaVuSans-2e" d="M28.3,53.4h1v1.2h-1v-1.2Z"/>
              <path id="DejaVuSans-30-31" data-name="DejaVuSans-30" d="M33.6,48c-.5,0-.9.3-1.1.8-.3.5-.4,1.3-.4,2.3s.1,1.7.4,2.2c.3.5.6.8,1.1.8s.9-.3,1.2-.8c.3-.5.4-1.2.4-2.2s-.1-1.8-.4-2.3c-.3-.5-.6-.8-1.2-.8ZM33.6,47.2c.8,0,1.4.3,1.9,1,.4.6.6,1.6.6,2.8s-.2,2.2-.6,2.8c-.4.6-1.1,1-1.9,1s-1.4-.3-1.9-1c-.4-.6-.6-1.6-.6-2.8s.2-2.2.6-2.8c.4-.6,1.1-1,1.9-1Z"/>
              <path id="DejaVuSans-36-3" data-name="DejaVuSans-36" d="M40.1,50.6c-.4,0-.8.2-1.1.5-.3.3-.4.7-.4,1.2s.1.9.4,1.2c.3.3.6.5,1.1.5s.8-.2,1.1-.5c.3-.3.4-.7.4-1.2s-.1-.9-.4-1.2c-.3-.3-.6-.5-1.1-.5ZM42,47.5v.9c-.2-.1-.5-.2-.8-.3-.3,0-.5,0-.8,0-.7,0-1.1.2-1.5.7-.3.4-.5,1.1-.6,2,.2-.3.4-.5.7-.7.3-.2.6-.2,1-.2.7,0,1.3.2,1.7.7.4.4.6,1,.6,1.8s-.2,1.4-.7,1.8c-.4.5-1,.7-1.8.7s-1.5-.3-1.9-1c-.4-.6-.7-1.6-.7-2.8s.3-2.1.8-2.8c.5-.7,1.3-1,2.2-1s.5,0,.8,0,.5.1.8.2Z"/>
            </g>
          </g>
        </g>
        <g id="ytick_6">
          <g id="line2d_31">
            <g class="cls-17">
              <path class="cls-6" d="M50.1,18.5h388.4"/>
            </g>
          </g>
          <g id="line2d_32">
            <path id="m109ba76eaa-6" data-name="m109ba76eaa" class="cls-8" d="M50.1,18.5h-3.5"/>
          </g>
          <g id="text_17">
            <g>
              <path id="DejaVuSans-30-32" data-name="DejaVuSans-30" d="M24.1,15.7c-.5,0-.9.3-1.1.8-.3.5-.4,1.3-.4,2.3s.1,1.7.4,2.2c.3.5.6.8,1.1.8s.9-.3,1.2-.8c.3-.5.4-1.2.4-2.2s-.1-1.8-.4-2.3c-.3-.5-.6-.8-1.2-.8ZM24.1,14.9c.8,0,1.4.3,1.9,1,.4.6.6,1.6.6,2.8s-.2,2.2-.6,2.8c-.4.6-1.1,1-1.9,1s-1.4-.3-1.9-1c-.4-.6-.6-1.6-.6-2.8s.2-2.2.6-2.8c.4-.6,1.1-1,1.9-1Z"/>
              <path id="DejaVuSans-2e-26" data-name="DejaVuSans-2e" d="M28.3,21.1h1v1.2h-1v-1.2Z"/>
              <path id="DejaVuSans-30-33" data-name="DejaVuSans-30" d="M33.6,15.7c-.5,0-.9.3-1.1.8-.3.5-.4,1.3-.4,2.3s.1,1.7.4,2.2c.3.5.6.8,1.1.8s.9-.3,1.2-.8c.3-.5.4-1.2.4-2.2s-.1-1.8-.4-2.3c-.3-.5-.6-.8-1.2-.8ZM33.6,14.9c.8,0,1.4.3,1.9,1,.4.6.6,1.6.6,2.8s-.2,2.2-.6,2.8c-.4.6-1.1,1-1.9,1s-1.4-.3-1.9-1c-.4-.6-.6-1.6-.6-2.8s.2-2.2.6-2.8c.4-.6,1.1-1,1.9-1Z"/>
              <path id="DejaVuSans-37-3" data-name="DejaVuSans-37" d="M37.6,15h4.7v.4l-2.6,6.9h-1l2.5-6.5h-3.5v-.8Z"/>
            </g>
          </g>
        </g>
        <g id="text_18">
          <g>
            <path id="DejaVuSans-4d" d="M7.5,111v-1.5l5-1.9-5-1.9v-1.5h7.3v1h-6.4l5,1.9v1l-5,1.9h6.4v1h-7.3Z"/>
            <path id="DejaVuSans-53" d="M7.7,98h1c-.2.4-.3.7-.4,1.1,0,.3-.1.7-.1,1,0,.5.1,1,.3,1.2.2.3.5.4.9.4s.6,0,.7-.3c.2-.2.3-.6.4-1.1v-.6c.3-.7.5-1.3.9-1.6s.8-.5,1.4-.5,1.2.2,1.6.7c.4.5.5,1.2.5,2.1s0,.7-.1,1.1c0,.4-.2.8-.3,1.2h-1c.2-.4.4-.8.5-1.2.1-.4.2-.8.2-1.1,0-.6-.1-1-.3-1.3-.2-.3-.5-.5-.9-.5s-.6.1-.8.3-.4.6-.5,1.1v.6c-.3.7-.5,1.3-.8,1.6-.3.3-.7.5-1.3.5s-1.2-.2-1.5-.7c-.4-.5-.6-1.1-.6-1.9s0-.7,0-1c0-.4.2-.7.3-1.1Z"/>
            <path id="DejaVuSans-45" d="M7.5,96v-4.6h.8v3.6h2.2v-3.5h.8v3.5h2.6v-3.7h.8v4.7h-7.3Z"/>
          </g>
        </g>
      </g>
      <g id="line2d_33">
        <g class="cls-38">
          <path class="cls-7" d="M67.8,116.7l39.2,4.3,39.2,16,39.2,27.2,39.2,12.5,39.2-2.5,39.2-5.3,39.2-14.7,39.2-49.6,39.2-88.6"/>
        </g>
        <g class="cls-16">
          <g>
            <path id="mf1b1ae3164" class="cls-1" d="M67.8,119.7c.8,0,1.6-.3,2.1-.9.6-.6.9-1.3.9-2.1s-.3-1.6-.9-2.1c-.6-.6-1.3-.9-2.1-.9s-1.6.3-2.1.9c-.6.6-.9,1.3-.9,2.1s.3,1.6.9,2.1c.6.6,1.3.9,2.1.9Z"/>
            <path id="mf1b1ae3164-2" data-name="mf1b1ae3164" class="cls-1" d="M107,123.9c.8,0,1.6-.3,2.1-.9.6-.6.9-1.3.9-2.1s-.3-1.6-.9-2.1c-.6-.6-1.3-.9-2.1-.9s-1.6.3-2.1.9c-.6.6-.9,1.3-.9,2.1s.3,1.6.9,2.1c.6.6,1.3.9,2.1.9Z"/>
            <path id="mf1b1ae3164-3" data-name="mf1b1ae3164" class="cls-1" d="M146.3,139.9c.8,0,1.6-.3,2.1-.9.6-.6.9-1.3.9-2.1s-.3-1.6-.9-2.1c-.6-.6-1.3-.9-2.1-.9s-1.6.3-2.1.9c-.6.6-.9,1.3-.9,2.1s.3,1.6.9,2.1c.6.6,1.3.9,2.1.9Z"/>
            <path id="mf1b1ae3164-4" data-name="mf1b1ae3164" class="cls-1" d="M185.5,167.1c.8,0,1.6-.3,2.1-.9.6-.6.9-1.3.9-2.1s-.3-1.6-.9-2.1c-.6-.6-1.3-.9-2.1-.9s-1.6.3-2.1.9c-.6.6-.9,1.3-.9,2.1s.3,1.6.9,2.1c.6.6,1.3.9,2.1.9Z"/>
            <path id="mf1b1ae3164-5" data-name="mf1b1ae3164" class="cls-1" d="M224.7,179.6c.8,0,1.6-.3,2.1-.9.6-.6.9-1.3.9-2.1s-.3-1.6-.9-2.1c-.6-.6-1.3-.9-2.1-.9s-1.6.3-2.1.9c-.6.6-.9,1.3-.9,2.1s.3,1.6.9,2.1c.6.6,1.3.9,2.1.9Z"/>
            <path id="mf1b1ae3164-6" data-name="mf1b1ae3164" class="cls-1" d="M263.9,177c.8,0,1.6-.3,2.1-.9.6-.6.9-1.3.9-2.1s-.3-1.6-.9-2.1c-.6-.6-1.3-.9-2.1-.9s-1.6.3-2.1.9c-.6.6-.9,1.3-.9,2.1s.3,1.6.9,2.1c.6.6,1.3.9,2.1.9Z"/>
            <path id="mf1b1ae3164-7" data-name="mf1b1ae3164" class="cls-1" d="M303.2,171.7c.8,0,1.6-.3,2.1-.9.6-.6.9-1.3.9-2.1s-.3-1.6-.9-2.1c-.6-.6-1.3-.9-2.1-.9s-1.6.3-2.1.9c-.6.6-.9,1.3-.9,2.1s.3,1.6.9,2.1c.6.6,1.3.9,2.1.9Z"/>
            <path id="mf1b1ae3164-8" data-name="mf1b1ae3164" class="cls-1" d="M342.4,157c.8,0,1.6-.3,2.1-.9.6-.6.9-1.3.9-2.1s-.3-1.6-.9-2.1c-.6-.6-1.3-.9-2.1-.9s-1.6.3-2.1.9c-.6.6-.9,1.3-.9,2.1s.3,1.6.9,2.1c.6.6,1.3.9,2.1.9Z"/>
            <path id="mf1b1ae3164-9" data-name="mf1b1ae3164" class="cls-1" d="M381.6,107.4c.8,0,1.6-.3,2.1-.9.6-.6.9-1.3.9-2.1s-.3-1.6-.9-2.1c-.6-.6-1.3-.9-2.1-.9s-1.6.3-2.1.9c-.6.6-.9,1.3-.9,2.1s.3,1.6.9,2.1c.6.6,1.3.9,2.1.9Z"/>
            <path id="mf1b1ae3164-10" data-name="mf1b1ae3164" class="cls-1" d="M420.9,18.8c.8,0,1.6-.3,2.1-.9.6-.6.9-1.3.9-2.1s-.3-1.6-.9-2.1c-.6-.6-1.3-.9-2.1-.9s-1.6.3-2.1.9c-.6.6-.9,1.3-.9,2.1s.3,1.6.9,2.1c.6.6,1.3.9,2.1.9Z"/>
          </g>
        </g>
      </g>
      <g id="line2d_34">
        <g class="cls-18">
          <path class="cls-3" d="M67.8,130.8l39.2-4.2,39.2,12.9,39.2,26,39.2,10.6,39.2-3.5,39.2-3.1,39.2-12.9,39.2-48.5,39.2-85.9"/>
        </g>
        <g class="cls-37">
          <g>
            <path id="mf124ef8cd3" class="cls-2" d="M67.8,133.8c.8,0,1.6-.3,2.1-.9.6-.6.9-1.3.9-2.1s-.3-1.6-.9-2.1c-.6-.6-1.3-.9-2.1-.9s-1.6.3-2.1.9c-.6.6-.9,1.3-.9,2.1s.3,1.6.9,2.1c.6.6,1.3.9,2.1.9Z"/>
            <path id="mf124ef8cd3-2" data-name="mf124ef8cd3" class="cls-2" d="M107,129.6c.8,0,1.6-.3,2.1-.9.6-.6.9-1.3.9-2.1s-.3-1.6-.9-2.1c-.6-.6-1.3-.9-2.1-.9s-1.6.3-2.1.9c-.6.6-.9,1.3-.9,2.1s.3,1.6.9,2.1c.6.6,1.3.9,2.1.9Z"/>
            <path id="mf124ef8cd3-3" data-name="mf124ef8cd3" class="cls-2" d="M146.3,142.5c.8,0,1.6-.3,2.1-.9.6-.6.9-1.3.9-2.1s-.3-1.6-.9-2.1c-.6-.6-1.3-.9-2.1-.9s-1.6.3-2.1.9c-.6.6-.9,1.3-.9,2.1s.3,1.6.9,2.1c.6.6,1.3.9,2.1.9Z"/>
            <path id="mf124ef8cd3-4" data-name="mf124ef8cd3" class="cls-2" d="M185.5,168.5c.8,0,1.6-.3,2.1-.9.6-.6.9-1.3.9-2.1s-.3-1.6-.9-2.1c-.6-.6-1.3-.9-2.1-.9s-1.6.3-2.1.9c-.6.6-.9,1.3-.9,2.1s.3,1.6.9,2.1c.6.6,1.3.9,2.1.9Z"/>
            <path id="mf124ef8cd3-5" data-name="mf124ef8cd3" class="cls-2" d="M224.7,179.1c.8,0,1.6-.3,2.1-.9.6-.6.9-1.3.9-2.1s-.3-1.6-.9-2.1c-.6-.6-1.3-.9-2.1-.9s-1.6.3-2.1.9c-.6.6-.9,1.3-.9,2.1s.3,1.6.9,2.1c.6.6,1.3.9,2.1.9Z"/>
            <path id="mf124ef8cd3-6" data-name="mf124ef8cd3" class="cls-2" d="M263.9,175.6c.8,0,1.6-.3,2.1-.9.6-.6.9-1.3.9-2.1s-.3-1.6-.9-2.1c-.6-.6-1.3-.9-2.1-.9s-1.6.3-2.1.9c-.6.6-.9,1.3-.9,2.1s.3,1.6.9,2.1c.6.6,1.3.9,2.1.9Z"/>
            <path id="mf124ef8cd3-7" data-name="mf124ef8cd3" class="cls-2" d="M303.2,172.5c.8,0,1.6-.3,2.1-.9.6-.6.9-1.3.9-2.1s-.3-1.6-.9-2.1c-.6-.6-1.3-.9-2.1-.9s-1.6.3-2.1.9c-.6.6-.9,1.3-.9,2.1s.3,1.6.9,2.1c.6.6,1.3.9,2.1.9Z"/>
            <path id="mf124ef8cd3-8" data-name="mf124ef8cd3" class="cls-2" d="M342.4,159.6c.8,0,1.6-.3,2.1-.9.6-.6.9-1.3.9-2.1s-.3-1.6-.9-2.1c-.6-.6-1.3-.9-2.1-.9s-1.6.3-2.1.9c-.6.6-.9,1.3-.9,2.1s.3,1.6.9,2.1c.6.6,1.3.9,2.1.9Z"/>
            <path id="mf124ef8cd3-9" data-name="mf124ef8cd3" class="cls-2" d="M381.6,111c.8,0,1.6-.3,2.1-.9.6-.6.9-1.3.9-2.1s-.3-1.6-.9-2.1c-.6-.6-1.3-.9-2.1-.9s-1.6.3-2.1.9c-.6.6-.9,1.3-.9,2.1s.3,1.6.9,2.1c.6.6,1.3.9,2.1.9Z"/>
            <path id="mf124ef8cd3-10" data-name="mf124ef8cd3" class="cls-2" d="M420.9,25.1c.8,0,1.6-.3,2.1-.9.6-.6.9-1.3.9-2.1s-.3-1.6-.9-2.1c-.6-.6-1.3-.9-2.1-.9s-1.6.3-2.1.9c-.6.6-.9,1.3-.9,2.1s.3,1.6.9,2.1c.6.6,1.3.9,2.1.9Z"/>
          </g>
        </g>
      </g>
      <g id="line2d_35">
        <g class="cls-32">
          <path class="cls-5" d="M67.8,149l39.2-16,39.2,10.7,39.2,24.9,39.2,5.5,39.2-5.9,39.2,1,39.2-7.7,39.2-45.9,39.2-78.2"/>
        </g>
        <g class="cls-13">
          <g>
            <path id="m46d8cb98f5" class="cls-9" d="M67.8,152c.8,0,1.6-.3,2.1-.9.6-.6.9-1.3.9-2.1s-.3-1.6-.9-2.1c-.6-.6-1.3-.9-2.1-.9s-1.6.3-2.1.9c-.6.6-.9,1.3-.9,2.1s.3,1.6.9,2.1c.6.6,1.3.9,2.1.9Z"/>
            <path id="m46d8cb98f5-2" data-name="m46d8cb98f5" class="cls-9" d="M107,136c.8,0,1.6-.3,2.1-.9.6-.6.9-1.3.9-2.1s-.3-1.6-.9-2.1c-.6-.6-1.3-.9-2.1-.9s-1.6.3-2.1.9c-.6.6-.9,1.3-.9,2.1s.3,1.6.9,2.1c.6.6,1.3.9,2.1.9Z"/>
            <path id="m46d8cb98f5-3" data-name="m46d8cb98f5" class="cls-9" d="M146.3,146.7c.8,0,1.6-.3,2.1-.9.6-.6.9-1.3.9-2.1s-.3-1.6-.9-2.1c-.6-.6-1.3-.9-2.1-.9s-1.6.3-2.1.9c-.6.6-.9,1.3-.9,2.1s.3,1.6.9,2.1c.6.6,1.3.9,2.1.9Z"/>
            <path id="m46d8cb98f5-4" data-name="m46d8cb98f5" class="cls-9" d="M185.5,171.6c.8,0,1.6-.3,2.1-.9.6-.6.9-1.3.9-2.1s-.3-1.6-.9-2.1c-.6-.6-1.3-.9-2.1-.9s-1.6.3-2.1.9c-.6.6-.9,1.3-.9,2.1s.3,1.6.9,2.1c.6.6,1.3.9,2.1.9Z"/>
            <path id="m46d8cb98f5-5" data-name="m46d8cb98f5" class="cls-9" d="M224.7,177.1c.8,0,1.6-.3,2.1-.9.6-.6.9-1.3.9-2.1s-.3-1.6-.9-2.1c-.6-.6-1.3-.9-2.1-.9s-1.6.3-2.1.9c-.6.6-.9,1.3-.9,2.1s.3,1.6.9,2.1c.6.6,1.3.9,2.1.9Z"/>
            <path id="m46d8cb98f5-6" data-name="m46d8cb98f5" class="cls-9" d="M263.9,171.2c.8,0,1.6-.3,2.1-.9.6-.6.9-1.3.9-2.1s-.3-1.6-.9-2.1c-.6-.6-1.3-.9-2.1-.9s-1.6.3-2.1.9c-.6.6-.9,1.3-.9,2.1s.3,1.6.9,2.1c.6.6,1.3.9,2.1.9Z"/>
            <path id="m46d8cb98f5-7" data-name="m46d8cb98f5" class="cls-9" d="M303.2,172.1c.8,0,1.6-.3,2.1-.9.6-.6.9-1.3.9-2.1s-.3-1.6-.9-2.1c-.6-.6-1.3-.9-2.1-.9s-1.6.3-2.1.9c-.6.6-.9,1.3-.9,2.1s.3,1.6.9,2.1c.6.6,1.3.9,2.1.9Z"/>
            <path id="m46d8cb98f5-8" data-name="m46d8cb98f5" class="cls-9" d="M342.4,164.4c.8,0,1.6-.3,2.1-.9.6-.6.9-1.3.9-2.1s-.3-1.6-.9-2.1c-.6-.6-1.3-.9-2.1-.9s-1.6.3-2.1.9c-.6.6-.9,1.3-.9,2.1s.3,1.6.9,2.1c.6.6,1.3.9,2.1.9Z"/>
            <path id="m46d8cb98f5-9" data-name="m46d8cb98f5" class="cls-9" d="M381.6,118.5c.8,0,1.6-.3,2.1-.9.6-.6.9-1.3.9-2.1s-.3-1.6-.9-2.1c-.6-.6-1.3-.9-2.1-.9s-1.6.3-2.1.9c-.6.6-.9,1.3-.9,2.1s.3,1.6.9,2.1c.6.6,1.3.9,2.1.9Z"/>
            <path id="m46d8cb98f5-10" data-name="m46d8cb98f5" class="cls-9" d="M420.9,40.3c.8,0,1.6-.3,2.1-.9.6-.6.9-1.3.9-2.1s-.3-1.6-.9-2.1c-.6-.6-1.3-.9-2.1-.9s-1.6.3-2.1.9c-.6.6-.9,1.3-.9,2.1s.3,1.6.9,2.1c.6.6,1.3.9,2.1.9Z"/>
          </g>
        </g>
      </g>
      <g id="line2d_36">
        <g class="cls-20">
          <path class="cls-10" d="M67.8,166.6l39.2-27.1,39.2,8.8,39.2,23.4,39.2,1.8,39.2-4.6,39.2,2.4,39.2-4,39.2-42.6,39.2-64.4"/>
        </g>
        <g class="cls-21">
          <g>
            <path id="med5724bd43" class="cls-12" d="M67.8,169.6c.8,0,1.6-.3,2.1-.9.6-.6.9-1.3.9-2.1s-.3-1.6-.9-2.1c-.6-.6-1.3-.9-2.1-.9s-1.6.3-2.1.9c-.6.6-.9,1.3-.9,2.1s.3,1.6.9,2.1c.6.6,1.3.9,2.1.9Z"/>
            <path id="med5724bd43-2" data-name="med5724bd43" class="cls-12" d="M107,142.4c.8,0,1.6-.3,2.1-.9.6-.6.9-1.3.9-2.1s-.3-1.6-.9-2.1c-.6-.6-1.3-.9-2.1-.9s-1.6.3-2.1.9c-.6.6-.9,1.3-.9,2.1s.3,1.6.9,2.1c.6.6,1.3.9,2.1.9Z"/>
            <path id="med5724bd43-3" data-name="med5724bd43" class="cls-12" d="M146.3,151.2c.8,0,1.6-.3,2.1-.9.6-.6.9-1.3.9-2.1s-.3-1.6-.9-2.1c-.6-.6-1.3-.9-2.1-.9s-1.6.3-2.1.9c-.6.6-.9,1.3-.9,2.1s.3,1.6.9,2.1c.6.6,1.3.9,2.1.9Z"/>
            <path id="med5724bd43-4" data-name="med5724bd43" class="cls-12" d="M185.5,174.6c.8,0,1.6-.3,2.1-.9.6-.6.9-1.3.9-2.1s-.3-1.6-.9-2.1c-.6-.6-1.3-.9-2.1-.9s-1.6.3-2.1.9c-.6.6-.9,1.3-.9,2.1s.3,1.6.9,2.1c.6.6,1.3.9,2.1.9Z"/>
            <path id="med5724bd43-5" data-name="med5724bd43" class="cls-12" d="M224.7,176.5c.8,0,1.6-.3,2.1-.9.6-.6.9-1.3.9-2.1s-.3-1.6-.9-2.1c-.6-.6-1.3-.9-2.1-.9s-1.6.3-2.1.9c-.6.6-.9,1.3-.9,2.1s.3,1.6.9,2.1c.6.6,1.3.9,2.1.9Z"/>
            <path id="med5724bd43-6" data-name="med5724bd43" class="cls-12" d="M263.9,171.8c.8,0,1.6-.3,2.1-.9.6-.6.9-1.3.9-2.1s-.3-1.6-.9-2.1c-.6-.6-1.3-.9-2.1-.9s-1.6.3-2.1.9c-.6.6-.9,1.3-.9,2.1s.3,1.6.9,2.1c.6.6,1.3.9,2.1.9Z"/>
            <path id="med5724bd43-7" data-name="med5724bd43" class="cls-12" d="M303.2,174.3c.8,0,1.6-.3,2.1-.9.6-.6.9-1.3.9-2.1s-.3-1.6-.9-2.1c-.6-.6-1.3-.9-2.1-.9s-1.6.3-2.1.9c-.6.6-.9,1.3-.9,2.1s.3,1.6.9,2.1c.6.6,1.3.9,2.1.9Z"/>
            <path id="med5724bd43-8" data-name="med5724bd43" class="cls-12" d="M342.4,170.3c.8,0,1.6-.3,2.1-.9.6-.6.9-1.3.9-2.1s-.3-1.6-.9-2.1c-.6-.6-1.3-.9-2.1-.9s-1.6.3-2.1.9c-.6.6-.9,1.3-.9,2.1s.3,1.6.9,2.1c.6.6,1.3.9,2.1.9Z"/>
            <path id="med5724bd43-9" data-name="med5724bd43" class="cls-12" d="M381.6,127.7c.8,0,1.6-.3,2.1-.9.6-.6.9-1.3.9-2.1s-.3-1.6-.9-2.1c-.6-.6-1.3-.9-2.1-.9s-1.6.3-2.1.9c-.6.6-.9,1.3-.9,2.1s.3,1.6.9,2.1c.6.6,1.3.9,2.1.9Z"/>
            <path id="med5724bd43-10" data-name="med5724bd43" class="cls-12" d="M420.9,63.3c.8,0,1.6-.3,2.1-.9.6-.6.9-1.3.9-2.1s-.3-1.6-.9-2.1c-.6-.6-1.3-.9-2.1-.9s-1.6.3-2.1.9c-.6.6-.9,1.3-.9,2.1s.3,1.6.9,2.1c.6.6,1.3.9,2.1.9Z"/>
          </g>
        </g>
      </g>
      <g id="line2d_37">
        <g class="cls-41">
          <path class="cls-11" d="M67.8,186.8l39.2-33.7,39.2,3.7,39.2,17.9,39.2-2,39.2-6.4,39.2,1.7,39.2,4,39.2-31.7,39.2-35.7"/>
        </g>
        <g class="cls-26">
          <g>
            <path id="m7f790ce9a2" class="cls-4" d="M67.8,189.8c.8,0,1.6-.3,2.1-.9.6-.6.9-1.3.9-2.1s-.3-1.6-.9-2.1c-.6-.6-1.3-.9-2.1-.9s-1.6.3-2.1.9c-.6.6-.9,1.3-.9,2.1s.3,1.6.9,2.1c.6.6,1.3.9,2.1.9Z"/>
            <path id="m7f790ce9a2-2" data-name="m7f790ce9a2" class="cls-4" d="M107,156.1c.8,0,1.6-.3,2.1-.9.6-.6.9-1.3.9-2.1s-.3-1.6-.9-2.1c-.6-.6-1.3-.9-2.1-.9s-1.6.3-2.1.9c-.6.6-.9,1.3-.9,2.1s.3,1.6.9,2.1c.6.6,1.3.9,2.1.9Z"/>
            <path id="m7f790ce9a2-3" data-name="m7f790ce9a2" class="cls-4" d="M146.3,159.8c.8,0,1.6-.3,2.1-.9.6-.6.9-1.3.9-2.1s-.3-1.6-.9-2.1c-.6-.6-1.3-.9-2.1-.9s-1.6.3-2.1.9c-.6.6-.9,1.3-.9,2.1s.3,1.6.9,2.1c.6.6,1.3.9,2.1.9Z"/>
            <path id="m7f790ce9a2-4" data-name="m7f790ce9a2" class="cls-4" d="M185.5,177.7c.8,0,1.6-.3,2.1-.9.6-.6.9-1.3.9-2.1s-.3-1.6-.9-2.1c-.6-.6-1.3-.9-2.1-.9s-1.6.3-2.1.9c-.6.6-.9,1.3-.9,2.1s.3,1.6.9,2.1c.6.6,1.3.9,2.1.9Z"/>
            <path id="m7f790ce9a2-5" data-name="m7f790ce9a2" class="cls-4" d="M224.7,175.7c.8,0,1.6-.3,2.1-.9.6-.6.9-1.3.9-2.1s-.3-1.6-.9-2.1c-.6-.6-1.3-.9-2.1-.9s-1.6.3-2.1.9c-.6.6-.9,1.3-.9,2.1s.3,1.6.9,2.1c.6.6,1.3.9,2.1.9Z"/>
            <path id="m7f790ce9a2-6" data-name="m7f790ce9a2" class="cls-4" d="M263.9,169.2c.8,0,1.6-.3,2.1-.9.6-.6.9-1.3.9-2.1s-.3-1.6-.9-2.1c-.6-.6-1.3-.9-2.1-.9s-1.6.3-2.1.9c-.6.6-.9,1.3-.9,2.1s.3,1.6.9,2.1c.6.6,1.3.9,2.1.9Z"/>
            <path id="m7f790ce9a2-7" data-name="m7f790ce9a2" class="cls-4" d="M303.2,170.9c.8,0,1.6-.3,2.1-.9.6-.6.9-1.3.9-2.1s-.3-1.6-.9-2.1c-.6-.6-1.3-.9-2.1-.9s-1.6.3-2.1.9c-.6.6-.9,1.3-.9,2.1s.3,1.6.9,2.1c.6.6,1.3.9,2.1.9Z"/>
            <path id="m7f790ce9a2-8" data-name="m7f790ce9a2" class="cls-4" d="M342.4,174.9c.8,0,1.6-.3,2.1-.9.6-.6.9-1.3.9-2.1s-.3-1.6-.9-2.1c-.6-.6-1.3-.9-2.1-.9s-1.6.3-2.1.9c-.6.6-.9,1.3-.9,2.1s.3,1.6.9,2.1c.6.6,1.3.9,2.1.9Z"/>
            <path id="m7f790ce9a2-9" data-name="m7f790ce9a2" class="cls-4" d="M381.6,143.2c.8,0,1.6-.3,2.1-.9.6-.6.9-1.3.9-2.1s-.3-1.6-.9-2.1c-.6-.6-1.3-.9-2.1-.9s-1.6.3-2.1.9c-.6.6-.9,1.3-.9,2.1s.3,1.6.9,2.1c.6.6,1.3.9,2.1.9Z"/>
            <path id="m7f790ce9a2-10" data-name="m7f790ce9a2" class="cls-4" d="M420.9,107.5c.8,0,1.6-.3,2.1-.9.6-.6.9-1.3.9-2.1s-.3-1.6-.9-2.1c-.6-.6-1.3-.9-2.1-.9s-1.6.3-2.1.9c-.6.6-.9,1.3-.9,2.1s.3,1.6.9,2.1c.6.6,1.3.9,2.1.9Z"/>
          </g>
        </g>
      </g>
      <g id="patch_3">
        <path class="cls-29" d="M50.1,195.4V7.2"/>
      </g>
      <g id="patch_4">
        <path class="cls-29" d="M438.5,195.4V7.2"/>
      </g>
      <g id="patch_5">
        <path class="cls-29" d="M50.1,195.4h388.4"/>
      </g>
      <g id="patch_6">
        <path class="cls-29" d="M50.1,7.2h388.4"/>
      </g>
      <g id="legend_1">
        <g id="patch_7">
          <path class="cls-22" d="M62.4,105.6h113.6c1.3,0,2-.7,2-2V16.5c0-1.3-.7-2-2-2H62.4c-1.3,0-2,.7-2,2v87.1c0,1.3.7,2,2,2Z"/>
        </g>
        <g id="text_19">
          <g>
            <path id="DejaVuSans-50" d="M66.4,19.6v2.7h1.2c.5,0,.8-.1,1.1-.4.3-.2.4-.6.4-1s-.1-.8-.4-1c-.3-.2-.6-.4-1.1-.4h-1.2ZM65.4,18.8h2.2c.8,0,1.4.2,1.9.6.4.4.6.9.6,1.6s-.2,1.3-.6,1.6c-.4.4-1,.6-1.9.6h-1.2v2.9h-1v-7.3Z"/>
            <path id="DejaVuSans-65-2" data-name="DejaVuSans-65" d="M75.7,23.2v.4h-4.1c0,.6.2,1.1.6,1.4.3.3.8.5,1.4.5s.7,0,1-.1.6-.2,1-.4v.9c-.3.1-.7.2-1,.3s-.7.1-1,.1c-.9,0-1.6-.3-2.1-.8-.5-.5-.8-1.2-.8-2.1s.2-1.6.7-2.1c.5-.5,1.1-.8,2-.8s1.3.2,1.7.7c.4.5.6,1.1.6,1.9ZM74.8,22.9c0-.5-.1-.9-.4-1.2-.3-.3-.6-.4-1.1-.4s-.9.1-1.2.4-.5.7-.5,1.2h3.2Z"/>
            <path id="DejaVuSans-72-2" data-name="DejaVuSans-72" d="M80.4,21.5c-.1,0-.2-.1-.3-.1-.1,0-.2,0-.4,0-.5,0-.9.2-1.2.5s-.4.8-.4,1.4v2.9h-.9v-5.5h.9v.9c.2-.3.4-.6.7-.7.3-.2.7-.2,1.1-.2s.1,0,.2,0c0,0,.2,0,.2,0v.9Z"/>
            <path id="DejaVuSans-63-2" data-name="DejaVuSans-63" d="M85,20.9v.8c-.3-.1-.5-.2-.8-.3s-.5-.1-.8-.1c-.6,0-1,.2-1.4.6-.3.4-.5.9-.5,1.6s.2,1.2.5,1.6c.3.4.8.6,1.4.6s.5,0,.8-.1.5-.2.8-.3v.8c-.3.1-.5.2-.8.3-.3,0-.6,0-.9,0-.8,0-1.5-.3-2-.8-.5-.5-.7-1.2-.7-2.1s.2-1.6.7-2.1c.5-.5,1.2-.8,2-.8s.5,0,.8,0c.3,0,.5.1.8.3Z"/>
            <path id="DejaVuSans-65-3" data-name="DejaVuSans-65" d="M91.3,23.2v.4h-4.1c0,.6.2,1.1.6,1.4.3.3.8.5,1.4.5s.7,0,1-.1.6-.2,1-.4v.9c-.3.1-.7.2-1,.3s-.7.1-1,.1c-.9,0-1.6-.3-2.1-.8-.5-.5-.8-1.2-.8-2.1s.2-1.6.7-2.1c.5-.5,1.1-.8,2-.8s1.3.2,1.7.7c.4.5.6,1.1.6,1.9ZM90.4,22.9c0-.5-.1-.9-.4-1.2-.3-.3-.6-.4-1.1-.4s-.9.1-1.2.4-.5.7-.5,1.2h3.2Z"/>
            <path id="DejaVuSans-6e-3" data-name="DejaVuSans-6e" d="M97.3,22.8v3.3h-.9v-3.3c0-.5-.1-.9-.3-1.2-.2-.3-.5-.4-.9-.4s-.9.2-1.1.5c-.3.3-.4.7-.4,1.3v3.1h-.9v-5.5h.9v.9c.2-.3.5-.6.8-.7.3-.2.6-.2,1-.2.6,0,1.1.2,1.4.6.3.4.5,1,.5,1.7Z"/>
            <path id="DejaVuSans-74-12" data-name="DejaVuSans-74" d="M100,19.1v1.6h1.9v.7h-1.9v3c0,.4,0,.7.2.9s.4.2.7.2h.9v.8h-.9c-.7,0-1.2-.1-1.4-.4-.3-.3-.4-.7-.4-1.4v-3h-.7v-.7h.7v-1.6h.9Z"/>
            <path id="DejaVuSans-61-2" data-name="DejaVuSans-61" d="M105.5,23.4c-.7,0-1.2,0-1.5.2s-.4.4-.4.9.1.6.3.8c.2.2.5.3.9.3s.9-.2,1.2-.5.5-.8.5-1.4v-.2h-.9ZM107.3,23v3.1h-.9v-.8c-.2.3-.5.6-.8.7-.3.2-.7.2-1.1.2s-1-.2-1.3-.5c-.3-.3-.5-.7-.5-1.3s.2-1.1.6-1.4c.4-.3,1-.5,1.8-.5h1.3c0-.5-.1-.8-.4-1s-.7-.3-1.1-.3-.6,0-.9.1c-.3,0-.6.2-.9.3v-.8c.3-.1.6-.2,1-.3.3,0,.6,0,.9,0,.8,0,1.4.2,1.8.6.4.4.6,1,.6,1.9Z"/>
            <path id="DejaVuSans-67" d="M112.7,23.3c0-.7-.1-1.2-.4-1.5-.3-.4-.6-.5-1.1-.5s-.9.2-1.1.5c-.3.4-.4.9-.4,1.5s.1,1.2.4,1.5c.3.4.6.5,1.1.5s.9-.2,1.1-.5c.3-.4.4-.9.4-1.5ZM113.6,25.4c0,.9-.2,1.6-.6,2.1-.4.5-1,.7-1.9.7s-.6,0-.9,0-.6-.1-.8-.2v-.9c.3.1.5.2.8.3.3,0,.5.1.8.1.6,0,1-.2,1.3-.5.3-.3.4-.8.4-1.4v-.4c-.2.3-.4.6-.7.7s-.6.2-1,.2c-.7,0-1.2-.3-1.6-.8-.4-.5-.6-1.2-.6-2s.2-1.5.6-2c.4-.5,1-.8,1.6-.8s.8,0,1,.2.5.4.7.7v-.8h.9v4.8Z"/>
            <path id="DejaVuSans-65-4" data-name="DejaVuSans-65" d="M120.2,23.2v.4h-4.1c0,.6.2,1.1.6,1.4.3.3.8.5,1.4.5s.7,0,1-.1.6-.2,1-.4v.9c-.3.1-.7.2-1,.3s-.7.1-1,.1c-.9,0-1.6-.3-2.1-.8-.5-.5-.8-1.2-.8-2.1s.2-1.6.7-2.1c.5-.5,1.1-.8,2-.8s1.3.2,1.7.7c.4.5.6,1.1.6,1.9ZM119.3,22.9c0-.5-.1-.9-.4-1.2-.3-.3-.6-.4-1.1-.4s-.9.1-1.2.4-.5.7-.5,1.2h3.2Z"/>
            <path id="DejaVuSans-20-33" data-name="DejaVuSans-20" d="M120.7,26.1"/>
            <path id="DejaVuSans-6f-14" data-name="DejaVuSans-6f" d="M126.9,21.3c-.5,0-.9.2-1.1.6s-.4.9-.4,1.5.1,1.2.4,1.5c.3.4.7.6,1.1.6s.9-.2,1.1-.6c.3-.4.4-.9.4-1.5s-.1-1.2-.4-1.5c-.3-.4-.7-.6-1.1-.6ZM126.9,20.5c.8,0,1.4.3,1.8.8.4.5.7,1.2.7,2.1s-.2,1.6-.7,2.1c-.4.5-1.1.8-1.8.8s-1.4-.3-1.8-.8c-.4-.5-.7-1.2-.7-2.1s.2-1.6.7-2.1c.4-.5,1.1-.8,1.8-.8Z"/>
            <path id="DejaVuSans-66" d="M133.7,18.5v.7h-.9c-.3,0-.5,0-.7.2-.1.1-.2.4-.2.7v.5h1.5v.7h-1.5v4.8h-.9v-4.8h-.9v-.7h.9v-.4c0-.6.1-1.1.4-1.3.3-.3.7-.4,1.3-.4h.9Z"/>
            <path id="DejaVuSans-20-34" data-name="DejaVuSans-20" d="M133.5,26.1"/>
            <path id="DejaVuSans-73-2" data-name="DejaVuSans-73" d="M141.1,20.8v.9c-.3-.1-.5-.2-.8-.3-.3,0-.6,0-.9,0-.4,0-.8,0-1,.2-.2.1-.3.3-.3.6s0,.4.2.5.5.2,1,.3h.3c.6.2,1.1.4,1.4.6s.4.6.4,1-.2.9-.6,1.2c-.4.3-1,.4-1.7.4s-.6,0-.9,0c-.3,0-.7-.1-1-.3v-.9c.3.2.7.3,1,.4.3,0,.6.1,1,.1s.7,0,1-.2c.2-.1.3-.3.3-.6s0-.4-.2-.6c-.2-.1-.5-.3-1.1-.4h-.3c-.6-.2-1-.4-1.2-.6-.2-.2-.4-.6-.4-1s.2-.9.5-1.2c.4-.3.9-.4,1.6-.4s.6,0,.9,0c.3,0,.6.1.8.2Z"/>
            <path id="DejaVuSans-70" d="M143.7,25.3v2.9h-.9v-7.5h.9v.8c.2-.3.4-.6.7-.7.3-.2.6-.2,1-.2.7,0,1.2.3,1.6.8.4.5.6,1.2.6,2.1s-.2,1.6-.6,2.1c-.4.5-1,.8-1.6.8s-.7,0-1-.2c-.3-.2-.5-.4-.7-.7ZM146.8,23.4c0-.7-.1-1.2-.4-1.6s-.6-.6-1.1-.6-.9.2-1.1.6-.4.9-.4,1.6.1,1.2.4,1.6c.3.4.6.6,1.1.6s.8-.2,1.1-.6c.3-.4.4-.9.4-1.6Z"/>
            <path id="DejaVuSans-65-5" data-name="DejaVuSans-65" d="M153.9,23.2v.4h-4.1c0,.6.2,1.1.6,1.4.3.3.8.5,1.4.5s.7,0,1-.1.6-.2,1-.4v.9c-.3.1-.7.2-1,.3s-.7.1-1,.1c-.9,0-1.6-.3-2.1-.8-.5-.5-.8-1.2-.8-2.1s.2-1.6.7-2.1c.5-.5,1.1-.8,2-.8s1.3.2,1.7.7c.4.5.6,1.1.6,1.9ZM153,22.9c0-.5-.1-.9-.4-1.2-.3-.3-.6-.4-1.1-.4s-.9.1-1.2.4-.5.7-.5,1.2h3.2Z"/>
            <path id="DejaVuSans-63-3" data-name="DejaVuSans-63" d="M159.3,20.9v.8c-.3-.1-.5-.2-.8-.3s-.5-.1-.8-.1c-.6,0-1,.2-1.4.6-.3.4-.5.9-.5,1.6s.2,1.2.5,1.6c.3.4.8.6,1.4.6s.5,0,.8-.1.5-.2.8-.3v.8c-.3.1-.5.2-.8.3-.3,0-.6,0-.9,0-.8,0-1.5-.3-2-.8-.5-.5-.7-1.2-.7-2.1s.2-1.6.7-2.1c.5-.5,1.2-.8,2-.8s.5,0,.8,0c.3,0,.5.1.8.3Z"/>
            <path id="DejaVuSans-74-13" data-name="DejaVuSans-74" d="M161.7,19.1v1.6h1.9v.7h-1.9v3c0,.4,0,.7.2.9s.4.2.7.2h.9v.8h-.9c-.7,0-1.2-.1-1.4-.4-.3-.3-.4-.7-.4-1.4v-3h-.7v-.7h.7v-1.6h.9Z"/>
            <path id="DejaVuSans-72-3" data-name="DejaVuSans-72" d="M167.9,21.5c-.1,0-.2-.1-.3-.1-.1,0-.2,0-.4,0-.5,0-.9.2-1.2.5s-.4.8-.4,1.4v2.9h-.9v-5.5h.9v.9c.2-.3.4-.6.7-.7.3-.2.7-.2,1.1-.2s.1,0,.2,0c0,0,.2,0,.2,0v.9Z"/>
            <path id="DejaVuSans-61-3" data-name="DejaVuSans-61" d="M171.4,23.4c-.7,0-1.2,0-1.5.2s-.4.4-.4.9.1.6.3.8c.2.2.5.3.9.3s.9-.2,1.2-.5.5-.8.5-1.4v-.2h-.9ZM173.1,23v3.1h-.9v-.8c-.2.3-.5.6-.8.7-.3.2-.7.2-1.1.2s-1-.2-1.3-.5c-.3-.3-.5-.7-.5-1.3s.2-1.1.6-1.4c.4-.3,1-.5,1.8-.5h1.3c0-.5-.1-.8-.4-1s-.7-.3-1.1-.3-.6,0-.9.1c-.3,0-.6.2-.9.3v-.8c.3-.1.6-.2,1-.3.3,0,.6,0,.9,0,.8,0,1.4.2,1.8.6.4.4.6,1,.6,1.9Z"/>
          </g>
        </g>
        <g id="line2d_38">
          <path class="cls-7" d="M91,37.3h20"/>
          <path id="mf1b1ae3164-11" data-name="mf1b1ae3164" class="cls-1" d="M101,40.3c.8,0,1.6-.3,2.1-.9.6-.6.9-1.3.9-2.1s-.3-1.6-.9-2.1c-.6-.6-1.3-.9-2.1-.9s-1.6.3-2.1.9c-.6.6-.9,1.3-.9,2.1s.3,1.6.9,2.1c.6.6,1.3.9,2.1.9Z"/>
        </g>
        <g id="text_20">
          <g>
            <path id="DejaVuSans-31-4" data-name="DejaVuSans-31" d="M120.2,40h1.6v-5.6l-1.8.4v-.9l1.7-.4h1v6.5h1.6v.8h-4.2v-.8Z"/>
            <path id="DejaVuSans-30-34" data-name="DejaVuSans-30" d="M128.5,34.2c-.5,0-.9.3-1.1.8-.3.5-.4,1.3-.4,2.3s.1,1.7.4,2.2c.3.5.6.8,1.1.8s.9-.3,1.2-.8c.3-.5.4-1.2.4-2.2s-.1-1.8-.4-2.3c-.3-.5-.6-.8-1.2-.8ZM128.5,33.4c.8,0,1.4.3,1.9,1,.4.6.6,1.6.6,2.8s-.2,2.2-.6,2.8c-.4.6-1.1,1-1.9,1s-1.4-.3-1.9-1c-.4-.6-.6-1.6-.6-2.8s.2-2.2.6-2.8c.4-.6,1.1-1,1.9-1Z"/>
            <path id="DejaVuSans-30-35" data-name="DejaVuSans-30" d="M134.9,34.2c-.5,0-.9.3-1.1.8-.3.5-.4,1.3-.4,2.3s.1,1.7.4,2.2c.3.5.6.8,1.1.8s.9-.3,1.2-.8c.3-.5.4-1.2.4-2.2s-.1-1.8-.4-2.3c-.3-.5-.6-.8-1.2-.8ZM134.9,33.4c.8,0,1.4.3,1.9,1,.4.6.6,1.6.6,2.8s-.2,2.2-.6,2.8c-.4.6-1.1,1-1.9,1s-1.4-.3-1.9-1c-.4-.6-.6-1.6-.6-2.8s.2-2.2.6-2.8c.4-.6,1.1-1,1.9-1Z"/>
            <path id="DejaVuSans-25" d="M145.3,37.6c-.3,0-.5.1-.7.4-.2.2-.2.6-.2,1s0,.8.2,1c.2.2.4.4.7.4s.5-.1.7-.4c.2-.2.2-.6.2-1s0-.8-.2-1c-.2-.2-.4-.4-.7-.4ZM145.3,37c.5,0,.9.2,1.2.5.3.4.5.8.5,1.5s-.2,1.1-.5,1.4c-.3.4-.7.5-1.2.5s-.9-.2-1.2-.5c-.3-.4-.5-.8-.5-1.4s.2-1.1.5-1.5.7-.5,1.2-.5ZM140.3,34c-.3,0-.5.1-.7.4-.2.2-.2.6-.2,1s0,.8.2,1c.2.2.4.4.7.4s.5-.1.7-.4c.2-.2.2-.6.2-1s0-.8-.2-1c-.2-.2-.4-.4-.7-.4ZM144.7,33.4h.8l-4.6,7.6h-.8l4.6-7.6ZM140.3,33.4c.5,0,.9.2,1.2.5.3.4.5.8.5,1.4s-.2,1.1-.5,1.5c-.3.4-.7.5-1.2.5s-.9-.2-1.2-.5c-.3-.4-.5-.8-.5-1.5s.2-1.1.5-1.4c.3-.4.7-.5,1.2-.5Z"/>
          </g>
        </g>
        <g id="line2d_39">
          <path class="cls-3" d="M91,52h20"/>
          <path id="mf124ef8cd3-11" data-name="mf124ef8cd3" class="cls-2" d="M101,55c.8,0,1.6-.3,2.1-.9.6-.6.9-1.3.9-2.1s-.3-1.6-.9-2.1c-.6-.6-1.3-.9-2.1-.9s-1.6.3-2.1.9c-.6.6-.9,1.3-.9,2.1s.3,1.6.9,2.1c.6.6,1.3.9,2.1.9Z"/>
        </g>
        <g id="text_21">
          <g>
            <path id="DejaVuSans-38-3" data-name="DejaVuSans-38" d="M122.1,52c-.5,0-.8.1-1.1.4-.3.3-.4.6-.4,1s.1.8.4,1c.3.3.6.4,1.1.4s.8-.1,1.1-.4c.3-.3.4-.6.4-1s-.1-.8-.4-1c-.3-.3-.6-.4-1.1-.4ZM121.1,51.6c-.4-.1-.8-.3-1-.6-.2-.3-.4-.6-.4-1.1s.2-1,.6-1.4c.4-.3,1-.5,1.7-.5s1.3.2,1.7.5.6.8.6,1.4-.1.8-.4,1.1c-.2.3-.6.5-1,.6.5.1.8.3,1.1.7.3.3.4.7.4,1.2,0,.7-.2,1.3-.6,1.6-.4.4-1,.6-1.9.6s-1.4-.2-1.9-.6c-.4-.4-.6-.9-.6-1.6s.1-.9.4-1.2c.3-.3.6-.5,1.1-.7ZM120.8,50c0,.4.1.7.4.9.2.2.6.3,1,.3s.8-.1,1-.3c.2-.2.4-.5.4-.9s-.1-.7-.4-.9c-.2-.2-.6-.3-1-.3s-.8.1-1,.3c-.2.2-.4.5-.4.9Z"/>
            <path id="DejaVuSans-30-36" data-name="DejaVuSans-30" d="M128.5,48.8c-.5,0-.9.3-1.1.8-.3.5-.4,1.3-.4,2.3s.1,1.7.4,2.2c.3.5.6.8,1.1.8s.9-.3,1.2-.8c.3-.5.4-1.2.4-2.2s-.1-1.8-.4-2.3c-.3-.5-.6-.8-1.2-.8ZM128.5,48.1c.8,0,1.4.3,1.9,1,.4.6.6,1.6.6,2.8s-.2,2.2-.6,2.8c-.4.6-1.1,1-1.9,1s-1.4-.3-1.9-1c-.4-.6-.6-1.6-.6-2.8s.2-2.2.6-2.8c.4-.6,1.1-1,1.9-1Z"/>
            <path id="DejaVuSans-25-2" data-name="DejaVuSans-25" d="M139,52.3c-.3,0-.5.1-.7.4-.2.2-.2.6-.2,1s0,.8.2,1c.2.2.4.4.7.4s.5-.1.7-.4c.2-.2.2-.6.2-1s0-.8-.2-1c-.2-.2-.4-.4-.7-.4ZM139,51.7c.5,0,.9.2,1.2.5.3.4.5.8.5,1.5s-.2,1.1-.5,1.4c-.3.4-.7.5-1.2.5s-.9-.2-1.2-.5c-.3-.4-.5-.8-.5-1.4s.2-1.1.5-1.5.7-.5,1.2-.5ZM133.9,48.7c-.3,0-.5.1-.7.4-.2.2-.2.6-.2,1s0,.8.2,1c.2.2.4.4.7.4s.5-.1.7-.4c.2-.2.2-.6.2-1s0-.8-.2-1c-.2-.2-.4-.4-.7-.4ZM138.3,48.1h.8l-4.6,7.6h-.8l4.6-7.6ZM133.9,48.1c.5,0,.9.2,1.2.5.3.4.5.8.5,1.4s-.2,1.1-.5,1.5c-.3.4-.7.5-1.2.5s-.9-.2-1.2-.5c-.3-.4-.5-.8-.5-1.5s.2-1.1.5-1.4c.3-.4.7-.5,1.2-.5Z"/>
          </g>
        </g>
        <g id="line2d_40">
          <path class="cls-5" d="M91,66.7h20"/>
          <path id="m46d8cb98f5-11" data-name="m46d8cb98f5" class="cls-9" d="M101,69.7c.8,0,1.6-.3,2.1-.9.6-.6.9-1.3.9-2.1s-.3-1.6-.9-2.1c-.6-.6-1.3-.9-2.1-.9s-1.6.3-2.1.9c-.6.6-.9,1.3-.9,2.1s.3,1.6.9,2.1c.6.6,1.3.9,2.1.9Z"/>
        </g>
        <g id="text_22">
          <g>
            <path id="DejaVuSans-36-4" data-name="DejaVuSans-36" d="M122.3,66.1c-.4,0-.8.2-1.1.5-.3.3-.4.7-.4,1.2s.1.9.4,1.2c.3.3.6.5,1.1.5s.8-.2,1.1-.5c.3-.3.4-.7.4-1.2s-.1-.9-.4-1.2c-.3-.3-.6-.5-1.1-.5ZM124.2,63v.9c-.2-.1-.5-.2-.8-.3-.3,0-.5,0-.8,0-.7,0-1.1.2-1.5.7-.3.4-.5,1.1-.6,2,.2-.3.4-.5.7-.7.3-.2.6-.2,1-.2.7,0,1.3.2,1.7.7.4.4.6,1,.6,1.8s-.2,1.4-.7,1.8c-.4.5-1,.7-1.8.7s-1.5-.3-1.9-1c-.4-.6-.7-1.6-.7-2.8s.3-2.1.8-2.8c.5-.7,1.3-1,2.2-1s.5,0,.8,0,.5.1.8.2Z"/>
            <path id="DejaVuSans-30-37" data-name="DejaVuSans-30" d="M128.5,63.5c-.5,0-.9.3-1.1.8-.3.5-.4,1.3-.4,2.3s.1,1.7.4,2.2c.3.5.6.8,1.1.8s.9-.3,1.2-.8c.3-.5.4-1.2.4-2.2s-.1-1.8-.4-2.3c-.3-.5-.6-.8-1.2-.8ZM128.5,62.7c.8,0,1.4.3,1.9,1,.4.6.6,1.6.6,2.8s-.2,2.2-.6,2.8c-.4.6-1.1,1-1.9,1s-1.4-.3-1.9-1c-.4-.6-.6-1.6-.6-2.8s.2-2.2.6-2.8c.4-.6,1.1-1,1.9-1Z"/>
            <path id="DejaVuSans-25-3" data-name="DejaVuSans-25" d="M139,66.9c-.3,0-.5.1-.7.4-.2.2-.2.6-.2,1s0,.8.2,1c.2.2.4.4.7.4s.5-.1.7-.4c.2-.2.2-.6.2-1s0-.8-.2-1c-.2-.2-.4-.4-.7-.4ZM139,66.3c.5,0,.9.2,1.2.5.3.4.5.8.5,1.5s-.2,1.1-.5,1.4c-.3.4-.7.5-1.2.5s-.9-.2-1.2-.5c-.3-.4-.5-.8-.5-1.4s.2-1.1.5-1.5.7-.5,1.2-.5ZM133.9,63.4c-.3,0-.5.1-.7.4-.2.2-.2.6-.2,1s0,.8.2,1c.2.2.4.4.7.4s.5-.1.7-.4c.2-.2.2-.6.2-1s0-.8-.2-1c-.2-.2-.4-.4-.7-.4ZM138.3,62.7h.8l-4.6,7.6h-.8l4.6-7.6ZM133.9,62.7c.5,0,.9.2,1.2.5.3.4.5.8.5,1.4s-.2,1.1-.5,1.5c-.3.4-.7.5-1.2.5s-.9-.2-1.2-.5c-.3-.4-.5-.8-.5-1.5s.2-1.1.5-1.4c.3-.4.7-.5,1.2-.5Z"/>
          </g>
        </g>
        <g id="line2d_41">
          <path class="cls-10" d="M91,81.3h20"/>
          <path id="med5724bd43-11" data-name="med5724bd43" class="cls-12" d="M101,84.3c.8,0,1.6-.3,2.1-.9.6-.6.9-1.3.9-2.1s-.3-1.6-.9-2.1c-.6-.6-1.3-.9-2.1-.9s-1.6.3-2.1.9c-.6.6-.9,1.3-.9,2.1s.3,1.6.9,2.1c.6.6,1.3.9,2.1.9Z"/>
        </g>
        <g id="text_23">
          <g>
            <path id="DejaVuSans-34-4" data-name="DejaVuSans-34" d="M122.7,78.4l-2.5,3.9h2.5v-3.9ZM122.5,77.5h1.2v4.8h1v.8h-1v1.7h-1v-1.7h-3.3v-1l3-4.6Z"/>
            <path id="DejaVuSans-30-38" data-name="DejaVuSans-30" d="M128.5,78.2c-.5,0-.9.3-1.1.8-.3.5-.4,1.3-.4,2.3s.1,1.7.4,2.2c.3.5.6.8,1.1.8s.9-.3,1.2-.8c.3-.5.4-1.2.4-2.2s-.1-1.8-.4-2.3c-.3-.5-.6-.8-1.2-.8ZM128.5,77.4c.8,0,1.4.3,1.9,1,.4.6.6,1.6.6,2.8s-.2,2.2-.6,2.8c-.4.6-1.1,1-1.9,1s-1.4-.3-1.9-1c-.4-.6-.6-1.6-.6-2.8s.2-2.2.6-2.8c.4-.6,1.1-1,1.9-1Z"/>
            <path id="DejaVuSans-25-4" data-name="DejaVuSans-25" d="M139,81.6c-.3,0-.5.1-.7.4-.2.2-.2.6-.2,1s0,.8.2,1c.2.2.4.4.7.4s.5-.1.7-.4c.2-.2.2-.6.2-1s0-.8-.2-1c-.2-.2-.4-.4-.7-.4ZM139,81c.5,0,.9.2,1.2.5.3.4.5.8.5,1.5s-.2,1.1-.5,1.4c-.3.4-.7.5-1.2.5s-.9-.2-1.2-.5c-.3-.4-.5-.8-.5-1.4s.2-1.1.5-1.5.7-.5,1.2-.5ZM133.9,78c-.3,0-.5.1-.7.4-.2.2-.2.6-.2,1s0,.8.2,1c.2.2.4.4.7.4s.5-.1.7-.4c.2-.2.2-.6.2-1s0-.8-.2-1c-.2-.2-.4-.4-.7-.4ZM138.3,77.4h.8l-4.6,7.6h-.8l4.6-7.6ZM133.9,77.4c.5,0,.9.2,1.2.5.3.4.5.8.5,1.4s-.2,1.1-.5,1.5c-.3.4-.7.5-1.2.5s-.9-.2-1.2-.5c-.3-.4-.5-.8-.5-1.5s.2-1.1.5-1.4c.3-.4.7-.5,1.2-.5Z"/>
          </g>
        </g>
        <g id="line2d_42">
          <path class="cls-11" d="M91,96h20"/>
          <path id="m7f790ce9a2-11" data-name="m7f790ce9a2" class="cls-4" d="M101,99c.8,0,1.6-.3,2.1-.9.6-.6.9-1.3.9-2.1s-.3-1.6-.9-2.1c-.6-.6-1.3-.9-2.1-.9s-1.6.3-2.1.9c-.6.6-.9,1.3-.9,2.1s.3,1.6.9,2.1c.6.6,1.3.9,2.1.9Z"/>
        </g>
        <g id="text_24">
          <g>
            <path id="DejaVuSans-32-4" data-name="DejaVuSans-32" d="M120.9,98.7h3.4v.8h-4.6v-.8c.4-.4.9-.9,1.5-1.6.6-.7,1.1-1.1,1.2-1.3.3-.4.5-.7.7-.9.1-.2.2-.5.2-.7,0-.4-.1-.7-.4-.9-.3-.2-.6-.4-1.1-.4s-.6,0-1,.2c-.3.1-.7.3-1.1.5v-1c.4-.2.8-.3,1.1-.4.3,0,.7-.1.9-.1.8,0,1.4.2,1.8.6.4.4.7.9.7,1.5s0,.6-.2.9c-.1.3-.3.6-.6.9,0,0-.3.4-.8.8-.4.5-1.1,1.1-1.8,1.9Z"/>
            <path id="DejaVuSans-30-39" data-name="DejaVuSans-30" d="M128.5,92.9c-.5,0-.9.3-1.1.8-.3.5-.4,1.3-.4,2.3s.1,1.7.4,2.2c.3.5.6.8,1.1.8s.9-.3,1.2-.8c.3-.5.4-1.2.4-2.2s-.1-1.8-.4-2.3c-.3-.5-.6-.8-1.2-.8ZM128.5,92.1c.8,0,1.4.3,1.9,1,.4.6.6,1.6.6,2.8s-.2,2.2-.6,2.8c-.4.6-1.1,1-1.9,1s-1.4-.3-1.9-1c-.4-.6-.6-1.6-.6-2.8s.2-2.2.6-2.8c.4-.6,1.1-1,1.9-1Z"/>
            <path id="DejaVuSans-25-5" data-name="DejaVuSans-25" d="M139,96.3c-.3,0-.5.1-.7.4-.2.2-.2.6-.2,1s0,.8.2,1c.2.2.4.4.7.4s.5-.1.7-.4c.2-.2.2-.6.2-1s0-.8-.2-1c-.2-.2-.4-.4-.7-.4ZM139,95.7c.5,0,.9.2,1.2.5.3.4.5.8.5,1.5s-.2,1.1-.5,1.4c-.3.4-.7.5-1.2.5s-.9-.2-1.2-.5c-.3-.4-.5-.8-.5-1.4s.2-1.1.5-1.5.7-.5,1.2-.5ZM133.9,92.7c-.3,0-.5.1-.7.4-.2.2-.2.6-.2,1s0,.8.2,1c.2.2.4.4.7.4s.5-.1.7-.4c.2-.2.2-.6.2-1s0-.8-.2-1c-.2-.2-.4-.4-.7-.4ZM138.3,92.1h.8l-4.6,7.6h-.8l4.6-7.6ZM133.9,92.1c.5,0,.9.2,1.2.5.3.4.5.8.5,1.4s-.2,1.1-.5,1.5c-.3.4-.7.5-1.2.5s-.9-.2-1.2-.5c-.3-.4-.5-.8-.5-1.5s.2-1.1.5-1.4c.3-.4.7-.5,1.2-.5Z"/>
          </g>
        </g>
      </g>
    </g>
  </g>
</svg>