<?xml version="1.0" encoding="UTF-8"?>
<svg id="Layer_1" xmlns="http://www.w3.org/2000/svg" xmlns:xlink="http://www.w3.org/1999/xlink" viewBox="0 0 431.55 264.34">
  <defs>
    <style>
      .cls-1 {
        fill: #414487;
      }

      .cls-1, .cls-2, .cls-3, .cls-4, .cls-5, .cls-6, .cls-7, .cls-8, .cls-9, .cls-10, .cls-11, .cls-12 {
        stroke-linejoin: round;
      }

      .cls-1, .cls-7 {
        stroke: #414487;
      }

      .cls-13 {
        clip-path: url(#clippath-21);
      }

      .cls-2 {
        fill: #2a788e;
      }

      .cls-2, .cls-3 {
        stroke: #2a788e;
      }

      .cls-14 {
        clip-path: url(#clippath-6);
      }

      .cls-15 {
        clip-path: url(#clippath-7);
      }

      .cls-16 {
        clip-path: url(#clippath-17);
      }

      .cls-17 {
        clip-path: url(#clippath-15);
      }

      .cls-18 {
        clip-path: url(#clippath-18);
      }

      .cls-19 {
        clip-path: url(#clippath-4);
      }

      .cls-20 {
        clip-path: url(#clippath-22);
      }

      .cls-21 {
        clip-path: url(#clippath-23);
      }

      .cls-22 {
        isolation: isolate;
        opacity: .8;
        stroke: #ccc;
      }

      .cls-22, .cls-23 {
        fill: #fff;
      }

      .cls-24 {
        clip-path: url(#clippath-9);
      }

      .cls-25 {
        clip-path: url(#clippath-10);
      }

      .cls-26 {
        clip-path: url(#clippath-25);
      }

      .cls-27 {
        clip-path: url(#clippath-11);
      }

      .cls-3, .cls-28, .cls-29, .cls-5, .cls-6, .cls-7, .cls-10, .cls-11 {
        fill: none;
      }

      .cls-3, .cls-5, .cls-7, .cls-10, .cls-11 {
        stroke-dasharray: 1.5 2.47;
        stroke-width: 1.5px;
      }

      .cls-30 {
        clip-path: url(#clippath-1);
      }

      .cls-31 {
        clip-path: url(#clippath-5);
      }

      .cls-32 {
        clip-path: url(#clippath-20);
      }

      .cls-33 {
        clip-path: url(#clippath-8);
      }

      .cls-4 {
        fill: #fde725;
      }

      .cls-4, .cls-11 {
        stroke: #fde725;
      }

      .cls-29, .cls-6 {
        stroke-linecap: square;
      }

      .cls-29, .cls-6, .cls-8 {
        stroke-width: .8px;
      }

      .cls-29, .cls-8 {
        stroke: #000;
      }

      .cls-34 {
        clip-path: url(#clippath-3);
      }

      .cls-5, .cls-9 {
        stroke: #22a884;
      }

      .cls-35 {
        clip-path: url(#clippath-12);
      }

      .cls-36 {
        clip-path: url(#clippath-14);
      }

      .cls-37 {
        clip-path: url(#clippath-19);
      }

      .cls-6 {
        stroke: #b0b0b0;
      }

      .cls-38 {
        clip-path: url(#clippath-16);
      }

      .cls-39 {
        clip-path: url(#clippath-2);
      }

      .cls-9 {
        fill: #22a884;
      }

      .cls-10, .cls-12 {
        stroke: #7ad151;
      }

      .cls-40 {
        clip-path: url(#clippath-13);
      }

      .cls-41 {
        clip-path: url(#clippath-24);
      }

      .cls-42 {
        clip-path: url(#clippath);
      }

      .cls-12 {
        fill: #7ad151;
      }
    </style>
    <clipPath id="clippath">
      <rect class="cls-28" x="42.77" y=".4" width="388.38" height="188.17"/>
    </clipPath>
    <clipPath id="clippath-1">
      <rect class="cls-28" x="42.77" y=".4" width="388.38" height="188.17"/>
    </clipPath>
    <clipPath id="clippath-2">
      <rect class="cls-28" x="42.77" y=".4" width="388.38" height="188.17"/>
    </clipPath>
    <clipPath id="clippath-3">
      <rect class="cls-28" x="42.77" y=".4" width="388.38" height="188.17"/>
    </clipPath>
    <clipPath id="clippath-4">
      <rect class="cls-28" x="42.77" y=".4" width="388.38" height="188.17"/>
    </clipPath>
    <clipPath id="clippath-5">
      <rect class="cls-28" x="42.77" y=".4" width="388.38" height="188.17"/>
    </clipPath>
    <clipPath id="clippath-6">
      <rect class="cls-28" x="42.77" y=".4" width="388.38" height="188.17"/>
    </clipPath>
    <clipPath id="clippath-7">
      <rect class="cls-28" x="42.77" y=".4" width="388.38" height="188.17"/>
    </clipPath>
    <clipPath id="clippath-8">
      <rect class="cls-28" x="42.77" y=".4" width="388.38" height="188.17"/>
    </clipPath>
    <clipPath id="clippath-9">
      <rect class="cls-28" x="42.77" y=".4" width="388.38" height="188.17"/>
    </clipPath>
    <clipPath id="clippath-10">
      <rect class="cls-28" x="42.77" y=".4" width="388.38" height="188.17"/>
    </clipPath>
    <clipPath id="clippath-11">
      <rect class="cls-28" x="42.77" y=".4" width="388.38" height="188.17"/>
    </clipPath>
    <clipPath id="clippath-12">
      <rect class="cls-28" x="42.77" y=".4" width="388.38" height="188.17"/>
    </clipPath>
    <clipPath id="clippath-13">
      <rect class="cls-28" x="42.77" y=".4" width="388.38" height="188.17"/>
    </clipPath>
    <clipPath id="clippath-14">
      <rect class="cls-28" x="42.77" y=".4" width="388.38" height="188.17"/>
    </clipPath>
    <clipPath id="clippath-15">
      <rect class="cls-28" x="42.77" y=".4" width="388.38" height="188.17"/>
    </clipPath>
    <clipPath id="clippath-16">
      <rect class="cls-28" x="42.77" y=".4" width="388.38" height="188.17"/>
    </clipPath>
    <clipPath id="clippath-17">
      <rect class="cls-28" x="42.77" y=".4" width="388.38" height="188.17"/>
    </clipPath>
    <clipPath id="clippath-18">
      <rect class="cls-28" x="42.77" y=".4" width="388.38" height="188.17"/>
    </clipPath>
    <clipPath id="clippath-19">
      <rect class="cls-28" x="42.77" y=".4" width="388.38" height="188.17"/>
    </clipPath>
    <clipPath id="clippath-20">
      <rect class="cls-28" x="42.77" y=".4" width="388.38" height="188.17"/>
    </clipPath>
    <clipPath id="clippath-21">
      <rect class="cls-28" x="42.77" y=".4" width="388.38" height="188.17"/>
    </clipPath>
    <clipPath id="clippath-22">
      <rect class="cls-28" x="42.77" y=".4" width="388.38" height="188.17"/>
    </clipPath>
    <clipPath id="clippath-23">
      <rect class="cls-28" x="42.77" y=".4" width="388.38" height="188.17"/>
    </clipPath>
    <clipPath id="clippath-24">
      <rect class="cls-28" x="42.77" y=".4" width="388.38" height="188.17"/>
    </clipPath>
    <clipPath id="clippath-25">
      <rect class="cls-28" x="42.77" y=".4" width="388.38" height="188.17"/>
    </clipPath>
  </defs>
  <g id="patch_2">
    <path class="cls-23" d="M42.77,188.57h388.38V.4H42.77v188.17Z"/>
  </g>
  <g id="matplotlib.axis_1">
    <g id="xtick_1">
      <g id="line2d_1">
        <g class="cls-42">
          <path class="cls-6" d="M60.42,188.57V.4"/>
        </g>
      </g>
      <g id="line2d_2">
        <path id="mc727129655" class="cls-8" d="M60.42,188.57v3.5"/>
      </g>
      <g id="text_1">
        <g>
          <path id="DejaVuSans-2d" d="M60.08,252.16v-2.37h.72v2.37h-.72Z"/>
          <path id="DejaVuSans-30" d="M56.93,246.49c0,.46.23.8.68,1.03.45.23,1.13.34,2.03.34s1.57-.11,2.02-.34c.45-.23.68-.57.68-1.03s-.23-.81-.68-1.04c-.45-.23-1.12-.35-2.02-.35s-1.58.12-2.03.35c-.45.23-.68.57-.68,1.04ZM56.22,246.49c0-.74.29-1.3.87-1.69.58-.39,1.43-.58,2.53-.58s1.95.19,2.53.58c.58.39.87.95.87,1.69s-.29,1.3-.87,1.68c-.58.39-1.43.58-2.53.58s-1.95-.19-2.53-.58c-.58-.39-.87-.95-.87-1.68Z"/>
          <path id="DejaVuSans-2e" d="M61.79,242.66v-.93h1.12v.93h-1.12Z"/>
          <path id="DejaVuSans-30-2" data-name="DejaVuSans-30" d="M56.93,237.91c0,.46.23.8.68,1.03.45.23,1.13.34,2.03.34s1.57-.11,2.02-.34c.45-.23.68-.57.68-1.03s-.23-.81-.68-1.04c-.45-.23-1.12-.35-2.02-.35s-1.58.12-2.03.35c-.45.23-.68.57-.68,1.04ZM56.22,237.91c0-.74.29-1.3.87-1.69.58-.39,1.43-.58,2.53-.58s1.95.19,2.53.58c.58.39.87.95.87,1.69s-.29,1.3-.87,1.68c-.58.39-1.43.58-2.53.58s-1.95-.19-2.53-.58c-.58-.39-.87-.95-.87-1.68Z"/>
          <path id="DejaVuSans-74" d="M56.58,230.53h1.4v-1.67h.63v1.67h2.67c.4,0,.66-.05.77-.16s.17-.33.17-.67v-.83h.68v.83c0,.62-.12,1.06-.35,1.29-.23.24-.66.36-1.27.36h-2.67v.59h-.63v-.59h-1.4v-.81Z"/>
          <path id="DejaVuSans-6f" d="M58.55,225.9c0,.43.17.78.51,1.03s.8.38,1.39.38,1.05-.13,1.39-.38c.34-.25.51-.59.51-1.03s-.17-.77-.51-1.02c-.34-.25-.8-.38-1.39-.38s-1.05.13-1.39.38c-.34.25-.51.59-.51,1.02ZM57.86,225.9c0-.7.23-1.26.69-1.66.46-.4,1.09-.6,1.9-.6s1.44.2,1.9.6c.46.4.69.95.69,1.66s-.23,1.26-.69,1.66c-.46.4-1.09.6-1.9.6s-1.44-.2-1.9-.6c-.46-.4-.69-.95-.69-1.66Z"/>
          <path id="DejaVuSans-3c" d="M58.47,213.7l1.61,4.54,1.6-4.54h.8l-2.04,5.63h-.73l-2.04-5.63h.8Z"/>
          <path id="DejaVuSans-30-3" data-name="DejaVuSans-30" d="M56.93,207.02c0,.46.23.8.68,1.03.45.23,1.13.34,2.03.34s1.57-.11,2.02-.34c.45-.23.68-.57.68-1.03s-.23-.81-.68-1.04c-.45-.23-1.12-.35-2.02-.35s-1.58.12-2.03.35c-.45.23-.68.57-.68,1.04ZM56.22,207.02c0-.74.29-1.3.87-1.69.58-.39,1.43-.58,2.53-.58s1.95.19,2.53.58c.58.39.87.95.87,1.69s-.29,1.3-.87,1.68c-.58.39-1.43.58-2.53.58s-1.95-.19-2.53-.58c-.58-.39-.87-.95-.87-1.68Z"/>
          <path id="DejaVuSans-2e-2" data-name="DejaVuSans-2e" d="M61.79,203.19v-.93h1.12v.93h-1.12Z"/>
          <path id="DejaVuSans-31" d="M62.16,200.18v-1.45h-5.01l.32,1.58h-.81l-.32-1.57v-.89h5.81v-1.45h.75v3.78h-.75Z"/>
        </g>
      </g>
    </g>
    <g id="xtick_2">
      <g id="line2d_3">
        <g class="cls-30">
          <path class="cls-6" d="M99.65,188.57V.4"/>
        </g>
      </g>
      <g id="line2d_4">
        <path id="mc727129655-2" data-name="mc727129655" class="cls-8" d="M99.65,188.57v3.5"/>
      </g>
      <g id="text_2">
        <g>
          <path id="DejaVuSans-30-4" data-name="DejaVuSans-30" d="M96.16,246.49c0,.46.23.8.68,1.03.45.23,1.13.34,2.03.34s1.57-.11,2.02-.34c.45-.23.68-.57.68-1.03s-.23-.81-.68-1.04c-.45-.23-1.12-.35-2.02-.35s-1.58.12-2.03.35c-.45.23-.68.57-.68,1.04ZM95.45,246.49c0-.74.29-1.3.87-1.69.58-.39,1.43-.58,2.53-.58s1.95.19,2.53.58c.58.39.87.95.87,1.69s-.29,1.3-.87,1.68c-.58.39-1.43.58-2.53.58s-1.95-.19-2.53-.58c-.58-.39-.87-.95-.87-1.68Z"/>
          <path id="DejaVuSans-2e-3" data-name="DejaVuSans-2e" d="M101.02,242.67v-.93h1.12v.93h-1.12Z"/>
          <path id="DejaVuSans-31-2" data-name="DejaVuSans-31" d="M101.39,239.65v-1.45h-5.01l.32,1.58h-.81l-.32-1.57v-.89h5.81v-1.45h.75v3.78h-.75Z"/>
          <path id="DejaVuSans-74-2" data-name="DejaVuSans-74" d="M95.81,230.53h1.4v-1.67h.63v1.67h2.67c.4,0,.66-.05.77-.16s.17-.33.17-.67v-.83h.68v.83c0,.62-.12,1.06-.35,1.29-.23.24-.66.36-1.27.36h-2.67v.59h-.63v-.59h-1.4v-.81Z"/>
          <path id="DejaVuSans-6f-2" data-name="DejaVuSans-6f" d="M97.78,225.9c0,.43.17.78.51,1.03s.8.38,1.39.38,1.05-.13,1.39-.38c.34-.25.51-.59.51-1.03s-.17-.77-.51-1.02c-.34-.25-.8-.38-1.39-.38s-1.05.13-1.39.38c-.34.25-.51.59-.51,1.02ZM97.09,225.9c0-.7.23-1.26.69-1.66.46-.4,1.09-.6,1.9-.6s1.44.2,1.9.6c.46.4.69.95.69,1.66s-.23,1.26-.69,1.66c-.46.4-1.09.6-1.9.6s-1.44-.2-1.9-.6c-.46-.4-.69-.95-.69-1.66Z"/>
          <path id="DejaVuSans-3c-2" data-name="DejaVuSans-3c" d="M97.7,213.7l1.61,4.54,1.6-4.54h.8l-2.04,5.63h-.73l-2.04-5.63h.8Z"/>
          <path id="DejaVuSans-30-5" data-name="DejaVuSans-30" d="M96.16,207.02c0,.46.23.8.68,1.03.45.23,1.13.34,2.03.34s1.57-.11,2.02-.34c.45-.23.68-.57.68-1.03s-.23-.81-.68-1.04c-.45-.23-1.12-.35-2.02-.35s-1.58.12-2.03.35c-.45.23-.68.57-.68,1.04ZM95.45,207.02c0-.74.29-1.3.87-1.69.58-.39,1.43-.58,2.53-.58s1.95.19,2.53.58c.58.39.87.95.87,1.69s-.29,1.3-.87,1.68c-.58.39-1.43.58-2.53.58s-1.95-.19-2.53-.58c-.58-.39-.87-.95-.87-1.68Z"/>
          <path id="DejaVuSans-2e-4" data-name="DejaVuSans-2e" d="M101.02,203.19v-.93h1.12v.93h-1.12Z"/>
          <path id="DejaVuSans-32" d="M101.39,199.57v-3.1h.75v4.17h-.75c-.35-.34-.82-.8-1.4-1.38-.59-.58-.97-.95-1.14-1.1-.32-.28-.59-.48-.81-.59-.22-.11-.44-.17-.65-.17-.35,0-.63.12-.85.37-.22.24-.33.56-.33.96,0,.28.05.57.14.88.1.31.24.64.44.99h-.9c-.14-.36-.25-.69-.32-1-.07-.31-.11-.6-.11-.85,0-.68.17-1.22.51-1.63.34-.4.79-.61,1.36-.61.27,0,.53.05.77.15.24.1.53.28.85.55.09.07.33.31.74.7.41.39.97.95,1.7,1.66Z"/>
        </g>
      </g>
    </g>
    <g id="xtick_3">
      <g id="line2d_5">
        <g class="cls-39">
          <path class="cls-6" d="M138.88,188.57V.4"/>
        </g>
      </g>
      <g id="line2d_6">
        <path id="mc727129655-3" data-name="mc727129655" class="cls-8" d="M138.88,188.57v3.5"/>
      </g>
      <g id="text_3">
        <g>
          <path id="DejaVuSans-30-6" data-name="DejaVuSans-30" d="M135.39,246.49c0,.46.23.8.68,1.03.45.23,1.13.34,2.03.34s1.57-.11,2.02-.34c.45-.23.68-.57.68-1.03s-.23-.81-.68-1.04c-.45-.23-1.12-.35-2.02-.35s-1.58.12-2.03.35c-.45.23-.68.57-.68,1.04ZM134.69,246.49c0-.74.29-1.3.87-1.69.58-.39,1.43-.58,2.53-.58s1.95.19,2.53.58c.58.39.87.95.87,1.69s-.29,1.3-.87,1.68c-.58.39-1.43.58-2.53.58s-1.95-.19-2.53-.58c-.58-.39-.87-.95-.87-1.68Z"/>
          <path id="DejaVuSans-2e-5" data-name="DejaVuSans-2e" d="M140.25,242.67v-.93h1.12v.93h-1.12Z"/>
          <path id="DejaVuSans-32-2" data-name="DejaVuSans-32" d="M140.62,239.04v-3.1h.75v4.17h-.75c-.35-.34-.82-.8-1.4-1.38-.59-.58-.97-.95-1.14-1.1-.32-.28-.59-.48-.81-.59-.22-.11-.44-.17-.65-.17-.35,0-.63.12-.85.37-.22.24-.33.56-.33.96,0,.28.05.57.14.88.1.31.24.64.44.99h-.9c-.14-.36-.25-.69-.32-1-.07-.31-.11-.6-.11-.85,0-.68.17-1.22.51-1.63.34-.4.79-.61,1.36-.61.27,0,.53.05.77.15.24.1.53.28.85.55.09.07.33.31.74.7.41.39.97.95,1.7,1.66Z"/>
          <path id="DejaVuSans-74-3" data-name="DejaVuSans-74" d="M135.05,230.53h1.4v-1.67h.63v1.67h2.67c.4,0,.66-.05.77-.16s.17-.33.17-.67v-.83h.68v.83c0,.62-.12,1.06-.35,1.29-.23.24-.66.36-1.27.36h-2.67v.59h-.63v-.59h-1.4v-.81Z"/>
          <path id="DejaVuSans-6f-3" data-name="DejaVuSans-6f" d="M137.01,225.9c0,.43.17.78.51,1.03s.8.38,1.39.38,1.05-.13,1.39-.38c.34-.25.51-.59.51-1.03s-.17-.77-.51-1.02c-.34-.25-.8-.38-1.39-.38s-1.05.13-1.39.38c-.34.25-.51.59-.51,1.02ZM136.32,225.9c0-.7.23-1.26.69-1.66.46-.4,1.09-.6,1.9-.6s1.44.2,1.9.6c.46.4.69.95.69,1.66s-.23,1.26-.69,1.66c-.46.4-1.09.6-1.9.6s-1.44-.2-1.9-.6c-.46-.4-.69-.95-.69-1.66Z"/>
          <path id="DejaVuSans-3c-3" data-name="DejaVuSans-3c" d="M136.94,213.7l1.61,4.54,1.6-4.54h.8l-2.04,5.63h-.73l-2.04-5.63h.8Z"/>
          <path id="DejaVuSans-30-7" data-name="DejaVuSans-30" d="M135.39,207.02c0,.46.23.8.68,1.03.45.23,1.13.34,2.03.34s1.57-.11,2.02-.34c.45-.23.68-.57.68-1.03s-.23-.81-.68-1.04c-.45-.23-1.12-.35-2.02-.35s-1.58.12-2.03.35c-.45.23-.68.57-.68,1.04ZM134.69,207.02c0-.74.29-1.3.87-1.69.58-.39,1.43-.58,2.53-.58s1.95.19,2.53.58c.58.39.87.95.87,1.69s-.29,1.3-.87,1.68c-.58.39-1.43.58-2.53.58s-1.95-.19-2.53-.58c-.58-.39-.87-.95-.87-1.68Z"/>
          <path id="DejaVuSans-2e-6" data-name="DejaVuSans-2e" d="M140.25,203.19v-.93h1.12v.93h-1.12Z"/>
          <path id="DejaVuSans-33" d="M137.83,197.64c.09-.42.28-.76.57-.99.29-.24.64-.36,1.06-.36.65,0,1.15.22,1.5.67.35.45.53,1.08.53,1.9,0,.27-.03.56-.08.85-.05.29-.14.59-.24.9h-.86c.14-.25.25-.51.32-.81.07-.29.11-.6.11-.92,0-.56-.11-.98-.33-1.27s-.54-.44-.96-.44c-.39,0-.69.14-.91.41-.22.27-.33.65-.33,1.13v.77h-.73v-.8c0-.44-.09-.77-.26-1s-.43-.35-.75-.35-.59.12-.77.36c-.18.24-.27.58-.27,1.03,0,.24.03.5.08.78.05.28.13.58.24.92h-.79c-.09-.34-.16-.65-.21-.95s-.07-.57-.07-.83c0-.67.15-1.21.46-1.6.31-.39.72-.59,1.24-.59.36,0,.67.1.92.31s.42.5.52.89Z"/>
        </g>
      </g>
    </g>
    <g id="xtick_4">
      <g id="line2d_7">
        <g class="cls-34">
          <path class="cls-6" d="M178.11,188.57V.4"/>
        </g>
      </g>
      <g id="line2d_8">
        <path id="mc727129655-4" data-name="mc727129655" class="cls-8" d="M178.11,188.57v3.5"/>
      </g>
      <g id="text_4">
        <g>
          <path id="DejaVuSans-30-8" data-name="DejaVuSans-30" d="M174.62,246.49c0,.46.23.8.68,1.03.45.23,1.13.34,2.03.34s1.57-.11,2.02-.34c.45-.23.68-.57.68-1.03s-.23-.81-.68-1.04c-.45-.23-1.12-.35-2.02-.35s-1.58.12-2.03.35c-.45.23-.68.57-.68,1.04ZM173.92,246.49c0-.74.29-1.3.87-1.69.58-.39,1.43-.58,2.53-.58s1.95.19,2.53.58c.58.39.87.95.87,1.69s-.29,1.3-.87,1.68c-.58.39-1.43.58-2.53.58s-1.95-.19-2.53-.58c-.58-.39-.87-.95-.87-1.68Z"/>
          <path id="DejaVuSans-2e-7" data-name="DejaVuSans-2e" d="M179.48,242.67v-.93h1.12v.93h-1.12Z"/>
          <path id="DejaVuSans-33-2" data-name="DejaVuSans-33" d="M177.06,237.11c.09-.42.28-.76.57-.99.29-.24.64-.36,1.06-.36.65,0,1.15.22,1.5.67.35.45.53,1.08.53,1.9,0,.27-.03.56-.08.85-.05.29-.14.59-.24.9h-.86c.14-.25.25-.51.32-.81.07-.29.11-.6.11-.92,0-.56-.11-.98-.33-1.27s-.54-.44-.96-.44c-.39,0-.69.14-.91.41-.22.27-.33.65-.33,1.13v.77h-.73v-.8c0-.44-.09-.77-.26-1s-.43-.35-.75-.35-.59.12-.77.36c-.18.24-.27.58-.27,1.03,0,.24.03.5.08.78.05.28.13.58.24.92h-.79c-.09-.34-.16-.65-.21-.95s-.07-.57-.07-.83c0-.67.15-1.21.46-1.6.31-.39.72-.59,1.24-.59.36,0,.67.1.92.31s.42.5.52.89Z"/>
          <path id="DejaVuSans-74-4" data-name="DejaVuSans-74" d="M174.28,230.53h1.4v-1.67h.63v1.67h2.67c.4,0,.66-.05.77-.16s.17-.33.17-.67v-.83h.68v.83c0,.62-.12,1.06-.35,1.29-.23.24-.66.36-1.27.36h-2.67v.59h-.63v-.59h-1.4v-.81Z"/>
          <path id="DejaVuSans-6f-4" data-name="DejaVuSans-6f" d="M176.24,225.9c0,.43.17.78.51,1.03s.8.38,1.39.38,1.05-.13,1.39-.38c.34-.25.51-.59.51-1.03s-.17-.77-.51-1.02c-.34-.25-.8-.38-1.39-.38s-1.05.13-1.39.38c-.34.25-.51.59-.51,1.02ZM175.56,225.9c0-.7.23-1.26.69-1.66.46-.4,1.09-.6,1.9-.6s1.44.2,1.9.6c.46.4.69.95.69,1.66s-.23,1.26-.69,1.66c-.46.4-1.09.6-1.9.6s-1.44-.2-1.9-.6c-.46-.4-.69-.95-.69-1.66Z"/>
          <path id="DejaVuSans-3c-4" data-name="DejaVuSans-3c" d="M176.17,213.7l1.61,4.54,1.6-4.54h.8l-2.04,5.63h-.73l-2.04-5.63h.8Z"/>
          <path id="DejaVuSans-30-9" data-name="DejaVuSans-30" d="M174.62,207.02c0,.46.23.8.68,1.03.45.23,1.13.34,2.03.34s1.57-.11,2.02-.34c.45-.23.68-.57.68-1.03s-.23-.81-.68-1.04c-.45-.23-1.12-.35-2.02-.35s-1.58.12-2.03.35c-.45.23-.68.57-.68,1.04ZM173.92,207.02c0-.74.29-1.3.87-1.69.58-.39,1.43-.58,2.53-.58s1.95.19,2.53.58c.58.39.87.95.87,1.69s-.29,1.3-.87,1.68c-.58.39-1.43.58-2.53.58s-1.95-.19-2.53-.58c-.58-.39-.87-.95-.87-1.68Z"/>
          <path id="DejaVuSans-2e-8" data-name="DejaVuSans-2e" d="M179.48,203.19v-.93h1.12v.93h-1.12Z"/>
          <path id="DejaVuSans-34" d="M174.81,197.89l3.5,2.24v-2.24h-3.5ZM174.03,198.13v-1.12h4.28v-.94h.74v.94h1.55v.88h-1.55v2.96h-.86l-4.16-2.73Z"/>
        </g>
      </g>
    </g>
    <g id="xtick_5">
      <g id="line2d_9">
        <g class="cls-19">
          <path class="cls-6" d="M217.34,188.57V.4"/>
        </g>
      </g>
      <g id="line2d_10">
        <path id="mc727129655-5" data-name="mc727129655" class="cls-8" d="M217.34,188.57v3.5"/>
      </g>
      <g id="text_5">
        <g>
          <path id="DejaVuSans-30-10" data-name="DejaVuSans-30" d="M213.85,246.49c0,.46.23.8.68,1.03.45.23,1.13.34,2.03.34s1.57-.11,2.02-.34c.45-.23.68-.57.68-1.03s-.23-.81-.68-1.04c-.45-.23-1.12-.35-2.02-.35s-1.58.12-2.03.35c-.45.23-.68.57-.68,1.04ZM213.15,246.49c0-.74.29-1.3.87-1.69.58-.39,1.43-.58,2.53-.58s1.95.19,2.53.58c.58.39.87.95.87,1.69s-.29,1.3-.87,1.68c-.58.39-1.43.58-2.53.58s-1.95-.19-2.53-.58c-.58-.39-.87-.95-.87-1.68Z"/>
          <path id="DejaVuSans-2e-9" data-name="DejaVuSans-2e" d="M218.71,242.67v-.93h1.12v.93h-1.12Z"/>
          <path id="DejaVuSans-34-2" data-name="DejaVuSans-34" d="M214.04,237.36l3.5,2.24v-2.24h-3.5ZM213.26,237.6v-1.12h4.28v-.94h.74v.94h1.55v.88h-1.55v2.96h-.86l-4.16-2.73Z"/>
          <path id="DejaVuSans-74-5" data-name="DejaVuSans-74" d="M213.51,230.53h1.4v-1.67h.63v1.67h2.67c.4,0,.66-.05.77-.16s.17-.33.17-.67v-.83h.68v.83c0,.62-.12,1.06-.35,1.29-.23.24-.66.36-1.27.36h-2.67v.59h-.63v-.59h-1.4v-.81Z"/>
          <path id="DejaVuSans-6f-5" data-name="DejaVuSans-6f" d="M215.47,225.9c0,.43.17.78.51,1.03s.8.38,1.39.38,1.05-.13,1.39-.38c.34-.25.51-.59.51-1.03s-.17-.77-.51-1.02c-.34-.25-.8-.38-1.39-.38s-1.05.13-1.39.38c-.34.25-.51.59-.51,1.02ZM214.79,225.9c0-.7.23-1.26.69-1.66.46-.4,1.09-.6,1.9-.6s1.44.2,1.9.6c.46.4.69.95.69,1.66s-.23,1.26-.69,1.66c-.46.4-1.09.6-1.9.6s-1.44-.2-1.9-.6c-.46-.4-.69-.95-.69-1.66Z"/>
          <path id="DejaVuSans-3c-5" data-name="DejaVuSans-3c" d="M215.4,213.7l1.61,4.54,1.6-4.54h.8l-2.04,5.63h-.73l-2.04-5.63h.8Z"/>
          <path id="DejaVuSans-30-11" data-name="DejaVuSans-30" d="M213.85,207.02c0,.46.23.8.68,1.03.45.23,1.13.34,2.03.34s1.57-.11,2.02-.34c.45-.23.68-.57.68-1.03s-.23-.81-.68-1.04c-.45-.23-1.12-.35-2.02-.35s-1.58.12-2.03.35c-.45.23-.68.57-.68,1.04ZM213.15,207.02c0-.74.29-1.3.87-1.69.58-.39,1.43-.58,2.53-.58s1.95.19,2.53.58c.58.39.87.95.87,1.69s-.29,1.3-.87,1.68c-.58.39-1.43.58-2.53.58s-1.95-.19-2.53-.58c-.58-.39-.87-.95-.87-1.68Z"/>
          <path id="DejaVuSans-2e-10" data-name="DejaVuSans-2e" d="M218.71,203.19v-.93h1.12v.93h-1.12Z"/>
          <path id="DejaVuSans-35" d="M213.26,200.32v-3.48h.75v2.67h1.61c-.04-.13-.08-.26-.1-.39-.02-.13-.03-.26-.03-.39,0-.73.2-1.31.6-1.74.4-.43.94-.64,1.63-.64s1.25.22,1.65.66c.39.44.59,1.06.59,1.86,0,.28-.02.56-.07.84-.05.29-.12.58-.21.88h-.89c.14-.26.25-.54.32-.82s.11-.58.11-.89c0-.51-.13-.91-.4-1.2-.27-.3-.63-.44-1.09-.44s-.82.15-1.08.44c-.27.3-.4.7-.4,1.2,0,.24.03.47.08.71.05.24.13.48.25.72h-3.3Z"/>
        </g>
      </g>
    </g>
    <g id="xtick_6">
      <g id="line2d_11">
        <g class="cls-31">
          <path class="cls-6" d="M256.57,188.57V.4"/>
        </g>
      </g>
      <g id="line2d_12">
        <path id="mc727129655-6" data-name="mc727129655" class="cls-8" d="M256.57,188.57v3.5"/>
      </g>
      <g id="text_6">
        <g>
          <path id="DejaVuSans-30-12" data-name="DejaVuSans-30" d="M253.08,246.49c0,.46.23.8.68,1.03.45.23,1.13.34,2.03.34s1.57-.11,2.02-.34c.45-.23.68-.57.68-1.03s-.23-.81-.68-1.04c-.45-.23-1.12-.35-2.02-.35s-1.58.12-2.03.35c-.45.23-.68.57-.68,1.04ZM252.38,246.49c0-.74.29-1.3.87-1.69.58-.39,1.43-.58,2.53-.58s1.95.19,2.53.58c.58.39.87.95.87,1.69s-.29,1.3-.87,1.68c-.58.39-1.43.58-2.53.58s-1.95-.19-2.53-.58c-.58-.39-.87-.95-.87-1.68Z"/>
          <path id="DejaVuSans-2e-11" data-name="DejaVuSans-2e" d="M257.94,242.67v-.93h1.12v.93h-1.12Z"/>
          <path id="DejaVuSans-35-2" data-name="DejaVuSans-35" d="M252.49,239.79v-3.48h.75v2.67h1.61c-.04-.13-.08-.26-.1-.39-.02-.13-.03-.26-.03-.39,0-.73.2-1.31.6-1.74.4-.43.94-.64,1.63-.64s1.25.22,1.65.66c.39.44.59,1.06.59,1.86,0,.28-.02.56-.07.84-.05.29-.12.58-.21.88h-.89c.14-.26.25-.54.32-.82s.11-.58.11-.89c0-.51-.13-.91-.4-1.2-.27-.3-.63-.44-1.09-.44s-.82.15-1.08.44c-.27.3-.4.7-.4,1.2,0,.24.03.47.08.71.05.24.13.48.25.72h-3.3Z"/>
          <path id="DejaVuSans-74-6" data-name="DejaVuSans-74" d="M252.74,230.53h1.4v-1.67h.63v1.67h2.67c.4,0,.66-.05.77-.16s.17-.33.17-.67v-.83h.68v.83c0,.62-.12,1.06-.35,1.29-.23.24-.66.36-1.27.36h-2.67v.59h-.63v-.59h-1.4v-.81Z"/>
          <path id="DejaVuSans-6f-6" data-name="DejaVuSans-6f" d="M254.7,225.9c0,.43.17.78.51,1.03s.8.38,1.39.38,1.05-.13,1.39-.38c.34-.25.51-.59.51-1.03s-.17-.77-.51-1.02c-.34-.25-.8-.38-1.39-.38s-1.05.13-1.39.38c-.34.25-.51.59-.51,1.02ZM254.02,225.9c0-.7.23-1.26.69-1.66.46-.4,1.09-.6,1.9-.6s1.44.2,1.9.6c.46.4.69.95.69,1.66s-.23,1.26-.69,1.66c-.46.4-1.09.6-1.9.6s-1.44-.2-1.9-.6c-.46-.4-.69-.95-.69-1.66Z"/>
          <path id="DejaVuSans-3c-6" data-name="DejaVuSans-3c" d="M254.63,213.7l1.61,4.54,1.6-4.54h.8l-2.04,5.63h-.73l-2.04-5.63h.8Z"/>
          <path id="DejaVuSans-30-13" data-name="DejaVuSans-30" d="M253.08,207.02c0,.46.23.8.68,1.03.45.23,1.13.34,2.03.34s1.57-.11,2.02-.34c.45-.23.68-.57.68-1.03s-.23-.81-.68-1.04c-.45-.23-1.12-.35-2.02-.35s-1.58.12-2.03.35c-.45.23-.68.57-.68,1.04ZM252.38,207.02c0-.74.29-1.3.87-1.69.58-.39,1.43-.58,2.53-.58s1.95.19,2.53.58c.58.39.87.95.87,1.69s-.29,1.3-.87,1.68c-.58.39-1.43.58-2.53.58s-1.95-.19-2.53-.58c-.58-.39-.87-.95-.87-1.68Z"/>
          <path id="DejaVuSans-2e-12" data-name="DejaVuSans-2e" d="M257.94,203.19v-.93h1.12v.93h-1.12Z"/>
          <path id="DejaVuSans-36" d="M255.42,198.32c0,.4.14.71.41.95.27.23.64.35,1.12.35s.84-.12,1.12-.35c.27-.23.41-.55.41-.95s-.14-.71-.41-.95c-.27-.23-.65-.35-1.12-.35s-.85.12-1.12.35c-.27.23-.41.55-.41.95ZM252.64,196.56h.81c-.11.22-.19.45-.24.68-.06.23-.08.45-.08.68,0,.59.2,1.03.59,1.34.4.31.99.48,1.79.53-.25-.17-.45-.39-.59-.65-.14-.26-.2-.55-.2-.86,0-.66.2-1.18.6-1.56.4-.38.94-.57,1.63-.57s1.22.2,1.62.6c.41.4.61.93.61,1.59,0,.76-.29,1.34-.87,1.74-.58.4-1.43.6-2.53.6-1.04,0-1.86-.25-2.48-.74-.62-.49-.93-1.15-.93-1.98,0-.22.02-.45.07-.68s.11-.46.2-.71Z"/>
        </g>
      </g>
    </g>
    <g id="xtick_7">
      <g id="line2d_13">
        <g class="cls-14">
          <path class="cls-6" d="M295.8,188.57V.4"/>
        </g>
      </g>
      <g id="line2d_14">
        <path id="mc727129655-7" data-name="mc727129655" class="cls-8" d="M295.8,188.57v3.5"/>
      </g>
      <g id="text_7">
        <g>
          <path id="DejaVuSans-30-14" data-name="DejaVuSans-30" d="M292.31,246.49c0,.46.23.8.68,1.03.45.23,1.13.34,2.03.34s1.57-.11,2.02-.34c.45-.23.68-.57.68-1.03s-.23-.81-.68-1.04c-.45-.23-1.12-.35-2.02-.35s-1.58.12-2.03.35c-.45.23-.68.57-.68,1.04ZM291.61,246.49c0-.74.29-1.3.87-1.69.58-.39,1.43-.58,2.53-.58s1.95.19,2.53.58c.58.39.87.95.87,1.69s-.29,1.3-.87,1.68c-.58.39-1.43.58-2.53.58s-1.95-.19-2.53-.58c-.58-.39-.87-.95-.87-1.68Z"/>
          <path id="DejaVuSans-2e-13" data-name="DejaVuSans-2e" d="M297.17,242.67v-.93h1.12v.93h-1.12Z"/>
          <path id="DejaVuSans-36-2" data-name="DejaVuSans-36" d="M294.65,237.8c0,.4.14.71.41.95.27.23.64.35,1.12.35s.84-.12,1.12-.35c.27-.23.41-.55.41-.95s-.14-.71-.41-.95c-.27-.23-.65-.35-1.12-.35s-.85.12-1.12.35c-.27.23-.41.55-.41.95ZM291.87,236.03h.81c-.11.22-.19.45-.24.68-.06.23-.08.45-.08.68,0,.59.2,1.03.59,1.34.4.31.99.48,1.79.53-.25-.17-.45-.39-.59-.65-.14-.26-.2-.55-.2-.86,0-.66.2-1.18.6-1.56.4-.38.94-.57,1.63-.57s1.22.2,1.62.6c.41.4.61.93.61,1.59,0,.76-.29,1.34-.87,1.74-.58.4-1.43.6-2.53.6-1.04,0-1.86-.25-2.48-.74-.62-.49-.93-1.15-.93-1.98,0-.22.02-.45.07-.68s.11-.46.2-.71Z"/>
          <path id="DejaVuSans-74-7" data-name="DejaVuSans-74" d="M291.97,230.53h1.4v-1.67h.63v1.67h2.67c.4,0,.66-.05.77-.16s.17-.33.17-.67v-.83h.68v.83c0,.62-.12,1.06-.35,1.29-.23.24-.66.36-1.27.36h-2.67v.59h-.63v-.59h-1.4v-.81Z"/>
          <path id="DejaVuSans-6f-7" data-name="DejaVuSans-6f" d="M293.93,225.9c0,.43.17.78.51,1.03s.8.38,1.39.38,1.05-.13,1.39-.38c.34-.25.51-.59.51-1.03s-.17-.77-.51-1.02c-.34-.25-.8-.38-1.39-.38s-1.05.13-1.39.38c-.34.25-.51.59-.51,1.02ZM293.25,225.9c0-.7.23-1.26.69-1.66.46-.4,1.09-.6,1.9-.6s1.44.2,1.9.6c.46.4.69.95.69,1.66s-.23,1.26-.69,1.66c-.46.4-1.09.6-1.9.6s-1.44-.2-1.9-.6c-.46-.4-.69-.95-.69-1.66Z"/>
          <path id="DejaVuSans-3c-7" data-name="DejaVuSans-3c" d="M293.86,213.7l1.61,4.54,1.6-4.54h.8l-2.04,5.63h-.73l-2.04-5.63h.8Z"/>
          <path id="DejaVuSans-30-15" data-name="DejaVuSans-30" d="M292.31,207.02c0,.46.23.8.68,1.03.45.23,1.13.34,2.03.34s1.57-.11,2.02-.34c.45-.23.68-.57.68-1.03s-.23-.81-.68-1.04c-.45-.23-1.12-.35-2.02-.35s-1.58.12-2.03.35c-.45.23-.68.57-.68,1.04ZM291.61,207.02c0-.74.29-1.3.87-1.69.58-.39,1.43-.58,2.53-.58s1.95.19,2.53.58c.58.39.87.95.87,1.69s-.29,1.3-.87,1.68c-.58.39-1.43.58-2.53.58s-1.95-.19-2.53-.58c-.58-.39-.87-.95-.87-1.68Z"/>
          <path id="DejaVuSans-2e-14" data-name="DejaVuSans-2e" d="M297.17,203.19v-.93h1.12v.93h-1.12Z"/>
          <path id="DejaVuSans-37" d="M291.72,200.56v-4.22h.38l6.18,2.38v.93l-5.81-2.24v3.15h-.75Z"/>
        </g>
      </g>
    </g>
    <g id="xtick_8">
      <g id="line2d_15">
        <g class="cls-15">
          <path class="cls-6" d="M335.03,188.57V.4"/>
        </g>
      </g>
      <g id="line2d_16">
        <path id="mc727129655-8" data-name="mc727129655" class="cls-8" d="M335.03,188.57v3.5"/>
      </g>
      <g id="text_8">
        <g>
          <path id="DejaVuSans-30-16" data-name="DejaVuSans-30" d="M331.54,246.49c0,.46.23.8.68,1.03.45.23,1.13.34,2.03.34s1.57-.11,2.02-.34c.45-.23.68-.57.68-1.03s-.23-.81-.68-1.04c-.45-.23-1.12-.35-2.02-.35s-1.58.12-2.03.35c-.45.23-.68.57-.68,1.04ZM330.84,246.49c0-.74.29-1.3.87-1.69.58-.39,1.43-.58,2.53-.58s1.95.19,2.53.58c.58.39.87.95.87,1.69s-.29,1.3-.87,1.68c-.58.39-1.43.58-2.53.58s-1.95-.19-2.53-.58c-.58-.39-.87-.95-.87-1.68Z"/>
          <path id="DejaVuSans-2e-15" data-name="DejaVuSans-2e" d="M336.4,242.67v-.93h1.12v.93h-1.12Z"/>
          <path id="DejaVuSans-37-2" data-name="DejaVuSans-37" d="M330.95,240.03v-4.22h.38l6.18,2.38v.93l-5.81-2.24v3.15h-.75Z"/>
          <path id="DejaVuSans-74-8" data-name="DejaVuSans-74" d="M331.2,230.53h1.4v-1.67h.63v1.67h2.67c.4,0,.66-.05.77-.16s.17-.33.17-.67v-.83h.68v.83c0,.62-.12,1.06-.35,1.29-.23.24-.66.36-1.27.36h-2.67v.59h-.63v-.59h-1.4v-.81Z"/>
          <path id="DejaVuSans-6f-8" data-name="DejaVuSans-6f" d="M333.16,225.9c0,.43.17.78.51,1.03s.8.38,1.39.38,1.05-.13,1.39-.38c.34-.25.51-.59.51-1.03s-.17-.77-.51-1.02c-.34-.25-.8-.38-1.39-.38s-1.05.13-1.39.38c-.34.25-.51.59-.51,1.02ZM332.48,225.9c0-.7.23-1.26.69-1.66.46-.4,1.09-.6,1.9-.6s1.44.2,1.9.6c.46.4.69.95.69,1.66s-.23,1.26-.69,1.66c-.46.4-1.09.6-1.9.6s-1.44-.2-1.9-.6c-.46-.4-.69-.95-.69-1.66Z"/>
          <path id="DejaVuSans-3c-8" data-name="DejaVuSans-3c" d="M333.09,213.7l1.61,4.54,1.6-4.54h.8l-2.04,5.63h-.73l-2.04-5.63h.8Z"/>
          <path id="DejaVuSans-30-17" data-name="DejaVuSans-30" d="M331.54,207.02c0,.46.23.8.68,1.03.45.23,1.13.34,2.03.34s1.57-.11,2.02-.34c.45-.23.68-.57.68-1.03s-.23-.81-.68-1.04c-.45-.23-1.12-.35-2.02-.35s-1.58.12-2.03.35c-.45.23-.68.57-.68,1.04ZM330.84,207.02c0-.74.29-1.3.87-1.69.58-.39,1.43-.58,2.53-.58s1.95.19,2.53.58c.58.39.87.95.87,1.69s-.29,1.3-.87,1.68c-.58.39-1.43.58-2.53.58s-1.95-.19-2.53-.58c-.58-.39-.87-.95-.87-1.68Z"/>
          <path id="DejaVuSans-2e-16" data-name="DejaVuSans-2e" d="M336.4,203.19v-.93h1.12v.93h-1.12Z"/>
          <path id="DejaVuSans-38" d="M334.4,198.43c0,.42.11.75.34,1,.23.24.54.36.93.36s.71-.12.93-.36c.23-.24.34-.57.34-1s-.11-.75-.34-1c-.23-.24-.54-.37-.93-.37s-.71.12-.93.36c-.23.24-.34.57-.34,1ZM334.02,199.32c-.09.38-.27.68-.53.89-.26.21-.58.32-.95.32-.52,0-.94-.19-1.24-.56-.3-.37-.46-.89-.46-1.54s.15-1.17.46-1.54.72-.56,1.24-.56c.38,0,.69.11.95.32.26.21.44.51.53.88.1-.43.29-.76.59-1,.29-.24.64-.36,1.06-.36.64,0,1.13.19,1.47.58.34.39.51.94.51,1.67s-.17,1.28-.51,1.67c-.34.39-.83.58-1.47.58-.42,0-.77-.12-1.06-.36-.29-.24-.49-.58-.59-1ZM332.62,199.65c.34,0,.6-.11.79-.32.19-.21.29-.51.29-.89s-.1-.68-.29-.89c-.19-.22-.46-.32-.79-.32s-.61.11-.8.32c-.19.21-.29.51-.29.89s.1.68.29.89c.19.21.46.32.8.32Z"/>
        </g>
      </g>
    </g>
    <g id="xtick_9">
      <g id="line2d_17">
        <g class="cls-33">
          <path class="cls-6" d="M374.26,188.57V.4"/>
        </g>
      </g>
      <g id="line2d_18">
        <path id="mc727129655-9" data-name="mc727129655" class="cls-8" d="M374.26,188.57v3.5"/>
      </g>
      <g id="text_9">
        <g>
          <path id="DejaVuSans-30-18" data-name="DejaVuSans-30" d="M370.77,246.49c0,.46.23.8.68,1.03.45.23,1.13.34,2.03.34s1.57-.11,2.02-.34c.45-.23.68-.57.68-1.03s-.23-.81-.68-1.04c-.45-.23-1.12-.35-2.02-.35s-1.58.12-2.03.35c-.45.23-.68.57-.68,1.04ZM370.07,246.49c0-.74.29-1.3.87-1.69.58-.39,1.43-.58,2.53-.58s1.95.19,2.53.58c.58.39.87.95.87,1.69s-.29,1.3-.87,1.68c-.58.39-1.43.58-2.53.58s-1.95-.19-2.53-.58c-.58-.39-.87-.95-.87-1.68Z"/>
          <path id="DejaVuSans-2e-17" data-name="DejaVuSans-2e" d="M375.63,242.67v-.93h1.12v.93h-1.12Z"/>
          <path id="DejaVuSans-38-2" data-name="DejaVuSans-38" d="M373.63,237.91c0,.42.11.75.34,1,.23.24.54.36.93.36s.71-.12.93-.36c.23-.24.34-.57.34-1s-.11-.75-.34-1c-.23-.24-.54-.37-.93-.37s-.71.12-.93.36c-.23.24-.34.57-.34,1ZM373.25,238.79c-.09.38-.27.68-.53.89-.26.21-.58.32-.95.32-.52,0-.94-.19-1.24-.56-.3-.37-.46-.89-.46-1.54s.15-1.17.46-1.54.72-.56,1.24-.56c.38,0,.69.11.95.32.26.21.44.51.53.88.1-.43.29-.76.59-1,.29-.24.64-.36,1.06-.36.64,0,1.13.19,1.47.58.34.39.51.94.51,1.67s-.17,1.28-.51,1.67c-.34.39-.83.58-1.47.58-.42,0-.77-.12-1.06-.36-.29-.24-.49-.58-.59-1ZM371.85,239.12c.34,0,.6-.11.79-.32.19-.21.29-.51.29-.89s-.1-.68-.29-.89c-.19-.22-.46-.32-.79-.32s-.61.11-.8.32c-.19.21-.29.51-.29.89s.1.68.29.89c.19.21.46.32.8.32Z"/>
          <path id="DejaVuSans-74-9" data-name="DejaVuSans-74" d="M370.43,230.53h1.4v-1.67h.63v1.67h2.67c.4,0,.66-.05.77-.16s.17-.33.17-.67v-.83h.68v.83c0,.62-.12,1.06-.35,1.29-.23.24-.66.36-1.27.36h-2.67v.59h-.63v-.59h-1.4v-.81Z"/>
          <path id="DejaVuSans-6f-9" data-name="DejaVuSans-6f" d="M372.39,225.9c0,.43.17.78.51,1.03s.8.38,1.39.38,1.05-.13,1.39-.38c.34-.25.51-.59.51-1.03s-.17-.77-.51-1.02c-.34-.25-.8-.38-1.39-.38s-1.05.13-1.39.38c-.34.25-.51.59-.51,1.02ZM371.71,225.9c0-.7.23-1.26.69-1.66.46-.4,1.09-.6,1.9-.6s1.44.2,1.9.6c.46.4.69.95.69,1.66s-.23,1.26-.69,1.66c-.46.4-1.09.6-1.9.6s-1.44-.2-1.9-.6c-.46-.4-.69-.95-.69-1.66Z"/>
          <path id="DejaVuSans-3c-9" data-name="DejaVuSans-3c" d="M372.32,213.7l1.61,4.54,1.6-4.54h.8l-2.04,5.63h-.73l-2.04-5.63h.8Z"/>
          <path id="DejaVuSans-30-19" data-name="DejaVuSans-30" d="M370.77,207.02c0,.46.23.8.68,1.03.45.23,1.13.34,2.03.34s1.57-.11,2.02-.34c.45-.23.68-.57.68-1.03s-.23-.81-.68-1.04c-.45-.23-1.12-.35-2.02-.35s-1.58.12-2.03.35c-.45.23-.68.57-.68,1.04ZM370.07,207.02c0-.74.29-1.3.87-1.69.58-.39,1.43-.58,2.53-.58s1.95.19,2.53.58c.58.39.87.95.87,1.69s-.29,1.3-.87,1.68c-.58.39-1.43.58-2.53.58s-1.95-.19-2.53-.58c-.58-.39-.87-.95-.87-1.68Z"/>
          <path id="DejaVuSans-2e-18" data-name="DejaVuSans-2e" d="M375.63,203.19v-.93h1.12v.93h-1.12Z"/>
          <path id="DejaVuSans-39" d="M376.61,200.31h-.81c.11-.22.19-.45.24-.68.06-.23.08-.45.08-.67,0-.59-.2-1.03-.59-1.34-.39-.31-.99-.49-1.8-.53.25.17.45.39.58.65.14.26.2.55.2.86,0,.66-.2,1.18-.59,1.56-.4.38-.94.57-1.63.57s-1.21-.2-1.62-.6c-.41-.4-.61-.93-.61-1.59,0-.76.29-1.34.87-1.74.58-.4,1.43-.6,2.53-.6,1.03,0,1.86.25,2.48.74.62.49.93,1.15.93,1.98,0,.22-.02.45-.07.68-.04.23-.11.47-.2.71ZM373.83,198.54c0-.4-.14-.71-.41-.95-.27-.23-.65-.35-1.12-.35s-.84.12-1.12.35c-.27.23-.41.55-.41.95s.14.71.41.95c.27.23.65.35,1.12.35s.85-.12,1.12-.35c.27-.23.41-.55.41-.95Z"/>
        </g>
      </g>
    </g>
    <g id="xtick_10">
      <g id="line2d_19">
        <g class="cls-24">
          <path class="cls-6" d="M413.49,188.57V.4"/>
        </g>
      </g>
      <g id="line2d_20">
        <path id="mc727129655-10" data-name="mc727129655" class="cls-8" d="M413.49,188.57v3.5"/>
      </g>
      <g id="text_10">
        <g>
          <path id="DejaVuSans-30-20" data-name="DejaVuSans-30" d="M410,246.49c0,.46.23.8.68,1.03.45.23,1.13.34,2.03.34s1.57-.11,2.02-.34c.45-.23.68-.57.68-1.03s-.23-.81-.68-1.04c-.45-.23-1.12-.35-2.02-.35s-1.58.12-2.03.35c-.45.23-.68.57-.68,1.04ZM409.3,246.49c0-.74.29-1.3.87-1.69.58-.39,1.43-.58,2.53-.58s1.95.19,2.53.58c.58.39.87.95.87,1.69s-.29,1.3-.87,1.68c-.58.39-1.43.58-2.53.58s-1.95-.19-2.53-.58c-.58-.39-.87-.95-.87-1.68Z"/>
          <path id="DejaVuSans-2e-19" data-name="DejaVuSans-2e" d="M414.86,242.67v-.93h1.12v.93h-1.12Z"/>
          <path id="DejaVuSans-39-2" data-name="DejaVuSans-39" d="M415.84,239.78h-.81c.11-.22.19-.45.24-.68.06-.23.08-.45.08-.67,0-.59-.2-1.03-.59-1.34-.39-.31-.99-.49-1.8-.53.25.17.45.39.58.65.14.26.2.55.2.86,0,.66-.2,1.18-.59,1.56-.4.38-.94.57-1.63.57s-1.21-.2-1.62-.6c-.41-.4-.61-.93-.61-1.59,0-.76.29-1.34.87-1.74.58-.4,1.43-.6,2.53-.6,1.03,0,1.86.25,2.48.74.62.49.93,1.15.93,1.98,0,.22-.02.45-.07.68-.04.23-.11.47-.2.71ZM413.06,238.01c0-.4-.14-.71-.41-.95-.27-.23-.65-.35-1.12-.35s-.84.12-1.12.35c-.27.23-.41.55-.41.95s.14.71.41.95c.27.23.65.35,1.12.35s.85-.12,1.12-.35c.27-.23.41-.55.41-.95Z"/>
          <path id="DejaVuSans-74-10" data-name="DejaVuSans-74" d="M409.66,230.53h1.4v-1.67h.63v1.67h2.67c.4,0,.66-.05.77-.16s.17-.33.17-.67v-.83h.68v.83c0,.62-.12,1.06-.35,1.29-.23.24-.66.36-1.27.36h-2.67v.59h-.63v-.59h-1.4v-.81Z"/>
          <path id="DejaVuSans-6f-10" data-name="DejaVuSans-6f" d="M411.62,225.9c0,.43.17.78.51,1.03s.8.38,1.39.38,1.05-.13,1.39-.38c.34-.25.51-.59.51-1.03s-.17-.77-.51-1.02c-.34-.25-.8-.38-1.39-.38s-1.05.13-1.39.38c-.34.25-.51.59-.51,1.02ZM410.94,225.9c0-.7.23-1.26.69-1.66.46-.4,1.09-.6,1.9-.6s1.44.2,1.9.6c.46.4.69.95.69,1.66s-.23,1.26-.69,1.66c-.46.4-1.09.6-1.9.6s-1.44-.2-1.9-.6c-.46-.4-.69-.95-.69-1.66Z"/>
          <path id="DejaVuSans-3c-10" data-name="DejaVuSans-3c" d="M411.55,213.7l1.61,4.54,1.6-4.54h.8l-2.04,5.63h-.73l-2.04-5.63h.8Z"/>
          <path id="DejaVuSans-31-3" data-name="DejaVuSans-31" d="M415.23,208.77v-1.45h-5.01l.32,1.58h-.81l-.32-1.57v-.89h5.81v-1.45h.75v3.78h-.75Z"/>
          <path id="DejaVuSans-2e-20" data-name="DejaVuSans-2e" d="M414.86,203.19v-.93h1.12v.93h-1.12Z"/>
          <path id="DejaVuSans-30-21" data-name="DejaVuSans-30" d="M410,198.43c0,.46.23.8.68,1.03.45.23,1.13.34,2.03.34s1.57-.11,2.02-.34c.45-.23.68-.57.68-1.03s-.23-.81-.68-1.04c-.45-.23-1.12-.35-2.02-.35s-1.58.12-2.03.35c-.45.23-.68.57-.68,1.04ZM409.3,198.43c0-.74.29-1.3.87-1.69.58-.39,1.43-.58,2.53-.58s1.95.19,2.53.58c.58.39.87.95.87,1.69s-.29,1.3-.87,1.68c-.58.39-1.43.58-2.53.58s-1.95-.19-2.53-.58c-.58-.39-.87-.95-.87-1.68Z"/>
        </g>
      </g>
    </g>
    <g id="text_11">
      <g>
        <path id="DejaVuSans-54" d="M189.78,256.91h6.17v.83h-2.59v6.46h-.99v-6.46h-2.59v-.83Z"/>
        <path id="DejaVuSans-61" d="M197.7,261.45c-.73,0-1.23.08-1.51.25s-.42.45-.42.85c0,.32.11.57.32.76.21.19.5.28.86.28.5,0,.9-.18,1.2-.53s.45-.82.45-1.41v-.2h-.89ZM199.49,261.08v3.12h-.9v-.83c-.21.33-.46.58-.77.73-.31.16-.68.24-1.12.24-.56,0-1-.16-1.34-.47-.33-.31-.5-.74-.5-1.26,0-.61.21-1.08.62-1.39.41-.31,1.03-.47,1.84-.47h1.26v-.09c0-.41-.14-.73-.41-.96s-.65-.34-1.15-.34c-.31,0-.62.04-.91.11-.3.08-.58.19-.85.34v-.83c.33-.13.65-.22.96-.28.31-.06.61-.1.9-.1.79,0,1.38.21,1.77.62.39.41.59,1.03.59,1.86Z"/>
        <path id="DejaVuSans-6e" d="M205.89,260.9v3.3h-.9v-3.27c0-.52-.1-.9-.3-1.16-.2-.26-.5-.39-.91-.39-.49,0-.87.15-1.15.46-.28.31-.42.73-.42,1.26v3.09h-.9v-5.47h.9v.85c.22-.33.47-.58.76-.74.29-.16.63-.24,1.01-.24.63,0,1.1.19,1.43.58.32.39.48.96.48,1.72Z"/>
        <path id="DejaVuSans-69" d="M207.68,258.73h.9v5.47h-.9v-5.47ZM207.68,256.6h.9v1.14h-.9v-1.14Z"/>
        <path id="DejaVuSans-6d" d="M214.72,259.78c.23-.4.49-.7.81-.89s.68-.29,1.1-.29c.57,0,1.01.2,1.32.6.31.4.46.96.46,1.7v3.3h-.9v-3.27c0-.52-.09-.91-.28-1.17-.19-.25-.47-.38-.85-.38-.47,0-.83.15-1.1.46-.27.31-.4.73-.4,1.26v3.09h-.9v-3.27c0-.53-.09-.92-.28-1.17s-.47-.38-.86-.38c-.46,0-.82.16-1.1.47-.27.31-.4.73-.4,1.26v3.09h-.9v-5.47h.9v.85c.21-.34.45-.58.74-.74s.63-.24,1.02-.24.74.1,1.01.3c.28.2.48.49.62.88Z"/>
        <path id="DejaVuSans-6f-11" data-name="DejaVuSans-6f" d="M222.32,259.36c-.48,0-.86.19-1.14.56s-.42.89-.42,1.55.14,1.17.42,1.55c.28.38.66.56,1.15.56s.86-.19,1.14-.57c.28-.38.42-.89.42-1.54s-.14-1.16-.42-1.54c-.28-.38-.66-.57-1.14-.57ZM222.32,258.6c.78,0,1.39.25,1.84.76.45.51.67,1.21.67,2.11s-.22,1.6-.67,2.11c-.45.51-1.06.76-1.84.76s-1.4-.25-1.84-.76c-.44-.51-.67-1.21-.67-2.11s.22-1.6.67-2.11c.44-.51,1.06-.76,1.84-.76Z"/>
        <path id="DejaVuSans-74-11" data-name="DejaVuSans-74" d="M227.21,257.18v1.55h1.85v.7h-1.85v2.97c0,.45.06.73.18.86s.37.19.75.19h.92v.75h-.92c-.69,0-1.17-.13-1.44-.39-.26-.26-.4-.73-.4-1.41v-2.97h-.66v-.7h.66v-1.55h.9Z"/>
        <path id="DejaVuSans-6f-12" data-name="DejaVuSans-6f" d="M232.36,259.36c-.48,0-.86.19-1.14.56s-.42.89-.42,1.55.14,1.17.42,1.55c.28.38.66.56,1.15.56s.86-.19,1.14-.57c.28-.38.42-.89.42-1.54s-.14-1.16-.42-1.54c-.28-.38-.66-.57-1.14-.57ZM232.36,258.6c.78,0,1.39.25,1.84.76.45.51.67,1.21.67,2.11s-.22,1.6-.67,2.11c-.45.51-1.06.76-1.84.76s-1.4-.25-1.84-.76c-.44-.51-.67-1.21-.67-2.11s.22-1.6.67-2.11c.44-.51,1.06-.76,1.84-.76Z"/>
        <path id="DejaVuSans-73" d="M243.02,258.89v.85c-.25-.13-.52-.23-.79-.29-.27-.07-.56-.1-.85-.1-.45,0-.78.07-1,.2-.22.14-.33.34-.33.62,0,.21.08.37.24.49s.48.23.96.34l.31.07c.64.14,1.09.33,1.36.58s.4.6.4,1.04c0,.51-.2.91-.6,1.21-.4.3-.95.44-1.66.44-.29,0-.6-.03-.92-.09-.32-.06-.65-.14-1-.26v-.93c.33.17.66.3.98.39.32.09.64.13.96.13.42,0,.75-.07.98-.22.23-.14.34-.35.34-.61,0-.24-.08-.43-.25-.56-.16-.13-.52-.26-1.08-.38l-.31-.07c-.56-.12-.96-.3-1.21-.54-.25-.24-.37-.58-.37-1,0-.51.18-.91.55-1.19.36-.28.88-.42,1.55-.42.33,0,.64.02.94.07.29.05.56.12.81.22Z"/>
        <path id="DejaVuSans-63" d="M248.68,258.94v.84c-.25-.14-.51-.25-.76-.32s-.51-.1-.77-.1c-.58,0-1.04.18-1.36.55-.32.37-.48.89-.48,1.55s.16,1.19.48,1.56c.32.37.78.55,1.36.55.26,0,.52-.03.77-.1s.51-.18.76-.32v.83c-.25.12-.51.2-.78.26-.27.06-.55.09-.86.09-.82,0-1.48-.26-1.96-.78-.48-.52-.73-1.22-.73-2.1s.24-1.59.73-2.1c.49-.51,1.16-.77,2.02-.77.28,0,.55.03.81.09.26.06.52.14.77.25Z"/>
        <path id="DejaVuSans-6f-13" data-name="DejaVuSans-6f" d="M252.36,259.36c-.48,0-.86.19-1.14.56s-.42.89-.42,1.55.14,1.17.42,1.55c.28.38.66.56,1.15.56s.86-.19,1.14-.57c.28-.38.42-.89.42-1.54s-.14-1.16-.42-1.54c-.28-.38-.66-.57-1.14-.57ZM252.36,258.6c.78,0,1.39.25,1.84.76.45.51.67,1.21.67,2.11s-.22,1.6-.67,2.11c-.45.51-1.06.76-1.84.76s-1.4-.25-1.84-.76c-.44-.51-.67-1.21-.67-2.11s.22-1.6.67-2.11c.44-.51,1.06-.76,1.84-.76Z"/>
        <path id="DejaVuSans-72" d="M259.53,259.57c-.1-.06-.21-.1-.33-.13-.12-.03-.25-.04-.39-.04-.51,0-.9.17-1.17.5s-.41.8-.41,1.42v2.88h-.9v-5.47h.9v.85c.19-.33.44-.58.74-.74.3-.16.67-.24,1.1-.24.06,0,.13,0,.2.01.08,0,.16.02.25.04v.92Z"/>
        <path id="DejaVuSans-65" d="M264.93,261.24v.44h-4.13c.04.62.23,1.09.56,1.41.33.32.8.49,1.39.49.34,0,.68-.04,1-.13s.65-.21.97-.38v.85c-.32.14-.65.24-.99.31s-.68.11-1.03.11c-.87,0-1.56-.25-2.07-.76-.51-.51-.76-1.2-.76-2.06s.24-1.6.73-2.13c.48-.53,1.14-.79,1.96-.79.74,0,1.32.24,1.75.71.43.47.64,1.12.64,1.93ZM264.03,260.98c0-.49-.14-.88-.41-1.18-.27-.29-.62-.44-1.07-.44-.5,0-.9.14-1.2.43s-.47.68-.52,1.2h3.2Z"/>
        <path id="DejaVuSans-62" d="M273.51,261.47c0-.66-.14-1.18-.41-1.55s-.65-.56-1.12-.56-.85.19-1.12.56-.41.89-.41,1.55.14,1.18.41,1.55c.27.38.65.56,1.12.56s.85-.19,1.12-.56c.27-.38.41-.89.41-1.55ZM270.45,259.56c.19-.33.43-.57.72-.72.29-.16.63-.24,1.03-.24.66,0,1.2.26,1.62.79.42.53.62,1.22.62,2.08s-.21,1.55-.62,2.08c-.41.53-.95.79-1.62.79-.4,0-.74-.08-1.03-.24-.29-.16-.53-.4-.72-.73v.82h-.9v-7.6h.9v2.96Z"/>
        <path id="DejaVuSans-69-2" data-name="DejaVuSans-69" d="M275.93,258.73h.9v5.47h-.9v-5.47ZM275.93,256.6h.9v1.14h-.9v-1.14Z"/>
        <path id="DejaVuSans-6e-2" data-name="DejaVuSans-6e" d="M283.25,260.9v3.3h-.9v-3.27c0-.52-.1-.9-.3-1.16-.2-.26-.5-.39-.91-.39-.49,0-.87.15-1.15.46-.28.31-.42.73-.42,1.26v3.09h-.9v-5.47h.9v.85c.22-.33.47-.58.76-.74.29-.16.63-.24,1.01-.24.63,0,1.1.19,1.43.58.32.39.48.96.48,1.72Z"/>
      </g>
    </g>
  </g>
  <g id="matplotlib.axis_2">
    <g id="ytick_1">
      <g id="line2d_21">
        <g class="cls-25">
          <path class="cls-6" d="M42.77,173.48h388.38"/>
        </g>
      </g>
      <g id="line2d_22">
        <path id="m109ba76eaa" class="cls-8" d="M42.77,173.48h-3.5"/>
      </g>
      <g id="text_12">
        <g>
          <path id="DejaVuSans-30-22" data-name="DejaVuSans-30" d="M16.68,170.64c-.51,0-.89.25-1.15.75-.26.5-.38,1.25-.38,2.25s.13,1.75.38,2.25c.26.5.64.75,1.15.75s.89-.25,1.15-.75c.26-.5.38-1.25.38-2.25s-.13-1.75-.38-2.25c-.26-.5-.64-.75-1.15-.75ZM16.68,169.86c.82,0,1.44.32,1.87.97.43.65.65,1.58.65,2.81s-.22,2.16-.65,2.81c-.43.65-1.06.97-1.87.97s-1.44-.32-1.87-.97c-.43-.65-.65-1.58-.65-2.81s.22-2.17.65-2.81c.43-.65,1.06-.97,1.87-.97Z"/>
          <path id="DejaVuSans-2e-21" data-name="DejaVuSans-2e" d="M20.93,176.04h1.03v1.24h-1.03v-1.24Z"/>
          <path id="DejaVuSans-30-23" data-name="DejaVuSans-30" d="M26.22,170.64c-.51,0-.89.25-1.15.75-.26.5-.38,1.25-.38,2.25s.13,1.75.38,2.25c.26.5.64.75,1.15.75s.89-.25,1.15-.75c.26-.5.38-1.25.38-2.25s-.13-1.75-.38-2.25c-.26-.5-.64-.75-1.15-.75ZM26.22,169.86c.82,0,1.44.32,1.87.97.43.65.65,1.58.65,2.81s-.22,2.16-.65,2.81c-.43.65-1.06.97-1.87.97s-1.44-.32-1.87-.97c-.43-.65-.65-1.58-.65-2.81s.22-2.17.65-2.81c.43-.65,1.06-.97,1.87-.97Z"/>
          <path id="DejaVuSans-32-3" data-name="DejaVuSans-32" d="M31.32,176.45h3.44v.83h-4.63v-.83c.37-.39.88-.91,1.53-1.56.65-.65,1.05-1.07,1.22-1.26.32-.35.54-.65.66-.9.13-.25.19-.49.19-.73,0-.39-.14-.7-.41-.95-.27-.24-.63-.37-1.06-.37-.31,0-.64.05-.98.16-.34.11-.71.27-1.1.49v-1c.4-.16.77-.28,1.11-.36.35-.08.66-.12.95-.12.76,0,1.36.19,1.81.57.45.38.67.88.67,1.51,0,.3-.06.58-.17.85-.11.27-.32.58-.61.95-.08.09-.34.37-.78.82-.44.45-1.05,1.08-1.85,1.89Z"/>
        </g>
      </g>
    </g>
    <g id="ytick_2">
      <g id="line2d_23">
        <g class="cls-27">
          <path class="cls-6" d="M42.77,141.13h388.38"/>
        </g>
      </g>
      <g id="line2d_24">
        <path id="m109ba76eaa-2" data-name="m109ba76eaa" class="cls-8" d="M42.77,141.13h-3.5"/>
      </g>
      <g id="text_13">
        <g>
          <path id="DejaVuSans-30-24" data-name="DejaVuSans-30" d="M16.68,138.29c-.51,0-.89.25-1.15.75-.26.5-.38,1.25-.38,2.25s.13,1.75.38,2.25c.26.5.64.75,1.15.75s.89-.25,1.15-.75c.26-.5.38-1.25.38-2.25s-.13-1.75-.38-2.25c-.26-.5-.64-.75-1.15-.75ZM16.68,137.5c.82,0,1.44.32,1.87.97.43.65.65,1.58.65,2.81s-.22,2.16-.65,2.81c-.43.65-1.06.97-1.87.97s-1.44-.32-1.87-.97c-.43-.65-.65-1.58-.65-2.81s.22-2.17.65-2.81c.43-.65,1.06-.97,1.87-.97Z"/>
          <path id="DejaVuSans-2e-22" data-name="DejaVuSans-2e" d="M20.93,143.69h1.03v1.24h-1.03v-1.24Z"/>
          <path id="DejaVuSans-30-25" data-name="DejaVuSans-30" d="M26.22,138.29c-.51,0-.89.25-1.15.75-.26.5-.38,1.25-.38,2.25s.13,1.75.38,2.25c.26.5.64.75,1.15.75s.89-.25,1.15-.75c.26-.5.38-1.25.38-2.25s-.13-1.75-.38-2.25c-.26-.5-.64-.75-1.15-.75ZM26.22,137.5c.82,0,1.44.32,1.87.97.43.65.65,1.58.65,2.81s-.22,2.16-.65,2.81c-.43.65-1.06.97-1.87.97s-1.44-.32-1.87-.97c-.43-.65-.65-1.58-.65-2.81s.22-2.17.65-2.81c.43-.65,1.06-.97,1.87-.97Z"/>
          <path id="DejaVuSans-33-3" data-name="DejaVuSans-33" d="M33.46,141c.47.1.84.31,1.1.63.27.32.4.71.4,1.18,0,.72-.25,1.28-.74,1.67-.49.39-1.2.59-2.11.59-.31,0-.62-.03-.94-.09-.32-.06-.66-.15-1-.27v-.95c.27.16.57.28.9.36.33.08.67.12,1.02.12.62,0,1.09-.12,1.41-.37s.49-.6.49-1.06c0-.43-.15-.77-.45-1.01-.3-.24-.72-.36-1.26-.36h-.85v-.81h.89c.48,0,.86-.1,1.11-.29s.39-.47.39-.84-.13-.66-.4-.86c-.26-.2-.64-.3-1.14-.3-.27,0-.56.03-.87.09-.31.06-.65.15-1.02.27v-.88c.38-.1.73-.18,1.05-.23s.64-.08.93-.08c.75,0,1.34.17,1.78.51.44.34.65.8.65,1.38,0,.4-.12.75-.35,1.02s-.56.47-.99.58Z"/>
        </g>
      </g>
    </g>
    <g id="ytick_3">
      <g id="line2d_25">
        <g class="cls-35">
          <path class="cls-6" d="M42.77,108.77h388.38"/>
        </g>
      </g>
      <g id="line2d_26">
        <path id="m109ba76eaa-3" data-name="m109ba76eaa" class="cls-8" d="M42.77,108.77h-3.5"/>
      </g>
      <g id="text_14">
        <g>
          <path id="DejaVuSans-30-26" data-name="DejaVuSans-30" d="M16.68,105.93c-.51,0-.89.25-1.15.75-.26.5-.38,1.25-.38,2.25s.13,1.75.38,2.25c.26.5.64.75,1.15.75s.89-.25,1.15-.75c.26-.5.38-1.25.38-2.25s-.13-1.75-.38-2.25c-.26-.5-.64-.75-1.15-.75ZM16.68,105.15c.82,0,1.44.32,1.87.97.43.65.65,1.58.65,2.81s-.22,2.16-.65,2.81c-.43.65-1.06.97-1.87.97s-1.44-.32-1.87-.97c-.43-.65-.65-1.58-.65-2.81s.22-2.17.65-2.81c.43-.65,1.06-.97,1.87-.97Z"/>
          <path id="DejaVuSans-2e-23" data-name="DejaVuSans-2e" d="M20.93,111.33h1.03v1.24h-1.03v-1.24Z"/>
          <path id="DejaVuSans-30-27" data-name="DejaVuSans-30" d="M26.22,105.93c-.51,0-.89.25-1.15.75-.26.5-.38,1.25-.38,2.25s.13,1.75.38,2.25c.26.5.64.75,1.15.75s.89-.25,1.15-.75c.26-.5.38-1.25.38-2.25s-.13-1.75-.38-2.25c-.26-.5-.64-.75-1.15-.75ZM26.22,105.15c.82,0,1.44.32,1.87.97.43.65.65,1.58.65,2.81s-.22,2.16-.65,2.81c-.43.65-1.06.97-1.87.97s-1.44-.32-1.87-.97c-.43-.65-.65-1.58-.65-2.81s.22-2.17.65-2.81c.43-.65,1.06-.97,1.87-.97Z"/>
          <path id="DejaVuSans-34-3" data-name="DejaVuSans-34" d="M33.18,106.14l-2.49,3.89h2.49v-3.89ZM32.93,105.28h1.24v4.75h1.04v.82h-1.04v1.72h-.98v-1.72h-3.29v-.95l3.03-4.62Z"/>
        </g>
      </g>
    </g>
    <g id="ytick_4">
      <g id="line2d_27">
        <g class="cls-40">
          <path class="cls-6" d="M42.77,76.42h388.38"/>
        </g>
      </g>
      <g id="line2d_28">
        <path id="m109ba76eaa-4" data-name="m109ba76eaa" class="cls-8" d="M42.77,76.42h-3.5"/>
      </g>
      <g id="text_15">
        <g>
          <path id="DejaVuSans-30-28" data-name="DejaVuSans-30" d="M16.68,73.58c-.51,0-.89.25-1.15.75-.26.5-.38,1.25-.38,2.25s.13,1.75.38,2.25c.26.5.64.75,1.15.75s.89-.25,1.15-.75c.26-.5.38-1.25.38-2.25s-.13-1.75-.38-2.25c-.26-.5-.64-.75-1.15-.75ZM16.68,72.8c.82,0,1.44.32,1.87.97.43.65.65,1.58.65,2.81s-.22,2.16-.65,2.81c-.43.65-1.06.97-1.87.97s-1.44-.32-1.87-.97c-.43-.65-.65-1.58-.65-2.81s.22-2.17.65-2.81c.43-.65,1.06-.97,1.87-.97Z"/>
          <path id="DejaVuSans-2e-24" data-name="DejaVuSans-2e" d="M20.93,78.98h1.03v1.24h-1.03v-1.24Z"/>
          <path id="DejaVuSans-30-29" data-name="DejaVuSans-30" d="M26.22,73.58c-.51,0-.89.25-1.15.75-.26.5-.38,1.25-.38,2.25s.13,1.75.38,2.25c.26.5.64.75,1.15.75s.89-.25,1.15-.75c.26-.5.38-1.25.38-2.25s-.13-1.75-.38-2.25c-.26-.5-.64-.75-1.15-.75ZM26.22,72.8c.82,0,1.44.32,1.87.97.43.65.65,1.58.65,2.81s-.22,2.16-.65,2.81c-.43.65-1.06.97-1.87.97s-1.44-.32-1.87-.97c-.43-.65-.65-1.58-.65-2.81s.22-2.17.65-2.81c.43-.65,1.06-.97,1.87-.97Z"/>
          <path id="DejaVuSans-35-3" data-name="DejaVuSans-35" d="M30.48,72.93h3.87v.83h-2.97v1.79c.14-.05.29-.09.43-.11.14-.02.29-.04.43-.04.81,0,1.46.22,1.93.67.48.45.71,1.05.71,1.81s-.24,1.39-.73,1.83c-.49.43-1.18.65-2.07.65-.31,0-.62-.03-.94-.08-.32-.05-.64-.13-.98-.23v-.99c.29.16.6.28.91.36s.64.12.99.12c.56,0,1.01-.15,1.34-.44.33-.3.49-.7.49-1.21s-.16-.91-.49-1.2c-.33-.3-.77-.45-1.34-.45-.26,0-.53.03-.79.09-.26.06-.53.15-.8.27v-3.66Z"/>
        </g>
      </g>
    </g>
    <g id="ytick_5">
      <g id="line2d_29">
        <g class="cls-36">
          <path class="cls-6" d="M42.77,44.07h388.38"/>
        </g>
      </g>
      <g id="line2d_30">
        <path id="m109ba76eaa-5" data-name="m109ba76eaa" class="cls-8" d="M42.77,44.07h-3.5"/>
      </g>
      <g id="text_16">
        <g>
          <path id="DejaVuSans-30-30" data-name="DejaVuSans-30" d="M16.68,41.23c-.51,0-.89.25-1.15.75-.26.5-.38,1.25-.38,2.25s.13,1.75.38,2.25c.26.5.64.75,1.15.75s.89-.25,1.15-.75c.26-.5.38-1.25.38-2.25s-.13-1.75-.38-2.25c-.26-.5-.64-.75-1.15-.75ZM16.68,40.44c.82,0,1.44.32,1.87.97.43.65.65,1.58.65,2.81s-.22,2.16-.65,2.81c-.43.65-1.06.97-1.87.97s-1.44-.32-1.87-.97c-.43-.65-.65-1.58-.65-2.81s.22-2.17.65-2.81c.43-.65,1.06-.97,1.87-.97Z"/>
          <path id="DejaVuSans-2e-25" data-name="DejaVuSans-2e" d="M20.93,46.63h1.03v1.24h-1.03v-1.24Z"/>
          <path id="DejaVuSans-30-31" data-name="DejaVuSans-30" d="M26.22,41.23c-.51,0-.89.25-1.15.75-.26.5-.38,1.25-.38,2.25s.13,1.75.38,2.25c.26.5.64.75,1.15.75s.89-.25,1.15-.75c.26-.5.38-1.25.38-2.25s-.13-1.75-.38-2.25c-.26-.5-.64-.75-1.15-.75ZM26.22,40.44c.82,0,1.44.32,1.87.97.43.65.65,1.58.65,2.81s-.22,2.16-.65,2.81c-.43.65-1.06.97-1.87.97s-1.44-.32-1.87-.97c-.43-.65-.65-1.58-.65-2.81s.22-2.17.65-2.81c.43-.65,1.06-.97,1.87-.97Z"/>
          <path id="DejaVuSans-36-3" data-name="DejaVuSans-36" d="M32.71,43.83c-.44,0-.79.15-1.05.45-.26.3-.39.72-.39,1.24s.13.94.39,1.24c.26.3.61.46,1.05.46s.79-.15,1.05-.46c.26-.31.39-.72.39-1.24s-.13-.94-.39-1.24c-.26-.3-.61-.45-1.05-.45ZM34.66,40.74v.9c-.25-.12-.5-.21-.75-.27-.25-.06-.5-.09-.75-.09-.65,0-1.15.22-1.49.66-.34.44-.54,1.1-.59,1.99.19-.28.43-.5.72-.65.29-.15.61-.23.96-.23.73,0,1.31.22,1.74.67.43.44.64,1.05.64,1.81s-.22,1.35-.66,1.8c-.44.45-1.03.68-1.77.68-.84,0-1.49-.32-1.93-.97-.45-.65-.67-1.58-.67-2.81,0-1.15.27-2.07.82-2.76.55-.69,1.28-1.03,2.2-1.03.25,0,.5.02.75.07s.52.12.79.22Z"/>
        </g>
      </g>
    </g>
    <g id="ytick_6">
      <g id="line2d_31">
        <g class="cls-17">
          <path class="cls-6" d="M42.77,11.71h388.38"/>
        </g>
      </g>
      <g id="line2d_32">
        <path id="m109ba76eaa-6" data-name="m109ba76eaa" class="cls-8" d="M42.77,11.71h-3.5"/>
      </g>
      <g id="text_17">
        <g>
          <path id="DejaVuSans-30-32" data-name="DejaVuSans-30" d="M16.68,8.87c-.51,0-.89.25-1.15.75-.26.5-.38,1.25-.38,2.25s.13,1.75.38,2.25c.26.5.64.75,1.15.75s.89-.25,1.15-.75c.26-.5.38-1.25.38-2.25s-.13-1.75-.38-2.25c-.26-.5-.64-.75-1.15-.75ZM16.68,8.09c.82,0,1.44.32,1.87.97.43.65.65,1.58.65,2.81s-.22,2.16-.65,2.81c-.43.65-1.06.97-1.87.97s-1.44-.32-1.87-.97c-.43-.65-.65-1.58-.65-2.81s.22-2.17.65-2.81c.43-.65,1.06-.97,1.87-.97Z"/>
          <path id="DejaVuSans-2e-26" data-name="DejaVuSans-2e" d="M20.93,14.27h1.03v1.24h-1.03v-1.24Z"/>
          <path id="DejaVuSans-30-33" data-name="DejaVuSans-30" d="M26.22,8.87c-.51,0-.89.25-1.15.75-.26.5-.38,1.25-.38,2.25s.13,1.75.38,2.25c.26.5.64.75,1.15.75s.89-.25,1.15-.75c.26-.5.38-1.25.38-2.25s-.13-1.75-.38-2.25c-.26-.5-.64-.75-1.15-.75ZM26.22,8.09c.82,0,1.44.32,1.87.97.43.65.65,1.58.65,2.81s-.22,2.16-.65,2.81c-.43.65-1.06.97-1.87.97s-1.44-.32-1.87-.97c-.43-.65-.65-1.58-.65-2.81s.22-2.17.65-2.81c.43-.65,1.06-.97,1.87-.97Z"/>
          <path id="DejaVuSans-37-3" data-name="DejaVuSans-37" d="M30.23,8.22h4.69v.42l-2.65,6.87h-1.03l2.49-6.46h-3.5v-.83Z"/>
        </g>
      </g>
    </g>
    <g id="text_18">
      <g>
        <path id="DejaVuSans-4d" d="M.13,104.15v-1.47l4.96-1.86-4.96-1.87v-1.47h7.29v.96H1.02l5,1.88v.99l-5,1.88h6.4v.96H.13Z"/>
        <path id="DejaVuSans-53" d="M.37,91.15h.96c-.18.37-.31.73-.4,1.06-.09.33-.13.65-.13.96,0,.54.1.95.31,1.24.21.29.5.44.89.44.32,0,.57-.1.73-.29.16-.19.3-.56.4-1.1l.12-.6c.14-.74.39-1.28.74-1.63s.83-.53,1.42-.53c.71,0,1.24.24,1.61.71.36.47.55,1.17.55,2.08,0,.34-.04.71-.12,1.1-.08.39-.19.79-.35,1.21h-1.02c.22-.4.39-.79.51-1.18.11-.38.17-.76.17-1.13,0-.56-.11-1-.33-1.3-.22-.31-.54-.46-.95-.46-.36,0-.64.11-.84.33s-.35.58-.45,1.08l-.12.6c-.15.74-.38,1.27-.69,1.6-.31.33-.75.49-1.3.49-.64,0-1.15-.23-1.52-.68-.37-.45-.56-1.08-.56-1.88,0-.34.03-.69.09-1.05.06-.36.15-.72.28-1.09Z"/>
        <path id="DejaVuSans-45" d="M.13,89.18v-4.61h.83v3.62h2.16v-3.47h.83v3.47h2.64v-3.71h.83v4.7H.13Z"/>
      </g>
    </g>
  </g>
  <g id="line2d_33">
    <g class="cls-38">
      <path class="cls-7" d="M60.42,109.88l39.23,4.26,39.23,15.97,39.23,27.21,39.23,12.46,39.23-2.55,39.23-5.34,39.23-14.69,39.23-49.65,39.23-88.6"/>
    </g>
    <g class="cls-16">
      <g>
        <path id="mf1b1ae3164" class="cls-1" d="M60.42,112.88c.8,0,1.56-.32,2.12-.88.56-.56.88-1.33.88-2.12s-.32-1.56-.88-2.12c-.56-.56-1.33-.88-2.12-.88s-1.56.32-2.12.88c-.56.56-.88,1.33-.88,2.12s.32,1.56.88,2.12c.56.56,1.33.88,2.12.88Z"/>
        <path id="mf1b1ae3164-2" data-name="mf1b1ae3164" class="cls-1" d="M99.65,117.14c.8,0,1.56-.32,2.12-.88.56-.56.88-1.33.88-2.12s-.32-1.56-.88-2.12c-.56-.56-1.33-.88-2.12-.88s-1.56.32-2.12.88c-.56.56-.88,1.33-.88,2.12s.32,1.56.88,2.12c.56.56,1.33.88,2.12.88Z"/>
        <path id="mf1b1ae3164-3" data-name="mf1b1ae3164" class="cls-1" d="M138.88,133.11c.8,0,1.56-.32,2.12-.88.56-.56.88-1.33.88-2.12s-.32-1.56-.88-2.12c-.56-.56-1.33-.88-2.12-.88s-1.56.32-2.12.88c-.56.56-.88,1.33-.88,2.12s.32,1.56.88,2.12c.56.56,1.33.88,2.12.88Z"/>
        <path id="mf1b1ae3164-4" data-name="mf1b1ae3164" class="cls-1" d="M178.11,160.33c.8,0,1.56-.32,2.12-.88.56-.56.88-1.33.88-2.12s-.32-1.56-.88-2.12c-.56-.56-1.33-.88-2.12-.88s-1.56.32-2.12.88c-.56.56-.88,1.33-.88,2.12s.32,1.56.88,2.12c.56.56,1.33.88,2.12.88Z"/>
        <path id="mf1b1ae3164-5" data-name="mf1b1ae3164" class="cls-1" d="M217.34,172.79c.8,0,1.56-.32,2.12-.88.56-.56.88-1.33.88-2.12s-.32-1.56-.88-2.12c-.56-.56-1.33-.88-2.12-.88s-1.56.32-2.12.88c-.56.56-.88,1.33-.88,2.12s.32,1.56.88,2.12c.56.56,1.33.88,2.12.88Z"/>
        <path id="mf1b1ae3164-6" data-name="mf1b1ae3164" class="cls-1" d="M256.57,170.24c.8,0,1.56-.32,2.12-.88.56-.56.88-1.33.88-2.12s-.32-1.56-.88-2.12c-.56-.56-1.33-.88-2.12-.88s-1.56.32-2.12.88c-.56.56-.88,1.33-.88,2.12s.32,1.56.88,2.12c.56.56,1.33.88,2.12.88Z"/>
        <path id="mf1b1ae3164-7" data-name="mf1b1ae3164" class="cls-1" d="M295.8,164.9c.8,0,1.56-.32,2.12-.88.56-.56.88-1.33.88-2.12s-.32-1.56-.88-2.12c-.56-.56-1.33-.88-2.12-.88s-1.56.32-2.12.88c-.56.56-.88,1.33-.88,2.12s.32,1.56.88,2.12c.56.56,1.33.88,2.12.88Z"/>
        <path id="mf1b1ae3164-8" data-name="mf1b1ae3164" class="cls-1" d="M335.03,150.21c.8,0,1.56-.32,2.12-.88.56-.56.88-1.33.88-2.12s-.32-1.56-.88-2.12c-.56-.56-1.33-.88-2.12-.88s-1.56.32-2.12.88c-.56.56-.88,1.33-.88,2.12s.32,1.56.88,2.12c.56.56,1.33.88,2.12.88Z"/>
        <path id="mf1b1ae3164-9" data-name="mf1b1ae3164" class="cls-1" d="M374.26,100.56c.8,0,1.56-.32,2.12-.88.56-.56.88-1.33.88-2.12s-.32-1.56-.88-2.12c-.56-.56-1.33-.88-2.12-.88s-1.56.32-2.12.88c-.56.56-.88,1.33-.88,2.12s.32,1.56.88,2.12c.56.56,1.33.88,2.12.88Z"/>
        <path id="mf1b1ae3164-10" data-name="mf1b1ae3164" class="cls-1" d="M413.49,11.95c.8,0,1.56-.32,2.12-.88.56-.56.88-1.33.88-2.12s-.32-1.56-.88-2.12c-.56-.56-1.33-.88-2.12-.88s-1.56.32-2.12.88c-.56.56-.88,1.33-.88,2.12s.32,1.56.88,2.12c.56.56,1.33.88,2.12.88Z"/>
      </g>
    </g>
  </g>
  <g id="line2d_34">
    <g class="cls-18">
      <path class="cls-3" d="M60.42,123.99l39.23-4.23,39.23,12.89,39.23,26.01,39.23,10.63,39.23-3.49,39.23-3.14,39.23-12.88,39.23-48.53,39.23-85.94"/>
    </g>
    <g class="cls-37">
      <g>
        <path id="mf124ef8cd3" class="cls-2" d="M60.42,126.99c.8,0,1.56-.32,2.12-.88.56-.56.88-1.33.88-2.12s-.32-1.56-.88-2.12c-.56-.56-1.33-.88-2.12-.88s-1.56.32-2.12.88c-.56.56-.88,1.33-.88,2.12s.32,1.56.88,2.12c.56.56,1.33.88,2.12.88Z"/>
        <path id="mf124ef8cd3-2" data-name="mf124ef8cd3" class="cls-2" d="M99.65,122.76c.8,0,1.56-.32,2.12-.88.56-.56.88-1.33.88-2.12s-.32-1.56-.88-2.12c-.56-.56-1.33-.88-2.12-.88s-1.56.32-2.12.88c-.56.56-.88,1.33-.88,2.12s.32,1.56.88,2.12c.56.56,1.33.88,2.12.88Z"/>
        <path id="mf124ef8cd3-3" data-name="mf124ef8cd3" class="cls-2" d="M138.88,135.65c.8,0,1.56-.32,2.12-.88.56-.56.88-1.33.88-2.12s-.32-1.56-.88-2.12c-.56-.56-1.33-.88-2.12-.88s-1.56.32-2.12.88c-.56.56-.88,1.33-.88,2.12s.32,1.56.88,2.12c.56.56,1.33.88,2.12.88Z"/>
        <path id="mf124ef8cd3-4" data-name="mf124ef8cd3" class="cls-2" d="M178.11,161.66c.8,0,1.56-.32,2.12-.88.56-.56.88-1.33.88-2.12s-.32-1.56-.88-2.12c-.56-.56-1.33-.88-2.12-.88s-1.56.32-2.12.88c-.56.56-.88,1.33-.88,2.12s.32,1.56.88,2.12c.56.56,1.33.88,2.12.88Z"/>
        <path id="mf124ef8cd3-5" data-name="mf124ef8cd3" class="cls-2" d="M217.34,172.29c.8,0,1.56-.32,2.12-.88.56-.56.88-1.33.88-2.12s-.32-1.56-.88-2.12c-.56-.56-1.33-.88-2.12-.88s-1.56.32-2.12.88c-.56.56-.88,1.33-.88,2.12s.32,1.56.88,2.12c.56.56,1.33.88,2.12.88Z"/>
        <path id="mf124ef8cd3-6" data-name="mf124ef8cd3" class="cls-2" d="M256.57,168.8c.8,0,1.56-.32,2.12-.88.56-.56.88-1.33.88-2.12s-.32-1.56-.88-2.12c-.56-.56-1.33-.88-2.12-.88s-1.56.32-2.12.88c-.56.56-.88,1.33-.88,2.12s.32,1.56.88,2.12c.56.56,1.33.88,2.12.88Z"/>
        <path id="mf124ef8cd3-7" data-name="mf124ef8cd3" class="cls-2" d="M295.8,165.65c.8,0,1.56-.32,2.12-.88.56-.56.88-1.33.88-2.12s-.32-1.56-.88-2.12c-.56-.56-1.33-.88-2.12-.88s-1.56.32-2.12.88c-.56.56-.88,1.33-.88,2.12s.32,1.56.88,2.12c.56.56,1.33.88,2.12.88Z"/>
        <path id="mf124ef8cd3-8" data-name="mf124ef8cd3" class="cls-2" d="M335.03,152.77c.8,0,1.56-.32,2.12-.88.56-.56.88-1.33.88-2.12s-.32-1.56-.88-2.12c-.56-.56-1.33-.88-2.12-.88s-1.56.32-2.12.88c-.56.56-.88,1.33-.88,2.12s.32,1.56.88,2.12c.56.56,1.33.88,2.12.88Z"/>
        <path id="mf124ef8cd3-9" data-name="mf124ef8cd3" class="cls-2" d="M374.26,104.24c.8,0,1.56-.32,2.12-.88.56-.56.88-1.33.88-2.12s-.32-1.56-.88-2.12c-.56-.56-1.33-.88-2.12-.88s-1.56.32-2.12.88c-.56.56-.88,1.33-.88,2.12s.32,1.56.88,2.12c.56.56,1.33.88,2.12.88Z"/>
        <path id="mf124ef8cd3-10" data-name="mf124ef8cd3" class="cls-2" d="M413.49,18.3c.8,0,1.56-.32,2.12-.88.56-.56.88-1.33.88-2.12s-.32-1.56-.88-2.12c-.56-.56-1.33-.88-2.12-.88s-1.56.32-2.12.88c-.56.56-.88,1.33-.88,2.12s.32,1.56.88,2.12c.56.56,1.33.88,2.12.88Z"/>
      </g>
    </g>
  </g>
  <g id="line2d_35">
    <g class="cls-32">
      <path class="cls-5" d="M60.42,142.2l39.23-16,39.23,10.66,39.23,24.94,39.23,5.47,39.23-5.91,39.23.98,39.23-7.7,39.23-45.92,39.23-78.23"/>
    </g>
    <g class="cls-13">
      <g>
        <path id="m46d8cb98f5" class="cls-9" d="M60.42,145.2c.8,0,1.56-.32,2.12-.88.56-.56.88-1.33.88-2.12s-.32-1.56-.88-2.12c-.56-.56-1.33-.88-2.12-.88s-1.56.32-2.12.88c-.56.56-.88,1.33-.88,2.12s.32,1.56.88,2.12c.56.56,1.33.88,2.12.88Z"/>
        <path id="m46d8cb98f5-2" data-name="m46d8cb98f5" class="cls-9" d="M99.65,129.2c.8,0,1.56-.32,2.12-.88.56-.56.88-1.33.88-2.12s-.32-1.56-.88-2.12c-.56-.56-1.33-.88-2.12-.88s-1.56.32-2.12.88c-.56.56-.88,1.33-.88,2.12s.32,1.56.88,2.12c.56.56,1.33.88,2.12.88Z"/>
        <path id="m46d8cb98f5-3" data-name="m46d8cb98f5" class="cls-9" d="M138.88,139.86c.8,0,1.56-.32,2.12-.88.56-.56.88-1.33.88-2.12s-.32-1.56-.88-2.12c-.56-.56-1.33-.88-2.12-.88s-1.56.32-2.12.88c-.56.56-.88,1.33-.88,2.12s.32,1.56.88,2.12c.56.56,1.33.88,2.12.88Z"/>
        <path id="m46d8cb98f5-4" data-name="m46d8cb98f5" class="cls-9" d="M178.11,164.8c.8,0,1.56-.32,2.12-.88.56-.56.88-1.33.88-2.12s-.32-1.56-.88-2.12c-.56-.56-1.33-.88-2.12-.88s-1.56.32-2.12.88c-.56.56-.88,1.33-.88,2.12s.32,1.56.88,2.12c.56.56,1.33.88,2.12.88Z"/>
        <path id="m46d8cb98f5-5" data-name="m46d8cb98f5" class="cls-9" d="M217.34,170.27c.8,0,1.56-.32,2.12-.88.56-.56.88-1.33.88-2.12s-.32-1.56-.88-2.12c-.56-.56-1.33-.88-2.12-.88s-1.56.32-2.12.88c-.56.56-.88,1.33-.88,2.12s.32,1.56.88,2.12c.56.56,1.33.88,2.12.88Z"/>
        <path id="m46d8cb98f5-6" data-name="m46d8cb98f5" class="cls-9" d="M256.57,164.36c.8,0,1.56-.32,2.12-.88.56-.56.88-1.33.88-2.12s-.32-1.56-.88-2.12c-.56-.56-1.33-.88-2.12-.88s-1.56.32-2.12.88c-.56.56-.88,1.33-.88,2.12s.32,1.56.88,2.12c.56.56,1.33.88,2.12.88Z"/>
        <path id="m46d8cb98f5-7" data-name="m46d8cb98f5" class="cls-9" d="M295.8,165.34c.8,0,1.56-.32,2.12-.88.56-.56.88-1.33.88-2.12s-.32-1.56-.88-2.12c-.56-.56-1.33-.88-2.12-.88s-1.56.32-2.12.88c-.56.56-.88,1.33-.88,2.12s.32,1.56.88,2.12c.56.56,1.33.88,2.12.88Z"/>
        <path id="m46d8cb98f5-8" data-name="m46d8cb98f5" class="cls-9" d="M335.03,157.64c.8,0,1.56-.32,2.12-.88.56-.56.88-1.33.88-2.12s-.32-1.56-.88-2.12c-.56-.56-1.33-.88-2.12-.88s-1.56.32-2.12.88c-.56.56-.88,1.33-.88,2.12s.32,1.56.88,2.12c.56.56,1.33.88,2.12.88Z"/>
        <path id="m46d8cb98f5-9" data-name="m46d8cb98f5" class="cls-9" d="M374.26,111.72c.8,0,1.56-.32,2.12-.88.56-.56.88-1.33.88-2.12s-.32-1.56-.88-2.12c-.56-.56-1.33-.88-2.12-.88s-1.56.32-2.12.88c-.56.56-.88,1.33-.88,2.12s.32,1.56.88,2.12c.56.56,1.33.88,2.12.88Z"/>
        <path id="m46d8cb98f5-10" data-name="m46d8cb98f5" class="cls-9" d="M413.49,33.48c.8,0,1.56-.32,2.12-.88.56-.56.88-1.33.88-2.12s-.32-1.56-.88-2.12c-.56-.56-1.33-.88-2.12-.88s-1.56.32-2.12.88c-.56.56-.88,1.33-.88,2.12s.32,1.56.88,2.12c.56.56,1.33.88,2.12.88Z"/>
      </g>
    </g>
  </g>
  <g id="line2d_36">
    <g class="cls-20">
      <path class="cls-10" d="M60.42,159.75l39.23-27.12,39.23,8.81,39.23,23.39,39.23,1.84,39.23-4.62,39.23,2.44,39.23-3.96,39.23-42.63,39.23-64.39"/>
    </g>
    <g class="cls-21">
      <g>
        <path id="med5724bd43" class="cls-12" d="M60.42,162.75c.8,0,1.56-.32,2.12-.88.56-.56.88-1.33.88-2.12s-.32-1.56-.88-2.12c-.56-.56-1.33-.88-2.12-.88s-1.56.32-2.12.88c-.56.56-.88,1.33-.88,2.12s.32,1.56.88,2.12c.56.56,1.33.88,2.12.88Z"/>
        <path id="med5724bd43-2" data-name="med5724bd43" class="cls-12" d="M99.65,135.63c.8,0,1.56-.32,2.12-.88.56-.56.88-1.33.88-2.12s-.32-1.56-.88-2.12c-.56-.56-1.33-.88-2.12-.88s-1.56.32-2.12.88c-.56.56-.88,1.33-.88,2.12s.32,1.56.88,2.12c.56.56,1.33.88,2.12.88Z"/>
        <path id="med5724bd43-3" data-name="med5724bd43" class="cls-12" d="M138.88,144.44c.8,0,1.56-.32,2.12-.88.56-.56.88-1.33.88-2.12s-.32-1.56-.88-2.12c-.56-.56-1.33-.88-2.12-.88s-1.56.32-2.12.88c-.56.56-.88,1.33-.88,2.12s.32,1.56.88,2.12c.56.56,1.33.88,2.12.88Z"/>
        <path id="med5724bd43-4" data-name="med5724bd43" class="cls-12" d="M178.11,167.82c.8,0,1.56-.32,2.12-.88.56-.56.88-1.33.88-2.12s-.32-1.56-.88-2.12c-.56-.56-1.33-.88-2.12-.88s-1.56.32-2.12.88c-.56.56-.88,1.33-.88,2.12s.32,1.56.88,2.12c.56.56,1.33.88,2.12.88Z"/>
        <path id="med5724bd43-5" data-name="med5724bd43" class="cls-12" d="M217.34,169.66c.8,0,1.56-.32,2.12-.88.56-.56.88-1.33.88-2.12s-.32-1.56-.88-2.12c-.56-.56-1.33-.88-2.12-.88s-1.56.32-2.12.88c-.56.56-.88,1.33-.88,2.12s.32,1.56.88,2.12c.56.56,1.33.88,2.12.88Z"/>
        <path id="med5724bd43-6" data-name="med5724bd43" class="cls-12" d="M256.57,165.04c.8,0,1.56-.32,2.12-.88.56-.56.88-1.33.88-2.12s-.32-1.56-.88-2.12c-.56-.56-1.33-.88-2.12-.88s-1.56.32-2.12.88c-.56.56-.88,1.33-.88,2.12s.32,1.56.88,2.12c.56.56,1.33.88,2.12.88Z"/>
        <path id="med5724bd43-7" data-name="med5724bd43" class="cls-12" d="M295.8,167.48c.8,0,1.56-.32,2.12-.88.56-.56.88-1.33.88-2.12s-.32-1.56-.88-2.12c-.56-.56-1.33-.88-2.12-.88s-1.56.32-2.12.88c-.56.56-.88,1.33-.88,2.12s.32,1.56.88,2.12c.56.56,1.33.88,2.12.88Z"/>
        <path id="med5724bd43-8" data-name="med5724bd43" class="cls-12" d="M335.03,163.52c.8,0,1.56-.32,2.12-.88.56-.56.88-1.33.88-2.12s-.32-1.56-.88-2.12c-.56-.56-1.33-.88-2.12-.88s-1.56.32-2.12.88c-.56.56-.88,1.33-.88,2.12s.32,1.56.88,2.12c.56.56,1.33.88,2.12.88Z"/>
        <path id="med5724bd43-9" data-name="med5724bd43" class="cls-12" d="M374.26,120.89c.8,0,1.56-.32,2.12-.88.56-.56.88-1.33.88-2.12s-.32-1.56-.88-2.12c-.56-.56-1.33-.88-2.12-.88s-1.56.32-2.12.88c-.56.56-.88,1.33-.88,2.12s.32,1.56.88,2.12c.56.56,1.33.88,2.12.88Z"/>
        <path id="med5724bd43-10" data-name="med5724bd43" class="cls-12" d="M413.49,56.5c.8,0,1.56-.32,2.12-.88.56-.56.88-1.33.88-2.12s-.32-1.56-.88-2.12c-.56-.56-1.33-.88-2.12-.88s-1.56.32-2.12.88c-.56.56-.88,1.33-.88,2.12s.32,1.56.88,2.12c.56.56,1.33.88,2.12.88Z"/>
      </g>
    </g>
  </g>
  <g id="line2d_37">
    <g class="cls-41">
      <path class="cls-11" d="M60.42,180.02l39.23-33.71,39.23,3.7,39.23,17.88,39.23-2.04,39.23-6.45,39.23,1.74,39.23,3.97,39.23-31.71,39.23-35.72"/>
    </g>
    <g class="cls-26">
      <g>
        <path id="m7f790ce9a2" class="cls-4" d="M60.42,183.02c.8,0,1.56-.32,2.12-.88.56-.56.88-1.33.88-2.12s-.32-1.56-.88-2.12c-.56-.56-1.33-.88-2.12-.88s-1.56.32-2.12.88c-.56.56-.88,1.33-.88,2.12s.32,1.56.88,2.12c.56.56,1.33.88,2.12.88Z"/>
        <path id="m7f790ce9a2-2" data-name="m7f790ce9a2" class="cls-4" d="M99.65,149.31c.8,0,1.56-.32,2.12-.88.56-.56.88-1.33.88-2.12s-.32-1.56-.88-2.12c-.56-.56-1.33-.88-2.12-.88s-1.56.32-2.12.88c-.56.56-.88,1.33-.88,2.12s.32,1.56.88,2.12c.56.56,1.33.88,2.12.88Z"/>
        <path id="m7f790ce9a2-3" data-name="m7f790ce9a2" class="cls-4" d="M138.88,153.01c.8,0,1.56-.32,2.12-.88.56-.56.88-1.33.88-2.12s-.32-1.56-.88-2.12c-.56-.56-1.33-.88-2.12-.88s-1.56.32-2.12.88c-.56.56-.88,1.33-.88,2.12s.32,1.56.88,2.12c.56.56,1.33.88,2.12.88Z"/>
        <path id="m7f790ce9a2-4" data-name="m7f790ce9a2" class="cls-4" d="M178.11,170.89c.8,0,1.56-.32,2.12-.88.56-.56.88-1.33.88-2.12s-.32-1.56-.88-2.12c-.56-.56-1.33-.88-2.12-.88s-1.56.32-2.12.88c-.56.56-.88,1.33-.88,2.12s.32,1.56.88,2.12c.56.56,1.33.88,2.12.88Z"/>
        <path id="m7f790ce9a2-5" data-name="m7f790ce9a2" class="cls-4" d="M217.34,168.85c.8,0,1.56-.32,2.12-.88.56-.56.88-1.33.88-2.12s-.32-1.56-.88-2.12c-.56-.56-1.33-.88-2.12-.88s-1.56.32-2.12.88c-.56.56-.88,1.33-.88,2.12s.32,1.56.88,2.12c.56.56,1.33.88,2.12.88Z"/>
        <path id="m7f790ce9a2-6" data-name="m7f790ce9a2" class="cls-4" d="M256.57,162.41c.8,0,1.56-.32,2.12-.88.56-.56.88-1.33.88-2.12s-.32-1.56-.88-2.12c-.56-.56-1.33-.88-2.12-.88s-1.56.32-2.12.88c-.56.56-.88,1.33-.88,2.12s.32,1.56.88,2.12c.56.56,1.33.88,2.12.88Z"/>
        <path id="m7f790ce9a2-7" data-name="m7f790ce9a2" class="cls-4" d="M295.8,164.15c.8,0,1.56-.32,2.12-.88.56-.56.88-1.33.88-2.12s-.32-1.56-.88-2.12c-.56-.56-1.33-.88-2.12-.88s-1.56.32-2.12.88c-.56.56-.88,1.33-.88,2.12s.32,1.56.88,2.12c.56.56,1.33.88,2.12.88Z"/>
        <path id="m7f790ce9a2-8" data-name="m7f790ce9a2" class="cls-4" d="M335.03,168.12c.8,0,1.56-.32,2.12-.88.56-.56.88-1.33.88-2.12s-.32-1.56-.88-2.12c-.56-.56-1.33-.88-2.12-.88s-1.56.32-2.12.88c-.56.56-.88,1.33-.88,2.12s.32,1.56.88,2.12c.56.56,1.33.88,2.12.88Z"/>
        <path id="m7f790ce9a2-9" data-name="m7f790ce9a2" class="cls-4" d="M374.26,136.41c.8,0,1.56-.32,2.12-.88.56-.56.88-1.33.88-2.12s-.32-1.56-.88-2.12c-.56-.56-1.33-.88-2.12-.88s-1.56.32-2.12.88c-.56.56-.88,1.33-.88,2.12s.32,1.56.88,2.12c.56.56,1.33.88,2.12.88Z"/>
        <path id="m7f790ce9a2-10" data-name="m7f790ce9a2" class="cls-4" d="M413.49,100.69c.8,0,1.56-.32,2.12-.88.56-.56.88-1.33.88-2.12s-.32-1.56-.88-2.12c-.56-.56-1.33-.88-2.12-.88s-1.56.32-2.12.88c-.56.56-.88,1.33-.88,2.12s.32,1.56.88,2.12c.56.56,1.33.88,2.12.88Z"/>
      </g>
    </g>
  </g>
  <g id="patch_3">
    <path class="cls-29" d="M42.77,188.57V.4"/>
  </g>
  <g id="patch_4">
    <path class="cls-29" d="M431.15,188.57V.4"/>
  </g>
  <g id="patch_5">
    <path class="cls-29" d="M42.77,188.57h388.38"/>
  </g>
  <g id="patch_6">
    <path class="cls-29" d="M42.77.4h388.38"/>
  </g>
  <g id="legend_1">
    <g id="patch_7">
      <path class="cls-22" d="M55.07,98.79h113.61c1.33,0,2-.67,2-2V9.72c0-1.33-.67-2-2-2H55.07c-1.33,0-2,.67-2,2v87.07c0,1.33.67,2,2,2Z"/>
    </g>
    <g id="text_19">
      <g>
        <path id="DejaVuSans-50" d="M59.04,12.84v2.74h1.24c.46,0,.81-.12,1.06-.36.25-.24.38-.58.38-1.02s-.13-.77-.38-1.01c-.25-.24-.6-.36-1.06-.36h-1.24ZM58.05,12.03h2.23c.82,0,1.44.18,1.85.55.42.37.63.91.63,1.62s-.21,1.26-.63,1.63c-.42.37-1.04.55-1.85.55h-1.24v2.93h-.99v-7.29Z"/>
        <path id="DejaVuSans-65-2" data-name="DejaVuSans-65" d="M68.36,16.36v.44h-4.13c.04.62.23,1.09.56,1.41.33.32.8.49,1.39.49.34,0,.68-.04,1-.13s.65-.21.97-.38v.85c-.32.14-.65.24-.99.31s-.68.11-1.03.11c-.87,0-1.56-.25-2.07-.76-.51-.51-.76-1.2-.76-2.06s.24-1.6.73-2.13c.48-.53,1.14-.79,1.96-.79.74,0,1.32.24,1.75.71.43.47.64,1.12.64,1.93ZM67.46,16.1c0-.49-.14-.88-.41-1.18-.27-.29-.62-.44-1.07-.44-.5,0-.9.14-1.2.43s-.47.68-.52,1.2h3.2Z"/>
        <path id="DejaVuSans-72-2" data-name="DejaVuSans-72" d="M73,14.69c-.1-.06-.21-.1-.33-.13-.12-.03-.25-.04-.39-.04-.51,0-.9.17-1.17.5s-.41.8-.41,1.42v2.88h-.9v-5.47h.9v.85c.19-.33.44-.58.74-.74.3-.16.67-.24,1.1-.24.06,0,.13,0,.2.01.08,0,.16.02.25.04v.92Z"/>
        <path id="DejaVuSans-63-2" data-name="DejaVuSans-63" d="M77.65,14.06v.84c-.25-.14-.51-.25-.76-.32s-.51-.1-.77-.1c-.58,0-1.04.18-1.36.55-.32.37-.48.89-.48,1.55s.16,1.19.48,1.56c.32.37.78.55,1.36.55.26,0,.52-.03.77-.1s.51-.18.76-.32v.83c-.25.12-.51.2-.78.26-.27.06-.55.09-.86.09-.82,0-1.48-.26-1.96-.78-.48-.52-.73-1.22-.73-2.1s.24-1.59.73-2.1c.49-.51,1.16-.77,2.02-.77.28,0,.55.03.81.09.26.06.52.14.77.25Z"/>
        <path id="DejaVuSans-65-3" data-name="DejaVuSans-65" d="M83.89,16.36v.44h-4.13c.04.62.23,1.09.56,1.41.33.32.8.49,1.39.49.34,0,.68-.04,1-.13s.65-.21.97-.38v.85c-.32.14-.65.24-.99.31s-.68.11-1.03.11c-.87,0-1.56-.25-2.07-.76-.51-.51-.76-1.2-.76-2.06s.24-1.6.73-2.13c.48-.53,1.14-.79,1.96-.79.74,0,1.32.24,1.75.71.43.47.64,1.12.64,1.93ZM83,16.1c0-.49-.14-.88-.41-1.18-.27-.29-.62-.44-1.07-.44-.5,0-.9.14-1.2.43s-.47.68-.52,1.2h3.2Z"/>
        <path id="DejaVuSans-6e-3" data-name="DejaVuSans-6e" d="M89.92,16.02v3.3h-.9v-3.27c0-.52-.1-.9-.3-1.16-.2-.26-.5-.39-.91-.39-.49,0-.87.15-1.15.46-.28.31-.42.73-.42,1.26v3.09h-.9v-5.47h.9v.85c.22-.33.47-.58.76-.74.29-.16.63-.24,1.01-.24.63,0,1.1.19,1.43.58.32.39.48.96.48,1.72Z"/>
        <path id="DejaVuSans-74-12" data-name="DejaVuSans-74" d="M92.6,12.3v1.55h1.85v.7h-1.85v2.97c0,.45.06.73.18.86s.37.19.75.19h.92v.75h-.92c-.69,0-1.17-.13-1.44-.39-.26-.26-.4-.73-.4-1.41v-2.97h-.66v-.7h.66v-1.55h.9Z"/>
        <path id="DejaVuSans-61-2" data-name="DejaVuSans-61" d="M98.11,16.57c-.73,0-1.23.08-1.51.25s-.42.45-.42.85c0,.32.11.57.32.76.21.19.5.28.86.28.5,0,.9-.18,1.2-.53s.45-.82.45-1.41v-.2h-.89ZM99.91,16.2v3.12h-.9v-.83c-.21.33-.46.58-.77.73-.31.16-.68.24-1.12.24-.56,0-1-.16-1.34-.47-.33-.31-.5-.74-.5-1.26,0-.61.21-1.08.62-1.39.41-.31,1.03-.47,1.84-.47h1.26v-.09c0-.41-.14-.73-.41-.96s-.65-.34-1.15-.34c-.31,0-.62.04-.91.11-.3.08-.58.19-.85.34v-.83c.33-.13.65-.22.96-.28.31-.06.61-.1.9-.1.79,0,1.38.21,1.77.62.39.41.59,1.03.59,1.86Z"/>
        <path id="DejaVuSans-67" d="M105.35,16.52c0-.65-.13-1.16-.4-1.51-.27-.36-.64-.54-1.13-.54s-.86.18-1.13.54c-.27.36-.4.86-.4,1.51s.13,1.15.4,1.51c.27.36.64.54,1.13.54s.86-.18,1.13-.54c.27-.36.4-.86.4-1.51ZM106.25,18.64c0,.93-.21,1.62-.62,2.08-.41.45-1.05.68-1.9.68-.32,0-.61-.02-.89-.07s-.55-.12-.82-.22v-.87c.26.14.52.25.78.32.26.07.52.1.79.1.59,0,1.03-.15,1.32-.46.29-.31.44-.77.44-1.39v-.45c-.19.32-.42.56-.71.72s-.64.24-1.04.24c-.67,0-1.21-.26-1.62-.77-.41-.51-.62-1.19-.62-2.03s.21-1.52.62-2.03c.41-.51.95-.77,1.62-.77.4,0,.75.08,1.04.24s.53.4.71.72v-.83h.9v4.79Z"/>
        <path id="DejaVuSans-65-4" data-name="DejaVuSans-65" d="M112.78,16.36v.44h-4.13c.04.62.23,1.09.56,1.41.33.32.8.49,1.39.49.34,0,.68-.04,1-.13s.65-.21.97-.38v.85c-.32.14-.65.24-.99.31s-.68.11-1.03.11c-.87,0-1.56-.25-2.07-.76-.51-.51-.76-1.2-.76-2.06s.24-1.6.73-2.13c.48-.53,1.14-.79,1.96-.79.74,0,1.32.24,1.75.71.43.47.64,1.12.64,1.93ZM111.88,16.1c0-.49-.14-.88-.41-1.18-.27-.29-.62-.44-1.07-.44-.5,0-.9.14-1.2.43s-.47.68-.52,1.2h3.2Z"/>
        <path id="DejaVuSans-6f-14" data-name="DejaVuSans-6f" d="M119.55,14.48c-.48,0-.86.19-1.14.56s-.42.89-.42,1.55.14,1.17.42,1.55c.28.38.66.56,1.15.56s.86-.19,1.14-.57c.28-.38.42-.89.42-1.54s-.14-1.16-.42-1.54c-.28-.38-.66-.57-1.14-.57ZM119.55,13.72c.78,0,1.39.25,1.84.76.45.51.67,1.21.67,2.11s-.22,1.6-.67,2.11c-.45.51-1.06.76-1.84.76s-1.4-.25-1.84-.76c-.44-.51-.67-1.21-.67-2.11s.22-1.6.67-2.11c.44-.51,1.06-.76,1.84-.76Z"/>
        <path id="DejaVuSans-66" d="M126.32,11.72v.75h-.86c-.32,0-.55.07-.67.2-.13.13-.19.36-.19.7v.48h1.48v.7h-1.48v4.77h-.9v-4.77h-.86v-.7h.86v-.38c0-.61.14-1.05.43-1.33.28-.28.73-.42,1.35-.42h.85Z"/>
        <path id="DejaVuSans-73-2" data-name="DejaVuSans-73" d="M133.74,14.01v.85c-.25-.13-.52-.23-.79-.29-.27-.07-.56-.1-.85-.1-.45,0-.78.07-1,.2-.22.14-.33.34-.33.62,0,.21.08.37.24.49s.48.23.96.34l.31.07c.64.14,1.09.33,1.36.58s.4.6.4,1.04c0,.51-.2.91-.6,1.21-.4.3-.95.44-1.66.44-.29,0-.6-.03-.92-.09-.32-.06-.65-.14-1-.26v-.93c.33.17.66.3.98.39.32.09.64.13.96.13.42,0,.75-.07.98-.22.23-.14.34-.35.34-.61,0-.24-.08-.43-.25-.56-.16-.13-.52-.26-1.08-.38l-.31-.07c-.56-.12-.96-.3-1.21-.54-.25-.24-.37-.58-.37-1,0-.51.18-.91.55-1.19.36-.28.88-.42,1.55-.42.33,0,.64.02.94.07.29.05.56.12.81.22Z"/>
        <path id="DejaVuSans-70" d="M136.33,18.5v2.9h-.9v-7.55h.9v.83c.19-.33.43-.57.72-.72.29-.16.63-.24,1.03-.24.66,0,1.2.26,1.62.79.42.53.62,1.22.62,2.08s-.21,1.55-.62,2.08c-.41.53-.95.79-1.62.79-.4,0-.74-.08-1.03-.24-.29-.16-.53-.4-.72-.73ZM139.39,16.59c0-.66-.14-1.18-.41-1.55s-.65-.56-1.12-.56-.85.19-1.12.56-.41.89-.41,1.55.14,1.18.41,1.55c.27.38.65.56,1.12.56s.85-.19,1.12-.56c.27-.38.41-.89.41-1.55Z"/>
        <path id="DejaVuSans-65-5" data-name="DejaVuSans-65" d="M146.49,16.36v.44h-4.13c.04.62.23,1.09.56,1.41.33.32.8.49,1.39.49.34,0,.68-.04,1-.13s.65-.21.97-.38v.85c-.32.14-.65.24-.99.31s-.68.11-1.03.11c-.87,0-1.56-.25-2.07-.76-.51-.51-.76-1.2-.76-2.06s.24-1.6.73-2.13c.48-.53,1.14-.79,1.96-.79.74,0,1.32.24,1.75.71.43.47.64,1.12.64,1.93ZM145.59,16.1c0-.49-.14-.88-.41-1.18-.27-.29-.62-.44-1.07-.44-.5,0-.9.14-1.2.43s-.47.68-.52,1.2h3.2Z"/>
        <path id="DejaVuSans-63-3" data-name="DejaVuSans-63" d="M151.9,14.06v.84c-.25-.14-.51-.25-.76-.32s-.51-.1-.77-.1c-.58,0-1.04.18-1.36.55-.32.37-.48.89-.48,1.55s.16,1.19.48,1.56c.32.37.78.55,1.36.55.26,0,.52-.03.77-.1s.51-.18.76-.32v.83c-.25.12-.51.2-.78.26-.27.06-.55.09-.86.09-.82,0-1.48-.26-1.96-.78-.48-.52-.73-1.22-.73-2.1s.24-1.59.73-2.1c.49-.51,1.16-.77,2.02-.77.28,0,.55.03.81.09.26.06.52.14.77.25Z"/>
        <path id="DejaVuSans-74-13" data-name="DejaVuSans-74" d="M154.35,12.3v1.55h1.85v.7h-1.85v2.97c0,.45.06.73.18.86s.37.19.75.19h.92v.75h-.92c-.69,0-1.17-.13-1.44-.39-.26-.26-.4-.73-.4-1.41v-2.97h-.66v-.7h.66v-1.55h.9Z"/>
        <path id="DejaVuSans-72-3" data-name="DejaVuSans-72" d="M160.55,14.69c-.1-.06-.21-.1-.33-.13-.12-.03-.25-.04-.39-.04-.51,0-.9.17-1.17.5s-.41.8-.41,1.42v2.88h-.9v-5.47h.9v.85c.19-.33.44-.58.74-.74.3-.16.67-.24,1.1-.24.06,0,.13,0,.2.01.08,0,.16.02.25.04v.92Z"/>
        <path id="DejaVuSans-61-3" data-name="DejaVuSans-61" d="M163.98,16.57c-.73,0-1.23.08-1.51.25s-.42.45-.42.85c0,.32.11.57.32.76.21.19.5.28.86.28.5,0,.9-.18,1.2-.53s.45-.82.45-1.41v-.2h-.89ZM165.77,16.2v3.12h-.9v-.83c-.21.33-.46.58-.77.73-.31.16-.68.24-1.12.24-.56,0-1-.16-1.34-.47-.33-.31-.5-.74-.5-1.26,0-.61.21-1.08.62-1.39.41-.31,1.03-.47,1.84-.47h1.26v-.09c0-.41-.14-.73-.41-.96s-.65-.34-1.15-.34c-.31,0-.62.04-.91.11-.3.08-.58.19-.85.34v-.83c.33-.13.65-.22.96-.28.31-.06.61-.1.9-.1.79,0,1.38.21,1.77.62.39.41.59,1.03.59,1.86Z"/>
      </g>
    </g>
    <g id="line2d_38">
      <path class="cls-7" d="M83.58,30.5h20"/>
      <path id="mf1b1ae3164-11" data-name="mf1b1ae3164" class="cls-1" d="M93.58,33.5c.8,0,1.56-.32,2.12-.88.56-.56.88-1.33.88-2.12s-.32-1.56-.88-2.12c-.56-.56-1.33-.88-2.12-.88s-1.56.32-2.12.88c-.56.56-.88,1.33-.88,2.12s.32,1.56.88,2.12c.56.56,1.33.88,2.12.88Z"/>
    </g>
    <g id="text_20">
      <g>
        <path id="DejaVuSans-31-4" data-name="DejaVuSans-31" d="M112.82,33.17h1.61v-5.56l-1.75.35v-.9l1.74-.35h.99v6.46h1.61v.83h-4.2v-.83Z"/>
        <path id="DejaVuSans-30-34" data-name="DejaVuSans-30" d="M121.12,27.36c-.51,0-.89.25-1.15.75-.26.5-.38,1.25-.38,2.25s.13,1.75.38,2.25c.26.5.64.75,1.15.75s.89-.25,1.15-.75c.26-.5.38-1.25.38-2.25s-.13-1.75-.38-2.25c-.26-.5-.64-.75-1.15-.75ZM121.12,26.58c.82,0,1.44.32,1.87.97.43.65.65,1.58.65,2.81s-.22,2.16-.65,2.81c-.43.65-1.06.97-1.87.97s-1.44-.32-1.87-.97c-.43-.65-.65-1.58-.65-2.81s.22-2.17.65-2.81c.43-.65,1.06-.97,1.87-.97Z"/>
        <path id="DejaVuSans-30-35" data-name="DejaVuSans-30" d="M127.48,27.36c-.51,0-.89.25-1.15.75-.26.5-.38,1.25-.38,2.25s.13,1.75.38,2.25c.26.5.64.75,1.15.75s.89-.25,1.15-.75c.26-.5.38-1.25.38-2.25s-.13-1.75-.38-2.25c-.26-.5-.64-.75-1.15-.75ZM127.48,26.58c.82,0,1.44.32,1.87.97.43.65.65,1.58.65,2.81s-.22,2.16-.65,2.81c-.43.65-1.06.97-1.87.97s-1.44-.32-1.87-.97c-.43-.65-.65-1.58-.65-2.81s.22-2.17.65-2.81c.43-.65,1.06-.97,1.87-.97Z"/>
        <path id="DejaVuSans-25" d="M137.94,30.79c-.28,0-.51.12-.67.36-.16.24-.24.58-.24,1.01s.08.76.24,1c.16.24.38.36.67.36s.5-.12.66-.36c.16-.24.24-.58.24-1s-.08-.76-.24-1c-.16-.24-.38-.36-.66-.36ZM137.94,30.17c.51,0,.92.18,1.23.54.3.36.45.84.45,1.45s-.15,1.09-.46,1.45c-.3.36-.71.53-1.22.53s-.93-.18-1.24-.53c-.3-.36-.45-.84-.45-1.45s.15-1.1.46-1.45.72-.53,1.23-.53ZM132.9,27.2c-.28,0-.5.12-.66.36-.16.24-.24.57-.24,1s.08.76.24,1.01c.16.24.38.36.66.36s.51-.12.67-.36c.16-.24.24-.58.24-1.01s-.08-.75-.24-1c-.16-.24-.38-.37-.66-.37ZM137.31,26.58h.78l-4.56,7.56h-.78l4.56-7.56ZM132.9,26.58c.51,0,.92.18,1.23.53.31.36.46.84.46,1.45s-.15,1.1-.46,1.45c-.3.36-.72.53-1.23.53s-.93-.18-1.23-.53c-.3-.36-.45-.84-.45-1.45s.15-1.09.45-1.45c.3-.36.71-.54,1.23-.54Z"/>
      </g>
    </g>
    <g id="line2d_39">
      <path class="cls-3" d="M83.58,45.18h20"/>
      <path id="mf124ef8cd3-11" data-name="mf124ef8cd3" class="cls-2" d="M93.58,48.18c.8,0,1.56-.32,2.12-.88.56-.56.88-1.33.88-2.12s-.32-1.56-.88-2.12c-.56-.56-1.33-.88-2.12-.88s-1.56.32-2.12.88c-.56.56-.88,1.33-.88,2.12s.32,1.56.88,2.12c.56.56,1.33.88,2.12.88Z"/>
    </g>
    <g id="text_21">
      <g>
        <path id="DejaVuSans-38-3" data-name="DejaVuSans-38" d="M114.76,45.22c-.47,0-.84.13-1.11.38-.27.25-.4.6-.4,1.03s.13.78.4,1.04c.27.25.64.38,1.11.38s.84-.13,1.11-.38c.27-.25.41-.6.41-1.03s-.13-.78-.4-1.03c-.27-.25-.64-.38-1.11-.38ZM113.77,44.8c-.42-.1-.75-.3-.99-.59-.24-.29-.35-.64-.35-1.06,0-.58.21-1.04.62-1.38.42-.34.98-.51,1.71-.51s1.3.17,1.71.51.62.8.62,1.38c0,.42-.12.77-.35,1.06-.24.29-.56.49-.98.59.48.11.84.33,1.11.65.27.32.4.72.4,1.18,0,.71-.22,1.25-.65,1.63-.43.38-1.05.57-1.85.57s-1.42-.19-1.85-.57c-.43-.38-.65-.92-.65-1.63,0-.46.13-.86.4-1.18.27-.32.64-.54,1.11-.65ZM113.41,43.24c0,.38.12.67.35.88.24.21.57.32.99.32s.76-.11.99-.32c.24-.21.36-.51.36-.88s-.12-.67-.36-.88c-.24-.21-.57-.32-.99-.32s-.76.11-.99.32c-.24.21-.35.51-.35.88Z"/>
        <path id="DejaVuSans-30-36" data-name="DejaVuSans-30" d="M121.12,42.04c-.51,0-.89.25-1.15.75-.26.5-.38,1.25-.38,2.25s.13,1.75.38,2.25c.26.5.64.75,1.15.75s.89-.25,1.15-.75c.26-.5.38-1.25.38-2.25s-.13-1.75-.38-2.25c-.26-.5-.64-.75-1.15-.75ZM121.12,41.26c.82,0,1.44.32,1.87.97.43.65.65,1.58.65,2.81s-.22,2.16-.65,2.81c-.43.65-1.06.97-1.87.97s-1.44-.32-1.87-.97c-.43-.65-.65-1.58-.65-2.81s.22-2.17.65-2.81c.43-.65,1.06-.97,1.87-.97Z"/>
        <path id="DejaVuSans-25-2" data-name="DejaVuSans-25" d="M131.57,45.47c-.28,0-.51.12-.67.36-.16.24-.24.58-.24,1.01s.08.76.24,1c.16.24.38.36.67.36s.5-.12.66-.36c.16-.24.24-.58.24-1s-.08-.76-.24-1c-.16-.24-.38-.36-.66-.36ZM131.57,44.85c.51,0,.92.18,1.23.54.3.36.45.84.45,1.45s-.15,1.09-.46,1.45c-.3.36-.71.53-1.22.53s-.93-.18-1.24-.53c-.3-.36-.45-.84-.45-1.45s.15-1.1.46-1.45.72-.53,1.23-.53ZM126.54,41.88c-.28,0-.5.12-.66.36-.16.24-.24.57-.24,1s.08.76.24,1.01c.16.24.38.36.66.36s.51-.12.67-.36c.16-.24.24-.58.24-1.01s-.08-.75-.24-1c-.16-.24-.38-.37-.66-.37ZM130.94,41.26h.78l-4.56,7.56h-.78l4.56-7.56ZM126.54,41.26c.51,0,.92.18,1.23.53.31.36.46.84.46,1.45s-.15,1.1-.46,1.45c-.3.36-.72.53-1.23.53s-.93-.18-1.23-.53c-.3-.36-.45-.84-.45-1.45s.15-1.09.45-1.45c.3-.36.71-.54,1.23-.54Z"/>
      </g>
    </g>
    <g id="line2d_40">
      <path class="cls-5" d="M83.58,59.86h20"/>
      <path id="m46d8cb98f5-11" data-name="m46d8cb98f5" class="cls-9" d="M93.58,62.86c.8,0,1.56-.32,2.12-.88.56-.56.88-1.33.88-2.12s-.32-1.56-.88-2.12c-.56-.56-1.33-.88-2.12-.88s-1.56.32-2.12.88c-.56.56-.88,1.33-.88,2.12s.32,1.56.88,2.12c.56.56,1.33.88,2.12.88Z"/>
    </g>
    <g id="text_22">
      <g>
        <path id="DejaVuSans-36-4" data-name="DejaVuSans-36" d="M114.88,59.32c-.44,0-.79.15-1.05.45-.26.3-.39.72-.39,1.24s.13.94.39,1.24c.26.3.61.46,1.05.46s.79-.15,1.05-.46c.26-.31.39-.72.39-1.24s-.13-.94-.39-1.24c-.26-.3-.61-.45-1.05-.45ZM116.84,56.23v.9c-.25-.12-.5-.21-.75-.27-.25-.06-.5-.09-.75-.09-.65,0-1.15.22-1.49.66-.34.44-.54,1.1-.59,1.99.19-.28.43-.5.72-.65.29-.15.61-.23.96-.23.73,0,1.31.22,1.74.67.43.44.64,1.05.64,1.81s-.22,1.35-.66,1.8c-.44.45-1.03.68-1.77.68-.84,0-1.49-.32-1.93-.97-.45-.65-.67-1.58-.67-2.81,0-1.15.27-2.07.82-2.76.55-.69,1.28-1.03,2.2-1.03.25,0,.5.02.75.07s.52.12.79.22Z"/>
        <path id="DejaVuSans-30-37" data-name="DejaVuSans-30" d="M121.12,56.72c-.51,0-.89.25-1.15.75-.26.5-.38,1.25-.38,2.25s.13,1.75.38,2.25c.26.5.64.75,1.15.75s.89-.25,1.15-.75c.26-.5.38-1.25.38-2.25s-.13-1.75-.38-2.25c-.26-.5-.64-.75-1.15-.75ZM121.12,55.93c.82,0,1.44.32,1.87.97.43.65.65,1.58.65,2.81s-.22,2.16-.65,2.81c-.43.65-1.06.97-1.87.97s-1.44-.32-1.87-.97c-.43-.65-.65-1.58-.65-2.81s.22-2.17.65-2.81c.43-.65,1.06-.97,1.87-.97Z"/>
        <path id="DejaVuSans-25-3" data-name="DejaVuSans-25" d="M131.57,60.15c-.28,0-.51.12-.67.36-.16.24-.24.58-.24,1.01s.08.76.24,1c.16.24.38.36.67.36s.5-.12.66-.36c.16-.24.24-.58.24-1s-.08-.76-.24-1c-.16-.24-.38-.36-.66-.36ZM131.57,59.53c.51,0,.92.18,1.23.54.3.36.45.84.45,1.45s-.15,1.09-.46,1.45c-.3.36-.71.53-1.22.53s-.93-.18-1.24-.53c-.3-.36-.45-.84-.45-1.45s.15-1.1.46-1.45.72-.53,1.23-.53ZM126.54,56.56c-.28,0-.5.12-.66.36-.16.24-.24.57-.24,1s.08.76.24,1.01c.16.24.38.36.66.36s.51-.12.67-.36c.16-.24.24-.58.24-1.01s-.08-.75-.24-1c-.16-.24-.38-.37-.66-.37ZM130.94,55.93h.78l-4.56,7.56h-.78l4.56-7.56ZM126.54,55.93c.51,0,.92.18,1.23.53.31.36.46.84.46,1.45s-.15,1.1-.46,1.45c-.3.36-.72.53-1.23.53s-.93-.18-1.23-.53c-.3-.36-.45-.84-.45-1.45s.15-1.09.45-1.45c.3-.36.71-.54,1.23-.54Z"/>
      </g>
    </g>
    <g id="line2d_41">
      <path class="cls-10" d="M83.58,74.53h20"/>
      <path id="med5724bd43-11" data-name="med5724bd43" class="cls-12" d="M93.58,77.53c.8,0,1.56-.32,2.12-.88.56-.56.88-1.33.88-2.12s-.32-1.56-.88-2.12c-.56-.56-1.33-.88-2.12-.88s-1.56.32-2.12.88c-.56.56-.88,1.33-.88,2.12s.32,1.56.88,2.12c.56.56,1.33.88,2.12.88Z"/>
    </g>
    <g id="text_23">
      <g>
        <path id="DejaVuSans-34-4" data-name="DejaVuSans-34" d="M115.36,71.6l-2.49,3.89h2.49v-3.89ZM115.1,70.74h1.24v4.75h1.04v.82h-1.04v1.72h-.98v-1.72h-3.29v-.95l3.03-4.62Z"/>
        <path id="DejaVuSans-30-38" data-name="DejaVuSans-30" d="M121.12,71.39c-.51,0-.89.25-1.15.75-.26.5-.38,1.25-.38,2.25s.13,1.75.38,2.25c.26.5.64.75,1.15.75s.89-.25,1.15-.75c.26-.5.38-1.25.38-2.25s-.13-1.75-.38-2.25c-.26-.5-.64-.75-1.15-.75ZM121.12,70.61c.82,0,1.44.32,1.87.97.43.65.65,1.58.65,2.81s-.22,2.16-.65,2.81c-.43.65-1.06.97-1.87.97s-1.44-.32-1.87-.97c-.43-.65-.65-1.58-.65-2.81s.22-2.17.65-2.81c.43-.65,1.06-.97,1.87-.97Z"/>
        <path id="DejaVuSans-25-4" data-name="DejaVuSans-25" d="M131.57,74.83c-.28,0-.51.12-.67.36-.16.24-.24.58-.24,1.01s.08.76.24,1c.16.24.38.36.67.36s.5-.12.66-.36c.16-.24.24-.58.24-1s-.08-.76-.24-1c-.16-.24-.38-.36-.66-.36ZM131.57,74.21c.51,0,.92.18,1.23.54.3.36.45.84.45,1.45s-.15,1.09-.46,1.45c-.3.36-.71.53-1.22.53s-.93-.18-1.24-.53c-.3-.36-.45-.84-.45-1.45s.15-1.1.46-1.45.72-.53,1.23-.53ZM126.54,71.23c-.28,0-.5.12-.66.36-.16.24-.24.57-.24,1s.08.76.24,1.01c.16.24.38.36.66.36s.51-.12.67-.36c.16-.24.24-.58.24-1.01s-.08-.75-.24-1c-.16-.24-.38-.37-.66-.37ZM130.94,70.61h.78l-4.56,7.56h-.78l4.56-7.56ZM126.54,70.61c.51,0,.92.18,1.23.53.31.36.46.84.46,1.45s-.15,1.1-.46,1.45c-.3.36-.72.53-1.23.53s-.93-.18-1.23-.53c-.3-.36-.45-.84-.45-1.45s.15-1.09.45-1.45c.3-.36.71-.54,1.23-.54Z"/>
      </g>
    </g>
    <g id="line2d_42">
      <path class="cls-11" d="M83.58,89.21h20"/>
      <path id="m7f790ce9a2-11" data-name="m7f790ce9a2" class="cls-4" d="M93.58,92.21c.8,0,1.56-.32,2.12-.88.56-.56.88-1.33.88-2.12s-.32-1.56-.88-2.12c-.56-.56-1.33-.88-2.12-.88s-1.56.32-2.12.88c-.56.56-.88,1.33-.88,2.12s.32,1.56.88,2.12c.56.56,1.33.88,2.12.88Z"/>
    </g>
    <g id="text_24">
      <g>
        <path id="DejaVuSans-32-4" data-name="DejaVuSans-32" d="M113.5,91.88h3.44v.83h-4.63v-.83c.37-.39.88-.91,1.53-1.56.65-.65,1.05-1.07,1.22-1.26.32-.35.54-.65.66-.9.13-.25.19-.49.19-.73,0-.39-.14-.7-.41-.95-.27-.24-.63-.37-1.06-.37-.31,0-.64.05-.98.16-.34.11-.71.27-1.1.49v-1c.4-.16.77-.28,1.11-.36.35-.08.66-.12.95-.12.76,0,1.36.19,1.81.57.45.38.67.88.67,1.51,0,.3-.06.58-.17.85-.11.27-.32.58-.61.95-.08.09-.34.37-.78.82-.44.45-1.05,1.08-1.85,1.89Z"/>
        <path id="DejaVuSans-30-39" data-name="DejaVuSans-30" d="M121.12,86.07c-.51,0-.89.25-1.15.75-.26.5-.38,1.25-.38,2.25s.13,1.75.38,2.25c.26.5.64.75,1.15.75s.89-.25,1.15-.75c.26-.5.38-1.25.38-2.25s-.13-1.75-.38-2.25c-.26-.5-.64-.75-1.15-.75ZM121.12,85.29c.82,0,1.44.32,1.87.97.43.65.65,1.58.65,2.81s-.22,2.16-.65,2.81c-.43.65-1.06.97-1.87.97s-1.44-.32-1.87-.97c-.43-.65-.65-1.58-.65-2.81s.22-2.17.65-2.81c.43-.65,1.06-.97,1.87-.97Z"/>
        <path id="DejaVuSans-25-5" data-name="DejaVuSans-25" d="M131.57,89.51c-.28,0-.51.12-.67.36-.16.24-.24.58-.24,1.01s.08.76.24,1c.16.24.38.36.67.36s.5-.12.66-.36c.16-.24.24-.58.24-1s-.08-.76-.24-1c-.16-.24-.38-.36-.66-.36ZM131.57,88.88c.51,0,.92.18,1.23.54.3.36.45.84.45,1.45s-.15,1.09-.46,1.45c-.3.36-.71.53-1.22.53s-.93-.18-1.24-.53c-.3-.36-.45-.84-.45-1.45s.15-1.1.46-1.45.72-.53,1.23-.53ZM126.54,85.91c-.28,0-.5.12-.66.36-.16.24-.24.57-.24,1s.08.76.24,1.01c.16.24.38.36.66.36s.51-.12.67-.36c.16-.24.24-.58.24-1.01s-.08-.75-.24-1c-.16-.24-.38-.37-.66-.37ZM130.94,85.29h.78l-4.56,7.56h-.78l4.56-7.56ZM126.54,85.29c.51,0,.92.18,1.23.53.31.36.46.84.46,1.45s-.15,1.1-.46,1.45c-.3.36-.72.53-1.23.53s-.93-.18-1.23-.53c-.3-.36-.45-.84-.45-1.45s.15-1.09.45-1.45c.3-.36.71-.54,1.23-.54Z"/>
      </g>
    </g>
  </g>
</svg>